%TF.GenerationSoftware,KiCad,Pcbnew,10.0.5*%
%TF.CreationDate,2026-09-24T20:34:53+03:00*%
%TF.ProjectId,gnss-pod,676e7373-2d70-46f6-942e-6b696361645f,rev?*%
%TF.SameCoordinates,Original*%
%TF.FileFunction,Paste,Top*%
%TF.FilePolarity,Positive*%
%FSLAX46Y46*%
G04 Gerber Fmt 4.6, Leading zero omitted, Abs format (unit mm)*
G04 Created by KiCad (PCBNEW 10.0.5) date 2026-09-24 20:34:53*
%MOMM*%
%LPD*%
G01*
G04 APERTURE LIST*
G04 Aperture macros list*
%AMRoundRect*
0 Rectangle with rounded corners*
0 $1 Rounding radius*
0 $2 $3 $4 $5 $6 $7 $8 $9 X,Y pos of 4 corners*
0 Add a 4 corners polygon primitive as box body*
4,1,4,$2,$3,$4,$5,$6,$7,$8,$9,$2,$3,0*
0 Add four circle primitives for the rounded corners*
1,1,$1+$1,$2,$3*
1,1,$1+$1,$4,$5*
1,1,$1+$1,$6,$7*
1,1,$1+$1,$8,$9*
0 Add four rect primitives between the rounded corners*
20,1,$1+$1,$2,$3,$4,$5,0*
20,1,$1+$1,$4,$5,$6,$7,0*
20,1,$1+$1,$6,$7,$8,$9,0*
20,1,$1+$1,$8,$9,$2,$3,0*%
%AMOutline5P*
0 Free polygon, 5 corners , with rotation*
0 The origin of the aperture is its center*
0 number of corners: always 5*
0 $1 to $10 corner X, Y*
0 $11 Rotation angle, in degrees counterclockwise*
0 create outline with 5 corners*
4,1,5,$1,$2,$3,$4,$5,$6,$7,$8,$9,$10,$1,$2,$11*%
%AMOutline6P*
0 Free polygon, 6 corners , with rotation*
0 The origin of the aperture is its center*
0 number of corners: always 6*
0 $1 to $12 corner X, Y*
0 $13 Rotation angle, in degrees counterclockwise*
0 create outline with 6 corners*
4,1,6,$1,$2,$3,$4,$5,$6,$7,$8,$9,$10,$11,$12,$1,$2,$13*%
%AMOutline7P*
0 Free polygon, 7 corners , with rotation*
0 The origin of the aperture is its center*
0 number of corners: always 7*
0 $1 to $14 corner X, Y*
0 $15 Rotation angle, in degrees counterclockwise*
0 create outline with 7 corners*
4,1,7,$1,$2,$3,$4,$5,$6,$7,$8,$9,$10,$11,$12,$13,$14,$1,$2,$15*%
%AMOutline8P*
0 Free polygon, 8 corners , with rotation*
0 The origin of the aperture is its center*
0 number of corners: always 8*
0 $1 to $16 corner X, Y*
0 $17 Rotation angle, in degrees counterclockwise*
0 create outline with 8 corners*
4,1,8,$1,$2,$3,$4,$5,$6,$7,$8,$9,$10,$11,$12,$13,$14,$15,$16,$1,$2,$17*%
G04 Aperture macros list end*
%ADD10RoundRect,0.218750X-0.218750X-0.256250X0.218750X-0.256250X0.218750X0.256250X-0.218750X0.256250X0*%
%ADD11RoundRect,0.135000X0.185000X-0.135000X0.185000X0.135000X-0.185000X0.135000X-0.185000X-0.135000X0*%
%ADD12RoundRect,0.135000X-0.135000X-0.185000X0.135000X-0.185000X0.135000X0.185000X-0.135000X0.185000X0*%
%ADD13RoundRect,0.140000X-0.140000X-0.170000X0.140000X-0.170000X0.140000X0.170000X-0.140000X0.170000X0*%
%ADD14RoundRect,0.140000X0.140000X0.170000X-0.140000X0.170000X-0.140000X-0.170000X0.140000X-0.170000X0*%
%ADD15RoundRect,0.225000X-0.225000X-0.250000X0.225000X-0.250000X0.225000X0.250000X-0.225000X0.250000X0*%
%ADD16RoundRect,0.150000X-0.575000X0.150000X-0.575000X-0.150000X0.575000X-0.150000X0.575000X0.150000X0*%
%ADD17RoundRect,0.075000X-0.650000X0.075000X-0.650000X-0.075000X0.650000X-0.075000X0.650000X0.075000X0*%
%ADD18R,0.720000X0.580000*%
%ADD19R,0.580000X0.720000*%
%ADD20RoundRect,0.250000X0.250000X0.475000X-0.250000X0.475000X-0.250000X-0.475000X0.250000X-0.475000X0*%
%ADD21RoundRect,0.150000X-0.587500X-0.150000X0.587500X-0.150000X0.587500X0.150000X-0.587500X0.150000X0*%
%ADD22RoundRect,0.140000X0.170000X-0.140000X0.170000X0.140000X-0.170000X0.140000X-0.170000X-0.140000X0*%
%ADD23RoundRect,0.135000X-0.185000X0.135000X-0.185000X-0.135000X0.185000X-0.135000X0.185000X0.135000X0*%
%ADD24RoundRect,0.225000X0.225000X0.250000X-0.225000X0.250000X-0.225000X-0.250000X0.225000X-0.250000X0*%
%ADD25RoundRect,0.250000X0.475000X-0.250000X0.475000X0.250000X-0.475000X0.250000X-0.475000X-0.250000X0*%
%ADD26R,0.800000X0.400000*%
%ADD27R,0.400000X0.800000*%
%ADD28Outline5P,-0.600000X0.000000X0.000000X0.600000X0.600000X0.600000X0.600000X-0.600000X-0.600000X-0.600000X0.000000*%
%ADD29R,1.200000X1.200000*%
%ADD30R,0.800000X0.800000*%
%ADD31RoundRect,0.150000X-0.512500X-0.150000X0.512500X-0.150000X0.512500X0.150000X-0.512500X0.150000X0*%
%ADD32R,0.750000X1.000000*%
%ADD33R,1.550000X1.550000*%
%ADD34RoundRect,0.049992X0.250008X0.070008X-0.250008X0.070008X-0.250008X-0.070008X0.250008X-0.070008X0*%
%ADD35RoundRect,0.049992X0.070008X0.250008X-0.070008X0.250008X-0.070008X-0.250008X0.070008X-0.250008X0*%
%ADD36RoundRect,0.135000X0.135000X0.185000X-0.135000X0.185000X-0.135000X-0.185000X0.135000X-0.185000X0*%
%ADD37R,0.625000X0.300000*%
%ADD38R,0.300000X0.625000*%
%ADD39RoundRect,0.049980X-0.500020X-0.250020X0.500020X-0.250020X0.500020X0.250020X-0.500020X0.250020X0*%
%ADD40R,0.975000X1.700000*%
%ADD41RoundRect,0.150000X0.587500X0.150000X-0.587500X0.150000X-0.587500X-0.150000X0.587500X-0.150000X0*%
G04 APERTURE END LIST*
D10*
%TO.C,LED2*%
X962500Y55150000D03*
X2537500Y55150000D03*
%TD*%
D11*
%TO.C,R17*%
X35850000Y64940000D03*
X35850000Y65960000D03*
%TD*%
D12*
%TO.C,R14*%
X41090000Y60700000D03*
X42110000Y60700000D03*
%TD*%
%TO.C,R2*%
X9890000Y45500000D03*
X10910000Y45500000D03*
%TD*%
D13*
%TO.C,C13*%
X35820000Y61000000D03*
X36780000Y61000000D03*
%TD*%
D14*
%TO.C,C8*%
X43480000Y4000000D03*
X42520000Y4000000D03*
%TD*%
D13*
%TO.C,C9*%
X37100000Y46000000D03*
X38060000Y46000000D03*
%TD*%
D15*
%TO.C,C1*%
X11325000Y55600000D03*
X12875000Y55600000D03*
%TD*%
D13*
%TO.C,C16*%
X41120000Y59600000D03*
X42080000Y59600000D03*
%TD*%
D16*
%TO.C,J1*%
X7695000Y51450000D03*
X7695000Y50650000D03*
D17*
X7695000Y49450000D03*
X7695000Y48450000D03*
X7695000Y47950000D03*
X7695000Y46950000D03*
D16*
X7695000Y45750000D03*
X7695000Y44950000D03*
X7695000Y44950000D03*
X7695000Y45750000D03*
D17*
X7695000Y46450000D03*
X7695000Y47450000D03*
X7695000Y48950000D03*
X7695000Y49950000D03*
D16*
X7695000Y50650000D03*
X7695000Y51450000D03*
%TD*%
D11*
%TO.C,R9*%
X14200000Y53790000D03*
X14200000Y54810000D03*
%TD*%
D13*
%TO.C,C12*%
X37820000Y61000000D03*
X38780000Y61000000D03*
%TD*%
D10*
%TO.C,LED3*%
X4162500Y56700000D03*
X5737500Y56700000D03*
%TD*%
D18*
%TO.C,U2*%
X17900000Y29230000D03*
X17900000Y28370000D03*
X17900000Y27330000D03*
X17900000Y26470000D03*
X17900000Y25430000D03*
X17900000Y24570000D03*
X17900000Y23530000D03*
X17900000Y22670000D03*
X17900000Y21630000D03*
X17900000Y20770000D03*
X18900000Y29230000D03*
X18900000Y28370000D03*
X18900000Y27330000D03*
X18900000Y26470000D03*
X18900000Y25430000D03*
X18900000Y24570000D03*
X18900000Y23530000D03*
X18900000Y22670000D03*
X18900000Y21630000D03*
X18900000Y20770000D03*
D19*
X20770000Y32100000D03*
X20770000Y31100000D03*
X20770000Y18900000D03*
X20770000Y17900000D03*
X21630000Y32100000D03*
X21630000Y31100000D03*
X21630000Y18900000D03*
X21630000Y17900000D03*
X22670000Y32100000D03*
X22670000Y31100000D03*
X22670000Y18900000D03*
X22670000Y17900000D03*
X23530000Y32100000D03*
X23530000Y31100000D03*
X23530000Y18900000D03*
X23530000Y17900000D03*
X24570000Y32100000D03*
X24570000Y31100000D03*
X24570000Y18900000D03*
X24570000Y17900000D03*
X25430000Y32100000D03*
X25430000Y31100000D03*
X25430000Y18900000D03*
X25430000Y17900000D03*
X26470000Y32100000D03*
X26470000Y31100000D03*
X26470000Y18900000D03*
X26470000Y17900000D03*
X27330000Y32100000D03*
X27330000Y31100000D03*
X27330000Y18900000D03*
X27330000Y17900000D03*
X28370000Y32100000D03*
X28370000Y31100000D03*
X28370000Y18900000D03*
X28370000Y17900000D03*
X29230000Y32100000D03*
X29230000Y31100000D03*
X29230000Y18900000D03*
X29230000Y17900000D03*
D18*
X31100000Y29230000D03*
X31100000Y28370000D03*
X31100000Y27330000D03*
X31100000Y26470000D03*
X31100000Y25430000D03*
X31100000Y24570000D03*
X31100000Y23530000D03*
X31100000Y22670000D03*
X31100000Y21630000D03*
X31100000Y20770000D03*
X32100000Y29230000D03*
X32100000Y28370000D03*
X32100000Y27330000D03*
X32100000Y26470000D03*
X32100000Y25430000D03*
X32100000Y24570000D03*
X32100000Y23530000D03*
X32100000Y22670000D03*
X32100000Y21630000D03*
X32100000Y20770000D03*
%TD*%
D20*
%TO.C,C6*%
X15850000Y62100000D03*
X13950000Y62100000D03*
%TD*%
D21*
%TO.C,U6*%
X37462500Y64350000D03*
X37462500Y62450000D03*
X39337500Y63400000D03*
%TD*%
D13*
%TO.C,C10*%
X34200000Y46000000D03*
X35160000Y46000000D03*
%TD*%
D22*
%TO.C,C7*%
X16440000Y63720000D03*
X16440000Y64680000D03*
%TD*%
D12*
%TO.C,R15*%
X4440000Y55150000D03*
X5460000Y55150000D03*
%TD*%
%TO.C,R11*%
X6940000Y56700000D03*
X7960000Y56700000D03*
%TD*%
D23*
%TO.C,R1*%
X9950000Y51260000D03*
X9950000Y50240000D03*
%TD*%
D12*
%TO.C,R13*%
X41090000Y61800000D03*
X42110000Y61800000D03*
%TD*%
D24*
%TO.C,C5*%
X16175000Y66000000D03*
X14625000Y66000000D03*
%TD*%
D12*
%TO.C,R12*%
X14790000Y56500000D03*
X15810000Y56500000D03*
%TD*%
D11*
%TO.C,R10*%
X9400000Y58190000D03*
X9400000Y59210000D03*
%TD*%
D13*
%TO.C,C4*%
X9920000Y62700000D03*
X10880000Y62700000D03*
%TD*%
D25*
%TO.C,C3*%
X15300000Y57950000D03*
X15300000Y59850000D03*
%TD*%
D11*
%TO.C,R19*%
X45600000Y63890000D03*
X45600000Y64910000D03*
%TD*%
D26*
%TO.C,U1*%
X18000000Y65150000D03*
X18000000Y64300000D03*
X18000000Y63450000D03*
X18000000Y62600000D03*
X18000000Y61750000D03*
X18000000Y60900000D03*
X18000000Y60050000D03*
X18000000Y59200000D03*
X18000000Y58350000D03*
X18000000Y57500000D03*
X18000000Y56650000D03*
X18000000Y55800000D03*
X18000000Y54950000D03*
X18000000Y54100000D03*
X18000000Y53250000D03*
D27*
X19050000Y52200000D03*
X19900000Y52200000D03*
X20750000Y52200000D03*
X21600000Y52200000D03*
X22450000Y52200000D03*
X23300000Y52200000D03*
X24150000Y52200000D03*
X25000000Y52200000D03*
X25850000Y52200000D03*
X26700000Y52200000D03*
X27550000Y52200000D03*
X28400000Y52200000D03*
X29250000Y52200000D03*
X30100000Y52200000D03*
X30950000Y52200000D03*
D26*
X32000000Y53250000D03*
X32000000Y54100000D03*
X32000000Y54950000D03*
X32000000Y55800000D03*
X32000000Y56650000D03*
X32000000Y57500000D03*
X32000000Y58350000D03*
X32000000Y59200000D03*
X32000000Y60050000D03*
X32000000Y60900000D03*
X32000000Y61750000D03*
X32000000Y62600000D03*
X32000000Y63450000D03*
X32000000Y64300000D03*
X32000000Y65150000D03*
D27*
X30950000Y66200000D03*
X30100000Y66200000D03*
X29250000Y66200000D03*
X28400000Y66200000D03*
X27550000Y66200000D03*
X26700000Y66200000D03*
X25850000Y66200000D03*
X25000000Y66200000D03*
X24150000Y66200000D03*
X23300000Y66200000D03*
X22450000Y66200000D03*
X21600000Y66200000D03*
X20750000Y66200000D03*
X19900000Y66200000D03*
X19050000Y66200000D03*
D28*
X23350000Y60850000D03*
D29*
X23350000Y59200000D03*
X23350000Y57550000D03*
X25000000Y60850000D03*
X25000000Y59200000D03*
X25000000Y57550000D03*
X26650000Y60850000D03*
X26650000Y59200000D03*
X26650000Y57550000D03*
D30*
X18000000Y66200000D03*
X18000000Y52200000D03*
X32000000Y52200000D03*
X32000000Y66200000D03*
%TD*%
D31*
%TO.C,U7*%
X10362500Y48950000D03*
X10362500Y48000000D03*
X10362500Y47050000D03*
X12637500Y47050000D03*
X12637500Y48000000D03*
X12637500Y48950000D03*
%TD*%
D32*
%TO.C,SW2*%
X44425000Y7400000D03*
X44425000Y13400000D03*
X48175000Y7400000D03*
X48175000Y13400000D03*
%TD*%
D33*
%TO.C,U4*%
X12150000Y58750000D03*
D34*
X13550000Y58000000D03*
X13550000Y58500000D03*
X13550000Y59000000D03*
X13550000Y59500000D03*
D35*
X12900000Y60150000D03*
X12400000Y60150000D03*
X11900000Y60150000D03*
X11400000Y60150000D03*
D34*
X10750000Y59500000D03*
X10750000Y59000000D03*
X10750000Y58500000D03*
X10750000Y58000000D03*
D35*
X11400000Y57350000D03*
X11900000Y57350000D03*
X12400000Y57350000D03*
X12900000Y57350000D03*
%TD*%
D14*
%TO.C,C15*%
X21380000Y45150000D03*
X20420000Y45150000D03*
%TD*%
D11*
%TO.C,R18*%
X14400000Y63660000D03*
X14400000Y64680000D03*
%TD*%
D36*
%TO.C,R5*%
X43510000Y5200000D03*
X42490000Y5200000D03*
%TD*%
D12*
%TO.C,R3*%
X14090000Y47050000D03*
X15110000Y47050000D03*
%TD*%
D37*
%TO.C,U3*%
X21137500Y47950000D03*
X21137500Y47450000D03*
X21137500Y46950000D03*
X21137500Y46450000D03*
D38*
X21800000Y46287500D03*
X22300000Y46287500D03*
X22800000Y46287500D03*
D37*
X23462500Y46450000D03*
X23462500Y46950000D03*
X23462500Y47450000D03*
X23462500Y47950000D03*
D38*
X22800000Y48112500D03*
X22300000Y48112500D03*
X21800000Y48112500D03*
%TD*%
D12*
%TO.C,R16*%
X6940000Y55150000D03*
X7960000Y55150000D03*
%TD*%
%TO.C,R8*%
X12690000Y51700000D03*
X13710000Y51700000D03*
%TD*%
D10*
%TO.C,LED1*%
X962500Y56700000D03*
X2537500Y56700000D03*
%TD*%
D39*
%TO.C,U5*%
X10400000Y65950000D03*
X10400000Y65000000D03*
X10400000Y64050000D03*
X13000000Y64050000D03*
X13000000Y65950000D03*
D40*
X11762500Y65000000D03*
%TD*%
D12*
%TO.C,R4*%
X14090000Y48950000D03*
X15110000Y48950000D03*
%TD*%
D25*
%TO.C,C2*%
X7800000Y59050000D03*
X7800000Y60950000D03*
%TD*%
D41*
%TO.C,Q1*%
X43937500Y63450000D03*
X43937500Y65350000D03*
X42062500Y64400000D03*
%TD*%
D12*
%TO.C,R7*%
X12690000Y52750000D03*
X13710000Y52750000D03*
%TD*%
D13*
%TO.C,C17*%
X26110000Y50650000D03*
X27070000Y50650000D03*
%TD*%
D22*
%TO.C,C18*%
X17500000Y47620000D03*
X17500000Y48580000D03*
%TD*%
D32*
%TO.C,SW1*%
X44425000Y15200000D03*
X44425000Y21200000D03*
X48175000Y15200000D03*
X48175000Y21200000D03*
%TD*%
D13*
%TO.C,C11*%
X38720000Y65900000D03*
X39680000Y65900000D03*
%TD*%
D36*
%TO.C,R6*%
X47410000Y24500000D03*
X46390000Y24500000D03*
%TD*%
D14*
%TO.C,C14*%
X24380000Y45150000D03*
X23420000Y45150000D03*
%TD*%
M02*
