%TF.GenerationSoftware,KiCad,Pcbnew,10.0.5*%
%TF.CreationDate,2026-09-24T19:04:20+03:00*%
%TF.ProjectId,gnss-pod,676e7373-2d70-46f6-942e-6b696361645f,rev?*%
%TF.SameCoordinates,Original*%
%TF.FileFunction,Legend,Bot*%
%TF.FilePolarity,Positive*%
%FSLAX46Y46*%
G04 Gerber Fmt 4.6, Leading zero omitted, Abs format (unit mm)*
G04 Created by KiCad (PCBNEW 10.0.5) date 2026-09-24 19:04:20*
%MOMM*%
%LPD*%
G01*
G04 APERTURE LIST*
G04 Aperture macros list*
%AMRoundRect*
0 Rectangle with rounded corners*
0 $1 Rounding radius*
0 $2 $3 $4 $5 $6 $7 $8 $9 X,Y pos of 4 corners*
0 Add a 4 corners polygon primitive as box body*
4,1,4,$2,$3,$4,$5,$6,$7,$8,$9,$2,$3,0*
0 Add four circle primitives for the rounded corners*
1,1,$1+$1,$2,$3*
1,1,$1+$1,$4,$5*
1,1,$1+$1,$6,$7*
1,1,$1+$1,$8,$9*
0 Add four rect primitives between the rounded corners*
20,1,$1+$1,$2,$3,$4,$5,0*
20,1,$1+$1,$4,$5,$6,$7,0*
20,1,$1+$1,$6,$7,$8,$9,0*
20,1,$1+$1,$8,$9,$2,$3,0*%
G04 Aperture macros list end*
%ADD10C,0.120000*%
%ADD11C,0.150000*%
%ADD12C,0.180000*%
%ADD13C,2.200000*%
%ADD14C,0.650000*%
%ADD15O,2.100000X1.000000*%
%ADD16O,1.600000X1.000000*%
%ADD17R,1.600000X1.600000*%
%ADD18C,1.600000*%
%ADD19RoundRect,0.250000X0.625000X-0.350000X0.625000X0.350000X-0.625000X0.350000X-0.625000X-0.350000X0*%
%ADD20O,1.750000X1.200000*%
%ADD21C,1.000000*%
G04 APERTURE END LIST*
D10*
X27628572Y3359955D02*
X27590476Y3398050D01*
X27590476Y3398050D02*
X27514286Y3436145D01*
X27514286Y3436145D02*
X27323810Y3436145D01*
X27323810Y3436145D02*
X27247619Y3398050D01*
X27247619Y3398050D02*
X27209524Y3359955D01*
X27209524Y3359955D02*
X27171429Y3283764D01*
X27171429Y3283764D02*
X27171429Y3207574D01*
X27171429Y3207574D02*
X27209524Y3093288D01*
X27209524Y3093288D02*
X27666667Y2636145D01*
X27666667Y2636145D02*
X27171429Y2636145D01*
X26676190Y3436145D02*
X26600000Y3436145D01*
X26600000Y3436145D02*
X26523809Y3398050D01*
X26523809Y3398050D02*
X26485714Y3359955D01*
X26485714Y3359955D02*
X26447619Y3283764D01*
X26447619Y3283764D02*
X26409524Y3131383D01*
X26409524Y3131383D02*
X26409524Y2940907D01*
X26409524Y2940907D02*
X26447619Y2788526D01*
X26447619Y2788526D02*
X26485714Y2712336D01*
X26485714Y2712336D02*
X26523809Y2674240D01*
X26523809Y2674240D02*
X26600000Y2636145D01*
X26600000Y2636145D02*
X26676190Y2636145D01*
X26676190Y2636145D02*
X26752381Y2674240D01*
X26752381Y2674240D02*
X26790476Y2712336D01*
X26790476Y2712336D02*
X26828571Y2788526D01*
X26828571Y2788526D02*
X26866667Y2940907D01*
X26866667Y2940907D02*
X26866667Y3131383D01*
X26866667Y3131383D02*
X26828571Y3283764D01*
X26828571Y3283764D02*
X26790476Y3359955D01*
X26790476Y3359955D02*
X26752381Y3398050D01*
X26752381Y3398050D02*
X26676190Y3436145D01*
X26104762Y3359955D02*
X26066666Y3398050D01*
X26066666Y3398050D02*
X25990476Y3436145D01*
X25990476Y3436145D02*
X25800000Y3436145D01*
X25800000Y3436145D02*
X25723809Y3398050D01*
X25723809Y3398050D02*
X25685714Y3359955D01*
X25685714Y3359955D02*
X25647619Y3283764D01*
X25647619Y3283764D02*
X25647619Y3207574D01*
X25647619Y3207574D02*
X25685714Y3093288D01*
X25685714Y3093288D02*
X26142857Y2636145D01*
X26142857Y2636145D02*
X25647619Y2636145D01*
X24961904Y3436145D02*
X25114285Y3436145D01*
X25114285Y3436145D02*
X25190476Y3398050D01*
X25190476Y3398050D02*
X25228571Y3359955D01*
X25228571Y3359955D02*
X25304761Y3245669D01*
X25304761Y3245669D02*
X25342857Y3093288D01*
X25342857Y3093288D02*
X25342857Y2788526D01*
X25342857Y2788526D02*
X25304761Y2712336D01*
X25304761Y2712336D02*
X25266666Y2674240D01*
X25266666Y2674240D02*
X25190476Y2636145D01*
X25190476Y2636145D02*
X25038095Y2636145D01*
X25038095Y2636145D02*
X24961904Y2674240D01*
X24961904Y2674240D02*
X24923809Y2712336D01*
X24923809Y2712336D02*
X24885714Y2788526D01*
X24885714Y2788526D02*
X24885714Y2979002D01*
X24885714Y2979002D02*
X24923809Y3055193D01*
X24923809Y3055193D02*
X24961904Y3093288D01*
X24961904Y3093288D02*
X25038095Y3131383D01*
X25038095Y3131383D02*
X25190476Y3131383D01*
X25190476Y3131383D02*
X25266666Y3093288D01*
X25266666Y3093288D02*
X25304761Y3055193D01*
X25304761Y3055193D02*
X25342857Y2979002D01*
X24542856Y2940907D02*
X23933333Y2940907D01*
X23399999Y3436145D02*
X23323809Y3436145D01*
X23323809Y3436145D02*
X23247618Y3398050D01*
X23247618Y3398050D02*
X23209523Y3359955D01*
X23209523Y3359955D02*
X23171428Y3283764D01*
X23171428Y3283764D02*
X23133333Y3131383D01*
X23133333Y3131383D02*
X23133333Y2940907D01*
X23133333Y2940907D02*
X23171428Y2788526D01*
X23171428Y2788526D02*
X23209523Y2712336D01*
X23209523Y2712336D02*
X23247618Y2674240D01*
X23247618Y2674240D02*
X23323809Y2636145D01*
X23323809Y2636145D02*
X23399999Y2636145D01*
X23399999Y2636145D02*
X23476190Y2674240D01*
X23476190Y2674240D02*
X23514285Y2712336D01*
X23514285Y2712336D02*
X23552380Y2788526D01*
X23552380Y2788526D02*
X23590476Y2940907D01*
X23590476Y2940907D02*
X23590476Y3131383D01*
X23590476Y3131383D02*
X23552380Y3283764D01*
X23552380Y3283764D02*
X23514285Y3359955D01*
X23514285Y3359955D02*
X23476190Y3398050D01*
X23476190Y3398050D02*
X23399999Y3436145D01*
X22752380Y2636145D02*
X22599999Y2636145D01*
X22599999Y2636145D02*
X22523809Y2674240D01*
X22523809Y2674240D02*
X22485713Y2712336D01*
X22485713Y2712336D02*
X22409523Y2826621D01*
X22409523Y2826621D02*
X22371428Y2979002D01*
X22371428Y2979002D02*
X22371428Y3283764D01*
X22371428Y3283764D02*
X22409523Y3359955D01*
X22409523Y3359955D02*
X22447618Y3398050D01*
X22447618Y3398050D02*
X22523809Y3436145D01*
X22523809Y3436145D02*
X22676190Y3436145D01*
X22676190Y3436145D02*
X22752380Y3398050D01*
X22752380Y3398050D02*
X22790475Y3359955D01*
X22790475Y3359955D02*
X22828571Y3283764D01*
X22828571Y3283764D02*
X22828571Y3093288D01*
X22828571Y3093288D02*
X22790475Y3017098D01*
X22790475Y3017098D02*
X22752380Y2979002D01*
X22752380Y2979002D02*
X22676190Y2940907D01*
X22676190Y2940907D02*
X22523809Y2940907D01*
X22523809Y2940907D02*
X22447618Y2979002D01*
X22447618Y2979002D02*
X22409523Y3017098D01*
X22409523Y3017098D02*
X22371428Y3093288D01*
X43544807Y54209524D02*
X43582902Y54095238D01*
X43582902Y54095238D02*
X43620998Y54057143D01*
X43620998Y54057143D02*
X43697188Y54019047D01*
X43697188Y54019047D02*
X43811474Y54019047D01*
X43811474Y54019047D02*
X43887664Y54057143D01*
X43887664Y54057143D02*
X43925760Y54095238D01*
X43925760Y54095238D02*
X43963855Y54171428D01*
X43963855Y54171428D02*
X43963855Y54476190D01*
X43963855Y54476190D02*
X43163855Y54476190D01*
X43163855Y54476190D02*
X43163855Y54209524D01*
X43163855Y54209524D02*
X43201950Y54133333D01*
X43201950Y54133333D02*
X43240045Y54095238D01*
X43240045Y54095238D02*
X43316236Y54057143D01*
X43316236Y54057143D02*
X43392426Y54057143D01*
X43392426Y54057143D02*
X43468617Y54095238D01*
X43468617Y54095238D02*
X43506712Y54133333D01*
X43506712Y54133333D02*
X43544807Y54209524D01*
X43544807Y54209524D02*
X43544807Y54476190D01*
X43735283Y53714286D02*
X43735283Y53333333D01*
X43963855Y53790476D02*
X43163855Y53523809D01*
X43163855Y53523809D02*
X43963855Y53257143D01*
X43163855Y53104762D02*
X43163855Y52647619D01*
X43963855Y52876191D02*
X43163855Y52876191D01*
X43887664Y52380952D02*
X43925760Y52342857D01*
X43925760Y52342857D02*
X43963855Y52380952D01*
X43963855Y52380952D02*
X43925760Y52419048D01*
X43925760Y52419048D02*
X43887664Y52380952D01*
X43887664Y52380952D02*
X43963855Y52380952D01*
X43468617Y52380952D02*
X43506712Y52342857D01*
X43506712Y52342857D02*
X43544807Y52380952D01*
X43544807Y52380952D02*
X43506712Y52419048D01*
X43506712Y52419048D02*
X43468617Y52380952D01*
X43468617Y52380952D02*
X43544807Y52380952D01*
X43659093Y51390476D02*
X43659093Y50780952D01*
X43963855Y51085714D02*
X43354331Y51085714D01*
X43659093Y49790476D02*
X43659093Y49180952D01*
X43963855Y48190476D02*
X43163855Y48190476D01*
X43163855Y48190476D02*
X43963855Y47733333D01*
X43963855Y47733333D02*
X43163855Y47733333D01*
X43163855Y47466667D02*
X43163855Y47009524D01*
X43963855Y47238096D02*
X43163855Y47238096D01*
X43887664Y46285714D02*
X43925760Y46323810D01*
X43925760Y46323810D02*
X43963855Y46438095D01*
X43963855Y46438095D02*
X43963855Y46514286D01*
X43963855Y46514286D02*
X43925760Y46628572D01*
X43925760Y46628572D02*
X43849569Y46704762D01*
X43849569Y46704762D02*
X43773379Y46742857D01*
X43773379Y46742857D02*
X43620998Y46780953D01*
X43620998Y46780953D02*
X43506712Y46780953D01*
X43506712Y46780953D02*
X43354331Y46742857D01*
X43354331Y46742857D02*
X43278140Y46704762D01*
X43278140Y46704762D02*
X43201950Y46628572D01*
X43201950Y46628572D02*
X43163855Y46514286D01*
X43163855Y46514286D02*
X43163855Y46438095D01*
X43163855Y46438095D02*
X43201950Y46323810D01*
X43201950Y46323810D02*
X43240045Y46285714D01*
D11*
X45125713Y55545181D02*
X44554285Y55545181D01*
X44839999Y54545181D02*
X44839999Y55545181D01*
X45220951Y52926134D02*
X44459047Y52926134D01*
X45220951Y50926134D02*
X44459047Y50926134D01*
X44839999Y50545181D02*
X44839999Y51307086D01*
D12*
X35485714Y5654218D02*
X34800000Y5654218D01*
X35142857Y4454218D02*
X35142857Y5654218D01*
X33714285Y4454218D02*
X34114285Y5025646D01*
X34399999Y4454218D02*
X34399999Y5654218D01*
X34399999Y5654218D02*
X33942856Y5654218D01*
X33942856Y5654218D02*
X33828571Y5597075D01*
X33828571Y5597075D02*
X33771428Y5539932D01*
X33771428Y5539932D02*
X33714285Y5425646D01*
X33714285Y5425646D02*
X33714285Y5254218D01*
X33714285Y5254218D02*
X33771428Y5139932D01*
X33771428Y5139932D02*
X33828571Y5082789D01*
X33828571Y5082789D02*
X33942856Y5025646D01*
X33942856Y5025646D02*
X34399999Y5025646D01*
X33257142Y4797075D02*
X32685714Y4797075D01*
X33371428Y4454218D02*
X32971428Y5654218D01*
X32971428Y5654218D02*
X32571428Y4454218D01*
X31485714Y4568503D02*
X31542857Y4511360D01*
X31542857Y4511360D02*
X31714285Y4454218D01*
X31714285Y4454218D02*
X31828571Y4454218D01*
X31828571Y4454218D02*
X32000000Y4511360D01*
X32000000Y4511360D02*
X32114285Y4625646D01*
X32114285Y4625646D02*
X32171428Y4739932D01*
X32171428Y4739932D02*
X32228571Y4968503D01*
X32228571Y4968503D02*
X32228571Y5139932D01*
X32228571Y5139932D02*
X32171428Y5368503D01*
X32171428Y5368503D02*
X32114285Y5482789D01*
X32114285Y5482789D02*
X32000000Y5597075D01*
X32000000Y5597075D02*
X31828571Y5654218D01*
X31828571Y5654218D02*
X31714285Y5654218D01*
X31714285Y5654218D02*
X31542857Y5597075D01*
X31542857Y5597075D02*
X31485714Y5539932D01*
X30971428Y5082789D02*
X30571428Y5082789D01*
X30400000Y4454218D02*
X30971428Y4454218D01*
X30971428Y4454218D02*
X30971428Y5654218D01*
X30971428Y5654218D02*
X30400000Y5654218D01*
X28342857Y5597075D02*
X28457143Y5654218D01*
X28457143Y5654218D02*
X28628571Y5654218D01*
X28628571Y5654218D02*
X28800000Y5597075D01*
X28800000Y5597075D02*
X28914285Y5482789D01*
X28914285Y5482789D02*
X28971428Y5368503D01*
X28971428Y5368503D02*
X29028571Y5139932D01*
X29028571Y5139932D02*
X29028571Y4968503D01*
X29028571Y4968503D02*
X28971428Y4739932D01*
X28971428Y4739932D02*
X28914285Y4625646D01*
X28914285Y4625646D02*
X28800000Y4511360D01*
X28800000Y4511360D02*
X28628571Y4454218D01*
X28628571Y4454218D02*
X28514285Y4454218D01*
X28514285Y4454218D02*
X28342857Y4511360D01*
X28342857Y4511360D02*
X28285714Y4568503D01*
X28285714Y4568503D02*
X28285714Y4968503D01*
X28285714Y4968503D02*
X28514285Y4968503D01*
X27771428Y4454218D02*
X27771428Y5654218D01*
X27771428Y5654218D02*
X27085714Y4454218D01*
X27085714Y4454218D02*
X27085714Y5654218D01*
X26571428Y4511360D02*
X26400000Y4454218D01*
X26400000Y4454218D02*
X26114285Y4454218D01*
X26114285Y4454218D02*
X26000000Y4511360D01*
X26000000Y4511360D02*
X25942857Y4568503D01*
X25942857Y4568503D02*
X25885714Y4682789D01*
X25885714Y4682789D02*
X25885714Y4797075D01*
X25885714Y4797075D02*
X25942857Y4911360D01*
X25942857Y4911360D02*
X26000000Y4968503D01*
X26000000Y4968503D02*
X26114285Y5025646D01*
X26114285Y5025646D02*
X26342857Y5082789D01*
X26342857Y5082789D02*
X26457142Y5139932D01*
X26457142Y5139932D02*
X26514285Y5197075D01*
X26514285Y5197075D02*
X26571428Y5311360D01*
X26571428Y5311360D02*
X26571428Y5425646D01*
X26571428Y5425646D02*
X26514285Y5539932D01*
X26514285Y5539932D02*
X26457142Y5597075D01*
X26457142Y5597075D02*
X26342857Y5654218D01*
X26342857Y5654218D02*
X26057142Y5654218D01*
X26057142Y5654218D02*
X25885714Y5597075D01*
X25428571Y4511360D02*
X25257143Y4454218D01*
X25257143Y4454218D02*
X24971428Y4454218D01*
X24971428Y4454218D02*
X24857143Y4511360D01*
X24857143Y4511360D02*
X24800000Y4568503D01*
X24800000Y4568503D02*
X24742857Y4682789D01*
X24742857Y4682789D02*
X24742857Y4797075D01*
X24742857Y4797075D02*
X24800000Y4911360D01*
X24800000Y4911360D02*
X24857143Y4968503D01*
X24857143Y4968503D02*
X24971428Y5025646D01*
X24971428Y5025646D02*
X25200000Y5082789D01*
X25200000Y5082789D02*
X25314285Y5139932D01*
X25314285Y5139932D02*
X25371428Y5197075D01*
X25371428Y5197075D02*
X25428571Y5311360D01*
X25428571Y5311360D02*
X25428571Y5425646D01*
X25428571Y5425646D02*
X25371428Y5539932D01*
X25371428Y5539932D02*
X25314285Y5597075D01*
X25314285Y5597075D02*
X25200000Y5654218D01*
X25200000Y5654218D02*
X24914285Y5654218D01*
X24914285Y5654218D02*
X24742857Y5597075D01*
X23314285Y4454218D02*
X23314285Y5654218D01*
X23314285Y5654218D02*
X22857142Y5654218D01*
X22857142Y5654218D02*
X22742857Y5597075D01*
X22742857Y5597075D02*
X22685714Y5539932D01*
X22685714Y5539932D02*
X22628571Y5425646D01*
X22628571Y5425646D02*
X22628571Y5254218D01*
X22628571Y5254218D02*
X22685714Y5139932D01*
X22685714Y5139932D02*
X22742857Y5082789D01*
X22742857Y5082789D02*
X22857142Y5025646D01*
X22857142Y5025646D02*
X23314285Y5025646D01*
X21885714Y5654218D02*
X21657142Y5654218D01*
X21657142Y5654218D02*
X21542857Y5597075D01*
X21542857Y5597075D02*
X21428571Y5482789D01*
X21428571Y5482789D02*
X21371428Y5254218D01*
X21371428Y5254218D02*
X21371428Y4854218D01*
X21371428Y4854218D02*
X21428571Y4625646D01*
X21428571Y4625646D02*
X21542857Y4511360D01*
X21542857Y4511360D02*
X21657142Y4454218D01*
X21657142Y4454218D02*
X21885714Y4454218D01*
X21885714Y4454218D02*
X22000000Y4511360D01*
X22000000Y4511360D02*
X22114285Y4625646D01*
X22114285Y4625646D02*
X22171428Y4854218D01*
X22171428Y4854218D02*
X22171428Y5254218D01*
X22171428Y5254218D02*
X22114285Y5482789D01*
X22114285Y5482789D02*
X22000000Y5597075D01*
X22000000Y5597075D02*
X21885714Y5654218D01*
X20857142Y4454218D02*
X20857142Y5654218D01*
X20857142Y5654218D02*
X20571428Y5654218D01*
X20571428Y5654218D02*
X20399999Y5597075D01*
X20399999Y5597075D02*
X20285714Y5482789D01*
X20285714Y5482789D02*
X20228571Y5368503D01*
X20228571Y5368503D02*
X20171428Y5139932D01*
X20171428Y5139932D02*
X20171428Y4968503D01*
X20171428Y4968503D02*
X20228571Y4739932D01*
X20228571Y4739932D02*
X20285714Y4625646D01*
X20285714Y4625646D02*
X20399999Y4511360D01*
X20399999Y4511360D02*
X20571428Y4454218D01*
X20571428Y4454218D02*
X20857142Y4454218D01*
X18742856Y4454218D02*
X18742856Y5254218D01*
X18742856Y5025646D02*
X18685713Y5139932D01*
X18685713Y5139932D02*
X18628571Y5197075D01*
X18628571Y5197075D02*
X18514285Y5254218D01*
X18514285Y5254218D02*
X18399999Y5254218D01*
X17542856Y4511360D02*
X17657142Y4454218D01*
X17657142Y4454218D02*
X17885714Y4454218D01*
X17885714Y4454218D02*
X17999999Y4511360D01*
X17999999Y4511360D02*
X18057142Y4625646D01*
X18057142Y4625646D02*
X18057142Y5082789D01*
X18057142Y5082789D02*
X17999999Y5197075D01*
X17999999Y5197075D02*
X17885714Y5254218D01*
X17885714Y5254218D02*
X17657142Y5254218D01*
X17657142Y5254218D02*
X17542856Y5197075D01*
X17542856Y5197075D02*
X17485714Y5082789D01*
X17485714Y5082789D02*
X17485714Y4968503D01*
X17485714Y4968503D02*
X18057142Y4854218D01*
X17085714Y5254218D02*
X16800000Y4454218D01*
X16800000Y4454218D02*
X16514285Y5254218D01*
X15199999Y4797075D02*
X14628571Y4797075D01*
X15314285Y4454218D02*
X14914285Y5654218D01*
X14914285Y5654218D02*
X14514285Y4454218D01*
%TO.C,TP17*%
D10*
X44200000Y56300000D02*
G75*
G02*
X42800000Y56300000I-700000J0D01*
G01*
X42800000Y56300000D02*
G75*
G02*
X44200000Y56300000I700000J0D01*
G01*
%TO.C,TP3*%
X4050000Y56100000D02*
G75*
G02*
X2650000Y56100000I-700000J0D01*
G01*
X2650000Y56100000D02*
G75*
G02*
X4050000Y56100000I700000J0D01*
G01*
%TO.C,TP18*%
X34200000Y60700000D02*
G75*
G02*
X32800000Y60700000I-700000J0D01*
G01*
X32800000Y60700000D02*
G75*
G02*
X34200000Y60700000I700000J0D01*
G01*
%TO.C,TP14*%
X30100000Y60700000D02*
G75*
G02*
X28700000Y60700000I-700000J0D01*
G01*
X28700000Y60700000D02*
G75*
G02*
X30100000Y60700000I700000J0D01*
G01*
%TO.C,TP13*%
X30100000Y58600000D02*
G75*
G02*
X28700000Y58600000I-700000J0D01*
G01*
X28700000Y58600000D02*
G75*
G02*
X30100000Y58600000I700000J0D01*
G01*
%TO.C,TP10*%
X10600000Y53200000D02*
G75*
G02*
X9200000Y53200000I-700000J0D01*
G01*
X9200000Y53200000D02*
G75*
G02*
X10600000Y53200000I700000J0D01*
G01*
%TO.C,TP7*%
X36900000Y56650000D02*
G75*
G02*
X35500000Y56650000I-700000J0D01*
G01*
X35500000Y56650000D02*
G75*
G02*
X36900000Y56650000I700000J0D01*
G01*
%TO.C,TP11*%
X10600000Y51050000D02*
G75*
G02*
X9200000Y51050000I-700000J0D01*
G01*
X9200000Y51050000D02*
G75*
G02*
X10600000Y51050000I700000J0D01*
G01*
%TO.C,TP19*%
X12700000Y51000000D02*
G75*
G02*
X11300000Y51000000I-700000J0D01*
G01*
X11300000Y51000000D02*
G75*
G02*
X12700000Y51000000I700000J0D01*
G01*
%TO.C,TP6*%
X7300000Y55800000D02*
G75*
G02*
X5900000Y55800000I-700000J0D01*
G01*
X5900000Y55800000D02*
G75*
G02*
X7300000Y55800000I700000J0D01*
G01*
%TO.C,TP1*%
X38700000Y59700000D02*
G75*
G02*
X37300000Y59700000I-700000J0D01*
G01*
X37300000Y59700000D02*
G75*
G02*
X38700000Y59700000I700000J0D01*
G01*
%TO.C,TP16*%
X40700000Y65500000D02*
G75*
G02*
X39300000Y65500000I-700000J0D01*
G01*
X39300000Y65500000D02*
G75*
G02*
X40700000Y65500000I700000J0D01*
G01*
%TO.C,TP15*%
X34750000Y57500000D02*
G75*
G02*
X33350000Y57500000I-700000J0D01*
G01*
X33350000Y57500000D02*
G75*
G02*
X34750000Y57500000I700000J0D01*
G01*
%TO.C,TP8*%
X32600000Y55800000D02*
G75*
G02*
X31200000Y55800000I-700000J0D01*
G01*
X31200000Y55800000D02*
G75*
G02*
X32600000Y55800000I700000J0D01*
G01*
%TO.C,TP5*%
X9100000Y62100000D02*
G75*
G02*
X7700000Y62100000I-700000J0D01*
G01*
X7700000Y62100000D02*
G75*
G02*
X9100000Y62100000I700000J0D01*
G01*
%TO.C,TP4*%
X13700000Y62600000D02*
G75*
G02*
X12300000Y62600000I-700000J0D01*
G01*
X12300000Y62600000D02*
G75*
G02*
X13700000Y62600000I700000J0D01*
G01*
%TO.C,TP9*%
X33600000Y52800000D02*
G75*
G02*
X32200000Y52800000I-700000J0D01*
G01*
X32200000Y52800000D02*
G75*
G02*
X33600000Y52800000I700000J0D01*
G01*
%TO.C,TP2*%
X10100000Y55700000D02*
G75*
G02*
X8700000Y55700000I-700000J0D01*
G01*
X8700000Y55700000D02*
G75*
G02*
X10100000Y55700000I700000J0D01*
G01*
%TD*%
%LPC*%
D13*
%TO.C,MH4*%
X46500000Y60000000D03*
%TD*%
%TO.C,MH2*%
X46500000Y3500000D03*
%TD*%
D14*
%TO.C,J1*%
X6250000Y51090000D03*
X6250000Y45310000D03*
D15*
X6780000Y52520000D03*
D16*
X2600000Y52520000D03*
D15*
X6780000Y43880000D03*
D16*
X2600000Y43880000D03*
%TD*%
D17*
%TO.C,SW3*%
X2200000Y64680000D03*
D18*
X4700000Y64680000D03*
X7200000Y64680000D03*
%TD*%
D13*
%TO.C,MH3*%
X3500000Y60000000D03*
%TD*%
D19*
%TO.C,J2*%
X46640000Y51000000D03*
D20*
X46640000Y53000000D03*
X46640000Y55000000D03*
%TD*%
D13*
%TO.C,MH1*%
X3500000Y3500000D03*
%TD*%
D21*
%TO.C,TP17*%
X43500000Y56300000D03*
%TD*%
%TO.C,TP3*%
X3350000Y56100000D03*
%TD*%
%TO.C,TP18*%
X33500000Y60700000D03*
%TD*%
%TO.C,TP14*%
X29400000Y60700000D03*
%TD*%
%TO.C,TP13*%
X29400000Y58600000D03*
%TD*%
%TO.C,TP10*%
X9900000Y53200000D03*
%TD*%
%TO.C,TP7*%
X36200000Y56650000D03*
%TD*%
%TO.C,TP11*%
X9900000Y51050000D03*
%TD*%
%TO.C,TP19*%
X12000000Y51000000D03*
%TD*%
%TO.C,TP6*%
X6600000Y55800000D03*
%TD*%
%TO.C,TP1*%
X38000000Y59700000D03*
%TD*%
%TO.C,TP16*%
X40000000Y65500000D03*
%TD*%
%TO.C,TP15*%
X34050000Y57500000D03*
%TD*%
%TO.C,TP8*%
X31900000Y55800000D03*
%TD*%
%TO.C,TP5*%
X8400000Y62100000D03*
%TD*%
%TO.C,TP4*%
X13000000Y62600000D03*
%TD*%
%TO.C,TP9*%
X32900000Y52800000D03*
%TD*%
%TO.C,TP2*%
X9400000Y55700000D03*
%TD*%
%LPD*%
M02*
