%TF.GenerationSoftware,KiCad,Pcbnew,10.0.5*%
%TF.CreationDate,2026-09-24T19:04:20+03:00*%
%TF.ProjectId,gnss-pod,676e7373-2d70-46f6-942e-6b696361645f,rev?*%
%TF.SameCoordinates,Original*%
%TF.FileFunction,Copper,L2,Bot*%
%TF.FilePolarity,Positive*%
%FSLAX46Y46*%
G04 Gerber Fmt 4.6, Leading zero omitted, Abs format (unit mm)*
G04 Created by KiCad (PCBNEW 10.0.5) date 2026-09-24 19:04:20*
%MOMM*%
%LPD*%
G01*
G04 APERTURE LIST*
G04 Aperture macros list*
%AMRoundRect*
0 Rectangle with rounded corners*
0 $1 Rounding radius*
0 $2 $3 $4 $5 $6 $7 $8 $9 X,Y pos of 4 corners*
0 Add a 4 corners polygon primitive as box body*
4,1,4,$2,$3,$4,$5,$6,$7,$8,$9,$2,$3,0*
0 Add four circle primitives for the rounded corners*
1,1,$1+$1,$2,$3*
1,1,$1+$1,$4,$5*
1,1,$1+$1,$6,$7*
1,1,$1+$1,$8,$9*
0 Add four rect primitives between the rounded corners*
20,1,$1+$1,$2,$3,$4,$5,0*
20,1,$1+$1,$4,$5,$6,$7,0*
20,1,$1+$1,$6,$7,$8,$9,0*
20,1,$1+$1,$8,$9,$2,$3,0*%
G04 Aperture macros list end*
%TA.AperFunction,ComponentPad*%
%ADD10O,2.100000X1.000000*%
%TD*%
%TA.AperFunction,ComponentPad*%
%ADD11O,1.600000X1.000000*%
%TD*%
%TA.AperFunction,ComponentPad*%
%ADD12R,1.600000X1.600000*%
%TD*%
%TA.AperFunction,ComponentPad*%
%ADD13C,1.600000*%
%TD*%
%TA.AperFunction,ComponentPad*%
%ADD14RoundRect,0.250000X0.625000X-0.350000X0.625000X0.350000X-0.625000X0.350000X-0.625000X-0.350000X0*%
%TD*%
%TA.AperFunction,ComponentPad*%
%ADD15O,1.750000X1.200000*%
%TD*%
%TA.AperFunction,SMDPad,CuDef*%
%ADD16C,1.000000*%
%TD*%
%TA.AperFunction,ViaPad*%
%ADD17C,0.500000*%
%TD*%
%TA.AperFunction,Conductor*%
%ADD18C,0.300000*%
%TD*%
%TA.AperFunction,Conductor*%
%ADD19C,0.500000*%
%TD*%
%TA.AperFunction,Conductor*%
%ADD20C,0.400000*%
%TD*%
%TA.AperFunction,Conductor*%
%ADD21C,0.200000*%
%TD*%
G04 APERTURE END LIST*
D10*
%TO.P,J1,SH*%
%TO.N,GND*%
X6780000Y52520000D03*
D11*
X2600000Y52520000D03*
D10*
X6780000Y43880000D03*
D11*
X2600000Y43880000D03*
%TD*%
D12*
%TO.P,SW3,1*%
%TO.N,VSYS*%
X2200000Y64680000D03*
D13*
%TO.P,SW3,2*%
%TO.N,LDO_EN*%
X4700000Y64680000D03*
%TO.P,SW3,3*%
%TO.N,GND*%
X7200000Y64680000D03*
%TD*%
D14*
%TO.P,J2,1*%
%TO.N,VBAT*%
X46640000Y51000000D03*
D15*
%TO.P,J2,2*%
%TO.N,GND*%
X46640000Y53000000D03*
%TO.P,J2,3*%
%TO.N,TS*%
X46640000Y55000000D03*
%TD*%
D16*
%TO.P,TP17,1*%
%TO.N,BOOT*%
X43500000Y56300000D03*
%TD*%
%TO.P,TP3,1*%
%TO.N,GND*%
X3350000Y56100000D03*
%TD*%
%TO.P,TP18,1*%
%TO.N,VBCKP*%
X33500000Y60700000D03*
%TD*%
%TO.P,TP14,1*%
%TO.N,U0RXD*%
X29400000Y60700000D03*
%TD*%
%TO.P,TP13,1*%
%TO.N,U0TXD*%
X29400000Y58600000D03*
%TD*%
%TO.P,TP10,1*%
%TO.N,I2C_SDA*%
X9900000Y53200000D03*
%TD*%
%TO.P,TP7,1*%
%TO.N,GNSS_TXD*%
X36200000Y56650000D03*
%TD*%
%TO.P,TP11,1*%
%TO.N,I2C_SCL*%
X9900000Y51050000D03*
%TD*%
%TO.P,TP19,1*%
%TO.N,IMU_INT1*%
X12000000Y51000000D03*
%TD*%
%TO.P,TP6,1*%
%TO.N,VBUS*%
X6600000Y55800000D03*
%TD*%
%TO.P,TP1,1*%
%TO.N,3V3*%
X38000000Y59700000D03*
%TD*%
%TO.P,TP16,1*%
%TO.N,EN*%
X40000000Y65500000D03*
%TD*%
%TO.P,TP15,1*%
%TO.N,GNSS_RESET_N*%
X34050000Y57500000D03*
%TD*%
%TO.P,TP8,1*%
%TO.N,GNSS_RXD*%
X31900000Y55800000D03*
%TD*%
%TO.P,TP5,1*%
%TO.N,VSYS*%
X8400000Y62100000D03*
%TD*%
%TO.P,TP4,1*%
%TO.N,VBAT*%
X13000000Y62600000D03*
%TD*%
%TO.P,TP9,1*%
%TO.N,PPS*%
X32900000Y52800000D03*
%TD*%
%TO.P,TP2,1*%
%TO.N,GND*%
X9400000Y55700000D03*
%TD*%
D17*
%TO.N,3V3*%
X37100000Y52750000D03*
X17100000Y52850000D03*
X34200000Y52800000D03*
X35000000Y59700000D03*
X14700000Y55600000D03*
X16500000Y56400000D03*
X35000000Y64350000D03*
X16900000Y62600000D03*
X40000000Y52750000D03*
%TO.N,BOOT*%
X43500000Y56300000D03*
X19900000Y62100000D03*
%TO.N,CHG_N*%
X6500000Y59200000D03*
X10700000Y60000000D03*
%TO.N,EN*%
X30600000Y65100000D03*
X49300000Y56000000D03*
%TO.N,GND*%
X14100000Y63500000D03*
X1000000Y1000000D03*
X11000000Y40000000D03*
X24175000Y57550000D03*
X28750000Y21250000D03*
X1000000Y18150000D03*
X6650000Y13906250D03*
X15000000Y40000000D03*
X1000000Y60650000D03*
X3000000Y12000000D03*
X41500000Y66200000D03*
X37900000Y46900000D03*
X1000000Y8150000D03*
X6000000Y1000000D03*
X42000000Y58900000D03*
X15000000Y20000000D03*
X700000Y57800000D03*
X20400000Y48600000D03*
X10550000Y50240000D03*
X43350000Y29437500D03*
X6650000Y22781250D03*
X15000000Y4000000D03*
X47000000Y16000000D03*
X43350000Y7250000D03*
X1000000Y43150000D03*
X8943750Y6650001D03*
X42800000Y58900000D03*
X1000000Y50650000D03*
X19000000Y20000000D03*
X33500000Y1000000D03*
X24175000Y60850000D03*
X23000000Y4000000D03*
X1000000Y30650000D03*
X35000000Y40000000D03*
X27000000Y12000000D03*
X21250000Y28750000D03*
X38500000Y1000000D03*
X21250000Y26250000D03*
X1000000Y13150000D03*
X11762500Y66350001D03*
X6650000Y20562500D03*
X39000000Y4000000D03*
X27800000Y50650000D03*
X7000000Y4000000D03*
X39000000Y20000000D03*
X43500000Y1000000D03*
X25825000Y57550000D03*
X31881250Y6650001D03*
X11000000Y1000000D03*
X1000000Y38150000D03*
X8500000Y1000000D03*
X18500000Y1000000D03*
X1000000Y20650000D03*
X43350000Y13906250D03*
X12150000Y58750000D03*
X14620000Y65250000D03*
X35000000Y4000000D03*
X21250000Y21250000D03*
X38762500Y6650001D03*
X1000000Y3150000D03*
X11000000Y20000000D03*
X1200000Y54100000D03*
X40700000Y64800000D03*
X6650000Y25000000D03*
X46300000Y23200000D03*
X1000000Y53150000D03*
X17500000Y49250000D03*
X3000000Y16000000D03*
X27800000Y49900000D03*
X11237500Y6650001D03*
X47200000Y7200000D03*
X1000000Y23150000D03*
X23000000Y56000000D03*
X6650000Y27218750D03*
X24175000Y59200000D03*
X43000000Y40000000D03*
X49000000Y3150000D03*
X43350000Y20562500D03*
X9550000Y48000000D03*
X48500000Y1000000D03*
X28750000Y28750000D03*
X1000000Y15650000D03*
X23350000Y60025000D03*
X1000000Y10650000D03*
X1000000Y25650000D03*
X27293750Y6650001D03*
X19950000Y47450000D03*
X20000000Y59000000D03*
X21200000Y48800000D03*
X29000000Y56000000D03*
X11000000Y12000000D03*
X39800000Y60900000D03*
X11900000Y62700000D03*
X35160000Y45200000D03*
X35000000Y8000000D03*
X26650000Y60025000D03*
X47400000Y14300000D03*
X23750000Y21250000D03*
X20000000Y56000000D03*
X23000000Y12000000D03*
X13900000Y55800000D03*
X25000000Y6650001D03*
X15000000Y36000000D03*
X2000000Y62000000D03*
X31000000Y20000000D03*
X22550000Y45550000D03*
X23000000Y8000000D03*
X7000000Y24000000D03*
X19000000Y32000000D03*
X27000000Y8000000D03*
X6650000Y11687500D03*
X26250000Y23750000D03*
X6650000Y16125000D03*
X11000000Y8000000D03*
X3000000Y32000000D03*
X6650000Y42750000D03*
X23000000Y20000000D03*
X11762500Y64550000D03*
X3000000Y8000000D03*
X48400000Y20100000D03*
X35000000Y36000000D03*
X17200000Y65400000D03*
X35000000Y24000000D03*
X26250000Y28750000D03*
X6500000Y61200000D03*
X15000000Y24000000D03*
X27000000Y4000000D03*
X2000000Y59000000D03*
X15825000Y6650001D03*
X20412500Y6650001D03*
X47000000Y62000000D03*
X11762500Y63550000D03*
X3000000Y24000000D03*
X44900000Y64900000D03*
X6650000Y29437500D03*
X12800000Y65000000D03*
X13500000Y1000000D03*
X11000000Y4000000D03*
X35000000Y12000000D03*
X26000000Y56000000D03*
X19000000Y40000000D03*
X18118750Y6650001D03*
X28750000Y26250000D03*
X31000000Y8000000D03*
X5000000Y59000000D03*
X12100000Y56340000D03*
X11600000Y59300000D03*
X6650000Y38312500D03*
X25825000Y59200000D03*
X1000000Y48150000D03*
X43350000Y27218750D03*
X35000000Y32000000D03*
X6650000Y9468750D03*
X16000000Y1000000D03*
X35000000Y20000000D03*
X39000000Y8000000D03*
X6650000Y36093750D03*
X19000000Y4000000D03*
X3000000Y36000000D03*
X1000000Y40650000D03*
X25000000Y58375000D03*
X15000000Y16000000D03*
X35000000Y46900000D03*
X13531250Y6650001D03*
X11000000Y32000000D03*
X6650000Y40531250D03*
X41000000Y56000000D03*
X12700000Y58200000D03*
X26250000Y26250000D03*
X23000000Y28000000D03*
X11000000Y36000000D03*
X19000000Y8000000D03*
X11762500Y65450000D03*
X11000000Y24000000D03*
X3000000Y20000000D03*
X21250000Y23750000D03*
X35000000Y28000000D03*
X23350000Y58375000D03*
X26000000Y1000000D03*
X43000000Y32000000D03*
X18600000Y48600000D03*
X43350000Y9468750D03*
X36900000Y58900000D03*
X48400000Y12300000D03*
X36000000Y1000000D03*
X3500000Y1000000D03*
X42700000Y3100000D03*
X23000000Y36000000D03*
X21000000Y1000000D03*
X39000000Y12000000D03*
X31000000Y36000000D03*
X49000000Y5650001D03*
X43350000Y16125000D03*
X6650000Y33875000D03*
X31000000Y4000000D03*
X11000000Y28000000D03*
X12700000Y59300000D03*
X22706250Y6650001D03*
X6650000Y31656250D03*
X27000000Y28000000D03*
X34175000Y6650001D03*
X11600000Y58200000D03*
X46000000Y1000000D03*
X1000000Y5650001D03*
X1000000Y45650000D03*
X31000000Y40000000D03*
X31000000Y12000000D03*
X39000000Y16000000D03*
X23000000Y40000000D03*
X38060000Y45200000D03*
X39000000Y24000000D03*
X1000000Y33150000D03*
X6650000Y6650001D03*
X43350000Y11687500D03*
X26250000Y21250000D03*
X1000000Y28150000D03*
X26650000Y58375000D03*
X23750000Y28750000D03*
X15000000Y28000000D03*
X1000000Y35650000D03*
X27000000Y36000000D03*
X7000000Y8000000D03*
X28500000Y1000000D03*
X15000000Y8000000D03*
X9300000Y60310000D03*
X25000000Y60025000D03*
X11000000Y16000000D03*
X47000000Y12000000D03*
X6650000Y18343750D03*
X43350000Y42750000D03*
X3000000Y40000000D03*
X23750000Y23750000D03*
X19000000Y36000000D03*
X27000000Y20000000D03*
X15000000Y32000000D03*
X28750000Y23750000D03*
X27000000Y40000000D03*
X41000000Y1000000D03*
X43350000Y18343750D03*
X23500000Y1000000D03*
X15000000Y12000000D03*
X31000000Y32000000D03*
X41056250Y6650001D03*
X29587500Y6650001D03*
X19830000Y45510000D03*
X11900000Y45500000D03*
X23750000Y26250000D03*
X47000000Y20000000D03*
X31000000Y1000000D03*
X19000000Y12000000D03*
X3000000Y28000000D03*
X25825000Y60850000D03*
X1000000Y63150000D03*
%TO.N,GNSS_EXTINT*%
X35900000Y58350000D03*
X30750000Y58350000D03*
%TO.N,GNSS_RESET_N*%
X37000000Y57500000D03*
X30750000Y57500000D03*
%TO.N,GNSS_RXD*%
X30750000Y55800000D03*
X38400000Y55800000D03*
%TO.N,GNSS_TXD*%
X30750000Y56650000D03*
X39200000Y56650000D03*
%TO.N,I2C_SCL*%
X18800000Y54000000D03*
X9200000Y52500000D03*
%TO.N,I2C_SDA*%
X12300000Y53500000D03*
X16100000Y54600000D03*
X10800000Y53200000D03*
%TO.N,IMU_INT1*%
X11400000Y51900000D03*
%TO.N,IO33*%
X41500000Y52700000D03*
X29250000Y53700000D03*
%TO.N,IO34*%
X30100000Y53700000D03*
X40750000Y52700000D03*
%TO.N,IO35*%
X43000000Y52700000D03*
X30750000Y53250000D03*
%TO.N,IO36*%
X30750000Y54100000D03*
X43750000Y52700000D03*
%TO.N,IO37*%
X30750000Y54950000D03*
X44500000Y52700000D03*
%TO.N,IO47*%
X42250000Y52700000D03*
X28400000Y53700000D03*
%TO.N,ISET*%
X12100000Y54700000D03*
X12800000Y56600000D03*
%TO.N,LDO_EN*%
X8600000Y63100000D03*
X9500000Y64000000D03*
%TO.N,LED1*%
X18900000Y53000000D03*
X13200000Y53500000D03*
%TO.N,LED2*%
X19700000Y53000000D03*
X10300000Y55200000D03*
%TO.N,LED2_A*%
X7000000Y54000000D03*
X3900000Y53200000D03*
%TO.N,LED3_A*%
X6400000Y57500000D03*
X7700000Y57400000D03*
%TO.N,PGOOD_N*%
X11500000Y61000000D03*
X13500000Y56900000D03*
X16800000Y61100000D03*
%TO.N,PPS*%
X32900000Y52800000D03*
%TO.N,TS*%
X14200000Y57200000D03*
%TO.N,U0RXD*%
X30750000Y60900000D03*
%TO.N,U0TXD*%
X30750000Y60050000D03*
%TO.N,VBAT*%
X16500000Y57950000D03*
X40500000Y63600000D03*
X12900000Y61700000D03*
%TO.N,VBAT_SENSE*%
X40300000Y61550000D03*
X19300000Y61550000D03*
%TO.N,VBCKP*%
X33500000Y60700000D03*
X35600000Y64900000D03*
X38700000Y64900000D03*
%TO.N,VBUS*%
X8800000Y56500000D03*
X4700000Y53900000D03*
%TO.N,VSYS*%
X9200000Y62400000D03*
%TD*%
%TO.N,3V3*%
D18*
X17600000Y55200000D02*
X17600000Y53400000D01*
D19*
X37100000Y52750000D02*
X40000000Y52750000D01*
X34200000Y52800000D02*
X37100000Y52800000D01*
X15100000Y56000000D02*
X14700000Y55600000D01*
D20*
X16500000Y56400000D02*
X15100000Y56000000D01*
X17500000Y55400000D02*
X17600000Y55200000D01*
D19*
X16500000Y56400000D02*
X17500000Y55400000D01*
X16900000Y64350000D02*
X35000000Y64350000D01*
X17600000Y53400000D02*
X17100000Y52900000D01*
D18*
X35000000Y59700000D02*
X38000000Y59700000D01*
D19*
X16900000Y62600000D02*
X16900000Y64350000D01*
%TO.N,BOOT*%
D21*
X43500000Y62100000D02*
X43500000Y56300000D01*
X19900000Y62100000D02*
X43500000Y62100000D01*
%TO.N,CHG_N*%
X10700000Y60000000D02*
X6500000Y59200000D01*
%TO.N,EN*%
X40000000Y65500000D02*
X49300000Y65500000D01*
X49300000Y65500000D02*
X49300000Y56000000D01*
X31000000Y65500000D02*
X40000000Y65500000D01*
X30600000Y65100000D02*
X31000000Y65500000D01*
%TO.N,GNSS_EXTINT*%
X35900000Y58350000D02*
X30750000Y58350000D01*
%TO.N,GNSS_RESET_N*%
X34000000Y57500000D02*
X30750000Y57500000D01*
X37000000Y57500000D02*
X34000000Y57500000D01*
%TO.N,GNSS_RXD*%
X31900000Y55800000D02*
X30750000Y55800000D01*
X38400000Y55800000D02*
X31900000Y55800000D01*
%TO.N,GNSS_TXD*%
X39200000Y56650000D02*
X36200000Y56650000D01*
X36200000Y56650000D02*
X30750000Y56650000D01*
%TO.N,I2C_SCL*%
X18300000Y51700000D02*
X18200000Y51600000D01*
X12000000Y52200000D02*
X11900000Y52300000D01*
X19400000Y52000000D02*
X19300000Y51900000D01*
X20000000Y53600000D02*
X20100000Y53500000D01*
X20100000Y52500000D02*
X20000000Y52400000D01*
X12600000Y51700000D02*
X12500000Y51700000D01*
X12700000Y51600000D02*
X12600000Y51600000D01*
X12600000Y51600000D02*
X12600000Y51700000D01*
X11000000Y52400000D02*
X10900000Y52300000D01*
X17800000Y51400000D02*
X17700000Y51300000D01*
X20300000Y52700000D02*
X20200000Y52600000D01*
X19800000Y52300000D02*
X19700000Y52200000D01*
X19500000Y52000000D02*
X19400000Y52000000D01*
X15000000Y51000000D02*
X13200000Y51000000D01*
X18500000Y51800000D02*
X18400000Y51800000D01*
X12700000Y51500000D02*
X12700000Y51600000D01*
X11100000Y52500000D02*
X11000000Y52400000D01*
X15100000Y51100000D02*
X15000000Y51000000D01*
X20100000Y53500000D02*
X20200000Y53400000D01*
X12300000Y51900000D02*
X12200000Y52000000D01*
X12100000Y52100000D02*
X12000000Y52200000D01*
X17900000Y51400000D02*
X17800000Y51400000D01*
X12500000Y51700000D02*
X12500000Y51800000D01*
X18100000Y51500000D02*
X18000000Y51500000D01*
X17700000Y51300000D02*
X17600000Y51300000D01*
X10900000Y52300000D02*
X10800000Y52200000D01*
X19700000Y52200000D02*
X19600000Y52100000D01*
X18200000Y51600000D02*
X18100000Y51500000D01*
X11900000Y52300000D02*
X11800000Y52400000D01*
X12800000Y51400000D02*
X12800000Y51500000D01*
X19900000Y52400000D02*
X19800000Y52300000D01*
X19600000Y52100000D02*
X19500000Y52000000D01*
X20300000Y53300000D02*
X20300000Y52700000D01*
X18800000Y54000000D02*
X20000000Y53600000D01*
X18600000Y51900000D02*
X18500000Y51800000D01*
X17600000Y51300000D02*
X17500000Y51200000D01*
X15200000Y51100000D02*
X15100000Y51100000D01*
X19300000Y51900000D02*
X18600000Y51900000D01*
X15300000Y51200000D02*
X15200000Y51100000D01*
X12400000Y51800000D02*
X12300000Y51900000D01*
X20200000Y53400000D02*
X20300000Y53300000D01*
X10800000Y52200000D02*
X10100000Y51500000D01*
X11800000Y52400000D02*
X11700000Y52500000D01*
X12800000Y51500000D02*
X12700000Y51500000D01*
X12900000Y51300000D02*
X12800000Y51400000D01*
X13100000Y51100000D02*
X13000000Y51200000D01*
X18400000Y51800000D02*
X18300000Y51700000D01*
X12500000Y51800000D02*
X12400000Y51800000D01*
X13000000Y51200000D02*
X12900000Y51300000D01*
X18000000Y51500000D02*
X17900000Y51400000D01*
X13200000Y51000000D02*
X13100000Y51100000D01*
X20000000Y52400000D02*
X19900000Y52400000D01*
X20200000Y52600000D02*
X20100000Y52500000D01*
X17500000Y51200000D02*
X15300000Y51200000D01*
X11700000Y52500000D02*
X11100000Y52500000D01*
X9200000Y52500000D02*
X9700000Y51500000D01*
X12200000Y52000000D02*
X12100000Y52100000D01*
%TO.N,I2C_SDA*%
X12700000Y53900000D02*
X12600000Y53800000D01*
X13100000Y54100000D02*
X13000000Y54100000D01*
X13400000Y54100000D02*
X13300000Y54100000D01*
X12600000Y53800000D02*
X12300000Y53500000D01*
X13000000Y54100000D02*
X12900000Y54100000D01*
X12800000Y54000000D02*
X12700000Y53900000D01*
X10800000Y53200000D02*
X10400000Y53200000D01*
X12900000Y54100000D02*
X12800000Y54000000D01*
X13300000Y54100000D02*
X13200000Y54100000D01*
X13600000Y54300000D02*
X13500000Y54200000D01*
X13200000Y54100000D02*
X13100000Y54100000D01*
X16100000Y54600000D02*
X13600000Y54300000D01*
X13500000Y54200000D02*
X13400000Y54100000D01*
%TO.N,IMU_INT1*%
X12000000Y51000000D02*
X11700000Y51300000D01*
X11700000Y51300000D02*
X11700000Y51400000D01*
X11400000Y51900000D02*
X11700000Y51400000D01*
%TO.N,IO33*%
X29250000Y53700000D02*
X29250000Y51550000D01*
X41500000Y51550000D02*
X41500000Y52700000D01*
X29250000Y51550000D02*
X41500000Y51550000D01*
%TO.N,IO34*%
X30100000Y51950000D02*
X40750000Y51950000D01*
X30100000Y53700000D02*
X30100000Y51950000D01*
X40750000Y51950000D02*
X40750000Y52700000D01*
%TO.N,IO35*%
X43000000Y53800000D02*
X43000000Y52700000D01*
X31300000Y53800000D02*
X43000000Y53800000D01*
X30750000Y53250000D02*
X31300000Y53800000D01*
%TO.N,IO36*%
X30750000Y54100000D02*
X31050000Y54400000D01*
X43750000Y54400000D02*
X43750000Y52700000D01*
X31050000Y54400000D02*
X43750000Y54400000D01*
%TO.N,IO37*%
X44500000Y54950000D02*
X44500000Y52700000D01*
X30750000Y54950000D02*
X44500000Y54950000D01*
%TO.N,IO47*%
X28400000Y53700000D02*
X28400000Y51150000D01*
X42250000Y51150000D02*
X42250000Y52700000D01*
X28400000Y51150000D02*
X42250000Y51150000D01*
%TO.N,ISET*%
X12100000Y54700000D02*
X12800000Y56600000D01*
%TO.N,LDO_EN*%
X8600000Y63100000D02*
X9500000Y64000000D01*
%TO.N,LED1*%
X18300000Y52900000D02*
X17600000Y52400000D01*
X14200000Y52000000D02*
X14100000Y52100000D01*
X17500000Y52300000D02*
X17400000Y52300000D01*
X17300000Y52200000D02*
X15000000Y52200000D01*
X17600000Y52400000D02*
X17500000Y52300000D01*
X15000000Y52200000D02*
X14900000Y52100000D01*
X14100000Y52100000D02*
X14000000Y52200000D01*
X14000000Y52200000D02*
X13900000Y52300000D01*
X13900000Y52300000D02*
X13200000Y53500000D01*
X18900000Y53000000D02*
X18300000Y52900000D01*
X17400000Y52300000D02*
X17300000Y52200000D01*
X14800000Y52000000D02*
X14200000Y52000000D01*
X14900000Y52100000D02*
X14800000Y52000000D01*
%TO.N,LED2*%
X18200000Y52200000D02*
X18100000Y52200000D01*
X15100000Y51600000D02*
X15000000Y51600000D01*
X19400000Y52600000D02*
X19300000Y52500000D01*
X18300000Y52300000D02*
X18200000Y52200000D01*
X13400000Y51500000D02*
X12000000Y52900000D01*
X11700000Y53200000D02*
X10300000Y55200000D01*
X12000000Y52900000D02*
X11900000Y53000000D01*
X19300000Y52500000D02*
X19200000Y52400000D01*
X17700000Y51900000D02*
X17600000Y51800000D01*
X17900000Y52000000D02*
X17800000Y51900000D01*
X19200000Y52400000D02*
X18400000Y52400000D01*
X18100000Y52200000D02*
X18000000Y52100000D01*
X17400000Y51700000D02*
X15200000Y51700000D01*
X11800000Y53100000D02*
X11700000Y53200000D01*
X14900000Y51500000D02*
X13400000Y51500000D01*
X17800000Y51900000D02*
X17700000Y51900000D01*
X19500000Y52700000D02*
X19400000Y52600000D01*
X19700000Y53000000D02*
X19500000Y52700000D01*
X17600000Y51800000D02*
X17500000Y51800000D01*
X18400000Y52400000D02*
X18300000Y52300000D01*
X18000000Y52100000D02*
X17900000Y52000000D01*
X17500000Y51800000D02*
X17400000Y51700000D01*
X15000000Y51600000D02*
X14900000Y51500000D01*
X15200000Y51700000D02*
X15100000Y51600000D01*
X11900000Y53000000D02*
X11800000Y53100000D01*
%TO.N,LED2_A*%
X5700000Y53400000D02*
X5800000Y53500000D01*
X5500000Y53200000D02*
X5600000Y53300000D01*
X3900000Y53200000D02*
X5500000Y53200000D01*
X5600000Y53300000D02*
X5700000Y53400000D01*
X5800000Y53500000D02*
X7000000Y54000000D01*
%TO.N,LED3_A*%
X6400000Y57500000D02*
X7700000Y57400000D01*
%TO.N,PGOOD_N*%
X16600000Y61300000D02*
X16500000Y61400000D01*
X16700000Y61200000D02*
X16600000Y61300000D01*
X13500000Y56900000D02*
X13300000Y59700000D01*
X13100000Y59900000D02*
X11500000Y61000000D01*
X15100000Y61500000D02*
X13300000Y59700000D01*
X16400000Y61500000D02*
X15100000Y61500000D01*
X16800000Y61100000D02*
X16700000Y61200000D01*
X16500000Y61400000D02*
X16400000Y61500000D01*
X13300000Y59700000D02*
X13100000Y59900000D01*
%TO.N,TS*%
X18400000Y62850000D02*
X45000000Y62850000D01*
X14200000Y57200000D02*
X18400000Y57200000D01*
X45000000Y56400000D02*
X46640000Y55000000D01*
X18400000Y57200000D02*
X18400000Y62850000D01*
X45000000Y62850000D02*
X45000000Y56400000D01*
%TO.N,U0RXD*%
X30750000Y60900000D02*
X29400000Y60700000D01*
%TO.N,U0TXD*%
X30750000Y60050000D02*
X29400000Y58600000D01*
%TO.N,VBAT*%
D19*
X17600000Y63550000D02*
X48300000Y63550000D01*
X48300000Y63550000D02*
X48300000Y51000000D01*
X16500000Y57950000D02*
X17600000Y59050000D01*
X12900000Y61700000D02*
X13000000Y62100000D01*
X17600000Y59050000D02*
X17600000Y63550000D01*
X48300000Y51000000D02*
X46640000Y51000000D01*
%TO.N,VBAT_SENSE*%
D21*
X19300000Y61550000D02*
X40300000Y61550000D01*
%TO.N,VBCKP*%
X35600000Y64900000D02*
X38700000Y64900000D01*
%TO.N,VBUS*%
D19*
X4700000Y53900000D02*
X6200000Y55500000D01*
X8800000Y56500000D02*
X7000000Y56100000D01*
%TO.N,VSYS*%
X9200000Y62400000D02*
X8800000Y62400000D01*
%TD*%
%TA.AperFunction,Conductor*%
%TO.N,GND*%
G36*
X49658691Y66630593D02*
G01*
X49694655Y66581093D01*
X49699500Y66550500D01*
X49699500Y65835188D01*
X49680593Y65776997D01*
X49631093Y65741033D01*
X49569907Y65741033D01*
X49530498Y65765183D01*
X49515212Y65780469D01*
X49435288Y65826614D01*
X49346144Y65850500D01*
X49346142Y65850500D01*
X40721338Y65850500D01*
X40663147Y65869407D01*
X40639023Y65894498D01*
X40582951Y65978416D01*
X40478416Y66082951D01*
X40355495Y66165084D01*
X40355493Y66165085D01*
X40218914Y66221658D01*
X40073918Y66250500D01*
X39926082Y66250500D01*
X39926081Y66250500D01*
X39781085Y66221658D01*
X39644506Y66165085D01*
X39521585Y66082952D01*
X39417048Y65978415D01*
X39360977Y65894498D01*
X39312927Y65856619D01*
X39278662Y65850500D01*
X30953856Y65850500D01*
X30864712Y65826614D01*
X30864711Y65826614D01*
X30864709Y65826613D01*
X30784789Y65780471D01*
X30633814Y65629496D01*
X30579298Y65601719D01*
X30563811Y65600500D01*
X30534108Y65600500D01*
X30456200Y65579625D01*
X30406809Y65566391D01*
X30292690Y65500504D01*
X30199496Y65407310D01*
X30133609Y65293191D01*
X30099500Y65165891D01*
X30099500Y65034109D01*
X30115305Y64975122D01*
X30112102Y64914021D01*
X30073597Y64866471D01*
X30019678Y64850500D01*
X16965892Y64850500D01*
X16834108Y64850500D01*
X16772932Y64834108D01*
X16706809Y64816391D01*
X16592690Y64750504D01*
X16499496Y64657310D01*
X16433609Y64543191D01*
X16427530Y64520504D01*
X16399500Y64415892D01*
X16399500Y62665892D01*
X16399500Y62534108D01*
X16423257Y62445445D01*
X16433609Y62406810D01*
X16499496Y62292691D01*
X16499498Y62292689D01*
X16499500Y62292686D01*
X16592686Y62199500D01*
X16592688Y62199499D01*
X16592690Y62199497D01*
X16706810Y62133610D01*
X16706808Y62133610D01*
X16706812Y62133609D01*
X16706814Y62133608D01*
X16834108Y62099500D01*
X16834110Y62099500D01*
X16965890Y62099500D01*
X16965892Y62099500D01*
X16974878Y62101908D01*
X17035979Y62098705D01*
X17083528Y62060200D01*
X17099500Y62006281D01*
X17099500Y61666925D01*
X17080593Y61608734D01*
X17031093Y61572770D01*
X16974878Y61571298D01*
X16907561Y61589335D01*
X16865892Y61600500D01*
X16865891Y61600500D01*
X16836190Y61600500D01*
X16777999Y61619407D01*
X16766187Y61629496D01*
X16709569Y61686113D01*
X16709564Y61686117D01*
X16615216Y61780467D01*
X16615213Y61780469D01*
X16615212Y61780470D01*
X16535288Y61826614D01*
X16446144Y61850500D01*
X15053856Y61850500D01*
X14964712Y61826614D01*
X14964711Y61826614D01*
X14964709Y61826613D01*
X14884790Y61780471D01*
X13353584Y60249267D01*
X13299067Y60221490D01*
X13238635Y60231061D01*
X13227494Y60237691D01*
X12389676Y60813691D01*
X12025544Y61064032D01*
X11988305Y61112578D01*
X11986004Y61119989D01*
X11981720Y61135978D01*
X11966392Y61193186D01*
X11900500Y61307314D01*
X11807314Y61400500D01*
X11807311Y61400502D01*
X11807309Y61400504D01*
X11693189Y61466391D01*
X11693191Y61466391D01*
X11627068Y61484108D01*
X11565892Y61500500D01*
X11434108Y61500500D01*
X11372932Y61484108D01*
X11306809Y61466391D01*
X11192690Y61400504D01*
X11099496Y61307310D01*
X11033609Y61193191D01*
X11022754Y61152679D01*
X10999500Y61065892D01*
X10999500Y60934108D01*
X11014055Y60879787D01*
X11033609Y60806810D01*
X11099496Y60692691D01*
X11099498Y60692689D01*
X11099500Y60692686D01*
X11192686Y60599500D01*
X11192688Y60599499D01*
X11192690Y60599497D01*
X11306810Y60533610D01*
X11306808Y60533610D01*
X11306812Y60533609D01*
X11306814Y60533608D01*
X11434108Y60499500D01*
X11434110Y60499500D01*
X11572381Y60499500D01*
X11572381Y60497905D01*
X11624814Y60488187D01*
X11633662Y60482764D01*
X12013697Y60221490D01*
X12845687Y59649497D01*
X12867420Y59634556D01*
X12881338Y59622980D01*
X12933593Y59570725D01*
X12961370Y59516208D01*
X12962337Y59507774D01*
X13121664Y57277187D01*
X13106951Y57217797D01*
X13101464Y57209874D01*
X13099501Y57207316D01*
X13052777Y57126389D01*
X13007307Y57085449D01*
X12946457Y57079054D01*
X12941419Y57080263D01*
X12903261Y57090487D01*
X12865892Y57100500D01*
X12734108Y57100500D01*
X12661194Y57080963D01*
X12606809Y57066391D01*
X12492690Y57000504D01*
X12399496Y56907310D01*
X12333609Y56793191D01*
X12319598Y56740900D01*
X12299500Y56665892D01*
X12299500Y56534108D01*
X12317995Y56465084D01*
X12334605Y56403093D01*
X12331874Y56343245D01*
X11908377Y55193753D01*
X11870519Y55145687D01*
X11864982Y55142242D01*
X11792688Y55100502D01*
X11699496Y55007310D01*
X11633609Y54893191D01*
X11614539Y54822022D01*
X11599500Y54765892D01*
X11599500Y54634108D01*
X11627979Y54527821D01*
X11633609Y54506810D01*
X11699496Y54392691D01*
X11699498Y54392689D01*
X11699500Y54392686D01*
X11792686Y54299500D01*
X11792688Y54299499D01*
X11792690Y54299497D01*
X11906810Y54233610D01*
X11906808Y54233610D01*
X11906812Y54233609D01*
X11906814Y54233608D01*
X12034108Y54199500D01*
X12034110Y54199500D01*
X12165890Y54199500D01*
X12165892Y54199500D01*
X12270624Y54227563D01*
X12331723Y54224361D01*
X12379273Y54185855D01*
X12395109Y54126755D01*
X12373183Y54069633D01*
X12366250Y54061934D01*
X12333815Y54029498D01*
X12279299Y54001719D01*
X12263810Y54000500D01*
X12234108Y54000500D01*
X12156200Y53979625D01*
X12106809Y53966391D01*
X11992690Y53900504D01*
X11899499Y53807313D01*
X11888268Y53787860D01*
X11842797Y53746920D01*
X11781947Y53740526D01*
X11728959Y53771120D01*
X11721428Y53780589D01*
X11054314Y54733608D01*
X10818371Y55070669D01*
X10800969Y55127619D01*
X10800500Y55127619D01*
X10800500Y55129154D01*
X10800491Y55129183D01*
X10800500Y55129302D01*
X10800500Y55265891D01*
X10797627Y55276614D01*
X10766392Y55393186D01*
X10766390Y55393189D01*
X10766390Y55393191D01*
X10700503Y55507310D01*
X10700501Y55507312D01*
X10700500Y55507314D01*
X10607314Y55600500D01*
X10607311Y55600502D01*
X10607309Y55600504D01*
X10493189Y55666391D01*
X10493191Y55666391D01*
X10443799Y55679625D01*
X10365892Y55700500D01*
X10234108Y55700500D01*
X10156200Y55679625D01*
X10106809Y55666391D01*
X9992690Y55600504D01*
X9899496Y55507310D01*
X9833609Y55393191D01*
X9821253Y55347075D01*
X9799500Y55265892D01*
X9799500Y55134108D01*
X9822207Y55049364D01*
X9833609Y55006810D01*
X9899496Y54892691D01*
X9899498Y54892689D01*
X9899500Y54892686D01*
X9992686Y54799500D01*
X10106814Y54733608D01*
X10185020Y54712654D01*
X10236333Y54679332D01*
X10240492Y54673811D01*
X10812769Y53856273D01*
X10830650Y53797758D01*
X10810722Y53739909D01*
X10760597Y53704822D01*
X10740480Y53701817D01*
X10740542Y53701347D01*
X10734110Y53700501D01*
X10606809Y53666391D01*
X10606805Y53666389D01*
X10601689Y53663435D01*
X10541840Y53650719D01*
X10485947Y53675611D01*
X10482213Y53679154D01*
X10378416Y53782951D01*
X10255495Y53865084D01*
X10250698Y53867071D01*
X10118914Y53921658D01*
X9973918Y53950500D01*
X9826082Y53950500D01*
X9826081Y53950500D01*
X9681085Y53921658D01*
X9544506Y53865085D01*
X9421585Y53782952D01*
X9317048Y53678415D01*
X9234915Y53555494D01*
X9178342Y53418915D01*
X9149500Y53273919D01*
X9149500Y53126079D01*
X9154347Y53101713D01*
X9147155Y53040951D01*
X9105622Y52996022D01*
X9082873Y52986773D01*
X9006814Y52966393D01*
X9006810Y52966391D01*
X8892690Y52900504D01*
X8799496Y52807310D01*
X8733609Y52693191D01*
X8733608Y52693186D01*
X8699500Y52565892D01*
X8699500Y52434108D01*
X8723996Y52342686D01*
X8733609Y52306810D01*
X8799496Y52192691D01*
X8799498Y52192689D01*
X8799500Y52192686D01*
X8892686Y52099500D01*
X9006814Y52033608D01*
X9006816Y52033608D01*
X9006817Y52033607D01*
X9012813Y52031123D01*
X9011958Y52029061D01*
X9054967Y52001130D01*
X9066577Y51983102D01*
X9278094Y51560067D01*
X9287207Y51499564D01*
X9271863Y51460794D01*
X9234915Y51405495D01*
X9178342Y51268915D01*
X9149500Y51123919D01*
X9149500Y50976082D01*
X9178342Y50831086D01*
X9212136Y50749500D01*
X9234916Y50694505D01*
X9317049Y50571584D01*
X9421584Y50467049D01*
X9544505Y50384916D01*
X9681087Y50328342D01*
X9826082Y50299500D01*
X9826083Y50299500D01*
X9973917Y50299500D01*
X9973918Y50299500D01*
X10118913Y50328342D01*
X10255495Y50384916D01*
X10378416Y50467049D01*
X10482951Y50571584D01*
X10565084Y50694505D01*
X10621658Y50831087D01*
X10650500Y50976082D01*
X10650500Y51123918D01*
X10621658Y51268913D01*
X10571679Y51389572D01*
X10566879Y51450567D01*
X10593138Y51497458D01*
X10794388Y51698708D01*
X10848903Y51726483D01*
X10909335Y51716912D01*
X10950126Y51678202D01*
X10999496Y51592691D01*
X10999498Y51592689D01*
X10999500Y51592686D01*
X11092686Y51499500D01*
X11092688Y51499499D01*
X11092690Y51499497D01*
X11206810Y51433610D01*
X11206808Y51433610D01*
X11206812Y51433609D01*
X11206814Y51433608D01*
X11242201Y51424127D01*
X11293514Y51390803D01*
X11315441Y51333682D01*
X11308041Y51290615D01*
X11278342Y51218915D01*
X11249500Y51073919D01*
X11249500Y50926082D01*
X11278342Y50781086D01*
X11322953Y50673386D01*
X11334916Y50644505D01*
X11417049Y50521584D01*
X11521584Y50417049D01*
X11644505Y50334916D01*
X11781087Y50278342D01*
X11926082Y50249500D01*
X11926083Y50249500D01*
X12073917Y50249500D01*
X12073918Y50249500D01*
X12218913Y50278342D01*
X12355495Y50334916D01*
X12478416Y50417049D01*
X12582951Y50521584D01*
X12665084Y50644505D01*
X12721658Y50781087D01*
X12721658Y50781088D01*
X12723519Y50785580D01*
X12725548Y50784740D01*
X12755588Y50827866D01*
X12813391Y50847929D01*
X12871946Y50830185D01*
X12885358Y50818960D01*
X12919531Y50784788D01*
X12919533Y50784785D01*
X12984787Y50719532D01*
X12984789Y50719530D01*
X13028130Y50694507D01*
X13064712Y50673386D01*
X13153856Y50649500D01*
X13153858Y50649500D01*
X15046142Y50649500D01*
X15046144Y50649500D01*
X15135288Y50673386D01*
X15215212Y50719530D01*
X15226072Y50730391D01*
X15270450Y50756013D01*
X15335288Y50773386D01*
X15415212Y50819530D01*
X15416187Y50820506D01*
X15417069Y50820955D01*
X15420362Y50823481D01*
X15420830Y50822871D01*
X15470702Y50848281D01*
X15486189Y50849500D01*
X17546142Y50849500D01*
X17546144Y50849500D01*
X17635288Y50873386D01*
X17715212Y50919530D01*
X17726072Y50930391D01*
X17770450Y50956013D01*
X17835288Y50973386D01*
X17839958Y50976082D01*
X17915212Y51019530D01*
X17926072Y51030391D01*
X17970450Y51056013D01*
X18035288Y51073386D01*
X18039308Y51075707D01*
X18039309Y51075707D01*
X18059646Y51087450D01*
X18115212Y51119530D01*
X18126072Y51130391D01*
X18170450Y51156013D01*
X18235288Y51173386D01*
X18241523Y51176987D01*
X18246922Y51180102D01*
X18315207Y51219527D01*
X18315207Y51219528D01*
X18315212Y51219530D01*
X18401285Y51305606D01*
X18401288Y51305607D01*
X18415211Y51319530D01*
X18415212Y51319530D01*
X18501287Y51405608D01*
X18501290Y51405609D01*
X18515211Y51419530D01*
X18515212Y51419530D01*
X18526073Y51430392D01*
X18570450Y51456013D01*
X18635288Y51473386D01*
X18643468Y51478109D01*
X18647557Y51480469D01*
X18665684Y51490936D01*
X18715212Y51519530D01*
X18716187Y51520506D01*
X18717069Y51520955D01*
X18720362Y51523481D01*
X18720830Y51522871D01*
X18770702Y51548281D01*
X18786189Y51549500D01*
X19346142Y51549500D01*
X19346144Y51549500D01*
X19435288Y51573386D01*
X19451852Y51582950D01*
X19451854Y51582950D01*
X19474706Y51596144D01*
X19515212Y51619530D01*
X19526072Y51630391D01*
X19570450Y51656013D01*
X19635288Y51673386D01*
X19643630Y51678202D01*
X19647561Y51680471D01*
X19715207Y51719527D01*
X19715207Y51719528D01*
X19715212Y51719530D01*
X19801285Y51805606D01*
X19801290Y51805608D01*
X19815212Y51819530D01*
X19901285Y51905606D01*
X19901288Y51905607D01*
X19915211Y51919530D01*
X19915212Y51919530D01*
X20001287Y52005608D01*
X20001290Y52005609D01*
X20015211Y52019530D01*
X20015212Y52019530D01*
X20026073Y52030392D01*
X20070450Y52056013D01*
X20135288Y52073386D01*
X20147551Y52080467D01*
X20147556Y52080468D01*
X20199222Y52110299D01*
X20215212Y52119530D01*
X20301285Y52205606D01*
X20301288Y52205607D01*
X20315211Y52219530D01*
X20315212Y52219530D01*
X20401287Y52305608D01*
X20401290Y52305609D01*
X20415211Y52319530D01*
X20415212Y52319530D01*
X20580469Y52484788D01*
X20626614Y52564712D01*
X20630836Y52580470D01*
X20650500Y52653856D01*
X20650500Y53346144D01*
X20626614Y53435288D01*
X20608656Y53466392D01*
X20580470Y53515211D01*
X20580468Y53515213D01*
X20515217Y53580465D01*
X20515211Y53580470D01*
X20409572Y53686110D01*
X20409565Y53686116D01*
X20365151Y53730530D01*
X20315212Y53780470D01*
X20315211Y53780471D01*
X20309580Y53786102D01*
X20309573Y53786108D01*
X20257330Y53838352D01*
X20253312Y53842620D01*
X20231630Y53867071D01*
X20231628Y53867073D01*
X20231104Y53867419D01*
X20215662Y53880020D01*
X20215212Y53880470D01*
X20186916Y53896807D01*
X20181869Y53899927D01*
X20154617Y53917921D01*
X20154608Y53917925D01*
X20154013Y53918123D01*
X20135829Y53926302D01*
X20135565Y53926454D01*
X20135287Y53926615D01*
X20103750Y53935065D01*
X20098068Y53936771D01*
X19287156Y54207076D01*
X19237931Y54243415D01*
X19232734Y54251484D01*
X19200500Y54307314D01*
X19107314Y54400500D01*
X19107311Y54400502D01*
X19107309Y54400504D01*
X18993189Y54466391D01*
X18993191Y54466391D01*
X18943799Y54479625D01*
X18865892Y54500500D01*
X18734108Y54500500D01*
X18656200Y54479625D01*
X18606809Y54466391D01*
X18492690Y54400504D01*
X18399496Y54307310D01*
X18333609Y54193191D01*
X18326428Y54166391D01*
X18299500Y54065892D01*
X18299500Y53934108D01*
X18323070Y53846144D01*
X18333609Y53806810D01*
X18399496Y53692691D01*
X18399498Y53692689D01*
X18399500Y53692686D01*
X18492686Y53599500D01*
X18570511Y53554568D01*
X18611451Y53509099D01*
X18617847Y53448249D01*
X18591014Y53398828D01*
X18499459Y53307273D01*
X18445730Y53279624D01*
X18257577Y53248266D01*
X18250859Y53247381D01*
X18213792Y53243786D01*
X18213626Y53245491D01*
X18160869Y53250076D01*
X18114669Y53290191D01*
X18100500Y53341228D01*
X18100500Y53465892D01*
X18087285Y53515212D01*
X18066392Y53593186D01*
X18066390Y53593189D01*
X18066390Y53593191D01*
X18013764Y53684341D01*
X18000500Y53733841D01*
X18000500Y54961768D01*
X18008067Y54994620D01*
X18006574Y54995117D01*
X18019270Y55033209D01*
X18046136Y55113805D01*
X18053244Y55232211D01*
X18029463Y55348422D01*
X18010950Y55385449D01*
X18000500Y55429721D01*
X18000500Y55465891D01*
X17999532Y55469504D01*
X17966392Y55593186D01*
X17966390Y55593189D01*
X17966390Y55593191D01*
X17900503Y55707310D01*
X17900501Y55707312D01*
X17900500Y55707314D01*
X16927315Y56680499D01*
X16899540Y56735013D01*
X16909111Y56795445D01*
X16952376Y56838710D01*
X16997321Y56849500D01*
X18446142Y56849500D01*
X18446144Y56849500D01*
X18535288Y56873386D01*
X18615212Y56919531D01*
X18680469Y56984788D01*
X18726614Y57064712D01*
X18750500Y57153856D01*
X18750500Y61152679D01*
X18769407Y61210870D01*
X18818907Y61246834D01*
X18880093Y61246834D01*
X18919501Y61222685D01*
X18992686Y61149500D01*
X18992688Y61149499D01*
X18992690Y61149497D01*
X19106810Y61083610D01*
X19106808Y61083610D01*
X19106812Y61083609D01*
X19106814Y61083608D01*
X19234108Y61049500D01*
X19234110Y61049500D01*
X19365890Y61049500D01*
X19365892Y61049500D01*
X19493186Y61083608D01*
X19493188Y61083610D01*
X19493190Y61083610D01*
X19607309Y61149497D01*
X19607309Y61149498D01*
X19607314Y61149500D01*
X19628319Y61170506D01*
X19682834Y61198281D01*
X19698321Y61199500D01*
X28646717Y61199500D01*
X28704908Y61180593D01*
X28740872Y61131093D01*
X28740872Y61069907D01*
X28736667Y61060035D01*
X28736777Y61059989D01*
X28678342Y60918915D01*
X28649500Y60773919D01*
X28649500Y60626082D01*
X28678342Y60481086D01*
X28726392Y60365084D01*
X28734916Y60344505D01*
X28817049Y60221584D01*
X28921584Y60117049D01*
X29044505Y60034916D01*
X29181087Y59978342D01*
X29326082Y59949500D01*
X29326083Y59949500D01*
X29473917Y59949500D01*
X29473918Y59949500D01*
X29618913Y59978342D01*
X29755495Y60034916D01*
X29878416Y60117049D01*
X29982951Y60221584D01*
X30065084Y60344505D01*
X30087614Y60398900D01*
X30127347Y60445424D01*
X30164564Y60458944D01*
X30228261Y60468381D01*
X30288591Y60458206D01*
X30331421Y60414511D01*
X30340388Y60353987D01*
X30328504Y60320951D01*
X30283609Y60243190D01*
X30249500Y60115891D01*
X30249500Y60065746D01*
X30230593Y60007555D01*
X30222963Y59998293D01*
X29634663Y59366417D01*
X29581175Y59336712D01*
X29542894Y59336780D01*
X29473920Y59350500D01*
X29473918Y59350500D01*
X29326082Y59350500D01*
X29326081Y59350500D01*
X29181085Y59321658D01*
X29044506Y59265085D01*
X28921585Y59182952D01*
X28817048Y59078415D01*
X28734915Y58955494D01*
X28678342Y58818915D01*
X28649500Y58673919D01*
X28649500Y58526082D01*
X28678342Y58381086D01*
X28729610Y58257315D01*
X28734916Y58244505D01*
X28817049Y58121584D01*
X28921584Y58017049D01*
X29044505Y57934916D01*
X29181087Y57878342D01*
X29326082Y57849500D01*
X29326083Y57849500D01*
X29473917Y57849500D01*
X29473918Y57849500D01*
X29618913Y57878342D01*
X29755495Y57934916D01*
X29878416Y58017049D01*
X29982951Y58121584D01*
X30065084Y58244505D01*
X30071897Y58260955D01*
X30111632Y58307481D01*
X30171127Y58321766D01*
X30227655Y58298353D01*
X30258989Y58248694D01*
X30283609Y58156810D01*
X30349496Y58042691D01*
X30349498Y58042689D01*
X30349500Y58042686D01*
X30397184Y57995002D01*
X30424960Y57940487D01*
X30415389Y57880055D01*
X30397185Y57855000D01*
X30364032Y57821846D01*
X30349497Y57807311D01*
X30349496Y57807310D01*
X30283609Y57693191D01*
X30276428Y57666391D01*
X30249500Y57565892D01*
X30249500Y57434108D01*
X30276294Y57334110D01*
X30283609Y57306810D01*
X30349496Y57192691D01*
X30349498Y57192689D01*
X30349500Y57192686D01*
X30397184Y57145002D01*
X30424960Y57090487D01*
X30415389Y57030055D01*
X30397185Y57005000D01*
X30372837Y56980651D01*
X30349497Y56957311D01*
X30349496Y56957310D01*
X30283609Y56843191D01*
X30277530Y56820504D01*
X30249500Y56715892D01*
X30249500Y56584108D01*
X30272171Y56499497D01*
X30283609Y56456810D01*
X30349496Y56342691D01*
X30349498Y56342689D01*
X30349500Y56342686D01*
X30397184Y56295002D01*
X30424960Y56240487D01*
X30415389Y56180055D01*
X30397185Y56155000D01*
X30361718Y56119532D01*
X30349497Y56107311D01*
X30349496Y56107310D01*
X30283609Y55993191D01*
X30283608Y55993186D01*
X30249500Y55865892D01*
X30249500Y55734108D01*
X30260599Y55692686D01*
X30283609Y55606810D01*
X30349496Y55492691D01*
X30349498Y55492689D01*
X30349500Y55492686D01*
X30397184Y55445002D01*
X30424960Y55390487D01*
X30415389Y55330055D01*
X30397185Y55305000D01*
X30368800Y55276614D01*
X30349497Y55257311D01*
X30349496Y55257310D01*
X30283609Y55143191D01*
X30279888Y55129302D01*
X30249500Y55015892D01*
X30249500Y54884108D01*
X30273861Y54793191D01*
X30283609Y54756810D01*
X30349496Y54642691D01*
X30349498Y54642689D01*
X30349500Y54642686D01*
X30397184Y54595002D01*
X30424960Y54540487D01*
X30415389Y54480055D01*
X30397185Y54455000D01*
X30368800Y54426614D01*
X30349497Y54407311D01*
X30349496Y54407310D01*
X30283609Y54293190D01*
X30283607Y54293186D01*
X30278078Y54272550D01*
X30244754Y54221236D01*
X30187632Y54199310D01*
X30169529Y54200021D01*
X30165892Y54200500D01*
X30034108Y54200500D01*
X29965759Y54182186D01*
X29906809Y54166391D01*
X29792690Y54100504D01*
X29792689Y54100503D01*
X29792686Y54100501D01*
X29792686Y54100500D01*
X29745001Y54052816D01*
X29690487Y54025040D01*
X29630055Y54034611D01*
X29604999Y54052815D01*
X29557314Y54100500D01*
X29557311Y54100502D01*
X29557309Y54100504D01*
X29443189Y54166391D01*
X29443191Y54166391D01*
X29384241Y54182186D01*
X29315892Y54200500D01*
X29184108Y54200500D01*
X29115759Y54182186D01*
X29056809Y54166391D01*
X28942690Y54100504D01*
X28942689Y54100503D01*
X28942686Y54100501D01*
X28942686Y54100500D01*
X28895001Y54052816D01*
X28840487Y54025040D01*
X28780055Y54034611D01*
X28754999Y54052815D01*
X28707314Y54100500D01*
X28707311Y54100502D01*
X28707309Y54100504D01*
X28593189Y54166391D01*
X28593191Y54166391D01*
X28534241Y54182186D01*
X28465892Y54200500D01*
X28334108Y54200500D01*
X28265759Y54182186D01*
X28206809Y54166391D01*
X28092690Y54100504D01*
X27999496Y54007310D01*
X27933609Y53893191D01*
X27921003Y53846144D01*
X27899500Y53765892D01*
X27899500Y53634108D01*
X27925465Y53537203D01*
X27933609Y53506810D01*
X27999496Y53392691D01*
X27999498Y53392689D01*
X27999500Y53392686D01*
X28020505Y53371681D01*
X28048281Y53317166D01*
X28049500Y53301679D01*
X28049500Y51196144D01*
X28049500Y51103856D01*
X28073386Y51014712D01*
X28119531Y50934788D01*
X28184788Y50869531D01*
X28264712Y50823386D01*
X28353856Y50799500D01*
X28353858Y50799500D01*
X42296142Y50799500D01*
X42296144Y50799500D01*
X42385288Y50823386D01*
X42465212Y50869531D01*
X42530469Y50934788D01*
X42576614Y51014712D01*
X42600500Y51103856D01*
X42600500Y52181251D01*
X42619407Y52239442D01*
X42668907Y52275406D01*
X42730093Y52275406D01*
X42748996Y52266989D01*
X42806814Y52233608D01*
X42934108Y52199500D01*
X42934110Y52199500D01*
X43065890Y52199500D01*
X43065892Y52199500D01*
X43193186Y52233608D01*
X43193188Y52233610D01*
X43193190Y52233610D01*
X43307309Y52299497D01*
X43307309Y52299498D01*
X43307314Y52299500D01*
X43307317Y52299504D01*
X43312460Y52303449D01*
X43313818Y52301679D01*
X43359513Y52324960D01*
X43419945Y52315389D01*
X43437124Y52302908D01*
X43437540Y52303449D01*
X43442690Y52299497D01*
X43556810Y52233610D01*
X43556808Y52233610D01*
X43556812Y52233609D01*
X43556814Y52233608D01*
X43684108Y52199500D01*
X43684110Y52199500D01*
X43815890Y52199500D01*
X43815892Y52199500D01*
X43943186Y52233608D01*
X43943188Y52233610D01*
X43943190Y52233610D01*
X44057309Y52299497D01*
X44057309Y52299498D01*
X44057314Y52299500D01*
X44057317Y52299504D01*
X44062460Y52303449D01*
X44063818Y52301679D01*
X44109513Y52324960D01*
X44169945Y52315389D01*
X44187124Y52302908D01*
X44187540Y52303449D01*
X44192690Y52299497D01*
X44306810Y52233610D01*
X44306808Y52233610D01*
X44306812Y52233609D01*
X44306814Y52233608D01*
X44434108Y52199500D01*
X44434110Y52199500D01*
X44565890Y52199500D01*
X44565892Y52199500D01*
X44693186Y52233608D01*
X44693188Y52233610D01*
X44693190Y52233610D01*
X44807309Y52299497D01*
X44807309Y52299498D01*
X44807314Y52299500D01*
X44900500Y52392686D01*
X44924460Y52434186D01*
X44966390Y52506810D01*
X44966390Y52506812D01*
X44966392Y52506814D01*
X45000500Y52634108D01*
X45000500Y52765892D01*
X44966392Y52893186D01*
X44966390Y52893189D01*
X44966390Y52893191D01*
X44900503Y53007310D01*
X44900498Y53007316D01*
X44879495Y53028320D01*
X44851719Y53082837D01*
X44850500Y53098322D01*
X44850500Y54996143D01*
X44850500Y54996144D01*
X44826614Y55085288D01*
X44780469Y55165212D01*
X44715212Y55230469D01*
X44684709Y55248080D01*
X44635290Y55276613D01*
X44635289Y55276614D01*
X44635288Y55276614D01*
X44546144Y55300500D01*
X44546142Y55300500D01*
X38847321Y55300500D01*
X38789130Y55319407D01*
X38753166Y55368907D01*
X38753166Y55430093D01*
X38777315Y55469502D01*
X38800500Y55492686D01*
X38824047Y55533470D01*
X38866390Y55606810D01*
X38866390Y55606812D01*
X38866392Y55606814D01*
X38900500Y55734108D01*
X38900500Y55865892D01*
X38866392Y55993186D01*
X38866390Y55993189D01*
X38866390Y55993191D01*
X38816008Y56080455D01*
X38803286Y56140303D01*
X38828173Y56196199D01*
X38881161Y56226792D01*
X38942011Y56220396D01*
X38951242Y56215693D01*
X39006814Y56183608D01*
X39134108Y56149500D01*
X39134110Y56149500D01*
X39265890Y56149500D01*
X39265892Y56149500D01*
X39393186Y56183608D01*
X39393188Y56183610D01*
X39393190Y56183610D01*
X39507309Y56249497D01*
X39507309Y56249498D01*
X39507314Y56249500D01*
X39600500Y56342686D01*
X39618532Y56373918D01*
X39666390Y56456810D01*
X39666390Y56456812D01*
X39666392Y56456814D01*
X39700500Y56584108D01*
X39700500Y56715892D01*
X39666392Y56843186D01*
X39666390Y56843189D01*
X39666390Y56843191D01*
X39600503Y56957310D01*
X39600501Y56957312D01*
X39600500Y56957314D01*
X39507314Y57050500D01*
X39507311Y57050502D01*
X39507309Y57050504D01*
X39393189Y57116391D01*
X39393191Y57116391D01*
X39342053Y57130093D01*
X39265892Y57150500D01*
X39134108Y57150500D01*
X39057947Y57130093D01*
X39006809Y57116391D01*
X38892690Y57050504D01*
X38892689Y57050503D01*
X38892686Y57050501D01*
X38892686Y57050500D01*
X38871680Y57029495D01*
X38817166Y57001719D01*
X38801679Y57000500D01*
X37447321Y57000500D01*
X37389130Y57019407D01*
X37353166Y57068907D01*
X37353166Y57130093D01*
X37377315Y57169502D01*
X37400500Y57192686D01*
X37466392Y57306814D01*
X37500500Y57434108D01*
X37500500Y57565892D01*
X37466392Y57693186D01*
X37466390Y57693189D01*
X37466390Y57693191D01*
X37400503Y57807310D01*
X37400501Y57807312D01*
X37400500Y57807314D01*
X37307314Y57900500D01*
X37307311Y57900502D01*
X37307309Y57900504D01*
X37193189Y57966391D01*
X37193191Y57966391D01*
X37142053Y57980093D01*
X37065892Y58000500D01*
X36934108Y58000500D01*
X36857947Y57980093D01*
X36806809Y57966391D01*
X36692690Y57900504D01*
X36692689Y57900503D01*
X36692686Y57900501D01*
X36692686Y57900500D01*
X36671680Y57879495D01*
X36617166Y57851719D01*
X36601679Y57850500D01*
X36347321Y57850500D01*
X36289130Y57869407D01*
X36253166Y57918907D01*
X36253166Y57980093D01*
X36277315Y58019502D01*
X36300500Y58042686D01*
X36366392Y58156814D01*
X36400500Y58284108D01*
X36400500Y58415892D01*
X36366392Y58543186D01*
X36366390Y58543189D01*
X36366390Y58543191D01*
X36300503Y58657310D01*
X36300501Y58657312D01*
X36300500Y58657314D01*
X36207314Y58750500D01*
X36207311Y58750502D01*
X36207309Y58750504D01*
X36093189Y58816391D01*
X36093191Y58816391D01*
X36043799Y58829625D01*
X35965892Y58850500D01*
X35834108Y58850500D01*
X35756200Y58829625D01*
X35706809Y58816391D01*
X35592690Y58750504D01*
X35592689Y58750503D01*
X35592686Y58750501D01*
X35592686Y58750500D01*
X35571680Y58729495D01*
X35517166Y58701719D01*
X35501679Y58700500D01*
X31148321Y58700500D01*
X31090130Y58719407D01*
X31078323Y58729491D01*
X31057314Y58750500D01*
X31057311Y58750502D01*
X31057309Y58750504D01*
X30943189Y58816391D01*
X30943191Y58816391D01*
X30893799Y58829625D01*
X30815892Y58850500D01*
X30684108Y58850500D01*
X30606200Y58829625D01*
X30556809Y58816391D01*
X30442690Y58750504D01*
X30349498Y58657312D01*
X30334956Y58632124D01*
X30289486Y58591184D01*
X30228636Y58584789D01*
X30175648Y58615382D01*
X30151689Y58669196D01*
X30151449Y58669148D01*
X30151237Y58670209D01*
X30150762Y58671278D01*
X30150696Y58671927D01*
X30150500Y58673910D01*
X30150500Y58673918D01*
X30124686Y58803691D01*
X30131878Y58864452D01*
X30149327Y58890466D01*
X30155667Y58897275D01*
X30733548Y59517962D01*
X30787038Y59547666D01*
X30806005Y59549500D01*
X30815890Y59549500D01*
X30815892Y59549500D01*
X30943186Y59583608D01*
X30943188Y59583610D01*
X30943190Y59583610D01*
X31057309Y59649497D01*
X31057309Y59649498D01*
X31057314Y59649500D01*
X31150500Y59742686D01*
X31150503Y59742691D01*
X31163898Y59765892D01*
X34499500Y59765892D01*
X34499500Y59634108D01*
X34522662Y59547666D01*
X34533609Y59506810D01*
X34599496Y59392691D01*
X34599498Y59392689D01*
X34599500Y59392686D01*
X34692686Y59299500D01*
X34692688Y59299499D01*
X34692690Y59299497D01*
X34806810Y59233610D01*
X34806808Y59233610D01*
X34806812Y59233609D01*
X34806814Y59233608D01*
X34934108Y59199500D01*
X34934110Y59199500D01*
X35065890Y59199500D01*
X35065892Y59199500D01*
X35193186Y59233608D01*
X35284341Y59286237D01*
X35333840Y59299500D01*
X37312071Y59299500D01*
X37370262Y59280593D01*
X37394384Y59255504D01*
X37417049Y59221584D01*
X37417052Y59221581D01*
X37417056Y59221576D01*
X37504523Y59134110D01*
X37521584Y59117049D01*
X37644505Y59034916D01*
X37781087Y58978342D01*
X37926082Y58949500D01*
X37926083Y58949500D01*
X38073917Y58949500D01*
X38073918Y58949500D01*
X38218913Y58978342D01*
X38355495Y59034916D01*
X38478416Y59117049D01*
X38582951Y59221584D01*
X38665084Y59344505D01*
X38721658Y59481087D01*
X38750500Y59626082D01*
X38750500Y59773918D01*
X38721658Y59918913D01*
X38665084Y60055495D01*
X38582951Y60178416D01*
X38478416Y60282951D01*
X38355495Y60365084D01*
X38355493Y60365085D01*
X38218914Y60421658D01*
X38073918Y60450500D01*
X37926082Y60450500D01*
X37926081Y60450500D01*
X37781085Y60421658D01*
X37644506Y60365085D01*
X37521582Y60282950D01*
X37417056Y60178425D01*
X37417049Y60178416D01*
X37394386Y60144498D01*
X37346336Y60106619D01*
X37312071Y60100500D01*
X35333840Y60100500D01*
X35284341Y60113764D01*
X35193186Y60166392D01*
X35065892Y60200500D01*
X34934108Y60200500D01*
X34856200Y60179625D01*
X34806809Y60166391D01*
X34692690Y60100504D01*
X34599496Y60007310D01*
X34533609Y59893191D01*
X34533608Y59893186D01*
X34499500Y59765892D01*
X31163898Y59765892D01*
X31196224Y59821881D01*
X31216390Y59856810D01*
X31216390Y59856812D01*
X31216392Y59856814D01*
X31250500Y59984108D01*
X31250500Y60115892D01*
X31216392Y60243186D01*
X31216390Y60243190D01*
X31216390Y60243191D01*
X31150503Y60357310D01*
X31150501Y60357312D01*
X31150500Y60357314D01*
X31102815Y60404999D01*
X31075040Y60459513D01*
X31084611Y60519945D01*
X31102814Y60545001D01*
X31150500Y60592686D01*
X31169781Y60626082D01*
X31216390Y60706810D01*
X31216390Y60706812D01*
X31216392Y60706814D01*
X31250500Y60834108D01*
X31250500Y60965892D01*
X31221297Y61074880D01*
X31224500Y61135978D01*
X31263005Y61183528D01*
X31316924Y61199500D01*
X32746717Y61199500D01*
X32804908Y61180593D01*
X32840872Y61131093D01*
X32840872Y61069907D01*
X32836667Y61060035D01*
X32836777Y61059989D01*
X32778342Y60918915D01*
X32749500Y60773919D01*
X32749500Y60626082D01*
X32778342Y60481086D01*
X32826392Y60365084D01*
X32834916Y60344505D01*
X32917049Y60221584D01*
X33021584Y60117049D01*
X33144505Y60034916D01*
X33281087Y59978342D01*
X33426082Y59949500D01*
X33426083Y59949500D01*
X33573917Y59949500D01*
X33573918Y59949500D01*
X33718913Y59978342D01*
X33855495Y60034916D01*
X33978416Y60117049D01*
X34082951Y60221584D01*
X34165084Y60344505D01*
X34221658Y60481087D01*
X34250500Y60626082D01*
X34250500Y60773918D01*
X34221658Y60918913D01*
X34188318Y60999403D01*
X34163223Y61059989D01*
X34164762Y61060627D01*
X34155215Y61114053D01*
X34181911Y61169108D01*
X34235868Y61197956D01*
X34253283Y61199500D01*
X39901679Y61199500D01*
X39959870Y61180593D01*
X39971676Y61170510D01*
X39992686Y61149500D01*
X39992688Y61149499D01*
X39992690Y61149497D01*
X40106810Y61083610D01*
X40106808Y61083610D01*
X40106812Y61083609D01*
X40106814Y61083608D01*
X40234108Y61049500D01*
X40234110Y61049500D01*
X40365890Y61049500D01*
X40365892Y61049500D01*
X40493186Y61083608D01*
X40493188Y61083610D01*
X40493190Y61083610D01*
X40607309Y61149497D01*
X40607309Y61149498D01*
X40607314Y61149500D01*
X40700500Y61242686D01*
X40705622Y61251557D01*
X40766390Y61356810D01*
X40766390Y61356812D01*
X40766392Y61356814D01*
X40800500Y61484108D01*
X40800500Y61615892D01*
X40798092Y61624879D01*
X40801295Y61685979D01*
X40839800Y61733528D01*
X40893719Y61749500D01*
X43050500Y61749500D01*
X43108691Y61730593D01*
X43144655Y61681093D01*
X43149500Y61650500D01*
X43149500Y57021339D01*
X43130593Y56963148D01*
X43105502Y56939024D01*
X43021585Y56882952D01*
X42917048Y56778415D01*
X42834915Y56655494D01*
X42778342Y56518915D01*
X42749500Y56373919D01*
X42749500Y56226082D01*
X42778342Y56081086D01*
X42834915Y55944507D01*
X42834916Y55944505D01*
X42917049Y55821584D01*
X43021584Y55717049D01*
X43144505Y55634916D01*
X43281087Y55578342D01*
X43426082Y55549500D01*
X43426083Y55549500D01*
X43573917Y55549500D01*
X43573918Y55549500D01*
X43718913Y55578342D01*
X43855495Y55634916D01*
X43978416Y55717049D01*
X44082951Y55821584D01*
X44165084Y55944505D01*
X44221658Y56081087D01*
X44250500Y56226082D01*
X44250500Y56373918D01*
X44221658Y56518913D01*
X44165084Y56655495D01*
X44082951Y56778416D01*
X43978416Y56882951D01*
X43923672Y56919530D01*
X43894498Y56939024D01*
X43856619Y56987074D01*
X43850500Y57021339D01*
X43850500Y62146143D01*
X43850500Y62146144D01*
X43826614Y62235288D01*
X43780469Y62315212D01*
X43765182Y62330499D01*
X43737407Y62385013D01*
X43746978Y62445445D01*
X43790243Y62488710D01*
X43835188Y62499500D01*
X44550500Y62499500D01*
X44608691Y62480593D01*
X44644655Y62431093D01*
X44649500Y62400500D01*
X44649500Y56441246D01*
X44647847Y56423229D01*
X44646956Y56418416D01*
X44646955Y56418414D01*
X44649193Y56390080D01*
X44649500Y56382288D01*
X44649500Y56353857D01*
X44650768Y56349124D01*
X44653832Y56331301D01*
X44654217Y56326419D01*
X44654218Y56326418D01*
X44663717Y56299611D01*
X44666028Y56292170D01*
X44673386Y56264712D01*
X44673387Y56264711D01*
X44675837Y56260467D01*
X44683406Y56244054D01*
X44685045Y56239429D01*
X44685049Y56239422D01*
X44701156Y56215998D01*
X44705317Y56209406D01*
X44719530Y56184789D01*
X44722992Y56181327D01*
X44734559Y56167422D01*
X44737335Y56163385D01*
X44737336Y56163384D01*
X44737337Y56163383D01*
X44737338Y56163382D01*
X44758973Y56144913D01*
X44764672Y56139647D01*
X44784788Y56119531D01*
X44784791Y56119529D01*
X44784795Y56119526D01*
X44789027Y56117083D01*
X44803804Y56106643D01*
X45561000Y55460256D01*
X45592982Y55408095D01*
X45588196Y55347097D01*
X45588187Y55347075D01*
X45547186Y55248090D01*
X45547183Y55248080D01*
X45514500Y55083770D01*
X45514500Y54916231D01*
X45547183Y54751921D01*
X45547185Y54751915D01*
X45611296Y54597138D01*
X45634899Y54561814D01*
X45704374Y54457838D01*
X45822838Y54339374D01*
X45962137Y54246297D01*
X46116918Y54182184D01*
X46281233Y54149500D01*
X46281234Y54149500D01*
X46998766Y54149500D01*
X46998767Y54149500D01*
X47163082Y54182184D01*
X47317863Y54246297D01*
X47457162Y54339374D01*
X47575626Y54457838D01*
X47618186Y54521534D01*
X47666234Y54559412D01*
X47727373Y54561814D01*
X47778246Y54527821D01*
X47799424Y54470418D01*
X47799500Y54466531D01*
X47799500Y51768611D01*
X47780593Y51710420D01*
X47731093Y51674456D01*
X47669907Y51674456D01*
X47628850Y51703838D01*
X47627552Y51702539D01*
X47622548Y51707543D01*
X47622546Y51707546D01*
X47610035Y51716912D01*
X47507329Y51793798D01*
X47372488Y51844090D01*
X47372483Y51844091D01*
X47372481Y51844092D01*
X47372477Y51844092D01*
X47341249Y51847450D01*
X47312873Y51850500D01*
X47312870Y51850500D01*
X45967133Y51850500D01*
X45967129Y51850500D01*
X45967128Y51850499D01*
X45959949Y51849728D01*
X45907519Y51844092D01*
X45907514Y51844091D01*
X45772670Y51793798D01*
X45657458Y51707550D01*
X45657450Y51707542D01*
X45571202Y51592330D01*
X45520910Y51457489D01*
X45520908Y51457478D01*
X45518342Y51433610D01*
X45515320Y51405495D01*
X45514500Y51397871D01*
X45514500Y50602134D01*
X45514501Y50602130D01*
X45520908Y50542520D01*
X45520909Y50542515D01*
X45571202Y50407671D01*
X45652179Y50299500D01*
X45657454Y50292454D01*
X45657457Y50292452D01*
X45657458Y50292451D01*
X45772670Y50206203D01*
X45907511Y50155911D01*
X45907512Y50155911D01*
X45907517Y50155909D01*
X45967127Y50149500D01*
X47312872Y50149501D01*
X47372483Y50155909D01*
X47439907Y50181057D01*
X47507329Y50206203D01*
X47507329Y50206204D01*
X47507331Y50206204D01*
X47622546Y50292454D01*
X47708796Y50407669D01*
X47719026Y50435096D01*
X47757076Y50483011D01*
X47811784Y50499500D01*
X48365890Y50499500D01*
X48365892Y50499500D01*
X48493186Y50533608D01*
X48493188Y50533610D01*
X48493190Y50533610D01*
X48607309Y50599497D01*
X48607309Y50599498D01*
X48607314Y50599500D01*
X48700500Y50692686D01*
X48701551Y50694507D01*
X48766390Y50806810D01*
X48766390Y50806812D01*
X48766392Y50806814D01*
X48800500Y50934108D01*
X48800500Y55552679D01*
X48819407Y55610870D01*
X48868907Y55646834D01*
X48930093Y55646834D01*
X48969501Y55622685D01*
X48992686Y55599500D01*
X48992688Y55599499D01*
X48992690Y55599497D01*
X49106810Y55533610D01*
X49106808Y55533610D01*
X49106812Y55533609D01*
X49106814Y55533608D01*
X49234108Y55499500D01*
X49234110Y55499500D01*
X49365890Y55499500D01*
X49365892Y55499500D01*
X49493186Y55533608D01*
X49551000Y55566988D01*
X49610847Y55579709D01*
X49666743Y55554823D01*
X49697336Y55501835D01*
X49699500Y55481251D01*
X49699500Y399500D01*
X49680593Y341309D01*
X49631093Y305345D01*
X49600500Y300500D01*
X399500Y300500D01*
X341309Y319407D01*
X305345Y368907D01*
X300500Y399500D01*
X300500Y3606291D01*
X2149500Y3606291D01*
X2149500Y3393710D01*
X2182752Y3183762D01*
X2248443Y2981588D01*
X2344948Y2792185D01*
X2344950Y2792181D01*
X2469891Y2620214D01*
X2469893Y2620212D01*
X2469896Y2620208D01*
X2620208Y2469896D01*
X2620211Y2469894D01*
X2620213Y2469892D01*
X2792180Y2344951D01*
X2792184Y2344949D01*
X2981588Y2248443D01*
X3183757Y2182754D01*
X3183758Y2182754D01*
X3183761Y2182753D01*
X3393710Y2149500D01*
X3393713Y2149500D01*
X3606290Y2149500D01*
X3816238Y2182753D01*
X3816239Y2182754D01*
X3816243Y2182754D01*
X4018412Y2248443D01*
X4207816Y2344949D01*
X4379792Y2469896D01*
X4530104Y2620208D01*
X4655051Y2792184D01*
X4751557Y2981588D01*
X4817246Y3183757D01*
X4850500Y3393713D01*
X4850500Y3606287D01*
X4850500Y3606291D01*
X45149500Y3606291D01*
X45149500Y3393710D01*
X45182752Y3183762D01*
X45248443Y2981588D01*
X45344948Y2792185D01*
X45344950Y2792181D01*
X45469891Y2620214D01*
X45469893Y2620212D01*
X45469896Y2620208D01*
X45620208Y2469896D01*
X45620211Y2469894D01*
X45620213Y2469892D01*
X45792180Y2344951D01*
X45792184Y2344949D01*
X45981588Y2248443D01*
X46183757Y2182754D01*
X46183758Y2182754D01*
X46183761Y2182753D01*
X46393710Y2149500D01*
X46393713Y2149500D01*
X46606290Y2149500D01*
X46816238Y2182753D01*
X46816239Y2182754D01*
X46816243Y2182754D01*
X47018412Y2248443D01*
X47207816Y2344949D01*
X47379792Y2469896D01*
X47530104Y2620208D01*
X47655051Y2792184D01*
X47751557Y2981588D01*
X47817246Y3183757D01*
X47850500Y3393713D01*
X47850500Y3606287D01*
X47850500Y3606291D01*
X47817247Y3816239D01*
X47817246Y3816243D01*
X47751557Y4018412D01*
X47655051Y4207816D01*
X47655049Y4207820D01*
X47530108Y4379787D01*
X47530106Y4379789D01*
X47530104Y4379792D01*
X47379792Y4530104D01*
X47379788Y4530107D01*
X47379786Y4530109D01*
X47207819Y4655050D01*
X47207815Y4655052D01*
X47018412Y4751557D01*
X46816238Y4817248D01*
X46606290Y4850500D01*
X46606287Y4850500D01*
X46393713Y4850500D01*
X46393710Y4850500D01*
X46183761Y4817248D01*
X45981587Y4751557D01*
X45792184Y4655052D01*
X45792180Y4655050D01*
X45620213Y4530109D01*
X45469891Y4379787D01*
X45344950Y4207820D01*
X45344948Y4207816D01*
X45248443Y4018413D01*
X45182752Y3816239D01*
X45149500Y3606291D01*
X4850500Y3606291D01*
X4817247Y3816239D01*
X4817246Y3816243D01*
X4751557Y4018412D01*
X4655051Y4207816D01*
X4655049Y4207820D01*
X4530108Y4379787D01*
X4530106Y4379789D01*
X4530104Y4379792D01*
X4379792Y4530104D01*
X4379788Y4530107D01*
X4379786Y4530109D01*
X4207819Y4655050D01*
X4207815Y4655052D01*
X4018412Y4751557D01*
X3816238Y4817248D01*
X3606290Y4850500D01*
X3606287Y4850500D01*
X3393713Y4850500D01*
X3393710Y4850500D01*
X3183761Y4817248D01*
X2981587Y4751557D01*
X2792184Y4655052D01*
X2792180Y4655050D01*
X2620213Y4530109D01*
X2469891Y4379787D01*
X2344950Y4207820D01*
X2344948Y4207816D01*
X2248443Y4018413D01*
X2182752Y3816239D01*
X2149500Y3606291D01*
X300500Y3606291D01*
X300500Y45385766D01*
X5674500Y45385766D01*
X5674500Y45234234D01*
X5709086Y45105153D01*
X5713720Y45087861D01*
X5789481Y44956640D01*
X5789483Y44956638D01*
X5789485Y44956635D01*
X5896635Y44849485D01*
X5896637Y44849484D01*
X5896639Y44849482D01*
X6027861Y44773721D01*
X6027859Y44773721D01*
X6027863Y44773720D01*
X6027865Y44773719D01*
X6174234Y44734500D01*
X6174236Y44734500D01*
X6325764Y44734500D01*
X6325766Y44734500D01*
X6472135Y44773719D01*
X6472137Y44773721D01*
X6472139Y44773721D01*
X6603360Y44849482D01*
X6603360Y44849483D01*
X6603365Y44849485D01*
X6710515Y44956635D01*
X6786281Y45087865D01*
X6825500Y45234234D01*
X6825500Y45385766D01*
X6786281Y45532135D01*
X6786279Y45532138D01*
X6786279Y45532140D01*
X6710518Y45663361D01*
X6710516Y45663363D01*
X6710515Y45663365D01*
X6603365Y45770515D01*
X6603362Y45770517D01*
X6603360Y45770519D01*
X6472138Y45846280D01*
X6472140Y45846280D01*
X6415347Y45861497D01*
X6325766Y45885500D01*
X6174234Y45885500D01*
X6084652Y45861497D01*
X6027860Y45846280D01*
X5896639Y45770519D01*
X5789481Y45663361D01*
X5713720Y45532140D01*
X5713719Y45532135D01*
X5674500Y45385766D01*
X300500Y45385766D01*
X300500Y51165766D01*
X5674500Y51165766D01*
X5674500Y51014234D01*
X5696966Y50930389D01*
X5713720Y50867861D01*
X5789481Y50736640D01*
X5789483Y50736638D01*
X5789485Y50736635D01*
X5896635Y50629485D01*
X5896637Y50629484D01*
X5896639Y50629482D01*
X6027861Y50553721D01*
X6027859Y50553721D01*
X6027863Y50553720D01*
X6027865Y50553719D01*
X6174234Y50514500D01*
X6174236Y50514500D01*
X6325764Y50514500D01*
X6325766Y50514500D01*
X6472135Y50553719D01*
X6472137Y50553721D01*
X6472139Y50553721D01*
X6603360Y50629482D01*
X6603360Y50629483D01*
X6603365Y50629485D01*
X6710515Y50736635D01*
X6736179Y50781086D01*
X6786279Y50867861D01*
X6786279Y50867863D01*
X6786281Y50867865D01*
X6825500Y51014234D01*
X6825500Y51165766D01*
X6786281Y51312135D01*
X6786279Y51312138D01*
X6786279Y51312140D01*
X6710518Y51443361D01*
X6710516Y51443363D01*
X6710515Y51443365D01*
X6603365Y51550515D01*
X6603362Y51550517D01*
X6603360Y51550519D01*
X6472138Y51626280D01*
X6472140Y51626280D01*
X6415347Y51641497D01*
X6325766Y51665500D01*
X6174234Y51665500D01*
X6084652Y51641497D01*
X6027860Y51626280D01*
X5896639Y51550519D01*
X5789481Y51443361D01*
X5713720Y51312140D01*
X5707953Y51290615D01*
X5674500Y51165766D01*
X300500Y51165766D01*
X300500Y53265892D01*
X3399500Y53265892D01*
X3399500Y53134108D01*
X3424461Y53040951D01*
X3433609Y53006810D01*
X3499496Y52892691D01*
X3499498Y52892689D01*
X3499500Y52892686D01*
X3592686Y52799500D01*
X3592688Y52799499D01*
X3592690Y52799497D01*
X3706810Y52733610D01*
X3706808Y52733610D01*
X3706812Y52733609D01*
X3706814Y52733608D01*
X3834108Y52699500D01*
X3834110Y52699500D01*
X3965890Y52699500D01*
X3965892Y52699500D01*
X4093186Y52733608D01*
X4093188Y52733610D01*
X4093190Y52733610D01*
X4207309Y52799497D01*
X4207309Y52799498D01*
X4207314Y52799500D01*
X4228319Y52820506D01*
X4282834Y52848281D01*
X4298321Y52849500D01*
X5546142Y52849500D01*
X5546144Y52849500D01*
X5635288Y52873386D01*
X5647551Y52880467D01*
X5647556Y52880468D01*
X5699222Y52910299D01*
X5715212Y52919530D01*
X5801285Y53005606D01*
X5801290Y53005608D01*
X5815212Y53019530D01*
X5901285Y53105606D01*
X5901290Y53105608D01*
X5915212Y53119530D01*
X5984964Y53189284D01*
X6016884Y53210662D01*
X6766649Y53523063D01*
X6827633Y53527990D01*
X6830242Y53527331D01*
X6934108Y53499500D01*
X6934111Y53499500D01*
X7065890Y53499500D01*
X7065892Y53499500D01*
X7193186Y53533608D01*
X7193188Y53533610D01*
X7193190Y53533610D01*
X7307309Y53599497D01*
X7307309Y53599498D01*
X7307314Y53599500D01*
X7400500Y53692686D01*
X7400789Y53693186D01*
X7466390Y53806810D01*
X7466390Y53806812D01*
X7466392Y53806814D01*
X7500500Y53934108D01*
X7500500Y54065892D01*
X7466392Y54193186D01*
X7466390Y54193189D01*
X7466390Y54193191D01*
X7400503Y54307310D01*
X7400501Y54307312D01*
X7400500Y54307314D01*
X7307314Y54400500D01*
X7307311Y54400502D01*
X7307309Y54400504D01*
X7193189Y54466391D01*
X7193191Y54466391D01*
X7143799Y54479625D01*
X7065892Y54500500D01*
X6934108Y54500500D01*
X6856200Y54479625D01*
X6806809Y54466391D01*
X6692690Y54400504D01*
X6599498Y54307312D01*
X6544416Y54211909D01*
X6498946Y54170968D01*
X6496757Y54170025D01*
X5692819Y53835051D01*
X5680371Y53830811D01*
X5664714Y53826615D01*
X5664708Y53826613D01*
X5649849Y53818034D01*
X5638434Y53812390D01*
X5622602Y53805793D01*
X5622596Y53805790D01*
X5609751Y53795891D01*
X5598828Y53788577D01*
X5584790Y53780472D01*
X5584787Y53780469D01*
X5572657Y53768340D01*
X5563095Y53759936D01*
X5549499Y53749458D01*
X5549493Y53749452D01*
X5539655Y53736575D01*
X5530995Y53726679D01*
X5419530Y53615213D01*
X5419530Y53615212D01*
X5383814Y53579496D01*
X5329297Y53551719D01*
X5313810Y53550500D01*
X5286909Y53550500D01*
X5228718Y53569407D01*
X5192754Y53618907D01*
X5192754Y53680093D01*
X5214685Y53717210D01*
X5555242Y54080471D01*
X6435903Y55019845D01*
X6489493Y55049364D01*
X6521174Y55049252D01*
X6521246Y55049977D01*
X6526077Y55049501D01*
X6526082Y55049500D01*
X6526087Y55049500D01*
X6673917Y55049500D01*
X6673918Y55049500D01*
X6818913Y55078342D01*
X6955495Y55134916D01*
X7078416Y55217049D01*
X7182951Y55321584D01*
X7265084Y55444505D01*
X7321658Y55581087D01*
X7325228Y55599037D01*
X7355122Y55652421D01*
X7400848Y55676369D01*
X8844336Y55997144D01*
X8865812Y55999500D01*
X8865893Y55999500D01*
X8898415Y56008216D01*
X8917042Y56013207D01*
X8921180Y56014221D01*
X8972897Y56025712D01*
X8972960Y56025746D01*
X8993117Y56033590D01*
X8993186Y56033608D01*
X9039044Y56060086D01*
X9042774Y56062134D01*
X9089760Y56086622D01*
X9089814Y56086673D01*
X9107249Y56099464D01*
X9107314Y56099500D01*
X9144779Y56136967D01*
X9147814Y56139874D01*
X9186877Y56175703D01*
X9186918Y56175767D01*
X9200449Y56192635D01*
X9200449Y56192636D01*
X9200500Y56192686D01*
X9226995Y56238579D01*
X9229176Y56242176D01*
X9257629Y56286885D01*
X9257648Y56286948D01*
X9266360Y56306759D01*
X9266392Y56306814D01*
X9280106Y56357998D01*
X9281283Y56362040D01*
X9297194Y56412589D01*
X9297197Y56412672D01*
X9300481Y56434035D01*
X9300500Y56434106D01*
X9300500Y56487059D01*
X9300592Y56491328D01*
X9302876Y56544248D01*
X9302875Y56544256D01*
X9302857Y56544338D01*
X9300500Y56565811D01*
X9300500Y56565892D01*
X9298250Y56574289D01*
X9286785Y56617074D01*
X9285780Y56621178D01*
X9278196Y56655309D01*
X9274288Y56672897D01*
X9274247Y56672976D01*
X9266412Y56693110D01*
X9266391Y56693188D01*
X9253283Y56715891D01*
X9239905Y56739061D01*
X9237859Y56742790D01*
X9219291Y56778415D01*
X9213378Y56789760D01*
X9213323Y56789820D01*
X9200540Y56807244D01*
X9200500Y56807314D01*
X9187310Y56820504D01*
X9163044Y56844771D01*
X9160091Y56847854D01*
X9124297Y56886877D01*
X9124228Y56886921D01*
X9107377Y56900437D01*
X9107314Y56900500D01*
X9061446Y56926983D01*
X9057799Y56929195D01*
X9013117Y56957628D01*
X9013110Y56957631D01*
X9013031Y56957656D01*
X8993258Y56966351D01*
X8993188Y56966392D01*
X8993183Y56966394D01*
X8942035Y56980099D01*
X8937937Y56981292D01*
X8887411Y56997195D01*
X8887402Y56997196D01*
X8887305Y56997200D01*
X8865982Y57000477D01*
X8865901Y57000499D01*
X8865893Y57000500D01*
X8865892Y57000500D01*
X8865890Y57000500D01*
X8812941Y57000500D01*
X8808674Y57000592D01*
X8806348Y57000693D01*
X8755752Y57002877D01*
X8755744Y57002876D01*
X8755662Y57002857D01*
X8734189Y57000500D01*
X8734108Y57000500D01*
X8682965Y56986797D01*
X8678819Y56985781D01*
X8129692Y56863753D01*
X8068785Y56869587D01*
X8022940Y56910107D01*
X8009667Y56969835D01*
X8034036Y57025958D01*
X8038197Y57030384D01*
X8100500Y57092686D01*
X8104434Y57099500D01*
X8166390Y57206810D01*
X8166390Y57206812D01*
X8166392Y57206814D01*
X8200500Y57334108D01*
X8200500Y57465892D01*
X8166392Y57593186D01*
X8166390Y57593189D01*
X8166390Y57593191D01*
X8100503Y57707310D01*
X8100501Y57707312D01*
X8100500Y57707314D01*
X8007314Y57800500D01*
X8007311Y57800502D01*
X8007309Y57800504D01*
X7893189Y57866391D01*
X7893191Y57866391D01*
X7843799Y57879625D01*
X7765892Y57900500D01*
X7634108Y57900500D01*
X7556200Y57879625D01*
X7506809Y57866391D01*
X7387067Y57797256D01*
X7386452Y57798320D01*
X7335069Y57780133D01*
X7324899Y57780391D01*
X6822483Y57819038D01*
X6765914Y57842352D01*
X6760073Y57847742D01*
X6707314Y57900500D01*
X6707309Y57900504D01*
X6593189Y57966391D01*
X6593191Y57966391D01*
X6542053Y57980093D01*
X6465892Y58000500D01*
X6334108Y58000500D01*
X6257947Y57980093D01*
X6206809Y57966391D01*
X6092690Y57900504D01*
X5999496Y57807310D01*
X5933609Y57693191D01*
X5926428Y57666391D01*
X5899500Y57565892D01*
X5899500Y57434108D01*
X5926294Y57334110D01*
X5933609Y57306810D01*
X5999496Y57192691D01*
X5999498Y57192689D01*
X5999500Y57192686D01*
X6092686Y57099500D01*
X6092688Y57099499D01*
X6092690Y57099497D01*
X6206810Y57033610D01*
X6206808Y57033610D01*
X6206812Y57033609D01*
X6206814Y57033608D01*
X6334108Y56999500D01*
X6334110Y56999500D01*
X6465890Y56999500D01*
X6465892Y56999500D01*
X6593186Y57033608D01*
X6593188Y57033610D01*
X6593190Y57033610D01*
X6712934Y57102744D01*
X6713550Y57101677D01*
X6764907Y57119869D01*
X6775089Y57119612D01*
X7277516Y57080963D01*
X7334085Y57057649D01*
X7339926Y57052259D01*
X7392685Y56999501D01*
X7392690Y56999497D01*
X7506810Y56933610D01*
X7506811Y56933610D01*
X7506814Y56933608D01*
X7541343Y56924356D01*
X7592657Y56891034D01*
X7614584Y56833912D01*
X7598749Y56774812D01*
X7551200Y56736306D01*
X7537196Y56732088D01*
X6827107Y56574290D01*
X6827105Y56574289D01*
X6782653Y56551121D01*
X6722311Y56540993D01*
X6717584Y56541815D01*
X6673923Y56550500D01*
X6673918Y56550500D01*
X6526082Y56550500D01*
X6526081Y56550500D01*
X6381085Y56521658D01*
X6244506Y56465085D01*
X6121585Y56382952D01*
X6017048Y56278415D01*
X5934915Y56155494D01*
X5878342Y56018915D01*
X5850981Y55881365D01*
X5826107Y55832970D01*
X4341474Y54249363D01*
X4339255Y54247071D01*
X4299498Y54207313D01*
X4295550Y54202167D01*
X4295343Y54202326D01*
X4293367Y54199662D01*
X4293579Y54199510D01*
X4289796Y54194237D01*
X4263268Y54144664D01*
X4261719Y54141877D01*
X4233607Y54093184D01*
X4231124Y54087189D01*
X4230881Y54087290D01*
X4229664Y54084213D01*
X4229910Y54084120D01*
X4227622Y54078050D01*
X4214827Y54023296D01*
X4214051Y54020204D01*
X4199500Y53965896D01*
X4198653Y53959457D01*
X4198391Y53959492D01*
X4198012Y53956203D01*
X4198275Y53956177D01*
X4197636Y53949723D01*
X4199449Y53893521D01*
X4199500Y53890329D01*
X4199500Y53834108D01*
X4200346Y53827680D01*
X4200086Y53827646D01*
X4200573Y53824358D01*
X4200832Y53824400D01*
X4201884Y53818007D01*
X4209849Y53791703D01*
X4208616Y53730530D01*
X4171663Y53681765D01*
X4113103Y53664033D01*
X4089478Y53667386D01*
X3965892Y53700500D01*
X3834108Y53700500D01*
X3759358Y53680471D01*
X3706809Y53666391D01*
X3592690Y53600504D01*
X3499496Y53507310D01*
X3433609Y53393191D01*
X3427846Y53371683D01*
X3399500Y53265892D01*
X300500Y53265892D01*
X300500Y60106291D01*
X2149500Y60106291D01*
X2149500Y59893710D01*
X2182752Y59683762D01*
X2248443Y59481588D01*
X2344948Y59292185D01*
X2344950Y59292181D01*
X2469891Y59120214D01*
X2469893Y59120212D01*
X2469896Y59120208D01*
X2620208Y58969896D01*
X2620211Y58969894D01*
X2620213Y58969892D01*
X2792180Y58844951D01*
X2792184Y58844949D01*
X2981588Y58748443D01*
X3183757Y58682754D01*
X3183758Y58682754D01*
X3183761Y58682753D01*
X3393710Y58649500D01*
X3393713Y58649500D01*
X3606290Y58649500D01*
X3816238Y58682753D01*
X3816239Y58682754D01*
X3816243Y58682754D01*
X4018412Y58748443D01*
X4207816Y58844949D01*
X4215457Y58850500D01*
X4279837Y58897275D01*
X4379792Y58969896D01*
X4530104Y59120208D01*
X4635949Y59265892D01*
X5999500Y59265892D01*
X5999500Y59134108D01*
X6019682Y59058788D01*
X6033609Y59006810D01*
X6099496Y58892691D01*
X6099498Y58892689D01*
X6099500Y58892686D01*
X6192686Y58799500D01*
X6192688Y58799499D01*
X6192690Y58799497D01*
X6306810Y58733610D01*
X6306808Y58733610D01*
X6306812Y58733609D01*
X6306814Y58733608D01*
X6434108Y58699500D01*
X6434110Y58699500D01*
X6565890Y58699500D01*
X6565892Y58699500D01*
X6693186Y58733608D01*
X6693188Y58733610D01*
X6693190Y58733610D01*
X6807309Y58799497D01*
X6807309Y58799498D01*
X6807314Y58799500D01*
X6900500Y58892686D01*
X6900503Y58892693D01*
X6901615Y58894140D01*
X6902696Y58894884D01*
X6905088Y58897275D01*
X6905531Y58896832D01*
X6952037Y58928799D01*
X6961619Y58931126D01*
X10375858Y59581457D01*
X10436559Y59573771D01*
X10443877Y59569945D01*
X10506814Y59533608D01*
X10634108Y59499500D01*
X10634110Y59499500D01*
X10765890Y59499500D01*
X10765892Y59499500D01*
X10893186Y59533608D01*
X10893188Y59533610D01*
X10893190Y59533610D01*
X11007309Y59599497D01*
X11007309Y59599498D01*
X11007314Y59599500D01*
X11100500Y59692686D01*
X11100503Y59692691D01*
X11166390Y59806810D01*
X11166390Y59806812D01*
X11166392Y59806814D01*
X11200500Y59934108D01*
X11200500Y60065892D01*
X11166392Y60193186D01*
X11166390Y60193189D01*
X11166390Y60193191D01*
X11100503Y60307310D01*
X11100501Y60307312D01*
X11100500Y60307314D01*
X11007314Y60400500D01*
X11007311Y60400502D01*
X11007309Y60400504D01*
X10893189Y60466391D01*
X10893191Y60466391D01*
X10832084Y60482764D01*
X10765892Y60500500D01*
X10634108Y60500500D01*
X10567916Y60482764D01*
X10506809Y60466391D01*
X10392690Y60400504D01*
X10392685Y60400500D01*
X10299496Y60307312D01*
X10298374Y60305849D01*
X10297287Y60305103D01*
X10294911Y60302726D01*
X10294470Y60303167D01*
X10247946Y60271198D01*
X10238362Y60268872D01*
X6824140Y59618545D01*
X6763439Y59626231D01*
X6756117Y59630060D01*
X6693187Y59666392D01*
X6628378Y59683757D01*
X6565892Y59700500D01*
X6434108Y59700500D01*
X6371622Y59683757D01*
X6306809Y59666391D01*
X6192690Y59600504D01*
X6099496Y59507310D01*
X6033609Y59393191D01*
X6033608Y59393186D01*
X5999500Y59265892D01*
X4635949Y59265892D01*
X4655051Y59292184D01*
X4751557Y59481588D01*
X4817246Y59683757D01*
X4826580Y59742686D01*
X4850500Y59893710D01*
X4850500Y60106291D01*
X4817247Y60316239D01*
X4808062Y60344507D01*
X4751557Y60518412D01*
X4655051Y60707816D01*
X4655049Y60707820D01*
X4530108Y60879787D01*
X4530105Y60879790D01*
X4530104Y60879792D01*
X4379792Y61030104D01*
X4379788Y61030107D01*
X4379786Y61030109D01*
X4207819Y61155050D01*
X4207815Y61155052D01*
X4018412Y61251557D01*
X3816238Y61317248D01*
X3606290Y61350500D01*
X3606287Y61350500D01*
X3393713Y61350500D01*
X3393710Y61350500D01*
X3183761Y61317248D01*
X2981587Y61251557D01*
X2792184Y61155052D01*
X2792180Y61155050D01*
X2620213Y61030109D01*
X2469891Y60879787D01*
X2344950Y60707820D01*
X2344948Y60707816D01*
X2248443Y60518413D01*
X2182752Y60316239D01*
X2149500Y60106291D01*
X300500Y60106291D01*
X300500Y62173919D01*
X7649500Y62173919D01*
X7649500Y62026082D01*
X7678342Y61881086D01*
X7728032Y61761124D01*
X7734916Y61744505D01*
X7817049Y61621584D01*
X7921584Y61517049D01*
X8044505Y61434916D01*
X8181087Y61378342D01*
X8326082Y61349500D01*
X8326083Y61349500D01*
X8473917Y61349500D01*
X8473918Y61349500D01*
X8618913Y61378342D01*
X8755495Y61434916D01*
X8878416Y61517049D01*
X8982951Y61621584D01*
X9065084Y61744505D01*
X9095070Y61816899D01*
X9103971Y61838386D01*
X9143708Y61884911D01*
X9195435Y61899500D01*
X9265890Y61899500D01*
X9265892Y61899500D01*
X9393186Y61933608D01*
X9393188Y61933610D01*
X9393190Y61933610D01*
X9507309Y61999497D01*
X9507309Y61999498D01*
X9507314Y61999500D01*
X9600500Y62092686D01*
X9605824Y62101908D01*
X9666390Y62206810D01*
X9666390Y62206812D01*
X9666392Y62206814D01*
X9700500Y62334108D01*
X9700500Y62465892D01*
X9666392Y62593186D01*
X9645552Y62629282D01*
X9645551Y62629285D01*
X9619781Y62673919D01*
X12249500Y62673919D01*
X12249500Y62526082D01*
X12278342Y62381086D01*
X12314959Y62292686D01*
X12334916Y62244505D01*
X12417049Y62121584D01*
X12435369Y62103264D01*
X12463145Y62048749D01*
X12461408Y62009251D01*
X12415678Y61826327D01*
X12415261Y61824716D01*
X12399499Y61765888D01*
X12399046Y61762449D01*
X12399007Y61762244D01*
X12398869Y61761124D01*
X12398857Y61760910D01*
X12398463Y61757470D01*
X12399486Y61696637D01*
X12399500Y61694972D01*
X12399500Y61634108D01*
X12399952Y61630673D01*
X12399968Y61630458D01*
X12400125Y61629337D01*
X12400168Y61629128D01*
X12400678Y61625699D01*
X12417403Y61567232D01*
X12417847Y61565630D01*
X12433607Y61506817D01*
X12434930Y61503623D01*
X12435004Y61503411D01*
X12435448Y61502363D01*
X12435541Y61502180D01*
X12436922Y61498998D01*
X12468246Y61446792D01*
X12469040Y61445443D01*
X12487747Y61413042D01*
X12499504Y61392678D01*
X12501608Y61389937D01*
X12501719Y61389774D01*
X12502426Y61388869D01*
X12502563Y61388715D01*
X12504721Y61385999D01*
X12504724Y61385996D01*
X12504726Y61385993D01*
X12548497Y61343670D01*
X12549625Y61342561D01*
X12592687Y61299499D01*
X12595423Y61297400D01*
X12595575Y61297269D01*
X12596514Y61296561D01*
X12596676Y61296454D01*
X12599461Y61294391D01*
X12599463Y61294390D01*
X12599465Y61294388D01*
X12652713Y61264828D01*
X12654059Y61264066D01*
X12706814Y61233608D01*
X12706821Y61233606D01*
X12710010Y61232285D01*
X12710193Y61232197D01*
X12711275Y61231759D01*
X12711490Y61231688D01*
X12714676Y61230431D01*
X12714686Y61230425D01*
X12773780Y61215653D01*
X12775197Y61215286D01*
X12834108Y61199500D01*
X12834109Y61199500D01*
X12834113Y61199499D01*
X12837540Y61199048D01*
X12837733Y61199012D01*
X12838891Y61198869D01*
X12839100Y61198857D01*
X12842527Y61198466D01*
X12842536Y61198463D01*
X12903365Y61199487D01*
X12905029Y61199500D01*
X12965889Y61199500D01*
X12965892Y61199500D01*
X12965894Y61199501D01*
X12969288Y61199948D01*
X12969496Y61199964D01*
X12970704Y61200133D01*
X12970907Y61200175D01*
X12974293Y61200679D01*
X12974301Y61200679D01*
X13032892Y61217441D01*
X13034374Y61217851D01*
X13093186Y61233608D01*
X13093197Y61233615D01*
X13096347Y61234919D01*
X13096555Y61234992D01*
X13097668Y61235464D01*
X13097850Y61235555D01*
X13101000Y61236923D01*
X13101003Y61236923D01*
X13153292Y61268298D01*
X13154501Y61269010D01*
X13207314Y61299500D01*
X13207321Y61299508D01*
X13210044Y61301596D01*
X13210211Y61301710D01*
X13211168Y61302457D01*
X13211321Y61302593D01*
X13214000Y61304723D01*
X13214007Y61304726D01*
X13256332Y61348501D01*
X13257440Y61349628D01*
X13300500Y61392686D01*
X13300508Y61392702D01*
X13302589Y61395411D01*
X13302732Y61395577D01*
X13303445Y61396524D01*
X13303560Y61396698D01*
X13305603Y61399457D01*
X13305612Y61399465D01*
X13335199Y61452764D01*
X13335920Y61454037D01*
X13366392Y61506814D01*
X13366395Y61506826D01*
X13367705Y61509987D01*
X13367795Y61510174D01*
X13368249Y61511299D01*
X13368313Y61511490D01*
X13369572Y61514682D01*
X13369575Y61514686D01*
X13384332Y61573716D01*
X13384742Y61575299D01*
X13400500Y61634108D01*
X13400500Y61634111D01*
X13400952Y61637542D01*
X13403061Y61648631D01*
X13403528Y61650500D01*
X13494098Y62012783D01*
X13520136Y62058770D01*
X13582951Y62121584D01*
X13665084Y62244505D01*
X13721658Y62381087D01*
X13750500Y62526082D01*
X13750500Y62673918D01*
X13721658Y62818913D01*
X13665084Y62955495D01*
X13582951Y63078416D01*
X13478416Y63182951D01*
X13355495Y63265084D01*
X13287639Y63293191D01*
X13218914Y63321658D01*
X13073918Y63350500D01*
X12926082Y63350500D01*
X12926081Y63350500D01*
X12781085Y63321658D01*
X12644506Y63265085D01*
X12521585Y63182952D01*
X12417048Y63078415D01*
X12334915Y62955494D01*
X12278342Y62818915D01*
X12249500Y62673919D01*
X9619781Y62673919D01*
X9600503Y62707310D01*
X9600501Y62707312D01*
X9600500Y62707314D01*
X9507314Y62800500D01*
X9507311Y62800502D01*
X9507309Y62800504D01*
X9393189Y62866391D01*
X9393191Y62866391D01*
X9343799Y62879625D01*
X9265892Y62900500D01*
X9265890Y62900500D01*
X9193719Y62900500D01*
X9135528Y62919407D01*
X9099564Y62968907D01*
X9098092Y63025123D01*
X9100002Y63032250D01*
X9100500Y63034108D01*
X9100500Y63063810D01*
X9119407Y63122001D01*
X9129496Y63133814D01*
X9466186Y63470504D01*
X9520703Y63498281D01*
X9536190Y63499500D01*
X9565890Y63499500D01*
X9565892Y63499500D01*
X9693186Y63533608D01*
X9693188Y63533610D01*
X9693190Y63533610D01*
X9807309Y63599497D01*
X9807309Y63599498D01*
X9807314Y63599500D01*
X9900500Y63692686D01*
X9952218Y63782264D01*
X9966390Y63806810D01*
X9966390Y63806812D01*
X9966392Y63806814D01*
X10000500Y63934108D01*
X10000500Y64065892D01*
X9966392Y64193186D01*
X9966390Y64193189D01*
X9966390Y64193191D01*
X9900503Y64307310D01*
X9900501Y64307312D01*
X9900500Y64307314D01*
X9807314Y64400500D01*
X9807311Y64400502D01*
X9807309Y64400504D01*
X9693189Y64466391D01*
X9693191Y64466391D01*
X9643799Y64479625D01*
X9565892Y64500500D01*
X9434108Y64500500D01*
X9356200Y64479625D01*
X9306809Y64466391D01*
X9192690Y64400504D01*
X9099496Y64307310D01*
X9033609Y64193191D01*
X8999500Y64065891D01*
X8999500Y64036190D01*
X8980593Y63977999D01*
X8970504Y63966186D01*
X8633814Y63629496D01*
X8579297Y63601719D01*
X8563810Y63600500D01*
X8534108Y63600500D01*
X8456200Y63579625D01*
X8406809Y63566391D01*
X8292690Y63500504D01*
X8199496Y63407310D01*
X8133609Y63293191D01*
X8133608Y63293186D01*
X8099500Y63165892D01*
X8099500Y63034108D01*
X8133608Y62906814D01*
X8133608Y62906813D01*
X8135288Y62900546D01*
X8133471Y62900060D01*
X8137581Y62847805D01*
X8105609Y62795638D01*
X8079206Y62779459D01*
X8044505Y62765085D01*
X7921585Y62682952D01*
X7817048Y62578415D01*
X7734915Y62455494D01*
X7678342Y62318915D01*
X7649500Y62173919D01*
X300500Y62173919D01*
X300500Y65504673D01*
X1149500Y65504673D01*
X1149500Y63855328D01*
X1149501Y63855316D01*
X1164033Y63782264D01*
X1164035Y63782258D01*
X1219397Y63699401D01*
X1219400Y63699398D01*
X1263593Y63669870D01*
X1302260Y63644034D01*
X1357808Y63632985D01*
X1375315Y63629502D01*
X1375320Y63629502D01*
X1375326Y63629500D01*
X1375327Y63629500D01*
X3024673Y63629500D01*
X3024674Y63629500D01*
X3097740Y63644034D01*
X3180601Y63699399D01*
X3235966Y63782260D01*
X3250500Y63855326D01*
X3250500Y64783468D01*
X3649500Y64783468D01*
X3649500Y64576533D01*
X3689869Y64373582D01*
X3769058Y64182403D01*
X3879983Y64016391D01*
X3884023Y64010345D01*
X4030345Y63864023D01*
X4202402Y63749059D01*
X4393580Y63669870D01*
X4596535Y63629500D01*
X4596536Y63629500D01*
X4803464Y63629500D01*
X4803465Y63629500D01*
X5006420Y63669870D01*
X5197598Y63749059D01*
X5369655Y63864023D01*
X5515977Y64010345D01*
X5630941Y64182402D01*
X5710130Y64373580D01*
X5750500Y64576535D01*
X5750500Y64783465D01*
X5710130Y64986420D01*
X5630941Y65177598D01*
X5515977Y65349655D01*
X5369655Y65495977D01*
X5362880Y65500504D01*
X5197597Y65610942D01*
X5006418Y65690131D01*
X4803467Y65730500D01*
X4803465Y65730500D01*
X4596535Y65730500D01*
X4596532Y65730500D01*
X4393581Y65690131D01*
X4202402Y65610942D01*
X4030348Y65495980D01*
X3884020Y65349652D01*
X3769058Y65177598D01*
X3689869Y64986419D01*
X3649500Y64783468D01*
X3250500Y64783468D01*
X3250500Y65504674D01*
X3235966Y65577740D01*
X3213782Y65610942D01*
X3180602Y65660600D01*
X3180599Y65660603D01*
X3097742Y65715965D01*
X3097740Y65715966D01*
X3097737Y65715967D01*
X3097736Y65715967D01*
X3024684Y65730499D01*
X3024674Y65730500D01*
X1375326Y65730500D01*
X1375325Y65730500D01*
X1375315Y65730499D01*
X1302263Y65715967D01*
X1302257Y65715965D01*
X1219400Y65660603D01*
X1219397Y65660600D01*
X1164035Y65577743D01*
X1164033Y65577737D01*
X1149501Y65504685D01*
X1149500Y65504673D01*
X300500Y65504673D01*
X300500Y66550500D01*
X319407Y66608691D01*
X368907Y66644655D01*
X399500Y66649500D01*
X49600500Y66649500D01*
X49658691Y66630593D01*
G37*
%TD.AperFunction*%
%TA.AperFunction,Conductor*%
G36*
X15784729Y56830593D02*
G01*
X15820693Y56781093D01*
X15820693Y56719907D01*
X15784729Y56670407D01*
X15753735Y56655309D01*
X15215984Y56501667D01*
X15172540Y56501305D01*
X15172323Y56499653D01*
X15165893Y56500500D01*
X15165892Y56500500D01*
X15034107Y56500500D01*
X14956200Y56479626D01*
X14906809Y56466391D01*
X14792689Y56400503D01*
X14299496Y55907310D01*
X14233609Y55793191D01*
X14233608Y55793186D01*
X14199500Y55665892D01*
X14199500Y55534108D01*
X14227470Y55429721D01*
X14233609Y55406810D01*
X14299496Y55292691D01*
X14299498Y55292689D01*
X14299500Y55292686D01*
X14392686Y55199500D01*
X14392688Y55199499D01*
X14392690Y55199497D01*
X14506810Y55133610D01*
X14506808Y55133610D01*
X14506812Y55133609D01*
X14506814Y55133608D01*
X14634108Y55099500D01*
X14634110Y55099500D01*
X14765890Y55099500D01*
X14765892Y55099500D01*
X14893186Y55133608D01*
X14893188Y55133610D01*
X14893190Y55133610D01*
X15007309Y55199497D01*
X15007309Y55199498D01*
X15007314Y55199500D01*
X15416862Y55609050D01*
X15459665Y55634235D01*
X16257876Y55862296D01*
X16319022Y55860102D01*
X16355077Y55837109D01*
X17170505Y55021681D01*
X17198281Y54967166D01*
X17199500Y54951679D01*
X17199500Y53748322D01*
X17180593Y53690131D01*
X17170504Y53678319D01*
X16699500Y53207315D01*
X16699496Y53207310D01*
X16633609Y53093191D01*
X16616227Y53028320D01*
X16599500Y52965892D01*
X16599500Y52915892D01*
X16599500Y52784108D01*
X16628702Y52675121D01*
X16625500Y52614022D01*
X16586995Y52566472D01*
X16533076Y52550500D01*
X14953856Y52550500D01*
X14864712Y52526614D01*
X14864711Y52526614D01*
X14864709Y52526613D01*
X14784789Y52480471D01*
X14683814Y52379496D01*
X14629298Y52351719D01*
X14613811Y52350500D01*
X14386189Y52350500D01*
X14327998Y52369407D01*
X14316191Y52379491D01*
X14315212Y52380470D01*
X14315210Y52380471D01*
X14309568Y52386114D01*
X14309564Y52386117D01*
X14261573Y52434108D01*
X14215212Y52480470D01*
X14215211Y52480471D01*
X14209569Y52486113D01*
X14209569Y52486112D01*
X14188957Y52506725D01*
X14173453Y52526838D01*
X13721463Y53301679D01*
X13703576Y53332342D01*
X13690587Y53392133D01*
X13693461Y53407840D01*
X13700500Y53434108D01*
X13700500Y53565892D01*
X13666392Y53693186D01*
X13639395Y53739945D01*
X13626674Y53799793D01*
X13651560Y53855688D01*
X13655087Y53859407D01*
X13701289Y53905610D01*
X13701292Y53905611D01*
X13715211Y53919530D01*
X13715212Y53919530D01*
X13737910Y53942230D01*
X13792423Y53970007D01*
X13796099Y53970519D01*
X15744735Y54204355D01*
X15804763Y54192515D01*
X15806029Y54191796D01*
X15906810Y54133610D01*
X15906808Y54133610D01*
X15906812Y54133609D01*
X15906814Y54133608D01*
X16034108Y54099500D01*
X16034110Y54099500D01*
X16165890Y54099500D01*
X16165892Y54099500D01*
X16293186Y54133608D01*
X16293188Y54133610D01*
X16293190Y54133610D01*
X16407309Y54199497D01*
X16407309Y54199498D01*
X16407314Y54199500D01*
X16500500Y54292686D01*
X16508946Y54307314D01*
X16566390Y54406810D01*
X16566390Y54406812D01*
X16566392Y54406814D01*
X16600500Y54534108D01*
X16600500Y54665892D01*
X16566392Y54793186D01*
X16566390Y54793189D01*
X16566390Y54793191D01*
X16500503Y54907310D01*
X16500501Y54907312D01*
X16500500Y54907314D01*
X16407314Y55000500D01*
X16407311Y55000502D01*
X16407309Y55000504D01*
X16293189Y55066391D01*
X16293191Y55066391D01*
X16228341Y55083767D01*
X16165892Y55100500D01*
X16034108Y55100500D01*
X15971659Y55083767D01*
X15906809Y55066391D01*
X15792690Y55000504D01*
X15792685Y55000500D01*
X15721030Y54928845D01*
X15666513Y54901068D01*
X15662822Y54900554D01*
X13584916Y54651204D01*
X13573121Y54650499D01*
X13553856Y54650499D01*
X13553854Y54650499D01*
X13553848Y54650498D01*
X13540235Y54646851D01*
X13526418Y54644185D01*
X13512425Y54642506D01*
X13512421Y54642505D01*
X13494534Y54635335D01*
X13483327Y54631602D01*
X13464711Y54626614D01*
X13452506Y54619568D01*
X13439852Y54613418D01*
X13426765Y54608172D01*
X13426761Y54608170D01*
X13411328Y54596607D01*
X13401477Y54590106D01*
X13384786Y54580469D01*
X13374825Y54570507D01*
X13364191Y54561288D01*
X13352904Y54552831D01*
X13352902Y54552829D01*
X13340990Y54537670D01*
X13333155Y54528839D01*
X13283816Y54479498D01*
X13229300Y54451719D01*
X13213811Y54450500D01*
X13146144Y54450500D01*
X13046144Y54450500D01*
X12853856Y54450500D01*
X12799297Y54435882D01*
X12764707Y54426613D01*
X12711660Y54395985D01*
X12651812Y54383263D01*
X12595916Y54408149D01*
X12565323Y54461137D01*
X12566532Y54507340D01*
X12600500Y54634108D01*
X12600500Y54765892D01*
X12566392Y54893186D01*
X12566389Y54893190D01*
X12565393Y54896910D01*
X12568123Y54956755D01*
X12991622Y56106250D01*
X13029481Y56154315D01*
X13035003Y56157752D01*
X13107314Y56199500D01*
X13200500Y56292686D01*
X13247222Y56373612D01*
X13292690Y56414552D01*
X13353541Y56420948D01*
X13358552Y56419745D01*
X13434108Y56399500D01*
X13434110Y56399500D01*
X13565890Y56399500D01*
X13565892Y56399500D01*
X13693186Y56433608D01*
X13693188Y56433610D01*
X13693190Y56433610D01*
X13807309Y56499497D01*
X13807309Y56499498D01*
X13807314Y56499500D01*
X13900500Y56592686D01*
X13947222Y56673612D01*
X13992690Y56714552D01*
X14053541Y56720948D01*
X14058552Y56719745D01*
X14134108Y56699500D01*
X14134110Y56699500D01*
X14265890Y56699500D01*
X14265892Y56699500D01*
X14393186Y56733608D01*
X14393188Y56733610D01*
X14393190Y56733610D01*
X14507309Y56799497D01*
X14507309Y56799498D01*
X14507314Y56799500D01*
X14528319Y56820506D01*
X14582834Y56848281D01*
X14598321Y56849500D01*
X15726538Y56849500D01*
X15784729Y56830593D01*
G37*
%TD.AperFunction*%
%TA.AperFunction,Conductor*%
G36*
X47758691Y63030593D02*
G01*
X47794655Y62981093D01*
X47799500Y62950500D01*
X47799500Y60813691D01*
X47780593Y60755500D01*
X47731093Y60719536D01*
X47669907Y60719536D01*
X47620407Y60755500D01*
X47563295Y60834108D01*
X47530104Y60879792D01*
X47379792Y61030104D01*
X47379788Y61030107D01*
X47379786Y61030109D01*
X47207819Y61155050D01*
X47207815Y61155052D01*
X47018412Y61251557D01*
X46816238Y61317248D01*
X46606290Y61350500D01*
X46606287Y61350500D01*
X46393713Y61350500D01*
X46393710Y61350500D01*
X46183761Y61317248D01*
X45981587Y61251557D01*
X45792184Y61155052D01*
X45792180Y61155050D01*
X45620213Y61030109D01*
X45620208Y61030105D01*
X45620208Y61030104D01*
X45519501Y60929398D01*
X45464987Y60901622D01*
X45404555Y60911193D01*
X45361290Y60954458D01*
X45350500Y60999403D01*
X45350500Y62896143D01*
X45350500Y62896144D01*
X45342801Y62924878D01*
X45346004Y62985980D01*
X45384510Y63033529D01*
X45438428Y63049500D01*
X47700500Y63049500D01*
X47758691Y63030593D01*
G37*
%TD.AperFunction*%
%TA.AperFunction,Conductor*%
G36*
X48908691Y65130593D02*
G01*
X48944655Y65081093D01*
X48949500Y65050500D01*
X48949500Y63795508D01*
X48930593Y63737317D01*
X48881093Y63701353D01*
X48819907Y63701353D01*
X48770407Y63737317D01*
X48764764Y63746008D01*
X48700503Y63857310D01*
X48700501Y63857312D01*
X48700500Y63857314D01*
X48607314Y63950500D01*
X48607311Y63950502D01*
X48607309Y63950504D01*
X48493189Y64016391D01*
X48493191Y64016391D01*
X48419298Y64036190D01*
X48365892Y64050500D01*
X48365890Y64050500D01*
X40747239Y64050500D01*
X40697741Y64063762D01*
X40693186Y64066392D01*
X40681934Y64069407D01*
X40565892Y64100500D01*
X40434108Y64100500D01*
X40349245Y64077762D01*
X40306813Y64066392D01*
X40302259Y64063762D01*
X40252761Y64050500D01*
X35566924Y64050500D01*
X35508733Y64069407D01*
X35472769Y64118907D01*
X35471297Y64175121D01*
X35500500Y64284108D01*
X35500500Y64300500D01*
X35519407Y64358691D01*
X35568907Y64394655D01*
X35599500Y64399500D01*
X35665890Y64399500D01*
X35665892Y64399500D01*
X35793186Y64433608D01*
X35793188Y64433610D01*
X35793190Y64433610D01*
X35907309Y64499497D01*
X35907309Y64499498D01*
X35907314Y64499500D01*
X35928319Y64520506D01*
X35982834Y64548281D01*
X35998321Y64549500D01*
X38301679Y64549500D01*
X38359870Y64530593D01*
X38371676Y64520510D01*
X38392686Y64499500D01*
X38392688Y64499499D01*
X38392690Y64499497D01*
X38506810Y64433610D01*
X38506808Y64433610D01*
X38506812Y64433609D01*
X38506814Y64433608D01*
X38634108Y64399500D01*
X38634110Y64399500D01*
X38765890Y64399500D01*
X38765892Y64399500D01*
X38893186Y64433608D01*
X38893188Y64433610D01*
X38893190Y64433610D01*
X39007309Y64499497D01*
X39007309Y64499498D01*
X39007314Y64499500D01*
X39100500Y64592686D01*
X39166392Y64706814D01*
X39200500Y64834108D01*
X39200500Y64965892D01*
X39185806Y65020732D01*
X39189007Y65081832D01*
X39227512Y65129382D01*
X39286613Y65145218D01*
X39343734Y65123292D01*
X39363747Y65101356D01*
X39417049Y65021584D01*
X39521584Y64917049D01*
X39644505Y64834916D01*
X39781087Y64778342D01*
X39926082Y64749500D01*
X39926083Y64749500D01*
X40073917Y64749500D01*
X40073918Y64749500D01*
X40218913Y64778342D01*
X40355495Y64834916D01*
X40478416Y64917049D01*
X40582951Y65021584D01*
X40639023Y65105503D01*
X40687073Y65143381D01*
X40721338Y65149500D01*
X48850500Y65149500D01*
X48908691Y65130593D01*
G37*
%TD.AperFunction*%
%TD*%
M02*
