%TF.GenerationSoftware,KiCad,Pcbnew,10.0.5*%
%TF.CreationDate,2026-09-24T09:19:26+03:00*%
%TF.ProjectId,gnss-pod,676e7373-2d70-46f6-942e-6b696361645f,rev?*%
%TF.SameCoordinates,Original*%
%TF.FileFunction,Copper,L2,Bot*%
%TF.FilePolarity,Positive*%
%FSLAX46Y46*%
G04 Gerber Fmt 4.6, Leading zero omitted, Abs format (unit mm)*
G04 Created by KiCad (PCBNEW 10.0.5) date 2026-09-24 09:19:26*
%MOMM*%
%LPD*%
G01*
G04 APERTURE LIST*
G04 Aperture macros list*
%AMRoundRect*
0 Rectangle with rounded corners*
0 $1 Rounding radius*
0 $2 $3 $4 $5 $6 $7 $8 $9 X,Y pos of 4 corners*
0 Add a 4 corners polygon primitive as box body*
4,1,4,$2,$3,$4,$5,$6,$7,$8,$9,$2,$3,0*
0 Add four circle primitives for the rounded corners*
1,1,$1+$1,$2,$3*
1,1,$1+$1,$4,$5*
1,1,$1+$1,$6,$7*
1,1,$1+$1,$8,$9*
0 Add four rect primitives between the rounded corners*
20,1,$1+$1,$2,$3,$4,$5,0*
20,1,$1+$1,$4,$5,$6,$7,0*
20,1,$1+$1,$6,$7,$8,$9,0*
20,1,$1+$1,$8,$9,$2,$3,0*%
G04 Aperture macros list end*
%TA.AperFunction,ComponentPad*%
%ADD10R,1.600000X1.600000*%
%TD*%
%TA.AperFunction,ComponentPad*%
%ADD11C,1.600000*%
%TD*%
%TA.AperFunction,ComponentPad*%
%ADD12RoundRect,0.250000X0.625000X-0.350000X0.625000X0.350000X-0.625000X0.350000X-0.625000X-0.350000X0*%
%TD*%
%TA.AperFunction,ComponentPad*%
%ADD13O,1.750000X1.200000*%
%TD*%
%TA.AperFunction,ComponentPad*%
%ADD14O,2.100000X1.000000*%
%TD*%
%TA.AperFunction,ComponentPad*%
%ADD15O,1.600000X1.000000*%
%TD*%
%TA.AperFunction,SMDPad,CuDef*%
%ADD16C,1.000000*%
%TD*%
%TA.AperFunction,ViaPad*%
%ADD17C,0.500000*%
%TD*%
%TA.AperFunction,Conductor*%
%ADD18C,0.250000*%
%TD*%
%TA.AperFunction,Conductor*%
%ADD19C,0.500000*%
%TD*%
%TA.AperFunction,Conductor*%
%ADD20C,0.200000*%
%TD*%
G04 APERTURE END LIST*
D10*
%TO.P,SW3,1*%
%TO.N,VSYS*%
X42700000Y64680000D03*
D11*
%TO.P,SW3,2*%
%TO.N,LDO_EN*%
X45200000Y64680000D03*
%TO.P,SW3,3*%
%TO.N,GND*%
X47700000Y64680000D03*
%TD*%
D12*
%TO.P,J2,1*%
%TO.N,VBAT*%
X46600000Y53000000D03*
D13*
%TO.P,J2,2*%
%TO.N,GND*%
X46600000Y55000000D03*
%TD*%
D14*
%TO.P,J1,SH*%
%TO.N,GND*%
X6780000Y56270000D03*
D15*
X2600000Y56270000D03*
D14*
X6780000Y47630000D03*
D15*
X2600000Y47630000D03*
%TD*%
D16*
%TO.P,TP6,1*%
%TO.N,VBUS*%
X10500000Y54700000D03*
%TD*%
%TO.P,TP18,1*%
%TO.N,VBCKP*%
X21900000Y51250000D03*
%TD*%
%TO.P,TP17,1*%
%TO.N,BOOT*%
X19900000Y62400000D03*
%TD*%
%TO.P,TP15,1*%
%TO.N,GNSS_RESET_N*%
X30100000Y58000000D03*
%TD*%
%TO.P,TP16,1*%
%TO.N,EN*%
X30100000Y64600000D03*
%TD*%
%TO.P,TP13,1*%
%TO.N,U0TXD*%
X30100000Y60200000D03*
%TD*%
%TO.P,TP8,1*%
%TO.N,GNSS_RXD*%
X27600000Y55600000D03*
%TD*%
%TO.P,TP4,1*%
%TO.N,VBAT*%
X13000000Y62600000D03*
%TD*%
%TO.P,TP14,1*%
%TO.N,U0RXD*%
X30100000Y62400000D03*
%TD*%
%TO.P,TP3,1*%
%TO.N,GND*%
X25000000Y64600000D03*
%TD*%
%TO.P,TP7,1*%
%TO.N,GNSS_TXD*%
X30100000Y55800000D03*
%TD*%
%TO.P,TP12,1*%
%TO.N,GNSS_SAFEBOOT_N*%
X25000000Y55600000D03*
%TD*%
%TO.P,TP5,1*%
%TO.N,VSYS*%
X8400000Y62100000D03*
%TD*%
%TO.P,TP19,1*%
%TO.N,IMU_INT1*%
X19900000Y55800000D03*
%TD*%
%TO.P,TP1,1*%
%TO.N,3V3*%
X19900000Y64600000D03*
%TD*%
%TO.P,TP11,1*%
%TO.N,I2C_SCL*%
X19900000Y58000000D03*
%TD*%
%TO.P,TP10,1*%
%TO.N,I2C_SDA*%
X19900000Y60200000D03*
%TD*%
%TO.P,TP2,1*%
%TO.N,GND*%
X22400000Y64600000D03*
%TD*%
%TO.P,TP9,1*%
%TO.N,PPS*%
X26700000Y50550000D03*
%TD*%
D17*
%TO.N,3V3*%
X24600000Y44900000D03*
X21900000Y44300000D03*
X17200000Y63500000D03*
X36800000Y53200000D03*
X34800000Y61600000D03*
X14700000Y65000000D03*
X30100000Y50800000D03*
X23800000Y49100000D03*
X10000000Y46500000D03*
X14400000Y46000000D03*
X13700000Y65300000D03*
X35400000Y52000000D03*
X25900000Y44900000D03*
X16400000Y61000000D03*
X37100000Y55700000D03*
X13500000Y60900000D03*
X34600000Y50800000D03*
X34900000Y62900000D03*
X12200000Y46500000D03*
X25600000Y48500000D03*
X36900000Y54400000D03*
%TO.N,BOOT*%
X36400000Y56400000D03*
X17200000Y62400000D03*
X41400000Y53900000D03*
X32900000Y60300000D03*
X37700000Y56400000D03*
X41300000Y51600000D03*
%TO.N,CHG_N*%
X8700000Y48000000D03*
X10700000Y60000000D03*
X38400000Y43700000D03*
X9100000Y55300000D03*
X19700000Y46100000D03*
X12200000Y47300000D03*
X14500000Y47100000D03*
X28500000Y43900000D03*
X10300000Y57400000D03*
X10300000Y47300000D03*
X33100000Y43700000D03*
X17000000Y46600000D03*
%TO.N,EN*%
X39000000Y56400000D03*
X31200000Y65000000D03*
X39000000Y57600000D03*
X38600000Y61100000D03*
X38600000Y59500000D03*
%TO.N,GND*%
X1000000Y48400001D03*
X1000000Y28400001D03*
X1000000Y50900001D03*
X49000000Y58400001D03*
X23350000Y58375000D03*
X1000000Y65900001D03*
X36468750Y6650001D03*
X49000000Y13400001D03*
X31000000Y36000000D03*
X47000000Y36000000D03*
X15000000Y36000000D03*
X23750000Y26250000D03*
X11762500Y64550000D03*
X49000000Y43400001D03*
X28750000Y28750000D03*
X43350000Y6650001D03*
X25000000Y58375000D03*
X1000000Y25900001D03*
X15000000Y4000000D03*
X39000000Y36000000D03*
X48400000Y47940000D03*
X35000000Y24000000D03*
X43000000Y8000000D03*
X3000000Y32000000D03*
X1000000Y15900001D03*
X8500000Y1000000D03*
X35000000Y12000000D03*
X29587500Y6650001D03*
X43350000Y29437500D03*
X1000000Y35900001D03*
X1000000Y55900001D03*
X5000000Y53000000D03*
X23000000Y40000000D03*
X6650000Y31656250D03*
X6650000Y18343750D03*
X43350000Y40531250D03*
X21250000Y28750000D03*
X6650000Y25000000D03*
X31000000Y1000000D03*
X47000000Y62000000D03*
X9100000Y59760000D03*
X11000000Y24000000D03*
X28750000Y23750000D03*
X26000000Y56000000D03*
X49000000Y18400001D03*
X47000000Y40000000D03*
X15000000Y12000000D03*
X39000000Y28000000D03*
X7000000Y4000000D03*
X43350000Y31656250D03*
X46000000Y1000000D03*
X35000000Y4000000D03*
X34175000Y6650001D03*
X15380000Y59370000D03*
X26250000Y26250000D03*
X7000000Y8000000D03*
X1000000Y40900001D03*
X1000000Y58400001D03*
X49000000Y40900001D03*
X19000000Y20000000D03*
X19000000Y4000000D03*
X11600000Y59300000D03*
X40200000Y44600000D03*
X47000000Y28000000D03*
X27000000Y8000000D03*
X6000000Y1000000D03*
X27000000Y40000000D03*
X6650000Y33875000D03*
X21250000Y21250000D03*
X6650000Y9468750D03*
X49000000Y5900001D03*
X5000000Y62000000D03*
X23750000Y23750000D03*
X49000000Y28400001D03*
X49000000Y30900001D03*
X31881250Y6650001D03*
X31000000Y4000000D03*
X43500000Y1000000D03*
X38762500Y6650001D03*
X26250000Y28750000D03*
X3000000Y8000000D03*
X7200000Y65800000D03*
X26250000Y23750000D03*
X6650000Y20562500D03*
X1000000Y45900001D03*
X36000000Y1000000D03*
X1000000Y38400001D03*
X11762500Y66450000D03*
X27000000Y36000000D03*
X47000000Y32000000D03*
X49000000Y10900001D03*
X25000000Y6650001D03*
X49000000Y25900001D03*
X11000000Y1000000D03*
X2000000Y53000000D03*
X23000000Y28000000D03*
X28750000Y26250000D03*
X13500000Y1000000D03*
X41056250Y6650001D03*
X3000000Y16000000D03*
X12150000Y58750000D03*
X39000000Y12000000D03*
X47000000Y20000000D03*
X49000000Y50900001D03*
X43350000Y38312500D03*
X39000000Y20000000D03*
X33750000Y64180000D03*
X43350000Y16125000D03*
X17870000Y48960000D03*
X35900000Y45300000D03*
X3000000Y40000000D03*
X45130000Y45300000D03*
X1000000Y5900001D03*
X49000000Y60900001D03*
X39000000Y32000000D03*
X31510000Y50070000D03*
X1000000Y33400001D03*
X15000000Y40000000D03*
X31000000Y40000000D03*
X49000000Y15900001D03*
X44400000Y51500000D03*
X3000000Y20000000D03*
X23350000Y60025000D03*
X38500000Y1000000D03*
X43350000Y36093750D03*
X15000000Y20000000D03*
X15000000Y28000000D03*
X7000000Y24000000D03*
X43350000Y22781250D03*
X11000000Y12000000D03*
X48400000Y45970000D03*
X19000000Y8000000D03*
X43000000Y4000000D03*
X3000000Y28000000D03*
X11000000Y32000000D03*
X35000000Y32000000D03*
X15000000Y16000000D03*
X6650000Y11687500D03*
X23000000Y4000000D03*
X41000000Y56000000D03*
X39000000Y16000000D03*
X1000000Y20900001D03*
X11000000Y16000000D03*
X31000000Y32000000D03*
X1000000Y1000000D03*
X24175000Y57550000D03*
X24500000Y42700000D03*
X10160000Y48850000D03*
X23000000Y12000000D03*
X11000000Y36000000D03*
X25825000Y57550000D03*
X27000000Y12000000D03*
X43350000Y25000000D03*
X25000000Y60025000D03*
X18118750Y6650001D03*
X43300000Y60400000D03*
X43350000Y42750000D03*
X3000000Y12000000D03*
X6650000Y36093750D03*
X28500000Y1000000D03*
X6650000Y29437500D03*
X21000000Y1000000D03*
X43350000Y20562500D03*
X24175000Y60850000D03*
X49000000Y3400000D03*
X15000000Y32000000D03*
X20412500Y6650001D03*
X8943750Y6650001D03*
X21250000Y23750000D03*
X43350000Y9468750D03*
X49000000Y33400001D03*
X49000000Y53400001D03*
X6650000Y22781250D03*
X6650000Y16125000D03*
X11000000Y8000000D03*
X49000000Y55900001D03*
X6650000Y13906250D03*
X25825000Y59200000D03*
X26650000Y60025000D03*
X23000000Y8000000D03*
X39400000Y52400000D03*
X43900000Y54600000D03*
X1000000Y13400001D03*
X11000000Y28000000D03*
X11600000Y58200000D03*
X1000000Y3400000D03*
X41000000Y65000000D03*
X43350000Y33875000D03*
X1000000Y8400001D03*
X35000000Y8000000D03*
X27000000Y20000000D03*
X19000000Y12000000D03*
X27000000Y4000000D03*
X39000000Y40000000D03*
X2000000Y59000000D03*
X26250000Y21250000D03*
X10700000Y51900000D03*
X35000000Y28000000D03*
X19000000Y32000000D03*
X15000000Y24000000D03*
X2000000Y65000000D03*
X6650000Y38312500D03*
X47000000Y12000000D03*
X12700000Y58200000D03*
X15000000Y8000000D03*
X23750000Y28750000D03*
X6650000Y27218750D03*
X11762500Y65450000D03*
X29000000Y65000000D03*
X35000000Y20000000D03*
X1000000Y43400001D03*
X41000000Y1000000D03*
X39000000Y8000000D03*
X49000000Y20900001D03*
X19000000Y40000000D03*
X38000000Y59000000D03*
X49000000Y35900001D03*
X3000000Y24000000D03*
X49000000Y65900001D03*
X23000000Y20000000D03*
X25825000Y60850000D03*
X11000000Y20000000D03*
X43000000Y24000000D03*
X21250000Y26250000D03*
X5800000Y44300000D03*
X33500000Y1000000D03*
X23500000Y1000000D03*
X1000000Y18400001D03*
X28750000Y21250000D03*
X27900000Y43200000D03*
X47000000Y8000000D03*
X49000000Y8400001D03*
X47000000Y24000000D03*
X43350000Y18343750D03*
X1000000Y10900001D03*
X47000000Y16000000D03*
X12700000Y59300000D03*
X6650000Y40531250D03*
X13531250Y6650001D03*
X11000000Y40000000D03*
X24175000Y59200000D03*
X3500000Y1000000D03*
X1000000Y63400001D03*
X26000000Y1000000D03*
X27000000Y28000000D03*
X23000000Y36000000D03*
X49000000Y63400001D03*
X22706250Y6650001D03*
X1000000Y53400001D03*
X43350000Y27218750D03*
X16000000Y1000000D03*
X3000000Y36000000D03*
X40700000Y49300000D03*
X2000000Y62000000D03*
X10990000Y53870000D03*
X11000000Y4000000D03*
X49000000Y38400001D03*
X39000000Y24000000D03*
X23750000Y21250000D03*
X49000000Y23400001D03*
X31000000Y12000000D03*
X6650000Y6650001D03*
X27293750Y6650001D03*
X5000000Y59000000D03*
X6800000Y60100000D03*
X5000000Y56000000D03*
X18500000Y1000000D03*
X26650000Y58375000D03*
X44600000Y53800000D03*
X48500000Y1000000D03*
X7980000Y63640001D03*
X31000000Y8000000D03*
X43350000Y13906250D03*
X1000000Y23400001D03*
X1000000Y30900001D03*
X39000000Y4000000D03*
X19000000Y36000000D03*
X15825000Y6650001D03*
X31000000Y20000000D03*
X1000000Y60900001D03*
X21800000Y42900000D03*
X41000000Y59000000D03*
X43350000Y11687500D03*
X44000000Y59000000D03*
X11237500Y6650001D03*
X11762500Y63550000D03*
%TO.N,GNSS_EXTINT*%
X32900000Y54600000D03*
X34100000Y55900000D03*
%TO.N,GNSS_RESET_N*%
X33200000Y56700000D03*
X31200000Y57700000D03*
X33400000Y54000000D03*
%TO.N,GNSS_RXD*%
X35800000Y51200000D03*
X34000000Y52800000D03*
X31200000Y55700000D03*
%TO.N,GNSS_SAFEBOOT_N*%
X36000000Y53500000D03*
%TO.N,GNSS_TXD*%
X31200000Y56500000D03*
%TO.N,I2C_SCL*%
X24900000Y48200000D03*
X26600000Y48200000D03*
X16000000Y54600000D03*
X14700000Y49700000D03*
X15800000Y49700000D03*
X17000000Y55200000D03*
%TO.N,I2C_SDA*%
X26200000Y49700000D03*
X17200000Y56000000D03*
%TO.N,IMU_INT1*%
X19500000Y51300000D03*
X17200000Y54400000D03*
X18800000Y49000000D03*
X23400000Y45300000D03*
%TO.N,IMU_INT2*%
X27000000Y46600000D03*
X20800000Y50900000D03*
X20200000Y48400000D03*
X17200000Y53000000D03*
%TO.N,IO14*%
X15000000Y46500000D03*
X16200000Y46500000D03*
%TO.N,IO47*%
X29900000Y46100000D03*
X18800000Y43700000D03*
X28900000Y50900000D03*
X29000000Y46900000D03*
X25900000Y43700000D03*
X28500000Y44700000D03*
X29900000Y49700000D03*
X27100000Y44700000D03*
%TO.N,IO48*%
X21300000Y47800000D03*
X29400000Y47600000D03*
%TO.N,IO5*%
X8600000Y45600000D03*
X15100000Y56500000D03*
%TO.N,IO6*%
X12300000Y50300000D03*
X15100000Y54100000D03*
%TO.N,IO7*%
X16200000Y55400000D03*
X12600000Y49300000D03*
%TO.N,LDO_EN*%
X11200000Y63000000D03*
X32900000Y65700000D03*
X13000000Y64900000D03*
X15600000Y63400000D03*
%TO.N,LED1*%
X30800000Y47200000D03*
X25400000Y49700000D03*
X38400000Y47400000D03*
X19200000Y53000000D03*
X33100000Y47400000D03*
X25700000Y50900000D03*
%TO.N,LED2*%
X27400000Y51300000D03*
X38400000Y46600000D03*
X36200000Y46600000D03*
X28400000Y50300000D03*
X35600000Y48200000D03*
X20200000Y53000000D03*
X31500000Y47900000D03*
X33100000Y48200000D03*
%TO.N,PGOOD_N*%
X16300000Y59200000D03*
X9800000Y61100000D03*
%TO.N,PPS*%
X26700000Y50300000D03*
X14100000Y50300000D03*
%TO.N,TS*%
X27600000Y61800000D03*
X22400000Y56600000D03*
X32900000Y59200000D03*
X14800000Y57200000D03*
%TO.N,U0RXD*%
X32880699Y62646300D03*
%TO.N,U0TXD*%
X31200000Y60200000D03*
%TO.N,USB_DN*%
X17200000Y51100000D03*
X16900000Y53700000D03*
X24700000Y53000000D03*
X18800000Y50900000D03*
%TO.N,USB_DN_C*%
X12100000Y53700000D03*
X13300000Y54300000D03*
%TO.N,USB_DP*%
X21200000Y49700000D03*
X17700000Y47100000D03*
X16700000Y48000000D03*
X24300000Y49700000D03*
%TO.N,VBAT*%
X35400000Y65900000D03*
X40100000Y62500000D03*
X40100000Y63900000D03*
X10900000Y62300000D03*
X14800000Y63300000D03*
%TO.N,VBAT_SENSE*%
X10200000Y61900000D03*
X17200000Y61400000D03*
%TO.N,VBCKP*%
X21900000Y51250000D03*
%TO.N,VBCKP_SRC*%
X21200000Y46600000D03*
X33100000Y49700000D03*
X38400000Y49700000D03*
X29100000Y46000000D03*
%TO.N,VBUS*%
X10500000Y54700000D03*
X9100000Y48800000D03*
%TO.N,VSYS*%
X8300000Y59900000D03*
X9100000Y60500000D03*
X9300000Y64300000D03*
X9100000Y61600000D03*
X10900000Y60800000D03*
X35800000Y62800000D03*
X12500000Y60900000D03*
X43800000Y48700000D03*
X43800000Y45900000D03*
%TD*%
%TO.N,3V3*%
D18*
X21900000Y44300000D02*
X14500000Y45900000D01*
D19*
X34200000Y63400000D02*
X34800000Y62800000D01*
D18*
X25600000Y48500000D02*
X25500000Y48500000D01*
X35400000Y52000000D02*
X36800000Y53200000D01*
X36900000Y54400000D02*
X37100000Y55700000D01*
X16400000Y61000000D02*
X13500000Y60900000D01*
X17200000Y63500000D02*
X18900000Y63800001D01*
D19*
X30100000Y50800000D02*
X34600000Y50800000D01*
D18*
X25200000Y48800000D02*
X23800000Y49100000D01*
X14700000Y65000000D02*
X14400000Y65000000D01*
D19*
X20300000Y64400000D02*
X21900000Y63600000D01*
D18*
X25400000Y48600000D02*
X25300000Y48700000D01*
X25500000Y48500000D02*
X25400000Y48600000D01*
D19*
X21900000Y63600000D02*
X34200000Y63400000D01*
D18*
X24600000Y44900000D02*
X25900000Y44900000D01*
X25300000Y48700000D02*
X25200000Y48800000D01*
X12200000Y46500000D02*
X10000000Y46500000D01*
X14400000Y65000000D02*
X13700000Y65300000D01*
X18900000Y63800001D02*
X19500000Y64300000D01*
X34800000Y61600000D02*
X34900000Y62900000D01*
X14500000Y45900000D02*
X14400000Y46000000D01*
%TO.N,BOOT*%
D20*
X30200000Y61200000D02*
X32700000Y60500000D01*
X28300000Y62400000D02*
X30200000Y61200000D01*
X41400000Y53900000D02*
X41300000Y51600000D01*
X36400000Y56400000D02*
X37700000Y56400000D01*
X17200000Y62400000D02*
X19400000Y62400000D01*
X20300000Y62400000D02*
X28300000Y62400000D01*
X32700000Y60500000D02*
X32900000Y60300000D01*
%TO.N,CHG_N*%
X24300000Y44300000D02*
X26600000Y44300000D01*
X20500000Y45700000D02*
X20600000Y45600000D01*
X20800000Y45500000D02*
X22800000Y45000000D01*
X26700000Y44200000D02*
X26800000Y44100000D01*
X8500000Y48200000D02*
X8700000Y48000000D01*
X10300000Y47300000D02*
X12200000Y47300000D01*
X24100000Y44500000D02*
X24200000Y44400000D01*
X24000000Y44600000D02*
X24100000Y44500000D01*
X10700000Y60000000D02*
X10300000Y57400000D01*
X23000000Y44800000D02*
X23100000Y44700000D01*
X20100000Y46100000D02*
X20200000Y46000000D01*
X23100000Y44700000D02*
X24000000Y44600000D01*
X8500000Y49200000D02*
X8500000Y48200000D01*
X20200000Y46000000D02*
X20300000Y45900000D01*
X20600000Y45600000D02*
X20700000Y45600000D01*
X16800000Y46800000D02*
X17000000Y46600000D01*
X19700000Y46100000D02*
X20100000Y46100000D01*
X20300000Y45900000D02*
X20400000Y45800000D01*
X22900000Y44900000D02*
X23000000Y44800000D01*
X16500000Y47100000D02*
X16600000Y47000000D01*
X16700000Y46900000D02*
X16800000Y46800000D01*
X9100000Y55300000D02*
X8500000Y49200000D01*
X26600000Y44300000D02*
X26700000Y44200000D01*
X20400000Y45800000D02*
X20500000Y45700000D01*
X22800000Y45000000D02*
X22900000Y44900000D01*
X20700000Y45600000D02*
X20800000Y45500000D01*
X16600000Y47000000D02*
X16700000Y46900000D01*
X33100000Y43700000D02*
X38400000Y43700000D01*
X14500000Y47100000D02*
X16500000Y47100000D01*
X26800000Y44100000D02*
X28500000Y43900000D01*
X24200000Y44400000D02*
X24300000Y44300000D01*
%TO.N,EN*%
X31200000Y65000000D02*
X30500000Y64900000D01*
X39000000Y57600000D02*
X39000000Y56400000D01*
X38600000Y61100000D02*
X38600000Y59500000D01*
%TO.N,GNSS_EXTINT*%
X34100000Y55900000D02*
X32900000Y54600000D01*
%TO.N,GNSS_RESET_N*%
X31200000Y57700000D02*
X30500000Y57700000D01*
X32500000Y55100000D02*
X32400000Y55000000D01*
X33200000Y56700000D02*
X32500000Y55200000D01*
X32500000Y54100000D02*
X32600000Y54000000D01*
X32299999Y54900000D02*
X32299999Y54300000D01*
X32500000Y55200000D02*
X32500000Y55100000D01*
X32600000Y54000000D02*
X33400000Y54000000D01*
X32400000Y55000000D02*
X32299999Y54900000D01*
X32400000Y54200000D02*
X32500000Y54100000D01*
X32299999Y54300000D02*
X32400000Y54200000D01*
%TO.N,GNSS_RXD*%
X31500000Y55900000D02*
X31600000Y56000000D01*
X32799999Y57200000D02*
X32900000Y57300000D01*
X32700000Y57100000D02*
X32799999Y57200000D01*
X38200000Y56800000D02*
X38300000Y56700000D01*
X38300000Y56700000D02*
X38300000Y53700000D01*
X32600000Y57000000D02*
X32700000Y57100000D01*
X31600000Y56000000D02*
X31700000Y56100000D01*
X38100000Y56900000D02*
X38200000Y56800000D01*
X31200000Y55700000D02*
X31500000Y55900000D01*
X38000000Y57000000D02*
X38100000Y56900000D01*
X30500000Y52900000D02*
X28000000Y55400000D01*
X32900000Y57300000D02*
X37700000Y57300000D01*
X31700000Y56100000D02*
X31800000Y56200000D01*
X37700000Y57300000D02*
X38000000Y57000000D01*
X34000000Y52800000D02*
X30500000Y52900000D01*
X31800000Y56200000D02*
X32600000Y57000000D01*
X38300000Y53700000D02*
X35800000Y51200000D01*
%TO.N,GNSS_SAFEBOOT_N*%
X25600000Y56900000D02*
X25500000Y57000000D01*
X31200000Y53400000D02*
X27600000Y56900000D01*
X24900000Y56700000D02*
X24900000Y56600000D01*
X24900000Y56200000D02*
X24900000Y56100000D01*
X24900000Y56500000D02*
X24900000Y56400000D01*
X24900000Y57000000D02*
X24900000Y56900000D01*
X36000000Y53500000D02*
X33800000Y53400000D01*
X24900000Y56900000D02*
X24900000Y56800000D01*
X24900000Y56800000D02*
X24900000Y56700000D01*
X24900000Y56300000D02*
X24900000Y56200000D01*
X24900000Y56400000D02*
X24900000Y56300000D01*
X27600000Y56900000D02*
X25600000Y56900000D01*
X25500000Y57000000D02*
X24900000Y57000000D01*
X24900000Y56600000D02*
X24900000Y56500000D01*
X24900000Y56100000D02*
X24900000Y56000000D01*
X33800000Y53400000D02*
X31200000Y53400000D01*
%TO.N,GNSS_TXD*%
X31200000Y56500000D02*
X30500000Y56100000D01*
%TO.N,I2C_SCL*%
X24600000Y48200000D02*
X24900000Y48200000D01*
X13500000Y49900000D02*
X13700000Y49700000D01*
X25300000Y47900000D02*
X25900000Y47900000D01*
X16000000Y54600000D02*
X16000000Y54400000D01*
X15800000Y49700000D02*
X20400000Y49600000D01*
X16000000Y54400000D02*
X15900000Y54300000D01*
X13700000Y50900000D02*
X13500000Y50700000D01*
X16900000Y56600000D02*
X19500000Y57700000D01*
X20900000Y49100000D02*
X24600000Y48200000D01*
X15600000Y51700000D02*
X15400000Y51500000D01*
X20400000Y49600000D02*
X20600000Y49400000D01*
X26200000Y48100000D02*
X26600000Y48200000D01*
X26100000Y48000000D02*
X26200000Y48100000D01*
X16800000Y56500000D02*
X16900000Y56600000D01*
X16800000Y55500000D02*
X16800000Y55600001D01*
X16600000Y55900000D02*
X16600000Y56300000D01*
X13700000Y49700000D02*
X14700000Y49700000D01*
X25200000Y48000000D02*
X25300000Y47900000D01*
X15400000Y51500000D02*
X14000000Y50900000D01*
X15900000Y54200000D02*
X15800000Y54100000D01*
X24900000Y48200000D02*
X25000000Y48200000D01*
X16649999Y55800000D02*
X16800000Y55600001D01*
X20800000Y49200000D02*
X20900000Y49100000D01*
X16600000Y55900000D02*
X16649999Y55800000D01*
X26000000Y48000000D02*
X26100000Y48000000D01*
X16700000Y56400000D02*
X16800000Y56500000D01*
X25100000Y48100000D02*
X25200000Y48000000D01*
X20700000Y49300000D02*
X20800000Y49200000D01*
X16600000Y56300000D02*
X16700000Y56400000D01*
X15800000Y54100000D02*
X15600000Y51700000D01*
X13500000Y50700000D02*
X13500000Y49900000D01*
X15900000Y54300000D02*
X15900000Y54200000D01*
X16900000Y55400000D02*
X16800000Y55500000D01*
X14000000Y50900000D02*
X13700000Y50900000D01*
X25000000Y48200000D02*
X25100000Y48100000D01*
X20600000Y49400000D02*
X20700000Y49300000D01*
X17000000Y55200000D02*
X16900000Y55400000D01*
X25900000Y47900000D02*
X26000000Y48000000D01*
%TO.N,I2C_SDA*%
X22700000Y56000000D02*
X22800000Y56100000D01*
X21200000Y58700000D02*
X21100000Y58800000D01*
X21900000Y58000000D02*
X21800000Y58100000D01*
X22000000Y56100000D02*
X22100000Y56000000D01*
X27100000Y49700000D02*
X26200000Y49700000D01*
X21500000Y58400000D02*
X21400000Y58500000D01*
X24800000Y54500000D02*
X27700000Y51900000D01*
X22800000Y57100000D02*
X22700000Y57200000D01*
X27700000Y51900000D02*
X27800000Y51800000D01*
X20600000Y59300000D02*
X20100000Y59800000D01*
X28000000Y51600000D02*
X28000000Y50800000D01*
X27800000Y50600000D02*
X27500000Y50000000D01*
X21100000Y58800000D02*
X21000000Y58900000D01*
X20900000Y59000000D02*
X20800000Y59100000D01*
X21900000Y56200000D02*
X22000000Y56100000D01*
X28000000Y50800000D02*
X27900000Y50700000D01*
X27300000Y49800000D02*
X27100000Y49700000D01*
X22700000Y57200000D02*
X21900000Y58000000D01*
X20800000Y59100000D02*
X20700000Y59200000D01*
X21800000Y58100000D02*
X21700000Y58200000D01*
X21400000Y58500000D02*
X21300000Y58600000D01*
X21600000Y58300000D02*
X21500000Y58400000D01*
X20700000Y59200000D02*
X20600000Y59300000D01*
X21000000Y58900000D02*
X20900000Y59000000D01*
X22800000Y56100000D02*
X22900000Y56200000D01*
X21800000Y56300000D02*
X21900000Y56200000D01*
X20300000Y56700000D02*
X21800000Y56300000D01*
X19600000Y56700000D02*
X20300000Y56700000D01*
X27500000Y50000000D02*
X27300000Y49800000D01*
X27800000Y51800000D02*
X27900000Y51700000D01*
X22900000Y57000000D02*
X22800000Y57100000D01*
X23000000Y56300000D02*
X24800000Y54500000D01*
X21300000Y58600000D02*
X21200000Y58700000D01*
X22900000Y56200000D02*
X23000000Y56300000D01*
X22100000Y56000000D02*
X22700000Y56000000D01*
X27900000Y51700000D02*
X28000000Y51600000D01*
X27900000Y50700000D02*
X27800000Y50600000D01*
X17200000Y56000000D02*
X19600000Y56700000D01*
X21700000Y58200000D02*
X21600000Y58300000D01*
X23000000Y56300000D02*
X23000000Y56900000D01*
X23000000Y56900000D02*
X22900000Y57000000D01*
%TO.N,IMU_INT1*%
X16300000Y52900000D02*
X17400000Y51800000D01*
X22700000Y46000000D02*
X22800000Y45900000D01*
X16399999Y54100000D02*
X16300000Y54000000D01*
X20400000Y46500000D02*
X20500000Y46400000D01*
X17400000Y51800000D02*
X19300000Y51500000D01*
X19400000Y51400000D02*
X19500000Y51300000D01*
X20800000Y46100000D02*
X20900000Y46000000D01*
X17200000Y54400000D02*
X16600000Y54300000D01*
X20900000Y46000000D02*
X22700000Y46000000D01*
X20500000Y46400000D02*
X20600000Y46300000D01*
X16600000Y54300000D02*
X16500000Y54200000D01*
X22800000Y45900000D02*
X23400000Y45300000D01*
X19800000Y47100000D02*
X20400000Y46500000D01*
X16300000Y53400000D02*
X16300000Y52900000D01*
X19300000Y51500000D02*
X19400000Y51400000D01*
X18800000Y49000000D02*
X19800000Y47100000D01*
X16300000Y54000000D02*
X16300000Y53400000D01*
X16500000Y54200000D02*
X16399999Y54100000D01*
X20600000Y46300000D02*
X20700000Y46200000D01*
X20700000Y46200000D02*
X20800000Y46100000D01*
X17200000Y54400000D02*
X19500000Y55500000D01*
%TO.N,IMU_INT2*%
X19900000Y51800000D02*
X20000000Y51700000D01*
X20700000Y47500000D02*
X20800000Y47400000D01*
X20900000Y47300000D02*
X21000000Y47200000D01*
X18700000Y52600000D02*
X18800000Y52500000D01*
X24000000Y46900000D02*
X27000000Y46600000D01*
X19200000Y52300000D02*
X19300000Y52300000D01*
X19300000Y52300000D02*
X19400000Y52200000D01*
X18800000Y52500000D02*
X18900000Y52400000D01*
X18600000Y52700000D02*
X18700000Y52600000D01*
X21000000Y47200000D02*
X22900000Y47200000D01*
X23000000Y47100000D02*
X24000000Y46900000D01*
X18900000Y52400000D02*
X19200000Y52300000D01*
X19700000Y52000000D02*
X19800000Y51900000D01*
X17200000Y53100000D02*
X18600000Y52700000D01*
X20100000Y51600000D02*
X20800000Y50900000D01*
X19600000Y52000000D02*
X19700000Y52000000D01*
X20200000Y48400000D02*
X20700000Y47500000D01*
X17200000Y53100000D02*
X17200000Y53000000D01*
X20000000Y51700000D02*
X20100000Y51600000D01*
X19400000Y52200000D02*
X19500000Y52100000D01*
X19500000Y52100000D02*
X19600000Y52000000D01*
X19800000Y51900000D02*
X19900000Y51800000D01*
X20800000Y47400000D02*
X20900000Y47300000D01*
X22900000Y47200000D02*
X23000000Y47100000D01*
%TO.N,IO14*%
X16200000Y46500000D02*
X15000000Y46500000D01*
%TO.N,IO47*%
X29700000Y49900000D02*
X29900000Y49700000D01*
X29500000Y46500000D02*
X29600000Y46400000D01*
X29600000Y50000000D02*
X29700000Y49900000D01*
X29400000Y50200000D02*
X29500000Y50100000D01*
X25900000Y43700000D02*
X18800000Y43700000D01*
X28500000Y44700000D02*
X27100000Y44700000D01*
X29400000Y46600000D02*
X29500000Y46500000D01*
X29600000Y46400000D02*
X29700000Y46300000D01*
X29000000Y46900000D02*
X29400000Y46600000D01*
X29700000Y46300000D02*
X29900000Y46100000D01*
X29500000Y50100000D02*
X29600000Y50000000D01*
X28900000Y50900000D02*
X29400000Y50200000D01*
%TO.N,IO48*%
X24500000Y47400000D02*
X21900000Y47800000D01*
X29400000Y47600000D02*
X26300000Y47600000D01*
X26100000Y47500000D02*
X26000000Y47400000D01*
X21900000Y47800000D02*
X21300000Y47800000D01*
X26200000Y47500000D02*
X26100000Y47500000D01*
X26300000Y47600000D02*
X26200000Y47500000D01*
X26000000Y47400000D02*
X24500000Y47400000D01*
%TO.N,IO5*%
X13700000Y53700000D02*
X13600000Y53600000D01*
X11300000Y50900000D02*
X11300000Y50800000D01*
X14000000Y54100000D02*
X13900000Y54000000D01*
X15100000Y56500000D02*
X14700000Y55400000D01*
X13300000Y53300000D02*
X13200000Y53200000D01*
X11700000Y51500000D02*
X11700000Y51400000D01*
X14700000Y55400000D02*
X14700000Y55300000D01*
X12400000Y52400000D02*
X12300000Y52300000D01*
X11500000Y51100000D02*
X11400000Y51000000D01*
X13100000Y53100000D02*
X13000000Y53000000D01*
X12200000Y52200000D02*
X12100000Y52100000D01*
X12300000Y52300000D02*
X12200000Y52200000D01*
X13200000Y53200000D02*
X13100000Y53100000D01*
X10600000Y48300000D02*
X10700000Y48400000D01*
X11900000Y51900000D02*
X11900000Y51800000D01*
X12600000Y52600000D02*
X12500000Y52500000D01*
X9900000Y48000000D02*
X9900000Y47800000D01*
X13500000Y53500000D02*
X13400000Y53400000D01*
X12800000Y52800000D02*
X12700000Y52700000D01*
X9700000Y47600000D02*
X8600000Y45600000D01*
X13800000Y53800000D02*
X13700000Y53700000D01*
X13600000Y53600000D02*
X13500000Y53500000D01*
X14300000Y54900000D02*
X14200000Y54800000D01*
X12000000Y52000000D02*
X11900000Y51900000D01*
X13800000Y53900000D02*
X13800000Y53800000D01*
X11800000Y51600000D02*
X11700000Y51500000D01*
X11400000Y51000000D02*
X11300000Y50900000D01*
X12700000Y52700000D02*
X12600000Y52600000D01*
X14100000Y54700000D02*
X14100000Y54600000D01*
X13000000Y53000000D02*
X12900000Y52900000D01*
X14700000Y55300000D02*
X14600000Y55200000D01*
X9800000Y47700000D02*
X9700000Y47600000D01*
X13900000Y54000000D02*
X13800000Y53900000D01*
X9900000Y48000000D02*
X10600000Y48300000D01*
X13400000Y53400000D02*
X13300000Y53300000D01*
X14500000Y55100000D02*
X14400000Y55000000D01*
X12900000Y52900000D02*
X12800000Y52800000D01*
X14100000Y54600000D02*
X14000000Y54500000D01*
X10700000Y48400000D02*
X10800000Y48600000D01*
X11800000Y51700000D02*
X11800000Y51600000D01*
X14200000Y54800000D02*
X14100000Y54700000D01*
X11700000Y51400000D02*
X11600000Y51300000D01*
X14000000Y54500000D02*
X14000000Y54100000D01*
X11200000Y50700000D02*
X10900000Y48900000D01*
X11600000Y51300000D02*
X11600000Y51200000D01*
X11300000Y50800000D02*
X11200000Y50700000D01*
X9900000Y47800000D02*
X9800000Y47700000D01*
X10800000Y48600000D02*
X10900000Y48900000D01*
X11600000Y51200000D02*
X11500000Y51100000D01*
X12100000Y52100000D02*
X12000000Y52000000D01*
X11900000Y51800000D02*
X11800000Y51700000D01*
X14400000Y55000000D02*
X14300000Y54900000D01*
X14600000Y55200000D02*
X14500000Y55100000D01*
X12500000Y52500000D02*
X12400000Y52400000D01*
%TO.N,IO6*%
X12600000Y51000000D02*
X12500000Y50900000D01*
X13300000Y51900000D02*
X13200000Y51800000D01*
X12700000Y51200000D02*
X12600000Y51100000D01*
X13600000Y52200000D02*
X13500000Y52100000D01*
X13400000Y52000000D02*
X13300000Y51900000D01*
X12900000Y51500000D02*
X12800000Y51400000D01*
X13700000Y52300000D02*
X13600000Y52200000D01*
X13900000Y52500000D02*
X13800000Y52400000D01*
X14500000Y53100000D02*
X13900000Y52500000D01*
X13000000Y51600000D02*
X12900000Y51500000D01*
X12500000Y50500000D02*
X12300000Y50300000D01*
X12600000Y51100000D02*
X12600000Y51000000D01*
X12700000Y51300000D02*
X12700000Y51200000D01*
X12800000Y51400000D02*
X12700000Y51300000D01*
X15100000Y54100000D02*
X14500000Y53100000D01*
X12500000Y50900000D02*
X12500000Y50500000D01*
X13200000Y51800000D02*
X13100000Y51700000D01*
X13100000Y51700000D02*
X13000000Y51600000D01*
X13500000Y52100000D02*
X13400000Y52000000D01*
X13800000Y52400000D02*
X13700000Y52300000D01*
%TO.N,IO7*%
X14600000Y54500000D02*
X14500000Y54400000D01*
X12800000Y52100000D02*
X12700000Y52000000D01*
X11900000Y50800000D02*
X11800000Y50700000D01*
X13100000Y52400000D02*
X13000000Y52300000D01*
X13300000Y52600000D02*
X13200000Y52500000D01*
X14100000Y53400000D02*
X14000000Y53300000D01*
X12300000Y51600000D02*
X12300000Y51500000D01*
X11700000Y50600000D02*
X11700000Y50000000D01*
X14700000Y54600000D02*
X14600000Y54500000D01*
X12000000Y51000000D02*
X12000000Y50900000D01*
X13700000Y53000000D02*
X13600000Y52900000D01*
X12000000Y50900000D02*
X11900000Y50800000D01*
X12700000Y52000000D02*
X12600000Y51900000D01*
X14400000Y53900000D02*
X14400000Y53800000D01*
X14500000Y54000000D02*
X14400000Y53900000D01*
X12100000Y51100000D02*
X12000000Y51000000D01*
X12300000Y51500000D02*
X12200000Y51400000D01*
X14000000Y53300000D02*
X13900000Y53200000D01*
X13400000Y52700000D02*
X13300000Y52600000D01*
X11700000Y50000000D02*
X11800000Y49900000D01*
X12900000Y52200000D02*
X12800000Y52100000D01*
X11800000Y49900000D02*
X11900000Y49800000D01*
X12000000Y49700000D02*
X12600000Y49300000D01*
X13200000Y52500000D02*
X13100000Y52400000D01*
X12400000Y51700000D02*
X12300000Y51600000D01*
X13800000Y53100000D02*
X13700000Y53000000D01*
X12600000Y51900000D02*
X12500000Y51800000D01*
X14800000Y54700000D02*
X14700000Y54600000D01*
X13000000Y52300000D02*
X12900000Y52200000D01*
X14200000Y53600000D02*
X14200000Y53500000D01*
X14500000Y54400000D02*
X14500000Y54000000D01*
X14300000Y53700000D02*
X14200000Y53600000D01*
X14400000Y53800000D02*
X14300000Y53700000D01*
X15200000Y55100000D02*
X14800000Y54700000D01*
X11900000Y49800000D02*
X12000000Y49700000D01*
X12500000Y51800000D02*
X12400000Y51700000D01*
X13600000Y52900000D02*
X13500000Y52800000D01*
X14200000Y53500000D02*
X14100000Y53400000D01*
X12200000Y51300000D02*
X12100000Y51200000D01*
X16200000Y55400000D02*
X15200000Y55100000D01*
X11800000Y50700000D02*
X11700000Y50600000D01*
X13500000Y52800000D02*
X13400000Y52700000D01*
X12100000Y51200000D02*
X12100000Y51100000D01*
X13900000Y53200000D02*
X13800000Y53100000D01*
X12200000Y51400000D02*
X12200000Y51300000D01*
%TO.N,LDO_EN*%
X18800000Y64900000D02*
X18900000Y64900000D01*
X11200000Y63000000D02*
X11500000Y62900000D01*
X19500000Y65400000D02*
X19600000Y65500000D01*
X16700000Y63900000D02*
X16800000Y64000000D01*
X18700000Y64800000D02*
X18800000Y64900000D01*
X11500000Y62900000D02*
X12000000Y62900000D01*
X19200000Y65200000D02*
X19300000Y65300000D01*
X19100000Y65100000D02*
X19200000Y65200000D01*
X18200000Y64400000D02*
X18300000Y64400000D01*
X17900000Y64300000D02*
X18100000Y64300000D01*
X24300000Y65500000D02*
X32900000Y65700000D01*
X18500000Y64600000D02*
X18600000Y64700000D01*
X19000000Y65000000D02*
X19100000Y65100000D01*
X18600000Y64700000D02*
X18700000Y64800000D01*
X18400000Y64500000D02*
X18500000Y64600000D01*
X12400000Y63300000D02*
X13000000Y64900000D01*
X18100000Y64300000D02*
X18200000Y64400000D01*
X16600000Y63800001D02*
X16700000Y63900000D01*
X18900000Y64900000D02*
X19000000Y65000000D01*
X15600000Y63400000D02*
X16600000Y63800001D01*
X17800000Y64200000D02*
X17900000Y64300000D01*
X19300000Y65300000D02*
X19400000Y65400000D01*
X16800000Y64000000D02*
X16900000Y64100000D01*
X12300000Y63100000D02*
X12300000Y63200000D01*
X12200000Y63000000D02*
X12200000Y63100000D01*
X12200000Y63100000D02*
X12300000Y63100000D01*
X12300000Y63200000D02*
X12400000Y63300000D01*
X16900000Y64100000D02*
X17500000Y64100000D01*
X18300000Y64400000D02*
X18400000Y64500000D01*
X19600000Y65500000D02*
X24300000Y65500000D01*
X17500000Y64100000D02*
X17600000Y64200000D01*
X12000000Y62900000D02*
X12200000Y63000000D01*
X19400000Y65400000D02*
X19500000Y65400000D01*
X17600000Y64200000D02*
X17800000Y64200000D01*
%TO.N,LED1*%
X25800000Y49200000D02*
X25900000Y49100000D01*
X25400000Y49700000D02*
X25600000Y49400000D01*
X19600000Y52700000D02*
X19700000Y52600000D01*
X20200000Y52400000D02*
X23900000Y51900000D01*
X25600000Y49400000D02*
X25700000Y49300000D01*
X19200000Y53000000D02*
X19600000Y52700000D01*
X23900000Y51900000D02*
X25700000Y50900000D01*
X19700000Y52600000D02*
X19800000Y52500000D01*
X25900000Y49100000D02*
X28900000Y49100000D01*
X19800000Y52500000D02*
X19900000Y52400000D01*
X25700000Y49300000D02*
X25800000Y49200000D01*
X28900000Y49100000D02*
X30800000Y47200000D01*
X33100000Y47400000D02*
X38400000Y47400000D01*
X19900000Y52400000D02*
X20200000Y52400000D01*
%TO.N,LED2*%
X21800000Y52700000D02*
X22300000Y52700000D01*
X21000000Y52900000D02*
X21100000Y52800000D01*
X30300000Y49100000D02*
X31500000Y47900000D01*
X20600000Y52900000D02*
X21000000Y52900000D01*
X29300000Y49400000D02*
X29400000Y49300000D01*
X28400000Y50300000D02*
X29200000Y49500000D01*
X22800000Y52500000D02*
X24300000Y52500000D01*
X22700000Y52600000D02*
X22800000Y52500000D01*
X33100000Y48200000D02*
X35600000Y48200000D01*
X20200000Y53000000D02*
X20500000Y53000000D01*
X21700000Y52800000D02*
X21800000Y52700000D01*
X24300000Y52500000D02*
X24400000Y52400000D01*
X20500000Y53000000D02*
X20600000Y52900000D01*
X29600000Y49100000D02*
X30300000Y49100000D01*
X29400000Y49300000D02*
X29500000Y49200000D01*
X22400000Y52600000D02*
X22700000Y52600000D01*
X29200000Y49500000D02*
X29300000Y49400000D01*
X21100000Y52800000D02*
X21700000Y52800000D01*
X24400000Y52400000D02*
X27400000Y51300000D01*
X36200000Y46600000D02*
X38400000Y46600000D01*
X29500000Y49200000D02*
X29600000Y49100000D01*
X22300000Y52700000D02*
X22400000Y52600000D01*
%TO.N,PGOOD_N*%
X10700000Y56900000D02*
X10600000Y56800000D01*
X16300000Y59200000D02*
X13100000Y57600000D01*
X10800000Y57000000D02*
X10700000Y56900000D01*
X13100000Y57600000D02*
X10900000Y57100000D01*
X9900000Y56900000D02*
X9800000Y57000000D01*
X10000000Y56800000D02*
X9900000Y56900000D01*
X10600000Y56800000D02*
X10000000Y56800000D01*
X9800000Y57000000D02*
X9700000Y57100000D01*
X9700000Y57100000D02*
X9700000Y61000000D01*
X10900000Y57100000D02*
X10800000Y57000000D01*
X9700000Y61000000D02*
X9800000Y61100000D01*
%TO.N,PPS*%
X26700000Y50550000D02*
X26700000Y50300000D01*
X14100000Y50300000D02*
X26700000Y50300000D01*
%TO.N,TS*%
X27600000Y61800000D02*
X29500000Y59500000D01*
X20400000Y58800000D02*
X20500000Y58700000D01*
X18200000Y58500000D02*
X18300000Y58500000D01*
X21000000Y58200000D02*
X21100000Y58100000D01*
X18100000Y58400000D02*
X18200000Y58500000D01*
X21400000Y57800000D02*
X21500000Y57700000D01*
X18300000Y58500000D02*
X18400000Y58600000D01*
X21100000Y58100000D02*
X21200000Y58000000D01*
X20300000Y58900000D02*
X20400000Y58800000D01*
X14800000Y57200000D02*
X17900000Y58200000D01*
X21200000Y58000000D02*
X21300000Y57900000D01*
X18000000Y58300000D02*
X18100000Y58400000D01*
X29600000Y59400000D02*
X29800000Y59300000D01*
X29500000Y59500000D02*
X29600000Y59400000D01*
X18400000Y58600000D02*
X19600000Y58900000D01*
X20800000Y58400000D02*
X20900000Y58300000D01*
X29800000Y59300000D02*
X32900000Y59200000D01*
X20600000Y58600000D02*
X20700000Y58500000D01*
X21500000Y57500000D02*
X22400000Y56600000D01*
X19600000Y58900000D02*
X20300000Y58900000D01*
X21500000Y57700000D02*
X21500000Y57500000D01*
X20500000Y58700000D02*
X20600000Y58600000D01*
X17900000Y58200000D02*
X18000000Y58300000D01*
X20900000Y58300000D02*
X21000000Y58200000D01*
X20700000Y58500000D02*
X20800000Y58400000D01*
X21300000Y57900000D02*
X21400000Y57800000D01*
%TO.N,U0RXD*%
X32880699Y62646300D02*
X30346300Y62646300D01*
X30346300Y62646300D02*
X30100000Y62400000D01*
%TO.N,U0TXD*%
X31200000Y60200000D02*
X30600000Y60200000D01*
%TO.N,USB_DN*%
X22500000Y53100000D02*
X22400000Y53200000D01*
X20500000Y53600000D02*
X17000000Y53800000D01*
X21200000Y53300000D02*
X21100000Y53400000D01*
X17000000Y53800000D02*
X16900000Y53700000D01*
X18800000Y50900000D02*
X17200000Y51100000D01*
X21900000Y53200000D02*
X21800000Y53300000D01*
X22400000Y53200000D02*
X21900000Y53200000D01*
X21800000Y53300000D02*
X21200000Y53300000D01*
X20700000Y53400000D02*
X20600000Y53500000D01*
X24700000Y53000000D02*
X22900000Y53100000D01*
X22900000Y53100000D02*
X22500000Y53100000D01*
X21100000Y53400000D02*
X20700000Y53400000D01*
X20600000Y53500000D02*
X20500000Y53600000D01*
%TO.N,USB_DN_C*%
X12100000Y53700000D02*
X13300000Y54300000D01*
%TO.N,USB_DP*%
X24300000Y49700000D02*
X21200000Y49700000D01*
X17700000Y47100000D02*
X16700000Y48000000D01*
%TO.N,VBAT*%
D19*
X15000000Y63900000D02*
X15100000Y64000000D01*
D18*
X14100000Y62600000D02*
X13500000Y62600000D01*
D19*
X15200000Y64100000D02*
X16200000Y64800000D01*
X32600000Y66500000D02*
X34800000Y66500000D01*
X18900000Y65800000D02*
X19000000Y65900000D01*
X17600000Y64900000D02*
X17700000Y65000000D01*
X18600000Y65500000D02*
X18700000Y65600000D01*
X18800000Y65700000D02*
X18900000Y65800000D01*
X16200000Y64800000D02*
X17300000Y64800000D01*
X40100000Y63900000D02*
X40100000Y62500000D01*
X17700000Y65000000D02*
X17900000Y65000000D01*
X19100000Y66000000D02*
X19200000Y66000000D01*
X18300000Y65300000D02*
X18400000Y65400000D01*
X17300000Y64800000D02*
X17400000Y64900000D01*
X18200000Y65200000D02*
X18300000Y65300000D01*
X14800000Y63700000D02*
X14900000Y63800001D01*
X18700000Y65600000D02*
X18800000Y65700000D01*
X18000000Y65100000D02*
X18100000Y65100000D01*
X14900000Y63800001D02*
X15000000Y63900000D01*
X34800000Y66500000D02*
X35400000Y65900000D01*
X18400000Y65400000D02*
X18500000Y65500000D01*
X17400000Y64900000D02*
X17600000Y64900000D01*
D18*
X14800000Y63300000D02*
X14100000Y62600000D01*
D19*
X19000000Y65900000D02*
X19100000Y66000000D01*
X18100000Y65100000D02*
X18200000Y65200000D01*
D18*
X12600000Y62300000D02*
X10900000Y62300000D01*
D19*
X15100000Y64000000D02*
X15200000Y64100000D01*
X19300000Y66100000D02*
X32600000Y66500000D01*
X17900000Y65000000D02*
X18000000Y65100000D01*
X18500000Y65500000D02*
X18600000Y65500000D01*
X19200000Y66000000D02*
X19300000Y66100000D01*
X14800000Y63300000D02*
X14800000Y63700000D01*
%TO.N,VBAT_SENSE*%
D20*
X16100000Y62100000D02*
X16000000Y62200000D01*
X16000000Y62200000D02*
X15900000Y62300000D01*
X17200000Y61400000D02*
X16200000Y61800000D01*
X14600000Y62400000D02*
X14500000Y62300000D01*
X14800000Y62600000D02*
X14700000Y62500000D01*
X10400000Y61700000D02*
X10200000Y61900000D01*
X14700000Y62500000D02*
X14600000Y62400000D01*
X15700000Y62500000D02*
X15600000Y62600000D01*
X14400000Y62200000D02*
X14300000Y62100000D01*
X15800000Y62400000D02*
X15700000Y62500000D01*
X12800000Y61500000D02*
X10400000Y61700000D01*
X15900000Y62300000D02*
X15800000Y62400000D01*
X14300000Y62100000D02*
X12800000Y61500000D01*
X16200000Y61900000D02*
X16200000Y62000000D01*
X15600000Y62600000D02*
X14800000Y62600000D01*
X14500000Y62300000D02*
X14400000Y62200000D01*
X16200000Y61800000D02*
X16200000Y61900000D01*
X16200000Y62000000D02*
X16100000Y62100000D01*
%TO.N,VBCKP_SRC*%
X23000000Y46400000D02*
X22900000Y46400000D01*
X23200000Y46300000D02*
X23100000Y46300000D01*
X29100000Y46000000D02*
X23700000Y46000000D01*
X38400000Y49700000D02*
X33100000Y49700000D01*
X23100000Y46300000D02*
X23000000Y46400000D01*
X22800000Y46500000D02*
X21200000Y46600000D01*
X23700000Y46000000D02*
X23200000Y46300000D01*
X22900000Y46400000D02*
X22800000Y46500000D01*
%TO.N,VBUS*%
D19*
X9100000Y48800000D02*
X9900000Y49600000D01*
X10500000Y54400000D02*
X10500000Y54700000D01*
X9900000Y53800000D02*
X10500000Y54400000D01*
X9900000Y49600000D02*
X9900000Y53800000D01*
%TO.N,VSYS*%
D18*
X29800000Y57100000D02*
X31700000Y57100000D01*
X13900000Y60300000D02*
X11400000Y60300000D01*
X33500000Y58900000D02*
X35100000Y61000000D01*
X31700000Y57100000D02*
X33200000Y58600000D01*
X10900000Y60800000D02*
X12500000Y60900000D01*
X28300000Y59300000D02*
X29300000Y57500000D01*
X18800000Y60800000D02*
X21000000Y61600000D01*
X16800000Y60400000D02*
X13900000Y60300000D01*
X33200000Y58600000D02*
X33299999Y58700000D01*
X26100000Y61500000D02*
X28300000Y59300000D01*
X29300000Y57500000D02*
X29600000Y57200000D01*
X33400000Y58800000D02*
X33500000Y58900000D01*
X29600000Y57200000D02*
X29800000Y57100000D01*
X11400000Y60300000D02*
X10900000Y60800000D01*
X18800000Y60800000D02*
X16800000Y60400000D01*
X9100000Y60500000D02*
X8800000Y60400000D01*
X33299999Y58700000D02*
X33400000Y58800000D01*
X35400000Y61300000D02*
X35800000Y62800000D01*
X21000000Y61600000D02*
X26100000Y61500000D01*
X9100000Y61600000D02*
X8800000Y61900000D01*
X35300000Y61200000D02*
X35400000Y61300000D01*
D19*
X8400000Y62600000D02*
X9300000Y64300000D01*
D18*
X35200000Y61100000D02*
X35300000Y61200000D01*
X43800000Y48700000D02*
X43800000Y45900000D01*
X35100000Y61000000D02*
X35200000Y61100000D01*
X8800000Y60400000D02*
X8300000Y59900000D01*
%TD*%
%TA.AperFunction,Conductor*%
%TO.N,GND*%
G36*
X22724085Y66881094D02*
G01*
X22760049Y66831594D01*
X22760049Y66770408D01*
X22724085Y66720908D01*
X22668870Y66702047D01*
X19703626Y66612866D01*
X19293971Y66600545D01*
X19290995Y66600500D01*
X19234107Y66600500D01*
X19234104Y66600500D01*
X19227674Y66599653D01*
X19227628Y66599999D01*
X19225443Y66599678D01*
X19225499Y66599334D01*
X19219095Y66598294D01*
X19164606Y66581925D01*
X19161749Y66581113D01*
X19106812Y66566392D01*
X19100822Y66563910D01*
X19100689Y66564231D01*
X19098655Y66563353D01*
X19098798Y66563036D01*
X19092879Y66560374D01*
X19044506Y66530472D01*
X19041955Y66528948D01*
X18992685Y66500501D01*
X18987544Y66496555D01*
X18986222Y66498278D01*
X18951905Y66478475D01*
X18906812Y66466392D01*
X18906810Y66466391D01*
X18792690Y66400504D01*
X18792684Y66400500D01*
X18792685Y66400499D01*
X18492685Y66100499D01*
X18492684Y66100499D01*
X18396281Y66004097D01*
X18351904Y65978475D01*
X18306811Y65966392D01*
X18306810Y65966391D01*
X18192690Y65900504D01*
X18192684Y65900500D01*
X18192685Y65900499D01*
X17992685Y65700499D01*
X17992684Y65700499D01*
X17896280Y65604096D01*
X17851901Y65578474D01*
X17829021Y65572343D01*
X17806814Y65566393D01*
X17762941Y65541062D01*
X17715658Y65513764D01*
X17666160Y65500500D01*
X17634107Y65500500D01*
X17506814Y65466392D01*
X17506813Y65466392D01*
X17506811Y65466391D01*
X17458750Y65438643D01*
X17415658Y65413764D01*
X17366160Y65400500D01*
X17334107Y65400500D01*
X17240806Y65375500D01*
X17240805Y65375501D01*
X17206814Y65366393D01*
X17161628Y65340304D01*
X17115658Y65313764D01*
X17066160Y65300500D01*
X16252497Y65300500D01*
X16235294Y65302006D01*
X16229153Y65303090D01*
X16222090Y65304336D01*
X16222089Y65304336D01*
X16222087Y65304337D01*
X16184069Y65301015D01*
X16182479Y65300876D01*
X16173865Y65300500D01*
X16134106Y65300500D01*
X16121158Y65297031D01*
X16104162Y65294036D01*
X16090811Y65292870D01*
X16090800Y65292867D01*
X16053432Y65279273D01*
X16045214Y65276682D01*
X16006815Y65266393D01*
X16006805Y65266388D01*
X15995199Y65259688D01*
X15979559Y65252396D01*
X15966964Y65247813D01*
X15934388Y65225011D01*
X15927120Y65220381D01*
X15892684Y65200499D01*
X15883208Y65191023D01*
X15869980Y65179925D01*
X15349795Y64815796D01*
X15291280Y64797915D01*
X15233431Y64817843D01*
X15198344Y64867968D01*
X15197396Y64922525D01*
X15200500Y64934108D01*
X15200500Y65065892D01*
X15166392Y65193186D01*
X15166390Y65193189D01*
X15166390Y65193191D01*
X15100503Y65307310D01*
X15100501Y65307312D01*
X15100500Y65307314D01*
X15007314Y65400500D01*
X15007311Y65400502D01*
X15007309Y65400504D01*
X14893189Y65466391D01*
X14893191Y65466391D01*
X14843799Y65479625D01*
X14765892Y65500500D01*
X14634108Y65500500D01*
X14506814Y65466392D01*
X14506813Y65466392D01*
X14506811Y65466391D01*
X14446717Y65431696D01*
X14386868Y65418975D01*
X14358220Y65426438D01*
X14345951Y65431696D01*
X14278961Y65460406D01*
X14184800Y65500761D01*
X14138762Y65541062D01*
X14138062Y65542255D01*
X14108943Y65592690D01*
X14100500Y65607314D01*
X14007314Y65700500D01*
X14007311Y65700502D01*
X14007309Y65700504D01*
X13893189Y65766391D01*
X13893191Y65766391D01*
X13843799Y65779625D01*
X13765892Y65800500D01*
X13634108Y65800500D01*
X13556200Y65779625D01*
X13506809Y65766391D01*
X13392690Y65700504D01*
X13299496Y65607310D01*
X13233609Y65493190D01*
X13233607Y65493186D01*
X13224824Y65460406D01*
X13191500Y65409092D01*
X13134378Y65387166D01*
X13103576Y65390403D01*
X13083629Y65395748D01*
X13065892Y65400500D01*
X12934108Y65400500D01*
X12856200Y65379625D01*
X12806809Y65366391D01*
X12692690Y65300504D01*
X12599496Y65207310D01*
X12533609Y65093191D01*
X12526294Y65065891D01*
X12499500Y64965892D01*
X12499500Y64834108D01*
X12533565Y64706972D01*
X12530636Y64646589D01*
X12106002Y63514235D01*
X12083310Y63478993D01*
X12019525Y63415208D01*
X12015581Y63410066D01*
X12014681Y63410757D01*
X11989242Y63385320D01*
X11989934Y63384418D01*
X11984793Y63380474D01*
X11919529Y63315210D01*
X11912392Y63302849D01*
X11910750Y63300002D01*
X11910749Y63300001D01*
X11865280Y63259060D01*
X11825012Y63250500D01*
X11690459Y63250500D01*
X11632268Y63269407D01*
X11604722Y63300001D01*
X11600500Y63307314D01*
X11507314Y63400500D01*
X11507311Y63400502D01*
X11507309Y63400504D01*
X11393189Y63466391D01*
X11393191Y63466391D01*
X11341288Y63480298D01*
X11265892Y63500500D01*
X11134108Y63500500D01*
X11058712Y63480298D01*
X11006809Y63466391D01*
X10892690Y63400504D01*
X10799496Y63307310D01*
X10733609Y63193191D01*
X10718502Y63136810D01*
X10699500Y63065892D01*
X10699500Y62934108D01*
X10707698Y62903512D01*
X10719737Y62858581D01*
X10716534Y62797480D01*
X10678029Y62749930D01*
X10673611Y62747223D01*
X10592688Y62700502D01*
X10499496Y62607310D01*
X10433609Y62493190D01*
X10433607Y62493186D01*
X10424824Y62460406D01*
X10391500Y62409092D01*
X10334378Y62387166D01*
X10303576Y62390403D01*
X10283629Y62395748D01*
X10265892Y62400500D01*
X10134108Y62400500D01*
X10065453Y62382104D01*
X10006809Y62366391D01*
X9892690Y62300504D01*
X9799496Y62207310D01*
X9733609Y62093191D01*
X9726428Y62066391D01*
X9702161Y61975821D01*
X9699500Y61965891D01*
X9699500Y61932110D01*
X9680593Y61873919D01*
X9631093Y61837955D01*
X9569907Y61837955D01*
X9520407Y61873919D01*
X9514764Y61882609D01*
X9500501Y61907312D01*
X9500500Y61907314D01*
X9407314Y62000500D01*
X9407311Y62000502D01*
X9407309Y62000504D01*
X9293189Y62066391D01*
X9293190Y62066391D01*
X9227001Y62084126D01*
X9223693Y62085013D01*
X9172379Y62118336D01*
X9151523Y62169162D01*
X9151449Y62169147D01*
X9151373Y62169528D01*
X9150793Y62170942D01*
X9150500Y62173917D01*
X9147214Y62190436D01*
X9121658Y62318913D01*
X9065084Y62455495D01*
X9000109Y62552737D01*
X8983501Y62611623D01*
X8994929Y62654056D01*
X9737205Y64056132D01*
X9738919Y64059232D01*
X9766392Y64106814D01*
X9766392Y64106818D01*
X9766395Y64106821D01*
X9768878Y64112815D01*
X9768962Y64112780D01*
X9770991Y64117944D01*
X9770904Y64117976D01*
X9773161Y64124047D01*
X9773166Y64124056D01*
X9785429Y64177618D01*
X9786284Y64181057D01*
X9800500Y64234108D01*
X9800500Y64234111D01*
X9801347Y64240541D01*
X9801437Y64240530D01*
X9802060Y64246043D01*
X9801970Y64246051D01*
X9802578Y64252506D01*
X9802581Y64252516D01*
X9800567Y64307363D01*
X9800500Y64310996D01*
X9800500Y64365890D01*
X9799653Y64372323D01*
X9799743Y64372335D01*
X9798917Y64377828D01*
X9798828Y64377812D01*
X9797745Y64384207D01*
X9797745Y64384211D01*
X9781600Y64436681D01*
X9780602Y64440150D01*
X9776366Y64455961D01*
X9766392Y64493186D01*
X9766389Y64493192D01*
X9763908Y64499181D01*
X9763991Y64499216D01*
X9761772Y64504308D01*
X9761690Y64504270D01*
X9758990Y64510167D01*
X9729819Y64556665D01*
X9727962Y64559748D01*
X9700500Y64607314D01*
X9700499Y64607315D01*
X9696551Y64612460D01*
X9696622Y64612515D01*
X9693161Y64616860D01*
X9693091Y64616801D01*
X9688957Y64621797D01*
X9688954Y64621802D01*
X9648763Y64659146D01*
X9646148Y64661667D01*
X9607318Y64700496D01*
X9607314Y64700500D01*
X9607309Y64700503D01*
X9602165Y64704450D01*
X9602220Y64704523D01*
X9597757Y64707820D01*
X9597704Y64707744D01*
X9592416Y64711501D01*
X9592412Y64711505D01*
X9543878Y64737201D01*
X9540774Y64738918D01*
X9493186Y64766392D01*
X9493181Y64766395D01*
X9487193Y64768875D01*
X9487226Y64768957D01*
X9482056Y64770989D01*
X9482025Y64770905D01*
X9475944Y64773166D01*
X9422436Y64785419D01*
X9418914Y64786294D01*
X9365893Y64800500D01*
X9359457Y64801347D01*
X9359468Y64801438D01*
X9353956Y64802061D01*
X9353948Y64801970D01*
X9347485Y64802581D01*
X9347483Y64802581D01*
X9347480Y64802581D01*
X9347479Y64802581D01*
X9292638Y64800567D01*
X9289005Y64800500D01*
X9234104Y64800500D01*
X9227674Y64799654D01*
X9227662Y64799741D01*
X9222165Y64798914D01*
X9222180Y64798827D01*
X9215790Y64797746D01*
X9163311Y64781600D01*
X9159824Y64780597D01*
X9106815Y64766393D01*
X9100820Y64763909D01*
X9100785Y64763992D01*
X9095698Y64761774D01*
X9095735Y64761693D01*
X9089833Y64758991D01*
X9043361Y64729837D01*
X9040255Y64727967D01*
X8992688Y64700502D01*
X8987541Y64696552D01*
X8987486Y64696623D01*
X8983134Y64693154D01*
X8983191Y64693085D01*
X8978196Y64688953D01*
X8940835Y64648745D01*
X8938316Y64646132D01*
X8899497Y64607313D01*
X8895552Y64602170D01*
X8895482Y64602224D01*
X8892179Y64597751D01*
X8892251Y64597700D01*
X8888493Y64592412D01*
X8862815Y64543912D01*
X8861060Y64540739D01*
X8833609Y64493190D01*
X8831125Y64487191D01*
X8831041Y64487226D01*
X8825960Y64474293D01*
X7926833Y62775943D01*
X7926833Y62775942D01*
X7907132Y62689907D01*
X7880635Y62642003D01*
X7817046Y62578413D01*
X7734914Y62455493D01*
X7678342Y62318915D01*
X7649500Y62173919D01*
X7649500Y62026082D01*
X7678342Y61881086D01*
X7734915Y61744507D01*
X7734916Y61744505D01*
X7817049Y61621584D01*
X7921584Y61517049D01*
X8044505Y61434916D01*
X8181087Y61378342D01*
X8326082Y61349500D01*
X8326083Y61349500D01*
X8473917Y61349500D01*
X8473918Y61349500D01*
X8577261Y61370057D01*
X8638020Y61362866D01*
X8682309Y61322461D01*
X8699500Y61292686D01*
X8792686Y61199500D01*
X8792688Y61199499D01*
X8792690Y61199497D01*
X8903126Y61135736D01*
X8944067Y61090267D01*
X8950463Y61029416D01*
X8919870Y60976428D01*
X8903126Y60964264D01*
X8792690Y60900504D01*
X8792685Y60900500D01*
X8699502Y60807317D01*
X8699500Y60807315D01*
X8699500Y60807314D01*
X8691054Y60792686D01*
X8686111Y60784124D01*
X8640640Y60743184D01*
X8635858Y60741328D01*
X8634352Y60740596D01*
X8604970Y60721197D01*
X8599930Y60718082D01*
X8569436Y60700475D01*
X8569434Y60700474D01*
X8568449Y60699488D01*
X8553013Y60686890D01*
X8551850Y60686123D01*
X8551847Y60686120D01*
X8528487Y60659778D01*
X8524422Y60655462D01*
X8387375Y60518413D01*
X8335355Y60466392D01*
X8298460Y60429497D01*
X8243944Y60401719D01*
X8240528Y60401451D01*
X8240542Y60401347D01*
X8234110Y60400501D01*
X8106809Y60366391D01*
X7992690Y60300504D01*
X7899496Y60207310D01*
X7833609Y60093191D01*
X7818392Y60036397D01*
X7799500Y59965892D01*
X7799500Y59834108D01*
X7820833Y59754493D01*
X7833609Y59706810D01*
X7899496Y59592691D01*
X7899498Y59592689D01*
X7899500Y59592686D01*
X7992686Y59499500D01*
X7992688Y59499499D01*
X7992690Y59499497D01*
X8106810Y59433610D01*
X8106808Y59433610D01*
X8106812Y59433609D01*
X8106814Y59433608D01*
X8234108Y59399500D01*
X8234110Y59399500D01*
X8365890Y59399500D01*
X8365892Y59399500D01*
X8493186Y59433608D01*
X8493188Y59433610D01*
X8493190Y59433610D01*
X8607309Y59499497D01*
X8607309Y59499498D01*
X8607314Y59499500D01*
X8700500Y59592686D01*
X8705011Y59600499D01*
X8766390Y59706810D01*
X8766390Y59706812D01*
X8766392Y59706814D01*
X8800500Y59834108D01*
X8800500Y59834111D01*
X8801347Y59840542D01*
X8804300Y59840154D01*
X8819407Y59886646D01*
X8829496Y59898458D01*
X8912007Y59980970D01*
X8966523Y60008748D01*
X9007632Y60006595D01*
X9034108Y59999500D01*
X9034110Y59999500D01*
X9165891Y59999500D01*
X9165892Y59999500D01*
X9224877Y60015305D01*
X9285978Y60012104D01*
X9333528Y59973599D01*
X9349500Y59919679D01*
X9349500Y57053856D01*
X9359862Y57015185D01*
X9371062Y56973386D01*
X9371062Y56973385D01*
X9372382Y56968457D01*
X9373386Y56964712D01*
X9419530Y56884788D01*
X9419531Y56884787D01*
X9419533Y56884784D01*
X9513884Y56790435D01*
X9513887Y56790431D01*
X9519529Y56784789D01*
X9519530Y56784788D01*
X9569338Y56734980D01*
X9613884Y56690435D01*
X9613887Y56690431D01*
X9719530Y56584789D01*
X9719531Y56584787D01*
X9784787Y56519532D01*
X9784789Y56519530D01*
X9827784Y56494707D01*
X9864712Y56473386D01*
X9953856Y56449500D01*
X9953858Y56449500D01*
X10646142Y56449500D01*
X10646144Y56449500D01*
X10735288Y56473386D01*
X10741866Y56477184D01*
X10747561Y56480471D01*
X10815207Y56519527D01*
X10815207Y56519528D01*
X10815212Y56519530D01*
X10901285Y56605606D01*
X10901290Y56605608D01*
X10915212Y56619530D01*
X11001285Y56705606D01*
X11001290Y56705608D01*
X11024002Y56728320D01*
X11056110Y56760430D01*
X11104173Y56786965D01*
X13173070Y57257169D01*
X13174924Y57257570D01*
X13215476Y57265867D01*
X13215484Y57265872D01*
X13218266Y57266832D01*
X13218570Y57266919D01*
X13219613Y57267292D01*
X13219895Y57267414D01*
X13222670Y57268441D01*
X13222675Y57268442D01*
X13241449Y57278343D01*
X13259223Y57287716D01*
X13261092Y57288677D01*
X16101951Y58709106D01*
X16162452Y58718218D01*
X16171820Y58716190D01*
X16234108Y58699500D01*
X16234111Y58699500D01*
X16365890Y58699500D01*
X16365892Y58699500D01*
X16493186Y58733608D01*
X16493188Y58733610D01*
X16493190Y58733610D01*
X16607309Y58799497D01*
X16607309Y58799498D01*
X16607314Y58799500D01*
X16700500Y58892686D01*
X16719473Y58925548D01*
X16766390Y59006810D01*
X16766390Y59006812D01*
X16766392Y59006814D01*
X16800500Y59134108D01*
X16800500Y59265892D01*
X16766392Y59393186D01*
X16766390Y59393190D01*
X16766390Y59393191D01*
X16700503Y59507310D01*
X16700501Y59507312D01*
X16700500Y59507314D01*
X16607314Y59600500D01*
X16607311Y59600502D01*
X16607309Y59600504D01*
X16493189Y59666391D01*
X16493191Y59666391D01*
X16428378Y59683757D01*
X16365892Y59700500D01*
X16234108Y59700500D01*
X16171622Y59683757D01*
X16106809Y59666391D01*
X15992690Y59600504D01*
X15899496Y59507310D01*
X15833609Y59393190D01*
X15831125Y59387192D01*
X15829067Y59388045D01*
X15801113Y59345021D01*
X15783102Y59333424D01*
X12991764Y57937755D01*
X12969430Y57929765D01*
X10900748Y57459610D01*
X10839815Y57465151D01*
X10793775Y57505449D01*
X10783182Y57530523D01*
X10766392Y57593186D01*
X10742765Y57634108D01*
X10719013Y57675248D01*
X10706291Y57735097D01*
X10706900Y57739803D01*
X10985479Y59550564D01*
X11013015Y59605201D01*
X11100500Y59692686D01*
X11105012Y59700500D01*
X11155471Y59787898D01*
X11166392Y59806814D01*
X11182528Y59867036D01*
X11215849Y59918346D01*
X11272970Y59940274D01*
X11303773Y59937038D01*
X11350564Y59924500D01*
X11350565Y59924500D01*
X13845832Y59924500D01*
X13857038Y59923221D01*
X13857079Y59923644D01*
X13863532Y59923020D01*
X13863535Y59923019D01*
X13863537Y59923020D01*
X13863539Y59923019D01*
X13896525Y59924157D01*
X13904774Y59924442D01*
X13908185Y59924500D01*
X13949437Y59924500D01*
X13955868Y59925347D01*
X13955923Y59924925D01*
X13967071Y59926590D01*
X16789490Y60023915D01*
X16799235Y60023770D01*
X16825167Y60022097D01*
X16835656Y60024195D01*
X16851661Y60026059D01*
X16862347Y60026427D01*
X16887183Y60034009D01*
X16896661Y60036397D01*
X18847927Y60426650D01*
X18858737Y60428198D01*
X18881866Y60430214D01*
X18894502Y60434810D01*
X18908919Y60438848D01*
X18922117Y60441487D01*
X18942936Y60451782D01*
X18952952Y60456065D01*
X19038655Y60487230D01*
X19099800Y60489346D01*
X19150515Y60455116D01*
X19171425Y60397615D01*
X19169582Y60374875D01*
X19149500Y60273921D01*
X19149500Y60126082D01*
X19178342Y59981086D01*
X19219038Y59882837D01*
X19234916Y59844505D01*
X19317049Y59721584D01*
X19421584Y59617049D01*
X19544505Y59534916D01*
X19681087Y59478342D01*
X19826082Y59449500D01*
X19913810Y59449500D01*
X19972001Y59430593D01*
X19983814Y59420504D01*
X19984814Y59419504D01*
X20012591Y59364987D01*
X20003020Y59304555D01*
X19959755Y59261290D01*
X19914810Y59250500D01*
X19603788Y59250500D01*
X19602122Y59250514D01*
X19559758Y59251227D01*
X19559027Y59251143D01*
X19558513Y59251114D01*
X19557649Y59251000D01*
X19556028Y59250800D01*
X19555097Y59250694D01*
X19554584Y59250596D01*
X19553854Y59250500D01*
X19512958Y59239543D01*
X19511349Y59239126D01*
X18365661Y58952703D01*
X18354587Y58950596D01*
X18353868Y58950502D01*
X18353857Y58950499D01*
X18353856Y58950499D01*
X18312911Y58939530D01*
X18311385Y58939134D01*
X18270219Y58928842D01*
X18269541Y58928574D01*
X18269061Y58928416D01*
X18268191Y58928055D01*
X18266665Y58927438D01*
X18265851Y58927118D01*
X18265404Y58926901D01*
X18264715Y58926616D01*
X18228015Y58905428D01*
X18226569Y58904610D01*
X18189530Y58884048D01*
X18188918Y58883594D01*
X18188507Y58883324D01*
X18187845Y58882816D01*
X18186550Y58881840D01*
X18185780Y58881270D01*
X18185380Y58880925D01*
X18184792Y58880474D01*
X18173923Y58869606D01*
X18129549Y58843988D01*
X18078719Y58830368D01*
X18065380Y58826793D01*
X18065373Y58826791D01*
X18064715Y58826615D01*
X18064714Y58826615D01*
X18064712Y58826614D01*
X18036877Y58810543D01*
X17984787Y58780469D01*
X17819530Y58615212D01*
X17819526Y58615210D01*
X17728820Y58524504D01*
X17689210Y58500289D01*
X15074783Y57656926D01*
X15013598Y57657055D01*
X14994895Y57665406D01*
X14993190Y57666390D01*
X14993188Y57666391D01*
X14993187Y57666392D01*
X14993186Y57666392D01*
X14865892Y57700500D01*
X14734108Y57700500D01*
X14656200Y57679625D01*
X14606809Y57666391D01*
X14492690Y57600504D01*
X14399496Y57507310D01*
X14333609Y57393191D01*
X14323394Y57355068D01*
X14299500Y57265892D01*
X14299500Y57134108D01*
X14328200Y57026998D01*
X14333609Y57006810D01*
X14399496Y56892691D01*
X14399498Y56892689D01*
X14399500Y56892686D01*
X14492686Y56799500D01*
X14573611Y56752778D01*
X14614551Y56707309D01*
X14620947Y56646459D01*
X14619737Y56641420D01*
X14601508Y56573386D01*
X14599500Y56565892D01*
X14599500Y56434108D01*
X14633608Y56306814D01*
X14633608Y56306813D01*
X14635288Y56300546D01*
X14632271Y56299738D01*
X14635985Y56251380D01*
X14632804Y56240841D01*
X14384061Y55556796D01*
X14376761Y55541135D01*
X14373390Y55535296D01*
X14373388Y55535293D01*
X14373386Y55535288D01*
X14370993Y55526356D01*
X14366505Y55509609D01*
X14363920Y55501406D01*
X14354830Y55476409D01*
X14353708Y55471337D01*
X14327058Y55422742D01*
X14319534Y55415217D01*
X14319530Y55415212D01*
X14319529Y55415211D01*
X14219530Y55315212D01*
X14219529Y55315211D01*
X14119530Y55215212D01*
X14119529Y55215211D01*
X14019530Y55115212D01*
X14019529Y55115211D01*
X13919530Y55015212D01*
X13919529Y55015211D01*
X13919528Y55015212D01*
X13819529Y54915212D01*
X13783319Y54852493D01*
X13783319Y54852492D01*
X13781592Y54849501D01*
X13773386Y54835289D01*
X13756014Y54770454D01*
X13730391Y54726073D01*
X13722845Y54718527D01*
X13668328Y54690750D01*
X13607896Y54700321D01*
X13603341Y54702794D01*
X13493187Y54766392D01*
X13450754Y54777762D01*
X13365892Y54800500D01*
X13234108Y54800500D01*
X13156200Y54779625D01*
X13106809Y54766391D01*
X12992693Y54700505D01*
X12992689Y54700503D01*
X12899496Y54607310D01*
X12833609Y54493190D01*
X12831125Y54487192D01*
X12829067Y54488045D01*
X12801113Y54445021D01*
X12783102Y54433424D01*
X12298048Y54190897D01*
X12237545Y54181784D01*
X12228152Y54183818D01*
X12211327Y54188326D01*
X12165892Y54200500D01*
X12034108Y54200500D01*
X11964258Y54181784D01*
X11906809Y54166391D01*
X11792690Y54100504D01*
X11699496Y54007310D01*
X11633609Y53893191D01*
X11626052Y53864988D01*
X11599500Y53765892D01*
X11599500Y53634108D01*
X11622930Y53546664D01*
X11633609Y53506810D01*
X11699496Y53392691D01*
X11699498Y53392689D01*
X11699500Y53392686D01*
X11792686Y53299500D01*
X11792688Y53299499D01*
X11792690Y53299497D01*
X11906810Y53233610D01*
X11906808Y53233610D01*
X11906812Y53233609D01*
X11906814Y53233608D01*
X12034108Y53199500D01*
X12034110Y53199500D01*
X12165890Y53199500D01*
X12165892Y53199500D01*
X12293186Y53233608D01*
X12293188Y53233610D01*
X12293190Y53233610D01*
X12407309Y53299497D01*
X12407309Y53299498D01*
X12407314Y53299500D01*
X12500500Y53392686D01*
X12566392Y53506814D01*
X12566393Y53506819D01*
X12568877Y53512813D01*
X12570941Y53511958D01*
X12598857Y53554959D01*
X12616894Y53566577D01*
X12979235Y53747747D01*
X13039738Y53756860D01*
X13094042Y53728669D01*
X13121405Y53673943D01*
X13111375Y53613586D01*
X13093513Y53589195D01*
X13019530Y53515212D01*
X13019529Y53515211D01*
X12919530Y53415212D01*
X12919529Y53415211D01*
X12819530Y53315212D01*
X12819529Y53315211D01*
X12719530Y53215212D01*
X12719529Y53215211D01*
X12619530Y53115212D01*
X12619529Y53115211D01*
X12519530Y53015212D01*
X12519529Y53015211D01*
X12419530Y52915212D01*
X12419529Y52915211D01*
X12319530Y52815212D01*
X12319529Y52815211D01*
X12219530Y52715212D01*
X12219529Y52715211D01*
X12119530Y52615212D01*
X12119529Y52615211D01*
X12019530Y52515212D01*
X12019529Y52515211D01*
X11919530Y52415212D01*
X11919529Y52415211D01*
X11819530Y52315212D01*
X11819529Y52315211D01*
X11719530Y52215212D01*
X11719529Y52215211D01*
X11719528Y52215212D01*
X11619532Y52115215D01*
X11619530Y52115213D01*
X11619530Y52115212D01*
X11582169Y52050500D01*
X11573386Y52035288D01*
X11556752Y51973209D01*
X11556014Y51970454D01*
X11530393Y51926076D01*
X11519531Y51915214D01*
X11495381Y51873387D01*
X11495382Y51873386D01*
X11473386Y51835290D01*
X11456014Y51770454D01*
X11430393Y51726076D01*
X11419532Y51715215D01*
X11419530Y51715213D01*
X11419530Y51715212D01*
X11384108Y51653857D01*
X11382170Y51650501D01*
X11382169Y51650500D01*
X11373709Y51635847D01*
X11373386Y51635288D01*
X11357192Y51574850D01*
X11356014Y51570454D01*
X11330393Y51526076D01*
X11319532Y51515215D01*
X11319530Y51515213D01*
X11319530Y51515212D01*
X11299568Y51480635D01*
X11282170Y51450501D01*
X11282169Y51450500D01*
X11273388Y51435292D01*
X11273383Y51435282D01*
X11256013Y51370454D01*
X11230394Y51326078D01*
X11219533Y51315216D01*
X11219530Y51315212D01*
X11219529Y51315211D01*
X11119530Y51215212D01*
X11119529Y51215211D01*
X11119528Y51215212D01*
X11019532Y51115215D01*
X11019530Y51115213D01*
X11019530Y51115212D01*
X10990374Y51064712D01*
X10973385Y51035286D01*
X10956012Y50970452D01*
X10930394Y50926078D01*
X10919534Y50915217D01*
X10919526Y50915207D01*
X10915054Y50907462D01*
X10905761Y50894057D01*
X10900075Y50887149D01*
X10900066Y50887135D01*
X10889962Y50864924D01*
X10885586Y50856421D01*
X10873388Y50835293D01*
X10873384Y50835284D01*
X10871070Y50826648D01*
X10865560Y50811285D01*
X10861855Y50803141D01*
X10861854Y50803138D01*
X10857840Y50779057D01*
X10855816Y50769717D01*
X10849501Y50746147D01*
X10849501Y50737209D01*
X10848154Y50720933D01*
X10560066Y48992413D01*
X10556333Y48977382D01*
X10477584Y48741135D01*
X10472212Y48728167D01*
X10423774Y48631292D01*
X10380839Y48587701D01*
X10374224Y48584572D01*
X9791542Y48334851D01*
X9778168Y48330220D01*
X9764715Y48326616D01*
X9764712Y48326615D01*
X9747883Y48316898D01*
X9737387Y48311642D01*
X9719518Y48303984D01*
X9719515Y48303982D01*
X9708563Y48295364D01*
X9696851Y48287435D01*
X9684787Y48280470D01*
X9671043Y48266727D01*
X9662271Y48258939D01*
X9646994Y48246917D01*
X9646992Y48246915D01*
X9638644Y48235756D01*
X9629382Y48225064D01*
X9619535Y48215217D01*
X9619527Y48215206D01*
X9609807Y48198374D01*
X9603352Y48188586D01*
X9591712Y48173025D01*
X9591707Y48173017D01*
X9586533Y48160082D01*
X9580355Y48147361D01*
X9573385Y48135288D01*
X9568351Y48116504D01*
X9567907Y48114900D01*
X9566518Y48110047D01*
X9557432Y48087329D01*
X9555583Y48071834D01*
X9555206Y48070514D01*
X9553107Y48059607D01*
X9549500Y48046143D01*
X9549500Y48026708D01*
X9549493Y48026689D01*
X9548803Y48014982D01*
X9546501Y47995692D01*
X9546581Y47989200D01*
X9544647Y47989177D01*
X9535756Y47937701D01*
X9518186Y47913869D01*
X9489136Y47884819D01*
X9481022Y47877553D01*
X9479013Y47875945D01*
X9450292Y47846006D01*
X9448858Y47844541D01*
X9419524Y47815207D01*
X9417949Y47813153D01*
X9417738Y47812908D01*
X9416831Y47811699D01*
X9416648Y47811419D01*
X9415124Y47809346D01*
X9395154Y47773037D01*
X9394148Y47771252D01*
X9373382Y47735281D01*
X9372393Y47732894D01*
X9367682Y47723089D01*
X8485432Y46118997D01*
X8440822Y46077121D01*
X8424312Y46071081D01*
X8406812Y46066392D01*
X8406810Y46066391D01*
X8292690Y46000504D01*
X8199496Y45907310D01*
X8133609Y45793191D01*
X8133608Y45793186D01*
X8099500Y45665892D01*
X8099500Y45534108D01*
X8105259Y45512615D01*
X8133609Y45406810D01*
X8199496Y45292691D01*
X8199498Y45292689D01*
X8199500Y45292686D01*
X8292686Y45199500D01*
X8292688Y45199499D01*
X8292690Y45199497D01*
X8406810Y45133610D01*
X8406808Y45133610D01*
X8406812Y45133609D01*
X8406814Y45133608D01*
X8534108Y45099500D01*
X8534110Y45099500D01*
X8665890Y45099500D01*
X8665892Y45099500D01*
X8793186Y45133608D01*
X8793188Y45133610D01*
X8793190Y45133610D01*
X8907309Y45199497D01*
X8907309Y45199498D01*
X8907314Y45199500D01*
X9000500Y45292686D01*
X9001494Y45294407D01*
X9066390Y45406810D01*
X9066390Y45406812D01*
X9066392Y45406814D01*
X9100500Y45534108D01*
X9100500Y45665892D01*
X9091495Y45699500D01*
X9089757Y45705985D01*
X9092960Y45767087D01*
X9098635Y45779311D01*
X9374776Y46281385D01*
X9419385Y46323259D01*
X9480089Y46330916D01*
X9533701Y46301430D01*
X9547256Y46283173D01*
X9599496Y46192691D01*
X9599498Y46192689D01*
X9599500Y46192686D01*
X9692686Y46099500D01*
X9692688Y46099499D01*
X9692690Y46099497D01*
X9806810Y46033610D01*
X9806808Y46033610D01*
X9806812Y46033609D01*
X9806814Y46033608D01*
X9934108Y45999500D01*
X9934110Y45999500D01*
X10065890Y45999500D01*
X10065892Y45999500D01*
X10193186Y46033608D01*
X10193188Y46033610D01*
X10193190Y46033610D01*
X10307309Y46099497D01*
X10307309Y46099498D01*
X10307314Y46099500D01*
X10307317Y46099504D01*
X10312460Y46103449D01*
X10314273Y46101087D01*
X10357834Y46123281D01*
X10373321Y46124500D01*
X11826679Y46124500D01*
X11884870Y46105593D01*
X11887476Y46103367D01*
X11887540Y46103449D01*
X11892690Y46099497D01*
X12006810Y46033610D01*
X12006808Y46033610D01*
X12006812Y46033609D01*
X12006814Y46033608D01*
X12134108Y45999500D01*
X12134110Y45999500D01*
X12265890Y45999500D01*
X12265892Y45999500D01*
X12393186Y46033608D01*
X12393188Y46033610D01*
X12393190Y46033610D01*
X12507309Y46099497D01*
X12507309Y46099498D01*
X12507314Y46099500D01*
X12600500Y46192686D01*
X12604434Y46199500D01*
X12666390Y46306810D01*
X12666390Y46306812D01*
X12666392Y46306814D01*
X12700500Y46434108D01*
X12700500Y46565892D01*
X12666392Y46693186D01*
X12666390Y46693189D01*
X12666390Y46693191D01*
X12600503Y46807310D01*
X12600501Y46807312D01*
X12600500Y46807314D01*
X12577815Y46829999D01*
X12550040Y46884513D01*
X12559611Y46944945D01*
X12577814Y46970001D01*
X12600500Y46992686D01*
X12601844Y46995014D01*
X12666390Y47106810D01*
X12666390Y47106812D01*
X12666392Y47106814D01*
X12700500Y47234108D01*
X12700500Y47365892D01*
X12666392Y47493186D01*
X12666390Y47493189D01*
X12666390Y47493191D01*
X12600503Y47607310D01*
X12600501Y47607312D01*
X12600500Y47607314D01*
X12507314Y47700500D01*
X12507311Y47700502D01*
X12507309Y47700504D01*
X12393189Y47766391D01*
X12393191Y47766391D01*
X12343799Y47779625D01*
X12265892Y47800500D01*
X12134108Y47800500D01*
X12056200Y47779625D01*
X12006809Y47766391D01*
X11892690Y47700504D01*
X11892689Y47700503D01*
X11892686Y47700501D01*
X11892686Y47700500D01*
X11871680Y47679495D01*
X11817166Y47651719D01*
X11801679Y47650500D01*
X10698321Y47650500D01*
X10695317Y47651477D01*
X10692260Y47650686D01*
X10666486Y47660844D01*
X10640130Y47669407D01*
X10638273Y47671963D01*
X10635336Y47673120D01*
X10628327Y47679487D01*
X10607314Y47700500D01*
X10558529Y47728667D01*
X10517589Y47774135D01*
X10511193Y47834985D01*
X10541786Y47887973D01*
X10569027Y47905395D01*
X10708465Y47965155D01*
X10721824Y47969780D01*
X10735288Y47973386D01*
X10752124Y47983107D01*
X10762613Y47988360D01*
X10780481Y47996017D01*
X10791432Y48004635D01*
X10803137Y48012560D01*
X10815212Y48019530D01*
X10828958Y48033277D01*
X10837732Y48041067D01*
X10853009Y48053087D01*
X10861351Y48064240D01*
X10870612Y48074932D01*
X10915659Y48119979D01*
X10931110Y48132586D01*
X10931630Y48132929D01*
X10953322Y48157394D01*
X10957359Y48161680D01*
X10980469Y48184788D01*
X10980776Y48185319D01*
X10992449Y48201514D01*
X10992861Y48201979D01*
X10992862Y48201981D01*
X11007469Y48231197D01*
X11010284Y48236430D01*
X11016339Y48246917D01*
X11026614Y48264712D01*
X11026774Y48265309D01*
X11033855Y48283970D01*
X11035588Y48287435D01*
X11101435Y48419131D01*
X11107366Y48429401D01*
X11107429Y48429496D01*
X11117921Y48445386D01*
X11122412Y48458862D01*
X11127779Y48471818D01*
X11134133Y48484524D01*
X11137977Y48503316D01*
X11141039Y48514745D01*
X11225035Y48766730D01*
X11228836Y48776403D01*
X11238145Y48796862D01*
X11239932Y48807590D01*
X11243664Y48822614D01*
X11247106Y48832938D01*
X11248453Y48855390D01*
X11249619Y48865712D01*
X11373563Y49609374D01*
X11401779Y49663662D01*
X11456517Y49690999D01*
X11516870Y49680940D01*
X11541218Y49663100D01*
X11613884Y49590435D01*
X11613887Y49590431D01*
X11619529Y49584789D01*
X11619530Y49584788D01*
X11683800Y49520519D01*
X11741907Y49462412D01*
X11746269Y49457760D01*
X11767183Y49433962D01*
X11768544Y49433055D01*
X11783628Y49420690D01*
X11784785Y49419533D01*
X11784787Y49419532D01*
X11784788Y49419531D01*
X11795468Y49413365D01*
X11812203Y49403703D01*
X11817609Y49400345D01*
X12075522Y49228403D01*
X12113452Y49180393D01*
X12116233Y49171654D01*
X12133607Y49106815D01*
X12133609Y49106811D01*
X12199496Y48992691D01*
X12199498Y48992689D01*
X12199500Y48992686D01*
X12292686Y48899500D01*
X12292688Y48899499D01*
X12292690Y48899497D01*
X12406810Y48833610D01*
X12406808Y48833610D01*
X12406812Y48833609D01*
X12406814Y48833608D01*
X12534108Y48799500D01*
X12534110Y48799500D01*
X12665890Y48799500D01*
X12665892Y48799500D01*
X12793186Y48833608D01*
X12793188Y48833610D01*
X12793190Y48833610D01*
X12907309Y48899497D01*
X12907309Y48899498D01*
X12907314Y48899500D01*
X13000500Y48992686D01*
X13024415Y49034108D01*
X13066390Y49106810D01*
X13066390Y49106812D01*
X13066392Y49106814D01*
X13100500Y49234108D01*
X13100500Y49365892D01*
X13066392Y49493186D01*
X13066390Y49493189D01*
X13066390Y49493191D01*
X13000503Y49607310D01*
X13000501Y49607312D01*
X13000500Y49607314D01*
X12907314Y49700500D01*
X12907311Y49700502D01*
X12907309Y49700504D01*
X12793189Y49766391D01*
X12793190Y49766391D01*
X12707244Y49789420D01*
X12655929Y49822745D01*
X12634003Y49879866D01*
X12649839Y49938967D01*
X12662859Y49955046D01*
X12700500Y49992686D01*
X12762747Y50100501D01*
X12766390Y50106810D01*
X12766390Y50106812D01*
X12766392Y50106814D01*
X12800500Y50234108D01*
X12800500Y50292955D01*
X12813765Y50342457D01*
X12826612Y50364708D01*
X12826612Y50364710D01*
X12826614Y50364712D01*
X12841302Y50419530D01*
X12850500Y50453856D01*
X12850500Y50713812D01*
X12869407Y50772003D01*
X12879490Y50783810D01*
X12880469Y50784788D01*
X12926614Y50864712D01*
X12926930Y50865891D01*
X12932624Y50887141D01*
X12932624Y50887142D01*
X12940145Y50915212D01*
X12943986Y50929549D01*
X12969607Y50973927D01*
X12980469Y50984788D01*
X13026614Y51064712D01*
X13028224Y51070723D01*
X13032625Y51087143D01*
X13043986Y51129547D01*
X13069607Y51173927D01*
X13101285Y51205606D01*
X13101290Y51205608D01*
X13115212Y51219530D01*
X13201285Y51305606D01*
X13201290Y51305608D01*
X13215212Y51319530D01*
X13301285Y51405606D01*
X13301290Y51405608D01*
X13315212Y51419530D01*
X13401285Y51505606D01*
X13401290Y51505608D01*
X13415212Y51519530D01*
X13501285Y51605606D01*
X13501290Y51605608D01*
X13515212Y51619530D01*
X13601285Y51705606D01*
X13601290Y51705608D01*
X13615212Y51719530D01*
X13701285Y51805606D01*
X13701290Y51805608D01*
X13715212Y51819530D01*
X13801285Y51905606D01*
X13801290Y51905608D01*
X13815212Y51919530D01*
X13901285Y52005606D01*
X13901290Y52005608D01*
X13915212Y52019530D01*
X14001285Y52105606D01*
X14001288Y52105607D01*
X14015211Y52119530D01*
X14015212Y52119530D01*
X14115210Y52219530D01*
X14115212Y52219530D01*
X14745267Y52849587D01*
X14746336Y52850637D01*
X14776810Y52880101D01*
X14776814Y52880109D01*
X14777244Y52880648D01*
X14777584Y52881029D01*
X14778145Y52881760D01*
X14779197Y52883108D01*
X14779761Y52883819D01*
X14780042Y52884231D01*
X14780461Y52884780D01*
X14780470Y52884788D01*
X14801705Y52921572D01*
X14802469Y52922868D01*
X15196005Y53578761D01*
X15242156Y53618930D01*
X15255254Y53623445D01*
X15276106Y53629032D01*
X15337204Y53625829D01*
X15384754Y53587324D01*
X15400589Y53528223D01*
X15400383Y53525183D01*
X15264384Y51893196D01*
X15240710Y51836777D01*
X15235730Y51831414D01*
X15213366Y51809050D01*
X15182360Y51788059D01*
X13946736Y51258505D01*
X13907738Y51250500D01*
X13653856Y51250500D01*
X13625470Y51242894D01*
X13597083Y51235288D01*
X13597082Y51235289D01*
X13564715Y51226616D01*
X13531283Y51207314D01*
X13484788Y51180470D01*
X13219530Y50915212D01*
X13182169Y50850500D01*
X13173386Y50835288D01*
X13149500Y50746144D01*
X13149500Y49853856D01*
X13157836Y49822745D01*
X13168007Y49784788D01*
X13168007Y49784786D01*
X13173383Y49764718D01*
X13173384Y49764716D01*
X13173385Y49764713D01*
X13173386Y49764712D01*
X13219530Y49684788D01*
X13484788Y49419530D01*
X13484790Y49419529D01*
X13559292Y49376514D01*
X13559301Y49376511D01*
X13559303Y49376509D01*
X13564712Y49373386D01*
X13653856Y49349500D01*
X13653857Y49349500D01*
X13746144Y49349500D01*
X14301679Y49349500D01*
X14359870Y49330593D01*
X14371676Y49320510D01*
X14392686Y49299500D01*
X14392688Y49299499D01*
X14392690Y49299497D01*
X14506810Y49233610D01*
X14506808Y49233610D01*
X14506812Y49233609D01*
X14506814Y49233608D01*
X14634108Y49199500D01*
X14634110Y49199500D01*
X14765890Y49199500D01*
X14765892Y49199500D01*
X14893186Y49233608D01*
X14893188Y49233610D01*
X14893190Y49233610D01*
X15007309Y49299497D01*
X15007309Y49299498D01*
X15007314Y49299500D01*
X15100500Y49392686D01*
X15115998Y49419529D01*
X15164264Y49503127D01*
X15209733Y49544068D01*
X15270583Y49550464D01*
X15323571Y49519871D01*
X15335736Y49503127D01*
X15399496Y49392691D01*
X15399498Y49392689D01*
X15399500Y49392686D01*
X15492686Y49299500D01*
X15492688Y49299499D01*
X15492690Y49299497D01*
X15606810Y49233610D01*
X15606808Y49233610D01*
X15606812Y49233609D01*
X15606814Y49233608D01*
X15734108Y49199500D01*
X15734110Y49199500D01*
X15865890Y49199500D01*
X15865892Y49199500D01*
X15993186Y49233608D01*
X15993188Y49233610D01*
X15993190Y49233610D01*
X16107310Y49299497D01*
X16107310Y49299498D01*
X16107314Y49299500D01*
X16119736Y49311923D01*
X16174248Y49339702D01*
X16191884Y49340899D01*
X18234429Y49296496D01*
X18292195Y49276328D01*
X18327074Y49226058D01*
X18327903Y49171899D01*
X18299500Y49065892D01*
X18299500Y48934108D01*
X18322231Y48849275D01*
X18333609Y48806810D01*
X18399496Y48692691D01*
X18399498Y48692689D01*
X18399500Y48692686D01*
X18492686Y48599500D01*
X18606814Y48533608D01*
X18614558Y48531533D01*
X18665872Y48498210D01*
X18676541Y48482016D01*
X19466429Y46981230D01*
X19470597Y46970584D01*
X19470902Y46970710D01*
X19473384Y46964717D01*
X19473386Y46964712D01*
X19492075Y46932342D01*
X19493935Y46928969D01*
X19511328Y46895922D01*
X19515075Y46890621D01*
X19514806Y46890432D01*
X19515320Y46889735D01*
X19515581Y46889934D01*
X19519525Y46884794D01*
X19519528Y46884791D01*
X19519530Y46884788D01*
X19545978Y46858340D01*
X19548613Y46855599D01*
X19563089Y46839944D01*
X19573985Y46828160D01*
X19578975Y46824011D01*
X19578763Y46823757D01*
X19587693Y46816625D01*
X19646704Y46757614D01*
X19674481Y46703097D01*
X19664910Y46642665D01*
X19621645Y46599400D01*
X19602325Y46591985D01*
X19573309Y46584209D01*
X19506809Y46566391D01*
X19392690Y46500504D01*
X19299496Y46407310D01*
X19233609Y46293191D01*
X19224158Y46257918D01*
X19199500Y46165892D01*
X19199500Y46034108D01*
X19208773Y45999500D01*
X19233609Y45906810D01*
X19299496Y45792691D01*
X19299498Y45792689D01*
X19299500Y45792686D01*
X19392686Y45699500D01*
X19392688Y45699499D01*
X19392690Y45699497D01*
X19506810Y45633610D01*
X19506808Y45633610D01*
X19506812Y45633609D01*
X19506814Y45633608D01*
X19634108Y45599500D01*
X19634110Y45599500D01*
X19765890Y45599500D01*
X19765892Y45599500D01*
X19893186Y45633608D01*
X19939942Y45660604D01*
X19999789Y45673326D01*
X20055685Y45648441D01*
X20059446Y45644872D01*
X20113884Y45590435D01*
X20113887Y45590431D01*
X20213884Y45490435D01*
X20213887Y45490431D01*
X20319530Y45384789D01*
X20319531Y45384787D01*
X20384787Y45319532D01*
X20384789Y45319530D01*
X20417743Y45300504D01*
X20464712Y45273386D01*
X20529548Y45256014D01*
X20573925Y45230393D01*
X20584786Y45219533D01*
X20584788Y45219531D01*
X20584790Y45219530D01*
X20585355Y45219096D01*
X20585752Y45218754D01*
X20586512Y45218191D01*
X20587866Y45217171D01*
X20588548Y45216648D01*
X20588951Y45216383D01*
X20589538Y45215948D01*
X20626580Y45195385D01*
X20628031Y45194564D01*
X20664712Y45173386D01*
X20664718Y45173385D01*
X20665358Y45173119D01*
X20665824Y45172894D01*
X20666677Y45172557D01*
X20668209Y45171938D01*
X20669075Y45171580D01*
X20669561Y45171419D01*
X20670221Y45171160D01*
X20670225Y45171157D01*
X20711324Y45160883D01*
X20712909Y45160473D01*
X20753856Y45149501D01*
X20753867Y45149501D01*
X20754568Y45149408D01*
X20765654Y45147300D01*
X21219572Y45033820D01*
X21271439Y45001365D01*
X21294323Y44944620D01*
X21279484Y44885262D01*
X21232588Y44845962D01*
X21174638Y44841013D01*
X16443883Y45863878D01*
X16391002Y45894656D01*
X16366312Y45950638D01*
X16379242Y46010442D01*
X16415303Y46046378D01*
X16507314Y46099500D01*
X16584848Y46177035D01*
X16639362Y46204811D01*
X16699795Y46195240D01*
X16704327Y46192779D01*
X16806814Y46133608D01*
X16934108Y46099500D01*
X16934110Y46099500D01*
X17065890Y46099500D01*
X17065892Y46099500D01*
X17193186Y46133608D01*
X17193188Y46133610D01*
X17193190Y46133610D01*
X17307309Y46199497D01*
X17307309Y46199498D01*
X17307314Y46199500D01*
X17400500Y46292686D01*
X17408946Y46307314D01*
X17466390Y46406810D01*
X17466390Y46406812D01*
X17466392Y46406814D01*
X17500175Y46532898D01*
X17533498Y46584209D01*
X17590619Y46606136D01*
X17621422Y46602900D01*
X17634108Y46599500D01*
X17634109Y46599500D01*
X17765890Y46599500D01*
X17765892Y46599500D01*
X17893186Y46633608D01*
X17893188Y46633610D01*
X17893190Y46633610D01*
X18007309Y46699497D01*
X18007309Y46699498D01*
X18007314Y46699500D01*
X18100500Y46792686D01*
X18104520Y46799648D01*
X18166390Y46906810D01*
X18166390Y46906812D01*
X18166392Y46906814D01*
X18200500Y47034108D01*
X18200500Y47165892D01*
X18166392Y47293186D01*
X18166390Y47293189D01*
X18166390Y47293191D01*
X18100503Y47407310D01*
X18100501Y47407312D01*
X18100500Y47407314D01*
X18007314Y47500500D01*
X18007311Y47500502D01*
X18007309Y47500504D01*
X17893189Y47566391D01*
X17893191Y47566391D01*
X17843799Y47579625D01*
X17765892Y47600500D01*
X17765890Y47600500D01*
X17705822Y47600500D01*
X17647631Y47619407D01*
X17639594Y47625914D01*
X17612276Y47650500D01*
X17543864Y47712071D01*
X17233272Y47991606D01*
X17202668Y48044587D01*
X17200500Y48065192D01*
X17200500Y48065891D01*
X17199420Y48069922D01*
X17166392Y48193186D01*
X17166390Y48193189D01*
X17166390Y48193191D01*
X17100503Y48307310D01*
X17100501Y48307312D01*
X17100500Y48307314D01*
X17007314Y48400500D01*
X17007311Y48400502D01*
X17007309Y48400504D01*
X16893189Y48466391D01*
X16893191Y48466391D01*
X16825605Y48484500D01*
X16765892Y48500500D01*
X16634108Y48500500D01*
X16574395Y48484500D01*
X16506809Y48466391D01*
X16392690Y48400504D01*
X16299496Y48307310D01*
X16233609Y48193191D01*
X16217778Y48134108D01*
X16199500Y48065892D01*
X16199500Y47934108D01*
X16223107Y47846006D01*
X16233609Y47806810D01*
X16299496Y47692691D01*
X16299498Y47692689D01*
X16299500Y47692686D01*
X16372684Y47619502D01*
X16400460Y47564987D01*
X16390889Y47504555D01*
X16347624Y47461290D01*
X16302679Y47450500D01*
X14898321Y47450500D01*
X14840130Y47469407D01*
X14828323Y47479491D01*
X14807314Y47500500D01*
X14807311Y47500502D01*
X14807309Y47500504D01*
X14693189Y47566391D01*
X14693191Y47566391D01*
X14643799Y47579625D01*
X14565892Y47600500D01*
X14434108Y47600500D01*
X14356200Y47579625D01*
X14306809Y47566391D01*
X14192690Y47500504D01*
X14099496Y47407310D01*
X14033609Y47293191D01*
X14026294Y47265891D01*
X13999500Y47165892D01*
X13999500Y47034108D01*
X14027213Y46930681D01*
X14033609Y46906810D01*
X14099496Y46792691D01*
X14099498Y46792689D01*
X14099500Y46792686D01*
X14192686Y46699500D01*
X14192688Y46699499D01*
X14192690Y46699497D01*
X14265947Y46657202D01*
X14306888Y46611733D01*
X14313284Y46550883D01*
X14282691Y46497895D01*
X14242072Y46475840D01*
X14206812Y46466392D01*
X14206810Y46466391D01*
X14092690Y46400504D01*
X13999496Y46307310D01*
X13933609Y46193191D01*
X13926294Y46165891D01*
X13899500Y46065892D01*
X13899500Y45934108D01*
X13910071Y45894656D01*
X13933609Y45806810D01*
X13999496Y45692691D01*
X13999498Y45692689D01*
X13999500Y45692686D01*
X14092686Y45599500D01*
X14092688Y45599499D01*
X14092690Y45599497D01*
X14206810Y45533610D01*
X14206808Y45533610D01*
X14206812Y45533609D01*
X14206814Y45533608D01*
X14334108Y45499500D01*
X14334110Y45499500D01*
X14465891Y45499500D01*
X14465892Y45499500D01*
X14491702Y45506417D01*
X14538244Y45507554D01*
X19705429Y44390325D01*
X20371711Y44246264D01*
X20424592Y44215486D01*
X20449282Y44159504D01*
X20436352Y44099700D01*
X20390739Y44058919D01*
X20350789Y44050500D01*
X19198321Y44050500D01*
X19140130Y44069407D01*
X19128323Y44079491D01*
X19107314Y44100500D01*
X19107311Y44100502D01*
X19107309Y44100504D01*
X18993189Y44166391D01*
X18993191Y44166391D01*
X18943799Y44179625D01*
X18865892Y44200500D01*
X18734108Y44200500D01*
X18656200Y44179625D01*
X18606809Y44166391D01*
X18492690Y44100504D01*
X18399496Y44007310D01*
X18333609Y43893191D01*
X18317778Y43834108D01*
X18299500Y43765892D01*
X18299500Y43634108D01*
X18329579Y43521849D01*
X18333609Y43506810D01*
X18399496Y43392691D01*
X18399498Y43392689D01*
X18399500Y43392686D01*
X18492686Y43299500D01*
X18492688Y43299499D01*
X18492690Y43299497D01*
X18606810Y43233610D01*
X18606808Y43233610D01*
X18606812Y43233609D01*
X18606814Y43233608D01*
X18734108Y43199500D01*
X18734110Y43199500D01*
X18865890Y43199500D01*
X18865892Y43199500D01*
X18993186Y43233608D01*
X18993188Y43233610D01*
X18993190Y43233610D01*
X19107309Y43299497D01*
X19107309Y43299498D01*
X19107314Y43299500D01*
X19128319Y43320506D01*
X19182834Y43348281D01*
X19198321Y43349500D01*
X25501679Y43349500D01*
X25559870Y43330593D01*
X25571676Y43320510D01*
X25592686Y43299500D01*
X25592688Y43299499D01*
X25592690Y43299497D01*
X25706810Y43233610D01*
X25706808Y43233610D01*
X25706812Y43233609D01*
X25706814Y43233608D01*
X25834108Y43199500D01*
X25834110Y43199500D01*
X25965890Y43199500D01*
X25965892Y43199500D01*
X26093186Y43233608D01*
X26093188Y43233610D01*
X26093190Y43233610D01*
X26207309Y43299497D01*
X26207309Y43299498D01*
X26207314Y43299500D01*
X26300500Y43392686D01*
X26304434Y43399500D01*
X26366390Y43506810D01*
X26366390Y43506812D01*
X26366392Y43506814D01*
X26400500Y43634108D01*
X26400500Y43763365D01*
X26419407Y43821556D01*
X26468907Y43857520D01*
X26530093Y43857520D01*
X26558669Y43842738D01*
X26564368Y43838488D01*
X26575182Y43829137D01*
X26584788Y43819531D01*
X26601933Y43809633D01*
X26611603Y43803267D01*
X26627477Y43791430D01*
X26627479Y43791429D01*
X26640085Y43786410D01*
X26652966Y43780168D01*
X26664712Y43773386D01*
X26683828Y43768265D01*
X26694820Y43764618D01*
X26713219Y43757292D01*
X26726694Y43755707D01*
X26740744Y43753015D01*
X26753856Y43749501D01*
X26773639Y43749501D01*
X26785206Y43748823D01*
X28063650Y43598419D01*
X28119232Y43572842D01*
X28122060Y43570126D01*
X28192686Y43499500D01*
X28192688Y43499499D01*
X28192690Y43499497D01*
X28306810Y43433610D01*
X28306808Y43433610D01*
X28306812Y43433609D01*
X28306814Y43433608D01*
X28434108Y43399500D01*
X28434110Y43399500D01*
X28565890Y43399500D01*
X28565892Y43399500D01*
X28693186Y43433608D01*
X28693188Y43433610D01*
X28693190Y43433610D01*
X28807309Y43499497D01*
X28807309Y43499498D01*
X28807314Y43499500D01*
X28900500Y43592686D01*
X28966392Y43706814D01*
X28982222Y43765892D01*
X32599500Y43765892D01*
X32599500Y43634108D01*
X32629579Y43521849D01*
X32633609Y43506810D01*
X32699496Y43392691D01*
X32699498Y43392689D01*
X32699500Y43392686D01*
X32792686Y43299500D01*
X32792688Y43299499D01*
X32792690Y43299497D01*
X32906810Y43233610D01*
X32906808Y43233610D01*
X32906812Y43233609D01*
X32906814Y43233608D01*
X33034108Y43199500D01*
X33034110Y43199500D01*
X33165890Y43199500D01*
X33165892Y43199500D01*
X33293186Y43233608D01*
X33293188Y43233610D01*
X33293190Y43233610D01*
X33407309Y43299497D01*
X33407309Y43299498D01*
X33407314Y43299500D01*
X33428319Y43320506D01*
X33482834Y43348281D01*
X33498321Y43349500D01*
X38001679Y43349500D01*
X38059870Y43330593D01*
X38071676Y43320510D01*
X38092686Y43299500D01*
X38092688Y43299499D01*
X38092690Y43299497D01*
X38206810Y43233610D01*
X38206808Y43233610D01*
X38206812Y43233609D01*
X38206814Y43233608D01*
X38334108Y43199500D01*
X38334110Y43199500D01*
X38465890Y43199500D01*
X38465892Y43199500D01*
X38593186Y43233608D01*
X38593188Y43233610D01*
X38593190Y43233610D01*
X38707309Y43299497D01*
X38707309Y43299498D01*
X38707314Y43299500D01*
X38800500Y43392686D01*
X38804434Y43399500D01*
X38866390Y43506810D01*
X38866390Y43506812D01*
X38866392Y43506814D01*
X38900500Y43634108D01*
X38900500Y43765892D01*
X38866392Y43893186D01*
X38866390Y43893189D01*
X38866390Y43893191D01*
X38800503Y44007310D01*
X38800501Y44007312D01*
X38800500Y44007314D01*
X38707314Y44100500D01*
X38707311Y44100502D01*
X38707309Y44100504D01*
X38593189Y44166391D01*
X38593191Y44166391D01*
X38543799Y44179625D01*
X38465892Y44200500D01*
X38334108Y44200500D01*
X38256200Y44179625D01*
X38206809Y44166391D01*
X38092690Y44100504D01*
X38092689Y44100503D01*
X38092686Y44100501D01*
X38092686Y44100500D01*
X38071680Y44079495D01*
X38017166Y44051719D01*
X38001679Y44050500D01*
X33498321Y44050500D01*
X33440130Y44069407D01*
X33428323Y44079491D01*
X33407314Y44100500D01*
X33407311Y44100502D01*
X33407309Y44100504D01*
X33293189Y44166391D01*
X33293191Y44166391D01*
X33243799Y44179625D01*
X33165892Y44200500D01*
X33034108Y44200500D01*
X32956200Y44179625D01*
X32906809Y44166391D01*
X32792690Y44100504D01*
X32699496Y44007310D01*
X32633609Y43893191D01*
X32617778Y43834108D01*
X32599500Y43765892D01*
X28982222Y43765892D01*
X29000500Y43834108D01*
X29000500Y43965892D01*
X28966392Y44093186D01*
X28966390Y44093189D01*
X28966390Y44093191D01*
X28900503Y44207310D01*
X28900501Y44207312D01*
X28900500Y44207314D01*
X28877815Y44229999D01*
X28850040Y44284513D01*
X28859611Y44344945D01*
X28877814Y44370001D01*
X28900500Y44392686D01*
X28924005Y44433397D01*
X28966390Y44506810D01*
X28966390Y44506812D01*
X28966392Y44506814D01*
X29000500Y44634108D01*
X29000500Y44765892D01*
X28966392Y44893186D01*
X28966390Y44893189D01*
X28966390Y44893191D01*
X28900503Y45007310D01*
X28900501Y45007312D01*
X28900500Y45007314D01*
X28807314Y45100500D01*
X28807311Y45100502D01*
X28807309Y45100504D01*
X28693189Y45166391D01*
X28693191Y45166391D01*
X28643799Y45179625D01*
X28565892Y45200500D01*
X28434108Y45200500D01*
X28356200Y45179625D01*
X28306809Y45166391D01*
X28192690Y45100504D01*
X28192689Y45100503D01*
X28192686Y45100501D01*
X28192686Y45100500D01*
X28171680Y45079495D01*
X28117166Y45051719D01*
X28101679Y45050500D01*
X27498321Y45050500D01*
X27440130Y45069407D01*
X27428323Y45079491D01*
X27407314Y45100500D01*
X27407311Y45100502D01*
X27407309Y45100504D01*
X27293189Y45166391D01*
X27293191Y45166391D01*
X27243799Y45179625D01*
X27165892Y45200500D01*
X27034108Y45200500D01*
X26956200Y45179625D01*
X26906809Y45166391D01*
X26792690Y45100504D01*
X26699496Y45007310D01*
X26633609Y44893191D01*
X26599500Y44765891D01*
X26599500Y44749500D01*
X26580593Y44691309D01*
X26531093Y44655345D01*
X26500500Y44650500D01*
X26480322Y44650500D01*
X26422131Y44669407D01*
X26386167Y44718907D01*
X26384695Y44775122D01*
X26385857Y44779462D01*
X26400500Y44834108D01*
X26400500Y44965892D01*
X26366392Y45093186D01*
X26366390Y45093190D01*
X26366390Y45093191D01*
X26300503Y45207310D01*
X26300501Y45207312D01*
X26300500Y45207314D01*
X26207314Y45300500D01*
X26207311Y45300502D01*
X26207309Y45300504D01*
X26093189Y45366391D01*
X26093191Y45366391D01*
X26024534Y45384787D01*
X25965892Y45400500D01*
X25834108Y45400500D01*
X25775466Y45384787D01*
X25706809Y45366391D01*
X25592690Y45300504D01*
X25587540Y45296551D01*
X25585726Y45298914D01*
X25542166Y45276719D01*
X25526679Y45275500D01*
X24973321Y45275500D01*
X24915130Y45294407D01*
X24912523Y45296634D01*
X24912460Y45296551D01*
X24907309Y45300504D01*
X24793189Y45366391D01*
X24793191Y45366391D01*
X24724534Y45384787D01*
X24665892Y45400500D01*
X24534108Y45400500D01*
X24475466Y45384787D01*
X24406809Y45366391D01*
X24292690Y45300504D01*
X24199496Y45207310D01*
X24133609Y45093190D01*
X24133607Y45093186D01*
X24115194Y45024468D01*
X24081870Y44973154D01*
X24024748Y44951228D01*
X24008635Y44951698D01*
X23941342Y44959175D01*
X23885595Y44984392D01*
X23855318Y45037561D01*
X23862075Y45098372D01*
X23866324Y45106651D01*
X23866390Y45106809D01*
X23866390Y45106812D01*
X23866392Y45106814D01*
X23900500Y45234108D01*
X23900500Y45365892D01*
X23866392Y45493186D01*
X23862748Y45499497D01*
X23861882Y45500998D01*
X23849159Y45560846D01*
X23874044Y45616742D01*
X23927031Y45647336D01*
X23947617Y45649500D01*
X28701679Y45649500D01*
X28759870Y45630593D01*
X28771676Y45620510D01*
X28792686Y45599500D01*
X28792688Y45599499D01*
X28792690Y45599497D01*
X28906810Y45533610D01*
X28906808Y45533610D01*
X28906812Y45533609D01*
X28906814Y45533608D01*
X29034108Y45499500D01*
X29034110Y45499500D01*
X29165890Y45499500D01*
X29165892Y45499500D01*
X29293186Y45533608D01*
X29293188Y45533610D01*
X29293190Y45533610D01*
X29407309Y45599497D01*
X29407309Y45599498D01*
X29407314Y45599500D01*
X29484848Y45677035D01*
X29539362Y45704811D01*
X29599795Y45695240D01*
X29604327Y45692779D01*
X29706814Y45633608D01*
X29834108Y45599500D01*
X29834110Y45599500D01*
X29965890Y45599500D01*
X29965892Y45599500D01*
X30093186Y45633608D01*
X30093188Y45633610D01*
X30093190Y45633610D01*
X30207309Y45699497D01*
X30207309Y45699498D01*
X30207314Y45699500D01*
X30300500Y45792686D01*
X30366392Y45906814D01*
X30400500Y46034108D01*
X30400500Y46165892D01*
X30366392Y46293186D01*
X30366390Y46293189D01*
X30366390Y46293191D01*
X30300503Y46407310D01*
X30300501Y46407312D01*
X30300500Y46407314D01*
X30207314Y46500500D01*
X30207311Y46500502D01*
X30207309Y46500504D01*
X30093189Y46566391D01*
X30093191Y46566391D01*
X30026691Y46584209D01*
X29965892Y46600500D01*
X29965890Y46600500D01*
X29936190Y46600500D01*
X29877999Y46619407D01*
X29866187Y46629496D01*
X29809569Y46686113D01*
X29809564Y46686117D01*
X29762073Y46733608D01*
X29715212Y46780470D01*
X29715211Y46780471D01*
X29709572Y46786110D01*
X29709565Y46786116D01*
X29669460Y46826222D01*
X29669459Y46826223D01*
X29662717Y46832965D01*
X29647215Y46852714D01*
X29630226Y46865456D01*
X29615212Y46880470D01*
X29593469Y46893023D01*
X29528923Y46941434D01*
X29493716Y46991473D01*
X29492708Y46994972D01*
X29490401Y47003583D01*
X29490488Y47005240D01*
X29489629Y47006660D01*
X29492083Y47035654D01*
X29493607Y47064683D01*
X29494650Y47065972D01*
X29494791Y47067627D01*
X29513812Y47089633D01*
X29532114Y47112230D01*
X29534117Y47113122D01*
X29534804Y47113916D01*
X29537114Y47114457D01*
X29560403Y47124825D01*
X29593186Y47133608D01*
X29681836Y47184790D01*
X29707309Y47199497D01*
X29707309Y47199498D01*
X29707314Y47199500D01*
X29800500Y47292686D01*
X29866392Y47406814D01*
X29870850Y47423454D01*
X29904172Y47474769D01*
X29961293Y47496697D01*
X30020394Y47480863D01*
X30036481Y47467837D01*
X30270504Y47233814D01*
X30298281Y47179297D01*
X30299500Y47163810D01*
X30299500Y47134108D01*
X30329579Y47021849D01*
X30333609Y47006810D01*
X30399496Y46892691D01*
X30399498Y46892689D01*
X30399500Y46892686D01*
X30492686Y46799500D01*
X30492688Y46799499D01*
X30492690Y46799497D01*
X30606810Y46733610D01*
X30606808Y46733610D01*
X30606812Y46733609D01*
X30606814Y46733608D01*
X30734108Y46699500D01*
X30734110Y46699500D01*
X30865890Y46699500D01*
X30865892Y46699500D01*
X30993186Y46733608D01*
X30993188Y46733610D01*
X30993190Y46733610D01*
X31107309Y46799497D01*
X31107309Y46799498D01*
X31107314Y46799500D01*
X31200500Y46892686D01*
X31205300Y46901000D01*
X31266390Y47006810D01*
X31266390Y47006812D01*
X31266392Y47006814D01*
X31300500Y47134108D01*
X31300500Y47265892D01*
X31295976Y47282776D01*
X31299179Y47343876D01*
X31337684Y47391425D01*
X31396784Y47407261D01*
X31417221Y47404025D01*
X31434108Y47399500D01*
X31434110Y47399500D01*
X31565890Y47399500D01*
X31565892Y47399500D01*
X31693186Y47433608D01*
X31693188Y47433610D01*
X31693190Y47433610D01*
X31807309Y47499497D01*
X31807309Y47499498D01*
X31807314Y47499500D01*
X31900500Y47592686D01*
X31904434Y47599500D01*
X31966390Y47706810D01*
X31966390Y47706812D01*
X31966392Y47706814D01*
X32000500Y47834108D01*
X32000500Y47965892D01*
X31966392Y48093186D01*
X31966390Y48093189D01*
X31966390Y48093191D01*
X31900503Y48207310D01*
X31900501Y48207312D01*
X31900500Y48207314D01*
X31841922Y48265892D01*
X32599500Y48265892D01*
X32599500Y48134108D01*
X32618095Y48064710D01*
X32633609Y48006810D01*
X32699496Y47892691D01*
X32699501Y47892685D01*
X32722183Y47870002D01*
X32749959Y47815485D01*
X32740387Y47755053D01*
X32722183Y47729998D01*
X32699501Y47707316D01*
X32699496Y47707310D01*
X32633609Y47593191D01*
X32626428Y47566391D01*
X32599500Y47465892D01*
X32599500Y47334108D01*
X32628984Y47224071D01*
X32633609Y47206810D01*
X32699496Y47092691D01*
X32699498Y47092689D01*
X32699500Y47092686D01*
X32792686Y46999500D01*
X32792688Y46999499D01*
X32792690Y46999497D01*
X32906810Y46933610D01*
X32906808Y46933610D01*
X32906812Y46933609D01*
X32906814Y46933608D01*
X33034108Y46899500D01*
X33034110Y46899500D01*
X33165890Y46899500D01*
X33165892Y46899500D01*
X33293186Y46933608D01*
X33293188Y46933610D01*
X33293190Y46933610D01*
X33407309Y46999497D01*
X33407309Y46999498D01*
X33407314Y46999500D01*
X33428319Y47020506D01*
X33482834Y47048281D01*
X33498321Y47049500D01*
X35710118Y47049500D01*
X35768309Y47030593D01*
X35804273Y46981093D01*
X35804273Y46919907D01*
X35795854Y46901000D01*
X35733609Y46793191D01*
X35717645Y46733610D01*
X35699500Y46665892D01*
X35699500Y46534108D01*
X35710918Y46491495D01*
X35733609Y46406810D01*
X35799496Y46292691D01*
X35799498Y46292689D01*
X35799500Y46292686D01*
X35892686Y46199500D01*
X35892688Y46199499D01*
X35892690Y46199497D01*
X36006810Y46133610D01*
X36006808Y46133610D01*
X36006812Y46133609D01*
X36006814Y46133608D01*
X36134108Y46099500D01*
X36134110Y46099500D01*
X36265890Y46099500D01*
X36265892Y46099500D01*
X36393186Y46133608D01*
X36393188Y46133610D01*
X36393190Y46133610D01*
X36507309Y46199497D01*
X36507309Y46199498D01*
X36507314Y46199500D01*
X36528319Y46220506D01*
X36582834Y46248281D01*
X36598321Y46249500D01*
X38001679Y46249500D01*
X38059870Y46230593D01*
X38071676Y46220510D01*
X38092686Y46199500D01*
X38092688Y46199499D01*
X38092690Y46199497D01*
X38206810Y46133610D01*
X38206808Y46133610D01*
X38206812Y46133609D01*
X38206814Y46133608D01*
X38334108Y46099500D01*
X38334110Y46099500D01*
X38465890Y46099500D01*
X38465892Y46099500D01*
X38593186Y46133608D01*
X38593188Y46133610D01*
X38593190Y46133610D01*
X38707309Y46199497D01*
X38707309Y46199498D01*
X38707314Y46199500D01*
X38800500Y46292686D01*
X38808946Y46307314D01*
X38866390Y46406810D01*
X38866390Y46406812D01*
X38866392Y46406814D01*
X38900500Y46534108D01*
X38900500Y46665892D01*
X38866392Y46793186D01*
X38866390Y46793189D01*
X38866390Y46793191D01*
X38800503Y46907310D01*
X38800501Y46907312D01*
X38800500Y46907314D01*
X38777815Y46929999D01*
X38750040Y46984513D01*
X38759611Y47044945D01*
X38777814Y47070001D01*
X38800500Y47092686D01*
X38804434Y47099500D01*
X38866390Y47206810D01*
X38866390Y47206812D01*
X38866392Y47206814D01*
X38900500Y47334108D01*
X38900500Y47465892D01*
X38866392Y47593186D01*
X38866390Y47593189D01*
X38866390Y47593191D01*
X38800503Y47707310D01*
X38800501Y47707312D01*
X38800500Y47707314D01*
X38707314Y47800500D01*
X38707311Y47800502D01*
X38707309Y47800504D01*
X38593189Y47866391D01*
X38593191Y47866391D01*
X38539552Y47880763D01*
X38465892Y47900500D01*
X38334108Y47900500D01*
X38260448Y47880763D01*
X38206809Y47866391D01*
X38092690Y47800504D01*
X38092689Y47800503D01*
X38092686Y47800501D01*
X38092686Y47800500D01*
X38071680Y47779495D01*
X38017166Y47751719D01*
X38001679Y47750500D01*
X36089882Y47750500D01*
X36031691Y47769407D01*
X35995727Y47818907D01*
X35995727Y47880093D01*
X36004146Y47899000D01*
X36066390Y48006810D01*
X36066390Y48006812D01*
X36066392Y48006814D01*
X36100500Y48134108D01*
X36100500Y48265892D01*
X36066392Y48393186D01*
X36066390Y48393189D01*
X36066390Y48393191D01*
X36000503Y48507310D01*
X36000501Y48507312D01*
X36000500Y48507314D01*
X35907314Y48600500D01*
X35907311Y48600502D01*
X35907309Y48600504D01*
X35793189Y48666391D01*
X35793191Y48666391D01*
X35778722Y48670268D01*
X35665892Y48700500D01*
X35534108Y48700500D01*
X35456200Y48679625D01*
X35406809Y48666391D01*
X35292690Y48600504D01*
X35292689Y48600503D01*
X35292686Y48600501D01*
X35292686Y48600500D01*
X35271680Y48579495D01*
X35217166Y48551719D01*
X35201679Y48550500D01*
X33498321Y48550500D01*
X33440130Y48569407D01*
X33428323Y48579491D01*
X33407314Y48600500D01*
X33407311Y48600502D01*
X33407309Y48600504D01*
X33293189Y48666391D01*
X33293191Y48666391D01*
X33243799Y48679625D01*
X33165892Y48700500D01*
X33034108Y48700500D01*
X32956200Y48679625D01*
X32906809Y48666391D01*
X32792690Y48600504D01*
X32699496Y48507310D01*
X32633609Y48393191D01*
X32617778Y48334108D01*
X32599500Y48265892D01*
X31841922Y48265892D01*
X31807314Y48300500D01*
X31807311Y48300502D01*
X31807309Y48300504D01*
X31693189Y48366391D01*
X31693191Y48366391D01*
X31643799Y48379625D01*
X31565892Y48400500D01*
X31565890Y48400500D01*
X31536189Y48400500D01*
X31477998Y48419407D01*
X31466185Y48429496D01*
X31129789Y48765892D01*
X43299500Y48765892D01*
X43299500Y48634108D01*
X43326428Y48533609D01*
X43333609Y48506810D01*
X43399496Y48392691D01*
X43403449Y48387540D01*
X43401086Y48385727D01*
X43423281Y48342166D01*
X43424500Y48326679D01*
X43424500Y46273322D01*
X43405593Y46215131D01*
X43403367Y46212523D01*
X43403449Y46212460D01*
X43399496Y46207310D01*
X43333609Y46093191D01*
X43326294Y46065891D01*
X43299500Y45965892D01*
X43299500Y45834108D01*
X43310464Y45793191D01*
X43333609Y45706810D01*
X43399496Y45592691D01*
X43399498Y45592689D01*
X43399500Y45592686D01*
X43492686Y45499500D01*
X43492688Y45499499D01*
X43492690Y45499497D01*
X43606810Y45433610D01*
X43606808Y45433610D01*
X43606812Y45433609D01*
X43606814Y45433608D01*
X43734108Y45399500D01*
X43734110Y45399500D01*
X43865890Y45399500D01*
X43865892Y45399500D01*
X43993186Y45433608D01*
X43993188Y45433610D01*
X43993190Y45433610D01*
X44107309Y45499497D01*
X44107309Y45499498D01*
X44107314Y45499500D01*
X44200500Y45592686D01*
X44222386Y45630593D01*
X44266390Y45706810D01*
X44266390Y45706812D01*
X44266392Y45706814D01*
X44300500Y45834108D01*
X44300500Y45965892D01*
X44266392Y46093186D01*
X44266390Y46093189D01*
X44266390Y46093191D01*
X44200503Y46207310D01*
X44196551Y46212460D01*
X44198901Y46214265D01*
X44176706Y46257918D01*
X44175500Y46273322D01*
X44175500Y48326679D01*
X44194407Y48384870D01*
X44196633Y48387477D01*
X44196551Y48387540D01*
X44200496Y48392683D01*
X44200500Y48392686D01*
X44204434Y48399500D01*
X44266390Y48506810D01*
X44266390Y48506812D01*
X44266392Y48506814D01*
X44300500Y48634108D01*
X44300500Y48765892D01*
X44266392Y48893186D01*
X44266390Y48893189D01*
X44266390Y48893191D01*
X44200503Y49007310D01*
X44200501Y49007312D01*
X44200500Y49007314D01*
X44107314Y49100500D01*
X44107311Y49100502D01*
X44107309Y49100504D01*
X43993189Y49166391D01*
X43993191Y49166391D01*
X43940933Y49180393D01*
X43865892Y49200500D01*
X43734108Y49200500D01*
X43659067Y49180393D01*
X43606809Y49166391D01*
X43492690Y49100504D01*
X43399496Y49007310D01*
X43333609Y48893191D01*
X43325398Y48862545D01*
X43299500Y48765892D01*
X31129789Y48765892D01*
X31011937Y48883744D01*
X30515212Y49380470D01*
X30435288Y49426614D01*
X30435286Y49426615D01*
X30435282Y49426617D01*
X30434144Y49427088D01*
X30433472Y49427662D01*
X30429668Y49429858D01*
X30430075Y49430564D01*
X30387618Y49466824D01*
X30373334Y49526319D01*
X30376400Y49544168D01*
X30400500Y49634108D01*
X30400500Y49765892D01*
X30366392Y49893186D01*
X30366390Y49893189D01*
X30366390Y49893191D01*
X30300503Y50007310D01*
X30300501Y50007312D01*
X30300500Y50007314D01*
X30207314Y50100500D01*
X30182608Y50114764D01*
X30141668Y50160233D01*
X30135272Y50221083D01*
X30165865Y50274071D01*
X30221760Y50298958D01*
X30232109Y50299500D01*
X32767891Y50299500D01*
X32826082Y50280593D01*
X32862046Y50231093D01*
X32862046Y50169907D01*
X32826082Y50120407D01*
X32817397Y50114768D01*
X32804320Y50107218D01*
X32792687Y50100501D01*
X32699496Y50007310D01*
X32633609Y49893191D01*
X32633608Y49893186D01*
X32599500Y49765892D01*
X32599500Y49634108D01*
X32617114Y49568370D01*
X32633609Y49506810D01*
X32699496Y49392691D01*
X32699498Y49392689D01*
X32699500Y49392686D01*
X32792686Y49299500D01*
X32792688Y49299499D01*
X32792690Y49299497D01*
X32906810Y49233610D01*
X32906808Y49233610D01*
X32906812Y49233609D01*
X32906814Y49233608D01*
X33034108Y49199500D01*
X33034110Y49199500D01*
X33165890Y49199500D01*
X33165892Y49199500D01*
X33293186Y49233608D01*
X33293188Y49233610D01*
X33293190Y49233610D01*
X33407309Y49299497D01*
X33407309Y49299498D01*
X33407314Y49299500D01*
X33428319Y49320506D01*
X33482834Y49348281D01*
X33498321Y49349500D01*
X38001679Y49349500D01*
X38059870Y49330593D01*
X38071676Y49320510D01*
X38092686Y49299500D01*
X38092688Y49299499D01*
X38092690Y49299497D01*
X38206810Y49233610D01*
X38206808Y49233610D01*
X38206812Y49233609D01*
X38206814Y49233608D01*
X38334108Y49199500D01*
X38334110Y49199500D01*
X38465890Y49199500D01*
X38465892Y49199500D01*
X38593186Y49233608D01*
X38593188Y49233610D01*
X38593190Y49233610D01*
X38707309Y49299497D01*
X38707309Y49299498D01*
X38707314Y49299500D01*
X38800500Y49392686D01*
X38815998Y49419529D01*
X38866390Y49506810D01*
X38866390Y49506812D01*
X38866392Y49506814D01*
X38900500Y49634108D01*
X38900500Y49765892D01*
X38866392Y49893186D01*
X38866390Y49893189D01*
X38866390Y49893191D01*
X38800503Y50007310D01*
X38800501Y50007312D01*
X38800500Y50007314D01*
X38707314Y50100500D01*
X38707311Y50100502D01*
X38707309Y50100504D01*
X38593189Y50166391D01*
X38593191Y50166391D01*
X38543799Y50179625D01*
X38465892Y50200500D01*
X38334108Y50200500D01*
X38256200Y50179625D01*
X38206809Y50166391D01*
X38092690Y50100504D01*
X38092689Y50100503D01*
X38092686Y50100501D01*
X38092686Y50100500D01*
X38071680Y50079495D01*
X38017166Y50051719D01*
X38001679Y50050500D01*
X33498321Y50050500D01*
X33440130Y50069407D01*
X33428323Y50079491D01*
X33407314Y50100500D01*
X33382608Y50114764D01*
X33341668Y50160233D01*
X33335272Y50221083D01*
X33365865Y50274071D01*
X33421760Y50298958D01*
X33432109Y50299500D01*
X34665890Y50299500D01*
X34665892Y50299500D01*
X34793186Y50333608D01*
X34793188Y50333610D01*
X34793190Y50333610D01*
X34907309Y50399497D01*
X34907309Y50399498D01*
X34907314Y50399500D01*
X35000500Y50492686D01*
X35066392Y50606814D01*
X35100500Y50734108D01*
X35100500Y50865892D01*
X35066392Y50993186D01*
X35066390Y50993189D01*
X35066390Y50993191D01*
X35000503Y51107310D01*
X35000501Y51107312D01*
X35000500Y51107314D01*
X34907314Y51200500D01*
X34907311Y51200502D01*
X34907309Y51200504D01*
X34793189Y51266391D01*
X34793191Y51266391D01*
X34743799Y51279625D01*
X34665892Y51300500D01*
X30034108Y51300500D01*
X29956200Y51279625D01*
X29906809Y51266391D01*
X29792690Y51200504D01*
X29699496Y51107310D01*
X29633609Y50993191D01*
X29626294Y50965891D01*
X29606680Y50892686D01*
X29599500Y50865891D01*
X29599500Y50832651D01*
X29580593Y50774460D01*
X29531093Y50738496D01*
X29469907Y50738496D01*
X29420407Y50774460D01*
X29419940Y50775108D01*
X29418940Y50776508D01*
X29400500Y50834051D01*
X29400500Y50965891D01*
X29399278Y50970452D01*
X29366392Y51093186D01*
X29366390Y51093189D01*
X29366390Y51093191D01*
X29300503Y51207310D01*
X29300501Y51207312D01*
X29300500Y51207314D01*
X29207314Y51300500D01*
X29207311Y51300502D01*
X29207309Y51300504D01*
X29093189Y51366391D01*
X29093191Y51366391D01*
X29042314Y51380023D01*
X28965892Y51400500D01*
X28834108Y51400500D01*
X28757686Y51380023D01*
X28706809Y51366391D01*
X28592690Y51300504D01*
X28592689Y51300503D01*
X28592686Y51300501D01*
X28592686Y51300500D01*
X28519501Y51227316D01*
X28464987Y51199540D01*
X28404555Y51209111D01*
X28361290Y51252376D01*
X28350500Y51297321D01*
X28350500Y51646143D01*
X28349333Y51650500D01*
X28326614Y51735288D01*
X28280469Y51815212D01*
X28248844Y51846837D01*
X28215217Y51880465D01*
X28215211Y51880470D01*
X28109572Y51986110D01*
X28109565Y51986116D01*
X28062203Y52033478D01*
X28015212Y52080470D01*
X28015211Y52080471D01*
X28009569Y52086113D01*
X28009564Y52086117D01*
X27980906Y52114776D01*
X27969849Y52128401D01*
X27968333Y52130168D01*
X27965253Y52132929D01*
X27946770Y52149501D01*
X27943099Y52152792D01*
X27939184Y52156499D01*
X27915211Y52180471D01*
X27913380Y52181876D01*
X27899161Y52192185D01*
X25763055Y54107314D01*
X25107844Y54694744D01*
X25077139Y54747665D01*
X25083405Y54808529D01*
X25124249Y54854086D01*
X25154615Y54865553D01*
X25218913Y54878342D01*
X25355495Y54934916D01*
X25478416Y55017049D01*
X25582951Y55121584D01*
X25665084Y55244505D01*
X25721658Y55381087D01*
X25750500Y55526082D01*
X25750500Y55673918D01*
X25721658Y55818913D01*
X25665084Y55955495D01*
X25582951Y56078416D01*
X25478416Y56182951D01*
X25450500Y56201604D01*
X25355502Y56265081D01*
X25355496Y56265084D01*
X25311613Y56283261D01*
X25265088Y56322999D01*
X25250500Y56374725D01*
X25250500Y56525589D01*
X25269407Y56583780D01*
X25318907Y56619744D01*
X25380093Y56619744D01*
X25399000Y56611326D01*
X25464712Y56573386D01*
X25553856Y56549500D01*
X27417508Y56549500D01*
X27475699Y56530593D01*
X27486515Y56521486D01*
X27504157Y56504334D01*
X27532699Y56450215D01*
X27523980Y56389654D01*
X27481329Y56345784D01*
X27454462Y56336255D01*
X27381093Y56321660D01*
X27381085Y56321658D01*
X27244506Y56265085D01*
X27121585Y56182952D01*
X27017048Y56078415D01*
X26934915Y55955494D01*
X26878342Y55818915D01*
X26849500Y55673919D01*
X26849500Y55526082D01*
X26878342Y55381086D01*
X26934237Y55246144D01*
X26934916Y55244505D01*
X27017049Y55121584D01*
X27121584Y55017049D01*
X27244505Y54934916D01*
X27381087Y54878342D01*
X27526082Y54849500D01*
X27526083Y54849500D01*
X27673917Y54849500D01*
X27673918Y54849500D01*
X27818913Y54878342D01*
X27904214Y54913676D01*
X27965210Y54918476D01*
X28012103Y54892215D01*
X30247658Y52656660D01*
X30249628Y52654632D01*
X30276867Y52625791D01*
X30280824Y52622571D01*
X30284783Y52619534D01*
X30284785Y52619533D01*
X30284788Y52619530D01*
X30319234Y52599643D01*
X30321591Y52598237D01*
X30355439Y52577383D01*
X30355445Y52577382D01*
X30360019Y52575331D01*
X30364706Y52573390D01*
X30364712Y52573386D01*
X30364718Y52573385D01*
X30364719Y52573384D01*
X30403075Y52563107D01*
X30405774Y52562343D01*
X30443865Y52550961D01*
X30443870Y52550961D01*
X30448838Y52550162D01*
X30453855Y52549502D01*
X30453856Y52549501D01*
X30493538Y52549501D01*
X30496364Y52549462D01*
X33592981Y52460987D01*
X33650606Y52440425D01*
X33660147Y52432039D01*
X33692686Y52399500D01*
X33692688Y52399499D01*
X33692690Y52399497D01*
X33806810Y52333610D01*
X33806808Y52333610D01*
X33806812Y52333609D01*
X33806814Y52333608D01*
X33934108Y52299500D01*
X33934110Y52299500D01*
X34065890Y52299500D01*
X34065892Y52299500D01*
X34193186Y52333608D01*
X34193188Y52333610D01*
X34193190Y52333610D01*
X34307309Y52399497D01*
X34307309Y52399498D01*
X34307314Y52399500D01*
X34400500Y52492686D01*
X34404434Y52499500D01*
X34466390Y52606810D01*
X34466390Y52606812D01*
X34466392Y52606814D01*
X34500500Y52734108D01*
X34500500Y52865892D01*
X34475427Y52959466D01*
X34478629Y53020563D01*
X34517134Y53068113D01*
X34566556Y53083983D01*
X35614947Y53131637D01*
X35673934Y53115391D01*
X35689438Y53102748D01*
X35692686Y53099500D01*
X35692688Y53099499D01*
X35692690Y53099497D01*
X35806808Y53033611D01*
X35806810Y53033610D01*
X35806814Y53033608D01*
X35806817Y53033608D01*
X35807570Y53033295D01*
X35808019Y53032912D01*
X35812433Y53030363D01*
X35811960Y53029546D01*
X35854098Y52993561D01*
X35868384Y52934067D01*
X35844973Y52877538D01*
X35834117Y52866663D01*
X35434733Y52524334D01*
X35378247Y52500819D01*
X35370305Y52500500D01*
X35334108Y52500500D01*
X35256200Y52479625D01*
X35206809Y52466391D01*
X35092690Y52400504D01*
X34999496Y52307310D01*
X34933609Y52193191D01*
X34916258Y52128436D01*
X34899500Y52065892D01*
X34899500Y51934108D01*
X34926443Y51833555D01*
X34933609Y51806810D01*
X34999496Y51692691D01*
X34999498Y51692689D01*
X34999500Y51692686D01*
X35092686Y51599500D01*
X35092688Y51599499D01*
X35092690Y51599497D01*
X35206810Y51533610D01*
X35206808Y51533610D01*
X35206812Y51533609D01*
X35206814Y51533608D01*
X35264594Y51518126D01*
X35315907Y51484803D01*
X35337834Y51427682D01*
X35334597Y51396877D01*
X35333608Y51393187D01*
X35333608Y51393186D01*
X35299500Y51265892D01*
X35299500Y51134108D01*
X35325979Y51035286D01*
X35333609Y51006810D01*
X35399496Y50892691D01*
X35399498Y50892689D01*
X35399500Y50892686D01*
X35492686Y50799500D01*
X35492688Y50799499D01*
X35492690Y50799497D01*
X35606810Y50733610D01*
X35606808Y50733610D01*
X35606812Y50733609D01*
X35606814Y50733608D01*
X35734108Y50699500D01*
X35734110Y50699500D01*
X35865890Y50699500D01*
X35865892Y50699500D01*
X35993186Y50733608D01*
X35993188Y50733610D01*
X35993190Y50733610D01*
X36107309Y50799497D01*
X36107309Y50799498D01*
X36107314Y50799500D01*
X36200500Y50892686D01*
X36204939Y50900374D01*
X36266390Y51006810D01*
X36266390Y51006812D01*
X36266392Y51006814D01*
X36300500Y51134108D01*
X36300500Y51163811D01*
X36319407Y51222002D01*
X36329490Y51233809D01*
X36761573Y51665892D01*
X40799500Y51665892D01*
X40799500Y51534108D01*
X40829579Y51421849D01*
X40833609Y51406810D01*
X40899496Y51292691D01*
X40899498Y51292689D01*
X40899500Y51292686D01*
X40992686Y51199500D01*
X40992688Y51199499D01*
X40992690Y51199497D01*
X41106810Y51133610D01*
X41106808Y51133610D01*
X41106812Y51133609D01*
X41106814Y51133608D01*
X41234108Y51099500D01*
X41234110Y51099500D01*
X41365890Y51099500D01*
X41365892Y51099500D01*
X41493186Y51133608D01*
X41493188Y51133610D01*
X41493190Y51133610D01*
X41607309Y51199497D01*
X41607309Y51199498D01*
X41607314Y51199500D01*
X41700500Y51292686D01*
X41703176Y51297321D01*
X41766390Y51406810D01*
X41766390Y51406812D01*
X41766392Y51406814D01*
X41800500Y51534108D01*
X41800500Y51665892D01*
X41766392Y51793186D01*
X41766390Y51793189D01*
X41766390Y51793191D01*
X41700503Y51907310D01*
X41700501Y51907312D01*
X41700500Y51907314D01*
X41696497Y51911317D01*
X41668722Y51965831D01*
X41667596Y51985611D01*
X41728999Y53397871D01*
X45474500Y53397871D01*
X45474500Y52602134D01*
X45474501Y52602130D01*
X45480908Y52542520D01*
X45480909Y52542515D01*
X45531202Y52407671D01*
X45586646Y52333608D01*
X45617454Y52292454D01*
X45617457Y52292452D01*
X45617458Y52292451D01*
X45732670Y52206203D01*
X45867511Y52155911D01*
X45867512Y52155911D01*
X45867517Y52155909D01*
X45927127Y52149500D01*
X47272872Y52149501D01*
X47332483Y52155909D01*
X47432428Y52193186D01*
X47467329Y52206203D01*
X47467329Y52206204D01*
X47467331Y52206204D01*
X47582546Y52292454D01*
X47668796Y52407669D01*
X47671610Y52415212D01*
X47707108Y52510390D01*
X47719091Y52542517D01*
X47725500Y52602127D01*
X47725499Y53397872D01*
X47719091Y53457483D01*
X47710881Y53479496D01*
X47668797Y53592330D01*
X47582549Y53707542D01*
X47582548Y53707543D01*
X47582546Y53707546D01*
X47557076Y53726613D01*
X47467329Y53793798D01*
X47332488Y53844090D01*
X47332483Y53844091D01*
X47332481Y53844092D01*
X47332477Y53844092D01*
X47301249Y53847450D01*
X47272873Y53850500D01*
X47272870Y53850500D01*
X45927133Y53850500D01*
X45927129Y53850500D01*
X45927128Y53850499D01*
X45919949Y53849728D01*
X45867519Y53844092D01*
X45867514Y53844091D01*
X45732670Y53793798D01*
X45617458Y53707550D01*
X45617450Y53707542D01*
X45531202Y53592330D01*
X45480910Y53457489D01*
X45480908Y53457478D01*
X45477102Y53422074D01*
X45474783Y53400500D01*
X45474500Y53397871D01*
X41728999Y53397871D01*
X41732932Y53488320D01*
X41754349Y53545634D01*
X41761836Y53554023D01*
X41765705Y53557892D01*
X41800500Y53592686D01*
X41800501Y53592689D01*
X41800503Y53592690D01*
X41866390Y53706810D01*
X41866390Y53706812D01*
X41866392Y53706814D01*
X41900500Y53834108D01*
X41900500Y53965892D01*
X41866392Y54093186D01*
X41866390Y54093189D01*
X41866390Y54093191D01*
X41800503Y54207310D01*
X41800501Y54207312D01*
X41800500Y54207314D01*
X41707314Y54300500D01*
X41707311Y54300502D01*
X41707309Y54300504D01*
X41593189Y54366391D01*
X41593191Y54366391D01*
X41543799Y54379625D01*
X41465892Y54400500D01*
X41334108Y54400500D01*
X41256200Y54379625D01*
X41206809Y54366391D01*
X41092690Y54300504D01*
X40999496Y54207310D01*
X40933609Y54093191D01*
X40926294Y54065891D01*
X40899500Y53965892D01*
X40899500Y53834108D01*
X40922640Y53747747D01*
X40933609Y53706810D01*
X40999496Y53592691D01*
X40999498Y53592689D01*
X40999500Y53592686D01*
X41003500Y53588686D01*
X41031276Y53534171D01*
X41032402Y53514384D01*
X40967066Y52011682D01*
X40945648Y51954367D01*
X40938164Y51945980D01*
X40899499Y51907315D01*
X40833609Y51793191D01*
X40821003Y51746144D01*
X40799500Y51665892D01*
X36761573Y51665892D01*
X38580470Y53484788D01*
X38626614Y53564712D01*
X38630835Y53580467D01*
X38630837Y53580470D01*
X38630836Y53580470D01*
X38639576Y53613088D01*
X38650500Y53653856D01*
X38650500Y55852383D01*
X38669407Y55910574D01*
X38718907Y55946538D01*
X38780093Y55946538D01*
X38799002Y55938118D01*
X38806810Y55933610D01*
X38806811Y55933610D01*
X38806814Y55933608D01*
X38934108Y55899500D01*
X38934110Y55899500D01*
X39065890Y55899500D01*
X39065892Y55899500D01*
X39193186Y55933608D01*
X39193188Y55933610D01*
X39193190Y55933610D01*
X39307309Y55999497D01*
X39307309Y55999498D01*
X39307314Y55999500D01*
X39400500Y56092686D01*
X39428580Y56141322D01*
X39466390Y56206810D01*
X39466390Y56206812D01*
X39466392Y56206814D01*
X39500500Y56334108D01*
X39500500Y56465892D01*
X39466392Y56593186D01*
X39466390Y56593189D01*
X39466390Y56593191D01*
X39400503Y56707310D01*
X39400498Y56707316D01*
X39379495Y56728320D01*
X39351719Y56782837D01*
X39350500Y56798322D01*
X39350500Y57201679D01*
X39369407Y57259870D01*
X39379490Y57271677D01*
X39400500Y57292686D01*
X39417478Y57322093D01*
X39466390Y57406810D01*
X39466390Y57406812D01*
X39466392Y57406814D01*
X39500500Y57534108D01*
X39500500Y57665892D01*
X39466392Y57793186D01*
X39466390Y57793189D01*
X39466390Y57793191D01*
X39400503Y57907310D01*
X39400501Y57907312D01*
X39400500Y57907314D01*
X39307314Y58000500D01*
X39307311Y58000502D01*
X39307309Y58000504D01*
X39193189Y58066391D01*
X39193191Y58066391D01*
X39130061Y58083306D01*
X39065892Y58100500D01*
X38934108Y58100500D01*
X38869939Y58083306D01*
X38806809Y58066391D01*
X38692690Y58000504D01*
X38599496Y57907310D01*
X38533609Y57793191D01*
X38519304Y57739803D01*
X38499500Y57665892D01*
X38499500Y57534108D01*
X38521003Y57453858D01*
X38533609Y57406810D01*
X38599496Y57292691D01*
X38599498Y57292689D01*
X38599500Y57292686D01*
X38620505Y57271681D01*
X38648281Y57217166D01*
X38649500Y57201679D01*
X38649500Y57085189D01*
X38630593Y57026998D01*
X38581093Y56991034D01*
X38519907Y56991034D01*
X38480496Y57015185D01*
X38468683Y57026998D01*
X38415212Y57080470D01*
X38415210Y57080471D01*
X38409569Y57086113D01*
X38409565Y57086116D01*
X38361573Y57134108D01*
X38315212Y57180470D01*
X38315211Y57180471D01*
X38309572Y57186110D01*
X38309565Y57186116D01*
X38215212Y57280470D01*
X37915212Y57580470D01*
X37835288Y57626614D01*
X37835285Y57626615D01*
X37835232Y57626637D01*
X37834503Y57626825D01*
X37768510Y57644507D01*
X37746144Y57650500D01*
X33020544Y57650500D01*
X32962353Y57669407D01*
X32926389Y57718907D01*
X32926389Y57780093D01*
X32950540Y57819504D01*
X33115826Y57984790D01*
X33500474Y58369437D01*
X33500474Y58369438D01*
X33600475Y58469439D01*
X33600474Y58469439D01*
X33700473Y58569436D01*
X33700474Y58569437D01*
X33744109Y58613074D01*
X33753560Y58621392D01*
X33768725Y58633109D01*
X33779340Y58647043D01*
X33788077Y58657041D01*
X33800474Y58669437D01*
X33810050Y58686025D01*
X33817036Y58696519D01*
X35379351Y60747057D01*
X35388081Y60757046D01*
X35500474Y60869437D01*
X35600474Y60969437D01*
X35625980Y60994945D01*
X35626733Y60995604D01*
X35630919Y60999801D01*
X35630922Y60999802D01*
X35665541Y61034506D01*
X35665652Y61034562D01*
X35665625Y61034589D01*
X35680562Y61049526D01*
X35700474Y61069437D01*
X35700588Y61069635D01*
X35700750Y61069797D01*
X35725461Y61112717D01*
X35749910Y61155063D01*
X35749968Y61155282D01*
X35750084Y61155482D01*
X35752860Y61165892D01*
X38099500Y61165892D01*
X38099500Y61034108D01*
X38119778Y60958430D01*
X38133609Y60906810D01*
X38199496Y60792691D01*
X38199498Y60792689D01*
X38199500Y60792686D01*
X38220505Y60771681D01*
X38248281Y60717166D01*
X38249500Y60701679D01*
X38249500Y59898322D01*
X38230593Y59840131D01*
X38220505Y59828320D01*
X38199501Y59807316D01*
X38199496Y59807310D01*
X38133609Y59693191D01*
X38126428Y59666391D01*
X38099500Y59565892D01*
X38099500Y59434108D01*
X38112361Y59386110D01*
X38133609Y59306810D01*
X38199496Y59192691D01*
X38199498Y59192689D01*
X38199500Y59192686D01*
X38292686Y59099500D01*
X38292688Y59099499D01*
X38292690Y59099497D01*
X38406810Y59033610D01*
X38406808Y59033610D01*
X38406812Y59033609D01*
X38406814Y59033608D01*
X38534108Y58999500D01*
X38534110Y58999500D01*
X38665890Y58999500D01*
X38665892Y58999500D01*
X38793186Y59033608D01*
X38793188Y59033610D01*
X38793190Y59033610D01*
X38907309Y59099497D01*
X38907309Y59099498D01*
X38907314Y59099500D01*
X39000500Y59192686D01*
X39019494Y59225585D01*
X39066390Y59306810D01*
X39066390Y59306812D01*
X39066392Y59306814D01*
X39100500Y59434108D01*
X39100500Y59565892D01*
X39066392Y59693186D01*
X39066390Y59693189D01*
X39066390Y59693191D01*
X39000503Y59807310D01*
X39000498Y59807316D01*
X38979495Y59828320D01*
X38951719Y59882837D01*
X38950500Y59898322D01*
X38950500Y60106291D01*
X45149500Y60106291D01*
X45149500Y59893710D01*
X45182752Y59683762D01*
X45248443Y59481588D01*
X45344948Y59292185D01*
X45344950Y59292181D01*
X45469891Y59120214D01*
X45469893Y59120212D01*
X45469896Y59120208D01*
X45620208Y58969896D01*
X45620211Y58969894D01*
X45620213Y58969892D01*
X45792180Y58844951D01*
X45792184Y58844949D01*
X45981588Y58748443D01*
X46183757Y58682754D01*
X46183758Y58682754D01*
X46183761Y58682753D01*
X46393710Y58649500D01*
X46393713Y58649500D01*
X46606290Y58649500D01*
X46816238Y58682753D01*
X46816239Y58682754D01*
X46816243Y58682754D01*
X47018412Y58748443D01*
X47207816Y58844949D01*
X47215457Y58850500D01*
X47291059Y58905428D01*
X47379792Y58969896D01*
X47530104Y59120208D01*
X47618008Y59241198D01*
X47655049Y59292181D01*
X47655051Y59292184D01*
X47751557Y59481588D01*
X47817246Y59683757D01*
X47818661Y59692691D01*
X47850500Y59893710D01*
X47850500Y60106291D01*
X47817247Y60316239D01*
X47801114Y60365892D01*
X47751557Y60518412D01*
X47655051Y60707816D01*
X47655049Y60707820D01*
X47530108Y60879787D01*
X47530106Y60879789D01*
X47530104Y60879792D01*
X47379792Y61030104D01*
X47379788Y61030107D01*
X47379786Y61030109D01*
X47207819Y61155050D01*
X47207815Y61155052D01*
X47018412Y61251557D01*
X46816238Y61317248D01*
X46606290Y61350500D01*
X46606287Y61350500D01*
X46393713Y61350500D01*
X46393710Y61350500D01*
X46183761Y61317248D01*
X45981587Y61251557D01*
X45792184Y61155052D01*
X45792180Y61155050D01*
X45620213Y61030109D01*
X45469891Y60879787D01*
X45344950Y60707820D01*
X45344948Y60707816D01*
X45248443Y60518413D01*
X45182752Y60316239D01*
X45149500Y60106291D01*
X38950500Y60106291D01*
X38950500Y60701679D01*
X38969407Y60759870D01*
X38979490Y60771677D01*
X39000500Y60792686D01*
X39003781Y60798368D01*
X39066390Y60906810D01*
X39066390Y60906812D01*
X39066392Y60906814D01*
X39100500Y61034108D01*
X39100500Y61165892D01*
X39066392Y61293186D01*
X39066390Y61293189D01*
X39066390Y61293191D01*
X39000503Y61407310D01*
X39000501Y61407312D01*
X39000500Y61407314D01*
X38907314Y61500500D01*
X38907311Y61500502D01*
X38907309Y61500504D01*
X38793189Y61566391D01*
X38793191Y61566391D01*
X38724534Y61584787D01*
X38665892Y61600500D01*
X38534108Y61600500D01*
X38475466Y61584787D01*
X38406809Y61566391D01*
X38292690Y61500504D01*
X38199496Y61407310D01*
X38133609Y61293191D01*
X38117244Y61232113D01*
X38099500Y61165892D01*
X35752860Y61165892D01*
X35762857Y61203385D01*
X35775500Y61250564D01*
X35775500Y61250565D01*
X35777018Y61256229D01*
X35777213Y61257219D01*
X36066599Y62342416D01*
X36099861Y62393769D01*
X36102266Y62395423D01*
X36102168Y62395551D01*
X36107307Y62399495D01*
X36107309Y62399498D01*
X36107314Y62399500D01*
X36200500Y62492686D01*
X36228507Y62541195D01*
X36266390Y62606810D01*
X36266390Y62606812D01*
X36266392Y62606814D01*
X36300500Y62734108D01*
X36300500Y62865892D01*
X36266392Y62993186D01*
X36266390Y62993189D01*
X36266390Y62993191D01*
X36200503Y63107310D01*
X36200501Y63107312D01*
X36200500Y63107314D01*
X36107314Y63200500D01*
X36107311Y63200502D01*
X36107309Y63200504D01*
X35993189Y63266391D01*
X35993191Y63266391D01*
X35943799Y63279625D01*
X35865892Y63300500D01*
X35734108Y63300500D01*
X35656200Y63279625D01*
X35606809Y63266391D01*
X35492690Y63200504D01*
X35464569Y63172383D01*
X35410052Y63144607D01*
X35349620Y63154179D01*
X35308830Y63192887D01*
X35300501Y63207312D01*
X35300500Y63207314D01*
X35207314Y63300500D01*
X35207311Y63300502D01*
X35207309Y63300504D01*
X35093189Y63366391D01*
X35093191Y63366391D01*
X35022545Y63385320D01*
X34965892Y63400500D01*
X34965890Y63400500D01*
X34948322Y63400500D01*
X34890131Y63419407D01*
X34878318Y63429496D01*
X34557340Y63750474D01*
X34556211Y63751622D01*
X34513784Y63795452D01*
X34511343Y63797389D01*
X34511180Y63797534D01*
X34509971Y63798478D01*
X34509783Y63798606D01*
X34507317Y63800498D01*
X34458847Y63828483D01*
X34453793Y63831401D01*
X34400743Y63863190D01*
X34396765Y63864326D01*
X34393186Y63866392D01*
X34346832Y63878813D01*
X34346823Y63878817D01*
X34334264Y63882182D01*
X34332717Y63882610D01*
X34274022Y63899363D01*
X34270919Y63899823D01*
X34270694Y63899870D01*
X34269238Y63900073D01*
X34269218Y63900076D01*
X34268988Y63900093D01*
X34265894Y63900500D01*
X34265892Y63900500D01*
X34204906Y63900500D01*
X34203296Y63900513D01*
X30755232Y63956580D01*
X30728083Y63965892D01*
X39599500Y63965892D01*
X39599500Y62434108D01*
X39613872Y62380471D01*
X39633609Y62306810D01*
X39699496Y62192691D01*
X39699498Y62192689D01*
X39699500Y62192686D01*
X39792686Y62099500D01*
X39792688Y62099499D01*
X39792690Y62099497D01*
X39906810Y62033610D01*
X39906808Y62033610D01*
X39906812Y62033609D01*
X39906814Y62033608D01*
X40034108Y61999500D01*
X40034110Y61999500D01*
X40165890Y61999500D01*
X40165892Y61999500D01*
X40293186Y62033608D01*
X40293188Y62033610D01*
X40293190Y62033610D01*
X40407309Y62099497D01*
X40407309Y62099498D01*
X40407314Y62099500D01*
X40500500Y62192686D01*
X40513505Y62215211D01*
X40566390Y62306810D01*
X40566390Y62306812D01*
X40566392Y62306814D01*
X40600500Y62434108D01*
X40600500Y63965892D01*
X40566392Y64093186D01*
X40566390Y64093189D01*
X40566390Y64093191D01*
X40500503Y64207310D01*
X40500501Y64207312D01*
X40500500Y64207314D01*
X40407314Y64300500D01*
X40407311Y64300502D01*
X40407309Y64300504D01*
X40293189Y64366391D01*
X40293191Y64366391D01*
X40238339Y64381088D01*
X40165892Y64400500D01*
X40034108Y64400500D01*
X39961661Y64381088D01*
X39906809Y64366391D01*
X39792690Y64300504D01*
X39699496Y64207310D01*
X39633609Y64093191D01*
X39633608Y64093186D01*
X39599500Y63965892D01*
X30728083Y63965892D01*
X30697357Y63976431D01*
X30662202Y64026509D01*
X30663197Y64087686D01*
X30680315Y64118373D01*
X30682941Y64121575D01*
X30682951Y64121584D01*
X30765084Y64244505D01*
X30821658Y64381087D01*
X30840992Y64478286D01*
X30870889Y64531669D01*
X30926454Y64557285D01*
X30986464Y64545348D01*
X30987592Y64544706D01*
X31006810Y64533610D01*
X31006811Y64533610D01*
X31006814Y64533608D01*
X31134108Y64499500D01*
X31134110Y64499500D01*
X31265890Y64499500D01*
X31265892Y64499500D01*
X31393186Y64533608D01*
X31393188Y64533610D01*
X31393190Y64533610D01*
X31507309Y64599497D01*
X31507309Y64599498D01*
X31507314Y64599500D01*
X31600500Y64692686D01*
X31605009Y64700496D01*
X31666390Y64806810D01*
X31666390Y64806812D01*
X31666392Y64806814D01*
X31700500Y64934108D01*
X31700500Y65065892D01*
X31666392Y65193186D01*
X31666389Y65193190D01*
X31665031Y65198261D01*
X31668233Y65259362D01*
X31706739Y65306912D01*
X31758352Y65322856D01*
X32508549Y65340304D01*
X32567161Y65322755D01*
X32580845Y65311341D01*
X32592686Y65299500D01*
X32592688Y65299499D01*
X32592690Y65299497D01*
X32706810Y65233610D01*
X32706808Y65233610D01*
X32706812Y65233609D01*
X32706814Y65233608D01*
X32834108Y65199500D01*
X32834110Y65199500D01*
X32965890Y65199500D01*
X32965892Y65199500D01*
X33093186Y65233608D01*
X33093188Y65233610D01*
X33093190Y65233610D01*
X33207309Y65299497D01*
X33207309Y65299498D01*
X33207314Y65299500D01*
X33300500Y65392686D01*
X33304434Y65399500D01*
X33366390Y65506810D01*
X33366390Y65506812D01*
X33366392Y65506814D01*
X33400500Y65634108D01*
X33400500Y65765892D01*
X33371297Y65874880D01*
X33374500Y65935978D01*
X33413005Y65983528D01*
X33466924Y65999500D01*
X34551678Y65999500D01*
X34609869Y65980593D01*
X34621681Y65970504D01*
X35092685Y65499501D01*
X35092690Y65499497D01*
X35206810Y65433610D01*
X35206808Y65433610D01*
X35206812Y65433609D01*
X35206814Y65433608D01*
X35334107Y65399500D01*
X35334108Y65399500D01*
X35334109Y65399500D01*
X35465890Y65399500D01*
X35465892Y65399500D01*
X35593186Y65433608D01*
X35593188Y65433610D01*
X35593190Y65433610D01*
X35707309Y65499497D01*
X35707309Y65499498D01*
X35707314Y65499500D01*
X35712487Y65504673D01*
X41649500Y65504673D01*
X41649500Y63855328D01*
X41649501Y63855316D01*
X41664033Y63782264D01*
X41664035Y63782258D01*
X41719397Y63699401D01*
X41719399Y63699399D01*
X41802260Y63644034D01*
X41857808Y63632985D01*
X41875315Y63629502D01*
X41875320Y63629502D01*
X41875326Y63629500D01*
X41875327Y63629500D01*
X43524673Y63629500D01*
X43524674Y63629500D01*
X43597740Y63644034D01*
X43680601Y63699399D01*
X43735966Y63782260D01*
X43750500Y63855326D01*
X43750500Y64783468D01*
X44149500Y64783468D01*
X44149500Y64576533D01*
X44189869Y64373582D01*
X44269058Y64182403D01*
X44384020Y64010349D01*
X44384023Y64010345D01*
X44530345Y63864023D01*
X44702402Y63749059D01*
X44893580Y63669870D01*
X45096535Y63629500D01*
X45096536Y63629500D01*
X45303464Y63629500D01*
X45303465Y63629500D01*
X45506420Y63669870D01*
X45697598Y63749059D01*
X45869655Y63864023D01*
X46015977Y64010345D01*
X46130941Y64182402D01*
X46210130Y64373580D01*
X46250500Y64576535D01*
X46250500Y64783465D01*
X46210130Y64986420D01*
X46130941Y65177598D01*
X46015977Y65349655D01*
X45869655Y65495977D01*
X45864387Y65499497D01*
X45697597Y65610942D01*
X45506418Y65690131D01*
X45303467Y65730500D01*
X45303465Y65730500D01*
X45096535Y65730500D01*
X45096532Y65730500D01*
X44893581Y65690131D01*
X44702402Y65610942D01*
X44530348Y65495980D01*
X44384020Y65349652D01*
X44269058Y65177598D01*
X44189869Y64986419D01*
X44149500Y64783468D01*
X43750500Y64783468D01*
X43750500Y65504674D01*
X43735966Y65577740D01*
X43698303Y65634108D01*
X43680602Y65660600D01*
X43680599Y65660603D01*
X43597742Y65715965D01*
X43597740Y65715966D01*
X43597737Y65715967D01*
X43597736Y65715967D01*
X43524684Y65730499D01*
X43524674Y65730500D01*
X41875326Y65730500D01*
X41875325Y65730500D01*
X41875315Y65730499D01*
X41802263Y65715967D01*
X41802257Y65715965D01*
X41719400Y65660603D01*
X41719397Y65660600D01*
X41664035Y65577743D01*
X41664033Y65577737D01*
X41649501Y65504685D01*
X41649500Y65504673D01*
X35712487Y65504673D01*
X35800500Y65592686D01*
X35839712Y65660603D01*
X35866390Y65706810D01*
X35866390Y65706812D01*
X35866392Y65706814D01*
X35900500Y65834108D01*
X35900500Y65965892D01*
X35900366Y65966391D01*
X35891494Y65999500D01*
X35890903Y66001707D01*
X35866392Y66093186D01*
X35800500Y66207314D01*
X35276817Y66730997D01*
X35249040Y66785514D01*
X35258611Y66845946D01*
X35301876Y66889211D01*
X35346821Y66900001D01*
X49600500Y66900001D01*
X49658691Y66881094D01*
X49694655Y66831594D01*
X49699500Y66801001D01*
X49699500Y399500D01*
X49680593Y341309D01*
X49631093Y305345D01*
X49600500Y300500D01*
X399500Y300500D01*
X341309Y319407D01*
X305345Y368907D01*
X300500Y399500D01*
X300500Y3606291D01*
X2149500Y3606291D01*
X2149500Y3393710D01*
X2182752Y3183762D01*
X2248443Y2981588D01*
X2344948Y2792185D01*
X2344950Y2792181D01*
X2469891Y2620214D01*
X2469893Y2620212D01*
X2469896Y2620208D01*
X2620208Y2469896D01*
X2620211Y2469894D01*
X2620213Y2469892D01*
X2792180Y2344951D01*
X2792184Y2344949D01*
X2981588Y2248443D01*
X3183757Y2182754D01*
X3183758Y2182754D01*
X3183761Y2182753D01*
X3393710Y2149500D01*
X3393713Y2149500D01*
X3606290Y2149500D01*
X3816238Y2182753D01*
X3816239Y2182754D01*
X3816243Y2182754D01*
X4018412Y2248443D01*
X4207816Y2344949D01*
X4379792Y2469896D01*
X4530104Y2620208D01*
X4655051Y2792184D01*
X4751557Y2981588D01*
X4817246Y3183757D01*
X4850500Y3393713D01*
X4850500Y3606287D01*
X4850500Y3606291D01*
X45149500Y3606291D01*
X45149500Y3393710D01*
X45182752Y3183762D01*
X45248443Y2981588D01*
X45344948Y2792185D01*
X45344950Y2792181D01*
X45469891Y2620214D01*
X45469893Y2620212D01*
X45469896Y2620208D01*
X45620208Y2469896D01*
X45620211Y2469894D01*
X45620213Y2469892D01*
X45792180Y2344951D01*
X45792184Y2344949D01*
X45981588Y2248443D01*
X46183757Y2182754D01*
X46183758Y2182754D01*
X46183761Y2182753D01*
X46393710Y2149500D01*
X46393713Y2149500D01*
X46606290Y2149500D01*
X46816238Y2182753D01*
X46816239Y2182754D01*
X46816243Y2182754D01*
X47018412Y2248443D01*
X47207816Y2344949D01*
X47379792Y2469896D01*
X47530104Y2620208D01*
X47655051Y2792184D01*
X47751557Y2981588D01*
X47817246Y3183757D01*
X47850500Y3393713D01*
X47850500Y3606287D01*
X47850500Y3606291D01*
X47817247Y3816239D01*
X47817246Y3816243D01*
X47751557Y4018412D01*
X47655051Y4207816D01*
X47655049Y4207820D01*
X47530108Y4379787D01*
X47530106Y4379789D01*
X47530104Y4379792D01*
X47379792Y4530104D01*
X47379788Y4530107D01*
X47379786Y4530109D01*
X47207819Y4655050D01*
X47207815Y4655052D01*
X47018412Y4751557D01*
X46816238Y4817248D01*
X46606290Y4850500D01*
X46606287Y4850500D01*
X46393713Y4850500D01*
X46393710Y4850500D01*
X46183761Y4817248D01*
X45981587Y4751557D01*
X45792184Y4655052D01*
X45792180Y4655050D01*
X45620213Y4530109D01*
X45469891Y4379787D01*
X45344950Y4207820D01*
X45344948Y4207816D01*
X45248443Y4018413D01*
X45182752Y3816239D01*
X45149500Y3606291D01*
X4850500Y3606291D01*
X4817247Y3816239D01*
X4817246Y3816243D01*
X4751557Y4018412D01*
X4655051Y4207816D01*
X4655049Y4207820D01*
X4530108Y4379787D01*
X4530106Y4379789D01*
X4530104Y4379792D01*
X4379792Y4530104D01*
X4379788Y4530107D01*
X4379786Y4530109D01*
X4207819Y4655050D01*
X4207815Y4655052D01*
X4018412Y4751557D01*
X3816238Y4817248D01*
X3606290Y4850500D01*
X3606287Y4850500D01*
X3393713Y4850500D01*
X3393710Y4850500D01*
X3183761Y4817248D01*
X2981587Y4751557D01*
X2792184Y4655052D01*
X2792180Y4655050D01*
X2620213Y4530109D01*
X2469891Y4379787D01*
X2344950Y4207820D01*
X2344948Y4207816D01*
X2248443Y4018413D01*
X2182752Y3816239D01*
X2149500Y3606291D01*
X300500Y3606291D01*
X300500Y49135766D01*
X5674500Y49135766D01*
X5674500Y48984234D01*
X5695577Y48905573D01*
X5713720Y48837861D01*
X5789481Y48706640D01*
X5789483Y48706638D01*
X5789485Y48706635D01*
X5896635Y48599485D01*
X5896637Y48599484D01*
X5896639Y48599482D01*
X6027861Y48523721D01*
X6027859Y48523721D01*
X6027863Y48523720D01*
X6027865Y48523719D01*
X6174234Y48484500D01*
X6174236Y48484500D01*
X6325764Y48484500D01*
X6325766Y48484500D01*
X6472135Y48523719D01*
X6472137Y48523721D01*
X6472139Y48523721D01*
X6603360Y48599482D01*
X6603360Y48599483D01*
X6603365Y48599485D01*
X6710515Y48706635D01*
X6748119Y48771766D01*
X6786279Y48837861D01*
X6786279Y48837863D01*
X6786281Y48837865D01*
X6825500Y48984234D01*
X6825500Y49135766D01*
X6811400Y49188388D01*
X8146666Y49188388D01*
X8148176Y49179248D01*
X8149500Y49163111D01*
X8149500Y48153856D01*
X8151896Y48144915D01*
X8167325Y48087331D01*
X8173386Y48064710D01*
X8186235Y48042457D01*
X8199500Y47992955D01*
X8199500Y47934108D01*
X8223107Y47846006D01*
X8233609Y47806810D01*
X8299496Y47692691D01*
X8299498Y47692689D01*
X8299500Y47692686D01*
X8392686Y47599500D01*
X8392688Y47599499D01*
X8392690Y47599497D01*
X8506810Y47533610D01*
X8506808Y47533610D01*
X8506812Y47533609D01*
X8506814Y47533608D01*
X8634108Y47499500D01*
X8634110Y47499500D01*
X8765890Y47499500D01*
X8765892Y47499500D01*
X8893186Y47533608D01*
X8893188Y47533610D01*
X8893190Y47533610D01*
X9007309Y47599497D01*
X9007309Y47599498D01*
X9007314Y47599500D01*
X9100500Y47692686D01*
X9102400Y47695977D01*
X9166390Y47806810D01*
X9166390Y47806812D01*
X9166392Y47806814D01*
X9200500Y47934108D01*
X9200500Y48065892D01*
X9166392Y48193186D01*
X9166390Y48193190D01*
X9165402Y48196877D01*
X9168604Y48257978D01*
X9207110Y48305528D01*
X9235403Y48318126D01*
X9293186Y48333608D01*
X9395512Y48392686D01*
X9407309Y48399497D01*
X9407309Y48399498D01*
X9407314Y48399500D01*
X10300500Y49292686D01*
X10304433Y49299498D01*
X10366390Y49406810D01*
X10366390Y49406812D01*
X10366392Y49406814D01*
X10400500Y49534108D01*
X10400500Y49665893D01*
X10400500Y53551680D01*
X10419407Y53609871D01*
X10429490Y53621677D01*
X10819779Y54011967D01*
X10851903Y54033429D01*
X10855495Y54034916D01*
X10978416Y54117049D01*
X11082951Y54221584D01*
X11165084Y54344505D01*
X11221658Y54481087D01*
X11250500Y54626082D01*
X11250500Y54773918D01*
X11221658Y54918913D01*
X11165084Y55055495D01*
X11082951Y55178416D01*
X10978416Y55282951D01*
X10855495Y55365084D01*
X10853547Y55365891D01*
X10718914Y55421658D01*
X10573918Y55450500D01*
X10426082Y55450500D01*
X10426081Y55450500D01*
X10281085Y55421658D01*
X10144506Y55365085D01*
X10021585Y55282952D01*
X9917048Y55178415D01*
X9834915Y55055494D01*
X9778342Y54918915D01*
X9753333Y54793186D01*
X9749500Y54773918D01*
X9749500Y54626082D01*
X9778342Y54481087D01*
X9780832Y54475076D01*
X9785633Y54414081D01*
X9759372Y54367188D01*
X9592686Y54200501D01*
X9592686Y54200500D01*
X9512526Y54120340D01*
X9458009Y54092563D01*
X9397577Y54102134D01*
X9354312Y54145399D01*
X9343997Y54200033D01*
X9409928Y54870327D01*
X9434440Y54926384D01*
X9438428Y54930616D01*
X9500500Y54992686D01*
X9525096Y55035288D01*
X9566390Y55106810D01*
X9566390Y55106812D01*
X9566392Y55106814D01*
X9600500Y55234108D01*
X9600500Y55365892D01*
X9566392Y55493186D01*
X9566390Y55493189D01*
X9566390Y55493191D01*
X9500503Y55607310D01*
X9500501Y55607312D01*
X9500500Y55607314D01*
X9407314Y55700500D01*
X9407311Y55700502D01*
X9407309Y55700504D01*
X9293189Y55766391D01*
X9293191Y55766391D01*
X9224534Y55784787D01*
X9165892Y55800500D01*
X9034108Y55800500D01*
X8975466Y55784787D01*
X8906809Y55766391D01*
X8792690Y55700504D01*
X8699496Y55607310D01*
X8633609Y55493191D01*
X8621003Y55446144D01*
X8599500Y55365892D01*
X8599500Y55234108D01*
X8614423Y55178415D01*
X8633609Y55106810D01*
X8699046Y54993471D01*
X8711835Y54934280D01*
X8154792Y49271012D01*
X8151895Y49255087D01*
X8149501Y49246151D01*
X8149500Y49246142D01*
X8149500Y49222062D01*
X8149025Y49212372D01*
X8146666Y49188388D01*
X6811400Y49188388D01*
X6786281Y49282135D01*
X6786279Y49282138D01*
X6786279Y49282140D01*
X6710518Y49413361D01*
X6710516Y49413363D01*
X6710515Y49413365D01*
X6603365Y49520515D01*
X6603362Y49520517D01*
X6603360Y49520519D01*
X6472138Y49596280D01*
X6472140Y49596280D01*
X6385468Y49619503D01*
X6325766Y49635500D01*
X6174234Y49635500D01*
X6114532Y49619503D01*
X6027860Y49596280D01*
X5896639Y49520519D01*
X5789481Y49413361D01*
X5713720Y49282140D01*
X5706048Y49253506D01*
X5674500Y49135766D01*
X300500Y49135766D01*
X300500Y54915766D01*
X5674500Y54915766D01*
X5674500Y54764234D01*
X5700850Y54665892D01*
X5713720Y54617861D01*
X5789481Y54486640D01*
X5789483Y54486638D01*
X5789485Y54486635D01*
X5896635Y54379485D01*
X5896637Y54379484D01*
X5896639Y54379482D01*
X6027861Y54303721D01*
X6027859Y54303721D01*
X6027863Y54303720D01*
X6027865Y54303719D01*
X6174234Y54264500D01*
X6174236Y54264500D01*
X6325764Y54264500D01*
X6325766Y54264500D01*
X6472135Y54303719D01*
X6472137Y54303721D01*
X6472139Y54303721D01*
X6603360Y54379482D01*
X6603360Y54379483D01*
X6603365Y54379485D01*
X6710515Y54486635D01*
X6772034Y54593188D01*
X6786279Y54617861D01*
X6786279Y54617863D01*
X6786281Y54617865D01*
X6825500Y54764234D01*
X6825500Y54915766D01*
X6786281Y55062135D01*
X6786279Y55062138D01*
X6786279Y55062140D01*
X6710518Y55193361D01*
X6710516Y55193363D01*
X6710515Y55193365D01*
X6603365Y55300515D01*
X6603362Y55300517D01*
X6603360Y55300519D01*
X6472138Y55376280D01*
X6472140Y55376280D01*
X6410910Y55392686D01*
X6325766Y55415500D01*
X6174234Y55415500D01*
X6089090Y55392686D01*
X6027860Y55376280D01*
X5896639Y55300519D01*
X5789481Y55193361D01*
X5713720Y55062140D01*
X5691793Y54980307D01*
X5674500Y54915766D01*
X300500Y54915766D01*
X300500Y60106291D01*
X2149500Y60106291D01*
X2149500Y59893710D01*
X2182752Y59683762D01*
X2248443Y59481588D01*
X2344948Y59292185D01*
X2344950Y59292181D01*
X2469891Y59120214D01*
X2469893Y59120212D01*
X2469896Y59120208D01*
X2620208Y58969896D01*
X2620211Y58969894D01*
X2620213Y58969892D01*
X2792180Y58844951D01*
X2792184Y58844949D01*
X2981588Y58748443D01*
X3183757Y58682754D01*
X3183758Y58682754D01*
X3183761Y58682753D01*
X3393710Y58649500D01*
X3393713Y58649500D01*
X3606290Y58649500D01*
X3816238Y58682753D01*
X3816239Y58682754D01*
X3816243Y58682754D01*
X4018412Y58748443D01*
X4207816Y58844949D01*
X4215457Y58850500D01*
X4291059Y58905428D01*
X4379792Y58969896D01*
X4530104Y59120208D01*
X4618008Y59241198D01*
X4655049Y59292181D01*
X4655051Y59292184D01*
X4751557Y59481588D01*
X4817246Y59683757D01*
X4818661Y59692691D01*
X4850500Y59893710D01*
X4850500Y60106291D01*
X4817247Y60316239D01*
X4801114Y60365892D01*
X4751557Y60518412D01*
X4655051Y60707816D01*
X4655049Y60707820D01*
X4530108Y60879787D01*
X4530106Y60879789D01*
X4530104Y60879792D01*
X4379792Y61030104D01*
X4379788Y61030107D01*
X4379786Y61030109D01*
X4207819Y61155050D01*
X4207815Y61155052D01*
X4018412Y61251557D01*
X3816238Y61317248D01*
X3606290Y61350500D01*
X3606287Y61350500D01*
X3393713Y61350500D01*
X3393710Y61350500D01*
X3183761Y61317248D01*
X2981587Y61251557D01*
X2792184Y61155052D01*
X2792180Y61155050D01*
X2620213Y61030109D01*
X2469891Y60879787D01*
X2344950Y60707820D01*
X2344948Y60707816D01*
X2248443Y60518413D01*
X2182752Y60316239D01*
X2149500Y60106291D01*
X300500Y60106291D01*
X300500Y66801001D01*
X319407Y66859192D01*
X368907Y66895156D01*
X399500Y66900001D01*
X22665894Y66900001D01*
X22724085Y66881094D01*
G37*
%TD.AperFunction*%
%TA.AperFunction,Conductor*%
G36*
X25901557Y61128320D02*
G01*
X25959366Y61108276D01*
X25969619Y61099344D01*
X27002841Y60066121D01*
X27987489Y59081473D01*
X28004027Y59059548D01*
X28414181Y58321271D01*
X28940784Y57373386D01*
X28944778Y57366198D01*
X28949696Y57356013D01*
X28950087Y57355068D01*
X28950090Y57355063D01*
X28970091Y57320419D01*
X28972849Y57315643D01*
X28973654Y57314221D01*
X28995760Y57274429D01*
X28996387Y57273583D01*
X28996634Y57273207D01*
X28997089Y57272614D01*
X28998092Y57271284D01*
X28998583Y57270622D01*
X28998893Y57270262D01*
X28999523Y57269441D01*
X28999524Y57269440D01*
X28999526Y57269437D01*
X29017844Y57251119D01*
X29031748Y57237215D01*
X29032835Y57236110D01*
X29064512Y57203370D01*
X29064514Y57203369D01*
X29064518Y57203365D01*
X29065308Y57202738D01*
X29073759Y57195204D01*
X29300506Y56968457D01*
X29313118Y56953002D01*
X29313878Y56951851D01*
X29313881Y56951847D01*
X29340209Y56928501D01*
X29344528Y56924434D01*
X29360698Y56908265D01*
X29369437Y56899526D01*
X29370636Y56898834D01*
X29386820Y56887168D01*
X29387852Y56886253D01*
X29387853Y56886253D01*
X29387855Y56886251D01*
X29419350Y56870504D01*
X29424578Y56867691D01*
X29448725Y56853749D01*
X29455063Y56850090D01*
X29455064Y56850090D01*
X29455066Y56850089D01*
X29456394Y56849733D01*
X29475050Y56842654D01*
X29559356Y56800500D01*
X29619346Y56770505D01*
X29624573Y56767693D01*
X29655062Y56750090D01*
X29656397Y56749732D01*
X29675047Y56742654D01*
X29676287Y56742034D01*
X29710792Y56734974D01*
X29716547Y56733615D01*
X29735912Y56728427D01*
X29750562Y56724501D01*
X29750564Y56724500D01*
X29750565Y56724500D01*
X29751952Y56724500D01*
X29771796Y56722491D01*
X29773152Y56722213D01*
X29773153Y56722214D01*
X29773154Y56722213D01*
X29808294Y56724322D01*
X29814225Y56724500D01*
X29895677Y56724500D01*
X29953868Y56705593D01*
X29989832Y56656093D01*
X29989832Y56594907D01*
X29953868Y56545407D01*
X29914993Y56528403D01*
X29900849Y56525589D01*
X29881085Y56521658D01*
X29744506Y56465085D01*
X29621585Y56382952D01*
X29517048Y56278415D01*
X29434915Y56155494D01*
X29378342Y56018915D01*
X29378339Y56018905D01*
X29354030Y55896701D01*
X29324133Y55843317D01*
X29268568Y55817702D01*
X29208558Y55829640D01*
X29187922Y55845034D01*
X27846556Y57149140D01*
X27845564Y57150117D01*
X27815212Y57180469D01*
X27815209Y57180471D01*
X27815030Y57180650D01*
X27813770Y57181589D01*
X27812658Y57182429D01*
X27811447Y57183358D01*
X27773686Y57204457D01*
X27772476Y57205144D01*
X27735070Y57226740D01*
X27733606Y57227322D01*
X27732297Y57227854D01*
X27730912Y57228428D01*
X27689056Y57239013D01*
X27687708Y57239364D01*
X27645921Y57250560D01*
X27644446Y57250733D01*
X27643067Y57250905D01*
X27641449Y57251119D01*
X27598930Y57250519D01*
X27598294Y57250510D01*
X27596903Y57250500D01*
X25786189Y57250500D01*
X25727998Y57269407D01*
X25716191Y57279491D01*
X25715212Y57280470D01*
X25715209Y57280472D01*
X25635291Y57326613D01*
X25635289Y57326614D01*
X25634627Y57326791D01*
X25634628Y57326791D01*
X25634620Y57326793D01*
X25546144Y57350500D01*
X24946144Y57350500D01*
X24853856Y57350500D01*
X24764712Y57326614D01*
X24764711Y57326614D01*
X24764709Y57326613D01*
X24684790Y57280471D01*
X24619529Y57215210D01*
X24573387Y57135291D01*
X24573386Y57135289D01*
X24573386Y57135288D01*
X24550373Y57049400D01*
X24549500Y57046143D01*
X24549500Y56251875D01*
X24530593Y56193684D01*
X24520504Y56181872D01*
X24417050Y56078418D01*
X24334915Y55955494D01*
X24278342Y55818915D01*
X24278339Y55818905D01*
X24264440Y55749032D01*
X24234543Y55695648D01*
X24178978Y55670033D01*
X24118968Y55681971D01*
X24097339Y55698343D01*
X23379496Y56416186D01*
X23351719Y56470703D01*
X23350500Y56486190D01*
X23350500Y56946143D01*
X23350500Y56946144D01*
X23326614Y57035288D01*
X23280469Y57115212D01*
X23260390Y57135291D01*
X23215217Y57180465D01*
X23215211Y57180470D01*
X23109572Y57286110D01*
X23109565Y57286116D01*
X23060765Y57334916D01*
X23015212Y57380470D01*
X23015211Y57380471D01*
X23009572Y57386110D01*
X23009565Y57386116D01*
X22915212Y57480470D01*
X22115212Y58280470D01*
X22115210Y58280471D01*
X22109568Y58286114D01*
X22109564Y58286117D01*
X22009572Y58386110D01*
X22009565Y58386116D01*
X21909572Y58486110D01*
X21909565Y58486116D01*
X21809572Y58586110D01*
X21809565Y58586116D01*
X21762572Y58633109D01*
X21715212Y58680470D01*
X21715211Y58680471D01*
X21709572Y58686110D01*
X21709565Y58686116D01*
X21662073Y58733608D01*
X21615212Y58780470D01*
X21615211Y58780471D01*
X21609572Y58786110D01*
X21609565Y58786116D01*
X21562141Y58833540D01*
X21515212Y58880470D01*
X21515211Y58880471D01*
X21509572Y58886110D01*
X21509565Y58886116D01*
X21461090Y58934591D01*
X21415212Y58980470D01*
X21415211Y58980471D01*
X21409572Y58986110D01*
X21409565Y58986116D01*
X21362073Y59033608D01*
X21315212Y59080470D01*
X21315211Y59080471D01*
X21309572Y59086110D01*
X21309565Y59086116D01*
X21261573Y59134108D01*
X21215212Y59180470D01*
X21215211Y59180471D01*
X21209572Y59186110D01*
X21209565Y59186116D01*
X21164245Y59231436D01*
X21115212Y59280470D01*
X21115211Y59280471D01*
X21109572Y59286110D01*
X21109565Y59286116D01*
X21063137Y59332544D01*
X21015212Y59380470D01*
X21015211Y59380471D01*
X21009572Y59386110D01*
X21009565Y59386116D01*
X20965088Y59430593D01*
X20915212Y59480470D01*
X20915211Y59480471D01*
X20909572Y59486110D01*
X20909565Y59486116D01*
X20865118Y59530563D01*
X20815212Y59580470D01*
X20711920Y59683762D01*
X20607785Y59787898D01*
X20580008Y59842414D01*
X20586324Y59895785D01*
X20621658Y59981087D01*
X20650500Y60126082D01*
X20650500Y60273918D01*
X20621658Y60418913D01*
X20565084Y60555495D01*
X20482951Y60678416D01*
X20378416Y60782951D01*
X20355341Y60798370D01*
X20317463Y60846419D01*
X20315062Y60907557D01*
X20349056Y60958430D01*
X20376506Y60973720D01*
X21045249Y61216900D01*
X21081015Y61222840D01*
X25901557Y61128320D01*
G37*
%TD.AperFunction*%
%TA.AperFunction,Conductor*%
G36*
X29525532Y65252018D02*
G01*
X29562637Y65203367D01*
X29564059Y65142199D01*
X29539224Y65100592D01*
X29517050Y65078419D01*
X29434915Y64955494D01*
X29378342Y64818915D01*
X29349500Y64673919D01*
X29349500Y64526082D01*
X29378342Y64381086D01*
X29434914Y64244508D01*
X29509969Y64132180D01*
X29526577Y64073292D01*
X29505399Y64015889D01*
X29454525Y63981896D01*
X29426043Y63978192D01*
X22044505Y64098217D01*
X22001841Y64108656D01*
X20665241Y64776957D01*
X20621649Y64819892D01*
X20618051Y64827620D01*
X20601338Y64867968D01*
X20565084Y64955495D01*
X20538355Y64995498D01*
X20521746Y65054387D01*
X20542924Y65111790D01*
X20593797Y65145783D01*
X20620670Y65149500D01*
X24247633Y65149500D01*
X24258268Y65148927D01*
X24262017Y65148522D01*
X24302910Y65149473D01*
X24305212Y65149500D01*
X24346138Y65149500D01*
X24346144Y65149500D01*
X24346149Y65149502D01*
X24349870Y65149992D01*
X24360489Y65150813D01*
X29466917Y65269567D01*
X29525532Y65252018D01*
G37*
%TD.AperFunction*%
%TD*%
M02*
