%TF.GenerationSoftware,KiCad,Pcbnew,10.0.5*%
%TF.CreationDate,2026-09-24T09:19:26+03:00*%
%TF.ProjectId,gnss-pod,676e7373-2d70-46f6-942e-6b696361645f,rev?*%
%TF.SameCoordinates,Original*%
%TF.FileFunction,Legend,Top*%
%TF.FilePolarity,Positive*%
%FSLAX46Y46*%
G04 Gerber Fmt 4.6, Leading zero omitted, Abs format (unit mm)*
G04 Created by KiCad (PCBNEW 10.0.5) date 2026-09-24 09:19:26*
%MOMM*%
%LPD*%
G01*
G04 APERTURE LIST*
G04 Aperture macros list*
%AMRoundRect*
0 Rectangle with rounded corners*
0 $1 Rounding radius*
0 $2 $3 $4 $5 $6 $7 $8 $9 X,Y pos of 4 corners*
0 Add a 4 corners polygon primitive as box body*
4,1,4,$2,$3,$4,$5,$6,$7,$8,$9,$2,$3,0*
0 Add four circle primitives for the rounded corners*
1,1,$1+$1,$2,$3*
1,1,$1+$1,$4,$5*
1,1,$1+$1,$6,$7*
1,1,$1+$1,$8,$9*
0 Add four rect primitives between the rounded corners*
20,1,$1+$1,$2,$3,$4,$5,0*
20,1,$1+$1,$4,$5,$6,$7,0*
20,1,$1+$1,$6,$7,$8,$9,0*
20,1,$1+$1,$8,$9,$2,$3,0*%
%AMOutline5P*
0 Free polygon, 5 corners , with rotation*
0 The origin of the aperture is its center*
0 number of corners: always 5*
0 $1 to $10 corner X, Y*
0 $11 Rotation angle, in degrees counterclockwise*
0 create outline with 5 corners*
4,1,5,$1,$2,$3,$4,$5,$6,$7,$8,$9,$10,$1,$2,$11*%
%AMOutline6P*
0 Free polygon, 6 corners , with rotation*
0 The origin of the aperture is its center*
0 number of corners: always 6*
0 $1 to $12 corner X, Y*
0 $13 Rotation angle, in degrees counterclockwise*
0 create outline with 6 corners*
4,1,6,$1,$2,$3,$4,$5,$6,$7,$8,$9,$10,$11,$12,$1,$2,$13*%
%AMOutline7P*
0 Free polygon, 7 corners , with rotation*
0 The origin of the aperture is its center*
0 number of corners: always 7*
0 $1 to $14 corner X, Y*
0 $15 Rotation angle, in degrees counterclockwise*
0 create outline with 7 corners*
4,1,7,$1,$2,$3,$4,$5,$6,$7,$8,$9,$10,$11,$12,$13,$14,$1,$2,$15*%
%AMOutline8P*
0 Free polygon, 8 corners , with rotation*
0 The origin of the aperture is its center*
0 number of corners: always 8*
0 $1 to $16 corner X, Y*
0 $17 Rotation angle, in degrees counterclockwise*
0 create outline with 8 corners*
4,1,8,$1,$2,$3,$4,$5,$6,$7,$8,$9,$10,$11,$12,$13,$14,$15,$16,$1,$2,$17*%
G04 Aperture macros list end*
%ADD10C,0.120000*%
%ADD11C,0.100000*%
%ADD12RoundRect,0.250000X0.250000X0.475000X-0.250000X0.475000X-0.250000X-0.475000X0.250000X-0.475000X0*%
%ADD13RoundRect,0.218750X-0.218750X-0.256250X0.218750X-0.256250X0.218750X0.256250X-0.218750X0.256250X0*%
%ADD14RoundRect,0.135000X0.185000X-0.135000X0.185000X0.135000X-0.185000X0.135000X-0.185000X-0.135000X0*%
%ADD15R,1.600000X1.600000*%
%ADD16C,1.600000*%
%ADD17RoundRect,0.140000X0.170000X-0.140000X0.170000X0.140000X-0.170000X0.140000X-0.170000X-0.140000X0*%
%ADD18RoundRect,0.140000X-0.140000X-0.170000X0.140000X-0.170000X0.140000X0.170000X-0.140000X0.170000X0*%
%ADD19R,1.000000X2.400000*%
%ADD20RoundRect,0.135000X-0.185000X0.135000X-0.185000X-0.135000X0.185000X-0.135000X0.185000X0.135000X0*%
%ADD21RoundRect,0.200000X0.275000X-0.200000X0.275000X0.200000X-0.275000X0.200000X-0.275000X-0.200000X0*%
%ADD22C,2.200000*%
%ADD23RoundRect,0.250000X0.475000X-0.250000X0.475000X0.250000X-0.475000X0.250000X-0.475000X-0.250000X0*%
%ADD24RoundRect,0.150000X-0.512500X-0.150000X0.512500X-0.150000X0.512500X0.150000X-0.512500X0.150000X0*%
%ADD25RoundRect,0.049980X-0.500020X-0.250020X0.500020X-0.250020X0.500020X0.250020X-0.500020X0.250020X0*%
%ADD26R,0.975000X1.700000*%
%ADD27RoundRect,0.140000X-0.170000X0.140000X-0.170000X-0.140000X0.170000X-0.140000X0.170000X0.140000X0*%
%ADD28RoundRect,0.135000X-0.135000X-0.185000X0.135000X-0.185000X0.135000X0.185000X-0.135000X0.185000X0*%
%ADD29RoundRect,0.250000X0.625000X-0.350000X0.625000X0.350000X-0.625000X0.350000X-0.625000X-0.350000X0*%
%ADD30O,1.750000X1.200000*%
%ADD31RoundRect,0.225000X0.225000X0.250000X-0.225000X0.250000X-0.225000X-0.250000X0.225000X-0.250000X0*%
%ADD32C,0.650000*%
%ADD33RoundRect,0.150000X-0.575000X0.150000X-0.575000X-0.150000X0.575000X-0.150000X0.575000X0.150000X0*%
%ADD34RoundRect,0.075000X-0.650000X0.075000X-0.650000X-0.075000X0.650000X-0.075000X0.650000X0.075000X0*%
%ADD35O,2.100000X1.000000*%
%ADD36O,1.600000X1.000000*%
%ADD37RoundRect,0.050000X-0.900000X-0.750000X0.900000X-0.750000X0.900000X0.750000X-0.900000X0.750000X0*%
%ADD38RoundRect,0.050000X-0.750000X-0.900000X0.750000X-0.900000X0.750000X0.900000X-0.750000X0.900000X0*%
%ADD39R,0.750000X1.000000*%
%ADD40R,0.625000X0.300000*%
%ADD41R,0.300000X0.625000*%
%ADD42R,1.000000X0.750000*%
%ADD43RoundRect,0.150000X-0.587500X-0.150000X0.587500X-0.150000X0.587500X0.150000X-0.587500X0.150000X0*%
%ADD44RoundRect,0.140000X0.140000X0.170000X-0.140000X0.170000X-0.140000X-0.170000X0.140000X-0.170000X0*%
%ADD45RoundRect,0.049992X0.250008X0.070008X-0.250008X0.070008X-0.250008X-0.070008X0.250008X-0.070008X0*%
%ADD46RoundRect,0.049992X0.070008X0.250008X-0.070008X0.250008X-0.070008X-0.250008X0.070008X-0.250008X0*%
%ADD47R,1.680000X1.680000*%
%ADD48RoundRect,0.225000X-0.225000X-0.250000X0.225000X-0.250000X0.225000X0.250000X-0.225000X0.250000X0*%
%ADD49R,0.800000X0.400000*%
%ADD50R,0.400000X0.800000*%
%ADD51Outline5P,-0.600000X0.000000X0.000000X0.600000X0.600000X0.600000X0.600000X-0.600000X-0.600000X-0.600000X0.000000*%
%ADD52R,1.200000X1.200000*%
%ADD53R,0.800000X0.800000*%
G04 APERTURE END LIST*
D10*
X25733333Y44432407D02*
X26199999Y43732407D01*
X26199999Y44432407D02*
X25733333Y43732407D01*
X26466666Y44199074D02*
X27000000Y43999074D01*
X27000000Y43999074D02*
X26466666Y43799074D01*
X26200000Y43215740D02*
X26200000Y42882407D01*
X25966666Y43582407D02*
X26200000Y43215740D01*
X26200000Y43215740D02*
X26433333Y43582407D01*
X26566666Y43515740D02*
X26700000Y43615740D01*
X26700000Y43615740D02*
X26833333Y43515740D01*
X42204762Y68016145D02*
X42357143Y68016145D01*
X42357143Y68016145D02*
X42433333Y67978050D01*
X42433333Y67978050D02*
X42509524Y67901860D01*
X42509524Y67901860D02*
X42547619Y67749479D01*
X42547619Y67749479D02*
X42547619Y67482812D01*
X42547619Y67482812D02*
X42509524Y67330431D01*
X42509524Y67330431D02*
X42433333Y67254240D01*
X42433333Y67254240D02*
X42357143Y67216145D01*
X42357143Y67216145D02*
X42204762Y67216145D01*
X42204762Y67216145D02*
X42128571Y67254240D01*
X42128571Y67254240D02*
X42052381Y67330431D01*
X42052381Y67330431D02*
X42014285Y67482812D01*
X42014285Y67482812D02*
X42014285Y67749479D01*
X42014285Y67749479D02*
X42052381Y67901860D01*
X42052381Y67901860D02*
X42128571Y67978050D01*
X42128571Y67978050D02*
X42204762Y68016145D01*
X42890476Y67216145D02*
X42890476Y68016145D01*
X42890476Y68016145D02*
X43347619Y67216145D01*
X43347619Y67216145D02*
X43347619Y68016145D01*
X46938096Y68016145D02*
X47090477Y68016145D01*
X47090477Y68016145D02*
X47166667Y67978050D01*
X47166667Y67978050D02*
X47242858Y67901860D01*
X47242858Y67901860D02*
X47280953Y67749479D01*
X47280953Y67749479D02*
X47280953Y67482812D01*
X47280953Y67482812D02*
X47242858Y67330431D01*
X47242858Y67330431D02*
X47166667Y67254240D01*
X47166667Y67254240D02*
X47090477Y67216145D01*
X47090477Y67216145D02*
X46938096Y67216145D01*
X46938096Y67216145D02*
X46861905Y67254240D01*
X46861905Y67254240D02*
X46785715Y67330431D01*
X46785715Y67330431D02*
X46747619Y67482812D01*
X46747619Y67482812D02*
X46747619Y67749479D01*
X46747619Y67749479D02*
X46785715Y67901860D01*
X46785715Y67901860D02*
X46861905Y67978050D01*
X46861905Y67978050D02*
X46938096Y68016145D01*
X47890476Y67635193D02*
X47623810Y67635193D01*
X47623810Y67216145D02*
X47623810Y68016145D01*
X47623810Y68016145D02*
X48004762Y68016145D01*
X48576190Y67635193D02*
X48309524Y67635193D01*
X48309524Y67216145D02*
X48309524Y68016145D01*
X48309524Y68016145D02*
X48690476Y68016145D01*
X44133332Y67354240D02*
X44247618Y67316145D01*
X44247618Y67316145D02*
X44438094Y67316145D01*
X44438094Y67316145D02*
X44514285Y67354240D01*
X44514285Y67354240D02*
X44552380Y67392336D01*
X44552380Y67392336D02*
X44590475Y67468526D01*
X44590475Y67468526D02*
X44590475Y67544717D01*
X44590475Y67544717D02*
X44552380Y67620907D01*
X44552380Y67620907D02*
X44514285Y67659002D01*
X44514285Y67659002D02*
X44438094Y67697098D01*
X44438094Y67697098D02*
X44285713Y67735193D01*
X44285713Y67735193D02*
X44209523Y67773288D01*
X44209523Y67773288D02*
X44171428Y67811383D01*
X44171428Y67811383D02*
X44133332Y67887574D01*
X44133332Y67887574D02*
X44133332Y67963764D01*
X44133332Y67963764D02*
X44171428Y68039955D01*
X44171428Y68039955D02*
X44209523Y68078050D01*
X44209523Y68078050D02*
X44285713Y68116145D01*
X44285713Y68116145D02*
X44476190Y68116145D01*
X44476190Y68116145D02*
X44590475Y68078050D01*
X44857142Y68116145D02*
X45047618Y67316145D01*
X45047618Y67316145D02*
X45199999Y67887574D01*
X45199999Y67887574D02*
X45352380Y67316145D01*
X45352380Y67316145D02*
X45542857Y68116145D01*
X45771428Y68116145D02*
X46266666Y68116145D01*
X46266666Y68116145D02*
X46000000Y67811383D01*
X46000000Y67811383D02*
X46114285Y67811383D01*
X46114285Y67811383D02*
X46190476Y67773288D01*
X46190476Y67773288D02*
X46228571Y67735193D01*
X46228571Y67735193D02*
X46266666Y67659002D01*
X46266666Y67659002D02*
X46266666Y67468526D01*
X46266666Y67468526D02*
X46228571Y67392336D01*
X46228571Y67392336D02*
X46190476Y67354240D01*
X46190476Y67354240D02*
X46114285Y67316145D01*
X46114285Y67316145D02*
X45885714Y67316145D01*
X45885714Y67316145D02*
X45809523Y67354240D01*
X45809523Y67354240D02*
X45771428Y67392336D01*
X10633333Y46936145D02*
X10633333Y46364717D01*
X10633333Y46364717D02*
X10595238Y46250431D01*
X10595238Y46250431D02*
X10519047Y46174240D01*
X10519047Y46174240D02*
X10404762Y46136145D01*
X10404762Y46136145D02*
X10328571Y46136145D01*
X10938095Y46936145D02*
X11433333Y46936145D01*
X11433333Y46936145D02*
X11166667Y46631383D01*
X11166667Y46631383D02*
X11280952Y46631383D01*
X11280952Y46631383D02*
X11357143Y46593288D01*
X11357143Y46593288D02*
X11395238Y46555193D01*
X11395238Y46555193D02*
X11433333Y46479002D01*
X11433333Y46479002D02*
X11433333Y46288526D01*
X11433333Y46288526D02*
X11395238Y46212336D01*
X11395238Y46212336D02*
X11357143Y46174240D01*
X11357143Y46174240D02*
X11280952Y46136145D01*
X11280952Y46136145D02*
X11052381Y46136145D01*
X11052381Y46136145D02*
X10976190Y46174240D01*
X10976190Y46174240D02*
X10938095Y46212336D01*
D11*
X2181428Y45927629D02*
X1838571Y45927629D01*
X2010000Y45927629D02*
X2010000Y46527629D01*
X2010000Y46527629D02*
X1952857Y46441915D01*
X1952857Y46441915D02*
X1895714Y46384772D01*
X1895714Y46384772D02*
X1838571Y46356200D01*
D10*
X11090476Y67636145D02*
X11090476Y66988526D01*
X11090476Y66988526D02*
X11128571Y66912336D01*
X11128571Y66912336D02*
X11166666Y66874240D01*
X11166666Y66874240D02*
X11242857Y66836145D01*
X11242857Y66836145D02*
X11395238Y66836145D01*
X11395238Y66836145D02*
X11471428Y66874240D01*
X11471428Y66874240D02*
X11509523Y66912336D01*
X11509523Y66912336D02*
X11547619Y66988526D01*
X11547619Y66988526D02*
X11547619Y67636145D01*
X12309523Y67636145D02*
X11928571Y67636145D01*
X11928571Y67636145D02*
X11890475Y67255193D01*
X11890475Y67255193D02*
X11928571Y67293288D01*
X11928571Y67293288D02*
X12004761Y67331383D01*
X12004761Y67331383D02*
X12195237Y67331383D01*
X12195237Y67331383D02*
X12271428Y67293288D01*
X12271428Y67293288D02*
X12309523Y67255193D01*
X12309523Y67255193D02*
X12347618Y67179002D01*
X12347618Y67179002D02*
X12347618Y66988526D01*
X12347618Y66988526D02*
X12309523Y66912336D01*
X12309523Y66912336D02*
X12271428Y66874240D01*
X12271428Y66874240D02*
X12195237Y66836145D01*
X12195237Y66836145D02*
X12004761Y66836145D01*
X12004761Y66836145D02*
X11928571Y66874240D01*
X11928571Y66874240D02*
X11890475Y66912336D01*
X8858855Y51683334D02*
X9430283Y51683334D01*
X9430283Y51683334D02*
X9544569Y51645239D01*
X9544569Y51645239D02*
X9620760Y51569048D01*
X9620760Y51569048D02*
X9658855Y51454763D01*
X9658855Y51454763D02*
X9658855Y51378572D01*
X9658855Y52483334D02*
X9658855Y52026191D01*
X9658855Y52254763D02*
X8858855Y52254763D01*
X8858855Y52254763D02*
X8973140Y52178572D01*
X8973140Y52178572D02*
X9049331Y52102382D01*
X9049331Y52102382D02*
X9087426Y52026191D01*
X24390476Y34436145D02*
X24390476Y33788526D01*
X24390476Y33788526D02*
X24428571Y33712336D01*
X24428571Y33712336D02*
X24466666Y33674240D01*
X24466666Y33674240D02*
X24542857Y33636145D01*
X24542857Y33636145D02*
X24695238Y33636145D01*
X24695238Y33636145D02*
X24771428Y33674240D01*
X24771428Y33674240D02*
X24809523Y33712336D01*
X24809523Y33712336D02*
X24847619Y33788526D01*
X24847619Y33788526D02*
X24847619Y34436145D01*
X25190475Y34359955D02*
X25228571Y34398050D01*
X25228571Y34398050D02*
X25304761Y34436145D01*
X25304761Y34436145D02*
X25495237Y34436145D01*
X25495237Y34436145D02*
X25571428Y34398050D01*
X25571428Y34398050D02*
X25609523Y34359955D01*
X25609523Y34359955D02*
X25647618Y34283764D01*
X25647618Y34283764D02*
X25647618Y34207574D01*
X25647618Y34207574D02*
X25609523Y34093288D01*
X25609523Y34093288D02*
X25152380Y33636145D01*
X25152380Y33636145D02*
X25647618Y33636145D01*
D11*
X16700000Y28481367D02*
X16300000Y28481367D01*
X16500000Y28481367D02*
X16500000Y29181367D01*
X16500000Y29181367D02*
X16433333Y29081367D01*
X16433333Y29081367D02*
X16366667Y29014700D01*
X16366667Y29014700D02*
X16300000Y28981367D01*
D10*
X37775760Y57433333D02*
X37813855Y57547619D01*
X37813855Y57547619D02*
X37813855Y57738095D01*
X37813855Y57738095D02*
X37775760Y57814286D01*
X37775760Y57814286D02*
X37737664Y57852381D01*
X37737664Y57852381D02*
X37661474Y57890476D01*
X37661474Y57890476D02*
X37585283Y57890476D01*
X37585283Y57890476D02*
X37509093Y57852381D01*
X37509093Y57852381D02*
X37470998Y57814286D01*
X37470998Y57814286D02*
X37432902Y57738095D01*
X37432902Y57738095D02*
X37394807Y57585714D01*
X37394807Y57585714D02*
X37356712Y57509524D01*
X37356712Y57509524D02*
X37318617Y57471429D01*
X37318617Y57471429D02*
X37242426Y57433333D01*
X37242426Y57433333D02*
X37166236Y57433333D01*
X37166236Y57433333D02*
X37090045Y57471429D01*
X37090045Y57471429D02*
X37051950Y57509524D01*
X37051950Y57509524D02*
X37013855Y57585714D01*
X37013855Y57585714D02*
X37013855Y57776191D01*
X37013855Y57776191D02*
X37051950Y57890476D01*
X37013855Y58157143D02*
X37813855Y58347619D01*
X37813855Y58347619D02*
X37242426Y58500000D01*
X37242426Y58500000D02*
X37813855Y58652381D01*
X37813855Y58652381D02*
X37013855Y58842857D01*
X37090045Y59109524D02*
X37051950Y59147620D01*
X37051950Y59147620D02*
X37013855Y59223810D01*
X37013855Y59223810D02*
X37013855Y59414286D01*
X37013855Y59414286D02*
X37051950Y59490477D01*
X37051950Y59490477D02*
X37090045Y59528572D01*
X37090045Y59528572D02*
X37166236Y59566667D01*
X37166236Y59566667D02*
X37242426Y59566667D01*
X37242426Y59566667D02*
X37356712Y59528572D01*
X37356712Y59528572D02*
X37813855Y59071429D01*
X37813855Y59071429D02*
X37813855Y59566667D01*
X24390476Y48986145D02*
X24390476Y48338526D01*
X24390476Y48338526D02*
X24428571Y48262336D01*
X24428571Y48262336D02*
X24466666Y48224240D01*
X24466666Y48224240D02*
X24542857Y48186145D01*
X24542857Y48186145D02*
X24695238Y48186145D01*
X24695238Y48186145D02*
X24771428Y48224240D01*
X24771428Y48224240D02*
X24809523Y48262336D01*
X24809523Y48262336D02*
X24847619Y48338526D01*
X24847619Y48338526D02*
X24847619Y48986145D01*
X25152380Y48986145D02*
X25647618Y48986145D01*
X25647618Y48986145D02*
X25380952Y48681383D01*
X25380952Y48681383D02*
X25495237Y48681383D01*
X25495237Y48681383D02*
X25571428Y48643288D01*
X25571428Y48643288D02*
X25609523Y48605193D01*
X25609523Y48605193D02*
X25647618Y48529002D01*
X25647618Y48529002D02*
X25647618Y48338526D01*
X25647618Y48338526D02*
X25609523Y48262336D01*
X25609523Y48262336D02*
X25571428Y48224240D01*
X25571428Y48224240D02*
X25495237Y48186145D01*
X25495237Y48186145D02*
X25266666Y48186145D01*
X25266666Y48186145D02*
X25190475Y48224240D01*
X25190475Y48224240D02*
X25152380Y48262336D01*
D11*
X14421428Y57727629D02*
X14078571Y57727629D01*
X14250000Y57727629D02*
X14250000Y58327629D01*
X14250000Y58327629D02*
X14192857Y58241915D01*
X14192857Y58241915D02*
X14135714Y58184772D01*
X14135714Y58184772D02*
X14078571Y58156200D01*
D10*
X24390476Y73436144D02*
X24390476Y72788525D01*
X24390476Y72788525D02*
X24428571Y72712335D01*
X24428571Y72712335D02*
X24466666Y72674240D01*
X24466666Y72674240D02*
X24542857Y72636144D01*
X24542857Y72636144D02*
X24695238Y72636144D01*
X24695238Y72636144D02*
X24771428Y72674240D01*
X24771428Y72674240D02*
X24809523Y72712335D01*
X24809523Y72712335D02*
X24847619Y72788525D01*
X24847619Y72788525D02*
X24847619Y73436144D01*
X25647618Y72636144D02*
X25190475Y72636144D01*
X25419047Y72636144D02*
X25419047Y73436144D01*
X25419047Y73436144D02*
X25342856Y73321859D01*
X25342856Y73321859D02*
X25266666Y73245668D01*
X25266666Y73245668D02*
X25190475Y73207573D01*
%TO.C,C6*%
X15411252Y62835000D02*
X14888748Y62835000D01*
X15411252Y61365000D02*
X14888748Y61365000D01*
%TO.C,LED3*%
X46965000Y45235000D02*
X46965000Y43765000D01*
X46965000Y43765000D02*
X49250000Y43765000D01*
X49250000Y45235000D02*
X46965000Y45235000D01*
%TO.C,R5*%
X33720000Y65246359D02*
X33720000Y65553641D01*
X34480000Y65246359D02*
X34480000Y65553641D01*
%TO.C,SW3*%
X40680000Y66750000D02*
X49720000Y66750000D01*
X49720000Y62610000D01*
X40680000Y62610000D01*
X40680000Y66750000D01*
%TO.C,C8*%
X33740000Y62892164D02*
X33740000Y63107836D01*
X34460000Y62892164D02*
X34460000Y63107836D01*
%TO.C,C13*%
X39392164Y50360000D02*
X39607836Y50360000D01*
X39392164Y49640000D02*
X39607836Y49640000D01*
%TO.C,R7*%
X22520000Y49246359D02*
X22520000Y49553641D01*
X23280000Y49246359D02*
X23280000Y49553641D01*
%TO.C,R17*%
X20820000Y45553641D02*
X20820000Y45246359D01*
X21580000Y45553641D02*
X21580000Y45246359D01*
%TO.C,RT1*%
X42877500Y52762742D02*
X42877500Y53237258D01*
X43922500Y52762742D02*
X43922500Y53237258D01*
%TO.C,C2*%
X7065000Y59738748D02*
X7065000Y60261252D01*
X8535000Y59738748D02*
X8535000Y60261252D01*
%TO.C,C15*%
X22240000Y45492164D02*
X22240000Y45707836D01*
X22960000Y45492164D02*
X22960000Y45707836D01*
%TO.C,U7*%
X12110000Y53610000D02*
X13930000Y53610000D01*
X12110000Y53560000D02*
X12110000Y53610000D01*
X12110000Y50490000D02*
X12110000Y50540000D01*
X13930000Y53610000D02*
X13930000Y53560000D01*
X13930000Y50540000D02*
X13930000Y50490000D01*
X13930000Y50490000D02*
X12110000Y50490000D01*
X11570000Y53560000D02*
X11330000Y53890000D01*
X11810000Y53890000D01*
X11570000Y53560000D01*
G36*
X11570000Y53560000D02*
G01*
X11330000Y53890000D01*
X11810000Y53890000D01*
X11570000Y53560000D01*
G37*
%TO.C,U5*%
X9800000Y66450000D02*
X10800000Y66450000D01*
X10900000Y66620000D02*
X12500000Y66620000D01*
X10900000Y63380000D02*
X12500000Y63380000D01*
%TO.C,C14*%
X27440000Y45907836D02*
X27440000Y45692164D01*
X28160000Y45907836D02*
X28160000Y45692164D01*
%TO.C,R3*%
X15420000Y50846359D02*
X15420000Y51153641D01*
X16180000Y50846359D02*
X16180000Y51153641D01*
%TO.C,R1*%
X9786359Y53930000D02*
X10093641Y53930000D01*
X9786359Y53170000D02*
X10093641Y53170000D01*
%TO.C,C18*%
X17640000Y50092164D02*
X17640000Y50307836D01*
X18360000Y50092164D02*
X18360000Y50307836D01*
%TO.C,C12*%
X43092164Y51160000D02*
X43307836Y51160000D01*
X43092164Y50440000D02*
X43307836Y50440000D01*
%TO.C,J2*%
X44490000Y51890000D02*
X44490000Y50640000D01*
X44490000Y50640000D02*
X45740000Y50640000D01*
X44590000Y52700000D02*
X44590000Y52400000D01*
X44590000Y52400000D02*
X44790000Y52400000D01*
X44690000Y52700000D02*
X44690000Y52400000D01*
X44790000Y53500000D02*
X45400000Y53500000D01*
X44790000Y52700000D02*
X44590000Y52700000D01*
X45400000Y56450000D02*
X45400000Y54500000D01*
X45400000Y54500000D02*
X44790000Y54500000D01*
X45400000Y53500000D02*
X45400000Y51550000D01*
X45400000Y51550000D02*
X48900000Y51550000D01*
X46100000Y57060000D02*
X46100000Y56450000D01*
X46100000Y50940000D02*
X46100000Y51550000D01*
X47400000Y57060000D02*
X47400000Y56450000D01*
X47400000Y50940000D02*
X47400000Y51550000D01*
X48400000Y54100000D02*
X48900000Y54100000D01*
X48400000Y53900000D02*
X48400000Y54100000D01*
X48900000Y56450000D02*
X45400000Y56450000D01*
X48900000Y54000000D02*
X48400000Y54000000D01*
X48900000Y53900000D02*
X48400000Y53900000D01*
X48900000Y51550000D02*
X48900000Y56450000D01*
X44790000Y57060000D02*
X49510000Y57060000D01*
X49510000Y50940000D01*
X44790000Y50940000D01*
X44790000Y57060000D01*
%TO.C,C5*%
X15540580Y66510000D02*
X15259420Y66510000D01*
X15540580Y65490000D02*
X15259420Y65490000D01*
%TO.C,C10*%
X23192164Y43810000D02*
X23407836Y43810000D01*
X23192164Y43090000D02*
X23407836Y43090000D01*
%TO.C,R4*%
X15420000Y52846359D02*
X15420000Y53153641D01*
X16180000Y52846359D02*
X16180000Y53153641D01*
%TO.C,R2*%
X10046359Y50130000D02*
X10353641Y50130000D01*
X10046359Y49370000D02*
X10353641Y49370000D01*
%TO.C,R11*%
X46020000Y44346359D02*
X46020000Y44653641D01*
X46780000Y44346359D02*
X46780000Y44653641D01*
%TO.C,C11*%
X21192164Y43810000D02*
X21407836Y43810000D01*
X21192164Y43090000D02*
X21407836Y43090000D01*
%TO.C,R16*%
X46020000Y46346359D02*
X46020000Y46653641D01*
X46780000Y46346359D02*
X46780000Y46653641D01*
%TO.C,R13*%
X5820000Y65446359D02*
X5820000Y65753641D01*
X6580000Y65446359D02*
X6580000Y65753641D01*
%TO.C,R9*%
X13820000Y54646359D02*
X13820000Y54953641D01*
X14580000Y54646359D02*
X14580000Y54953641D01*
%TO.C,J1*%
X5550000Y56650000D02*
X3550000Y56650000D01*
X5550000Y47250000D02*
X3550000Y47250000D01*
%TO.C,U2*%
X17100000Y32900000D02*
X17100000Y30000000D01*
X17100000Y32900000D02*
X20000000Y32900000D01*
X17100000Y17100000D02*
X17100000Y20000000D01*
X17100000Y17100000D02*
X20000000Y17100000D01*
X32900000Y32900000D02*
X30000000Y32900000D01*
X32900000Y32900000D02*
X32900000Y30000000D01*
X32900000Y17100000D02*
X30000000Y17100000D01*
X32900000Y17100000D02*
X32900000Y20000000D01*
%TO.C,R6*%
X33720000Y60646359D02*
X33720000Y60953641D01*
X34480000Y60646359D02*
X34480000Y60953641D01*
%TO.C,R15*%
X46020000Y48346359D02*
X46020000Y48653641D01*
X46780000Y48346359D02*
X46780000Y48653641D01*
%TO.C,C3*%
X14565000Y58938748D02*
X14565000Y59461252D01*
X16035000Y58938748D02*
X16035000Y59461252D01*
%TO.C,SW2*%
X38450000Y57200000D02*
X38450000Y59800000D01*
X38900000Y60250000D02*
X38450000Y59800000D01*
X38900000Y56750000D02*
X38450000Y57200000D01*
X40200000Y61250000D02*
X42200000Y61250000D01*
X40200000Y55750000D02*
X42200000Y55750000D01*
X43500000Y60250000D02*
X43950000Y59800000D01*
X43500000Y56750000D02*
X43950000Y57200000D01*
X43950000Y57200000D02*
X43950000Y59800000D01*
%TO.C,U3*%
X23380000Y47920000D02*
X23380000Y47650000D01*
X23380000Y47920000D02*
X23700000Y47920000D01*
%TO.C,SW1*%
X39250000Y47500000D02*
X39250000Y45500000D01*
X40250000Y48800000D02*
X40700000Y49250000D01*
X40250000Y44200000D02*
X40700000Y43750000D01*
X40700000Y49250000D02*
X43300000Y49250000D01*
X40700000Y43750000D02*
X43300000Y43750000D01*
X43750000Y48800000D02*
X43300000Y49250000D01*
X43750000Y44200000D02*
X43300000Y43750000D01*
X44750000Y47500000D02*
X44750000Y45500000D01*
%TO.C,U6*%
X39240000Y53960000D02*
X40760000Y53960000D01*
X39240000Y53910000D02*
X39240000Y53960000D01*
X39240000Y52010000D02*
X39240000Y52790000D01*
X39240000Y50840000D02*
X39240000Y50890000D01*
X40760000Y53960000D02*
X40760000Y52960000D01*
X40760000Y51840000D02*
X40760000Y50840000D01*
X40760000Y50840000D02*
X39240000Y50840000D01*
X38700000Y52780000D02*
X38940000Y52450000D01*
X38460000Y52450000D01*
X38700000Y52780000D01*
G36*
X38940000Y52450000D02*
G01*
X38460000Y52450000D01*
X38700000Y52780000D01*
X38940000Y52450000D01*
G37*
%TO.C,LED1*%
X46965000Y49235000D02*
X46965000Y47765000D01*
X46965000Y47765000D02*
X49250000Y47765000D01*
X49250000Y49235000D02*
X46965000Y49235000D01*
%TO.C,C7*%
X16040000Y64092164D02*
X16040000Y64307836D01*
X16760000Y64092164D02*
X16760000Y64307836D01*
%TO.C,C4*%
X8657836Y66310000D02*
X8442164Y66310000D01*
X8657836Y65590000D02*
X8442164Y65590000D01*
%TO.C,R14*%
X5820000Y63346359D02*
X5820000Y63653641D01*
X6580000Y63346359D02*
X6580000Y63653641D01*
%TO.C,R10*%
X9020000Y58546359D02*
X9020000Y58853641D01*
X9780000Y58546359D02*
X9780000Y58853641D01*
%TO.C,U4*%
X10550000Y60350000D02*
X10550000Y59950000D01*
X10550000Y60350000D02*
X10950000Y60350000D01*
X10550000Y57150000D02*
X10550000Y57550000D01*
X10550000Y57150000D02*
X10950000Y57150000D01*
X13750000Y60350000D02*
X13350000Y60350000D01*
X13750000Y60350000D02*
X13750000Y59950000D01*
X13750000Y57150000D02*
X13350000Y57150000D01*
%TO.C,C16*%
X7040000Y63392164D02*
X7040000Y63607836D01*
X7760000Y63392164D02*
X7760000Y63607836D01*
%TO.C,R8*%
X27220000Y48846359D02*
X27220000Y49153641D01*
X27980000Y48846359D02*
X27980000Y49153641D01*
%TO.C,C1*%
X11959420Y56110000D02*
X12240580Y56110000D01*
X11959420Y55090000D02*
X12240580Y55090000D01*
%TO.C,C17*%
X16692164Y49060000D02*
X16907836Y49060000D01*
X16692164Y48340000D02*
X16907836Y48340000D01*
%TO.C,LED2*%
X46965000Y47235000D02*
X46965000Y45765000D01*
X46965000Y45765000D02*
X49250000Y45765000D01*
X49250000Y47235000D02*
X46965000Y47235000D01*
%TO.C,R12*%
X12246359Y62380000D02*
X12553641Y62380000D01*
X12246359Y61620000D02*
X12553641Y61620000D01*
%TO.C,U1*%
X17150000Y71700000D02*
X17150000Y67100000D01*
X17150000Y71700000D02*
X32850000Y71700000D01*
X17150000Y52400000D02*
X17150000Y51350000D01*
X17150000Y51350000D02*
X18200000Y51350000D01*
X32850000Y71700000D02*
X32850000Y67100000D01*
X32850000Y52400000D02*
X32850000Y51350000D01*
X32850000Y51350000D02*
X31800000Y51350000D01*
%TO.C,C9*%
X35492164Y44760000D02*
X35707836Y44760000D01*
X35492164Y44040000D02*
X35707836Y44040000D01*
%TD*%
%LPC*%
D12*
%TO.C,C6*%
X16100000Y62100000D03*
X14200000Y62100000D03*
%TD*%
D13*
%TO.C,LED3*%
X47662500Y44500000D03*
X49237500Y44500000D03*
%TD*%
D14*
%TO.C,R5*%
X34100000Y64890000D03*
X34100000Y65910000D03*
%TD*%
D15*
%TO.C,SW3*%
X42700000Y64680000D03*
D16*
X45200000Y64680000D03*
X47700000Y64680000D03*
%TD*%
D17*
%TO.C,C8*%
X34100000Y62520000D03*
X34100000Y63480000D03*
%TD*%
D18*
%TO.C,C13*%
X39020000Y50000000D03*
X39980000Y50000000D03*
%TD*%
D19*
%TO.C,J3*%
X2010000Y44300000D03*
X4550000Y44300000D03*
X7090000Y44300000D03*
X9630000Y44300000D03*
X12170000Y44300000D03*
X14710000Y44300000D03*
X17250000Y44300000D03*
X19790000Y44300000D03*
%TD*%
D14*
%TO.C,R7*%
X22900000Y48890000D03*
X22900000Y49910000D03*
%TD*%
D20*
%TO.C,R17*%
X21200000Y45910000D03*
X21200000Y44890000D03*
%TD*%
D21*
%TO.C,RT1*%
X43400000Y52175000D03*
X43400000Y53825000D03*
%TD*%
D22*
%TO.C,MH4*%
X46500000Y60000000D03*
%TD*%
D23*
%TO.C,C2*%
X7800000Y59050000D03*
X7800000Y60950000D03*
%TD*%
D17*
%TO.C,C15*%
X22600000Y45120000D03*
X22600000Y46080000D03*
%TD*%
D24*
%TO.C,U7*%
X11882500Y53000000D03*
X11882500Y52050000D03*
X11882500Y51100000D03*
X14157500Y51100000D03*
X14157500Y52050000D03*
X14157500Y53000000D03*
%TD*%
D25*
%TO.C,U5*%
X10400000Y65950000D03*
X10400000Y65000000D03*
X10400000Y64050000D03*
X13000000Y64050000D03*
X13000000Y65950000D03*
D26*
X11762500Y65000000D03*
%TD*%
D27*
%TO.C,C14*%
X27800000Y46280000D03*
X27800000Y45320000D03*
%TD*%
D14*
%TO.C,R3*%
X15800000Y50490000D03*
X15800000Y51510000D03*
%TD*%
D28*
%TO.C,R1*%
X9430000Y53550000D03*
X10450000Y53550000D03*
%TD*%
D17*
%TO.C,C18*%
X18000000Y49720000D03*
X18000000Y50680000D03*
%TD*%
D18*
%TO.C,C12*%
X42720000Y50800000D03*
X43680000Y50800000D03*
%TD*%
D29*
%TO.C,J2*%
X46600000Y53000000D03*
D30*
X46600000Y55000000D03*
%TD*%
D22*
%TO.C,MH3*%
X3500000Y60000000D03*
%TD*%
D31*
%TO.C,C5*%
X16175000Y66000000D03*
X14625000Y66000000D03*
%TD*%
D18*
%TO.C,C10*%
X22820000Y43450000D03*
X23780000Y43450000D03*
%TD*%
D14*
%TO.C,R4*%
X15800000Y52490000D03*
X15800000Y53510000D03*
%TD*%
D28*
%TO.C,R2*%
X9690000Y49750000D03*
X10710000Y49750000D03*
%TD*%
D14*
%TO.C,R11*%
X46400000Y43990000D03*
X46400000Y45010000D03*
%TD*%
D18*
%TO.C,C11*%
X20820000Y43450000D03*
X21780000Y43450000D03*
%TD*%
D14*
%TO.C,R16*%
X46400000Y45990000D03*
X46400000Y47010000D03*
%TD*%
%TO.C,R13*%
X6200000Y65090000D03*
X6200000Y66110000D03*
%TD*%
D22*
%TO.C,MH1*%
X3500000Y3500000D03*
%TD*%
D14*
%TO.C,R9*%
X14200000Y54290000D03*
X14200000Y55310000D03*
%TD*%
D32*
%TO.C,J1*%
X6250000Y54840000D03*
X6250000Y49060000D03*
D33*
X7695000Y55200000D03*
X7695000Y54400000D03*
D34*
X7695000Y53200000D03*
X7695000Y52200000D03*
X7695000Y51700000D03*
X7695000Y50700000D03*
D33*
X7695000Y49500000D03*
X7695000Y48700000D03*
X7695000Y48700000D03*
X7695000Y49500000D03*
D34*
X7695000Y50200000D03*
X7695000Y51200000D03*
X7695000Y52700000D03*
X7695000Y53700000D03*
D33*
X7695000Y54400000D03*
X7695000Y55200000D03*
D35*
X6780000Y56270000D03*
D36*
X2600000Y56270000D03*
D35*
X6780000Y47630000D03*
D36*
X2600000Y47630000D03*
%TD*%
D37*
%TO.C,U2*%
X18400000Y28800000D03*
X18400000Y26900000D03*
X18400000Y25000000D03*
X18400000Y23100000D03*
X18400000Y21200000D03*
D38*
X21200000Y18400000D03*
X23100000Y18400000D03*
X25000000Y18400000D03*
X26900000Y18400000D03*
X28800000Y18400000D03*
D37*
X31600000Y21200000D03*
X31600000Y23100000D03*
X31600000Y25000000D03*
X31600000Y26900000D03*
X31600000Y28800000D03*
D38*
X28800000Y31600000D03*
X26900000Y31600000D03*
X25000000Y31600000D03*
X23100000Y31600000D03*
X21200000Y31600000D03*
%TD*%
D14*
%TO.C,R6*%
X34100000Y60290000D03*
X34100000Y61310000D03*
%TD*%
%TO.C,R15*%
X46400000Y47990000D03*
X46400000Y49010000D03*
%TD*%
D23*
%TO.C,C3*%
X15300000Y58250000D03*
X15300000Y60150000D03*
%TD*%
D39*
%TO.C,SW2*%
X39325000Y55500000D03*
X39325000Y61500000D03*
X43075000Y55500000D03*
X43075000Y61500000D03*
%TD*%
D40*
%TO.C,U3*%
X23837500Y47300000D03*
X23837500Y46800000D03*
X23837500Y46300000D03*
X23837500Y45800000D03*
D41*
X24500000Y45637500D03*
X25000000Y45637500D03*
X25500000Y45637500D03*
D40*
X26162500Y45800000D03*
X26162500Y46300000D03*
X26162500Y46800000D03*
X26162500Y47300000D03*
D41*
X25500000Y47462500D03*
X25000000Y47462500D03*
X24500000Y47462500D03*
%TD*%
D42*
%TO.C,SW1*%
X39000000Y48375000D03*
X45000000Y48375000D03*
X39000000Y44625000D03*
X45000000Y44625000D03*
%TD*%
D43*
%TO.C,U6*%
X39062500Y53350000D03*
X39062500Y51450000D03*
X40937500Y52400000D03*
%TD*%
D13*
%TO.C,LED1*%
X47662500Y48500000D03*
X49237500Y48500000D03*
%TD*%
D17*
%TO.C,C7*%
X16400000Y63720000D03*
X16400000Y64680000D03*
%TD*%
D44*
%TO.C,C4*%
X9030000Y65950000D03*
X8070000Y65950000D03*
%TD*%
D22*
%TO.C,MH2*%
X46500000Y3500000D03*
%TD*%
D14*
%TO.C,R14*%
X6200000Y62990000D03*
X6200000Y64010000D03*
%TD*%
%TO.C,R10*%
X9400000Y58190000D03*
X9400000Y59210000D03*
%TD*%
D45*
%TO.C,U4*%
X13550000Y58000000D03*
X13550000Y58500000D03*
X13550000Y59000000D03*
X13550000Y59500000D03*
D46*
X12900000Y60150000D03*
X12400000Y60150000D03*
X11900000Y60150000D03*
X11400000Y60150000D03*
D45*
X10750000Y59500000D03*
X10750000Y59000000D03*
X10750000Y58500000D03*
X10750000Y58000000D03*
D46*
X11400000Y57350000D03*
X11900000Y57350000D03*
X12400000Y57350000D03*
X12900000Y57350000D03*
D47*
X12150000Y58750000D03*
%TD*%
D17*
%TO.C,C16*%
X7400000Y63020000D03*
X7400000Y63980000D03*
%TD*%
D14*
%TO.C,R8*%
X27600000Y48490000D03*
X27600000Y49510000D03*
%TD*%
D48*
%TO.C,C1*%
X11325000Y55600000D03*
X12875000Y55600000D03*
%TD*%
D18*
%TO.C,C17*%
X16320000Y48700000D03*
X17280000Y48700000D03*
%TD*%
D13*
%TO.C,LED2*%
X47662500Y46500000D03*
X49237500Y46500000D03*
%TD*%
D28*
%TO.C,R12*%
X11890000Y62000000D03*
X12910000Y62000000D03*
%TD*%
D49*
%TO.C,U1*%
X18000000Y65150000D03*
X18000000Y64300000D03*
X18000000Y63450000D03*
X18000000Y62600000D03*
X18000000Y61750000D03*
X18000000Y60900000D03*
X18000000Y60050000D03*
X18000000Y59200000D03*
X18000000Y58350000D03*
X18000000Y57500000D03*
X18000000Y56650000D03*
X18000000Y55800000D03*
X18000000Y54950000D03*
X18000000Y54100000D03*
X18000000Y53250000D03*
D50*
X19050000Y52200000D03*
X19900000Y52200000D03*
X20750000Y52200000D03*
X21600000Y52200000D03*
X22450000Y52200000D03*
X23300000Y52200000D03*
X24150000Y52200000D03*
X25000000Y52200000D03*
X25850000Y52200000D03*
X26700000Y52200000D03*
X27550000Y52200000D03*
X28400000Y52200000D03*
X29250000Y52200000D03*
X30100000Y52200000D03*
X30950000Y52200000D03*
D49*
X32000000Y53250000D03*
X32000000Y54100000D03*
X32000000Y54950000D03*
X32000000Y55800000D03*
X32000000Y56650000D03*
X32000000Y57500000D03*
X32000000Y58350000D03*
X32000000Y59200000D03*
X32000000Y60050000D03*
X32000000Y60900000D03*
X32000000Y61750000D03*
X32000000Y62600000D03*
X32000000Y63450000D03*
X32000000Y64300000D03*
X32000000Y65150000D03*
D50*
X30950000Y66200000D03*
X30100000Y66200000D03*
X29250000Y66200000D03*
X28400000Y66200000D03*
X27550000Y66200000D03*
X26700000Y66200000D03*
X25850000Y66200000D03*
X25000000Y66200000D03*
X24150000Y66200000D03*
X23300000Y66200000D03*
X22450000Y66200000D03*
X21600000Y66200000D03*
X20750000Y66200000D03*
X19900000Y66200000D03*
X19050000Y66200000D03*
D51*
X23350000Y60850000D03*
D52*
X23350000Y59200000D03*
X23350000Y57550000D03*
X25000000Y60850000D03*
X25000000Y59200000D03*
X25000000Y57550000D03*
X26650000Y60850000D03*
X26650000Y59200000D03*
X26650000Y57550000D03*
D53*
X18000000Y66200000D03*
X18000000Y52200000D03*
X32000000Y52200000D03*
X32000000Y66200000D03*
%TD*%
D18*
%TO.C,C9*%
X35120000Y44400000D03*
X36080000Y44400000D03*
%TD*%
%LPD*%
M02*
