M48
; DRILL file KiCad 10.0.5 date 2026-09-24T21:03:54
; FORMAT={-:-/ absolute / metric / decimal}
; #@! TF.CreationDate,2026-09-24T21:03:54+03:00
; #@! TF.GenerationSoftware,Kicad,Pcbnew,10.0.5
; #@! TF.FileFunction,MixedPlating,1,2
FMAT,2
METRIC
; #@! TA.AperFunction,Plated,PTH,ViaDrill
T1C0.300
; #@! TA.AperFunction,Plated,PTH,ComponentDrill
T2C0.600
; #@! TA.AperFunction,Plated,PTH,ComponentDrill
T3C0.750
; #@! TA.AperFunction,Plated,PTH,ComponentDrill
T4C0.900
; #@! TA.AperFunction,NonPlated,NPTH,ComponentDrill
T5C0.650
; #@! TA.AperFunction,NonPlated,NPTH,ComponentDrill
T6C2.200
%
G90
G05
T1
X0.7Y57.8
X1.0Y63.15
X1.0Y60.65
X1.0Y53.15
X1.0Y50.65
X1.0Y48.15
X1.0Y45.65
X1.0Y43.15
X1.0Y40.65
X1.0Y38.15
X1.0Y35.65
X1.0Y33.15
X1.0Y30.65
X1.0Y28.15
X1.0Y25.65
X1.0Y23.15
X1.0Y20.65
X1.0Y18.15
X1.0Y15.65
X1.0Y13.15
X1.0Y10.65
X1.0Y8.15
X1.0Y5.65
X1.0Y3.15
X1.0Y1.0
X1.2Y54.1
X2.0Y62.0
X2.0Y59.0
X3.0Y40.0
X3.0Y36.0
X3.0Y32.0
X3.0Y28.0
X3.0Y24.0
X3.0Y20.0
X3.0Y16.0
X3.0Y12.0
X3.0Y8.0
X3.5Y1.0
X3.9Y53.2
X4.7Y53.9
X5.0Y62.0
X6.0Y1.0
X6.3Y57.5
X6.65Y42.75
X6.65Y40.531
X6.65Y38.312
X6.65Y36.094
X6.65Y33.875
X6.65Y31.656
X6.65Y29.438
X6.65Y27.219
X6.65Y25.0
X6.65Y22.781
X6.65Y20.562
X6.65Y18.344
X6.65Y16.125
X6.65Y13.906
X6.65Y11.688
X6.65Y9.469
X6.65Y6.65
X6.8Y60.1
X7.0Y54.0
X7.0Y24.0
X7.0Y8.0
X7.0Y4.0
X7.7Y57.4
X8.4Y63.9
X8.5Y1.0
X8.8Y56.5
X8.944Y6.65
X9.1Y60.6
X9.2Y62.4
X9.2Y52.5
X9.4Y59.76
X9.55Y48.0
X9.8Y60.9
X10.3Y55.2
X10.55Y50.24
X10.7Y60.0
X10.8Y53.2
X11.0Y40.0
X11.0Y36.0
X11.0Y32.0
X11.0Y28.0
X11.0Y24.0
X11.0Y20.0
X11.0Y16.0
X11.0Y12.0
X11.0Y8.0
X11.0Y4.0
X11.0Y1.0
X11.237Y6.65
X11.4Y51.9
X11.6Y59.3
X11.6Y58.2
X11.762Y66.35
X11.762Y65.45
X11.762Y64.55
X11.762Y63.55
X11.8Y60.9
X11.9Y45.5
X12.0Y62.8
X12.1Y56.34
X12.1Y54.7
X12.15Y58.75
X12.3Y53.5
X12.7Y59.3
X12.7Y58.2
X12.8Y56.6
X13.0Y65.3
X13.1Y61.1
X13.2Y53.5
X13.5Y56.9
X13.5Y1.0
X13.531Y6.65
X13.7Y64.9
X13.9Y55.8
X14.2Y57.2
X14.7Y55.6
X14.9Y53.1
X15.0Y40.0
X15.0Y36.0
X15.0Y32.0
X15.0Y28.0
X15.0Y24.0
X15.0Y20.0
X15.0Y16.0
X15.0Y12.0
X15.0Y8.0
X15.0Y4.0
X15.4Y65.1
X15.4Y64.2
X15.5Y63.2
X15.5Y60.8
X15.825Y6.65
X16.0Y1.0
X16.1Y54.6
X16.5Y57.95
X16.5Y56.4
X16.8Y61.1
X16.9Y62.6
X17.1Y52.85
X17.5Y49.25
X18.119Y6.65
X18.5Y1.0
X18.6Y48.6
X18.8Y54.0
X18.9Y53.0
X19.0Y40.0
X19.0Y36.0
X19.0Y32.0
X19.0Y20.0
X19.0Y12.0
X19.0Y8.0
X19.0Y4.0
X19.3Y61.55
X19.7Y53.0
X19.83Y45.51
X19.9Y62.1
X19.95Y47.45
X20.0Y59.0
X20.0Y56.0
X20.4Y48.6
X20.412Y6.65
X21.0Y1.0
X21.2Y48.8
X21.25Y28.75
X21.25Y26.25
X21.25Y23.75
X21.25Y21.25
X22.55Y45.55
X22.706Y6.65
X23.0Y56.0
X23.0Y40.0
X23.0Y36.0
X23.0Y28.0
X23.0Y20.0
X23.0Y12.0
X23.0Y8.0
X23.0Y4.0
X23.35Y60.025
X23.35Y58.375
X23.5Y1.0
X23.75Y28.75
X23.75Y26.25
X23.75Y23.75
X23.75Y21.25
X24.175Y60.85
X24.175Y59.2
X24.175Y57.55
X25.0Y60.025
X25.0Y58.375
X25.0Y6.65
X25.825Y60.85
X25.825Y59.2
X25.825Y57.55
X26.0Y56.0
X26.0Y1.0
X26.25Y28.75
X26.25Y26.25
X26.25Y23.75
X26.25Y21.25
X26.65Y60.025
X26.65Y58.375
X27.0Y40.0
X27.0Y36.0
X27.0Y28.0
X27.0Y20.0
X27.0Y12.0
X27.0Y8.0
X27.0Y4.0
X27.294Y6.65
X27.8Y50.65
X27.8Y49.9
X28.4Y53.7
X28.5Y1.0
X28.75Y28.75
X28.75Y26.25
X28.75Y23.75
X28.75Y21.25
X29.0Y56.0
X29.25Y53.7
X29.587Y6.65
X30.1Y53.7
X30.75Y60.9
X30.75Y60.05
X30.75Y58.35
X30.75Y57.5
X30.75Y56.65
X30.75Y55.8
X30.75Y54.95
X30.75Y54.1
X30.75Y53.25
X31.0Y40.0
X31.0Y36.0
X31.0Y32.0
X31.0Y20.0
X31.0Y12.0
X31.0Y8.0
X31.0Y4.0
X31.0Y1.0
X31.881Y6.65
X32.9Y65.55
X32.9Y52.8
X33.5Y60.7
X33.5Y1.0
X34.175Y6.65
X34.2Y52.8
X35.0Y64.3
X35.0Y59.05
X35.0Y46.9
X35.0Y40.0
X35.0Y36.0
X35.0Y32.0
X35.0Y28.0
X35.0Y24.0
X35.0Y20.0
X35.0Y12.0
X35.0Y8.0
X35.0Y4.0
X35.16Y45.2
X35.9Y58.35
X36.0Y1.0
X36.78Y60.1
X37.0Y57.5
X37.1Y52.75
X37.9Y46.9
X38.06Y45.2
X38.4Y55.8
X38.5Y1.0
X38.6Y60.1
X38.762Y6.65
X39.0Y24.0
X39.0Y20.0
X39.0Y16.0
X39.0Y12.0
X39.0Y8.0
X39.0Y4.0
X39.2Y56.65
X39.3Y60.4
X39.5Y64.3
X40.0Y52.75
X40.3Y61.55
X40.5Y63.6
X40.75Y52.7
X40.9Y64.9
X41.0Y56.0
X41.0Y1.0
X41.056Y6.65
X41.5Y66.25
X41.5Y52.7
X42.1Y58.8
X42.1Y57.8
X42.25Y52.7
X42.7Y55.35
X42.7Y3.1
X43.0Y52.7
X43.0Y40.0
X43.0Y32.0
X43.35Y42.75
X43.35Y29.438
X43.35Y27.219
X43.35Y20.562
X43.35Y18.344
X43.35Y16.125
X43.35Y13.906
X43.35Y11.688
X43.35Y9.469
X43.35Y7.25
X43.5Y56.3
X43.5Y1.0
X43.75Y52.7
X44.3Y64.4
X44.6Y66.25
X46.0Y1.0
X46.3Y23.2
X47.0Y62.0
X47.0Y20.0
X47.0Y16.0
X47.0Y12.0
X47.1Y64.9
X47.2Y7.2
X47.4Y14.3
X48.4Y20.1
X48.4Y12.3
X48.5Y1.0
X49.0Y5.65
X49.0Y3.15
X49.3Y56.0
T3
X46.64Y55.0
X46.64Y53.0
X46.64Y51.0
T4
X2.2Y64.68
X4.7Y64.68
X7.2Y64.68
T5
X6.25Y51.09
X6.25Y45.31
T6
X3.5Y60.0
X3.5Y3.5
X46.5Y60.0
X46.5Y3.5
T2
X2.9Y52.52G85X2.3Y52.52
G05
X2.9Y43.88G85X2.3Y43.88
G05
X7.33Y52.52G85X6.23Y52.52
G05
X7.33Y43.88G85X6.23Y43.88
G05
M30
