M48
; DRILL file KiCad 10.0.5 date 2026-09-24T09:19:27
; FORMAT={-:-/ absolute / metric / decimal}
; #@! TF.CreationDate,2026-09-24T09:19:27+03:00
; #@! TF.GenerationSoftware,Kicad,Pcbnew,10.0.5
; #@! TF.FileFunction,MixedPlating,1,2
FMAT,2
METRIC
; #@! TA.AperFunction,Plated,PTH,ViaDrill
T1C0.300
; #@! TA.AperFunction,Plated,PTH,ComponentDrill
T2C0.600
; #@! TA.AperFunction,Plated,PTH,ComponentDrill
T3C0.750
; #@! TA.AperFunction,Plated,PTH,ComponentDrill
T4C0.900
; #@! TA.AperFunction,NonPlated,NPTH,ComponentDrill
T5C0.650
; #@! TA.AperFunction,NonPlated,NPTH,ComponentDrill
T6C2.200
%
G90
G05
T1
X1.0Y65.9
X1.0Y63.4
X1.0Y60.9
X1.0Y58.4
X1.0Y55.9
X1.0Y53.4
X1.0Y50.9
X1.0Y48.4
X1.0Y45.9
X1.0Y43.4
X1.0Y40.9
X1.0Y38.4
X1.0Y35.9
X1.0Y33.4
X1.0Y30.9
X1.0Y28.4
X1.0Y25.9
X1.0Y23.4
X1.0Y20.9
X1.0Y18.4
X1.0Y15.9
X1.0Y13.4
X1.0Y10.9
X1.0Y8.4
X1.0Y5.9
X1.0Y3.4
X1.0Y1.0
X2.0Y65.0
X2.0Y62.0
X2.0Y59.0
X2.0Y53.0
X3.0Y40.0
X3.0Y36.0
X3.0Y32.0
X3.0Y28.0
X3.0Y24.0
X3.0Y20.0
X3.0Y16.0
X3.0Y12.0
X3.0Y8.0
X3.5Y1.0
X5.0Y62.0
X5.0Y59.0
X5.0Y56.0
X5.0Y53.0
X5.8Y44.3
X6.0Y1.0
X6.65Y40.531
X6.65Y38.312
X6.65Y36.094
X6.65Y33.875
X6.65Y31.656
X6.65Y29.438
X6.65Y27.219
X6.65Y25.0
X6.65Y22.781
X6.65Y20.562
X6.65Y18.344
X6.65Y16.125
X6.65Y13.906
X6.65Y11.688
X6.65Y9.469
X6.65Y6.65
X6.8Y60.1
X7.0Y24.0
X7.0Y8.0
X7.0Y4.0
X7.2Y65.8
X7.98Y63.64
X8.3Y59.9
X8.5Y1.0
X8.6Y45.6
X8.7Y48.0
X8.944Y6.65
X9.1Y61.6
X9.1Y60.5
X9.1Y59.76
X9.1Y55.3
X9.1Y48.8
X9.3Y64.3
X9.8Y61.1
X10.0Y46.5
X10.16Y48.85
X10.2Y61.9
X10.3Y57.4
X10.3Y47.3
X10.5Y54.7
X10.7Y60.0
X10.7Y51.9
X10.9Y62.3
X10.9Y60.8
X10.99Y53.87
X11.0Y40.0
X11.0Y36.0
X11.0Y32.0
X11.0Y28.0
X11.0Y24.0
X11.0Y20.0
X11.0Y16.0
X11.0Y12.0
X11.0Y8.0
X11.0Y4.0
X11.0Y1.0
X11.2Y63.0
X11.237Y6.65
X11.6Y59.3
X11.6Y58.2
X11.762Y66.45
X11.762Y65.45
X11.762Y64.55
X11.762Y63.55
X12.1Y53.7
X12.15Y58.75
X12.2Y47.3
X12.2Y46.5
X12.3Y50.3
X12.5Y60.9
X12.6Y49.3
X12.7Y59.3
X12.7Y58.2
X13.0Y64.9
X13.3Y54.3
X13.5Y60.9
X13.5Y1.0
X13.531Y6.65
X13.7Y65.3
X14.1Y50.3
X14.4Y46.0
X14.5Y47.1
X14.7Y65.0
X14.7Y49.7
X14.8Y63.3
X14.8Y57.2
X15.0Y46.5
X15.0Y40.0
X15.0Y36.0
X15.0Y32.0
X15.0Y28.0
X15.0Y24.0
X15.0Y20.0
X15.0Y16.0
X15.0Y12.0
X15.0Y8.0
X15.0Y4.0
X15.1Y56.5
X15.1Y54.1
X15.38Y59.37
X15.6Y63.4
X15.8Y49.7
X15.825Y6.65
X16.0Y54.6
X16.0Y1.0
X16.2Y55.4
X16.2Y46.5
X16.3Y59.2
X16.4Y61.0
X16.7Y48.0
X16.9Y53.7
X17.0Y55.2
X17.0Y46.6
X17.2Y63.5
X17.2Y62.4
X17.2Y61.4
X17.2Y56.0
X17.2Y54.4
X17.2Y53.0
X17.2Y51.1
X17.7Y47.1
X17.87Y48.96
X18.119Y6.65
X18.5Y1.0
X18.8Y50.9
X18.8Y49.0
X18.8Y43.7
X19.0Y40.0
X19.0Y36.0
X19.0Y32.0
X19.0Y20.0
X19.0Y12.0
X19.0Y8.0
X19.0Y4.0
X19.2Y53.0
X19.5Y51.3
X19.7Y46.1
X20.2Y53.0
X20.2Y48.4
X20.412Y6.65
X20.8Y50.9
X21.0Y1.0
X21.2Y49.7
X21.2Y46.6
X21.25Y28.75
X21.25Y26.25
X21.25Y23.75
X21.25Y21.25
X21.3Y47.8
X21.8Y42.9
X21.9Y51.25
X21.9Y44.3
X22.4Y56.6
X22.706Y6.65
X23.0Y40.0
X23.0Y36.0
X23.0Y28.0
X23.0Y20.0
X23.0Y12.0
X23.0Y8.0
X23.0Y4.0
X23.35Y60.025
X23.35Y58.375
X23.4Y45.3
X23.5Y1.0
X23.75Y28.75
X23.75Y26.25
X23.75Y23.75
X23.75Y21.25
X23.8Y49.1
X24.175Y60.85
X24.175Y59.2
X24.175Y57.55
X24.3Y49.7
X24.5Y42.7
X24.6Y44.9
X24.7Y53.0
X24.9Y48.2
X25.0Y60.025
X25.0Y58.375
X25.0Y6.65
X25.4Y49.7
X25.6Y48.5
X25.7Y50.9
X25.825Y60.85
X25.825Y59.2
X25.825Y57.55
X25.9Y44.9
X25.9Y43.7
X26.0Y56.0
X26.0Y1.0
X26.2Y49.7
X26.25Y28.75
X26.25Y26.25
X26.25Y23.75
X26.25Y21.25
X26.6Y48.2
X26.65Y60.025
X26.65Y58.375
X26.7Y50.3
X27.0Y46.6
X27.0Y40.0
X27.0Y36.0
X27.0Y28.0
X27.0Y20.0
X27.0Y12.0
X27.0Y8.0
X27.0Y4.0
X27.1Y44.7
X27.294Y6.65
X27.4Y51.3
X27.6Y61.8
X27.9Y43.2
X28.4Y50.3
X28.5Y44.7
X28.5Y43.9
X28.5Y1.0
X28.75Y28.75
X28.75Y26.25
X28.75Y23.75
X28.75Y21.25
X28.9Y50.9
X29.0Y65.0
X29.0Y46.9
X29.1Y46.0
X29.4Y47.6
X29.587Y6.65
X29.9Y49.7
X29.9Y46.1
X30.1Y50.8
X30.8Y47.2
X31.0Y40.0
X31.0Y36.0
X31.0Y32.0
X31.0Y20.0
X31.0Y12.0
X31.0Y8.0
X31.0Y4.0
X31.0Y1.0
X31.2Y65.0
X31.2Y60.2
X31.2Y57.7
X31.2Y56.5
X31.2Y55.7
X31.5Y47.9
X31.51Y50.07
X31.881Y6.65
X32.881Y62.646
X32.9Y65.7
X32.9Y60.3
X32.9Y59.2
X32.9Y54.6
X33.1Y49.7
X33.1Y48.2
X33.1Y47.4
X33.1Y43.7
X33.2Y56.7
X33.4Y54.0
X33.5Y1.0
X33.75Y64.18
X34.0Y52.8
X34.1Y55.9
X34.175Y6.65
X34.6Y50.8
X34.8Y61.6
X34.9Y62.9
X35.0Y32.0
X35.0Y28.0
X35.0Y24.0
X35.0Y20.0
X35.0Y12.0
X35.0Y8.0
X35.0Y4.0
X35.4Y65.9
X35.4Y52.0
X35.6Y48.2
X35.8Y62.8
X35.8Y51.2
X35.9Y45.3
X36.0Y53.5
X36.0Y1.0
X36.2Y46.6
X36.4Y56.4
X36.469Y6.65
X36.8Y53.2
X36.9Y54.4
X37.1Y55.7
X37.7Y56.4
X38.0Y59.0
X38.4Y49.7
X38.4Y47.4
X38.4Y46.6
X38.4Y43.7
X38.5Y1.0
X38.6Y61.1
X38.6Y59.5
X38.762Y6.65
X39.0Y57.6
X39.0Y56.4
X39.0Y40.0
X39.0Y36.0
X39.0Y32.0
X39.0Y28.0
X39.0Y24.0
X39.0Y20.0
X39.0Y16.0
X39.0Y12.0
X39.0Y8.0
X39.0Y4.0
X39.4Y52.4
X40.1Y63.9
X40.1Y62.5
X40.2Y44.6
X40.7Y49.3
X41.0Y65.0
X41.0Y59.0
X41.0Y56.0
X41.0Y1.0
X41.056Y6.65
X41.3Y51.6
X41.4Y53.9
X43.0Y24.0
X43.0Y8.0
X43.0Y4.0
X43.3Y60.4
X43.35Y42.75
X43.35Y40.531
X43.35Y38.312
X43.35Y36.094
X43.35Y33.875
X43.35Y31.656
X43.35Y29.438
X43.35Y27.219
X43.35Y25.0
X43.35Y22.781
X43.35Y20.562
X43.35Y18.344
X43.35Y16.125
X43.35Y13.906
X43.35Y11.688
X43.35Y9.469
X43.35Y6.65
X43.5Y1.0
X43.8Y48.7
X43.8Y45.9
X43.9Y54.6
X44.0Y59.0
X44.4Y51.5
X44.6Y53.8
X45.13Y45.3
X46.0Y1.0
X47.0Y62.0
X47.0Y40.0
X47.0Y36.0
X47.0Y32.0
X47.0Y28.0
X47.0Y24.0
X47.0Y20.0
X47.0Y16.0
X47.0Y12.0
X47.0Y8.0
X48.4Y47.94
X48.4Y45.97
X48.5Y1.0
X49.0Y65.9
X49.0Y63.4
X49.0Y60.9
X49.0Y58.4
X49.0Y55.9
X49.0Y53.4
X49.0Y50.9
X49.0Y43.4
X49.0Y40.9
X49.0Y38.4
X49.0Y35.9
X49.0Y33.4
X49.0Y30.9
X49.0Y28.4
X49.0Y25.9
X49.0Y23.4
X49.0Y20.9
X49.0Y18.4
X49.0Y15.9
X49.0Y13.4
X49.0Y10.9
X49.0Y8.4
X49.0Y5.9
X49.0Y3.4
T3
X46.6Y55.0
X46.6Y53.0
T4
X42.7Y64.68
X45.2Y64.68
X47.7Y64.68
T5
X6.25Y54.84
X6.25Y49.06
T6
X3.5Y60.0
X3.5Y3.5
X46.5Y60.0
X46.5Y3.5
T2
X2.9Y56.27G85X2.3Y56.27
G05
X2.9Y47.63G85X2.3Y47.63
G05
X7.33Y56.27G85X6.23Y56.27
G05
X7.33Y47.63G85X6.23Y47.63
G05
M30
