%TF.GenerationSoftware,KiCad,Pcbnew,10.0.5*%
%TF.CreationDate,2026-09-24T21:03:54+03:00*%
%TF.ProjectId,gnss-pod,676e7373-2d70-46f6-942e-6b696361645f,rev?*%
%TF.SameCoordinates,Original*%
%TF.FileFunction,Legend,Top*%
%TF.FilePolarity,Positive*%
%FSLAX46Y46*%
G04 Gerber Fmt 4.6, Leading zero omitted, Abs format (unit mm)*
G04 Created by KiCad (PCBNEW 10.0.5) date 2026-09-24 21:03:54*
%MOMM*%
%LPD*%
G01*
G04 APERTURE LIST*
G04 Aperture macros list*
%AMRoundRect*
0 Rectangle with rounded corners*
0 $1 Rounding radius*
0 $2 $3 $4 $5 $6 $7 $8 $9 X,Y pos of 4 corners*
0 Add a 4 corners polygon primitive as box body*
4,1,4,$2,$3,$4,$5,$6,$7,$8,$9,$2,$3,0*
0 Add four circle primitives for the rounded corners*
1,1,$1+$1,$2,$3*
1,1,$1+$1,$4,$5*
1,1,$1+$1,$6,$7*
1,1,$1+$1,$8,$9*
0 Add four rect primitives between the rounded corners*
20,1,$1+$1,$2,$3,$4,$5,0*
20,1,$1+$1,$4,$5,$6,$7,0*
20,1,$1+$1,$6,$7,$8,$9,0*
20,1,$1+$1,$8,$9,$2,$3,0*%
%AMOutline5P*
0 Free polygon, 5 corners , with rotation*
0 The origin of the aperture is its center*
0 number of corners: always 5*
0 $1 to $10 corner X, Y*
0 $11 Rotation angle, in degrees counterclockwise*
0 create outline with 5 corners*
4,1,5,$1,$2,$3,$4,$5,$6,$7,$8,$9,$10,$1,$2,$11*%
%AMOutline6P*
0 Free polygon, 6 corners , with rotation*
0 The origin of the aperture is its center*
0 number of corners: always 6*
0 $1 to $12 corner X, Y*
0 $13 Rotation angle, in degrees counterclockwise*
0 create outline with 6 corners*
4,1,6,$1,$2,$3,$4,$5,$6,$7,$8,$9,$10,$11,$12,$1,$2,$13*%
%AMOutline7P*
0 Free polygon, 7 corners , with rotation*
0 The origin of the aperture is its center*
0 number of corners: always 7*
0 $1 to $14 corner X, Y*
0 $15 Rotation angle, in degrees counterclockwise*
0 create outline with 7 corners*
4,1,7,$1,$2,$3,$4,$5,$6,$7,$8,$9,$10,$11,$12,$13,$14,$1,$2,$15*%
%AMOutline8P*
0 Free polygon, 8 corners , with rotation*
0 The origin of the aperture is its center*
0 number of corners: always 8*
0 $1 to $16 corner X, Y*
0 $17 Rotation angle, in degrees counterclockwise*
0 create outline with 8 corners*
4,1,8,$1,$2,$3,$4,$5,$6,$7,$8,$9,$10,$11,$12,$13,$14,$15,$16,$1,$2,$17*%
G04 Aperture macros list end*
%ADD10C,0.120000*%
%ADD11C,0.100000*%
%ADD12RoundRect,0.135000X-0.135000X-0.185000X0.135000X-0.185000X0.135000X0.185000X-0.135000X0.185000X0*%
%ADD13RoundRect,0.140000X-0.140000X-0.170000X0.140000X-0.170000X0.140000X0.170000X-0.140000X0.170000X0*%
%ADD14RoundRect,0.140000X0.170000X-0.140000X0.170000X0.140000X-0.170000X0.140000X-0.170000X-0.140000X0*%
%ADD15RoundRect,0.140000X0.140000X0.170000X-0.140000X0.170000X-0.140000X-0.170000X0.140000X-0.170000X0*%
%ADD16RoundRect,0.250000X0.625000X-0.350000X0.625000X0.350000X-0.625000X0.350000X-0.625000X-0.350000X0*%
%ADD17O,1.750000X1.200000*%
%ADD18RoundRect,0.225000X-0.225000X-0.250000X0.225000X-0.250000X0.225000X0.250000X-0.225000X0.250000X0*%
%ADD19R,0.750000X1.000000*%
%ADD20RoundRect,0.218750X-0.218750X-0.256250X0.218750X-0.256250X0.218750X0.256250X-0.218750X0.256250X0*%
%ADD21RoundRect,0.135000X0.185000X-0.135000X0.185000X0.135000X-0.185000X0.135000X-0.185000X-0.135000X0*%
%ADD22C,1.000000*%
%ADD23RoundRect,0.250000X0.475000X-0.250000X0.475000X0.250000X-0.475000X0.250000X-0.475000X-0.250000X0*%
%ADD24RoundRect,0.049980X-0.500020X-0.250020X0.500020X-0.250020X0.500020X0.250020X-0.500020X0.250020X0*%
%ADD25R,0.975000X1.700000*%
%ADD26C,0.650000*%
%ADD27RoundRect,0.150000X-0.575000X0.150000X-0.575000X-0.150000X0.575000X-0.150000X0.575000X0.150000X0*%
%ADD28RoundRect,0.075000X-0.650000X0.075000X-0.650000X-0.075000X0.650000X-0.075000X0.650000X0.075000X0*%
%ADD29O,2.100000X1.000000*%
%ADD30O,1.600000X1.000000*%
%ADD31RoundRect,0.150000X-0.512500X-0.150000X0.512500X-0.150000X0.512500X0.150000X-0.512500X0.150000X0*%
%ADD32R,1.600000X1.600000*%
%ADD33C,1.600000*%
%ADD34RoundRect,0.135000X0.135000X0.185000X-0.135000X0.185000X-0.135000X-0.185000X0.135000X-0.185000X0*%
%ADD35RoundRect,0.050000X-0.900000X-0.750000X0.900000X-0.750000X0.900000X0.750000X-0.900000X0.750000X0*%
%ADD36RoundRect,0.050000X-0.750000X-0.900000X0.750000X-0.900000X0.750000X0.900000X-0.750000X0.900000X0*%
%ADD37RoundRect,0.225000X0.225000X0.250000X-0.225000X0.250000X-0.225000X-0.250000X0.225000X-0.250000X0*%
%ADD38RoundRect,0.150000X-0.587500X-0.150000X0.587500X-0.150000X0.587500X0.150000X-0.587500X0.150000X0*%
%ADD39C,2.200000*%
%ADD40RoundRect,0.049992X0.250008X0.070008X-0.250008X0.070008X-0.250008X-0.070008X0.250008X-0.070008X0*%
%ADD41RoundRect,0.049992X0.070008X0.250008X-0.070008X0.250008X-0.070008X-0.250008X0.070008X-0.250008X0*%
%ADD42R,1.680000X1.680000*%
%ADD43R,0.800000X0.400000*%
%ADD44R,0.400000X0.800000*%
%ADD45Outline5P,-0.600000X0.000000X0.000000X0.600000X0.600000X0.600000X0.600000X-0.600000X-0.600000X-0.600000X0.000000*%
%ADD46R,1.200000X1.200000*%
%ADD47R,0.800000X0.800000*%
%ADD48R,0.625000X0.300000*%
%ADD49R,0.300000X0.625000*%
%ADD50RoundRect,0.135000X-0.185000X0.135000X-0.185000X-0.135000X0.185000X-0.135000X0.185000X0.135000X0*%
%ADD51RoundRect,0.250000X0.250000X0.475000X-0.250000X0.475000X-0.250000X-0.475000X0.250000X-0.475000X0*%
%ADD52R,2.400000X1.000000*%
%ADD53RoundRect,0.150000X0.587500X0.150000X-0.587500X0.150000X-0.587500X-0.150000X0.587500X-0.150000X0*%
G04 APERTURE END LIST*
D10*
X1828571Y62258669D02*
X1942857Y62258669D01*
X1942857Y62258669D02*
X2000000Y62230098D01*
X2000000Y62230098D02*
X2057143Y62172955D01*
X2057143Y62172955D02*
X2085714Y62058669D01*
X2085714Y62058669D02*
X2085714Y61858669D01*
X2085714Y61858669D02*
X2057143Y61744383D01*
X2057143Y61744383D02*
X2000000Y61687240D01*
X2000000Y61687240D02*
X1942857Y61658669D01*
X1942857Y61658669D02*
X1828571Y61658669D01*
X1828571Y61658669D02*
X1771429Y61687240D01*
X1771429Y61687240D02*
X1714286Y61744383D01*
X1714286Y61744383D02*
X1685714Y61858669D01*
X1685714Y61858669D02*
X1685714Y62058669D01*
X1685714Y62058669D02*
X1714286Y62172955D01*
X1714286Y62172955D02*
X1771429Y62230098D01*
X1771429Y62230098D02*
X1828571Y62258669D01*
X2342857Y61658669D02*
X2342857Y62258669D01*
X2342857Y62258669D02*
X2685714Y61658669D01*
X2685714Y61658669D02*
X2685714Y62258669D01*
X6628571Y62258669D02*
X6742857Y62258669D01*
X6742857Y62258669D02*
X6800000Y62230098D01*
X6800000Y62230098D02*
X6857143Y62172955D01*
X6857143Y62172955D02*
X6885714Y62058669D01*
X6885714Y62058669D02*
X6885714Y61858669D01*
X6885714Y61858669D02*
X6857143Y61744383D01*
X6857143Y61744383D02*
X6800000Y61687240D01*
X6800000Y61687240D02*
X6742857Y61658669D01*
X6742857Y61658669D02*
X6628571Y61658669D01*
X6628571Y61658669D02*
X6571429Y61687240D01*
X6571429Y61687240D02*
X6514286Y61744383D01*
X6514286Y61744383D02*
X6485714Y61858669D01*
X6485714Y61858669D02*
X6485714Y62058669D01*
X6485714Y62058669D02*
X6514286Y62172955D01*
X6514286Y62172955D02*
X6571429Y62230098D01*
X6571429Y62230098D02*
X6628571Y62258669D01*
X7342857Y61972955D02*
X7142857Y61972955D01*
X7142857Y61658669D02*
X7142857Y62258669D01*
X7142857Y62258669D02*
X7428571Y62258669D01*
X7857143Y61972955D02*
X7657143Y61972955D01*
X7657143Y61658669D02*
X7657143Y62258669D01*
X7657143Y62258669D02*
X7942857Y62258669D01*
X16333333Y45482407D02*
X16799999Y44782407D01*
X16799999Y45482407D02*
X16333333Y44782407D01*
X17066666Y45249074D02*
X17600000Y45049074D01*
X17600000Y45049074D02*
X17066666Y44849074D01*
X16800000Y44265740D02*
X16800000Y43932407D01*
X16566666Y44632407D02*
X16800000Y44265740D01*
X16800000Y44265740D02*
X17033333Y44632407D01*
X17166666Y44565740D02*
X17300000Y44665740D01*
X17300000Y44665740D02*
X17433333Y44565740D01*
X43303855Y52733334D02*
X43875283Y52733334D01*
X43875283Y52733334D02*
X43989569Y52695239D01*
X43989569Y52695239D02*
X44065760Y52619048D01*
X44065760Y52619048D02*
X44103855Y52504763D01*
X44103855Y52504763D02*
X44103855Y52428572D01*
X43380045Y53076191D02*
X43341950Y53114287D01*
X43341950Y53114287D02*
X43303855Y53190477D01*
X43303855Y53190477D02*
X43303855Y53380953D01*
X43303855Y53380953D02*
X43341950Y53457144D01*
X43341950Y53457144D02*
X43380045Y53495239D01*
X43380045Y53495239D02*
X43456236Y53533334D01*
X43456236Y53533334D02*
X43532426Y53533334D01*
X43532426Y53533334D02*
X43646712Y53495239D01*
X43646712Y53495239D02*
X44103855Y53038096D01*
X44103855Y53038096D02*
X44103855Y53533334D01*
X42875760Y17133333D02*
X42913855Y17247619D01*
X42913855Y17247619D02*
X42913855Y17438095D01*
X42913855Y17438095D02*
X42875760Y17514286D01*
X42875760Y17514286D02*
X42837664Y17552381D01*
X42837664Y17552381D02*
X42761474Y17590476D01*
X42761474Y17590476D02*
X42685283Y17590476D01*
X42685283Y17590476D02*
X42609093Y17552381D01*
X42609093Y17552381D02*
X42570998Y17514286D01*
X42570998Y17514286D02*
X42532902Y17438095D01*
X42532902Y17438095D02*
X42494807Y17285714D01*
X42494807Y17285714D02*
X42456712Y17209524D01*
X42456712Y17209524D02*
X42418617Y17171429D01*
X42418617Y17171429D02*
X42342426Y17133333D01*
X42342426Y17133333D02*
X42266236Y17133333D01*
X42266236Y17133333D02*
X42190045Y17171429D01*
X42190045Y17171429D02*
X42151950Y17209524D01*
X42151950Y17209524D02*
X42113855Y17285714D01*
X42113855Y17285714D02*
X42113855Y17476191D01*
X42113855Y17476191D02*
X42151950Y17590476D01*
X42113855Y17857143D02*
X42913855Y18047619D01*
X42913855Y18047619D02*
X42342426Y18200000D01*
X42342426Y18200000D02*
X42913855Y18352381D01*
X42913855Y18352381D02*
X42113855Y18542857D01*
X42913855Y19266667D02*
X42913855Y18809524D01*
X42913855Y19038096D02*
X42113855Y19038096D01*
X42113855Y19038096D02*
X42228140Y18961905D01*
X42228140Y18961905D02*
X42304331Y18885715D01*
X42304331Y18885715D02*
X42342426Y18809524D01*
X3633332Y67354240D02*
X3747618Y67316145D01*
X3747618Y67316145D02*
X3938094Y67316145D01*
X3938094Y67316145D02*
X4014285Y67354240D01*
X4014285Y67354240D02*
X4052380Y67392336D01*
X4052380Y67392336D02*
X4090475Y67468526D01*
X4090475Y67468526D02*
X4090475Y67544717D01*
X4090475Y67544717D02*
X4052380Y67620907D01*
X4052380Y67620907D02*
X4014285Y67659002D01*
X4014285Y67659002D02*
X3938094Y67697098D01*
X3938094Y67697098D02*
X3785713Y67735193D01*
X3785713Y67735193D02*
X3709523Y67773288D01*
X3709523Y67773288D02*
X3671428Y67811383D01*
X3671428Y67811383D02*
X3633332Y67887574D01*
X3633332Y67887574D02*
X3633332Y67963764D01*
X3633332Y67963764D02*
X3671428Y68039955D01*
X3671428Y68039955D02*
X3709523Y68078050D01*
X3709523Y68078050D02*
X3785713Y68116145D01*
X3785713Y68116145D02*
X3976190Y68116145D01*
X3976190Y68116145D02*
X4090475Y68078050D01*
X4357142Y68116145D02*
X4547618Y67316145D01*
X4547618Y67316145D02*
X4699999Y67887574D01*
X4699999Y67887574D02*
X4852380Y67316145D01*
X4852380Y67316145D02*
X5042857Y68116145D01*
X5271428Y68116145D02*
X5766666Y68116145D01*
X5766666Y68116145D02*
X5500000Y67811383D01*
X5500000Y67811383D02*
X5614285Y67811383D01*
X5614285Y67811383D02*
X5690476Y67773288D01*
X5690476Y67773288D02*
X5728571Y67735193D01*
X5728571Y67735193D02*
X5766666Y67659002D01*
X5766666Y67659002D02*
X5766666Y67468526D01*
X5766666Y67468526D02*
X5728571Y67392336D01*
X5728571Y67392336D02*
X5690476Y67354240D01*
X5690476Y67354240D02*
X5614285Y67316145D01*
X5614285Y67316145D02*
X5385714Y67316145D01*
X5385714Y67316145D02*
X5309523Y67354240D01*
X5309523Y67354240D02*
X5271428Y67392336D01*
X24390476Y34436145D02*
X24390476Y33788526D01*
X24390476Y33788526D02*
X24428571Y33712336D01*
X24428571Y33712336D02*
X24466666Y33674240D01*
X24466666Y33674240D02*
X24542857Y33636145D01*
X24542857Y33636145D02*
X24695238Y33636145D01*
X24695238Y33636145D02*
X24771428Y33674240D01*
X24771428Y33674240D02*
X24809523Y33712336D01*
X24809523Y33712336D02*
X24847619Y33788526D01*
X24847619Y33788526D02*
X24847619Y34436145D01*
X25190475Y34359955D02*
X25228571Y34398050D01*
X25228571Y34398050D02*
X25304761Y34436145D01*
X25304761Y34436145D02*
X25495237Y34436145D01*
X25495237Y34436145D02*
X25571428Y34398050D01*
X25571428Y34398050D02*
X25609523Y34359955D01*
X25609523Y34359955D02*
X25647618Y34283764D01*
X25647618Y34283764D02*
X25647618Y34207574D01*
X25647618Y34207574D02*
X25609523Y34093288D01*
X25609523Y34093288D02*
X25152380Y33636145D01*
X25152380Y33636145D02*
X25647618Y33636145D01*
D11*
X16700000Y28481367D02*
X16300000Y28481367D01*
X16500000Y28481367D02*
X16500000Y29181367D01*
X16500000Y29181367D02*
X16433333Y29081367D01*
X16433333Y29081367D02*
X16366667Y29014700D01*
X16366667Y29014700D02*
X16300000Y28981367D01*
X14421428Y57727629D02*
X14078571Y57727629D01*
X14250000Y57727629D02*
X14250000Y58327629D01*
X14250000Y58327629D02*
X14192857Y58241915D01*
X14192857Y58241915D02*
X14135714Y58184772D01*
X14135714Y58184772D02*
X14078571Y58156200D01*
D10*
X24390476Y73436144D02*
X24390476Y72788525D01*
X24390476Y72788525D02*
X24428571Y72712335D01*
X24428571Y72712335D02*
X24466666Y72674240D01*
X24466666Y72674240D02*
X24542857Y72636144D01*
X24542857Y72636144D02*
X24695238Y72636144D01*
X24695238Y72636144D02*
X24771428Y72674240D01*
X24771428Y72674240D02*
X24809523Y72712335D01*
X24809523Y72712335D02*
X24847619Y72788525D01*
X24847619Y72788525D02*
X24847619Y73436144D01*
X25647618Y72636144D02*
X25190475Y72636144D01*
X25419047Y72636144D02*
X25419047Y73436144D01*
X25419047Y73436144D02*
X25342856Y73321859D01*
X25342856Y73321859D02*
X25266666Y73245668D01*
X25266666Y73245668D02*
X25190475Y73207573D01*
X21690476Y49636145D02*
X21690476Y48988526D01*
X21690476Y48988526D02*
X21728571Y48912336D01*
X21728571Y48912336D02*
X21766666Y48874240D01*
X21766666Y48874240D02*
X21842857Y48836145D01*
X21842857Y48836145D02*
X21995238Y48836145D01*
X21995238Y48836145D02*
X22071428Y48874240D01*
X22071428Y48874240D02*
X22109523Y48912336D01*
X22109523Y48912336D02*
X22147619Y48988526D01*
X22147619Y48988526D02*
X22147619Y49636145D01*
X22452380Y49636145D02*
X22947618Y49636145D01*
X22947618Y49636145D02*
X22680952Y49331383D01*
X22680952Y49331383D02*
X22795237Y49331383D01*
X22795237Y49331383D02*
X22871428Y49293288D01*
X22871428Y49293288D02*
X22909523Y49255193D01*
X22909523Y49255193D02*
X22947618Y49179002D01*
X22947618Y49179002D02*
X22947618Y48988526D01*
X22947618Y48988526D02*
X22909523Y48912336D01*
X22909523Y48912336D02*
X22871428Y48874240D01*
X22871428Y48874240D02*
X22795237Y48836145D01*
X22795237Y48836145D02*
X22566666Y48836145D01*
X22566666Y48836145D02*
X22490475Y48874240D01*
X22490475Y48874240D02*
X22452380Y48912336D01*
X42875760Y9333333D02*
X42913855Y9447619D01*
X42913855Y9447619D02*
X42913855Y9638095D01*
X42913855Y9638095D02*
X42875760Y9714286D01*
X42875760Y9714286D02*
X42837664Y9752381D01*
X42837664Y9752381D02*
X42761474Y9790476D01*
X42761474Y9790476D02*
X42685283Y9790476D01*
X42685283Y9790476D02*
X42609093Y9752381D01*
X42609093Y9752381D02*
X42570998Y9714286D01*
X42570998Y9714286D02*
X42532902Y9638095D01*
X42532902Y9638095D02*
X42494807Y9485714D01*
X42494807Y9485714D02*
X42456712Y9409524D01*
X42456712Y9409524D02*
X42418617Y9371429D01*
X42418617Y9371429D02*
X42342426Y9333333D01*
X42342426Y9333333D02*
X42266236Y9333333D01*
X42266236Y9333333D02*
X42190045Y9371429D01*
X42190045Y9371429D02*
X42151950Y9409524D01*
X42151950Y9409524D02*
X42113855Y9485714D01*
X42113855Y9485714D02*
X42113855Y9676191D01*
X42113855Y9676191D02*
X42151950Y9790476D01*
X42113855Y10057143D02*
X42913855Y10247619D01*
X42913855Y10247619D02*
X42342426Y10400000D01*
X42342426Y10400000D02*
X42913855Y10552381D01*
X42913855Y10552381D02*
X42113855Y10742857D01*
X42190045Y11009524D02*
X42151950Y11047620D01*
X42151950Y11047620D02*
X42113855Y11123810D01*
X42113855Y11123810D02*
X42113855Y11314286D01*
X42113855Y11314286D02*
X42151950Y11390477D01*
X42151950Y11390477D02*
X42190045Y11428572D01*
X42190045Y11428572D02*
X42266236Y11466667D01*
X42266236Y11466667D02*
X42342426Y11466667D01*
X42342426Y11466667D02*
X42456712Y11428572D01*
X42456712Y11428572D02*
X42913855Y10971429D01*
X42913855Y10971429D02*
X42913855Y11466667D01*
X41713855Y31833334D02*
X42285283Y31833334D01*
X42285283Y31833334D02*
X42399569Y31795239D01*
X42399569Y31795239D02*
X42475760Y31719048D01*
X42475760Y31719048D02*
X42513855Y31604763D01*
X42513855Y31604763D02*
X42513855Y31528572D01*
X41713855Y32138096D02*
X41713855Y32633334D01*
X41713855Y32633334D02*
X42018617Y32366668D01*
X42018617Y32366668D02*
X42018617Y32480953D01*
X42018617Y32480953D02*
X42056712Y32557144D01*
X42056712Y32557144D02*
X42094807Y32595239D01*
X42094807Y32595239D02*
X42170998Y32633334D01*
X42170998Y32633334D02*
X42361474Y32633334D01*
X42361474Y32633334D02*
X42437664Y32595239D01*
X42437664Y32595239D02*
X42475760Y32557144D01*
X42475760Y32557144D02*
X42513855Y32480953D01*
X42513855Y32480953D02*
X42513855Y32252382D01*
X42513855Y32252382D02*
X42475760Y32176191D01*
X42475760Y32176191D02*
X42437664Y32138096D01*
D11*
X42722371Y23381429D02*
X42722371Y23038572D01*
X42722371Y23210001D02*
X42122371Y23210001D01*
X42122371Y23210001D02*
X42208085Y23152858D01*
X42208085Y23152858D02*
X42265228Y23095715D01*
X42265228Y23095715D02*
X42293800Y23038572D01*
%TO.C,R14*%
D10*
X41446359Y61080000D02*
X41753641Y61080000D01*
X41446359Y60320000D02*
X41753641Y60320000D01*
%TO.C,R7*%
X13046359Y53130000D02*
X13353641Y53130000D01*
X13046359Y52370000D02*
X13353641Y52370000D01*
%TO.C,C4*%
X10292164Y63060000D02*
X10507836Y63060000D01*
X10292164Y62340000D02*
X10507836Y62340000D01*
%TO.C,C18*%
X17140000Y47992164D02*
X17140000Y48207836D01*
X17860000Y47992164D02*
X17860000Y48207836D01*
%TO.C,C14*%
X24007836Y45510000D02*
X23792164Y45510000D01*
X24007836Y44790000D02*
X23792164Y44790000D01*
%TO.C,C9*%
X37472164Y46360000D02*
X37687836Y46360000D01*
X37472164Y45640000D02*
X37687836Y45640000D01*
%TO.C,J2*%
X44530000Y49890000D02*
X44530000Y48640000D01*
X44530000Y48640000D02*
X45780000Y48640000D01*
X44630000Y50700000D02*
X44630000Y50400000D01*
X44630000Y50400000D02*
X44830000Y50400000D01*
X44730000Y50700000D02*
X44730000Y50400000D01*
X44830000Y51500000D02*
X45440000Y51500000D01*
X44830000Y50700000D02*
X44630000Y50700000D01*
X45440000Y56450000D02*
X45440000Y54500000D01*
X45440000Y54500000D02*
X44830000Y54500000D01*
X45440000Y51500000D02*
X45440000Y49550000D01*
X45440000Y49550000D02*
X48940000Y49550000D01*
X46140000Y57060000D02*
X46140000Y56450000D01*
X46140000Y48940000D02*
X46140000Y49550000D01*
X47440000Y57060000D02*
X47440000Y56450000D01*
X47440000Y48940000D02*
X47440000Y49550000D01*
X48440000Y54100000D02*
X48940000Y54100000D01*
X48440000Y53900000D02*
X48440000Y54100000D01*
X48440000Y52100000D02*
X48940000Y52100000D01*
X48440000Y51900000D02*
X48440000Y52100000D01*
X48940000Y56450000D02*
X45440000Y56450000D01*
X48940000Y54000000D02*
X48440000Y54000000D01*
X48940000Y53900000D02*
X48440000Y53900000D01*
X48940000Y52000000D02*
X48440000Y52000000D01*
X48940000Y51900000D02*
X48440000Y51900000D01*
X48940000Y49550000D02*
X48940000Y56450000D01*
X44830000Y57060000D02*
X49550000Y57060000D01*
X49550000Y48940000D01*
X44830000Y48940000D01*
X44830000Y57060000D01*
%TO.C,C15*%
X21007836Y45510000D02*
X20792164Y45510000D01*
X21007836Y44790000D02*
X20792164Y44790000D01*
%TO.C,C1*%
X11959420Y56110000D02*
X12240580Y56110000D01*
X11959420Y55090000D02*
X12240580Y55090000D01*
%TO.C,SW1*%
X43550000Y16900000D02*
X43550000Y19500000D01*
X44000000Y19950000D02*
X43550000Y19500000D01*
X44000000Y16450000D02*
X43550000Y16900000D01*
X45300000Y20950000D02*
X47300000Y20950000D01*
X45300000Y15450000D02*
X47300000Y15450000D01*
X48600000Y19950000D02*
X49050000Y19500000D01*
X48600000Y16450000D02*
X49050000Y16900000D01*
X49050000Y16900000D02*
X49050000Y19500000D01*
%TO.C,LED1*%
X265000Y57435000D02*
X265000Y55965000D01*
X265000Y55965000D02*
X2550000Y55965000D01*
X2550000Y57435000D02*
X265000Y57435000D01*
%TO.C,R19*%
X45220000Y64246359D02*
X45220000Y64553641D01*
X45980000Y64246359D02*
X45980000Y64553641D01*
%TO.C,R9*%
X13820000Y54146359D02*
X13820000Y54453641D01*
X14580000Y54146359D02*
X14580000Y54453641D01*
%TO.C,TP12*%
X36700000Y5400000D02*
G75*
G02*
X35300000Y5400000I-700000J0D01*
G01*
X35300000Y5400000D02*
G75*
G02*
X36700000Y5400000I700000J0D01*
G01*
%TO.C,C2*%
X7065000Y59738748D02*
X7065000Y60261252D01*
X8535000Y59738748D02*
X8535000Y60261252D01*
%TO.C,U5*%
X9800000Y66450000D02*
X10800000Y66450000D01*
X10900000Y66620000D02*
X12500000Y66620000D01*
X10900000Y63380000D02*
X12500000Y63380000D01*
%TO.C,R13*%
X41446359Y62180000D02*
X41753641Y62180000D01*
X41446359Y61420000D02*
X41753641Y61420000D01*
%TO.C,J1*%
X5550000Y52900000D02*
X3550000Y52900000D01*
X5550000Y43500000D02*
X3550000Y43500000D01*
%TO.C,R8*%
X13046359Y52080000D02*
X13353641Y52080000D01*
X13046359Y51320000D02*
X13353641Y51320000D01*
%TO.C,U7*%
X10590000Y49560000D02*
X12410000Y49560000D01*
X10590000Y49510000D02*
X10590000Y49560000D01*
X10590000Y46440000D02*
X10590000Y46490000D01*
X12410000Y49560000D02*
X12410000Y49510000D01*
X12410000Y46490000D02*
X12410000Y46440000D01*
X12410000Y46440000D02*
X10590000Y46440000D01*
X10050000Y49510000D02*
X9810000Y49840000D01*
X10290000Y49840000D01*
X10050000Y49510000D01*
G36*
X10050000Y49510000D02*
G01*
X9810000Y49840000D01*
X10290000Y49840000D01*
X10050000Y49510000D01*
G37*
%TO.C,SW3*%
X180000Y66750000D02*
X9220000Y66750000D01*
X9220000Y62610000D01*
X180000Y62610000D01*
X180000Y66750000D01*
%TO.C,C16*%
X41492164Y59960000D02*
X41707836Y59960000D01*
X41492164Y59240000D02*
X41707836Y59240000D01*
%TO.C,R5*%
X43153641Y5580000D02*
X42846359Y5580000D01*
X43153641Y4820000D02*
X42846359Y4820000D01*
%TO.C,U2*%
X17100000Y32900000D02*
X17100000Y30000000D01*
X17100000Y32900000D02*
X20000000Y32900000D01*
X17100000Y17100000D02*
X17100000Y20000000D01*
X17100000Y17100000D02*
X20000000Y17100000D01*
X32900000Y32900000D02*
X30000000Y32900000D01*
X32900000Y32900000D02*
X32900000Y30000000D01*
X32900000Y17100000D02*
X30000000Y17100000D01*
X32900000Y17100000D02*
X32900000Y20000000D01*
%TO.C,C5*%
X15540580Y66510000D02*
X15259420Y66510000D01*
X15540580Y65490000D02*
X15259420Y65490000D01*
%TO.C,U6*%
X37640000Y64960000D02*
X39160000Y64960000D01*
X37640000Y64910000D02*
X37640000Y64960000D01*
X37640000Y63010000D02*
X37640000Y63790000D01*
X37640000Y61840000D02*
X37640000Y61890000D01*
X39160000Y64960000D02*
X39160000Y63960000D01*
X39160000Y62840000D02*
X39160000Y61840000D01*
X39160000Y61840000D02*
X37640000Y61840000D01*
X37100000Y63780000D02*
X37340000Y63450000D01*
X36860000Y63450000D01*
X37100000Y63780000D01*
G36*
X37340000Y63450000D02*
G01*
X36860000Y63450000D01*
X37100000Y63780000D01*
X37340000Y63450000D01*
G37*
%TO.C,R18*%
X14020000Y64016359D02*
X14020000Y64323641D01*
X14780000Y64016359D02*
X14780000Y64323641D01*
%TO.C,U4*%
X10550000Y60350000D02*
X10550000Y59950000D01*
X10550000Y60350000D02*
X10950000Y60350000D01*
X10550000Y57150000D02*
X10550000Y57550000D01*
X10550000Y57150000D02*
X10950000Y57150000D01*
X13750000Y60350000D02*
X13350000Y60350000D01*
X13750000Y60350000D02*
X13750000Y59950000D01*
X13750000Y57150000D02*
X13350000Y57150000D01*
%TO.C,R6*%
X47053641Y24880000D02*
X46746359Y24880000D01*
X47053641Y24120000D02*
X46746359Y24120000D01*
%TO.C,C13*%
X36192164Y61360000D02*
X36407836Y61360000D01*
X36192164Y60640000D02*
X36407836Y60640000D01*
%TO.C,R3*%
X14446359Y47430000D02*
X14753641Y47430000D01*
X14446359Y46670000D02*
X14753641Y46670000D01*
%TO.C,U1*%
X17150000Y71700000D02*
X17150000Y67100000D01*
X17150000Y71700000D02*
X32850000Y71700000D01*
X17150000Y52400000D02*
X17150000Y51350000D01*
X17150000Y51350000D02*
X18200000Y51350000D01*
X32850000Y71700000D02*
X32850000Y67100000D01*
X32850000Y52400000D02*
X32850000Y51350000D01*
X32850000Y51350000D02*
X31800000Y51350000D01*
%TO.C,C17*%
X26482164Y51010000D02*
X26697836Y51010000D01*
X26482164Y50290000D02*
X26697836Y50290000D01*
%TO.C,U3*%
X20680000Y48570000D02*
X20680000Y48300000D01*
X20680000Y48570000D02*
X21000000Y48570000D01*
%TO.C,R16*%
X7296359Y55530000D02*
X7603641Y55530000D01*
X7296359Y54770000D02*
X7603641Y54770000D01*
%TO.C,C12*%
X38192164Y61360000D02*
X38407836Y61360000D01*
X38192164Y60640000D02*
X38407836Y60640000D01*
%TO.C,R11*%
X7296359Y57080000D02*
X7603641Y57080000D01*
X7296359Y56320000D02*
X7603641Y56320000D01*
%TO.C,R4*%
X14446359Y49330000D02*
X14753641Y49330000D01*
X14446359Y48570000D02*
X14753641Y48570000D01*
%TO.C,R10*%
X9020000Y58546359D02*
X9020000Y58853641D01*
X9780000Y58546359D02*
X9780000Y58853641D01*
%TO.C,C7*%
X16080000Y64092164D02*
X16080000Y64307836D01*
X16800000Y64092164D02*
X16800000Y64307836D01*
%TO.C,R1*%
X9570000Y50903641D02*
X9570000Y50596359D01*
X10330000Y50903641D02*
X10330000Y50596359D01*
%TO.C,C10*%
X34572164Y46360000D02*
X34787836Y46360000D01*
X34572164Y45640000D02*
X34787836Y45640000D01*
%TO.C,SW2*%
X43550000Y9100000D02*
X43550000Y11700000D01*
X44000000Y12150000D02*
X43550000Y11700000D01*
X44000000Y8650000D02*
X43550000Y9100000D01*
X45300000Y13150000D02*
X47300000Y13150000D01*
X45300000Y7650000D02*
X47300000Y7650000D01*
X48600000Y12150000D02*
X49050000Y11700000D01*
X48600000Y8650000D02*
X49050000Y9100000D01*
X49050000Y9100000D02*
X49050000Y11700000D01*
%TO.C,LED3*%
X3465000Y57435000D02*
X3465000Y55965000D01*
X3465000Y55965000D02*
X5750000Y55965000D01*
X5750000Y57435000D02*
X3465000Y57435000D01*
%TO.C,R2*%
X10246359Y45880000D02*
X10553641Y45880000D01*
X10246359Y45120000D02*
X10553641Y45120000D01*
%TO.C,C6*%
X15161252Y62835000D02*
X14638748Y62835000D01*
X15161252Y61365000D02*
X14638748Y61365000D01*
%TO.C,C3*%
X14565000Y58638748D02*
X14565000Y59161252D01*
X16035000Y58638748D02*
X16035000Y59161252D01*
%TO.C,R17*%
X35470000Y65296359D02*
X35470000Y65603641D01*
X36230000Y65296359D02*
X36230000Y65603641D01*
%TO.C,LED2*%
X265000Y55655001D02*
X265000Y54415000D01*
X265000Y54415000D02*
X2550000Y54415000D01*
%TO.C,Q1*%
X42240000Y65960000D02*
X43760000Y65960000D01*
X42240000Y64960000D02*
X42240000Y65960000D01*
X42240000Y62840000D02*
X42240000Y63840000D01*
X43760000Y65960000D02*
X43760000Y65910000D01*
X43760000Y64790000D02*
X43760000Y64010000D01*
X43760000Y62890000D02*
X43760000Y62840000D01*
X43760000Y62840000D02*
X42240000Y62840000D01*
X44300000Y64020000D02*
X44060000Y64350000D01*
X44540000Y64350000D01*
X44300000Y64020000D01*
G36*
X44300000Y64020000D02*
G01*
X44060000Y64350000D01*
X44540000Y64350000D01*
X44300000Y64020000D01*
G37*
%TO.C,R12*%
X15146359Y56880000D02*
X15453641Y56880000D01*
X15146359Y56120000D02*
X15453641Y56120000D01*
%TO.C,C11*%
X39092164Y66260000D02*
X39307836Y66260000D01*
X39092164Y65540000D02*
X39307836Y65540000D01*
%TO.C,C8*%
X43107836Y4360000D02*
X42892164Y4360000D01*
X43107836Y3640000D02*
X42892164Y3640000D01*
%TO.C,R15*%
X4796359Y55530000D02*
X5103641Y55530000D01*
X4796359Y54770000D02*
X5103641Y54770000D01*
%TD*%
%LPC*%
D12*
%TO.C,R14*%
X41090000Y60700000D03*
X42110000Y60700000D03*
%TD*%
%TO.C,R7*%
X12690000Y52750000D03*
X13710000Y52750000D03*
%TD*%
D13*
%TO.C,C4*%
X9920000Y62700000D03*
X10880000Y62700000D03*
%TD*%
D14*
%TO.C,C18*%
X17500000Y47620000D03*
X17500000Y48580000D03*
%TD*%
D15*
%TO.C,C14*%
X24380000Y45150000D03*
X23420000Y45150000D03*
%TD*%
D13*
%TO.C,C9*%
X37100000Y46000000D03*
X38060000Y46000000D03*
%TD*%
D16*
%TO.C,J2*%
X46640000Y51000000D03*
D17*
X46640000Y53000000D03*
X46640000Y55000000D03*
%TD*%
D15*
%TO.C,C15*%
X21380000Y45150000D03*
X20420000Y45150000D03*
%TD*%
D18*
%TO.C,C1*%
X11325000Y55600000D03*
X12875000Y55600000D03*
%TD*%
D19*
%TO.C,SW1*%
X44425000Y15200000D03*
X44425000Y21200000D03*
X48175000Y15200000D03*
X48175000Y21200000D03*
%TD*%
D20*
%TO.C,LED1*%
X962500Y56700000D03*
X2537500Y56700000D03*
%TD*%
D21*
%TO.C,R19*%
X45600000Y63890000D03*
X45600000Y64910000D03*
%TD*%
%TO.C,R9*%
X14200000Y53790000D03*
X14200000Y54810000D03*
%TD*%
D22*
%TO.C,TP12*%
X36000000Y5400000D03*
%TD*%
D23*
%TO.C,C2*%
X7800000Y59050000D03*
X7800000Y60950000D03*
%TD*%
D24*
%TO.C,U5*%
X10400000Y65950000D03*
X10400000Y65000000D03*
X10400000Y64050000D03*
X13000000Y64050000D03*
X13000000Y65950000D03*
D25*
X11762500Y65000000D03*
%TD*%
D12*
%TO.C,R13*%
X41090000Y61800000D03*
X42110000Y61800000D03*
%TD*%
D26*
%TO.C,J1*%
X6250000Y51090000D03*
X6250000Y45310000D03*
D27*
X7695000Y51450000D03*
X7695000Y50650000D03*
D28*
X7695000Y49450000D03*
X7695000Y48450000D03*
X7695000Y47950000D03*
X7695000Y46950000D03*
D27*
X7695000Y45750000D03*
X7695000Y44950000D03*
X7695000Y44950000D03*
X7695000Y45750000D03*
D28*
X7695000Y46450000D03*
X7695000Y47450000D03*
X7695000Y48950000D03*
X7695000Y49950000D03*
D27*
X7695000Y50650000D03*
X7695000Y51450000D03*
D29*
X6780000Y52520000D03*
D30*
X2600000Y52520000D03*
D29*
X6780000Y43880000D03*
D30*
X2600000Y43880000D03*
%TD*%
D12*
%TO.C,R8*%
X12690000Y51700000D03*
X13710000Y51700000D03*
%TD*%
D31*
%TO.C,U7*%
X10362500Y48950000D03*
X10362500Y48000000D03*
X10362500Y47050000D03*
X12637500Y47050000D03*
X12637500Y48000000D03*
X12637500Y48950000D03*
%TD*%
D32*
%TO.C,SW3*%
X2200000Y64680000D03*
D33*
X4700000Y64680000D03*
X7200000Y64680000D03*
%TD*%
D13*
%TO.C,C16*%
X41120000Y59600000D03*
X42080000Y59600000D03*
%TD*%
D34*
%TO.C,R5*%
X43510000Y5200000D03*
X42490000Y5200000D03*
%TD*%
D35*
%TO.C,U2*%
X18400000Y28800000D03*
X18400000Y26900000D03*
X18400000Y25000000D03*
X18400000Y23100000D03*
X18400000Y21200000D03*
D36*
X21200000Y18400000D03*
X23100000Y18400000D03*
X25000000Y18400000D03*
X26900000Y18400000D03*
X28800000Y18400000D03*
D35*
X31600000Y21200000D03*
X31600000Y23100000D03*
X31600000Y25000000D03*
X31600000Y26900000D03*
X31600000Y28800000D03*
D36*
X28800000Y31600000D03*
X26900000Y31600000D03*
X25000000Y31600000D03*
X23100000Y31600000D03*
X21200000Y31600000D03*
%TD*%
D37*
%TO.C,C5*%
X16175000Y66000000D03*
X14625000Y66000000D03*
%TD*%
D38*
%TO.C,U6*%
X37462500Y64350000D03*
X37462500Y62450000D03*
X39337500Y63400000D03*
%TD*%
D21*
%TO.C,R18*%
X14400000Y63660000D03*
X14400000Y64680000D03*
%TD*%
D39*
%TO.C,MH3*%
X3500000Y60000000D03*
%TD*%
D40*
%TO.C,U4*%
X13550000Y58000000D03*
X13550000Y58500000D03*
X13550000Y59000000D03*
X13550000Y59500000D03*
D41*
X12900000Y60150000D03*
X12400000Y60150000D03*
X11900000Y60150000D03*
X11400000Y60150000D03*
D40*
X10750000Y59500000D03*
X10750000Y59000000D03*
X10750000Y58500000D03*
X10750000Y58000000D03*
D41*
X11400000Y57350000D03*
X11900000Y57350000D03*
X12400000Y57350000D03*
X12900000Y57350000D03*
D42*
X12150000Y58750000D03*
%TD*%
D34*
%TO.C,R6*%
X47410000Y24500000D03*
X46390000Y24500000D03*
%TD*%
D13*
%TO.C,C13*%
X35820000Y61000000D03*
X36780000Y61000000D03*
%TD*%
D12*
%TO.C,R3*%
X14090000Y47050000D03*
X15110000Y47050000D03*
%TD*%
D43*
%TO.C,U1*%
X18000000Y65150000D03*
X18000000Y64300000D03*
X18000000Y63450000D03*
X18000000Y62600000D03*
X18000000Y61750000D03*
X18000000Y60900000D03*
X18000000Y60050000D03*
X18000000Y59200000D03*
X18000000Y58350000D03*
X18000000Y57500000D03*
X18000000Y56650000D03*
X18000000Y55800000D03*
X18000000Y54950000D03*
X18000000Y54100000D03*
X18000000Y53250000D03*
D44*
X19050000Y52200000D03*
X19900000Y52200000D03*
X20750000Y52200000D03*
X21600000Y52200000D03*
X22450000Y52200000D03*
X23300000Y52200000D03*
X24150000Y52200000D03*
X25000000Y52200000D03*
X25850000Y52200000D03*
X26700000Y52200000D03*
X27550000Y52200000D03*
X28400000Y52200000D03*
X29250000Y52200000D03*
X30100000Y52200000D03*
X30950000Y52200000D03*
D43*
X32000000Y53250000D03*
X32000000Y54100000D03*
X32000000Y54950000D03*
X32000000Y55800000D03*
X32000000Y56650000D03*
X32000000Y57500000D03*
X32000000Y58350000D03*
X32000000Y59200000D03*
X32000000Y60050000D03*
X32000000Y60900000D03*
X32000000Y61750000D03*
X32000000Y62600000D03*
X32000000Y63450000D03*
X32000000Y64300000D03*
X32000000Y65150000D03*
D44*
X30950000Y66200000D03*
X30100000Y66200000D03*
X29250000Y66200000D03*
X28400000Y66200000D03*
X27550000Y66200000D03*
X26700000Y66200000D03*
X25850000Y66200000D03*
X25000000Y66200000D03*
X24150000Y66200000D03*
X23300000Y66200000D03*
X22450000Y66200000D03*
X21600000Y66200000D03*
X20750000Y66200000D03*
X19900000Y66200000D03*
X19050000Y66200000D03*
D45*
X23350000Y60850000D03*
D46*
X23350000Y59200000D03*
X23350000Y57550000D03*
X25000000Y60850000D03*
X25000000Y59200000D03*
X25000000Y57550000D03*
X26650000Y60850000D03*
X26650000Y59200000D03*
X26650000Y57550000D03*
D47*
X18000000Y66200000D03*
X18000000Y52200000D03*
X32000000Y52200000D03*
X32000000Y66200000D03*
%TD*%
D39*
%TO.C,MH2*%
X46500000Y3500000D03*
%TD*%
D13*
%TO.C,C17*%
X26110000Y50650000D03*
X27070000Y50650000D03*
%TD*%
D48*
%TO.C,U3*%
X21137500Y47950000D03*
X21137500Y47450000D03*
X21137500Y46950000D03*
X21137500Y46450000D03*
D49*
X21800000Y46287500D03*
X22300000Y46287500D03*
X22800000Y46287500D03*
D48*
X23462500Y46450000D03*
X23462500Y46950000D03*
X23462500Y47450000D03*
X23462500Y47950000D03*
D49*
X22800000Y48112500D03*
X22300000Y48112500D03*
X21800000Y48112500D03*
%TD*%
D12*
%TO.C,R16*%
X6940000Y55150000D03*
X7960000Y55150000D03*
%TD*%
D13*
%TO.C,C12*%
X37820000Y61000000D03*
X38780000Y61000000D03*
%TD*%
D12*
%TO.C,R11*%
X6940000Y56700000D03*
X7960000Y56700000D03*
%TD*%
%TO.C,R4*%
X14090000Y48950000D03*
X15110000Y48950000D03*
%TD*%
D21*
%TO.C,R10*%
X9400000Y58190000D03*
X9400000Y59210000D03*
%TD*%
D14*
%TO.C,C7*%
X16440000Y63720000D03*
X16440000Y64680000D03*
%TD*%
D50*
%TO.C,R1*%
X9950000Y51260000D03*
X9950000Y50240000D03*
%TD*%
D13*
%TO.C,C10*%
X34200000Y46000000D03*
X35160000Y46000000D03*
%TD*%
D19*
%TO.C,SW2*%
X44425000Y7400000D03*
X44425000Y13400000D03*
X48175000Y7400000D03*
X48175000Y13400000D03*
%TD*%
D20*
%TO.C,LED3*%
X4162500Y56700000D03*
X5737500Y56700000D03*
%TD*%
D12*
%TO.C,R2*%
X9890000Y45500000D03*
X10910000Y45500000D03*
%TD*%
D51*
%TO.C,C6*%
X15850000Y62100000D03*
X13950000Y62100000D03*
%TD*%
D52*
%TO.C,J3*%
X44350000Y23210000D03*
X44350000Y25750000D03*
X44350000Y28290000D03*
X44350000Y30830000D03*
X44350000Y33370000D03*
X44350000Y35910000D03*
X44350000Y38450000D03*
X44350000Y40990000D03*
%TD*%
D39*
%TO.C,MH4*%
X46500000Y60000000D03*
%TD*%
D23*
%TO.C,C3*%
X15300000Y57950000D03*
X15300000Y59850000D03*
%TD*%
D21*
%TO.C,R17*%
X35850000Y64940000D03*
X35850000Y65960000D03*
%TD*%
D20*
%TO.C,LED2*%
X962500Y55150000D03*
X2537500Y55150000D03*
%TD*%
D53*
%TO.C,Q1*%
X43937500Y63450000D03*
X43937500Y65350000D03*
X42062500Y64400000D03*
%TD*%
D12*
%TO.C,R12*%
X14790000Y56500000D03*
X15810000Y56500000D03*
%TD*%
D13*
%TO.C,C11*%
X38720000Y65900000D03*
X39680000Y65900000D03*
%TD*%
D15*
%TO.C,C8*%
X43480000Y4000000D03*
X42520000Y4000000D03*
%TD*%
D12*
%TO.C,R15*%
X4440000Y55150000D03*
X5460000Y55150000D03*
%TD*%
D39*
%TO.C,MH1*%
X3500000Y3500000D03*
%TD*%
%LPD*%
M02*
