%TF.GenerationSoftware,KiCad,Pcbnew,10.0.5*%
%TF.CreationDate,2026-09-24T09:19:26+03:00*%
%TF.ProjectId,gnss-pod,676e7373-2d70-46f6-942e-6b696361645f,rev?*%
%TF.SameCoordinates,Original*%
%TF.FileFunction,Copper,L1,Top*%
%TF.FilePolarity,Positive*%
%FSLAX46Y46*%
G04 Gerber Fmt 4.6, Leading zero omitted, Abs format (unit mm)*
G04 Created by KiCad (PCBNEW 10.0.5) date 2026-09-24 09:19:26*
%MOMM*%
%LPD*%
G01*
G04 APERTURE LIST*
G04 Aperture macros list*
%AMRoundRect*
0 Rectangle with rounded corners*
0 $1 Rounding radius*
0 $2 $3 $4 $5 $6 $7 $8 $9 X,Y pos of 4 corners*
0 Add a 4 corners polygon primitive as box body*
4,1,4,$2,$3,$4,$5,$6,$7,$8,$9,$2,$3,0*
0 Add four circle primitives for the rounded corners*
1,1,$1+$1,$2,$3*
1,1,$1+$1,$4,$5*
1,1,$1+$1,$6,$7*
1,1,$1+$1,$8,$9*
0 Add four rect primitives between the rounded corners*
20,1,$1+$1,$2,$3,$4,$5,0*
20,1,$1+$1,$4,$5,$6,$7,0*
20,1,$1+$1,$6,$7,$8,$9,0*
20,1,$1+$1,$8,$9,$2,$3,0*%
%AMOutline5P*
0 Free polygon, 5 corners , with rotation*
0 The origin of the aperture is its center*
0 number of corners: always 5*
0 $1 to $10 corner X, Y*
0 $11 Rotation angle, in degrees counterclockwise*
0 create outline with 5 corners*
4,1,5,$1,$2,$3,$4,$5,$6,$7,$8,$9,$10,$1,$2,$11*%
%AMOutline6P*
0 Free polygon, 6 corners , with rotation*
0 The origin of the aperture is its center*
0 number of corners: always 6*
0 $1 to $12 corner X, Y*
0 $13 Rotation angle, in degrees counterclockwise*
0 create outline with 6 corners*
4,1,6,$1,$2,$3,$4,$5,$6,$7,$8,$9,$10,$11,$12,$1,$2,$13*%
%AMOutline7P*
0 Free polygon, 7 corners , with rotation*
0 The origin of the aperture is its center*
0 number of corners: always 7*
0 $1 to $14 corner X, Y*
0 $15 Rotation angle, in degrees counterclockwise*
0 create outline with 7 corners*
4,1,7,$1,$2,$3,$4,$5,$6,$7,$8,$9,$10,$11,$12,$13,$14,$1,$2,$15*%
%AMOutline8P*
0 Free polygon, 8 corners , with rotation*
0 The origin of the aperture is its center*
0 number of corners: always 8*
0 $1 to $16 corner X, Y*
0 $17 Rotation angle, in degrees counterclockwise*
0 create outline with 8 corners*
4,1,8,$1,$2,$3,$4,$5,$6,$7,$8,$9,$10,$11,$12,$13,$14,$15,$16,$1,$2,$17*%
G04 Aperture macros list end*
%TA.AperFunction,SMDPad,CuDef*%
%ADD10RoundRect,0.250000X0.250000X0.475000X-0.250000X0.475000X-0.250000X-0.475000X0.250000X-0.475000X0*%
%TD*%
%TA.AperFunction,SMDPad,CuDef*%
%ADD11RoundRect,0.218750X-0.218750X-0.256250X0.218750X-0.256250X0.218750X0.256250X-0.218750X0.256250X0*%
%TD*%
%TA.AperFunction,SMDPad,CuDef*%
%ADD12RoundRect,0.135000X0.185000X-0.135000X0.185000X0.135000X-0.185000X0.135000X-0.185000X-0.135000X0*%
%TD*%
%TA.AperFunction,ComponentPad*%
%ADD13R,1.600000X1.600000*%
%TD*%
%TA.AperFunction,ComponentPad*%
%ADD14C,1.600000*%
%TD*%
%TA.AperFunction,SMDPad,CuDef*%
%ADD15RoundRect,0.140000X0.170000X-0.140000X0.170000X0.140000X-0.170000X0.140000X-0.170000X-0.140000X0*%
%TD*%
%TA.AperFunction,SMDPad,CuDef*%
%ADD16RoundRect,0.140000X-0.140000X-0.170000X0.140000X-0.170000X0.140000X0.170000X-0.140000X0.170000X0*%
%TD*%
%TA.AperFunction,SMDPad,CuDef*%
%ADD17R,1.000000X2.400000*%
%TD*%
%TA.AperFunction,SMDPad,CuDef*%
%ADD18RoundRect,0.135000X-0.185000X0.135000X-0.185000X-0.135000X0.185000X-0.135000X0.185000X0.135000X0*%
%TD*%
%TA.AperFunction,SMDPad,CuDef*%
%ADD19RoundRect,0.200000X0.275000X-0.200000X0.275000X0.200000X-0.275000X0.200000X-0.275000X-0.200000X0*%
%TD*%
%TA.AperFunction,SMDPad,CuDef*%
%ADD20RoundRect,0.250000X0.475000X-0.250000X0.475000X0.250000X-0.475000X0.250000X-0.475000X-0.250000X0*%
%TD*%
%TA.AperFunction,SMDPad,CuDef*%
%ADD21RoundRect,0.150000X-0.512500X-0.150000X0.512500X-0.150000X0.512500X0.150000X-0.512500X0.150000X0*%
%TD*%
%TA.AperFunction,SMDPad,CuDef*%
%ADD22RoundRect,0.049980X-0.500020X-0.250020X0.500020X-0.250020X0.500020X0.250020X-0.500020X0.250020X0*%
%TD*%
%TA.AperFunction,SMDPad,CuDef*%
%ADD23R,0.975000X1.700000*%
%TD*%
%TA.AperFunction,SMDPad,CuDef*%
%ADD24RoundRect,0.140000X-0.170000X0.140000X-0.170000X-0.140000X0.170000X-0.140000X0.170000X0.140000X0*%
%TD*%
%TA.AperFunction,SMDPad,CuDef*%
%ADD25RoundRect,0.135000X-0.135000X-0.185000X0.135000X-0.185000X0.135000X0.185000X-0.135000X0.185000X0*%
%TD*%
%TA.AperFunction,ComponentPad*%
%ADD26RoundRect,0.250000X0.625000X-0.350000X0.625000X0.350000X-0.625000X0.350000X-0.625000X-0.350000X0*%
%TD*%
%TA.AperFunction,ComponentPad*%
%ADD27O,1.750000X1.200000*%
%TD*%
%TA.AperFunction,SMDPad,CuDef*%
%ADD28RoundRect,0.225000X0.225000X0.250000X-0.225000X0.250000X-0.225000X-0.250000X0.225000X-0.250000X0*%
%TD*%
%TA.AperFunction,SMDPad,CuDef*%
%ADD29RoundRect,0.150000X-0.575000X0.150000X-0.575000X-0.150000X0.575000X-0.150000X0.575000X0.150000X0*%
%TD*%
%TA.AperFunction,SMDPad,CuDef*%
%ADD30RoundRect,0.075000X-0.650000X0.075000X-0.650000X-0.075000X0.650000X-0.075000X0.650000X0.075000X0*%
%TD*%
%TA.AperFunction,ComponentPad*%
%ADD31O,2.100000X1.000000*%
%TD*%
%TA.AperFunction,ComponentPad*%
%ADD32O,1.600000X1.000000*%
%TD*%
%TA.AperFunction,SMDPad,CuDef*%
%ADD33R,1.800000X1.500000*%
%TD*%
%TA.AperFunction,SMDPad,CuDef*%
%ADD34R,1.500000X1.800000*%
%TD*%
%TA.AperFunction,SMDPad,CuDef*%
%ADD35R,0.750000X1.000000*%
%TD*%
%TA.AperFunction,SMDPad,CuDef*%
%ADD36R,0.625000X0.300000*%
%TD*%
%TA.AperFunction,SMDPad,CuDef*%
%ADD37R,0.300000X0.625000*%
%TD*%
%TA.AperFunction,SMDPad,CuDef*%
%ADD38R,1.000000X0.750000*%
%TD*%
%TA.AperFunction,SMDPad,CuDef*%
%ADD39RoundRect,0.150000X-0.587500X-0.150000X0.587500X-0.150000X0.587500X0.150000X-0.587500X0.150000X0*%
%TD*%
%TA.AperFunction,SMDPad,CuDef*%
%ADD40RoundRect,0.140000X0.140000X0.170000X-0.140000X0.170000X-0.140000X-0.170000X0.140000X-0.170000X0*%
%TD*%
%TA.AperFunction,SMDPad,CuDef*%
%ADD41RoundRect,0.049992X0.250008X0.070008X-0.250008X0.070008X-0.250008X-0.070008X0.250008X-0.070008X0*%
%TD*%
%TA.AperFunction,SMDPad,CuDef*%
%ADD42RoundRect,0.049992X0.070008X0.250008X-0.070008X0.250008X-0.070008X-0.250008X0.070008X-0.250008X0*%
%TD*%
%TA.AperFunction,SMDPad,CuDef*%
%ADD43R,1.680000X1.680000*%
%TD*%
%TA.AperFunction,SMDPad,CuDef*%
%ADD44RoundRect,0.225000X-0.225000X-0.250000X0.225000X-0.250000X0.225000X0.250000X-0.225000X0.250000X0*%
%TD*%
%TA.AperFunction,SMDPad,CuDef*%
%ADD45R,0.800000X0.400000*%
%TD*%
%TA.AperFunction,SMDPad,CuDef*%
%ADD46R,0.400000X0.800000*%
%TD*%
%TA.AperFunction,SMDPad,CuDef*%
%ADD47Outline5P,-0.600000X0.000000X0.000000X0.600000X0.600000X0.600000X0.600000X-0.600000X-0.600000X-0.600000X0.000000*%
%TD*%
%TA.AperFunction,SMDPad,CuDef*%
%ADD48R,1.200000X1.200000*%
%TD*%
%TA.AperFunction,SMDPad,CuDef*%
%ADD49R,0.800000X0.800000*%
%TD*%
%TA.AperFunction,ViaPad*%
%ADD50C,0.500000*%
%TD*%
%TA.AperFunction,Conductor*%
%ADD51C,0.500000*%
%TD*%
%TA.AperFunction,Conductor*%
%ADD52C,0.250000*%
%TD*%
%TA.AperFunction,Conductor*%
%ADD53C,0.200000*%
%TD*%
%TA.AperFunction,Conductor*%
%ADD54C,0.300000*%
%TD*%
G04 APERTURE END LIST*
D10*
%TO.P,C6,1*%
%TO.N,3V3*%
X16100000Y62100000D03*
%TO.P,C6,2*%
%TO.N,GND*%
X14200000Y62100000D03*
%TD*%
D11*
%TO.P,LED3,1*%
%TO.N,CHG_N*%
X47662500Y44500000D03*
%TO.P,LED3,2*%
%TO.N,LED3_A*%
X49237500Y44500000D03*
%TD*%
D12*
%TO.P,R5,1*%
%TO.N,EN*%
X34100000Y64890000D03*
%TO.P,R5,2*%
%TO.N,3V3*%
X34100000Y65910000D03*
%TD*%
D13*
%TO.P,SW3,1*%
%TO.N,VSYS*%
X42700000Y64680000D03*
D14*
%TO.P,SW3,2*%
%TO.N,LDO_EN*%
X45200000Y64680000D03*
%TO.P,SW3,3*%
%TO.N,GND*%
X47700000Y64680000D03*
%TD*%
D15*
%TO.P,C8,1*%
%TO.N,EN*%
X34100000Y62520000D03*
%TO.P,C8,2*%
%TO.N,GND*%
X34100000Y63480000D03*
%TD*%
D16*
%TO.P,C13,1*%
%TO.N,VBCKP_SRC*%
X39020000Y50000000D03*
%TO.P,C13,2*%
%TO.N,GND*%
X39980000Y50000000D03*
%TD*%
D17*
%TO.P,J3,1*%
%TO.N,3V3*%
X2010000Y44300000D03*
%TO.P,J3,2*%
%TO.N,GND*%
X4550000Y44300000D03*
%TO.P,J3,3*%
%TO.N,IO5*%
X7090000Y44300000D03*
%TO.P,J3,4*%
%TO.N,IO6*%
X9630000Y44300000D03*
%TO.P,J3,5*%
%TO.N,IO7*%
X12170000Y44300000D03*
%TO.P,J3,6*%
%TO.N,IO14*%
X14710000Y44300000D03*
%TO.P,J3,7*%
%TO.N,IO47*%
X17250000Y44300000D03*
%TO.P,J3,8*%
%TO.N,IO48*%
X19790000Y44300000D03*
%TD*%
D12*
%TO.P,R7,1*%
%TO.N,I2C_SDA*%
X22900000Y48890000D03*
%TO.P,R7,2*%
%TO.N,3V3*%
X22900000Y49910000D03*
%TD*%
D18*
%TO.P,R17,1*%
%TO.N,VBCKP_SRC*%
X21200000Y45910000D03*
%TO.P,R17,2*%
%TO.N,VBCKP*%
X21200000Y44890000D03*
%TD*%
D19*
%TO.P,RT1,1*%
%TO.N,TS*%
X43400000Y52175000D03*
%TO.P,RT1,2*%
%TO.N,GND*%
X43400000Y53825000D03*
%TD*%
D20*
%TO.P,C2,1*%
%TO.N,VSYS*%
X7800000Y59050000D03*
%TO.P,C2,2*%
%TO.N,GND*%
X7800000Y60950000D03*
%TD*%
D15*
%TO.P,C15,1*%
%TO.N,3V3*%
X22600000Y45120000D03*
%TO.P,C15,2*%
%TO.N,GND*%
X22600000Y46080000D03*
%TD*%
D21*
%TO.P,U7,1*%
%TO.N,USB_DN_C*%
X11882500Y53000000D03*
%TO.P,U7,2*%
%TO.N,GND*%
X11882500Y52050000D03*
%TO.P,U7,3*%
%TO.N,USB_DP_C*%
X11882500Y51100000D03*
%TO.P,U7,4*%
X14157500Y51100000D03*
%TO.P,U7,5*%
%TO.N,VBUS*%
X14157500Y52050000D03*
%TO.P,U7,6*%
%TO.N,USB_DN_C*%
X14157500Y53000000D03*
%TD*%
D22*
%TO.P,U5,1*%
%TO.N,VSYS*%
X10400000Y65950000D03*
%TO.P,U5,2*%
%TO.N,GND*%
X10400000Y65000000D03*
%TO.P,U5,3*%
%TO.N,LDO_EN*%
X10400000Y64050000D03*
%TO.P,U5,4*%
%TO.N,N/C*%
X13000000Y64050000D03*
%TO.P,U5,5*%
%TO.N,3V3*%
X13000000Y65950000D03*
D23*
%TO.P,U5,6*%
%TO.N,GND*%
X11762500Y65000000D03*
%TD*%
D24*
%TO.P,C14,1*%
%TO.N,3V3*%
X27800000Y46280000D03*
%TO.P,C14,2*%
%TO.N,GND*%
X27800000Y45320000D03*
%TD*%
D12*
%TO.P,R3,1*%
%TO.N,USB_DP_C*%
X15800000Y50490000D03*
%TO.P,R3,2*%
%TO.N,USB_DP*%
X15800000Y51510000D03*
%TD*%
D25*
%TO.P,R1,1*%
%TO.N,CC1*%
X9430000Y53550000D03*
%TO.P,R1,2*%
%TO.N,GND*%
X10450000Y53550000D03*
%TD*%
D15*
%TO.P,C18,1*%
%TO.N,USB_DN*%
X18000000Y49720000D03*
%TO.P,C18,2*%
%TO.N,GND*%
X18000000Y50680000D03*
%TD*%
D16*
%TO.P,C12,1*%
%TO.N,VBAT*%
X42720000Y50800000D03*
%TO.P,C12,2*%
%TO.N,GND*%
X43680000Y50800000D03*
%TD*%
D26*
%TO.P,J2,1*%
%TO.N,VBAT*%
X46600000Y53000000D03*
D27*
%TO.P,J2,2*%
%TO.N,GND*%
X46600000Y55000000D03*
%TD*%
D28*
%TO.P,C5,1*%
%TO.N,3V3*%
X16175000Y66000000D03*
%TO.P,C5,2*%
%TO.N,GND*%
X14625000Y66000000D03*
%TD*%
D16*
%TO.P,C10,1*%
%TO.N,3V3*%
X22820000Y43450000D03*
%TO.P,C10,2*%
%TO.N,GND*%
X23780000Y43450000D03*
%TD*%
D12*
%TO.P,R4,1*%
%TO.N,USB_DN_C*%
X15800000Y52490000D03*
%TO.P,R4,2*%
%TO.N,USB_DN*%
X15800000Y53510000D03*
%TD*%
D25*
%TO.P,R2,1*%
%TO.N,CC2*%
X9690000Y49750000D03*
%TO.P,R2,2*%
%TO.N,GND*%
X10710000Y49750000D03*
%TD*%
D12*
%TO.P,R11,1*%
%TO.N,VSYS*%
X46400000Y43990000D03*
%TO.P,R11,2*%
%TO.N,LED3_A*%
X46400000Y45010000D03*
%TD*%
D16*
%TO.P,C11,1*%
%TO.N,VBCKP*%
X20820000Y43450000D03*
%TO.P,C11,2*%
%TO.N,GND*%
X21780000Y43450000D03*
%TD*%
D12*
%TO.P,R16,1*%
%TO.N,LED2*%
X46400000Y45990000D03*
%TO.P,R16,2*%
%TO.N,LED2_A*%
X46400000Y47010000D03*
%TD*%
%TO.P,R13,1*%
%TO.N,VBAT*%
X6200000Y65090000D03*
%TO.P,R13,2*%
%TO.N,VBAT_SENSE*%
X6200000Y66110000D03*
%TD*%
%TO.P,R9,1*%
%TO.N,ISET*%
X14200000Y54290000D03*
%TO.P,R9,2*%
%TO.N,GND*%
X14200000Y55310000D03*
%TD*%
D29*
%TO.P,J1,A1*%
%TO.N,GND*%
X7695000Y55200000D03*
%TO.P,J1,A4*%
%TO.N,VBUS*%
X7695000Y54400000D03*
D30*
%TO.P,J1,A5*%
%TO.N,CC1*%
X7695000Y53200000D03*
%TO.P,J1,A6*%
%TO.N,USB_DP_C*%
X7695000Y52200000D03*
%TO.P,J1,A7*%
%TO.N,USB_DN_C*%
X7695000Y51700000D03*
%TO.P,J1,A8*%
%TO.N,N/C*%
X7695000Y50700000D03*
D29*
%TO.P,J1,A9*%
%TO.N,VBUS*%
X7695000Y49500000D03*
%TO.P,J1,A12*%
%TO.N,GND*%
X7695000Y48700000D03*
%TO.P,J1,B1*%
X7695000Y48700000D03*
%TO.P,J1,B4*%
%TO.N,VBUS*%
X7695000Y49500000D03*
D30*
%TO.P,J1,B5*%
%TO.N,CC2*%
X7695000Y50200000D03*
%TO.P,J1,B6*%
%TO.N,USB_DP_C*%
X7695000Y51200000D03*
%TO.P,J1,B7*%
%TO.N,USB_DN_C*%
X7695000Y52700000D03*
%TO.P,J1,B8*%
%TO.N,N/C*%
X7695000Y53700000D03*
D29*
%TO.P,J1,B9*%
%TO.N,VBUS*%
X7695000Y54400000D03*
%TO.P,J1,B12*%
%TO.N,GND*%
X7695000Y55200000D03*
D31*
%TO.P,J1,SH*%
X6780000Y56270000D03*
D32*
X2600000Y56270000D03*
D31*
X6780000Y47630000D03*
D32*
X2600000Y47630000D03*
%TD*%
D33*
%TO.P,U2,1*%
%TO.N,GND*%
X18400000Y28800000D03*
%TO.P,U2,2*%
%TO.N,3V3*%
X18400000Y26900000D03*
%TO.P,U2,3*%
%TO.N,VBCKP*%
X18400000Y25000000D03*
%TO.P,U2,4*%
%TO.N,GND*%
X18400000Y23100000D03*
%TO.P,U2,5*%
X18400000Y21200000D03*
D34*
%TO.P,U2,6*%
X21200000Y18400000D03*
%TO.P,U2,7*%
%TO.N,PPS*%
X23100000Y18400000D03*
%TO.P,U2,8*%
%TO.N,GNSS_SAFEBOOT_N*%
X25000000Y18400000D03*
%TO.P,U2,9*%
%TO.N,N/C*%
X26900000Y18400000D03*
%TO.P,U2,10*%
%TO.N,GND*%
X28800000Y18400000D03*
D33*
%TO.P,U2,11*%
X31600000Y21200000D03*
%TO.P,U2,12*%
%TO.N,N/C*%
X31600000Y23100000D03*
%TO.P,U2,13*%
%TO.N,GNSS_TXD*%
X31600000Y25000000D03*
%TO.P,U2,14*%
%TO.N,GNSS_RXD*%
X31600000Y26900000D03*
%TO.P,U2,15*%
%TO.N,GND*%
X31600000Y28800000D03*
D34*
%TO.P,U2,16*%
X28800000Y31600000D03*
%TO.P,U2,17*%
%TO.N,3V3*%
X26900000Y31600000D03*
%TO.P,U2,18*%
%TO.N,GNSS_RESET_N*%
X25000000Y31600000D03*
%TO.P,U2,19*%
%TO.N,GNSS_EXTINT*%
X23100000Y31600000D03*
%TO.P,U2,20*%
%TO.N,GND*%
X21200000Y31600000D03*
%TD*%
D12*
%TO.P,R6,1*%
%TO.N,BOOT*%
X34100000Y60290000D03*
%TO.P,R6,2*%
%TO.N,3V3*%
X34100000Y61310000D03*
%TD*%
%TO.P,R15,1*%
%TO.N,LED1*%
X46400000Y47990000D03*
%TO.P,R15,2*%
%TO.N,LED1_A*%
X46400000Y49010000D03*
%TD*%
D20*
%TO.P,C3,1*%
%TO.N,VBAT*%
X15300000Y58250000D03*
%TO.P,C3,2*%
%TO.N,GND*%
X15300000Y60150000D03*
%TD*%
D35*
%TO.P,SW2,1*%
%TO.N,EN*%
X39325000Y55500000D03*
X39325000Y61500000D03*
%TO.P,SW2,2*%
%TO.N,GND*%
X43075000Y55500000D03*
X43075000Y61500000D03*
%TD*%
D36*
%TO.P,U3,1*%
%TO.N,GND*%
X23837500Y47300000D03*
%TO.P,U3,2*%
X23837500Y46800000D03*
%TO.P,U3,3*%
X23837500Y46300000D03*
%TO.P,U3,4*%
%TO.N,IMU_INT1*%
X23837500Y45800000D03*
D37*
%TO.P,U3,5*%
%TO.N,3V3*%
X24500000Y45637500D03*
%TO.P,U3,6*%
%TO.N,GND*%
X25000000Y45637500D03*
%TO.P,U3,7*%
X25500000Y45637500D03*
D36*
%TO.P,U3,8*%
%TO.N,3V3*%
X26162500Y45800000D03*
%TO.P,U3,9*%
%TO.N,IMU_INT2*%
X26162500Y46300000D03*
%TO.P,U3,10*%
%TO.N,N/C*%
X26162500Y46800000D03*
%TO.P,U3,11*%
X26162500Y47300000D03*
D37*
%TO.P,U3,12*%
%TO.N,3V3*%
X25500000Y47462500D03*
%TO.P,U3,13*%
%TO.N,I2C_SCL*%
X25000000Y47462500D03*
%TO.P,U3,14*%
%TO.N,I2C_SDA*%
X24500000Y47462500D03*
%TD*%
D38*
%TO.P,SW1,1*%
%TO.N,BOOT*%
X39000000Y48375000D03*
X45000000Y48375000D03*
%TO.P,SW1,2*%
%TO.N,GND*%
X39000000Y44625000D03*
X45000000Y44625000D03*
%TD*%
D39*
%TO.P,U6,1*%
%TO.N,GND*%
X39062500Y53350000D03*
%TO.P,U6,2*%
%TO.N,VBCKP_SRC*%
X39062500Y51450000D03*
%TO.P,U6,3*%
%TO.N,VBAT*%
X40937500Y52400000D03*
%TD*%
D11*
%TO.P,LED1,1*%
%TO.N,GND*%
X47662500Y48500000D03*
%TO.P,LED1,2*%
%TO.N,LED1_A*%
X49237500Y48500000D03*
%TD*%
D15*
%TO.P,C7,1*%
%TO.N,3V3*%
X16400000Y63720000D03*
%TO.P,C7,2*%
%TO.N,GND*%
X16400000Y64680000D03*
%TD*%
D40*
%TO.P,C4,1*%
%TO.N,VSYS*%
X9030000Y65950000D03*
%TO.P,C4,2*%
%TO.N,GND*%
X8070000Y65950000D03*
%TD*%
D12*
%TO.P,R14,1*%
%TO.N,VBAT_SENSE*%
X6200000Y62990000D03*
%TO.P,R14,2*%
%TO.N,GND*%
X6200000Y64010000D03*
%TD*%
%TO.P,R10,1*%
%TO.N,ILIM*%
X9400000Y58190000D03*
%TO.P,R10,2*%
%TO.N,GND*%
X9400000Y59210000D03*
%TD*%
D41*
%TO.P,U4,1*%
%TO.N,TS*%
X13550000Y58000000D03*
%TO.P,U4,2*%
%TO.N,VBAT*%
X13550000Y58500000D03*
%TO.P,U4,3*%
X13550000Y59000000D03*
%TO.P,U4,4*%
%TO.N,GND*%
X13550000Y59500000D03*
D42*
%TO.P,U4,5*%
X12900000Y60150000D03*
%TO.P,U4,6*%
%TO.N,VSYS*%
X12400000Y60150000D03*
%TO.P,U4,7*%
%TO.N,PGOOD_N*%
X11900000Y60150000D03*
%TO.P,U4,8*%
%TO.N,GND*%
X11400000Y60150000D03*
D41*
%TO.P,U4,9*%
%TO.N,CHG_N*%
X10750000Y59500000D03*
%TO.P,U4,10*%
%TO.N,VSYS*%
X10750000Y59000000D03*
%TO.P,U4,11*%
X10750000Y58500000D03*
%TO.P,U4,12*%
%TO.N,ILIM*%
X10750000Y58000000D03*
D42*
%TO.P,U4,13*%
%TO.N,VBUS*%
X11400000Y57350000D03*
%TO.P,U4,14*%
%TO.N,N/C*%
X11900000Y57350000D03*
%TO.P,U4,15*%
%TO.N,GND*%
X12400000Y57350000D03*
%TO.P,U4,16*%
%TO.N,ISET*%
X12900000Y57350000D03*
D43*
%TO.P,U4,17*%
%TO.N,GND*%
X12150000Y58750000D03*
%TD*%
D15*
%TO.P,C16,1*%
%TO.N,VBAT_SENSE*%
X7400000Y63020000D03*
%TO.P,C16,2*%
%TO.N,GND*%
X7400000Y63980000D03*
%TD*%
D12*
%TO.P,R8,1*%
%TO.N,I2C_SCL*%
X27600000Y48490000D03*
%TO.P,R8,2*%
%TO.N,3V3*%
X27600000Y49510000D03*
%TD*%
D44*
%TO.P,C1,1*%
%TO.N,VBUS*%
X11325000Y55600000D03*
%TO.P,C1,2*%
%TO.N,GND*%
X12875000Y55600000D03*
%TD*%
D16*
%TO.P,C17,1*%
%TO.N,USB_DP*%
X16320000Y48700000D03*
%TO.P,C17,2*%
%TO.N,GND*%
X17280000Y48700000D03*
%TD*%
D11*
%TO.P,LED2,1*%
%TO.N,GND*%
X47662500Y46500000D03*
%TO.P,LED2,2*%
%TO.N,LED2_A*%
X49237500Y46500000D03*
%TD*%
D25*
%TO.P,R12,1*%
%TO.N,PGOOD_N*%
X11890000Y62000000D03*
%TO.P,R12,2*%
%TO.N,3V3*%
X12910000Y62000000D03*
%TD*%
D45*
%TO.P,U1,1*%
%TO.N,GND*%
X18000000Y65150000D03*
%TO.P,U1,2*%
X18000000Y64300000D03*
%TO.P,U1,3*%
%TO.N,3V3*%
X18000000Y63450000D03*
%TO.P,U1,4*%
%TO.N,BOOT*%
X18000000Y62600000D03*
%TO.P,U1,5*%
%TO.N,VBAT_SENSE*%
X18000000Y61750000D03*
%TO.P,U1,6*%
%TO.N,PGOOD_N*%
X18000000Y60900000D03*
%TO.P,U1,7*%
%TO.N,N/C*%
X18000000Y60050000D03*
%TO.P,U1,8*%
X18000000Y59200000D03*
%TO.P,U1,9*%
%TO.N,IO5*%
X18000000Y58350000D03*
%TO.P,U1,10*%
%TO.N,IO6*%
X18000000Y57500000D03*
%TO.P,U1,11*%
%TO.N,IO7*%
X18000000Y56650000D03*
%TO.P,U1,12*%
%TO.N,I2C_SDA*%
X18000000Y55800000D03*
%TO.P,U1,13*%
%TO.N,I2C_SCL*%
X18000000Y54950000D03*
%TO.P,U1,14*%
%TO.N,IMU_INT1*%
X18000000Y54100000D03*
%TO.P,U1,15*%
%TO.N,IMU_INT2*%
X18000000Y53250000D03*
D46*
%TO.P,U1,16*%
%TO.N,LED1*%
X19050000Y52200000D03*
%TO.P,U1,17*%
%TO.N,LED2*%
X19900000Y52200000D03*
%TO.P,U1,18*%
%TO.N,IO14*%
X20750000Y52200000D03*
%TO.P,U1,19*%
%TO.N,N/C*%
X21600000Y52200000D03*
%TO.P,U1,20*%
X22450000Y52200000D03*
%TO.P,U1,21*%
X23300000Y52200000D03*
%TO.P,U1,22*%
X24150000Y52200000D03*
%TO.P,U1,23*%
%TO.N,USB_DN*%
X25000000Y52200000D03*
%TO.P,U1,24*%
%TO.N,USB_DP*%
X25850000Y52200000D03*
%TO.P,U1,25*%
%TO.N,PPS*%
X26700000Y52200000D03*
%TO.P,U1,26*%
%TO.N,N/C*%
X27550000Y52200000D03*
%TO.P,U1,27*%
%TO.N,IO47*%
X28400000Y52200000D03*
%TO.P,U1,28*%
%TO.N,N/C*%
X29250000Y52200000D03*
%TO.P,U1,29*%
X30100000Y52200000D03*
%TO.P,U1,30*%
%TO.N,IO48*%
X30950000Y52200000D03*
D45*
%TO.P,U1,31*%
%TO.N,N/C*%
X32000000Y53250000D03*
%TO.P,U1,32*%
X32000000Y54100000D03*
%TO.P,U1,33*%
X32000000Y54950000D03*
%TO.P,U1,34*%
%TO.N,GNSS_RXD*%
X32000000Y55800000D03*
%TO.P,U1,35*%
%TO.N,GNSS_TXD*%
X32000000Y56650000D03*
%TO.P,U1,36*%
%TO.N,GNSS_RESET_N*%
X32000000Y57500000D03*
%TO.P,U1,37*%
%TO.N,GNSS_EXTINT*%
X32000000Y58350000D03*
%TO.P,U1,38*%
%TO.N,N/C*%
X32000000Y59200000D03*
%TO.P,U1,39*%
%TO.N,U0TXD*%
X32000000Y60050000D03*
%TO.P,U1,40*%
%TO.N,U0RXD*%
X32000000Y60900000D03*
%TO.P,U1,41*%
%TO.N,N/C*%
X32000000Y61750000D03*
%TO.P,U1,42*%
%TO.N,GND*%
X32000000Y62600000D03*
%TO.P,U1,43*%
X32000000Y63450000D03*
%TO.P,U1,44*%
%TO.N,N/C*%
X32000000Y64300000D03*
%TO.P,U1,45*%
%TO.N,EN*%
X32000000Y65150000D03*
D46*
%TO.P,U1,46*%
%TO.N,GND*%
X30950000Y66200000D03*
%TO.P,U1,47*%
X30100000Y66200000D03*
%TO.P,U1,48*%
X29250000Y66200000D03*
%TO.P,U1,49*%
X28400000Y66200000D03*
%TO.P,U1,50*%
X27550000Y66200000D03*
%TO.P,U1,51*%
X26700000Y66200000D03*
%TO.P,U1,52*%
X25850000Y66200000D03*
%TO.P,U1,53*%
X25000000Y66200000D03*
%TO.P,U1,54*%
X24150000Y66200000D03*
%TO.P,U1,55*%
X23300000Y66200000D03*
%TO.P,U1,56*%
X22450000Y66200000D03*
%TO.P,U1,57*%
X21600000Y66200000D03*
%TO.P,U1,58*%
X20750000Y66200000D03*
%TO.P,U1,59*%
X19900000Y66200000D03*
%TO.P,U1,60*%
X19050000Y66200000D03*
D47*
%TO.P,U1,61*%
X23350000Y60850000D03*
D48*
X23350000Y59200000D03*
X23350000Y57550000D03*
X25000000Y60850000D03*
X25000000Y59200000D03*
X25000000Y57550000D03*
X26650000Y60850000D03*
X26650000Y59200000D03*
X26650000Y57550000D03*
D49*
%TO.P,U1,62*%
X18000000Y66200000D03*
%TO.P,U1,63*%
X18000000Y52200000D03*
%TO.P,U1,64*%
X32000000Y52200000D03*
%TO.P,U1,65*%
X32000000Y66200000D03*
%TD*%
D16*
%TO.P,C9,1*%
%TO.N,3V3*%
X35120000Y44400000D03*
%TO.P,C9,2*%
%TO.N,GND*%
X36080000Y44400000D03*
%TD*%
D50*
%TO.N,3V3*%
X24600000Y44900000D03*
X21900000Y44300000D03*
X17200000Y63500000D03*
X36800000Y53200000D03*
X34800000Y61600000D03*
X14700000Y65000000D03*
X30100000Y50800000D03*
X23800000Y49100000D03*
X10000000Y46500000D03*
X14400000Y46000000D03*
X13700000Y65300000D03*
X35400000Y52000000D03*
X25900000Y44900000D03*
X16400000Y61000000D03*
X37100000Y55700000D03*
X13500000Y60900000D03*
X34600000Y50800000D03*
X34900000Y62900000D03*
X12200000Y46500000D03*
X25600000Y48500000D03*
X36900000Y54400000D03*
%TO.N,BOOT*%
X36400000Y56400000D03*
X17200000Y62400000D03*
X41400000Y53900000D03*
X32900000Y60300000D03*
X37700000Y56400000D03*
X41300000Y51600000D03*
%TO.N,CHG_N*%
X8700000Y48000000D03*
X10700000Y60000000D03*
X38400000Y43700000D03*
X9100000Y55300000D03*
X19700000Y46100000D03*
X12200000Y47300000D03*
X14500000Y47100000D03*
X28500000Y43900000D03*
X10300000Y57400000D03*
X10300000Y47300000D03*
X33100000Y43700000D03*
X17000000Y46600000D03*
%TO.N,EN*%
X39000000Y56400000D03*
X31200000Y65000000D03*
X39000000Y57600000D03*
X38600000Y61100000D03*
X38600000Y59500000D03*
%TO.N,GND*%
X1000000Y48400001D03*
X1000000Y28400001D03*
X1000000Y50900001D03*
X49000000Y58400001D03*
X23350000Y58375000D03*
X1000000Y65900001D03*
X36468750Y6650001D03*
X49000000Y13400001D03*
X31000000Y36000000D03*
X47000000Y36000000D03*
X15000000Y36000000D03*
X23750000Y26250000D03*
X11762500Y64550000D03*
X49000000Y43400001D03*
X28750000Y28750000D03*
X43350000Y6650001D03*
X25000000Y58375000D03*
X1000000Y25900001D03*
X15000000Y4000000D03*
X39000000Y36000000D03*
X48400000Y47940000D03*
X35000000Y24000000D03*
X43000000Y8000000D03*
X3000000Y32000000D03*
X1000000Y15900001D03*
X8500000Y1000000D03*
X35000000Y12000000D03*
X29587500Y6650001D03*
X43350000Y29437500D03*
X1000000Y35900001D03*
X1000000Y55900001D03*
X5000000Y53000000D03*
X23000000Y40000000D03*
X6650000Y31656250D03*
X6650000Y18343750D03*
X43350000Y40531250D03*
X21250000Y28750000D03*
X6650000Y25000000D03*
X31000000Y1000000D03*
X47000000Y62000000D03*
X9100000Y59760000D03*
X11000000Y24000000D03*
X28750000Y23750000D03*
X26000000Y56000000D03*
X49000000Y18400001D03*
X47000000Y40000000D03*
X15000000Y12000000D03*
X39000000Y28000000D03*
X7000000Y4000000D03*
X43350000Y31656250D03*
X46000000Y1000000D03*
X35000000Y4000000D03*
X34175000Y6650001D03*
X15380000Y59370000D03*
X26250000Y26250000D03*
X7000000Y8000000D03*
X1000000Y40900001D03*
X1000000Y58400001D03*
X49000000Y40900001D03*
X19000000Y20000000D03*
X19000000Y4000000D03*
X11600000Y59300000D03*
X40200000Y44600000D03*
X47000000Y28000000D03*
X27000000Y8000000D03*
X6000000Y1000000D03*
X27000000Y40000000D03*
X6650000Y33875000D03*
X21250000Y21250000D03*
X6650000Y9468750D03*
X49000000Y5900001D03*
X5000000Y62000000D03*
X23750000Y23750000D03*
X49000000Y28400001D03*
X49000000Y30900001D03*
X31881250Y6650001D03*
X31000000Y4000000D03*
X43500000Y1000000D03*
X38762500Y6650001D03*
X26250000Y28750000D03*
X3000000Y8000000D03*
X7200000Y65800000D03*
X26250000Y23750000D03*
X6650000Y20562500D03*
X1000000Y45900001D03*
X36000000Y1000000D03*
X1000000Y38400001D03*
X11762500Y66450000D03*
X27000000Y36000000D03*
X47000000Y32000000D03*
X49000000Y10900001D03*
X25000000Y6650001D03*
X49000000Y25900001D03*
X11000000Y1000000D03*
X2000000Y53000000D03*
X23000000Y28000000D03*
X28750000Y26250000D03*
X13500000Y1000000D03*
X41056250Y6650001D03*
X3000000Y16000000D03*
X12150000Y58750000D03*
X39000000Y12000000D03*
X47000000Y20000000D03*
X49000000Y50900001D03*
X43350000Y38312500D03*
X39000000Y20000000D03*
X33750000Y64180000D03*
X43350000Y16125000D03*
X17870000Y48960000D03*
X35900000Y45300000D03*
X3000000Y40000000D03*
X45130000Y45300000D03*
X1000000Y5900001D03*
X49000000Y60900001D03*
X39000000Y32000000D03*
X31510000Y50070000D03*
X1000000Y33400001D03*
X15000000Y40000000D03*
X31000000Y40000000D03*
X49000000Y15900001D03*
X44400000Y51500000D03*
X3000000Y20000000D03*
X23350000Y60025000D03*
X38500000Y1000000D03*
X43350000Y36093750D03*
X15000000Y20000000D03*
X15000000Y28000000D03*
X7000000Y24000000D03*
X43350000Y22781250D03*
X11000000Y12000000D03*
X48400000Y45970000D03*
X19000000Y8000000D03*
X43000000Y4000000D03*
X3000000Y28000000D03*
X11000000Y32000000D03*
X35000000Y32000000D03*
X15000000Y16000000D03*
X6650000Y11687500D03*
X23000000Y4000000D03*
X41000000Y56000000D03*
X39000000Y16000000D03*
X1000000Y20900001D03*
X11000000Y16000000D03*
X31000000Y32000000D03*
X1000000Y1000000D03*
X24175000Y57550000D03*
X24500000Y42700000D03*
X10160000Y48850000D03*
X23000000Y12000000D03*
X11000000Y36000000D03*
X25825000Y57550000D03*
X27000000Y12000000D03*
X43350000Y25000000D03*
X25000000Y60025000D03*
X18118750Y6650001D03*
X43300000Y60400000D03*
X43350000Y42750000D03*
X3000000Y12000000D03*
X6650000Y36093750D03*
X28500000Y1000000D03*
X6650000Y29437500D03*
X21000000Y1000000D03*
X43350000Y20562500D03*
X24175000Y60850000D03*
X49000000Y3400000D03*
X15000000Y32000000D03*
X20412500Y6650001D03*
X8943750Y6650001D03*
X21250000Y23750000D03*
X43350000Y9468750D03*
X49000000Y33400001D03*
X49000000Y53400001D03*
X6650000Y22781250D03*
X6650000Y16125000D03*
X11000000Y8000000D03*
X49000000Y55900001D03*
X6650000Y13906250D03*
X25825000Y59200000D03*
X26650000Y60025000D03*
X23000000Y8000000D03*
X39400000Y52400000D03*
X43900000Y54600000D03*
X1000000Y13400001D03*
X11000000Y28000000D03*
X11600000Y58200000D03*
X1000000Y3400000D03*
X41000000Y65000000D03*
X43350000Y33875000D03*
X1000000Y8400001D03*
X35000000Y8000000D03*
X27000000Y20000000D03*
X19000000Y12000000D03*
X27000000Y4000000D03*
X39000000Y40000000D03*
X2000000Y59000000D03*
X26250000Y21250000D03*
X10700000Y51900000D03*
X35000000Y28000000D03*
X19000000Y32000000D03*
X15000000Y24000000D03*
X2000000Y65000000D03*
X6650000Y38312500D03*
X47000000Y12000000D03*
X12700000Y58200000D03*
X15000000Y8000000D03*
X23750000Y28750000D03*
X6650000Y27218750D03*
X11762500Y65450000D03*
X29000000Y65000000D03*
X35000000Y20000000D03*
X1000000Y43400001D03*
X41000000Y1000000D03*
X39000000Y8000000D03*
X49000000Y20900001D03*
X19000000Y40000000D03*
X38000000Y59000000D03*
X49000000Y35900001D03*
X3000000Y24000000D03*
X49000000Y65900001D03*
X23000000Y20000000D03*
X25825000Y60850000D03*
X11000000Y20000000D03*
X43000000Y24000000D03*
X21250000Y26250000D03*
X5800000Y44300000D03*
X33500000Y1000000D03*
X23500000Y1000000D03*
X1000000Y18400001D03*
X28750000Y21250000D03*
X27900000Y43200000D03*
X47000000Y8000000D03*
X49000000Y8400001D03*
X47000000Y24000000D03*
X43350000Y18343750D03*
X1000000Y10900001D03*
X47000000Y16000000D03*
X12700000Y59300000D03*
X6650000Y40531250D03*
X13531250Y6650001D03*
X11000000Y40000000D03*
X24175000Y59200000D03*
X3500000Y1000000D03*
X1000000Y63400001D03*
X26000000Y1000000D03*
X27000000Y28000000D03*
X23000000Y36000000D03*
X49000000Y63400001D03*
X22706250Y6650001D03*
X1000000Y53400001D03*
X43350000Y27218750D03*
X16000000Y1000000D03*
X3000000Y36000000D03*
X40700000Y49300000D03*
X2000000Y62000000D03*
X10990000Y53870000D03*
X11000000Y4000000D03*
X49000000Y38400001D03*
X39000000Y24000000D03*
X23750000Y21250000D03*
X49000000Y23400001D03*
X31000000Y12000000D03*
X6650000Y6650001D03*
X27293750Y6650001D03*
X5000000Y59000000D03*
X6800000Y60100000D03*
X5000000Y56000000D03*
X18500000Y1000000D03*
X26650000Y58375000D03*
X44600000Y53800000D03*
X48500000Y1000000D03*
X7980000Y63640001D03*
X31000000Y8000000D03*
X43350000Y13906250D03*
X1000000Y23400001D03*
X1000000Y30900001D03*
X39000000Y4000000D03*
X19000000Y36000000D03*
X15825000Y6650001D03*
X31000000Y20000000D03*
X1000000Y60900001D03*
X21800000Y42900000D03*
X41000000Y59000000D03*
X43350000Y11687500D03*
X44000000Y59000000D03*
X11237500Y6650001D03*
X11762500Y63550000D03*
%TO.N,GNSS_EXTINT*%
X32900000Y54600000D03*
X34100000Y55900000D03*
%TO.N,GNSS_RESET_N*%
X33200000Y56700000D03*
X31200000Y57700000D03*
X33400000Y54000000D03*
%TO.N,GNSS_RXD*%
X35800000Y51200000D03*
X34000000Y52800000D03*
X31200000Y55700000D03*
%TO.N,GNSS_SAFEBOOT_N*%
X36000000Y53500000D03*
%TO.N,GNSS_TXD*%
X31200000Y56500000D03*
%TO.N,I2C_SCL*%
X24900000Y48200000D03*
X26600000Y48200000D03*
X16000000Y54600000D03*
X14700000Y49700000D03*
X15800000Y49700000D03*
X17000000Y55200000D03*
%TO.N,I2C_SDA*%
X26200000Y49700000D03*
X17200000Y56000000D03*
%TO.N,IMU_INT1*%
X19500000Y51300000D03*
X17200000Y54400000D03*
X18800000Y49000000D03*
X23400000Y45300000D03*
%TO.N,IMU_INT2*%
X27000000Y46600000D03*
X20800000Y50900000D03*
X20200000Y48400000D03*
X17200000Y53000000D03*
%TO.N,IO14*%
X15000000Y46500000D03*
X16200000Y46500000D03*
%TO.N,IO47*%
X29900000Y46100000D03*
X18800000Y43700000D03*
X28900000Y50900000D03*
X29000000Y46900000D03*
X25900000Y43700000D03*
X28500000Y44700000D03*
X29900000Y49700000D03*
X27100000Y44700000D03*
%TO.N,IO48*%
X21300000Y47800000D03*
X29400000Y47600000D03*
%TO.N,IO5*%
X8600000Y45600000D03*
X15100000Y56500000D03*
%TO.N,IO6*%
X12300000Y50300000D03*
X15100000Y54100000D03*
%TO.N,IO7*%
X16200000Y55400000D03*
X12600000Y49300000D03*
%TO.N,LDO_EN*%
X11200000Y63000000D03*
X32900000Y65700000D03*
X13000000Y64900000D03*
X15600000Y63400000D03*
%TO.N,LED1*%
X30800000Y47200000D03*
X25400000Y49700000D03*
X38400000Y47400000D03*
X19200000Y53000000D03*
X33100000Y47400000D03*
X25700000Y50900000D03*
%TO.N,LED2*%
X27400000Y51300000D03*
X38400000Y46600000D03*
X36200000Y46600000D03*
X28400000Y50300000D03*
X35600000Y48200000D03*
X20200000Y53000000D03*
X31500000Y47900000D03*
X33100000Y48200000D03*
%TO.N,PGOOD_N*%
X16300000Y59200000D03*
X9800000Y61100000D03*
%TO.N,PPS*%
X26700000Y50300000D03*
X14100000Y50300000D03*
%TO.N,TS*%
X27600000Y61800000D03*
X22400000Y56600000D03*
X32900000Y59200000D03*
X14800000Y57200000D03*
%TO.N,U0RXD*%
X32880699Y62646300D03*
%TO.N,U0TXD*%
X31200000Y60200000D03*
%TO.N,USB_DN*%
X17200000Y51100000D03*
X16900000Y53700000D03*
X24700000Y53000000D03*
X18800000Y50900000D03*
%TO.N,USB_DN_C*%
X12100000Y53700000D03*
X13300000Y54300000D03*
%TO.N,USB_DP*%
X21200000Y49700000D03*
X17700000Y47100000D03*
X16700000Y48000000D03*
X24300000Y49700000D03*
%TO.N,VBAT*%
X35400000Y65900000D03*
X40100000Y62500000D03*
X40100000Y63900000D03*
X10900000Y62300000D03*
X14800000Y63300000D03*
%TO.N,VBAT_SENSE*%
X10200000Y61900000D03*
X17200000Y61400000D03*
%TO.N,VBCKP*%
X21900000Y51250000D03*
%TO.N,VBCKP_SRC*%
X21200000Y46600000D03*
X33100000Y49700000D03*
X38400000Y49700000D03*
X29100000Y46000000D03*
%TO.N,VBUS*%
X10500000Y54700000D03*
X9100000Y48800000D03*
%TO.N,VSYS*%
X8300000Y59900000D03*
X9100000Y60500000D03*
X9300000Y64300000D03*
X9100000Y61600000D03*
X10900000Y60800000D03*
X35800000Y62800000D03*
X12500000Y60900000D03*
X43800000Y48700000D03*
X43800000Y45900000D03*
%TD*%
%TO.N,3V3*%
D51*
X34600000Y50800000D02*
X34700000Y50700000D01*
D52*
X34800000Y65600000D02*
X34400000Y65800000D01*
X25900000Y48600000D02*
X25800000Y48600000D01*
X28100000Y46500000D02*
X28300000Y48000000D01*
X27200000Y49100000D02*
X27100000Y49100000D01*
X26400000Y48800000D02*
X26100000Y48800000D01*
X13700000Y65300000D02*
X13500000Y65700000D01*
X25600000Y47800000D02*
X25600000Y47700000D01*
X34400000Y61500000D02*
X34800000Y61600000D01*
X27100000Y45800000D02*
X27300000Y46000000D01*
D51*
X15600000Y65200000D02*
X15600000Y65400000D01*
D52*
X16100000Y63900000D02*
X16000000Y64000000D01*
D51*
X16800000Y41900000D02*
X22820000Y41900000D01*
X29900000Y50600000D02*
X30000000Y50700000D01*
X29600000Y50400000D02*
X29700000Y50500000D01*
X34800000Y50500000D02*
X34800000Y50000000D01*
X18400000Y26900000D02*
X16800000Y26900000D01*
D52*
X36700000Y57000000D02*
X34700000Y61500000D01*
X26000000Y48700000D02*
X25900000Y48600000D01*
X24500000Y45000000D02*
X24600000Y44900000D01*
X26400000Y45800000D02*
X27100000Y45800000D01*
X14400000Y46000000D02*
X12200000Y46500000D01*
X34900000Y62900000D02*
X34900000Y65500000D01*
X37000000Y56700000D02*
X36900000Y56800000D01*
D51*
X15400000Y64900000D02*
X14800000Y64900000D01*
D52*
X34900000Y65500000D02*
X34800000Y65600000D01*
X16000000Y64000000D02*
X15700000Y64000000D01*
D51*
X26900000Y34000000D02*
X34800000Y34000000D01*
D52*
X27400000Y46100000D02*
X27500000Y46100000D01*
D51*
X30000000Y50700000D02*
X30100000Y50800000D01*
X26900000Y31600000D02*
X26900000Y34000000D01*
D52*
X22900000Y44900000D02*
X23000000Y44800000D01*
X36800000Y56900000D02*
X36700000Y57000000D01*
X36900000Y56800000D02*
X36800000Y56900000D01*
X34600000Y50800000D02*
X35400000Y52000000D01*
X15400000Y64300000D02*
X15400000Y64900000D01*
D51*
X34700000Y50700000D02*
X34700000Y50600000D01*
D52*
X28300000Y49000000D02*
X28900000Y49700000D01*
X28300000Y48000000D02*
X28300000Y49000000D01*
X23500000Y49500000D02*
X23200000Y49700000D01*
D51*
X29000000Y49800000D02*
X29100000Y49900000D01*
D52*
X23000000Y44800000D02*
X23100000Y44700000D01*
X28200000Y49100000D02*
X27200000Y49100000D01*
X28300000Y49000000D02*
X28200000Y49100000D01*
D51*
X29100000Y49900000D02*
X29100000Y50000000D01*
D52*
X17600000Y63500000D02*
X16700000Y63500000D01*
D51*
X14800000Y64900000D02*
X14700000Y65000000D01*
X29100000Y50000000D02*
X29200000Y50100000D01*
X29300000Y50200000D02*
X29400000Y50300000D01*
D52*
X37100000Y55700000D02*
X37000000Y56700000D01*
X26100000Y48800000D02*
X26000000Y48700000D01*
X25900000Y44900000D02*
X26300000Y45700000D01*
D51*
X15400000Y64900000D02*
X15600000Y65200000D01*
X34800000Y34000000D02*
X34800000Y50000000D01*
D52*
X26800000Y48900000D02*
X26400000Y48800000D01*
D51*
X29700000Y50500000D02*
X29900000Y50600000D01*
D52*
X26900000Y49000000D02*
X26800000Y48900000D01*
X10000000Y46500000D02*
X2800000Y45800000D01*
X24200000Y44700000D02*
X24500000Y45000000D01*
X25700000Y48500000D02*
X25600000Y48500000D01*
X27000000Y49100000D02*
X26900000Y49000000D01*
X36800000Y53200000D02*
X36900000Y54400000D01*
D51*
X16800000Y26900000D02*
X16800000Y41900000D01*
X29400000Y50300000D02*
X29500000Y50400000D01*
D52*
X15500000Y64200000D02*
X15400000Y64300000D01*
X24500000Y45400000D02*
X24500000Y45000000D01*
D51*
X29200000Y50100000D02*
X29300000Y50200000D01*
D52*
X15700000Y64000000D02*
X15600000Y64100000D01*
X23800000Y49100000D02*
X23500000Y49500000D01*
D51*
X22820000Y41900000D02*
X22820000Y43450000D01*
D52*
X27400000Y49100000D02*
X27400000Y49300000D01*
X2800000Y45800000D02*
X2500000Y45500000D01*
X22500000Y44400000D02*
X21900000Y44300000D01*
X16600000Y63500000D02*
X16600000Y62800000D01*
D51*
X29500000Y50400000D02*
X29600000Y50400000D01*
X15600000Y65400000D02*
X15800000Y65600000D01*
D52*
X27300000Y46000000D02*
X27400000Y46100000D01*
X16400000Y61400000D02*
X16400000Y61000000D01*
X27100000Y49100000D02*
X27000000Y49100000D01*
X13500000Y60900000D02*
X13000000Y61700000D01*
X25800000Y48600000D02*
X25600000Y47800000D01*
X23100000Y44700000D02*
X24200000Y44700000D01*
X15600000Y64100000D02*
X15500000Y64200000D01*
D51*
X34700000Y50600000D02*
X34800000Y50500000D01*
X28900000Y49700000D02*
X29000000Y49800000D01*
D52*
X22700000Y43700000D02*
X22500000Y44900000D01*
%TO.N,BOOT*%
D53*
X17600000Y62600000D02*
X17200000Y62400000D01*
X40800000Y54200000D02*
X40900000Y54100000D01*
X41300000Y51600000D02*
X41300000Y48100000D01*
X38700000Y54500000D02*
X40400000Y54500000D01*
X40400000Y54500000D02*
X40500000Y54400000D01*
X39500000Y48100000D02*
X44500000Y48100000D01*
X37700000Y56400000D02*
X38700000Y54500000D01*
X40600000Y54400000D02*
X40700000Y54300000D01*
X41100000Y54000000D02*
X41200000Y53900000D01*
X40900000Y54100000D02*
X41000000Y54000000D01*
X34400000Y60100000D02*
X36400000Y56400000D01*
X32900000Y60300000D02*
X33800000Y60300000D01*
X40500000Y54400000D02*
X40600000Y54400000D01*
X40700000Y54300000D02*
X40800000Y54200000D01*
X41000000Y54000000D02*
X41100000Y54000000D01*
X41200000Y53900000D02*
X41400000Y53900000D01*
%TO.N,CC1*%
X9430000Y53550000D02*
X9430000Y53249500D01*
X7744500Y53249500D02*
X7695000Y53200000D01*
X9430000Y53249500D02*
X7744500Y53249500D01*
%TO.N,CC2*%
X9621600Y50100800D02*
X7794200Y50100800D01*
X9621600Y49818400D02*
X9621600Y50100800D01*
X7794200Y50100800D02*
X7695000Y50200000D01*
X9690000Y49750000D02*
X9621600Y49818400D01*
%TO.N,CHG_N*%
X12200000Y47300000D02*
X14500000Y47100000D01*
X10300000Y57400000D02*
X9100000Y55300000D01*
X8700000Y48000000D02*
X9600000Y47300000D01*
X28500000Y43900000D02*
X33100000Y43700000D01*
X10600000Y59900000D02*
X10700000Y60000000D01*
X17000000Y46600000D02*
X18300000Y46200000D01*
X18300000Y46200000D02*
X19700000Y46100000D01*
X10600000Y59600000D02*
X10600000Y59900000D01*
X9600000Y47300000D02*
X10300000Y47300000D01*
X47100000Y43200000D02*
X47400000Y44100000D01*
X38400000Y43700000D02*
X47100000Y43200000D01*
%TO.N,EN*%
X39000000Y61100000D02*
X38600000Y61100000D01*
X38600000Y59500000D02*
X39000000Y57600000D01*
X32400000Y65000000D02*
X33800000Y65000000D01*
X34400000Y62300000D02*
X39000000Y62000000D01*
X33500000Y62900000D02*
X33600000Y62800000D01*
X33600000Y62800000D02*
X33800000Y62800000D01*
X33299999Y63100000D02*
X33400000Y63000000D01*
X33100000Y65000000D02*
X33200000Y63200000D01*
X39000000Y56400000D02*
X39000000Y56000000D01*
X33400000Y63000000D02*
X33500000Y62900000D01*
X33200000Y63200000D02*
X33299999Y63100000D01*
X31600000Y65100000D02*
X31200000Y65000000D01*
%TO.N,GND*%
D52*
X17280000Y50400000D02*
X18000000Y50680000D01*
D53*
X13800000Y62800000D02*
X12500000Y63100000D01*
D52*
X10710000Y49750000D02*
X10160000Y48850000D01*
D54*
X7800000Y60950000D02*
X6800000Y60100000D01*
D53*
X22600000Y46080000D02*
X23200000Y46250000D01*
D54*
X39980000Y50000000D02*
X40700000Y49300000D01*
D52*
X9400000Y59210000D02*
X9100000Y59760000D01*
D54*
X11882500Y52050000D02*
X10700000Y51900000D01*
X23780000Y43450001D02*
X24500000Y42700000D01*
D53*
X23840000Y47300000D02*
X23840000Y46300000D01*
D54*
X8070000Y65950000D02*
X7200000Y65800000D01*
D53*
X25000000Y46050000D02*
X25000000Y45640000D01*
X23200000Y46250000D02*
X23840000Y46300000D01*
D52*
X25500000Y45640000D02*
X25250000Y45050000D01*
D54*
X43075000Y55500000D02*
X43900000Y54600000D01*
X39000000Y44625000D02*
X40200000Y44600000D01*
D52*
X17280000Y48700000D02*
X17280000Y50400000D01*
D54*
X39062500Y53350000D02*
X39400000Y52400000D01*
D52*
X18000000Y52200000D02*
X18000000Y50680000D01*
D54*
X25250000Y45050000D02*
X25250000Y42300000D01*
D52*
X25000000Y45640000D02*
X25250000Y45050000D01*
X21780000Y43450000D02*
X21800000Y42900000D01*
D54*
X43075000Y61500000D02*
X43300000Y60400000D01*
X27799999Y45320000D02*
X27900000Y43200000D01*
D53*
X24750000Y46300000D02*
X25000000Y46050000D01*
D54*
X43400000Y53825001D02*
X44600000Y53800000D01*
X4550000Y44300000D02*
X5800000Y44300000D01*
X27800000Y45320000D02*
X27800000Y42300000D01*
X36080000Y44400000D02*
X35900000Y45300000D01*
D53*
X23840000Y46300000D02*
X24750000Y46300000D01*
D54*
X43680000Y50800000D02*
X44400000Y51500000D01*
%TO.N,GNSS_EXTINT*%
D53*
X33500000Y57300000D02*
X33600000Y57200000D01*
X32900000Y57700000D02*
X33000000Y57600000D01*
X32799999Y53600000D02*
X33100000Y50600000D01*
X33100000Y50600000D02*
X33700000Y50000000D01*
X33700000Y35100000D02*
X33700000Y50000000D01*
X32600000Y58100000D02*
X32700000Y58000000D01*
X32700000Y57900000D02*
X32799999Y57900000D01*
X33299999Y57500000D02*
X33400000Y57400000D01*
X33800000Y57000000D02*
X33800000Y56200000D01*
X32799999Y54300000D02*
X32799999Y53600000D01*
X33100000Y57500000D02*
X33299999Y57500000D01*
X32700000Y58000000D02*
X32700000Y57900000D01*
X33600000Y57200000D02*
X33700000Y57100000D01*
X32799999Y57900000D02*
X32799999Y57800000D01*
X32799999Y57800000D02*
X32900000Y57700000D01*
X33700000Y57100000D02*
X33800000Y57000000D01*
X32900000Y54600000D02*
X32900000Y54400000D01*
X23100000Y35100000D02*
X33700000Y35100000D01*
X33000000Y57600000D02*
X33100000Y57500000D01*
X33800000Y56200000D02*
X34100000Y55900000D01*
X32400000Y58200000D02*
X32600000Y58100000D01*
X33400000Y57400000D02*
X33500000Y57300000D01*
X32900000Y54400000D02*
X32799999Y54300000D01*
X23100000Y31600000D02*
X23100000Y35100000D01*
%TO.N,GNSS_RESET_N*%
X33400000Y54000000D02*
X33400000Y52000000D01*
X33500000Y51900000D02*
X34200000Y50200000D01*
X34200000Y50200000D02*
X34200000Y50000000D01*
X25000000Y31600000D02*
X25000000Y34600000D01*
X32799999Y57100000D02*
X33200000Y56700000D01*
X33400000Y52000000D02*
X33500000Y51900000D01*
X32600000Y57200000D02*
X32700000Y57200000D01*
X25000000Y34600000D02*
X34200000Y34600000D01*
X32700000Y57200000D02*
X32799999Y57100000D01*
X32400000Y57400000D02*
X32600000Y57200000D01*
X31600000Y57500000D02*
X31200000Y57700000D01*
X34200000Y34600000D02*
X34200000Y50000000D01*
%TO.N,GNSS_RXD*%
X31600000Y55800000D02*
X31200000Y55700000D01*
X31600000Y26900000D02*
X36800000Y26900000D01*
X33400000Y55000000D02*
X33500000Y54900000D01*
X35800000Y51200000D02*
X35900000Y50900000D01*
X32700000Y55600001D02*
X32799999Y55500000D01*
X33900000Y54400000D02*
X34000000Y54300000D01*
X33700000Y54600000D02*
X33800000Y54500000D01*
X33600000Y54700000D02*
X33700000Y54600000D01*
X36200000Y50600000D02*
X36800000Y50000000D01*
X33500000Y54900000D02*
X33500000Y54800000D01*
X33200000Y55200000D02*
X33299999Y55100000D01*
X32600000Y55700000D02*
X32700000Y55600001D01*
X33500000Y54800000D02*
X33600000Y54700000D01*
X36000000Y50800000D02*
X36100000Y50700000D01*
X32900000Y55400000D02*
X33000000Y55300000D01*
X35900000Y50900000D02*
X36000000Y50800000D01*
X36800000Y26900000D02*
X36800000Y50000000D01*
X33299999Y55100000D02*
X33400000Y55000000D01*
X32799999Y55500000D02*
X32900000Y55400000D01*
X33100000Y55200000D02*
X33200000Y55200000D01*
X33800000Y54500000D02*
X33900000Y54400000D01*
X34000000Y54300000D02*
X34000000Y52800000D01*
X33000000Y55300000D02*
X33100000Y55200000D01*
X36100000Y50700000D02*
X36200000Y50600000D01*
X32400000Y55700000D02*
X32600000Y55700000D01*
%TO.N,GNSS_SAFEBOOT_N*%
X36300000Y52800000D02*
X36200000Y52900000D01*
X36100000Y53100000D02*
X36000000Y53200000D01*
X36900000Y51600000D02*
X36800000Y51700000D01*
X36700000Y51900000D02*
X36700000Y52000000D01*
X37500000Y50800000D02*
X37400000Y50900000D01*
X36800000Y51700000D02*
X36800000Y51800000D01*
X37400000Y50900000D02*
X37300000Y51000000D01*
X37600000Y50700000D02*
X37500000Y50800000D01*
X37800000Y50300000D02*
X37700000Y50400000D01*
X25000000Y15900000D02*
X37800000Y15900000D01*
X37000000Y51400000D02*
X36900000Y51500000D01*
X36500000Y52300000D02*
X36500000Y52400000D01*
X36500000Y52400000D02*
X36400000Y52500000D01*
X36000000Y53200000D02*
X36000000Y53500000D01*
X25000000Y18400000D02*
X25000000Y15900000D01*
X36700000Y52000000D02*
X36600000Y52100000D01*
X36400000Y52700000D02*
X36300000Y52800000D01*
X37600000Y50600000D02*
X37600000Y50700000D01*
X37200000Y51100000D02*
X37100000Y51200000D01*
X36900000Y51500000D02*
X36900000Y51600000D01*
X37000000Y51300000D02*
X37000000Y51400000D01*
X37700000Y50400000D02*
X37700000Y50500000D01*
X36600000Y52200000D02*
X36500000Y52300000D01*
X36800000Y51800000D02*
X36700000Y51900000D01*
X36600000Y52100000D02*
X36600000Y52200000D01*
X37100000Y51200000D02*
X37000000Y51300000D01*
X36200000Y52900000D02*
X36200000Y53000000D01*
X36400000Y52500000D02*
X36400000Y52700000D01*
X37300000Y51000000D02*
X37200000Y51100000D01*
X37700000Y50500000D02*
X37600000Y50600000D01*
X37800000Y50000000D02*
X37800000Y50300000D01*
X36200000Y53000000D02*
X36100000Y53100000D01*
X37800000Y15900000D02*
X37800000Y50000000D01*
%TO.N,GNSS_TXD*%
X33299999Y55700000D02*
X33400000Y55600001D01*
X35600000Y52900000D02*
X35700000Y52800000D01*
X35500000Y53100000D02*
X35500000Y53000000D01*
X33200000Y55800000D02*
X33299999Y55700000D01*
X36300000Y51700000D02*
X36300000Y51600000D01*
X36300000Y51600000D02*
X36400000Y51500000D01*
X32400000Y56500000D02*
X32600000Y56400000D01*
X34100000Y54900000D02*
X34200000Y54800000D01*
X35400000Y53300000D02*
X35400000Y53200000D01*
X34000000Y55000000D02*
X34100000Y54900000D01*
X35300000Y53500000D02*
X35300000Y53400000D01*
X32600000Y56400000D02*
X32700000Y56300000D01*
X36200000Y51900000D02*
X36200000Y51800000D01*
X35800000Y52600000D02*
X35900000Y52500000D01*
X32700000Y56300000D02*
X32799999Y56200000D01*
X35100000Y53700000D02*
X35200000Y53600000D01*
X33800000Y55300000D02*
X33900000Y55200000D01*
X35900000Y52400000D02*
X36000000Y52300000D01*
X32900000Y56100000D02*
X33200000Y55800000D01*
X37300000Y25000000D02*
X37300000Y50000000D01*
X31600000Y56600000D02*
X31200000Y56500000D01*
X34200000Y54800000D02*
X34300000Y54700000D01*
X36400000Y51500000D02*
X36400000Y51400000D01*
X34400000Y54600000D02*
X34400000Y54500000D01*
X33500000Y55600001D02*
X33600000Y55500000D01*
X34400000Y54500000D02*
X34500000Y54400000D01*
X36000000Y52200000D02*
X36100000Y52100000D01*
X31600000Y25000000D02*
X37300000Y25000000D01*
X32799999Y56200000D02*
X32900000Y56100000D01*
X34900000Y54000000D02*
X34900000Y53900000D01*
X34600000Y54300000D02*
X34700000Y54200000D01*
X35300000Y53400000D02*
X35400000Y53300000D01*
X33700000Y55400000D02*
X33800000Y55300000D01*
X34700000Y54200000D02*
X34800000Y54100000D01*
X36600000Y51100000D02*
X36600000Y51000000D01*
X36500000Y51200000D02*
X36600000Y51100000D01*
X37100000Y50500000D02*
X37200000Y50400000D01*
X35500000Y53000000D02*
X35600000Y52900000D01*
X37200000Y50400000D02*
X37200000Y50300000D01*
X34500000Y54400000D02*
X34600000Y54300000D01*
X37200000Y50300000D02*
X37300000Y50200000D01*
X36400000Y51400000D02*
X36500000Y51300000D01*
X35000000Y53800000D02*
X35100000Y53700000D01*
X33600000Y55500000D02*
X33700000Y55400000D01*
X34300000Y54700000D02*
X34400000Y54600000D01*
X35400000Y53200000D02*
X35500000Y53100000D01*
X33400000Y55600001D02*
X33500000Y55600001D01*
X36600000Y51000000D02*
X36700000Y50900000D01*
X34800000Y54100000D02*
X34900000Y54000000D01*
X36500000Y51300000D02*
X36500000Y51200000D01*
X36700000Y50900000D02*
X36800000Y50800000D01*
X36100000Y52100000D02*
X36100000Y52000000D01*
X35800000Y52700000D02*
X35800000Y52600000D01*
X36200000Y51800000D02*
X36300000Y51700000D01*
X37000000Y50600000D02*
X37100000Y50500000D01*
X34900000Y53900000D02*
X35000000Y53800000D01*
X36000000Y52300000D02*
X36000000Y52200000D01*
X35200000Y53600000D02*
X35300000Y53500000D01*
X33900000Y55200000D02*
X33900000Y55100000D01*
X35700000Y52800000D02*
X35800000Y52700000D01*
X33900000Y55100000D02*
X34000000Y55000000D01*
X36900000Y50700000D02*
X37000000Y50600000D01*
X35900000Y52500000D02*
X35900000Y52400000D01*
X36100000Y52000000D02*
X36200000Y51900000D01*
X36800000Y50800000D02*
X36900000Y50700000D01*
X37300000Y50200000D02*
X37300000Y50000000D01*
%TO.N,I2C_SCL*%
X25000000Y48100000D02*
X24900000Y48200000D01*
X26600000Y48200000D02*
X27300000Y48300000D01*
X16399999Y54600000D02*
X16000000Y54600000D01*
X17000000Y55200000D02*
X16399999Y54600000D01*
X17600000Y55000000D02*
X17000000Y55200000D01*
X25000000Y47700000D02*
X25000000Y48100000D01*
X14700000Y49700000D02*
X15800000Y49700000D01*
%TO.N,I2C_SDA*%
X25700000Y49100000D02*
X25000000Y49100000D01*
X23700000Y48200000D02*
X24300000Y47800000D01*
X26000000Y49300000D02*
X25900000Y49300000D01*
X24300000Y47800000D02*
X24400000Y47800000D01*
X24500000Y48800000D02*
X23900000Y48200000D01*
X26200000Y49700000D02*
X26000000Y49300000D01*
X24400000Y47800000D02*
X24400000Y47700000D01*
X17600000Y55800000D02*
X17200000Y56000000D01*
X23200000Y48700000D02*
X23700000Y48200000D01*
X25900000Y49300000D02*
X25800000Y49200000D01*
X25000000Y49100000D02*
X24500000Y48800000D01*
X25800000Y49200000D02*
X25700000Y49100000D01*
%TO.N,ILIM*%
X9400000Y58079600D02*
X10670400Y58079600D01*
X10670400Y58079600D02*
X10750000Y58000000D01*
X9400000Y58190000D02*
X9400000Y58079600D01*
%TO.N,IMU_INT1*%
X19500000Y50100000D02*
X19400000Y50000000D01*
X23400000Y45300000D02*
X23600000Y45700000D01*
X19500000Y51300000D02*
X19500000Y50100000D01*
X17600000Y54300000D02*
X17200000Y54400000D01*
X19400000Y50000000D02*
X19000000Y49600000D01*
X19000000Y49600000D02*
X18800000Y49000000D01*
%TO.N,IMU_INT2*%
X20800000Y50900000D02*
X20200000Y48400000D01*
X17200000Y53000000D02*
X17200000Y53100000D01*
X17600000Y53200000D02*
X17300000Y53200000D01*
X27000000Y46600000D02*
X26700000Y46300000D01*
X26700000Y46300000D02*
X26400000Y46300000D01*
X17300000Y53200000D02*
X17200000Y53100000D01*
%TO.N,IO14*%
X17100000Y47400000D02*
X16700000Y47200000D01*
X19300000Y48600000D02*
X19200000Y48500000D01*
X15000000Y46500000D02*
X15000000Y45500000D01*
X17200000Y47500000D02*
X17100000Y47400000D01*
X19800000Y49600000D02*
X19700000Y49500000D01*
X20400000Y51500000D02*
X20300000Y51400000D01*
X16399999Y46900000D02*
X16200000Y46500000D01*
X19400000Y48700000D02*
X19300000Y48600000D01*
X17300000Y47600000D02*
X17200000Y47500000D01*
X19900000Y49800000D02*
X19800000Y49700000D01*
X20600000Y51700000D02*
X20500000Y51600000D01*
X19900000Y49900000D02*
X19900000Y49800000D01*
X17400000Y47700000D02*
X17300000Y47600000D01*
X20000000Y50000000D02*
X19900000Y49900000D01*
X16500000Y47000000D02*
X16399999Y46900000D01*
X20600000Y51900000D02*
X20600000Y51700000D01*
X20500000Y51600000D02*
X20400000Y51500000D01*
X19800000Y49700000D02*
X19800000Y49600000D01*
X20300000Y51400000D02*
X20000000Y50000000D01*
X19200000Y48500000D02*
X17400000Y47700000D01*
X19500000Y49300000D02*
X19500000Y48800000D01*
X19600000Y49400000D02*
X19500000Y49300000D01*
X19500000Y48800000D02*
X19400000Y48700000D01*
X19700000Y49500000D02*
X19600000Y49400000D01*
X16700000Y47200000D02*
X16600000Y47100000D01*
X16600000Y47100000D02*
X16500000Y47000000D01*
%TO.N,IO47*%
X29900000Y49700000D02*
X28800000Y48000000D01*
X28400000Y51900000D02*
X28900000Y50900000D01*
X29500000Y45500000D02*
X29400000Y45400000D01*
X29600000Y45600000D02*
X29500000Y45500000D01*
X28800000Y48000000D02*
X28800000Y47100000D01*
X28800000Y47100000D02*
X29000000Y46900000D01*
X29700000Y45700000D02*
X29600000Y45600000D01*
X18800000Y43700000D02*
X17700000Y43700000D01*
X29900000Y46100000D02*
X29700000Y45700000D01*
X29400000Y45400000D02*
X28500000Y44700000D01*
X27100000Y44700000D02*
X25900000Y43700000D01*
%TO.N,IO48*%
X30400000Y49300000D02*
X30300000Y49200000D01*
X30500000Y50300000D02*
X30500000Y49400000D01*
X20300000Y45800000D02*
X20200000Y45700000D01*
X30500000Y49400000D02*
X30400000Y49300000D01*
X30700000Y50500000D02*
X30600000Y50400000D01*
X20600000Y47000000D02*
X20300000Y45800000D01*
X30300000Y49200000D02*
X30200000Y49100000D01*
X30900000Y51900000D02*
X30700000Y50500000D01*
X20200000Y45700000D02*
X20200000Y45500000D01*
X30200000Y49100000D02*
X29400000Y47600000D01*
X30600000Y50400000D02*
X30500000Y50300000D01*
X21300000Y47800000D02*
X20600000Y47000000D01*
%TO.N,IO5*%
X17500000Y58100000D02*
X17400000Y58100000D01*
X15500000Y56600000D02*
X15400000Y56600000D01*
X17400000Y58000000D02*
X17300000Y58000000D01*
X17100000Y57900000D02*
X17000000Y57900000D01*
X17000000Y57900000D02*
X16900000Y57800000D01*
X15800000Y56900000D02*
X15700000Y56800000D01*
X16399999Y57500000D02*
X16300000Y57400000D01*
X16200000Y57300000D02*
X16100000Y57200000D01*
X17200000Y58000000D02*
X17100000Y57900000D01*
X17300000Y58000000D02*
X17200000Y58000000D01*
X16000000Y57100000D02*
X15900000Y57000000D01*
X15400000Y56600000D02*
X15100000Y56500000D01*
X16100000Y57200000D02*
X16000000Y57100000D01*
X15700000Y56800000D02*
X15600000Y56700000D01*
X16500000Y57500000D02*
X16399999Y57500000D01*
X15900000Y57000000D02*
X15800000Y56900000D01*
X15600000Y56700000D02*
X15500000Y56600000D01*
X16600000Y57600000D02*
X16500000Y57500000D01*
X16800000Y57800000D02*
X16700000Y57700000D01*
X17600000Y58200000D02*
X17500000Y58100000D01*
X8600000Y45600000D02*
X7500000Y45500000D01*
X17400000Y58100000D02*
X17400000Y58000000D01*
X16900000Y57800000D02*
X16800000Y57800000D01*
X16700000Y57700000D02*
X16600000Y57600000D01*
X16300000Y57400000D02*
X16200000Y57300000D01*
%TO.N,IO6*%
X16700000Y57100000D02*
X16600000Y57000000D01*
X16399999Y56800000D02*
X16300000Y56700000D01*
X15400000Y54700000D02*
X15300000Y54600000D01*
X16300000Y56700000D02*
X16200000Y56600000D01*
X11300000Y48400000D02*
X11200000Y48300000D01*
X12000000Y49400000D02*
X11900000Y49300000D01*
X10900000Y48000000D02*
X10900000Y47100000D01*
X11900000Y49300000D02*
X11900000Y49200000D01*
X11700000Y48800000D02*
X11600000Y48700000D01*
X11700000Y48900000D02*
X11700000Y48800000D01*
X16600000Y57000000D02*
X16500000Y56900000D01*
X11800000Y49100000D02*
X11800000Y49000000D01*
X16900000Y57200000D02*
X16800000Y57100000D01*
X11900000Y49200000D02*
X11800000Y49100000D01*
X16500000Y56900000D02*
X16399999Y56800000D01*
X16800000Y57100000D02*
X16700000Y57100000D01*
X16100000Y56500000D02*
X16000000Y56400000D01*
X11500000Y48600000D02*
X11400000Y48500000D01*
X15300000Y54500000D02*
X15200000Y54400000D01*
X16200000Y56600000D02*
X16100000Y56500000D01*
X17100000Y57400000D02*
X17000000Y57300000D01*
X15200000Y54400000D02*
X15100000Y54100000D01*
X11800000Y49000000D02*
X11700000Y48900000D01*
X15800000Y56200000D02*
X15400000Y54700000D01*
X12300000Y50300000D02*
X12000000Y49400000D01*
X11100000Y48200000D02*
X11000000Y48100000D01*
X11400000Y48500000D02*
X11300000Y48400000D01*
X11200000Y48300000D02*
X11100000Y48200000D01*
X15300000Y54600000D02*
X15300000Y54500000D01*
X11600000Y48700000D02*
X11500000Y48600000D01*
X10900000Y47100000D02*
X10300000Y45700000D01*
X15900000Y56300000D02*
X15800000Y56200000D01*
X10300000Y45700000D02*
X10100000Y45500000D01*
X17300000Y57500000D02*
X17200000Y57400000D01*
X16000000Y56400000D02*
X15900000Y56300000D01*
X11000000Y48100000D02*
X10900000Y48000000D01*
X17200000Y57400000D02*
X17100000Y57400000D01*
X17600000Y57500000D02*
X17300000Y57500000D01*
X17000000Y57300000D02*
X16900000Y57200000D01*
%TO.N,IO7*%
X11900000Y47900000D02*
X11800000Y47800000D01*
X16500000Y56200000D02*
X16399999Y56100000D01*
X17600000Y56700000D02*
X17000000Y56700000D01*
X12600000Y49300000D02*
X11900000Y47900000D01*
X11800000Y47800000D02*
X11700000Y47700000D01*
X16300000Y55500000D02*
X16200000Y55400000D01*
X16700000Y56400000D02*
X16600000Y56300000D01*
X11600000Y45600000D02*
X11700000Y45500000D01*
X16900000Y56600000D02*
X16800000Y56500000D01*
X16600000Y56300000D02*
X16500000Y56200000D01*
X16300000Y56000000D02*
X16300000Y55500000D01*
X16800000Y56500000D02*
X16700000Y56400000D01*
X11600000Y47600000D02*
X11600000Y45600000D01*
X17000000Y56700000D02*
X16900000Y56600000D01*
X11700000Y47700000D02*
X11600000Y47600000D01*
X16399999Y56100000D02*
X16300000Y56000000D01*
%TO.N,ISET*%
X14000000Y57000000D02*
X13900000Y57100000D01*
X14700000Y55900000D02*
X14700000Y56000000D01*
X14700000Y56000000D02*
X14600000Y56100000D01*
X14500000Y56200000D02*
X14100000Y56800000D01*
X14600000Y56100000D02*
X14500000Y56200000D01*
X14100000Y56900000D02*
X14000000Y57000000D01*
X14100000Y56800000D02*
X14100000Y56900000D01*
X14900000Y55900000D02*
X14700000Y55900000D01*
X14900000Y54800000D02*
X14900000Y55900000D01*
X13800000Y57200000D02*
X13000000Y57200000D01*
X14500000Y54500000D02*
X14900000Y54800000D01*
X13900000Y57100000D02*
X13800000Y57200000D01*
%TO.N,LDO_EN*%
X13200000Y64900000D02*
X13300000Y64800000D01*
X14300000Y64500000D02*
X14400000Y64400000D01*
X10900000Y63800001D02*
X11200000Y63000000D01*
X15400000Y63600000D02*
X15500000Y63500000D01*
X13400000Y64700000D02*
X14100000Y64700000D01*
X14900000Y64100000D02*
X15000000Y64000000D01*
X44000000Y65900000D02*
X44700000Y65300000D01*
X15500000Y63500000D02*
X15600000Y63400000D01*
X14100000Y64700000D02*
X14200000Y64600000D01*
X34900000Y66600000D02*
X44000000Y65900000D01*
X15100000Y63900000D02*
X15200000Y63800001D01*
X13300000Y64800000D02*
X13400000Y64700000D01*
X15300000Y63700000D02*
X15400000Y63600000D01*
X14500000Y64300000D02*
X14900000Y64100000D01*
X33500000Y66600000D02*
X34900000Y66600000D01*
X14200000Y64600000D02*
X14300000Y64500000D01*
X15200000Y63800001D02*
X15300000Y63700000D01*
X14400000Y64400000D02*
X14500000Y64300000D01*
X13000000Y64900000D02*
X13200000Y64900000D01*
X15000000Y64000000D02*
X15100000Y63900000D01*
X32900000Y65700000D02*
X33500000Y66600000D01*
%TO.N,LED1*%
X45800000Y47600000D02*
X45900000Y47700000D01*
X19100000Y52600000D02*
X19200000Y53000000D01*
X45900000Y47700000D02*
X46100000Y47800000D01*
X38400000Y47400000D02*
X45800000Y47600000D01*
X30800000Y47200000D02*
X33100000Y47400000D01*
X25700000Y50900000D02*
X25400000Y49700000D01*
%TO.N,LED1_A*%
X48447500Y49290000D02*
X46680000Y49290000D01*
X49237500Y48500000D02*
X48447500Y49290000D01*
X46680000Y49290000D02*
X46400000Y49010000D01*
%TO.N,LED2*%
X44300000Y46300000D02*
X44400000Y46200000D01*
X35600000Y48200000D02*
X36200000Y46600000D01*
X31500000Y47900000D02*
X33100000Y48200000D01*
X44100000Y46500000D02*
X44200000Y46400000D01*
X19900000Y52600000D02*
X20200000Y53000000D01*
X44400000Y46200000D02*
X46100000Y46100000D01*
X38400000Y46600000D02*
X44100000Y46500000D01*
X27400000Y51300000D02*
X28400000Y50300000D01*
X44200000Y46400000D02*
X44300000Y46300000D01*
%TO.N,LED2_A*%
X48421200Y47316300D02*
X49237500Y46500000D01*
X46400000Y47010000D02*
X46706300Y47316300D01*
X46706300Y47316300D02*
X48421200Y47316300D01*
%TO.N,LED3_A*%
X46400000Y45010000D02*
X46706300Y45316300D01*
X46706300Y45316300D02*
X48421200Y45316300D01*
X48421200Y45316300D02*
X49237500Y44500000D01*
%TO.N,PGOOD_N*%
X11900000Y60800000D02*
X11700000Y61700000D01*
X9800000Y61100000D02*
X10300000Y61100000D01*
X11900000Y60400000D02*
X11900000Y60800000D01*
X10600000Y61400000D02*
X11600000Y61400000D01*
X10300000Y61100000D02*
X10400000Y61200000D01*
X10400000Y61200000D02*
X10500000Y61300000D01*
X10500000Y61300000D02*
X10600000Y61400000D01*
X17600000Y60700000D02*
X17000000Y60500000D01*
X17000000Y60500000D02*
X16300000Y59200000D01*
%TO.N,PPS*%
X26700000Y50300000D02*
X26700000Y52200000D01*
X23100000Y18400000D02*
X23100000Y15900000D01*
X15600000Y15900000D02*
X15600000Y47000000D01*
X15600000Y47000000D02*
X14100000Y48400000D01*
X23100000Y15900000D02*
X15600000Y15900000D01*
X14100000Y48400000D02*
X14100000Y50300000D01*
%TO.N,TS*%
X42500000Y53000000D02*
X43000000Y52500000D01*
X38500000Y54100000D02*
X38600000Y54000000D01*
X22400000Y56600000D02*
X27500000Y56600000D01*
X40500000Y53800000D02*
X40600000Y53700000D01*
X37400000Y54800000D02*
X37500000Y54700000D01*
X35900000Y56000000D02*
X36000000Y55900000D01*
X14400000Y57300000D02*
X14500000Y57200000D01*
X36500000Y55400000D02*
X36600000Y55300000D01*
X40300000Y54000000D02*
X40400000Y53900000D01*
X40400000Y53900000D02*
X40500000Y53800000D01*
X36100000Y55800000D02*
X36500000Y55400000D01*
X13800000Y57900000D02*
X14100000Y57600000D01*
X37500000Y54700000D02*
X38300000Y54200000D01*
X37300000Y54900000D02*
X37400000Y54800000D01*
X40700000Y53600000D02*
X41000000Y53300000D01*
X38400000Y54100000D02*
X38500000Y54100000D01*
X36600000Y55300000D02*
X36700000Y55200000D01*
X36800000Y55100000D02*
X37200000Y55000000D01*
X36700000Y55200000D02*
X36800000Y55100000D01*
X14200000Y57500000D02*
X14300000Y57400000D01*
X41000000Y53300000D02*
X42500000Y53000000D01*
X36000000Y55900000D02*
X36100000Y55800000D01*
X27600000Y56700000D02*
X27600000Y61800000D01*
X38300000Y54200000D02*
X38400000Y54100000D01*
X14500000Y57200000D02*
X14800000Y57200000D01*
X14300000Y57400000D02*
X14400000Y57300000D01*
X35800000Y56100000D02*
X35900000Y56000000D01*
X14100000Y57600000D02*
X14200000Y57500000D01*
X38600000Y54000000D02*
X40300000Y54000000D01*
X27500000Y56600000D02*
X27600000Y56700000D01*
X40600000Y53700000D02*
X40700000Y53600000D01*
X37200000Y55000000D02*
X37300000Y54900000D01*
X32900000Y59200000D02*
X35800000Y56100000D01*
%TO.N,U0RXD*%
X32715500Y60900000D02*
X32676699Y60900000D01*
X32715500Y62481100D02*
X32880699Y62646300D01*
X32715500Y60900000D02*
X32715500Y62481100D01*
X32000000Y60900000D02*
X32676699Y60900000D01*
%TO.N,U0TXD*%
X31600000Y60100000D02*
X31200000Y60200000D01*
%TO.N,USB_DN*%
X18500000Y50000000D02*
X18700000Y50200000D01*
X24800000Y52600000D02*
X24700000Y53000000D01*
X18700000Y50200000D02*
X18800000Y50900000D01*
X17200000Y51100000D02*
X16500000Y52900000D01*
X16500000Y52900000D02*
X16500000Y53000000D01*
X18300000Y49900000D02*
X18500000Y50000000D01*
X16900000Y53700000D02*
X16100000Y53700000D01*
X16500000Y53000000D02*
X16100000Y53300000D01*
%TO.N,USB_DN_C*%
X13300000Y54300000D02*
X13500000Y54000000D01*
X6600000Y52700000D02*
X6600000Y51700000D01*
X13500000Y54000000D02*
X13500000Y53900000D01*
X6600000Y51700000D02*
X7200000Y51700000D01*
X7200000Y52700000D02*
X6600000Y52700000D01*
X12100000Y53300000D02*
X12100000Y53700000D01*
X8400000Y52700000D02*
X11300000Y52700000D01*
X14800000Y52700000D02*
X15200000Y52700000D01*
X15200000Y52700000D02*
X15500000Y52600000D01*
X13600000Y53700000D02*
X13600000Y53300000D01*
X13500000Y53900000D02*
X13500000Y53800000D01*
X13500000Y53800000D02*
X13600000Y53700000D01*
%TO.N,USB_DP*%
X25500000Y51500000D02*
X25400000Y51500000D01*
X20700000Y48000000D02*
X20600000Y47900000D01*
X25700000Y51900000D02*
X25600000Y51600000D01*
X20600000Y47900000D02*
X20500000Y47800000D01*
X25200000Y51400000D02*
X24500000Y50400000D01*
X25600000Y51600000D02*
X25500000Y51500000D01*
X20800000Y48300000D02*
X20800000Y48200000D01*
X24500000Y50400000D02*
X24300000Y49700000D01*
X16100000Y51300000D02*
X16500000Y51000000D01*
X16600000Y48200000D02*
X16600000Y48400000D01*
X16700000Y48000000D02*
X16600000Y48200000D01*
X20500000Y47800000D02*
X17700000Y47100000D01*
X16500000Y50000000D02*
X16399999Y49000000D01*
X25300000Y51400000D02*
X25200000Y51400000D01*
X25400000Y51500000D02*
X25400000Y51400000D01*
X20800000Y48200000D02*
X20800000Y48100000D01*
X16500000Y51000000D02*
X16500000Y50000000D01*
X20800000Y48100000D02*
X20700000Y48000000D01*
X21200000Y49700000D02*
X20800000Y48300000D01*
X25400000Y51400000D02*
X25300000Y51400000D01*
%TO.N,USB_DP_C*%
X12900000Y50600000D02*
X12900000Y50500000D01*
X8900000Y52200000D02*
X8900000Y51200000D01*
X8900000Y51200000D02*
X11300000Y51100000D01*
X12800000Y50700000D02*
X12900000Y50600000D01*
X12500000Y50900000D02*
X12600000Y50900000D01*
X8199999Y52200000D02*
X8900000Y52200000D01*
X14800000Y50900000D02*
X15500000Y50600000D01*
X12900000Y50500000D02*
X13100000Y50500000D01*
X12700000Y50800000D02*
X12800000Y50700000D01*
X13100000Y50500000D02*
X13500000Y50900000D01*
X12600000Y50900000D02*
X12700000Y50800000D01*
X8900000Y51200000D02*
X8199999Y51200000D01*
%TO.N,VBAT*%
D51*
X35400000Y65900000D02*
X35500000Y65800000D01*
X40100000Y62500000D02*
X45800000Y53600000D01*
X35500000Y65800000D02*
X40100000Y63900000D01*
D52*
X14200000Y59400000D02*
X14200000Y60900000D01*
X8700000Y64000000D02*
X7700000Y64900000D01*
X45800000Y52400000D02*
X44000000Y49800000D01*
X42800000Y50200000D02*
X42800000Y50500000D01*
X9000000Y63700000D02*
X8900000Y63800001D01*
X8800000Y63900000D02*
X8700000Y64000000D01*
X14900000Y61000000D02*
X15100000Y61200000D01*
X8900000Y63800001D02*
X8800000Y63900000D01*
X15100000Y61200000D02*
X15100000Y63000000D01*
X13800000Y58600000D02*
X14600000Y58600000D01*
X15000000Y63100000D02*
X14800000Y63300000D01*
X14200000Y60900000D02*
X14300000Y61000000D01*
X10900000Y62300000D02*
X9000000Y63700000D01*
X14600000Y58700000D02*
X14200000Y59400000D01*
X15100000Y63000000D02*
X15000000Y63100000D01*
X14300000Y61000000D02*
X14900000Y61000000D01*
X7700000Y64900000D02*
X6500000Y64900000D01*
X44000000Y49800000D02*
X42800000Y50200000D01*
X13700000Y58600000D02*
X13700000Y58900000D01*
X42500000Y51100000D02*
X41600000Y52200000D01*
%TO.N,VBAT_SENSE*%
D53*
X5200000Y63800001D02*
X5500000Y65900000D01*
X17600000Y61600000D02*
X17200000Y61400000D01*
X5500000Y65900000D02*
X5900000Y66000000D01*
X10200000Y61900000D02*
X8500000Y62600000D01*
X5900000Y63100000D02*
X5200000Y63800001D01*
X8500000Y62600000D02*
X7700000Y62800000D01*
X7100000Y63100000D02*
X6500000Y63100000D01*
%TO.N,VBCKP*%
X21900000Y44890000D02*
X21900000Y51250000D01*
X20850000Y43450000D02*
X21100000Y43700000D01*
X21100000Y43900000D02*
X21100000Y44000000D01*
X21200000Y44200000D02*
X21200000Y44300000D01*
X16100000Y25000000D02*
X16100000Y42600000D01*
X20820000Y42600000D02*
X20820000Y43450000D01*
X16100000Y42600000D02*
X20820000Y42600000D01*
X21100000Y44000000D02*
X21200000Y44100000D01*
X18400000Y25000000D02*
X16100000Y25000000D01*
X21200000Y44890000D02*
X21900000Y44890000D01*
X21200000Y44300000D02*
X21200000Y44400000D01*
X21200000Y44890000D02*
X21200000Y44700000D01*
X21200000Y44400000D02*
X21200000Y44500000D01*
X21100000Y43700000D02*
X21100000Y43800000D01*
X21200000Y44600000D02*
X21200000Y44700000D01*
X21200000Y44100000D02*
X21200000Y44200000D01*
X21100000Y43800000D02*
X21100000Y43900000D01*
X20820000Y43450000D02*
X20850000Y43450000D01*
X21200000Y44500000D02*
X21200000Y44600000D01*
%TO.N,VBCKP_SRC*%
X30600000Y47900000D02*
X29900000Y47000000D01*
X29600000Y46700000D02*
X29100000Y46000000D01*
X21200000Y46600000D02*
X21200000Y46100000D01*
X30900000Y48200000D02*
X30800000Y48100000D01*
X38800000Y49700000D02*
X38400000Y49700000D01*
X33100000Y49700000D02*
X30900000Y48200000D01*
X38900000Y51200000D02*
X38900000Y50300000D01*
X29700000Y46800000D02*
X29600000Y46700000D01*
X30700000Y48000000D02*
X30600000Y47900000D01*
X30800000Y48100000D02*
X30700000Y48000000D01*
X29900000Y47000000D02*
X29800000Y46900000D01*
X29800000Y46900000D02*
X29700000Y46800000D01*
%TO.N,VBUS*%
D52*
X12700000Y54000000D02*
X13000000Y53700000D01*
X12600000Y54100000D02*
X12700000Y54000000D01*
X11200000Y56000000D02*
X11200000Y56200000D01*
X13300000Y52300000D02*
X13500000Y52300000D01*
X11200000Y56200000D02*
X11300000Y57100000D01*
X11700000Y55200000D02*
X12400000Y54300000D01*
X10900000Y55200000D02*
X10500000Y54700000D01*
X8400000Y54300000D02*
X9400000Y54600000D01*
D54*
X8300000Y49550000D02*
X8800000Y49550000D01*
D52*
X13100000Y52500000D02*
X13300000Y52300000D01*
X13000000Y53700000D02*
X13100000Y53600000D01*
X12400000Y54300000D02*
X12500000Y54200000D01*
X13100000Y53600000D02*
X13100000Y52500000D01*
X12500000Y54200000D02*
X12600000Y54100000D01*
D51*
X9400000Y54600000D02*
X10500000Y54700000D01*
D54*
X8800000Y49550000D02*
X9100000Y48800000D01*
%TO.N,VSYS*%
D52*
X10500000Y59000000D02*
X10200000Y59000000D01*
X9200000Y60500000D02*
X9100000Y61600000D01*
X10500000Y60600000D02*
X10300000Y60600000D01*
X40800000Y63300000D02*
X41900000Y63900000D01*
X43800000Y45900000D02*
X44100000Y44000000D01*
X10300000Y60600000D02*
X10200000Y60500000D01*
X10500000Y58900000D02*
X10500000Y58600000D01*
X43900000Y48900000D02*
X43800000Y48700000D01*
X10200000Y60500000D02*
X9200000Y60500000D01*
X35800000Y62800000D02*
X40800000Y63300000D01*
X9900000Y65900000D02*
X9300000Y65900000D01*
X43500000Y63900000D02*
X44900000Y59400000D01*
X12400000Y60700000D02*
X12400000Y60400000D01*
X9300000Y64300000D02*
X9200000Y64400000D01*
X44100000Y44000000D02*
X44200000Y43900000D01*
X44900000Y59400000D02*
X45100000Y59000000D01*
X45100000Y59000000D02*
X48100000Y55200000D01*
X10100000Y59700000D02*
X10100000Y59100000D01*
X44200000Y43900000D02*
X46100000Y43900000D01*
X8300000Y59900000D02*
X8300000Y59500000D01*
X9200000Y64800000D02*
X9200000Y65700000D01*
X9200000Y64400000D02*
X9200000Y64800000D01*
X12500000Y60900000D02*
X12400000Y60700000D01*
X9900000Y59900000D02*
X10100000Y59700000D01*
X10900000Y60800000D02*
X10500000Y60600000D01*
X47900000Y51900000D02*
X43900000Y48900000D01*
X9200000Y60500000D02*
X9100000Y60500000D01*
X48100000Y55200000D02*
X47900000Y51900000D01*
X9900000Y60500000D02*
X9900000Y59900000D01*
X10200000Y59000000D02*
X10100000Y59100000D01*
%TD*%
%TA.AperFunction,Conductor*%
%TO.N,GND*%
G36*
X15841536Y66881094D02*
G01*
X15877500Y66831594D01*
X15877500Y66770408D01*
X15841536Y66720908D01*
X15817947Y66708246D01*
X15734459Y66677106D01*
X15719771Y66671627D01*
X15610315Y66589689D01*
X15610311Y66589685D01*
X15528373Y66480229D01*
X15480587Y66352113D01*
X15474500Y66295482D01*
X15474500Y66023322D01*
X15455593Y65965131D01*
X15445508Y65953324D01*
X15292686Y65800500D01*
X15292685Y65800501D01*
X15199500Y65707315D01*
X15199496Y65707310D01*
X15133609Y65593191D01*
X15129471Y65577746D01*
X15106814Y65493186D01*
X15105368Y65487791D01*
X15072044Y65436477D01*
X15014922Y65414550D01*
X14960240Y65427678D01*
X14944137Y65436975D01*
X14893186Y65466392D01*
X14765892Y65500500D01*
X14634108Y65500500D01*
X14556200Y65479625D01*
X14506809Y65466391D01*
X14392690Y65400504D01*
X14392684Y65400499D01*
X14355049Y65362864D01*
X14300532Y65335087D01*
X14240100Y65344659D01*
X14196836Y65387924D01*
X14189420Y65407240D01*
X14166392Y65493186D01*
X14166390Y65493189D01*
X14166390Y65493191D01*
X14100503Y65607310D01*
X14100501Y65607312D01*
X14100500Y65607314D01*
X14007314Y65700500D01*
X14007311Y65700502D01*
X14007309Y65700504D01*
X13909712Y65756852D01*
X13870665Y65798312D01*
X13813749Y65912145D01*
X13813747Y65912147D01*
X13810951Y65917740D01*
X13800500Y65962014D01*
X13800500Y66244884D01*
X13800499Y66244887D01*
X13800444Y66245359D01*
X13797585Y66270007D01*
X13752209Y66372774D01*
X13672774Y66452209D01*
X13570007Y66497585D01*
X13570006Y66497586D01*
X13570004Y66497586D01*
X13544886Y66500500D01*
X13544882Y66500500D01*
X12455118Y66500500D01*
X12455113Y66500500D01*
X12429995Y66497586D01*
X12327226Y66452209D01*
X12247791Y66372774D01*
X12202414Y66270005D01*
X12199500Y66244887D01*
X12199500Y65655114D01*
X12202414Y65629996D01*
X12202414Y65629994D01*
X12202415Y65629993D01*
X12247791Y65527226D01*
X12327226Y65447791D01*
X12429993Y65402415D01*
X12455116Y65399501D01*
X12455117Y65399500D01*
X12455118Y65399500D01*
X12552679Y65399500D01*
X12610870Y65380593D01*
X12646834Y65331093D01*
X12646834Y65269907D01*
X12622684Y65230499D01*
X12604363Y65212177D01*
X12599497Y65207311D01*
X12599496Y65207310D01*
X12533609Y65093191D01*
X12523347Y65054891D01*
X12499500Y64965892D01*
X12499500Y64834108D01*
X12511724Y64788484D01*
X12529194Y64723286D01*
X12525991Y64662185D01*
X12487486Y64614635D01*
X12444978Y64599324D01*
X12429995Y64597586D01*
X12327226Y64552209D01*
X12247791Y64472774D01*
X12202414Y64370005D01*
X12199500Y64344887D01*
X12199500Y63755114D01*
X12202414Y63729996D01*
X12202414Y63729994D01*
X12202415Y63729993D01*
X12247791Y63627226D01*
X12327226Y63547791D01*
X12429993Y63502415D01*
X12455116Y63499501D01*
X12455117Y63499500D01*
X12455118Y63499500D01*
X13544883Y63499500D01*
X13544883Y63499501D01*
X13570007Y63502415D01*
X13672774Y63547791D01*
X13752209Y63627226D01*
X13797585Y63729993D01*
X13800500Y63755118D01*
X13800500Y64250500D01*
X13819407Y64308691D01*
X13868907Y64344655D01*
X13899500Y64349500D01*
X13913811Y64349500D01*
X13972002Y64330593D01*
X13983813Y64320505D01*
X14013883Y64290436D01*
X14013887Y64290431D01*
X14019529Y64284789D01*
X14019530Y64284788D01*
X14068323Y64235995D01*
X14113883Y64190436D01*
X14113887Y64190431D01*
X14219974Y64084343D01*
X14232582Y64068895D01*
X14232928Y64068371D01*
X14232932Y64068366D01*
X14257371Y64046695D01*
X14261690Y64042628D01*
X14275580Y64028739D01*
X14284788Y64019531D01*
X14285329Y64019219D01*
X14301509Y64007556D01*
X14301979Y64007139D01*
X14320070Y63998094D01*
X14331198Y63992530D01*
X14336428Y63989716D01*
X14364705Y63973389D01*
X14364709Y63973388D01*
X14364712Y63973386D01*
X14365309Y63973226D01*
X14383960Y63966149D01*
X14524231Y63896014D01*
X14567822Y63853081D01*
X14577852Y63792723D01*
X14550489Y63737997D01*
X14529458Y63721731D01*
X14492687Y63700501D01*
X14399496Y63607310D01*
X14333609Y63493191D01*
X14325194Y63461786D01*
X14299500Y63365892D01*
X14299500Y63234108D01*
X14324958Y63139095D01*
X14333609Y63106810D01*
X14399496Y62992691D01*
X14399498Y62992689D01*
X14399500Y62992686D01*
X14492686Y62899500D01*
X14606814Y62833608D01*
X14651124Y62821736D01*
X14702437Y62788414D01*
X14724364Y62731293D01*
X14724500Y62726110D01*
X14724500Y61474500D01*
X14705593Y61416309D01*
X14656093Y61380345D01*
X14625500Y61375500D01*
X14349436Y61375500D01*
X14250564Y61375500D01*
X14209199Y61364416D01*
X14209198Y61364417D01*
X14155062Y61349911D01*
X14155058Y61349909D01*
X14069436Y61300475D01*
X14069437Y61300474D01*
X14008392Y61239429D01*
X13953875Y61211652D01*
X13893443Y61221223D01*
X13868387Y61239427D01*
X13807314Y61300500D01*
X13807311Y61300502D01*
X13807309Y61300504D01*
X13693189Y61366391D01*
X13693185Y61366393D01*
X13680551Y61369778D01*
X13629237Y61403102D01*
X13622223Y61412934D01*
X13619578Y61417166D01*
X13442810Y61699995D01*
X13428004Y61759360D01*
X13428798Y61766740D01*
X13430500Y61778418D01*
X13430500Y62221582D01*
X13419582Y62296518D01*
X13363076Y62412102D01*
X13272102Y62503076D01*
X13156518Y62559582D01*
X13081582Y62570500D01*
X12738418Y62570500D01*
X12667319Y62560141D01*
X12663482Y62559582D01*
X12547899Y62503077D01*
X12547898Y62503077D01*
X12547898Y62503076D01*
X12470001Y62425180D01*
X12415487Y62397404D01*
X12355055Y62406975D01*
X12329999Y62425179D01*
X12252102Y62503076D01*
X12136518Y62559582D01*
X12061582Y62570500D01*
X11718418Y62570500D01*
X11718415Y62570500D01*
X11714792Y62569972D01*
X11654484Y62580297D01*
X11611763Y62624099D01*
X11602947Y62684646D01*
X11614789Y62717437D01*
X11666392Y62806814D01*
X11700500Y62934108D01*
X11700500Y63065892D01*
X11666392Y63193186D01*
X11666390Y63193189D01*
X11666390Y63193191D01*
X11600503Y63307310D01*
X11600501Y63307312D01*
X11600500Y63307314D01*
X11507314Y63400500D01*
X11507311Y63400502D01*
X11431899Y63444042D01*
X11390959Y63489512D01*
X11388703Y63495017D01*
X11387022Y63499500D01*
X11211981Y63966276D01*
X11211979Y63966278D01*
X11209702Y63972352D01*
X11210471Y63972641D01*
X11200500Y64012553D01*
X11200500Y64344884D01*
X11200499Y64344887D01*
X11200198Y64347478D01*
X11197585Y64370007D01*
X11152209Y64472774D01*
X11072774Y64552209D01*
X10970007Y64597585D01*
X10970006Y64597586D01*
X10970004Y64597586D01*
X10944886Y64600500D01*
X10944882Y64600500D01*
X9855118Y64600500D01*
X9855113Y64600500D01*
X9829995Y64597586D01*
X9829992Y64597585D01*
X9808947Y64588293D01*
X9748077Y64582087D01*
X9698960Y64608854D01*
X9607314Y64700500D01*
X9607311Y64700502D01*
X9604496Y64703317D01*
X9576719Y64757834D01*
X9575500Y64773321D01*
X9575500Y65363910D01*
X9594407Y65422101D01*
X9643907Y65458065D01*
X9705093Y65458065D01*
X9718762Y65451336D01*
X9718834Y65451497D01*
X9727224Y65447793D01*
X9727226Y65447791D01*
X9829993Y65402415D01*
X9855116Y65399501D01*
X9855117Y65399500D01*
X9855118Y65399500D01*
X10944883Y65399500D01*
X10944883Y65399501D01*
X10970007Y65402415D01*
X11072774Y65447791D01*
X11152209Y65527226D01*
X11197585Y65629993D01*
X11200500Y65655118D01*
X11200500Y66244882D01*
X11197585Y66270007D01*
X11152209Y66372774D01*
X11072774Y66452209D01*
X10970007Y66497585D01*
X10970006Y66497586D01*
X10970004Y66497586D01*
X10944886Y66500500D01*
X10944882Y66500500D01*
X9855118Y66500500D01*
X9855113Y66500500D01*
X9829995Y66497586D01*
X9727226Y66452209D01*
X9647788Y66372771D01*
X9642674Y66365305D01*
X9594188Y66327984D01*
X9533026Y66326291D01*
X9490997Y66351252D01*
X9489860Y66352389D01*
X9489859Y66352391D01*
X9402391Y66439859D01*
X9292175Y66496017D01*
X9292176Y66496017D01*
X9200736Y66510500D01*
X8859262Y66510500D01*
X8767825Y66496017D01*
X8767821Y66496016D01*
X8657610Y66439860D01*
X8570140Y66352390D01*
X8513983Y66242177D01*
X8499500Y66150737D01*
X8499500Y65749263D01*
X8513983Y65657826D01*
X8513984Y65657822D01*
X8551337Y65584513D01*
X8570141Y65547609D01*
X8657609Y65460141D01*
X8767825Y65403983D01*
X8767827Y65403983D01*
X8770445Y65402649D01*
X8813710Y65359384D01*
X8824500Y65314439D01*
X8824500Y64615425D01*
X8805593Y64557234D01*
X8756093Y64521270D01*
X8694907Y64521270D01*
X8659273Y64541839D01*
X7960480Y65170752D01*
X7956705Y65174333D01*
X7930560Y65200477D01*
X7929396Y65201370D01*
X7915683Y65211332D01*
X7914455Y65212176D01*
X7881509Y65228954D01*
X7876937Y65231436D01*
X7844939Y65249910D01*
X7843536Y65250491D01*
X7827798Y65256531D01*
X7826350Y65257043D01*
X7826346Y65257044D01*
X7790204Y65264718D01*
X7785145Y65265932D01*
X7761642Y65272229D01*
X7749435Y65275500D01*
X7749434Y65275500D01*
X7747919Y65275700D01*
X7731191Y65277457D01*
X7729633Y65277579D01*
X7729632Y65277579D01*
X7729630Y65277579D01*
X7692730Y65275637D01*
X7687527Y65275500D01*
X6851210Y65275500D01*
X6793019Y65294407D01*
X6762269Y65331020D01*
X6759582Y65336516D01*
X6759582Y65336518D01*
X6703076Y65452102D01*
X6625179Y65529999D01*
X6597404Y65584513D01*
X6606975Y65644945D01*
X6625178Y65670001D01*
X6703076Y65747898D01*
X6759582Y65863482D01*
X6770500Y65938418D01*
X6770500Y66281582D01*
X6759582Y66356518D01*
X6703076Y66472102D01*
X6612102Y66563076D01*
X6496518Y66619582D01*
X6421582Y66630500D01*
X5978418Y66630500D01*
X5903482Y66619582D01*
X5787899Y66563077D01*
X5696924Y66472102D01*
X5640416Y66356515D01*
X5638148Y66349172D01*
X5635981Y66349842D01*
X5613784Y66304926D01*
X5566940Y66278023D01*
X5442300Y66246863D01*
X5430134Y66244618D01*
X5412261Y66242465D01*
X5412257Y66242463D01*
X5397992Y66236738D01*
X5385140Y66232573D01*
X5370224Y66228843D01*
X5370222Y66228842D01*
X5354483Y66220105D01*
X5343317Y66214790D01*
X5326615Y66208085D01*
X5326613Y66208085D01*
X5314322Y66198867D01*
X5302985Y66191518D01*
X5289538Y66184053D01*
X5289536Y66184051D01*
X5276592Y66171536D01*
X5267182Y66163512D01*
X5252786Y66152715D01*
X5252783Y66152712D01*
X5243292Y66140621D01*
X5234242Y66130586D01*
X5223189Y66119899D01*
X5213934Y66104472D01*
X5206919Y66094282D01*
X5195802Y66080120D01*
X5195800Y66080117D01*
X5189761Y66065979D01*
X5183617Y66053945D01*
X5175710Y66040766D01*
X5175707Y66040758D01*
X5170761Y66023469D01*
X5166624Y66011818D01*
X5159549Y65995254D01*
X5159547Y65995246D01*
X5157372Y65980025D01*
X5154552Y65966809D01*
X5150325Y65952032D01*
X5150022Y65934040D01*
X5149041Y65921709D01*
X4856837Y63876271D01*
X4854461Y63864659D01*
X4849501Y63846145D01*
X4849501Y63846143D01*
X4849501Y63831954D01*
X4848506Y63817953D01*
X4846496Y63803891D01*
X4848790Y63784858D01*
X4849501Y63773016D01*
X4849501Y63753857D01*
X4853175Y63740144D01*
X4855836Y63726370D01*
X4857536Y63712262D01*
X4864675Y63694475D01*
X4868425Y63683225D01*
X4873385Y63664715D01*
X4873386Y63664711D01*
X4880486Y63652414D01*
X4886623Y63639796D01*
X4891913Y63626617D01*
X4891917Y63626610D01*
X4903410Y63611286D01*
X4909945Y63601390D01*
X4919530Y63584789D01*
X4929583Y63574736D01*
X4938766Y63564147D01*
X4947287Y63552786D01*
X4962353Y63540960D01*
X4971230Y63533089D01*
X5600504Y62903815D01*
X5628281Y62849298D01*
X5629500Y62833811D01*
X5629500Y62818418D01*
X5640418Y62743482D01*
X5696924Y62627898D01*
X5787898Y62536924D01*
X5903482Y62480418D01*
X5978418Y62469500D01*
X5978421Y62469500D01*
X6421578Y62469500D01*
X6421582Y62469500D01*
X6496518Y62480418D01*
X6612102Y62536924D01*
X6703076Y62627898D01*
X6722277Y62667175D01*
X6764819Y62711147D01*
X6825085Y62721717D01*
X6880053Y62694845D01*
X6899424Y62668642D01*
X6910141Y62647609D01*
X6997609Y62560141D01*
X7107825Y62503983D01*
X7199265Y62489500D01*
X7511543Y62489501D01*
X7559592Y62477059D01*
X7570222Y62471158D01*
X7570224Y62471158D01*
X7570225Y62471157D01*
X8383188Y62267917D01*
X8396860Y62263420D01*
X8726156Y62127827D01*
X8772765Y62088188D01*
X8787173Y62028723D01*
X8763876Y61972146D01*
X8758466Y61966281D01*
X8699500Y61907315D01*
X8699496Y61907310D01*
X8633609Y61793191D01*
X8633608Y61793186D01*
X8599500Y61665892D01*
X8599500Y61534108D01*
X8623996Y61442686D01*
X8633609Y61406810D01*
X8699496Y61292691D01*
X8699498Y61292689D01*
X8699500Y61292686D01*
X8730684Y61261502D01*
X8758460Y61206987D01*
X8759272Y61200463D01*
X8782855Y60941048D01*
X8769294Y60881384D01*
X8754267Y60862083D01*
X8699499Y60807314D01*
X8633609Y60693191D01*
X8620679Y60644934D01*
X8606680Y60592686D01*
X8599500Y60565891D01*
X8599500Y60466925D01*
X8580593Y60408734D01*
X8531093Y60372770D01*
X8474878Y60371298D01*
X8393188Y60393186D01*
X8365892Y60400500D01*
X8234108Y60400500D01*
X8156496Y60379704D01*
X8106809Y60366391D01*
X7992690Y60300504D01*
X7899496Y60207310D01*
X7833609Y60093191D01*
X7799500Y59965891D01*
X7799500Y59899500D01*
X7780593Y59841309D01*
X7731093Y59805345D01*
X7700500Y59800500D01*
X7277133Y59800500D01*
X7277129Y59800500D01*
X7277128Y59800499D01*
X7269949Y59799728D01*
X7217519Y59794092D01*
X7217514Y59794091D01*
X7082670Y59743798D01*
X6967458Y59657550D01*
X6967450Y59657542D01*
X6881202Y59542330D01*
X6830910Y59407489D01*
X6830908Y59407478D01*
X6827454Y59375345D01*
X6824611Y59348900D01*
X6824500Y59347871D01*
X6824500Y58752134D01*
X6824501Y58752130D01*
X6830908Y58692520D01*
X6830909Y58692515D01*
X6881202Y58557671D01*
X6962304Y58449333D01*
X6967454Y58442454D01*
X6967457Y58442452D01*
X6967458Y58442451D01*
X7082670Y58356203D01*
X7217511Y58305911D01*
X7217512Y58305911D01*
X7217517Y58305909D01*
X7277127Y58299500D01*
X8322872Y58299501D01*
X8382483Y58305909D01*
X8451453Y58331633D01*
X8517329Y58356203D01*
X8517329Y58356204D01*
X8517331Y58356204D01*
X8632546Y58442454D01*
X8658366Y58476946D01*
X8708372Y58512198D01*
X8769551Y58511324D01*
X8818533Y58474658D01*
X8836608Y58416203D01*
X8835584Y58403345D01*
X8830669Y58369606D01*
X8829500Y58361582D01*
X8829500Y58018418D01*
X8840418Y57943482D01*
X8896924Y57827898D01*
X8987898Y57736924D01*
X9103482Y57680418D01*
X9178418Y57669500D01*
X9178421Y57669500D01*
X9621578Y57669500D01*
X9621582Y57669500D01*
X9696518Y57680418D01*
X9696526Y57680423D01*
X9700217Y57681562D01*
X9703994Y57681508D01*
X9704127Y57681527D01*
X9704130Y57681506D01*
X9761396Y57680682D01*
X9810374Y57644009D01*
X9828442Y57585553D01*
X9825079Y57561357D01*
X9803406Y57480470D01*
X9799500Y57465891D01*
X9799500Y57334106D01*
X9807837Y57302990D01*
X9804634Y57241888D01*
X9798166Y57228251D01*
X8993418Y55819941D01*
X8948131Y55778798D01*
X8933088Y55773433D01*
X8906813Y55766393D01*
X8906810Y55766391D01*
X8792690Y55700504D01*
X8699496Y55607310D01*
X8633609Y55493191D01*
X8623837Y55456720D01*
X8599500Y55365892D01*
X8599500Y55234108D01*
X8616821Y55169466D01*
X8633609Y55106810D01*
X8699496Y54992691D01*
X8699498Y54992689D01*
X8699500Y54992686D01*
X8744455Y54947731D01*
X8772231Y54893216D01*
X8762660Y54832784D01*
X8719395Y54789519D01*
X8702896Y54782904D01*
X8683065Y54776955D01*
X8621896Y54778345D01*
X8584617Y54801775D01*
X8508342Y54878050D01*
X8395304Y54935646D01*
X8395305Y54935646D01*
X8301521Y54950500D01*
X7088478Y54950500D01*
X7088476Y54950499D01*
X6994700Y54935648D01*
X6994694Y54935646D01*
X6950066Y54912907D01*
X6889634Y54903336D01*
X6835118Y54931114D01*
X6809496Y54975493D01*
X6786281Y55062135D01*
X6786278Y55062140D01*
X6710518Y55193361D01*
X6710516Y55193363D01*
X6710515Y55193365D01*
X6603365Y55300515D01*
X6603362Y55300517D01*
X6603360Y55300519D01*
X6472138Y55376280D01*
X6472140Y55376280D01*
X6409275Y55393124D01*
X6325766Y55415500D01*
X6174234Y55415500D01*
X6090725Y55393124D01*
X6027860Y55376280D01*
X5896639Y55300519D01*
X5789481Y55193361D01*
X5713720Y55062140D01*
X5708338Y55042052D01*
X5674500Y54915766D01*
X5674500Y54764234D01*
X5704502Y54652264D01*
X5713720Y54617861D01*
X5789481Y54486640D01*
X5789483Y54486638D01*
X5789485Y54486635D01*
X5896635Y54379485D01*
X5896637Y54379484D01*
X5896639Y54379482D01*
X6027861Y54303721D01*
X6027859Y54303721D01*
X6027863Y54303720D01*
X6027865Y54303719D01*
X6174234Y54264500D01*
X6174236Y54264500D01*
X6325764Y54264500D01*
X6325766Y54264500D01*
X6472135Y54303719D01*
X6571000Y54360800D01*
X6630848Y54373521D01*
X6686743Y54348635D01*
X6717336Y54295647D01*
X6719500Y54275065D01*
X6719500Y54218480D01*
X6719501Y54218477D01*
X6734352Y54124701D01*
X6734354Y54124693D01*
X6772250Y54050320D01*
X6781822Y53989888D01*
X6773766Y53963537D01*
X6725741Y53860546D01*
X6719500Y53813138D01*
X6719500Y53586867D01*
X6719501Y53586855D01*
X6725740Y53539459D01*
X6725741Y53539453D01*
X6747944Y53491838D01*
X6755400Y53431109D01*
X6747944Y53408162D01*
X6725743Y53360552D01*
X6725741Y53360547D01*
X6725741Y53360545D01*
X6719500Y53313139D01*
X6719500Y53216374D01*
X6719501Y53149501D01*
X6700594Y53091310D01*
X6651094Y53055346D01*
X6620501Y53050500D01*
X6553856Y53050500D01*
X6464712Y53026614D01*
X6464711Y53026614D01*
X6464709Y53026613D01*
X6384790Y52980471D01*
X6319529Y52915210D01*
X6273387Y52835291D01*
X6273386Y52835289D01*
X6273386Y52835288D01*
X6249500Y52746144D01*
X6249500Y51653856D01*
X6273237Y51565268D01*
X6273387Y51564710D01*
X6317479Y51488341D01*
X6319531Y51484788D01*
X6384788Y51419531D01*
X6464712Y51373386D01*
X6553856Y51349500D01*
X6620500Y51349500D01*
X6678691Y51330593D01*
X6714655Y51281093D01*
X6719500Y51250501D01*
X6719500Y51086867D01*
X6719501Y51086855D01*
X6725740Y51039459D01*
X6725741Y51039453D01*
X6747944Y50991838D01*
X6755400Y50931109D01*
X6747944Y50908162D01*
X6725743Y50860552D01*
X6725741Y50860547D01*
X6725741Y50860545D01*
X6719586Y50813788D01*
X6719500Y50813138D01*
X6719500Y50586867D01*
X6719501Y50586855D01*
X6725740Y50539459D01*
X6725741Y50539453D01*
X6747944Y50491838D01*
X6755400Y50431109D01*
X6747944Y50408162D01*
X6725743Y50360552D01*
X6725741Y50360547D01*
X6725741Y50360545D01*
X6719676Y50314472D01*
X6719500Y50313138D01*
X6719500Y50086867D01*
X6719501Y50086855D01*
X6725740Y50039458D01*
X6725740Y50039457D01*
X6725741Y50039455D01*
X6759220Y49967658D01*
X6773766Y49936465D01*
X6781222Y49875736D01*
X6772251Y49849681D01*
X6734354Y49775304D01*
X6719500Y49681522D01*
X6719500Y49624938D01*
X6700593Y49566747D01*
X6651093Y49530783D01*
X6589907Y49530783D01*
X6571000Y49539202D01*
X6472138Y49596280D01*
X6472140Y49596280D01*
X6396250Y49616614D01*
X6325766Y49635500D01*
X6174234Y49635500D01*
X6103750Y49616614D01*
X6027860Y49596280D01*
X5896639Y49520519D01*
X5789481Y49413361D01*
X5713720Y49282140D01*
X5696046Y49216177D01*
X5674500Y49135766D01*
X5674500Y48984234D01*
X5697204Y48899500D01*
X5713720Y48837861D01*
X5789481Y48706640D01*
X5789483Y48706638D01*
X5789485Y48706635D01*
X5896635Y48599485D01*
X5896637Y48599484D01*
X5896639Y48599482D01*
X6027861Y48523721D01*
X6027859Y48523721D01*
X6027863Y48523720D01*
X6027865Y48523719D01*
X6174234Y48484500D01*
X6174236Y48484500D01*
X6325764Y48484500D01*
X6325766Y48484500D01*
X6472135Y48523719D01*
X6472137Y48523721D01*
X6472139Y48523721D01*
X6603360Y48599482D01*
X6603360Y48599483D01*
X6603365Y48599485D01*
X6710515Y48706635D01*
X6786281Y48837865D01*
X6809496Y48924509D01*
X6842818Y48975821D01*
X6899940Y48997748D01*
X6950067Y48987093D01*
X6974787Y48974498D01*
X6994696Y48964354D01*
X7088481Y48949500D01*
X8301518Y48949501D01*
X8301521Y48949501D01*
X8301522Y48949502D01*
X8356042Y48958136D01*
X8395299Y48964353D01*
X8395304Y48964354D01*
X8407276Y48970454D01*
X8464219Y48999469D01*
X8524649Y49009040D01*
X8579166Y48981264D01*
X8606944Y48926747D01*
X8604790Y48885640D01*
X8599500Y48865892D01*
X8599500Y48734108D01*
X8631358Y48615212D01*
X8634597Y48603124D01*
X8631394Y48542022D01*
X8592889Y48494472D01*
X8564594Y48481875D01*
X8506814Y48466393D01*
X8506810Y48466391D01*
X8392690Y48400504D01*
X8299496Y48307310D01*
X8233609Y48193191D01*
X8219223Y48139501D01*
X8199500Y48065892D01*
X8199500Y47934108D01*
X8220570Y47855474D01*
X8233609Y47806810D01*
X8299496Y47692691D01*
X8299498Y47692689D01*
X8299500Y47692686D01*
X8392686Y47599500D01*
X8392688Y47599499D01*
X8392690Y47599497D01*
X8506810Y47533610D01*
X8506808Y47533610D01*
X8506812Y47533609D01*
X8506814Y47533608D01*
X8634108Y47499500D01*
X8634110Y47499500D01*
X8738630Y47499500D01*
X8796821Y47480593D01*
X8799410Y47478646D01*
X9362723Y47040514D01*
X9371945Y47032374D01*
X9384788Y47019531D01*
X9384790Y47019530D01*
X9384792Y47019528D01*
X9397952Y47011930D01*
X9409226Y47004345D01*
X9421237Y46995003D01*
X9421239Y46995003D01*
X9423861Y46992963D01*
X9458187Y46942313D01*
X9456187Y46881161D01*
X9418624Y46832863D01*
X9372663Y46816280D01*
X2786574Y46175965D01*
X2776994Y46175500D01*
X2750564Y46175500D01*
X2750562Y46175500D01*
X2750556Y46175499D01*
X2740676Y46172852D01*
X2724647Y46169945D01*
X2714459Y46168954D01*
X2689719Y46159678D01*
X2680590Y46156751D01*
X2655066Y46149912D01*
X2655063Y46149910D01*
X2646201Y46144794D01*
X2631466Y46137837D01*
X2621885Y46134245D01*
X2600374Y46118872D01*
X2592317Y46113685D01*
X2569435Y46100473D01*
X2569433Y46100472D01*
X2562198Y46093237D01*
X2549770Y46082706D01*
X2541445Y46076756D01*
X2524655Y46056350D01*
X2518212Y46049251D01*
X2248460Y45779497D01*
X2193943Y45751719D01*
X2178456Y45750500D01*
X1485326Y45750500D01*
X1485325Y45750500D01*
X1485315Y45750499D01*
X1412263Y45735967D01*
X1412257Y45735965D01*
X1329400Y45680603D01*
X1329397Y45680600D01*
X1274035Y45597743D01*
X1274033Y45597737D01*
X1259501Y45524685D01*
X1259500Y45524673D01*
X1259500Y43075328D01*
X1259501Y43075316D01*
X1274033Y43002264D01*
X1274035Y43002258D01*
X1329397Y42919401D01*
X1329400Y42919398D01*
X1409075Y42866162D01*
X1412260Y42864034D01*
X1467808Y42852985D01*
X1485315Y42849502D01*
X1485320Y42849502D01*
X1485326Y42849500D01*
X1485327Y42849500D01*
X2534673Y42849500D01*
X2534674Y42849500D01*
X2607740Y42864034D01*
X2690601Y42919399D01*
X2745966Y43002260D01*
X2760500Y43075326D01*
X2760500Y45188457D01*
X2779407Y45246648D01*
X2789490Y45258455D01*
X2945230Y45414195D01*
X2999745Y45441971D01*
X3005634Y45442723D01*
X6267892Y45759887D01*
X6327638Y45746700D01*
X6368223Y45700912D01*
X6374144Y45640014D01*
X6359788Y45606353D01*
X6354036Y45597745D01*
X6354033Y45597737D01*
X6339501Y45524685D01*
X6339500Y45524673D01*
X6339500Y43075328D01*
X6339501Y43075316D01*
X6354033Y43002264D01*
X6354035Y43002258D01*
X6409397Y42919401D01*
X6409400Y42919398D01*
X6489075Y42866162D01*
X6492260Y42864034D01*
X6547808Y42852985D01*
X6565315Y42849502D01*
X6565320Y42849502D01*
X6565326Y42849500D01*
X6565327Y42849500D01*
X7614673Y42849500D01*
X7614674Y42849500D01*
X7687740Y42864034D01*
X7770601Y42919399D01*
X7825966Y43002260D01*
X7840500Y43075326D01*
X7840500Y45088603D01*
X7859407Y45146794D01*
X7908907Y45182758D01*
X7930528Y45187195D01*
X8230563Y45214470D01*
X8289025Y45201613D01*
X8406810Y45133610D01*
X8406808Y45133610D01*
X8406812Y45133609D01*
X8406814Y45133608D01*
X8534108Y45099500D01*
X8534110Y45099500D01*
X8665890Y45099500D01*
X8665892Y45099500D01*
X8754879Y45123344D01*
X8815978Y45120141D01*
X8863528Y45081636D01*
X8879500Y45027717D01*
X8879500Y43075328D01*
X8879501Y43075316D01*
X8894033Y43002264D01*
X8894035Y43002258D01*
X8949397Y42919401D01*
X8949400Y42919398D01*
X9029075Y42866162D01*
X9032260Y42864034D01*
X9087808Y42852985D01*
X9105315Y42849502D01*
X9105320Y42849502D01*
X9105326Y42849500D01*
X9105327Y42849500D01*
X10154673Y42849500D01*
X10154674Y42849500D01*
X10227740Y42864034D01*
X10310601Y42919399D01*
X10365966Y43002260D01*
X10380500Y43075326D01*
X10380500Y45243812D01*
X10399407Y45302003D01*
X10409491Y45313810D01*
X10525068Y45429388D01*
X10535752Y45438643D01*
X10546913Y45446991D01*
X10558933Y45462268D01*
X10566725Y45471044D01*
X10580470Y45484788D01*
X10587438Y45496860D01*
X10595362Y45508564D01*
X10603983Y45519518D01*
X10611639Y45537386D01*
X10616889Y45547871D01*
X10626614Y45564712D01*
X10630222Y45578183D01*
X10634847Y45591538D01*
X11059505Y46582406D01*
X11099806Y46628443D01*
X11159470Y46642000D01*
X11215708Y46617898D01*
X11247039Y46565343D01*
X11249500Y46543407D01*
X11249500Y45553856D01*
X11258701Y45519518D01*
X11268007Y45484788D01*
X11268007Y45484786D01*
X11273383Y45464718D01*
X11273384Y45464716D01*
X11273385Y45464713D01*
X11273386Y45464712D01*
X11319530Y45384788D01*
X11319531Y45384787D01*
X11319533Y45384784D01*
X11390503Y45313816D01*
X11418281Y45259300D01*
X11419500Y45243812D01*
X11419500Y43075328D01*
X11419501Y43075316D01*
X11434033Y43002264D01*
X11434035Y43002258D01*
X11489397Y42919401D01*
X11489400Y42919398D01*
X11569075Y42866162D01*
X11572260Y42864034D01*
X11627808Y42852985D01*
X11645315Y42849502D01*
X11645320Y42849502D01*
X11645326Y42849500D01*
X11645327Y42849500D01*
X12694673Y42849500D01*
X12694674Y42849500D01*
X12767740Y42864034D01*
X12850601Y42919399D01*
X12905966Y43002260D01*
X12920500Y43075326D01*
X12920500Y45524674D01*
X12919202Y45531197D01*
X12912535Y45564717D01*
X12905966Y45597740D01*
X12899375Y45607604D01*
X12850602Y45680600D01*
X12850599Y45680603D01*
X12767742Y45735965D01*
X12767740Y45735966D01*
X12767737Y45735967D01*
X12767736Y45735967D01*
X12694684Y45750499D01*
X12694674Y45750500D01*
X12694673Y45750500D01*
X12049500Y45750500D01*
X11991309Y45769407D01*
X11955345Y45818907D01*
X11950500Y45849500D01*
X11950500Y45919679D01*
X11969407Y45977870D01*
X12018907Y46013834D01*
X12075122Y46015305D01*
X12134108Y45999500D01*
X12134109Y45999500D01*
X12265890Y45999500D01*
X12265892Y45999500D01*
X12393186Y46033608D01*
X12406076Y46041051D01*
X12465922Y46053773D01*
X12477508Y46051855D01*
X13902758Y45727935D01*
X13955312Y45696602D01*
X13979411Y45640362D01*
X13974426Y45607604D01*
X13975936Y45607303D01*
X13959500Y45524677D01*
X13959500Y43075328D01*
X13959501Y43075316D01*
X13974033Y43002264D01*
X13974035Y43002258D01*
X14029397Y42919401D01*
X14029400Y42919398D01*
X14109075Y42866162D01*
X14112260Y42864034D01*
X14167808Y42852985D01*
X14185315Y42849502D01*
X14185320Y42849502D01*
X14185326Y42849500D01*
X14185327Y42849500D01*
X15150500Y42849500D01*
X15208691Y42830593D01*
X15244655Y42781093D01*
X15249500Y42750500D01*
X15249500Y15946144D01*
X15249500Y15853856D01*
X15273386Y15764712D01*
X15319531Y15684788D01*
X15384788Y15619531D01*
X15464712Y15573386D01*
X15553856Y15549500D01*
X15553858Y15549500D01*
X23146142Y15549500D01*
X23146144Y15549500D01*
X23235288Y15573386D01*
X23315212Y15619531D01*
X23380469Y15684788D01*
X23426614Y15764712D01*
X23450500Y15853856D01*
X23450500Y17150500D01*
X23469407Y17208691D01*
X23518907Y17244655D01*
X23549500Y17249500D01*
X23874673Y17249500D01*
X23874674Y17249500D01*
X23947740Y17264034D01*
X23994999Y17295612D01*
X24053886Y17312220D01*
X24104999Y17295612D01*
X24130004Y17278905D01*
X24152256Y17264036D01*
X24152257Y17264036D01*
X24152260Y17264034D01*
X24207808Y17252985D01*
X24225315Y17249502D01*
X24225320Y17249502D01*
X24225326Y17249500D01*
X24550500Y17249500D01*
X24608691Y17230593D01*
X24644655Y17181093D01*
X24649500Y17150500D01*
X24649500Y15853856D01*
X24673386Y15764712D01*
X24719531Y15684788D01*
X24784788Y15619531D01*
X24864712Y15573386D01*
X24953856Y15549500D01*
X24953858Y15549500D01*
X37846142Y15549500D01*
X37846144Y15549500D01*
X37935288Y15573386D01*
X38015212Y15619531D01*
X38080469Y15684788D01*
X38126614Y15764712D01*
X38150500Y15853856D01*
X38150500Y43119679D01*
X38169407Y43177870D01*
X38218907Y43213834D01*
X38275122Y43215305D01*
X38334108Y43199500D01*
X38334109Y43199500D01*
X38465890Y43199500D01*
X38465892Y43199500D01*
X38593186Y43233608D01*
X38593188Y43233610D01*
X38593190Y43233610D01*
X38707310Y43299497D01*
X38712460Y43303449D01*
X38713557Y43302019D01*
X38760469Y43325930D01*
X38781649Y43326988D01*
X47079288Y42850113D01*
X47125061Y42847365D01*
X47125062Y42847366D01*
X47125069Y42847365D01*
X47125558Y42847401D01*
X47125814Y42847420D01*
X47125949Y42847431D01*
X47125958Y42847430D01*
X47170821Y42856730D01*
X47215476Y42865868D01*
X47215476Y42865869D01*
X47215480Y42865869D01*
X47216078Y42866077D01*
X47216260Y42866140D01*
X47216315Y42866161D01*
X47216325Y42866162D01*
X47257231Y42886746D01*
X47298020Y42907140D01*
X47298022Y42907143D01*
X47298114Y42907203D01*
X47298276Y42907313D01*
X47298762Y42907642D01*
X47332695Y42937887D01*
X47332884Y42938056D01*
X47345211Y42948987D01*
X47367071Y42968370D01*
X47367073Y42968375D01*
X47367077Y42968377D01*
X47367343Y42968684D01*
X47367492Y42968856D01*
X47367652Y42969041D01*
X47367656Y42969048D01*
X47367659Y42969050D01*
X47392795Y43007332D01*
X47417921Y43045386D01*
X47417922Y43045390D01*
X47418200Y43045963D01*
X47418265Y43046097D01*
X47418307Y43046185D01*
X47418314Y43046195D01*
X47432716Y43089773D01*
X47469292Y43199501D01*
X47638395Y43706807D01*
X47674734Y43756032D01*
X47732315Y43774500D01*
X47926126Y43774500D01*
X47926130Y43774500D01*
X47982022Y43780509D01*
X48061407Y43810118D01*
X48108448Y43827663D01*
X48108448Y43827664D01*
X48108450Y43827664D01*
X48216472Y43908528D01*
X48297336Y44016550D01*
X48301295Y44027163D01*
X48344489Y44142973D01*
X48344488Y44142973D01*
X48344491Y44142978D01*
X48350500Y44198870D01*
X48350500Y44652310D01*
X48369407Y44710501D01*
X48418907Y44746465D01*
X48480093Y44746465D01*
X48519504Y44722314D01*
X48520504Y44721314D01*
X48548281Y44666797D01*
X48549500Y44651310D01*
X48549500Y44198874D01*
X48549499Y44198874D01*
X48555508Y44142984D01*
X48555510Y44142973D01*
X48602662Y44016552D01*
X48652060Y43950564D01*
X48683528Y43908528D01*
X48709815Y43888850D01*
X48791551Y43827663D01*
X48917972Y43780511D01*
X48917973Y43780511D01*
X48917978Y43780509D01*
X48973870Y43774500D01*
X48973874Y43774500D01*
X49501126Y43774500D01*
X49501130Y43774500D01*
X49557022Y43780509D01*
X49565904Y43783823D01*
X49627031Y43786443D01*
X49678027Y43752632D01*
X49699409Y43695305D01*
X49699500Y43691064D01*
X49699500Y399500D01*
X49680593Y341309D01*
X49631093Y305345D01*
X49600500Y300500D01*
X399500Y300500D01*
X341309Y319407D01*
X305345Y368907D01*
X300500Y399500D01*
X300500Y3606291D01*
X2149500Y3606291D01*
X2149500Y3393710D01*
X2182752Y3183762D01*
X2248443Y2981588D01*
X2344948Y2792185D01*
X2344950Y2792181D01*
X2469891Y2620214D01*
X2469893Y2620212D01*
X2469896Y2620208D01*
X2620208Y2469896D01*
X2620211Y2469894D01*
X2620213Y2469892D01*
X2792180Y2344951D01*
X2792184Y2344949D01*
X2981588Y2248443D01*
X3183757Y2182754D01*
X3183758Y2182754D01*
X3183761Y2182753D01*
X3393710Y2149500D01*
X3393713Y2149500D01*
X3606290Y2149500D01*
X3816238Y2182753D01*
X3816239Y2182754D01*
X3816243Y2182754D01*
X4018412Y2248443D01*
X4207816Y2344949D01*
X4379792Y2469896D01*
X4530104Y2620208D01*
X4655051Y2792184D01*
X4751557Y2981588D01*
X4817246Y3183757D01*
X4850500Y3393713D01*
X4850500Y3606287D01*
X4850500Y3606291D01*
X45149500Y3606291D01*
X45149500Y3393710D01*
X45182752Y3183762D01*
X45248443Y2981588D01*
X45344948Y2792185D01*
X45344950Y2792181D01*
X45469891Y2620214D01*
X45469893Y2620212D01*
X45469896Y2620208D01*
X45620208Y2469896D01*
X45620211Y2469894D01*
X45620213Y2469892D01*
X45792180Y2344951D01*
X45792184Y2344949D01*
X45981588Y2248443D01*
X46183757Y2182754D01*
X46183758Y2182754D01*
X46183761Y2182753D01*
X46393710Y2149500D01*
X46393713Y2149500D01*
X46606290Y2149500D01*
X46816238Y2182753D01*
X46816239Y2182754D01*
X46816243Y2182754D01*
X47018412Y2248443D01*
X47207816Y2344949D01*
X47379792Y2469896D01*
X47530104Y2620208D01*
X47655051Y2792184D01*
X47751557Y2981588D01*
X47817246Y3183757D01*
X47850500Y3393713D01*
X47850500Y3606287D01*
X47850500Y3606291D01*
X47817247Y3816239D01*
X47817246Y3816243D01*
X47751557Y4018412D01*
X47655051Y4207816D01*
X47655049Y4207820D01*
X47530108Y4379787D01*
X47530106Y4379789D01*
X47530104Y4379792D01*
X47379792Y4530104D01*
X47379788Y4530107D01*
X47379786Y4530109D01*
X47207819Y4655050D01*
X47207815Y4655052D01*
X47018412Y4751557D01*
X46816238Y4817248D01*
X46606290Y4850500D01*
X46606287Y4850500D01*
X46393713Y4850500D01*
X46393710Y4850500D01*
X46183761Y4817248D01*
X45981587Y4751557D01*
X45792184Y4655052D01*
X45792180Y4655050D01*
X45620213Y4530109D01*
X45469891Y4379787D01*
X45344950Y4207820D01*
X45344948Y4207816D01*
X45248443Y4018413D01*
X45182752Y3816239D01*
X45149500Y3606291D01*
X4850500Y3606291D01*
X4817247Y3816239D01*
X4817246Y3816243D01*
X4751557Y4018412D01*
X4655051Y4207816D01*
X4655049Y4207820D01*
X4530108Y4379787D01*
X4530106Y4379789D01*
X4530104Y4379792D01*
X4379792Y4530104D01*
X4379788Y4530107D01*
X4379786Y4530109D01*
X4207819Y4655050D01*
X4207815Y4655052D01*
X4018412Y4751557D01*
X3816238Y4817248D01*
X3606290Y4850500D01*
X3606287Y4850500D01*
X3393713Y4850500D01*
X3393710Y4850500D01*
X3183761Y4817248D01*
X2981587Y4751557D01*
X2792184Y4655052D01*
X2792180Y4655050D01*
X2620213Y4530109D01*
X2469891Y4379787D01*
X2344950Y4207820D01*
X2344948Y4207816D01*
X2248443Y4018413D01*
X2182752Y3816239D01*
X2149500Y3606291D01*
X300500Y3606291D01*
X300500Y60106291D01*
X2149500Y60106291D01*
X2149500Y59893710D01*
X2182752Y59683762D01*
X2248443Y59481588D01*
X2344948Y59292185D01*
X2344950Y59292181D01*
X2469891Y59120214D01*
X2469893Y59120212D01*
X2469896Y59120208D01*
X2620208Y58969896D01*
X2620211Y58969894D01*
X2620213Y58969892D01*
X2792180Y58844951D01*
X2792184Y58844949D01*
X2981588Y58748443D01*
X3183757Y58682754D01*
X3183758Y58682754D01*
X3183761Y58682753D01*
X3393710Y58649500D01*
X3393713Y58649500D01*
X3606290Y58649500D01*
X3816238Y58682753D01*
X3816239Y58682754D01*
X3816243Y58682754D01*
X4018412Y58748443D01*
X4207816Y58844949D01*
X4379792Y58969896D01*
X4530104Y59120208D01*
X4655051Y59292184D01*
X4751557Y59481588D01*
X4817246Y59683757D01*
X4817247Y59683762D01*
X4850500Y59893710D01*
X4850500Y60106291D01*
X4817247Y60316239D01*
X4814701Y60324075D01*
X4751557Y60518412D01*
X4655051Y60707816D01*
X4655049Y60707820D01*
X4530108Y60879787D01*
X4530106Y60879789D01*
X4530104Y60879792D01*
X4379792Y61030104D01*
X4379788Y61030107D01*
X4379786Y61030109D01*
X4207819Y61155050D01*
X4207815Y61155052D01*
X4018412Y61251557D01*
X3816238Y61317248D01*
X3606290Y61350500D01*
X3606287Y61350500D01*
X3393713Y61350500D01*
X3393710Y61350500D01*
X3183761Y61317248D01*
X2981587Y61251557D01*
X2792184Y61155052D01*
X2792180Y61155050D01*
X2620213Y61030109D01*
X2469891Y60879787D01*
X2344950Y60707820D01*
X2344948Y60707816D01*
X2248443Y60518413D01*
X2182752Y60316239D01*
X2149500Y60106291D01*
X300500Y60106291D01*
X300500Y66801001D01*
X319407Y66859192D01*
X368907Y66895156D01*
X399500Y66900001D01*
X15783345Y66900001D01*
X15841536Y66881094D01*
G37*
%TD.AperFunction*%
%TA.AperFunction,Conductor*%
G36*
X22419501Y48505321D02*
G01*
X22487898Y48436924D01*
X22603482Y48380418D01*
X22678418Y48369500D01*
X22993810Y48369500D01*
X23052001Y48350593D01*
X23063814Y48340504D01*
X23441929Y47962389D01*
X23446276Y47957752D01*
X23456088Y47946587D01*
X23467054Y47934108D01*
X23467183Y47933962D01*
X23468545Y47933054D01*
X23483627Y47920691D01*
X23484788Y47919530D01*
X23503844Y47908528D01*
X23512210Y47903698D01*
X23517616Y47900340D01*
X24055416Y47541807D01*
X24093345Y47493798D01*
X24099500Y47459435D01*
X24099500Y47125328D01*
X24099501Y47125316D01*
X24114033Y47052264D01*
X24114035Y47052258D01*
X24169397Y46969401D01*
X24169400Y46969398D01*
X24222558Y46933880D01*
X24252260Y46914034D01*
X24307808Y46902985D01*
X24325315Y46899502D01*
X24325320Y46899502D01*
X24325326Y46899500D01*
X24325327Y46899500D01*
X24674673Y46899500D01*
X24674674Y46899500D01*
X24730688Y46910642D01*
X24769312Y46910642D01*
X24825326Y46899500D01*
X24825327Y46899500D01*
X25174673Y46899500D01*
X25174674Y46899500D01*
X25230688Y46910642D01*
X25269312Y46910642D01*
X25325326Y46899500D01*
X25500500Y46899500D01*
X25558691Y46880593D01*
X25594655Y46831093D01*
X25599500Y46800500D01*
X25599500Y46625321D01*
X25610641Y46569313D01*
X25610641Y46530687D01*
X25599500Y46474680D01*
X25599500Y46125321D01*
X25610641Y46069313D01*
X25610641Y46030687D01*
X25599500Y45974680D01*
X25599500Y45625328D01*
X25599501Y45625316D01*
X25614033Y45552264D01*
X25614035Y45552258D01*
X25670757Y45467366D01*
X25687365Y45408477D01*
X25666187Y45351074D01*
X25637941Y45326629D01*
X25592690Y45300504D01*
X25499496Y45207310D01*
X25433609Y45093191D01*
X25433608Y45093186D01*
X25399500Y44965892D01*
X25399500Y44834108D01*
X25417778Y44765892D01*
X25433609Y44706810D01*
X25499496Y44592691D01*
X25499498Y44592689D01*
X25499500Y44592686D01*
X25592686Y44499500D01*
X25592688Y44499499D01*
X25592690Y44499497D01*
X25706810Y44433610D01*
X25706808Y44433610D01*
X25706812Y44433609D01*
X25706814Y44433608D01*
X25834108Y44399500D01*
X25834110Y44399500D01*
X25918459Y44399500D01*
X25976650Y44380593D01*
X26012614Y44331093D01*
X26012614Y44269907D01*
X25981837Y44224446D01*
X25980637Y44223446D01*
X25923830Y44200718D01*
X25917259Y44200500D01*
X25834108Y44200500D01*
X25756200Y44179625D01*
X25706809Y44166391D01*
X25592690Y44100504D01*
X25499496Y44007310D01*
X25433609Y43893191D01*
X25430690Y43882296D01*
X25399500Y43765892D01*
X25399500Y43634108D01*
X25418095Y43564711D01*
X25433609Y43506810D01*
X25499496Y43392691D01*
X25499498Y43392689D01*
X25499500Y43392686D01*
X25592686Y43299500D01*
X25592688Y43299499D01*
X25592690Y43299497D01*
X25706810Y43233610D01*
X25706808Y43233610D01*
X25706812Y43233609D01*
X25706814Y43233608D01*
X25834108Y43199500D01*
X25834110Y43199500D01*
X25965890Y43199500D01*
X25965892Y43199500D01*
X26093186Y43233608D01*
X26093188Y43233610D01*
X26093190Y43233610D01*
X26207309Y43299497D01*
X26207309Y43299498D01*
X26207314Y43299500D01*
X26300500Y43392686D01*
X26312697Y43413811D01*
X26366390Y43506810D01*
X26366390Y43506812D01*
X26366392Y43506814D01*
X26400500Y43634108D01*
X26400500Y43634111D01*
X26401593Y43638190D01*
X26433840Y43688619D01*
X26986898Y44149500D01*
X27019363Y44176554D01*
X27076170Y44199282D01*
X27082741Y44199500D01*
X27165890Y44199500D01*
X27165892Y44199500D01*
X27293186Y44233608D01*
X27293188Y44233610D01*
X27293190Y44233610D01*
X27407309Y44299497D01*
X27407309Y44299498D01*
X27407314Y44299500D01*
X27500500Y44392686D01*
X27500504Y44392693D01*
X27566390Y44506810D01*
X27566390Y44506812D01*
X27566392Y44506814D01*
X27600500Y44634108D01*
X27600500Y44765892D01*
X27566392Y44893186D01*
X27566390Y44893189D01*
X27566390Y44893191D01*
X27500503Y45007310D01*
X27500501Y45007312D01*
X27500500Y45007314D01*
X27407314Y45100500D01*
X27407311Y45100502D01*
X27407309Y45100504D01*
X27293189Y45166391D01*
X27293191Y45166391D01*
X27236507Y45181579D01*
X27165892Y45200500D01*
X27034108Y45200500D01*
X26963493Y45181579D01*
X26906809Y45166391D01*
X26792690Y45100504D01*
X26699496Y45007310D01*
X26633609Y44893191D01*
X26598407Y44761813D01*
X26566159Y44711382D01*
X26550330Y44698191D01*
X26493522Y44675463D01*
X26434205Y44690466D01*
X26395035Y44737470D01*
X26390973Y44798521D01*
X26391286Y44799722D01*
X26400500Y44834108D01*
X26400500Y44965892D01*
X26393569Y44991759D01*
X26396770Y45052857D01*
X26400639Y45061639D01*
X26554708Y45369776D01*
X26597642Y45413366D01*
X26643255Y45424500D01*
X27149435Y45424500D01*
X27149436Y45424500D01*
X27233372Y45446991D01*
X27244938Y45450090D01*
X27330562Y45499525D01*
X27400475Y45569438D01*
X27400474Y45569438D01*
X27539016Y45707980D01*
X27583390Y45733599D01*
X27630151Y45746129D01*
X27655768Y45749501D01*
X28000737Y45749501D01*
X28027332Y45753714D01*
X28092175Y45763983D01*
X28202391Y45820141D01*
X28289859Y45907609D01*
X28346017Y46017825D01*
X28360500Y46109265D01*
X28360499Y46189133D01*
X28379406Y46247323D01*
X28381058Y46249531D01*
X28385616Y46255450D01*
X28427685Y46310088D01*
X28465673Y46401371D01*
X28477448Y46489687D01*
X28503879Y46544865D01*
X28557698Y46573972D01*
X28618347Y46565886D01*
X28645579Y46546607D01*
X28692686Y46499500D01*
X28692688Y46499499D01*
X28707113Y46491170D01*
X28748054Y46445699D01*
X28754448Y46384849D01*
X28727617Y46335431D01*
X28699496Y46307310D01*
X28633609Y46193191D01*
X28617644Y46133608D01*
X28599500Y46065892D01*
X28599500Y45934108D01*
X28622207Y45849365D01*
X28633609Y45806810D01*
X28699496Y45692691D01*
X28699498Y45692689D01*
X28699500Y45692686D01*
X28792686Y45599500D01*
X28792688Y45599499D01*
X28792690Y45599497D01*
X28833393Y45575997D01*
X28874334Y45530528D01*
X28880730Y45469678D01*
X28850137Y45416690D01*
X28844673Y45412115D01*
X28599409Y45221354D01*
X28541868Y45200553D01*
X28538629Y45200500D01*
X28434108Y45200500D01*
X28363493Y45181579D01*
X28306809Y45166391D01*
X28192690Y45100504D01*
X28099496Y45007310D01*
X28033609Y44893191D01*
X28017778Y44834108D01*
X27999500Y44765892D01*
X27999500Y44634108D01*
X28020181Y44556924D01*
X28033609Y44506810D01*
X28099496Y44392691D01*
X28099501Y44392685D01*
X28122183Y44370002D01*
X28149959Y44315485D01*
X28140387Y44255053D01*
X28122183Y44229998D01*
X28099501Y44207316D01*
X28099496Y44207310D01*
X28033609Y44093191D01*
X28027236Y44069407D01*
X27999500Y43965892D01*
X27999500Y43834108D01*
X28029579Y43721849D01*
X28033609Y43706810D01*
X28099496Y43592691D01*
X28099498Y43592689D01*
X28099500Y43592686D01*
X28192686Y43499500D01*
X28192688Y43499499D01*
X28192690Y43499497D01*
X28306810Y43433610D01*
X28306808Y43433610D01*
X28306812Y43433609D01*
X28306814Y43433608D01*
X28434108Y43399500D01*
X28434110Y43399500D01*
X28565890Y43399500D01*
X28565892Y43399500D01*
X28693186Y43433608D01*
X28693188Y43433610D01*
X28693190Y43433610D01*
X28807310Y43499497D01*
X28807310Y43499498D01*
X28807314Y43499500D01*
X28811310Y43503497D01*
X28865824Y43531277D01*
X28885609Y43532404D01*
X32688317Y43367068D01*
X32745632Y43345650D01*
X32754020Y43338165D01*
X32792684Y43299501D01*
X32792690Y43299497D01*
X32906810Y43233610D01*
X32906808Y43233610D01*
X32906812Y43233609D01*
X32906814Y43233608D01*
X33034108Y43199500D01*
X33034110Y43199500D01*
X33165891Y43199500D01*
X33165892Y43199500D01*
X33224877Y43215305D01*
X33285978Y43212104D01*
X33333528Y43173599D01*
X33349500Y43119679D01*
X33349500Y35549500D01*
X33330593Y35491309D01*
X33281093Y35455345D01*
X33250500Y35450500D01*
X23146144Y35450500D01*
X23053856Y35450500D01*
X22964712Y35426614D01*
X22964711Y35426614D01*
X22964709Y35426613D01*
X22884790Y35380471D01*
X22819529Y35315210D01*
X22773387Y35235291D01*
X22749500Y35146143D01*
X22749500Y32849500D01*
X22730593Y32791309D01*
X22681093Y32755345D01*
X22650500Y32750500D01*
X22325326Y32750500D01*
X22325325Y32750500D01*
X22325315Y32750499D01*
X22252263Y32735967D01*
X22252257Y32735965D01*
X22169400Y32680603D01*
X22169397Y32680600D01*
X22114035Y32597743D01*
X22114033Y32597737D01*
X22099501Y32524685D01*
X22099500Y32524673D01*
X22099500Y30675328D01*
X22099501Y30675316D01*
X22114033Y30602264D01*
X22114035Y30602258D01*
X22169397Y30519401D01*
X22169399Y30519399D01*
X22252260Y30464034D01*
X22307808Y30452985D01*
X22325315Y30449502D01*
X22325320Y30449502D01*
X22325326Y30449500D01*
X22325327Y30449500D01*
X23874673Y30449500D01*
X23874674Y30449500D01*
X23947740Y30464034D01*
X23994999Y30495612D01*
X24053886Y30512220D01*
X24104999Y30495612D01*
X24130004Y30478905D01*
X24152256Y30464036D01*
X24152257Y30464036D01*
X24152260Y30464034D01*
X24207808Y30452985D01*
X24225315Y30449502D01*
X24225320Y30449502D01*
X24225326Y30449500D01*
X24225327Y30449500D01*
X25774673Y30449500D01*
X25774674Y30449500D01*
X25847740Y30464034D01*
X25894999Y30495612D01*
X25953886Y30512220D01*
X26004999Y30495612D01*
X26030004Y30478905D01*
X26052256Y30464036D01*
X26052257Y30464036D01*
X26052260Y30464034D01*
X26107808Y30452985D01*
X26125315Y30449502D01*
X26125320Y30449502D01*
X26125326Y30449500D01*
X26125327Y30449500D01*
X27674673Y30449500D01*
X27674674Y30449500D01*
X27747740Y30464034D01*
X27830601Y30519399D01*
X27885966Y30602260D01*
X27900500Y30675326D01*
X27900500Y32524674D01*
X27885966Y32597740D01*
X27830601Y32680601D01*
X27830599Y32680603D01*
X27747742Y32735965D01*
X27747740Y32735966D01*
X27747737Y32735967D01*
X27747736Y32735967D01*
X27674684Y32750499D01*
X27674674Y32750500D01*
X27674673Y32750500D01*
X27499500Y32750500D01*
X27441309Y32769407D01*
X27405345Y32818907D01*
X27400500Y32849500D01*
X27400500Y33400500D01*
X27419407Y33458691D01*
X27468907Y33494655D01*
X27499500Y33499500D01*
X34865890Y33499500D01*
X34865892Y33499500D01*
X34993186Y33533608D01*
X34993188Y33533610D01*
X34993190Y33533610D01*
X35107309Y33599497D01*
X35107309Y33599498D01*
X35107314Y33599500D01*
X35200500Y33692686D01*
X35266392Y33806814D01*
X35300500Y33934108D01*
X35300500Y43756493D01*
X35319407Y43814684D01*
X35368907Y43850648D01*
X35380402Y43853407D01*
X35382169Y43853983D01*
X35382175Y43853983D01*
X35492391Y43910141D01*
X35579859Y43997609D01*
X35636017Y44107825D01*
X35650500Y44199265D01*
X35650499Y44600734D01*
X35650499Y44600738D01*
X35642489Y44651310D01*
X35636017Y44692175D01*
X35579859Y44802391D01*
X35492391Y44889859D01*
X35382175Y44946017D01*
X35374767Y44948424D01*
X35375327Y44950151D01*
X35329494Y44973506D01*
X35301718Y45028023D01*
X35300500Y45043507D01*
X35300500Y47454487D01*
X35319407Y47512678D01*
X35368907Y47548642D01*
X35430093Y47548642D01*
X35479593Y47512678D01*
X35492196Y47489249D01*
X35495068Y47481591D01*
X35730636Y46853412D01*
X35733565Y46793030D01*
X35699500Y46665892D01*
X35699500Y46534108D01*
X35723047Y46446230D01*
X35733609Y46406810D01*
X35799496Y46292691D01*
X35799498Y46292689D01*
X35799500Y46292686D01*
X35892686Y46199500D01*
X35892688Y46199499D01*
X35892690Y46199497D01*
X36006810Y46133610D01*
X36006808Y46133610D01*
X36006812Y46133609D01*
X36006814Y46133608D01*
X36134108Y46099500D01*
X36134110Y46099500D01*
X36265891Y46099500D01*
X36265892Y46099500D01*
X36324877Y46115305D01*
X36385978Y46112104D01*
X36433528Y46073599D01*
X36449500Y46019679D01*
X36449500Y27349500D01*
X36430593Y27291309D01*
X36381093Y27255345D01*
X36350500Y27250500D01*
X32849500Y27250500D01*
X32791309Y27269407D01*
X32755345Y27318907D01*
X32750500Y27349500D01*
X32750500Y27674673D01*
X32750498Y27674685D01*
X32747015Y27692192D01*
X32735966Y27747740D01*
X32735964Y27747743D01*
X32680602Y27830600D01*
X32680599Y27830603D01*
X32597742Y27885965D01*
X32597740Y27885966D01*
X32597737Y27885967D01*
X32597736Y27885967D01*
X32524684Y27900499D01*
X32524674Y27900500D01*
X30675326Y27900500D01*
X30675325Y27900500D01*
X30675315Y27900499D01*
X30602263Y27885967D01*
X30602257Y27885965D01*
X30519400Y27830603D01*
X30519397Y27830600D01*
X30464035Y27747743D01*
X30464033Y27747737D01*
X30449501Y27674685D01*
X30449500Y27674673D01*
X30449500Y26125328D01*
X30449501Y26125316D01*
X30464033Y26052264D01*
X30464036Y26052255D01*
X30495610Y26005000D01*
X30512218Y25946112D01*
X30495610Y25895000D01*
X30464036Y25847746D01*
X30464033Y25847737D01*
X30449501Y25774685D01*
X30449500Y25774673D01*
X30449500Y24225328D01*
X30449501Y24225316D01*
X30464033Y24152264D01*
X30464036Y24152255D01*
X30495610Y24105000D01*
X30512218Y24046112D01*
X30495610Y23995000D01*
X30464036Y23947746D01*
X30464033Y23947737D01*
X30449501Y23874685D01*
X30449500Y23874673D01*
X30449500Y22325328D01*
X30449501Y22325316D01*
X30464033Y22252264D01*
X30464035Y22252258D01*
X30519397Y22169401D01*
X30519399Y22169399D01*
X30602260Y22114034D01*
X30657808Y22102985D01*
X30675315Y22099502D01*
X30675320Y22099502D01*
X30675326Y22099500D01*
X30675327Y22099500D01*
X32524673Y22099500D01*
X32524674Y22099500D01*
X32597740Y22114034D01*
X32680601Y22169399D01*
X32735966Y22252260D01*
X32750500Y22325326D01*
X32750500Y23874674D01*
X32735966Y23947740D01*
X32735964Y23947743D01*
X32735964Y23947744D01*
X32721095Y23969996D01*
X32704388Y23995000D01*
X32687780Y24053886D01*
X32704388Y24105000D01*
X32735966Y24152260D01*
X32750500Y24225326D01*
X32750500Y24550500D01*
X32769407Y24608691D01*
X32818907Y24644655D01*
X32849500Y24649500D01*
X37350500Y24649500D01*
X37408691Y24630593D01*
X37444655Y24581093D01*
X37449500Y24550500D01*
X37449500Y16349500D01*
X37430593Y16291309D01*
X37381093Y16255345D01*
X37350500Y16250500D01*
X25449500Y16250500D01*
X25391309Y16269407D01*
X25355345Y16318907D01*
X25350500Y16349500D01*
X25350500Y17150500D01*
X25369407Y17208691D01*
X25418907Y17244655D01*
X25449500Y17249500D01*
X25774673Y17249500D01*
X25774674Y17249500D01*
X25847740Y17264034D01*
X25894999Y17295612D01*
X25953886Y17312220D01*
X26004999Y17295612D01*
X26030004Y17278905D01*
X26052256Y17264036D01*
X26052257Y17264036D01*
X26052260Y17264034D01*
X26107808Y17252985D01*
X26125315Y17249502D01*
X26125320Y17249502D01*
X26125326Y17249500D01*
X26125327Y17249500D01*
X27674673Y17249500D01*
X27674674Y17249500D01*
X27747740Y17264034D01*
X27830601Y17319399D01*
X27885966Y17402260D01*
X27900500Y17475326D01*
X27900500Y19324674D01*
X27885966Y19397740D01*
X27830601Y19480601D01*
X27830599Y19480603D01*
X27747742Y19535965D01*
X27747740Y19535966D01*
X27747737Y19535967D01*
X27747736Y19535967D01*
X27674684Y19550499D01*
X27674674Y19550500D01*
X26125326Y19550500D01*
X26125325Y19550500D01*
X26125315Y19550499D01*
X26052263Y19535967D01*
X26052254Y19535964D01*
X26005000Y19504390D01*
X25946112Y19487782D01*
X25895000Y19504390D01*
X25847745Y19535964D01*
X25847740Y19535966D01*
X25847737Y19535967D01*
X25847736Y19535967D01*
X25774684Y19550499D01*
X25774674Y19550500D01*
X24225326Y19550500D01*
X24225325Y19550500D01*
X24225315Y19550499D01*
X24152263Y19535967D01*
X24152254Y19535964D01*
X24105000Y19504390D01*
X24046112Y19487782D01*
X23995000Y19504390D01*
X23947745Y19535964D01*
X23947740Y19535966D01*
X23947737Y19535967D01*
X23947736Y19535967D01*
X23874684Y19550499D01*
X23874674Y19550500D01*
X22325326Y19550500D01*
X22325325Y19550500D01*
X22325315Y19550499D01*
X22252263Y19535967D01*
X22252257Y19535965D01*
X22169400Y19480603D01*
X22169397Y19480600D01*
X22114035Y19397743D01*
X22114033Y19397737D01*
X22099501Y19324685D01*
X22099500Y19324673D01*
X22099500Y17475328D01*
X22099501Y17475316D01*
X22114033Y17402264D01*
X22114035Y17402258D01*
X22169397Y17319401D01*
X22169399Y17319399D01*
X22252260Y17264034D01*
X22307808Y17252985D01*
X22325315Y17249502D01*
X22325320Y17249502D01*
X22325326Y17249500D01*
X22650500Y17249500D01*
X22708691Y17230593D01*
X22744655Y17181093D01*
X22749500Y17150500D01*
X22749500Y16349500D01*
X22730593Y16291309D01*
X22681093Y16255345D01*
X22650500Y16250500D01*
X16049500Y16250500D01*
X15991309Y16269407D01*
X15955345Y16318907D01*
X15950500Y16349500D01*
X15950500Y24550500D01*
X15969407Y24608691D01*
X16018907Y24644655D01*
X16049500Y24649500D01*
X16053856Y24649500D01*
X17150500Y24649500D01*
X17208691Y24630593D01*
X17244655Y24581093D01*
X17249500Y24550500D01*
X17249500Y24225328D01*
X17249501Y24225316D01*
X17264033Y24152264D01*
X17264035Y24152258D01*
X17319397Y24069401D01*
X17319399Y24069399D01*
X17402260Y24014034D01*
X17457808Y24002985D01*
X17475315Y23999502D01*
X17475320Y23999502D01*
X17475326Y23999500D01*
X17475327Y23999500D01*
X19324673Y23999500D01*
X19324674Y23999500D01*
X19397740Y24014034D01*
X19480601Y24069399D01*
X19535966Y24152260D01*
X19550500Y24225326D01*
X19550500Y25774674D01*
X19535966Y25847740D01*
X19535964Y25847743D01*
X19535964Y25847744D01*
X19521095Y25869996D01*
X19504388Y25895000D01*
X19487780Y25953886D01*
X19504388Y26005000D01*
X19535966Y26052260D01*
X19550500Y26125326D01*
X19550500Y27674674D01*
X19535966Y27747740D01*
X19535964Y27747743D01*
X19480602Y27830600D01*
X19480599Y27830603D01*
X19397742Y27885965D01*
X19397740Y27885966D01*
X19397737Y27885967D01*
X19397736Y27885967D01*
X19324684Y27900499D01*
X19324674Y27900500D01*
X17475326Y27900500D01*
X17475323Y27900500D01*
X17418814Y27889259D01*
X17358053Y27896451D01*
X17313123Y27937983D01*
X17300500Y27986357D01*
X17300500Y41300500D01*
X17319407Y41358691D01*
X17368907Y41394655D01*
X17399500Y41399500D01*
X22885890Y41399500D01*
X22885892Y41399500D01*
X23013186Y41433608D01*
X23013188Y41433610D01*
X23013190Y41433610D01*
X23127309Y41499497D01*
X23127309Y41499498D01*
X23127314Y41499500D01*
X23220500Y41592686D01*
X23286392Y41706814D01*
X23320500Y41834108D01*
X23320500Y43103604D01*
X23331293Y43148553D01*
X23336015Y43157820D01*
X23336016Y43157824D01*
X23336017Y43157825D01*
X23350500Y43249265D01*
X23350499Y43650734D01*
X23350499Y43650737D01*
X23350499Y43650738D01*
X23341617Y43706814D01*
X23336017Y43742175D01*
X23279859Y43852391D01*
X23192391Y43939859D01*
X23147430Y43962768D01*
X23075232Y43999555D01*
X23076304Y44001661D01*
X23036108Y44030867D01*
X23018549Y44072781D01*
X23015147Y44093191D01*
X23002948Y44166391D01*
X22995809Y44209225D01*
X23004893Y44269732D01*
X23047807Y44313344D01*
X23093462Y44324500D01*
X24249435Y44324500D01*
X24249436Y44324500D01*
X24331480Y44346484D01*
X24344938Y44350090D01*
X24427841Y44397954D01*
X24487689Y44410676D01*
X24502964Y44407845D01*
X24534108Y44399500D01*
X24534109Y44399500D01*
X24665890Y44399500D01*
X24665892Y44399500D01*
X24793186Y44433608D01*
X24793188Y44433610D01*
X24793190Y44433610D01*
X24907309Y44499497D01*
X24907309Y44499498D01*
X24907314Y44499500D01*
X25000500Y44592686D01*
X25044321Y44668586D01*
X25066390Y44706810D01*
X25066390Y44706812D01*
X25066392Y44706814D01*
X25100500Y44834108D01*
X25100500Y44965892D01*
X25066392Y45093186D01*
X25066390Y45093189D01*
X25066390Y45093191D01*
X25000503Y45207310D01*
X25000501Y45207312D01*
X25000500Y45207314D01*
X24929494Y45278320D01*
X24901719Y45332834D01*
X24900500Y45348321D01*
X24900500Y45974673D01*
X24900498Y45974685D01*
X24895562Y45999500D01*
X24885966Y46047740D01*
X24873838Y46065891D01*
X24830602Y46130600D01*
X24830599Y46130603D01*
X24747742Y46185965D01*
X24747740Y46185966D01*
X24747737Y46185967D01*
X24747736Y46185967D01*
X24674684Y46200499D01*
X24674674Y46200500D01*
X24325326Y46200500D01*
X24325320Y46200500D01*
X24269313Y46189359D01*
X24230687Y46189359D01*
X24174679Y46200500D01*
X24174674Y46200500D01*
X23500326Y46200500D01*
X23500325Y46200500D01*
X23500315Y46200499D01*
X23427263Y46185967D01*
X23427257Y46185965D01*
X23344400Y46130603D01*
X23344397Y46130600D01*
X23289035Y46047743D01*
X23289033Y46047737D01*
X23274501Y45974685D01*
X23274500Y45974673D01*
X23274500Y45860494D01*
X23255593Y45802303D01*
X23212060Y45770675D01*
X23212806Y45768874D01*
X23206813Y45766392D01*
X23092690Y45700504D01*
X23092685Y45700500D01*
X23033148Y45640963D01*
X22978631Y45613186D01*
X22918201Y45622757D01*
X22892176Y45636017D01*
X22800736Y45650500D01*
X22399261Y45650500D01*
X22399259Y45650499D01*
X22364985Y45645071D01*
X22304553Y45654643D01*
X22261289Y45697909D01*
X22250500Y45742852D01*
X22250500Y48435315D01*
X22269407Y48493506D01*
X22318907Y48529470D01*
X22380093Y48529470D01*
X22419501Y48505321D01*
G37*
%TD.AperFunction*%
%TA.AperFunction,Conductor*%
G36*
X21599000Y43895854D02*
G01*
X21706810Y43833610D01*
X21706808Y43833610D01*
X21706812Y43833609D01*
X21706814Y43833608D01*
X21834108Y43799500D01*
X21834110Y43799500D01*
X21965890Y43799500D01*
X21965892Y43799500D01*
X22093186Y43833608D01*
X22155481Y43869575D01*
X22215328Y43882296D01*
X22271224Y43857410D01*
X22301817Y43804422D01*
X22302634Y43800114D01*
X22305497Y43782937D01*
X22303061Y43750209D01*
X22305202Y43749869D01*
X22303983Y43742176D01*
X22303983Y43742175D01*
X22298382Y43706814D01*
X22289500Y43650737D01*
X22289500Y43249263D01*
X22300808Y43177870D01*
X22303983Y43157825D01*
X22308709Y43148550D01*
X22319500Y43103604D01*
X22319500Y42499500D01*
X22300593Y42441309D01*
X22251093Y42405345D01*
X22220500Y42400500D01*
X21258428Y42400500D01*
X21200237Y42419407D01*
X21164273Y42468907D01*
X21162801Y42525122D01*
X21163991Y42529565D01*
X21170500Y42553856D01*
X21170500Y42897243D01*
X21189407Y42955434D01*
X21199490Y42967241D01*
X21279859Y43047609D01*
X21336017Y43157825D01*
X21350500Y43249265D01*
X21350499Y43413812D01*
X21369406Y43472002D01*
X21379496Y43483816D01*
X21380469Y43484788D01*
X21426614Y43564712D01*
X21433257Y43589505D01*
X21434110Y43592686D01*
X21449663Y43650734D01*
X21450500Y43653856D01*
X21450500Y43810118D01*
X21469407Y43868309D01*
X21518907Y43904273D01*
X21580093Y43904273D01*
X21599000Y43895854D01*
G37*
%TD.AperFunction*%
%TA.AperFunction,Conductor*%
G36*
X43225517Y46164789D02*
G01*
X43283365Y46144864D01*
X43318455Y46094740D01*
X43319405Y46040182D01*
X43308773Y46000500D01*
X43299500Y45965892D01*
X43299500Y45834108D01*
X43321903Y45750499D01*
X43333609Y45706810D01*
X43399496Y45592691D01*
X43399498Y45592689D01*
X43399500Y45592686D01*
X43458521Y45533665D01*
X43486297Y45479150D01*
X43706605Y44083875D01*
X43723289Y43978208D01*
X43724500Y43962768D01*
X43724500Y43950564D01*
X43724499Y43950564D01*
X43730829Y43926943D01*
X43732990Y43916762D01*
X43736803Y43892614D01*
X43736805Y43892606D01*
X43738475Y43888850D01*
X43744837Y43827996D01*
X43714216Y43775025D01*
X43658307Y43750169D01*
X43642332Y43749795D01*
X38816141Y44027163D01*
X38759131Y44049378D01*
X38751827Y44055987D01*
X38707314Y44100500D01*
X38707311Y44100502D01*
X38707309Y44100504D01*
X38593189Y44166391D01*
X38593191Y44166391D01*
X38543799Y44179625D01*
X38465892Y44200500D01*
X38334108Y44200500D01*
X38275122Y44184695D01*
X38214021Y44187898D01*
X38166471Y44226403D01*
X38150500Y44280322D01*
X38150500Y46019679D01*
X38169407Y46077870D01*
X38218907Y46113834D01*
X38275122Y46115305D01*
X38334108Y46099500D01*
X38334109Y46099500D01*
X38465890Y46099500D01*
X38465892Y46099500D01*
X38593186Y46133608D01*
X38593188Y46133610D01*
X38593190Y46133610D01*
X38707310Y46199497D01*
X38707311Y46199499D01*
X38707314Y46199500D01*
X38721381Y46213568D01*
X38775895Y46241346D01*
X38793119Y46242550D01*
X43225517Y46164789D01*
G37*
%TD.AperFunction*%
%TA.AperFunction,Conductor*%
G36*
X44392599Y45849330D02*
G01*
X45772279Y45768173D01*
X45829258Y45745881D01*
X45855404Y45712827D01*
X45896924Y45627898D01*
X45954820Y45570002D01*
X45982596Y45515487D01*
X45973025Y45455055D01*
X45954821Y45430000D01*
X45925240Y45400418D01*
X45896923Y45372101D01*
X45854253Y45284818D01*
X45840418Y45256518D01*
X45829500Y45181582D01*
X45829500Y44838418D01*
X45840418Y44763482D01*
X45896924Y44647898D01*
X45974820Y44570002D01*
X46002596Y44515487D01*
X45993025Y44455055D01*
X45974821Y44430000D01*
X45896924Y44352102D01*
X45896923Y44352101D01*
X45896920Y44352097D01*
X45886616Y44331019D01*
X45844073Y44287045D01*
X45797676Y44275500D01*
X44521247Y44275500D01*
X44463056Y44294407D01*
X44427092Y44343907D01*
X44423458Y44359060D01*
X44422700Y44363860D01*
X44228087Y45596407D01*
X44237688Y45656832D01*
X44240122Y45661315D01*
X44266392Y45706814D01*
X44284963Y45776126D01*
X44318287Y45827438D01*
X44375409Y45849365D01*
X44380590Y45849501D01*
X44386786Y45849501D01*
X44392599Y45849330D01*
G37*
%TD.AperFunction*%
%TA.AperFunction,Conductor*%
G36*
X48293201Y46946893D02*
G01*
X48305014Y46936804D01*
X48520504Y46721314D01*
X48548281Y46666797D01*
X48549500Y46651310D01*
X48549500Y46198874D01*
X48549499Y46198874D01*
X48555508Y46142984D01*
X48555510Y46142973D01*
X48602662Y46016552D01*
X48664379Y45934108D01*
X48683528Y45908528D01*
X48713467Y45886116D01*
X48791551Y45827663D01*
X48917972Y45780511D01*
X48917973Y45780511D01*
X48917978Y45780509D01*
X48973870Y45774500D01*
X48973874Y45774500D01*
X49501126Y45774500D01*
X49501130Y45774500D01*
X49557022Y45780509D01*
X49565904Y45783823D01*
X49627031Y45786443D01*
X49678027Y45752632D01*
X49699409Y45695305D01*
X49699500Y45691064D01*
X49699500Y45308937D01*
X49680593Y45250746D01*
X49631093Y45214782D01*
X49569907Y45214782D01*
X49565908Y45216177D01*
X49557025Y45219490D01*
X49557024Y45219491D01*
X49557022Y45219491D01*
X49557019Y45219492D01*
X49557016Y45219492D01*
X49531744Y45222209D01*
X49501130Y45225500D01*
X49501126Y45225500D01*
X49048690Y45225500D01*
X48990499Y45244407D01*
X48978687Y45254496D01*
X48636414Y45596768D01*
X48636412Y45596770D01*
X48556488Y45642914D01*
X48556485Y45642915D01*
X48542418Y45646685D01*
X48542418Y45646684D01*
X48467344Y45666800D01*
X48467342Y45666800D01*
X47062879Y45666800D01*
X47004688Y45685707D01*
X46968724Y45735207D01*
X46964913Y45780073D01*
X46966751Y45792686D01*
X46970500Y45818418D01*
X46970500Y46161582D01*
X46959582Y46236518D01*
X46903076Y46352102D01*
X46825179Y46429999D01*
X46797404Y46484513D01*
X46806975Y46544945D01*
X46825178Y46570001D01*
X46903076Y46647898D01*
X46959582Y46763482D01*
X46970500Y46838418D01*
X46970500Y46866800D01*
X46989407Y46924991D01*
X47038907Y46960955D01*
X47069500Y46965800D01*
X48235010Y46965800D01*
X48293201Y46946893D01*
G37*
%TD.AperFunction*%
%TA.AperFunction,Conductor*%
G36*
X48319501Y48920593D02*
G01*
X48331314Y48910504D01*
X48520504Y48721314D01*
X48548281Y48666797D01*
X48549500Y48651310D01*
X48549500Y48198874D01*
X48549499Y48198874D01*
X48555508Y48142984D01*
X48555510Y48142973D01*
X48602662Y48016552D01*
X48664379Y47934108D01*
X48683528Y47908528D01*
X48683531Y47908526D01*
X48791551Y47827663D01*
X48917972Y47780511D01*
X48917973Y47780511D01*
X48917978Y47780509D01*
X48973870Y47774500D01*
X48973874Y47774500D01*
X49501126Y47774500D01*
X49501130Y47774500D01*
X49557022Y47780509D01*
X49565904Y47783823D01*
X49627031Y47786443D01*
X49678027Y47752632D01*
X49699409Y47695305D01*
X49699500Y47691064D01*
X49699500Y47308937D01*
X49680593Y47250746D01*
X49631093Y47214782D01*
X49569907Y47214782D01*
X49565908Y47216177D01*
X49557025Y47219490D01*
X49557024Y47219491D01*
X49557022Y47219491D01*
X49557019Y47219492D01*
X49557016Y47219492D01*
X49531744Y47222209D01*
X49501130Y47225500D01*
X49501126Y47225500D01*
X49048690Y47225500D01*
X48990499Y47244407D01*
X48978687Y47254496D01*
X48636414Y47596768D01*
X48636412Y47596770D01*
X48556488Y47642914D01*
X48552539Y47643972D01*
X48467344Y47666800D01*
X48467342Y47666800D01*
X47062879Y47666800D01*
X47004688Y47685707D01*
X46968724Y47735207D01*
X46964913Y47780073D01*
X46965459Y47783822D01*
X46970500Y47818418D01*
X46970500Y48161582D01*
X46959582Y48236518D01*
X46903076Y48352102D01*
X46825179Y48429999D01*
X46797404Y48484513D01*
X46806975Y48544945D01*
X46825178Y48570001D01*
X46903076Y48647898D01*
X46959582Y48763482D01*
X46970500Y48838418D01*
X46970500Y48840500D01*
X46970693Y48841098D01*
X46970759Y48841994D01*
X46970980Y48841978D01*
X46989407Y48898691D01*
X47038907Y48934655D01*
X47069500Y48939500D01*
X48261310Y48939500D01*
X48319501Y48920593D01*
G37*
%TD.AperFunction*%
%TA.AperFunction,Conductor*%
G36*
X8894768Y50849414D02*
G01*
X10958995Y50763405D01*
X11016347Y50742093D01*
X11036578Y50717384D01*
X11037372Y50717960D01*
X11041948Y50711661D01*
X11041950Y50711658D01*
X11131658Y50621950D01*
X11244696Y50564354D01*
X11338481Y50549500D01*
X11719678Y50549501D01*
X11777869Y50530594D01*
X11813833Y50481094D01*
X11815305Y50424879D01*
X11808076Y50397899D01*
X11799500Y50365892D01*
X11799500Y50234108D01*
X11832580Y50110651D01*
X11833609Y50106812D01*
X11836091Y50100820D01*
X11834032Y50099968D01*
X11844689Y50049782D01*
X11840153Y50028844D01*
X11701039Y49611503D01*
X11677124Y49572808D01*
X11619529Y49515212D01*
X11577281Y49442037D01*
X11577282Y49442036D01*
X11573387Y49435291D01*
X11573386Y49435289D01*
X11573386Y49435288D01*
X11556455Y49372101D01*
X11556014Y49370454D01*
X11530393Y49326076D01*
X11519530Y49315213D01*
X11478957Y49244938D01*
X11478956Y49244936D01*
X11473387Y49235292D01*
X11473386Y49235288D01*
X11456052Y49170594D01*
X11456014Y49170454D01*
X11430393Y49126076D01*
X11419530Y49115213D01*
X11381554Y49049436D01*
X11381554Y49049435D01*
X11375809Y49039485D01*
X11373385Y49035286D01*
X11356013Y48970454D01*
X11330394Y48926078D01*
X11319533Y48915216D01*
X11319530Y48915212D01*
X11319529Y48915211D01*
X11219530Y48815212D01*
X11219529Y48815211D01*
X11119530Y48715212D01*
X11119529Y48715211D01*
X11019530Y48615212D01*
X11019529Y48615211D01*
X10919530Y48515212D01*
X10919529Y48515211D01*
X10819530Y48415212D01*
X10819529Y48415211D01*
X10719530Y48315212D01*
X10719529Y48315211D01*
X10719528Y48315212D01*
X10619530Y48215213D01*
X10608944Y48196877D01*
X10580306Y48147273D01*
X10573386Y48135288D01*
X10551459Y48053453D01*
X10549500Y48046143D01*
X10549500Y47880322D01*
X10530593Y47822131D01*
X10481093Y47786167D01*
X10424878Y47784695D01*
X10365892Y47800500D01*
X10234108Y47800500D01*
X10166453Y47782372D01*
X10106809Y47766391D01*
X9992690Y47700504D01*
X9992689Y47700503D01*
X9992686Y47700501D01*
X9992686Y47700500D01*
X9971680Y47679495D01*
X9917166Y47651719D01*
X9901679Y47650500D01*
X9754228Y47650500D01*
X9696037Y47669407D01*
X9693448Y47671354D01*
X9230510Y48031417D01*
X9196185Y48082067D01*
X9195691Y48083838D01*
X9166392Y48193186D01*
X9166390Y48193190D01*
X9165402Y48196877D01*
X9168605Y48257979D01*
X9207110Y48305529D01*
X9235403Y48318126D01*
X9293186Y48333608D01*
X9407314Y48399500D01*
X9500500Y48492686D01*
X9500503Y48492691D01*
X9566390Y48606810D01*
X9566390Y48606812D01*
X9566392Y48606814D01*
X9600500Y48734108D01*
X9600500Y48865892D01*
X9566392Y48993186D01*
X9559222Y49005604D01*
X9544560Y49031000D01*
X9531839Y49090848D01*
X9556726Y49146744D01*
X9609714Y49177337D01*
X9630297Y49179500D01*
X9861578Y49179500D01*
X9861582Y49179500D01*
X9936518Y49190418D01*
X10052102Y49246924D01*
X10143076Y49337898D01*
X10199582Y49453482D01*
X10210500Y49528418D01*
X10210500Y49971582D01*
X10199582Y50046518D01*
X10143076Y50162102D01*
X10052102Y50253076D01*
X9936518Y50309582D01*
X9936516Y50309583D01*
X9936515Y50309583D01*
X9936217Y50309626D01*
X9935952Y50309757D01*
X9929172Y50311852D01*
X9929508Y50312941D01*
X9881362Y50336730D01*
X9880565Y50337516D01*
X9836812Y50381269D01*
X9829967Y50385221D01*
X9756890Y50427413D01*
X9756889Y50427414D01*
X9756888Y50427414D01*
X9667744Y50451300D01*
X9667742Y50451300D01*
X8765541Y50451300D01*
X8707350Y50470207D01*
X8671386Y50519707D01*
X8667388Y50563222D01*
X8668340Y50570453D01*
X8670500Y50586861D01*
X8670499Y50750500D01*
X8689406Y50808690D01*
X8738906Y50844654D01*
X8769499Y50849500D01*
X8853856Y50849500D01*
X8890647Y50849500D01*
X8894768Y50849414D01*
G37*
%TD.AperFunction*%
%TA.AperFunction,Conductor*%
G36*
X31502397Y52814007D02*
G01*
X31528467Y52808821D01*
X31575317Y52799501D01*
X31575324Y52799501D01*
X31575326Y52799500D01*
X31575327Y52799500D01*
X32424666Y52799500D01*
X32424674Y52799500D01*
X32424681Y52799502D01*
X32428410Y52799869D01*
X32488175Y52786760D01*
X32528821Y52741027D01*
X32536630Y52711197D01*
X32749010Y50587419D01*
X32749501Y50577568D01*
X32749501Y50553853D01*
X32751992Y50544556D01*
X32754871Y50528798D01*
X32755829Y50519214D01*
X32755831Y50519207D01*
X32764220Y50497020D01*
X32767245Y50487630D01*
X32773384Y50464716D01*
X32773385Y50464714D01*
X32778200Y50456374D01*
X32785064Y50441888D01*
X32788467Y50432887D01*
X32788470Y50432880D01*
X32802318Y50413616D01*
X32807666Y50405336D01*
X32819530Y50384788D01*
X32826345Y50377973D01*
X32836716Y50365767D01*
X32842337Y50357948D01*
X32860700Y50342924D01*
X32868004Y50336314D01*
X32898704Y50305614D01*
X32926481Y50251097D01*
X32916910Y50190665D01*
X32878201Y50149874D01*
X32792688Y50100502D01*
X32699496Y50007310D01*
X32633609Y49893190D01*
X32633608Y49893188D01*
X32614603Y49822264D01*
X32581278Y49770950D01*
X32574747Y49766092D01*
X30716438Y48499063D01*
X30710170Y48495125D01*
X30684788Y48480471D01*
X30684787Y48480470D01*
X30681958Y48477640D01*
X30667736Y48465856D01*
X30664429Y48463602D01*
X30664417Y48463591D01*
X30645296Y48441372D01*
X30640263Y48435947D01*
X30519530Y48315213D01*
X30519530Y48315212D01*
X30519529Y48315211D01*
X30419530Y48215212D01*
X30419529Y48215211D01*
X30374031Y48169715D01*
X30363791Y48160794D01*
X30351664Y48151614D01*
X30351660Y48151610D01*
X30340510Y48137275D01*
X30332378Y48128062D01*
X30319529Y48115212D01*
X30311928Y48102046D01*
X30304339Y48090768D01*
X30232425Y47998308D01*
X30181774Y47963983D01*
X30120622Y47965985D01*
X30072325Y48003549D01*
X30055332Y48062328D01*
X30066925Y48105674D01*
X30477793Y48876051D01*
X30495130Y48899450D01*
X30501289Y48905610D01*
X30501291Y48905610D01*
X30515211Y48919530D01*
X30515212Y48919530D01*
X30601287Y49005608D01*
X30601290Y49005609D01*
X30615211Y49019530D01*
X30615212Y49019530D01*
X30780469Y49184788D01*
X30826614Y49264712D01*
X30831282Y49282135D01*
X30831284Y49282140D01*
X30841563Y49320504D01*
X30850500Y49353856D01*
X30850500Y50113813D01*
X30869407Y50172004D01*
X30879492Y50183812D01*
X30925259Y50229579D01*
X30935846Y50238762D01*
X30947215Y50247287D01*
X30959048Y50262364D01*
X30966909Y50271230D01*
X30980469Y50284788D01*
X30987571Y50297092D01*
X30995428Y50308711D01*
X31004199Y50319882D01*
X31011728Y50337512D01*
X31017036Y50348125D01*
X31026612Y50364709D01*
X31026613Y50364711D01*
X31026614Y50364712D01*
X31030289Y50378430D01*
X31034868Y50391682D01*
X31040452Y50404752D01*
X31043163Y50423738D01*
X31045538Y50435346D01*
X31050499Y50453856D01*
X31050499Y50468047D01*
X31051494Y50482048D01*
X31195461Y51489822D01*
X31222407Y51544751D01*
X31240632Y51557122D01*
X31239633Y51558617D01*
X31330597Y51619396D01*
X31330597Y51619397D01*
X31330601Y51619399D01*
X31385966Y51702260D01*
X31400500Y51775326D01*
X31400500Y52624674D01*
X31400499Y52624676D01*
X31400499Y52624683D01*
X31388542Y52684790D01*
X31385995Y52697594D01*
X31393185Y52758354D01*
X31434717Y52803284D01*
X31494726Y52815222D01*
X31502397Y52814007D01*
G37*
%TD.AperFunction*%
%TA.AperFunction,Conductor*%
G36*
X18558352Y52806815D02*
G01*
X18603283Y52765283D01*
X18615221Y52705274D01*
X18614005Y52697599D01*
X18606063Y52657672D01*
X18599500Y52624675D01*
X18599500Y51775328D01*
X18599501Y51775316D01*
X18614033Y51702264D01*
X18614035Y51702258D01*
X18669397Y51619401D01*
X18669402Y51619396D01*
X18740080Y51572172D01*
X18777960Y51524123D01*
X18780363Y51462985D01*
X18746372Y51412111D01*
X18710703Y51394229D01*
X18606814Y51366392D01*
X18606812Y51366392D01*
X18606808Y51366390D01*
X18492690Y51300504D01*
X18399496Y51207310D01*
X18333609Y51093191D01*
X18325161Y51061660D01*
X18299500Y50965892D01*
X18299500Y50834108D01*
X18319058Y50761116D01*
X18333609Y50706810D01*
X18384427Y50618792D01*
X18397149Y50558944D01*
X18396696Y50555292D01*
X18374212Y50397899D01*
X18347266Y50342967D01*
X18346211Y50341896D01*
X18303736Y50299420D01*
X18278007Y50280876D01*
X18254766Y50269255D01*
X18238158Y50260951D01*
X18193885Y50250500D01*
X17799262Y50250500D01*
X17707825Y50236017D01*
X17707821Y50236016D01*
X17597610Y50179860D01*
X17510140Y50092390D01*
X17453983Y49982177D01*
X17439500Y49890737D01*
X17439500Y49549263D01*
X17453983Y49457826D01*
X17453984Y49457822D01*
X17482399Y49402056D01*
X17510141Y49347609D01*
X17597609Y49260141D01*
X17707825Y49203983D01*
X17799265Y49189500D01*
X18200734Y49189501D01*
X18203601Y49189501D01*
X18261792Y49170594D01*
X18297756Y49121094D01*
X18299031Y49072498D01*
X18300347Y49072324D01*
X18299500Y49065893D01*
X18299500Y49065892D01*
X18299500Y48934108D01*
X18327146Y48830930D01*
X18333609Y48806810D01*
X18399496Y48692691D01*
X18399498Y48692689D01*
X18399500Y48692686D01*
X18411739Y48680447D01*
X18439515Y48625932D01*
X18429944Y48565500D01*
X18386679Y48522235D01*
X18381942Y48519978D01*
X17323353Y48049495D01*
X17262498Y48043139D01*
X17209530Y48073766D01*
X17187519Y48114337D01*
X17166392Y48193186D01*
X17166390Y48193189D01*
X17166390Y48193191D01*
X17100503Y48307310D01*
X17100501Y48307312D01*
X17100500Y48307314D01*
X17007314Y48400500D01*
X16990082Y48410449D01*
X16949142Y48455918D01*
X16943959Y48470552D01*
X16926614Y48535288D01*
X16922726Y48542022D01*
X16880470Y48615211D01*
X16880465Y48615217D01*
X16879489Y48616193D01*
X16879040Y48617074D01*
X16876520Y48620358D01*
X16877129Y48620826D01*
X16851716Y48670712D01*
X16850499Y48686190D01*
X16850499Y48900738D01*
X16844193Y48940549D01*
X16836017Y48992175D01*
X16779859Y49102391D01*
X16779857Y49102393D01*
X16778526Y49105006D01*
X16768226Y49159801D01*
X16845126Y49928796D01*
X16848008Y49944559D01*
X16850500Y49953856D01*
X16850500Y49977580D01*
X16850991Y49987430D01*
X16851206Y49989584D01*
X16853352Y50011039D01*
X16851798Y50020542D01*
X16850500Y50036520D01*
X16850500Y50552383D01*
X16869407Y50610574D01*
X16918907Y50646538D01*
X16980093Y50646538D01*
X16999002Y50638118D01*
X17006810Y50633610D01*
X17006811Y50633610D01*
X17006814Y50633608D01*
X17134108Y50599500D01*
X17134110Y50599500D01*
X17265890Y50599500D01*
X17265892Y50599500D01*
X17393186Y50633608D01*
X17393188Y50633610D01*
X17393190Y50633610D01*
X17507309Y50699497D01*
X17507309Y50699498D01*
X17507314Y50699500D01*
X17600500Y50792686D01*
X17600503Y50792691D01*
X17666390Y50906810D01*
X17666390Y50906812D01*
X17666392Y50906814D01*
X17700500Y51034108D01*
X17700500Y51165892D01*
X17666392Y51293186D01*
X17666390Y51293189D01*
X17666390Y51293191D01*
X17600503Y51407310D01*
X17600501Y51407312D01*
X17600500Y51407314D01*
X17507314Y51500500D01*
X17507311Y51500502D01*
X17507309Y51500504D01*
X17425282Y51547862D01*
X17384341Y51593331D01*
X17382514Y51597716D01*
X17380357Y51603262D01*
X17226071Y52000000D01*
X17084275Y52364618D01*
X17080805Y52425705D01*
X17113905Y52477164D01*
X17170930Y52499341D01*
X17176543Y52499500D01*
X17265890Y52499500D01*
X17265892Y52499500D01*
X17393186Y52533608D01*
X17393188Y52533610D01*
X17393190Y52533610D01*
X17507309Y52599497D01*
X17507309Y52599498D01*
X17507314Y52599500D01*
X17600500Y52692686D01*
X17633591Y52750001D01*
X17679061Y52790941D01*
X17719327Y52799500D01*
X18424673Y52799500D01*
X18424674Y52799500D01*
X18424675Y52799501D01*
X18424681Y52799501D01*
X18461448Y52806815D01*
X18497593Y52814005D01*
X18558352Y52806815D01*
G37*
%TD.AperFunction*%
%TA.AperFunction,Conductor*%
G36*
X40145141Y51904890D02*
G01*
X40224696Y51864354D01*
X40318481Y51849500D01*
X40719678Y51849501D01*
X40777869Y51830594D01*
X40813833Y51781094D01*
X40815305Y51724879D01*
X40809244Y51702258D01*
X40799500Y51665892D01*
X40799500Y51534108D01*
X40823408Y51444883D01*
X40833609Y51406810D01*
X40899496Y51292691D01*
X40899498Y51292689D01*
X40899500Y51292686D01*
X40920505Y51271681D01*
X40948281Y51217166D01*
X40949500Y51201679D01*
X40949500Y48549500D01*
X40930593Y48491309D01*
X40881093Y48455345D01*
X40850500Y48450500D01*
X39849500Y48450500D01*
X39791309Y48469407D01*
X39755345Y48518907D01*
X39750500Y48549500D01*
X39750500Y48774673D01*
X39750498Y48774685D01*
X39745363Y48800500D01*
X39735966Y48847740D01*
X39723838Y48865891D01*
X39680602Y48930600D01*
X39680599Y48930603D01*
X39597742Y48985965D01*
X39597740Y48985966D01*
X39597737Y48985967D01*
X39597736Y48985967D01*
X39524684Y49000499D01*
X39524674Y49000500D01*
X38475326Y49000500D01*
X38475325Y49000500D01*
X38475315Y49000499D01*
X38402263Y48985967D01*
X38402257Y48985965D01*
X38311291Y48925184D01*
X38310624Y48926182D01*
X38264987Y48902929D01*
X38204555Y48912500D01*
X38161290Y48955765D01*
X38150500Y49000710D01*
X38150500Y49119679D01*
X38169407Y49177870D01*
X38218907Y49213834D01*
X38275122Y49215305D01*
X38334108Y49199500D01*
X38334109Y49199500D01*
X38465890Y49199500D01*
X38465892Y49199500D01*
X38593186Y49233608D01*
X38593188Y49233610D01*
X38593190Y49233610D01*
X38707309Y49299497D01*
X38707309Y49299498D01*
X38707314Y49299500D01*
X38728319Y49320506D01*
X38782834Y49348281D01*
X38798321Y49349500D01*
X38846142Y49349500D01*
X38846144Y49349500D01*
X38935288Y49373386D01*
X39015212Y49419531D01*
X39015213Y49419533D01*
X39020831Y49422776D01*
X39021558Y49421517D01*
X39072257Y49439467D01*
X39074843Y49439501D01*
X39190737Y49439501D01*
X39217332Y49443714D01*
X39282175Y49453983D01*
X39392391Y49510141D01*
X39479859Y49597609D01*
X39536017Y49707825D01*
X39550500Y49799265D01*
X39550499Y50200734D01*
X39550499Y50200735D01*
X39550499Y50200738D01*
X39543728Y50243485D01*
X39536017Y50292175D01*
X39479859Y50402391D01*
X39392391Y50489859D01*
X39373468Y50499501D01*
X39304554Y50534615D01*
X39261290Y50577880D01*
X39250500Y50622824D01*
X39250500Y50800501D01*
X39269407Y50858692D01*
X39318907Y50894656D01*
X39349500Y50899501D01*
X39681521Y50899501D01*
X39681522Y50899502D01*
X39728411Y50906928D01*
X39775299Y50914353D01*
X39775299Y50914354D01*
X39775304Y50914354D01*
X39888342Y50971950D01*
X39978050Y51061658D01*
X40035646Y51174696D01*
X40050500Y51268481D01*
X40050499Y51631518D01*
X40039295Y51702264D01*
X40035647Y51725300D01*
X40035646Y51725305D01*
X40011989Y51771733D01*
X40002417Y51832165D01*
X40030194Y51886682D01*
X40084710Y51914460D01*
X40145141Y51904890D01*
G37*
%TD.AperFunction*%
%TA.AperFunction,Conductor*%
G36*
X49658691Y66881094D02*
G01*
X49694655Y66831594D01*
X49699500Y66801001D01*
X49699500Y49308937D01*
X49680593Y49250746D01*
X49631093Y49214782D01*
X49569907Y49214782D01*
X49565908Y49216177D01*
X49557025Y49219490D01*
X49557024Y49219491D01*
X49557022Y49219491D01*
X49557019Y49219492D01*
X49557016Y49219492D01*
X49531744Y49222209D01*
X49501130Y49225500D01*
X49501126Y49225500D01*
X49048690Y49225500D01*
X48990499Y49244407D01*
X48978687Y49254496D01*
X48662714Y49570468D01*
X48662712Y49570470D01*
X48582788Y49616614D01*
X48582787Y49616615D01*
X48582786Y49616615D01*
X48571905Y49619531D01*
X48571905Y49619530D01*
X48493644Y49640500D01*
X46726144Y49640500D01*
X46633856Y49640500D01*
X46544712Y49616614D01*
X46464788Y49570470D01*
X46453812Y49559495D01*
X46399298Y49531719D01*
X46383811Y49530500D01*
X46178418Y49530500D01*
X46109913Y49520519D01*
X46103482Y49519582D01*
X45987899Y49463077D01*
X45896923Y49372101D01*
X45871699Y49320504D01*
X45840418Y49256518D01*
X45829749Y49183285D01*
X45829500Y49181579D01*
X45829500Y49016327D01*
X45810593Y48958136D01*
X45761093Y48922172D01*
X45699907Y48922172D01*
X45675500Y48934011D01*
X45597745Y48985964D01*
X45597740Y48985966D01*
X45597737Y48985967D01*
X45597736Y48985967D01*
X45524684Y49000499D01*
X45524674Y49000500D01*
X45524673Y49000500D01*
X44956833Y49000500D01*
X44898642Y49019407D01*
X44862678Y49068907D01*
X44862678Y49130093D01*
X44897433Y49178700D01*
X45109697Y49337898D01*
X48090969Y51573853D01*
X48106136Y51583219D01*
X48111962Y51586127D01*
X48134517Y51606106D01*
X48140752Y51611190D01*
X48142253Y51612315D01*
X48164848Y51629261D01*
X48168870Y51634386D01*
X48181107Y51647371D01*
X48185977Y51651683D01*
X48202599Y51676829D01*
X48207282Y51683324D01*
X48225896Y51707035D01*
X48228451Y51713017D01*
X48236909Y51728728D01*
X48240501Y51734160D01*
X48250051Y51762757D01*
X48252888Y51770225D01*
X48264735Y51797957D01*
X48265253Y51801588D01*
X48265656Y51804403D01*
X48269761Y51821771D01*
X48271822Y51827940D01*
X48273644Y51858022D01*
X48274458Y51866025D01*
X48275326Y51872101D01*
X48278717Y51895835D01*
X48277937Y51902304D01*
X48277408Y51920119D01*
X48474000Y55163901D01*
X48474496Y55169466D01*
X48475791Y55180471D01*
X48478704Y55205224D01*
X48478621Y55205789D01*
X48477768Y55226060D01*
X48477803Y55226629D01*
X48470595Y55261950D01*
X48469643Y55267403D01*
X48464448Y55303061D01*
X48464221Y55303587D01*
X48458151Y55322946D01*
X48458037Y55323505D01*
X48450883Y55337834D01*
X48441947Y55355733D01*
X48439588Y55360812D01*
X48425356Y55393875D01*
X48424998Y55394328D01*
X48414131Y55411445D01*
X48413872Y55411963D01*
X48407286Y55419399D01*
X48389984Y55438934D01*
X48386403Y55443215D01*
X48341968Y55499500D01*
X45908912Y58581370D01*
X45887695Y58638758D01*
X45904262Y58697658D01*
X45952285Y58735571D01*
X46013422Y58738016D01*
X46017208Y58736870D01*
X46183757Y58682754D01*
X46183758Y58682754D01*
X46183761Y58682753D01*
X46393710Y58649500D01*
X46393713Y58649500D01*
X46606290Y58649500D01*
X46816238Y58682753D01*
X46816239Y58682754D01*
X46816243Y58682754D01*
X47018412Y58748443D01*
X47207816Y58844949D01*
X47379792Y58969896D01*
X47530104Y59120208D01*
X47655051Y59292184D01*
X47751557Y59481588D01*
X47817246Y59683757D01*
X47817247Y59683762D01*
X47850500Y59893710D01*
X47850500Y60106291D01*
X47817247Y60316239D01*
X47814701Y60324075D01*
X47751557Y60518412D01*
X47655051Y60707816D01*
X47655049Y60707820D01*
X47530108Y60879787D01*
X47530106Y60879789D01*
X47530104Y60879792D01*
X47379792Y61030104D01*
X47379788Y61030107D01*
X47379786Y61030109D01*
X47207819Y61155050D01*
X47207815Y61155052D01*
X47018412Y61251557D01*
X46816238Y61317248D01*
X46606290Y61350500D01*
X46606287Y61350500D01*
X46393713Y61350500D01*
X46393710Y61350500D01*
X46183761Y61317248D01*
X45981587Y61251557D01*
X45792184Y61155052D01*
X45792180Y61155050D01*
X45620213Y61030109D01*
X45469891Y60879787D01*
X45344950Y60707820D01*
X45344948Y60707816D01*
X45248441Y60518409D01*
X45248439Y60518406D01*
X45189783Y60337882D01*
X45153819Y60288382D01*
X45095628Y60269475D01*
X45037438Y60288383D01*
X45001474Y60337883D01*
X45001137Y60338943D01*
X43843863Y64058752D01*
X43843861Y64058755D01*
X43843861Y64058756D01*
X43807394Y64116482D01*
X43791058Y64142342D01*
X43782337Y64150395D01*
X43752413Y64203764D01*
X43750500Y64223129D01*
X43750500Y65436975D01*
X43769407Y65495166D01*
X43818907Y65531130D01*
X43880093Y65531130D01*
X43913923Y65512145D01*
X44223765Y65246565D01*
X44255640Y65194342D01*
X44250799Y65133515D01*
X44189869Y64986419D01*
X44149500Y64783468D01*
X44149500Y64576533D01*
X44189869Y64373582D01*
X44269058Y64182403D01*
X44384020Y64010349D01*
X44384023Y64010345D01*
X44530345Y63864023D01*
X44702402Y63749059D01*
X44893580Y63669870D01*
X45096535Y63629500D01*
X45096536Y63629500D01*
X45303464Y63629500D01*
X45303465Y63629500D01*
X45506420Y63669870D01*
X45697598Y63749059D01*
X45869655Y63864023D01*
X46015977Y64010345D01*
X46130941Y64182402D01*
X46210130Y64373580D01*
X46250500Y64576535D01*
X46250500Y64783465D01*
X46210130Y64986420D01*
X46130941Y65177598D01*
X46015977Y65349655D01*
X45869655Y65495977D01*
X45862886Y65500500D01*
X45697597Y65610942D01*
X45506418Y65690131D01*
X45303467Y65730500D01*
X45303465Y65730500D01*
X45096535Y65730500D01*
X45096532Y65730500D01*
X44893580Y65690130D01*
X44893579Y65690130D01*
X44875470Y65682629D01*
X44814474Y65677830D01*
X44773160Y65698928D01*
X44254350Y66143622D01*
X44243611Y66154361D01*
X44236089Y66163138D01*
X44236087Y66163139D01*
X44218111Y66175448D01*
X44209618Y66181965D01*
X44193069Y66196149D01*
X44187397Y66198867D01*
X44182623Y66201155D01*
X44169484Y66208741D01*
X44159939Y66215276D01*
X44159938Y66215277D01*
X44159936Y66215278D01*
X44139380Y66222517D01*
X44129493Y66226612D01*
X44109837Y66236029D01*
X44098465Y66238158D01*
X44083813Y66242084D01*
X44072891Y66245929D01*
X44051153Y66247602D01*
X44040543Y66248999D01*
X44019128Y66253006D01*
X44019122Y66253007D01*
X44007588Y66252120D01*
X43992411Y66252121D01*
X38140167Y66702293D01*
X38083598Y66725607D01*
X38051536Y66777720D01*
X38056229Y66838725D01*
X38095883Y66885321D01*
X38147760Y66900001D01*
X49600500Y66900001D01*
X49658691Y66881094D01*
G37*
%TD.AperFunction*%
%TA.AperFunction,Conductor*%
G36*
X37517351Y54275830D02*
G01*
X38034897Y53952363D01*
X38070824Y53929909D01*
X38088358Y53915961D01*
X38119531Y53884788D01*
X38119530Y53884788D01*
X38184787Y53819532D01*
X38184789Y53819530D01*
X38214705Y53802258D01*
X38264712Y53773386D01*
X38329548Y53756014D01*
X38373925Y53730393D01*
X38384786Y53719533D01*
X38384789Y53719530D01*
X38419482Y53699500D01*
X38464712Y53673386D01*
X38553856Y53649500D01*
X40113811Y53649500D01*
X40172002Y53630593D01*
X40183813Y53620505D01*
X40213883Y53590436D01*
X40213887Y53590431D01*
X40219529Y53584789D01*
X40219530Y53584788D01*
X40269012Y53535306D01*
X40313884Y53490435D01*
X40313887Y53490431D01*
X40413883Y53390436D01*
X40413887Y53390431D01*
X40684814Y53119503D01*
X40712591Y53064987D01*
X40703020Y53004555D01*
X40659755Y52961290D01*
X40614810Y52950500D01*
X40318479Y52950500D01*
X40318476Y52950499D01*
X40224700Y52935648D01*
X40224695Y52935646D01*
X40111659Y52878051D01*
X40021949Y52788341D01*
X39964354Y52675305D01*
X39949500Y52581523D01*
X39949500Y52218480D01*
X39949501Y52218477D01*
X39964352Y52124701D01*
X39964353Y52124698D01*
X39988011Y52078267D01*
X39997582Y52017835D01*
X39969805Y51963319D01*
X39915288Y51935541D01*
X39854856Y51945112D01*
X39775303Y51985647D01*
X39681521Y52000500D01*
X38443478Y52000500D01*
X38443476Y52000499D01*
X38349700Y51985648D01*
X38349695Y51985646D01*
X38236659Y51928051D01*
X38146949Y51838341D01*
X38089354Y51725305D01*
X38074500Y51631523D01*
X38074500Y51268480D01*
X38074501Y51268477D01*
X38089352Y51174701D01*
X38089354Y51174696D01*
X38146950Y51061658D01*
X38236658Y50971950D01*
X38349696Y50914354D01*
X38443481Y50899500D01*
X38450493Y50899501D01*
X38508683Y50880599D01*
X38544652Y50831102D01*
X38549500Y50800501D01*
X38549500Y50405276D01*
X38538710Y50360331D01*
X38503983Y50292176D01*
X38502690Y50284011D01*
X38474911Y50229495D01*
X38420394Y50201719D01*
X38404909Y50200500D01*
X38334108Y50200500D01*
X38310503Y50194175D01*
X38279926Y50185982D01*
X38275122Y50184695D01*
X38214021Y50187898D01*
X38166471Y50226403D01*
X38150500Y50280322D01*
X38150500Y50346143D01*
X38149969Y50348125D01*
X38126614Y50435288D01*
X38104595Y50473425D01*
X38080470Y50515211D01*
X38080467Y50515214D01*
X38069607Y50526075D01*
X38043986Y50570453D01*
X38026614Y50635288D01*
X37999161Y50682837D01*
X37980470Y50715211D01*
X37980467Y50715214D01*
X37969607Y50726075D01*
X37943986Y50770453D01*
X37926614Y50835288D01*
X37892337Y50894656D01*
X37880470Y50915211D01*
X37880468Y50915213D01*
X37815217Y50980465D01*
X37815211Y50980470D01*
X37767449Y51028232D01*
X37715212Y51080470D01*
X37715211Y51080471D01*
X37709570Y51086112D01*
X37709565Y51086116D01*
X37661573Y51134108D01*
X37615212Y51180470D01*
X37615211Y51180471D01*
X37609572Y51186110D01*
X37609565Y51186116D01*
X37563571Y51232110D01*
X37515212Y51280470D01*
X37515211Y51280471D01*
X37509572Y51286110D01*
X37509565Y51286116D01*
X37465088Y51330593D01*
X37415212Y51380470D01*
X37415211Y51380471D01*
X37409572Y51386110D01*
X37409565Y51386116D01*
X37369609Y51426073D01*
X37343986Y51470453D01*
X37326614Y51535288D01*
X37303686Y51575000D01*
X37280470Y51615211D01*
X37280467Y51615214D01*
X37269607Y51626075D01*
X37243986Y51670453D01*
X37241381Y51680176D01*
X37226614Y51735288D01*
X37203498Y51775326D01*
X37180470Y51815211D01*
X37180467Y51815214D01*
X37169607Y51826075D01*
X37143986Y51870453D01*
X37126614Y51935288D01*
X37103528Y51975274D01*
X37080470Y52015211D01*
X37080467Y52015214D01*
X37069607Y52026075D01*
X37043986Y52070453D01*
X37026614Y52135288D01*
X36980469Y52215212D01*
X36975233Y52220448D01*
X36969607Y52226075D01*
X36943986Y52270453D01*
X36941359Y52280258D01*
X36926614Y52335288D01*
X36892051Y52395152D01*
X36880470Y52415211D01*
X36880467Y52415214D01*
X36869607Y52426075D01*
X36843986Y52470453D01*
X36842188Y52477164D01*
X36826614Y52535288D01*
X36818942Y52548575D01*
X36814280Y52556651D01*
X36801558Y52616499D01*
X36826444Y52672395D01*
X36874391Y52701778D01*
X36993186Y52733608D01*
X37087988Y52788342D01*
X37107309Y52799497D01*
X37107309Y52799498D01*
X37107314Y52799500D01*
X37200500Y52892686D01*
X37213504Y52915210D01*
X37266390Y53006810D01*
X37266390Y53006812D01*
X37266392Y53006814D01*
X37300500Y53134108D01*
X37300500Y53265892D01*
X37266392Y53393186D01*
X37217663Y53477586D01*
X37204743Y53535304D01*
X37243697Y54002758D01*
X37267371Y54059176D01*
X37272332Y54064520D01*
X37300500Y54092686D01*
X37305012Y54100500D01*
X37338177Y54157944D01*
X37366392Y54206814D01*
X37369254Y54217498D01*
X37402574Y54268812D01*
X37459694Y54290742D01*
X37517351Y54275830D01*
G37*
%TD.AperFunction*%
%TA.AperFunction,Conductor*%
G36*
X35377189Y61885026D02*
G01*
X38269341Y61696408D01*
X38326178Y61673754D01*
X38358844Y61622018D01*
X38354862Y61560963D01*
X38315753Y61513908D01*
X38312399Y61511882D01*
X38292688Y61500502D01*
X38199496Y61407310D01*
X38133609Y61293191D01*
X38130236Y61280601D01*
X38099500Y61165892D01*
X38099500Y61034108D01*
X38117278Y60967759D01*
X38133609Y60906810D01*
X38199496Y60792691D01*
X38199498Y60792689D01*
X38199500Y60792686D01*
X38292686Y60699500D01*
X38292688Y60699499D01*
X38292690Y60699497D01*
X38406810Y60633610D01*
X38406808Y60633610D01*
X38406812Y60633609D01*
X38406814Y60633608D01*
X38534108Y60599500D01*
X38534110Y60599500D01*
X38665890Y60599500D01*
X38665892Y60599500D01*
X38793186Y60633608D01*
X38793188Y60633610D01*
X38793190Y60633610D01*
X38907309Y60699497D01*
X38907309Y60699498D01*
X38907314Y60699500D01*
X38928319Y60720506D01*
X38982834Y60748281D01*
X38998321Y60749500D01*
X39724673Y60749500D01*
X39724674Y60749500D01*
X39797740Y60764034D01*
X39880601Y60819399D01*
X39935966Y60902260D01*
X39950500Y60975326D01*
X39950500Y61467270D01*
X39969407Y61525461D01*
X40018907Y61561425D01*
X40080093Y61561425D01*
X40129593Y61525461D01*
X40132867Y61520664D01*
X45414066Y53274582D01*
X45437203Y53253483D01*
X45442208Y53248919D01*
X45472465Y53195738D01*
X45474500Y53175768D01*
X45474500Y52620448D01*
X45456897Y52564096D01*
X43893834Y50306337D01*
X43845166Y50269255D01*
X43783996Y50267862D01*
X43781130Y50268769D01*
X43306989Y50426816D01*
X43257764Y50463155D01*
X43239299Y50521488D01*
X43240515Y50536224D01*
X43250500Y50599265D01*
X43250499Y51000734D01*
X43250499Y51000738D01*
X43244367Y51039453D01*
X43236017Y51092175D01*
X43179859Y51202391D01*
X43092391Y51289859D01*
X43071499Y51300504D01*
X43003115Y51335348D01*
X43003112Y51335349D01*
X42982175Y51346017D01*
X42943010Y51352221D01*
X42942997Y51352224D01*
X42890739Y51360500D01*
X42890735Y51360500D01*
X42818947Y51360500D01*
X42760756Y51379407D01*
X42742325Y51396809D01*
X41947877Y52367802D01*
X41925662Y52424812D01*
X41925499Y52430493D01*
X41925499Y52581521D01*
X41918967Y52622762D01*
X41928538Y52683194D01*
X41971803Y52726459D01*
X42032235Y52736030D01*
X42036130Y52735333D01*
X42297806Y52682998D01*
X42348393Y52655925D01*
X42645504Y52358814D01*
X42673281Y52304297D01*
X42674500Y52288810D01*
X42674500Y51920726D01*
X42677353Y51890306D01*
X42677355Y51890297D01*
X42722207Y51762117D01*
X42802845Y51652856D01*
X42802847Y51652854D01*
X42802850Y51652850D01*
X42802853Y51652848D01*
X42802855Y51652846D01*
X42912114Y51572209D01*
X42912116Y51572209D01*
X42912118Y51572207D01*
X43040301Y51527354D01*
X43057466Y51525745D01*
X43057467Y51525744D01*
X43062953Y51525230D01*
X43070726Y51524501D01*
X43070727Y51524500D01*
X43070734Y51524500D01*
X43729273Y51524500D01*
X43729273Y51524501D01*
X43759699Y51527354D01*
X43887882Y51572207D01*
X43997150Y51652850D01*
X44077793Y51762118D01*
X44122646Y51890301D01*
X44125499Y51920727D01*
X44125500Y51920727D01*
X44125500Y52429273D01*
X44125499Y52429275D01*
X44125385Y52430493D01*
X44122646Y52459699D01*
X44077793Y52587882D01*
X44075332Y52591216D01*
X43997154Y52697145D01*
X43997152Y52697147D01*
X43997150Y52697150D01*
X43997146Y52697153D01*
X43997144Y52697155D01*
X43887883Y52777793D01*
X43759703Y52822645D01*
X43759694Y52822647D01*
X43729274Y52825500D01*
X43729266Y52825500D01*
X43211190Y52825500D01*
X43152999Y52844407D01*
X43141186Y52854496D01*
X42779308Y53216374D01*
X42766940Y53231461D01*
X42766037Y53232816D01*
X42742248Y53253723D01*
X42737629Y53258053D01*
X42715212Y53280470D01*
X42713797Y53281287D01*
X42697943Y53292660D01*
X42696713Y53293741D01*
X42668326Y53307777D01*
X42662716Y53310779D01*
X42635288Y53326614D01*
X42635285Y53326615D01*
X42635282Y53326616D01*
X42633710Y53327037D01*
X42615448Y53333922D01*
X42613990Y53334643D01*
X42613985Y53334645D01*
X42595004Y53338441D01*
X42582919Y53340858D01*
X42576725Y53342306D01*
X42546147Y53350499D01*
X42546144Y53350499D01*
X42544513Y53350499D01*
X42525097Y53352422D01*
X41886472Y53480148D01*
X41833120Y53510100D01*
X41807562Y53565692D01*
X41819562Y53625689D01*
X41820080Y53626601D01*
X41866392Y53706814D01*
X41900500Y53834108D01*
X41900500Y53965892D01*
X41866392Y54093186D01*
X41866390Y54093189D01*
X41866390Y54093191D01*
X41800503Y54207310D01*
X41800501Y54207312D01*
X41800500Y54207314D01*
X41707314Y54300500D01*
X41707311Y54300502D01*
X41707309Y54300504D01*
X41593189Y54366391D01*
X41593191Y54366391D01*
X41540642Y54380471D01*
X41465892Y54400500D01*
X41334108Y54400500D01*
X41206814Y54366392D01*
X41206812Y54366391D01*
X41200882Y54364802D01*
X41139780Y54368005D01*
X41105255Y54390426D01*
X41009572Y54486110D01*
X41009565Y54486116D01*
X40909572Y54586110D01*
X40909565Y54586116D01*
X40815216Y54680467D01*
X40815213Y54680469D01*
X40815212Y54680470D01*
X40735288Y54726614D01*
X40735285Y54726615D01*
X40735232Y54726637D01*
X40734503Y54726825D01*
X40673854Y54743075D01*
X40670453Y54743987D01*
X40626074Y54769608D01*
X40615212Y54780470D01*
X40615209Y54780472D01*
X40535291Y54826613D01*
X40535289Y54826614D01*
X40534627Y54826791D01*
X40534628Y54826791D01*
X40534620Y54826793D01*
X40446144Y54850500D01*
X40446142Y54850500D01*
X40046303Y54850500D01*
X39988112Y54869407D01*
X39952148Y54918907D01*
X39949205Y54968813D01*
X39950499Y54975321D01*
X39950500Y54975328D01*
X39950500Y56024673D01*
X39950498Y56024685D01*
X39941149Y56071683D01*
X39935966Y56097740D01*
X39880601Y56180601D01*
X39880599Y56180603D01*
X39797742Y56235965D01*
X39797740Y56235966D01*
X39797737Y56235967D01*
X39797736Y56235967D01*
X39724684Y56250499D01*
X39724674Y56250500D01*
X39724673Y56250500D01*
X39599500Y56250500D01*
X39541309Y56269407D01*
X39505345Y56318907D01*
X39500500Y56349500D01*
X39500500Y56465891D01*
X39497950Y56475409D01*
X39466392Y56593186D01*
X39466390Y56593189D01*
X39466390Y56593191D01*
X39400503Y56707310D01*
X39400501Y56707312D01*
X39400500Y56707314D01*
X39307314Y56800500D01*
X39307311Y56800502D01*
X39307309Y56800504D01*
X39193189Y56866391D01*
X39193191Y56866391D01*
X39142176Y56880060D01*
X39065892Y56900500D01*
X38934108Y56900500D01*
X38857824Y56880060D01*
X38806809Y56866391D01*
X38692690Y56800504D01*
X38599496Y56707310D01*
X38533609Y56593191D01*
X38526294Y56565891D01*
X38499500Y56465892D01*
X38499500Y56334108D01*
X38522188Y56249435D01*
X38533609Y56206810D01*
X38599496Y56092691D01*
X38599498Y56092689D01*
X38599500Y56092686D01*
X38620505Y56071681D01*
X38648281Y56017166D01*
X38649500Y56001679D01*
X38649500Y55953856D01*
X38673386Y55864712D01*
X38673387Y55864710D01*
X38673388Y55864708D01*
X38686235Y55842458D01*
X38699500Y55792956D01*
X38699500Y55654168D01*
X38680593Y55595977D01*
X38631093Y55560013D01*
X38569907Y55560013D01*
X38520407Y55595977D01*
X38512893Y55608059D01*
X38420233Y55784113D01*
X38195022Y56212012D01*
X38184652Y56272310D01*
X38187001Y56283733D01*
X38200500Y56334108D01*
X38200500Y56465892D01*
X38166392Y56593186D01*
X38166390Y56593189D01*
X38166390Y56593191D01*
X38100503Y56707310D01*
X38100501Y56707312D01*
X38100500Y56707314D01*
X38007314Y56800500D01*
X38007311Y56800502D01*
X38007309Y56800504D01*
X37893189Y56866391D01*
X37893191Y56866391D01*
X37842176Y56880060D01*
X37765892Y56900500D01*
X37634108Y56900500D01*
X37570461Y56883446D01*
X37506812Y56866392D01*
X37468312Y56844163D01*
X37408463Y56831442D01*
X37352568Y56856329D01*
X37338403Y56874388D01*
X37337540Y56873767D01*
X37318710Y56899961D01*
X37313359Y56908245D01*
X37300474Y56930563D01*
X37297429Y56933608D01*
X37292773Y56938265D01*
X37282394Y56950479D01*
X37282379Y56950500D01*
X37276042Y56959316D01*
X37276039Y56959318D01*
X37276039Y56959319D01*
X37276037Y56959321D01*
X37256098Y56975635D01*
X37248785Y56982252D01*
X37027816Y57203221D01*
X37007353Y57233017D01*
X37007090Y57233608D01*
X35970519Y59565892D01*
X38099500Y59565892D01*
X38099500Y59434108D01*
X38122607Y59347872D01*
X38133609Y59306810D01*
X38199496Y59192691D01*
X38199498Y59192689D01*
X38199500Y59192686D01*
X38292686Y59099500D01*
X38292688Y59099499D01*
X38292692Y59099495D01*
X38297832Y59095551D01*
X38297056Y59094541D01*
X38333430Y59054143D01*
X38339864Y59034273D01*
X38575292Y57915988D01*
X38568779Y57855150D01*
X38564154Y57846095D01*
X38544327Y57811752D01*
X38533608Y57793186D01*
X38499500Y57665892D01*
X38499500Y57534108D01*
X38513839Y57480594D01*
X38533609Y57406810D01*
X38599496Y57292691D01*
X38599498Y57292689D01*
X38599500Y57292686D01*
X38692686Y57199500D01*
X38692688Y57199499D01*
X38692690Y57199497D01*
X38806810Y57133610D01*
X38806808Y57133610D01*
X38806812Y57133609D01*
X38806814Y57133608D01*
X38934108Y57099500D01*
X38934110Y57099500D01*
X39065890Y57099500D01*
X39065892Y57099500D01*
X39193186Y57133608D01*
X39193188Y57133610D01*
X39193190Y57133610D01*
X39307309Y57199497D01*
X39307309Y57199498D01*
X39307314Y57199500D01*
X39400500Y57292686D01*
X39413505Y57315211D01*
X39466390Y57406810D01*
X39466390Y57406812D01*
X39466392Y57406814D01*
X39500500Y57534108D01*
X39500500Y57665892D01*
X39466392Y57793186D01*
X39466390Y57793189D01*
X39466390Y57793191D01*
X39400503Y57907310D01*
X39400501Y57907312D01*
X39400500Y57907314D01*
X39307314Y58000500D01*
X39307311Y58000502D01*
X39307310Y58000503D01*
X39302165Y58004451D01*
X39302940Y58005462D01*
X39266566Y58045863D01*
X39260135Y58065724D01*
X39024706Y59184014D01*
X39031219Y59244851D01*
X39035836Y59253891D01*
X39066392Y59306814D01*
X39100500Y59434108D01*
X39100500Y59565892D01*
X39066392Y59693186D01*
X39066390Y59693189D01*
X39066390Y59693191D01*
X39000503Y59807310D01*
X39000501Y59807312D01*
X39000500Y59807314D01*
X38907314Y59900500D01*
X38907311Y59900502D01*
X38907309Y59900504D01*
X38793189Y59966391D01*
X38793191Y59966391D01*
X38743799Y59979625D01*
X38665892Y60000500D01*
X38534108Y60000500D01*
X38456200Y59979625D01*
X38406809Y59966391D01*
X38292690Y59900504D01*
X38199496Y59807310D01*
X38133609Y59693191D01*
X38121445Y59647794D01*
X38099500Y59565892D01*
X35970519Y59565892D01*
X35222413Y61249131D01*
X35216058Y61309985D01*
X35227141Y61338831D01*
X35266392Y61406814D01*
X35300500Y61534108D01*
X35300500Y61665892D01*
X35275119Y61760616D01*
X35278322Y61821714D01*
X35316827Y61869264D01*
X35375927Y61885100D01*
X35377189Y61885026D01*
G37*
%TD.AperFunction*%
%TA.AperFunction,Conductor*%
G36*
X12702736Y52480536D02*
G01*
X12728360Y52436158D01*
X12731757Y52423480D01*
X12733082Y52418538D01*
X12733083Y52418531D01*
X12750089Y52355063D01*
X12750091Y52355059D01*
X12793278Y52280258D01*
X12799525Y52269438D01*
X12799526Y52269437D01*
X13069437Y51999525D01*
X13155063Y51950089D01*
X13172865Y51945319D01*
X13224179Y51911997D01*
X13245023Y51865179D01*
X13259352Y51774700D01*
X13259354Y51774696D01*
X13316950Y51661658D01*
X13316952Y51661656D01*
X13333605Y51645002D01*
X13361381Y51590485D01*
X13351809Y51530053D01*
X13333605Y51504998D01*
X13316952Y51488345D01*
X13316950Y51488342D01*
X13259354Y51375305D01*
X13244500Y51281522D01*
X13244500Y51181190D01*
X13225593Y51122999D01*
X13215503Y51111186D01*
X13120002Y51015686D01*
X13065486Y50987909D01*
X13005053Y50997481D01*
X12979995Y51015686D01*
X12967449Y51028232D01*
X12915212Y51080470D01*
X12915210Y51080471D01*
X12909569Y51086113D01*
X12909565Y51086116D01*
X12824495Y51171187D01*
X12796718Y51225704D01*
X12795499Y51241190D01*
X12795499Y51281522D01*
X12795498Y51281524D01*
X12780647Y51375300D01*
X12780646Y51375302D01*
X12780646Y51375304D01*
X12723050Y51488342D01*
X12633342Y51578050D01*
X12520304Y51635646D01*
X12520305Y51635646D01*
X12426521Y51650500D01*
X11338478Y51650500D01*
X11338476Y51650499D01*
X11244700Y51635648D01*
X11244695Y51635646D01*
X11131658Y51578050D01*
X11131656Y51578049D01*
X11046953Y51493347D01*
X10992436Y51465570D01*
X10972829Y51464437D01*
X9345379Y51532247D01*
X9288025Y51553560D01*
X9254153Y51604515D01*
X9250500Y51631161D01*
X9250500Y52250500D01*
X9269407Y52308691D01*
X9318907Y52344655D01*
X9349500Y52349500D01*
X11346142Y52349500D01*
X11346144Y52349500D01*
X11435288Y52373386D01*
X11515212Y52419531D01*
X11516186Y52420507D01*
X11517066Y52420955D01*
X11520358Y52423480D01*
X11520826Y52422870D01*
X11570702Y52448282D01*
X11586189Y52449501D01*
X12426521Y52449501D01*
X12426522Y52449502D01*
X12490886Y52459695D01*
X12520299Y52464353D01*
X12520301Y52464353D01*
X12520302Y52464354D01*
X12520304Y52464354D01*
X12587791Y52498741D01*
X12648219Y52508312D01*
X12702736Y52480536D01*
G37*
%TD.AperFunction*%
%TA.AperFunction,Conductor*%
G36*
X33151959Y66881094D02*
G01*
X33187923Y66831594D01*
X33187923Y66770408D01*
X33176141Y66746086D01*
X32828401Y66224477D01*
X32780391Y66186547D01*
X32771652Y66183766D01*
X32706814Y66166393D01*
X32706810Y66166391D01*
X32592690Y66100504D01*
X32499496Y66007310D01*
X32433609Y65893191D01*
X32399500Y65765891D01*
X32399500Y65699500D01*
X32380593Y65641309D01*
X32331093Y65605345D01*
X32300500Y65600500D01*
X31575326Y65600500D01*
X31575325Y65600500D01*
X31575315Y65600499D01*
X31502263Y65585967D01*
X31502257Y65585965D01*
X31419401Y65530603D01*
X31419395Y65530597D01*
X31418441Y65529168D01*
X31416202Y65527404D01*
X31412505Y65523706D01*
X31412067Y65524144D01*
X31370390Y65491291D01*
X31310506Y65488546D01*
X31282761Y65495980D01*
X31265892Y65500500D01*
X31134108Y65500500D01*
X31056200Y65479625D01*
X31006809Y65466391D01*
X30892690Y65400504D01*
X30799496Y65307310D01*
X30733609Y65193191D01*
X30733608Y65193186D01*
X30699500Y65065892D01*
X30699500Y64934108D01*
X30710599Y64892687D01*
X30733609Y64806810D01*
X30799496Y64692691D01*
X30799498Y64692689D01*
X30799500Y64692686D01*
X30892686Y64599500D01*
X30892688Y64599499D01*
X30892690Y64599497D01*
X31006810Y64533610D01*
X31006808Y64533610D01*
X31006812Y64533609D01*
X31006814Y64533608D01*
X31134108Y64499500D01*
X31134110Y64499500D01*
X31250500Y64499500D01*
X31308691Y64480593D01*
X31344655Y64431093D01*
X31349500Y64400500D01*
X31349500Y64075328D01*
X31349501Y64075316D01*
X31364033Y64002264D01*
X31364035Y64002258D01*
X31419397Y63919401D01*
X31419400Y63919398D01*
X31464572Y63889216D01*
X31502260Y63864034D01*
X31557323Y63853081D01*
X31575315Y63849502D01*
X31575320Y63849502D01*
X31575326Y63849500D01*
X31575327Y63849500D01*
X32424673Y63849500D01*
X32424674Y63849500D01*
X32497740Y63864034D01*
X32580601Y63919399D01*
X32591396Y63935554D01*
X32626742Y63988455D01*
X32674791Y64026335D01*
X32735929Y64028739D01*
X32786803Y63994747D01*
X32807906Y63938946D01*
X32846908Y63236899D01*
X32831257Y63177750D01*
X32783828Y63139095D01*
X32773683Y63135781D01*
X32687508Y63112691D01*
X32573389Y63046804D01*
X32480195Y62953610D01*
X32414308Y62839491D01*
X32380199Y62712191D01*
X32380199Y62597003D01*
X32376826Y62571381D01*
X32365000Y62527244D01*
X32365000Y62299500D01*
X32346093Y62241309D01*
X32296593Y62205345D01*
X32266000Y62200500D01*
X31575326Y62200500D01*
X31575325Y62200500D01*
X31575315Y62200499D01*
X31502263Y62185967D01*
X31502257Y62185965D01*
X31419400Y62130603D01*
X31419397Y62130600D01*
X31364035Y62047743D01*
X31364033Y62047737D01*
X31349501Y61974685D01*
X31349500Y61974673D01*
X31349500Y61525328D01*
X31349501Y61525316D01*
X31364033Y61452264D01*
X31364035Y61452258D01*
X31412315Y61380001D01*
X31428923Y61321113D01*
X31412315Y61269999D01*
X31364035Y61197743D01*
X31364033Y61197737D01*
X31349501Y61124685D01*
X31349500Y61124673D01*
X31349500Y60799500D01*
X31330593Y60741309D01*
X31281093Y60705345D01*
X31250500Y60700500D01*
X31134108Y60700500D01*
X31056200Y60679625D01*
X31006809Y60666391D01*
X30892690Y60600504D01*
X30799496Y60507310D01*
X30733609Y60393191D01*
X30721432Y60347743D01*
X30699500Y60265892D01*
X30699500Y60134108D01*
X30716877Y60069257D01*
X30733609Y60006810D01*
X30799496Y59892691D01*
X30799498Y59892689D01*
X30799500Y59892686D01*
X30892686Y59799500D01*
X30892688Y59799499D01*
X30892690Y59799497D01*
X31006810Y59733610D01*
X31006808Y59733610D01*
X31006812Y59733609D01*
X31006814Y59733608D01*
X31134108Y59699500D01*
X31134110Y59699500D01*
X31265893Y59699500D01*
X31265893Y59699501D01*
X31286619Y59705055D01*
X31295573Y59707453D01*
X31356674Y59704252D01*
X31404225Y59665747D01*
X31420061Y59606647D01*
X31403513Y59556826D01*
X31364035Y59497743D01*
X31364033Y59497737D01*
X31349501Y59424685D01*
X31349500Y59424673D01*
X31349500Y58975328D01*
X31349501Y58975316D01*
X31364033Y58902264D01*
X31364035Y58902258D01*
X31412315Y58830001D01*
X31428923Y58771113D01*
X31412315Y58719999D01*
X31364035Y58647743D01*
X31364033Y58647737D01*
X31349501Y58574685D01*
X31349500Y58574673D01*
X31349500Y58299500D01*
X31330593Y58241309D01*
X31281093Y58205345D01*
X31250500Y58200500D01*
X31134108Y58200500D01*
X31059358Y58180471D01*
X31006809Y58166391D01*
X30892690Y58100504D01*
X30799496Y58007310D01*
X30733609Y57893191D01*
X30718741Y57837702D01*
X30699500Y57765892D01*
X30699500Y57634108D01*
X30726294Y57534110D01*
X30733609Y57506810D01*
X30799496Y57392691D01*
X30799498Y57392689D01*
X30799500Y57392686D01*
X30892686Y57299500D01*
X30892688Y57299499D01*
X30892690Y57299497D01*
X31006810Y57233610D01*
X31006808Y57233610D01*
X31006812Y57233609D01*
X31006814Y57233608D01*
X31134108Y57199500D01*
X31134110Y57199500D01*
X31265890Y57199500D01*
X31265892Y57199500D01*
X31282170Y57203862D01*
X31343270Y57200660D01*
X31390106Y57163238D01*
X31403511Y57143177D01*
X31420121Y57084290D01*
X31398945Y57026885D01*
X31348072Y56992892D01*
X31295576Y56992547D01*
X31265894Y57000500D01*
X31265892Y57000500D01*
X31134108Y57000500D01*
X31066005Y56982252D01*
X31006809Y56966391D01*
X30892690Y56900504D01*
X30799496Y56807310D01*
X30733609Y56693191D01*
X30723325Y56654808D01*
X30699500Y56565892D01*
X30699500Y56434108D01*
X30726294Y56334110D01*
X30733609Y56306810D01*
X30799496Y56192691D01*
X30799501Y56192685D01*
X30822183Y56170002D01*
X30849959Y56115485D01*
X30840387Y56055053D01*
X30822183Y56029998D01*
X30799501Y56007316D01*
X30799496Y56007310D01*
X30733609Y55893191D01*
X30723393Y55855062D01*
X30699500Y55765892D01*
X30699500Y55634108D01*
X30715253Y55575316D01*
X30733609Y55506810D01*
X30799496Y55392691D01*
X30799498Y55392689D01*
X30799500Y55392686D01*
X30892686Y55299500D01*
X30892688Y55299499D01*
X30892690Y55299497D01*
X31006810Y55233610D01*
X31006808Y55233610D01*
X31006812Y55233609D01*
X31006814Y55233608D01*
X31134108Y55199500D01*
X31134110Y55199500D01*
X31250500Y55199500D01*
X31308691Y55180593D01*
X31344655Y55131093D01*
X31349500Y55100500D01*
X31349500Y54725328D01*
X31349501Y54725316D01*
X31364033Y54652264D01*
X31364035Y54652258D01*
X31412315Y54580001D01*
X31428923Y54521113D01*
X31412315Y54469999D01*
X31364035Y54397743D01*
X31364033Y54397737D01*
X31349501Y54324685D01*
X31349500Y54324673D01*
X31349500Y53875328D01*
X31349501Y53875316D01*
X31364033Y53802264D01*
X31364035Y53802258D01*
X31412315Y53730001D01*
X31428923Y53671113D01*
X31412315Y53619999D01*
X31364035Y53547743D01*
X31364033Y53547737D01*
X31349501Y53474685D01*
X31349500Y53474675D01*
X31349500Y53474674D01*
X31349500Y53025326D01*
X31360420Y52970427D01*
X31364005Y52952408D01*
X31356814Y52891646D01*
X31315281Y52846716D01*
X31255272Y52834779D01*
X31247602Y52835994D01*
X31174674Y52850500D01*
X30725326Y52850500D01*
X30725325Y52850500D01*
X30725315Y52850499D01*
X30652263Y52835967D01*
X30652257Y52835965D01*
X30580001Y52787685D01*
X30521113Y52771077D01*
X30469999Y52787685D01*
X30397742Y52835965D01*
X30397740Y52835966D01*
X30397737Y52835967D01*
X30397736Y52835967D01*
X30324684Y52850499D01*
X30324674Y52850500D01*
X29875326Y52850500D01*
X29875325Y52850500D01*
X29875315Y52850499D01*
X29802263Y52835967D01*
X29802257Y52835965D01*
X29730001Y52787685D01*
X29671113Y52771077D01*
X29619999Y52787685D01*
X29547742Y52835965D01*
X29547740Y52835966D01*
X29547737Y52835967D01*
X29547736Y52835967D01*
X29474684Y52850499D01*
X29474674Y52850500D01*
X29025326Y52850500D01*
X29025325Y52850500D01*
X29025315Y52850499D01*
X28952263Y52835967D01*
X28952257Y52835965D01*
X28880001Y52787685D01*
X28821113Y52771077D01*
X28769999Y52787685D01*
X28697742Y52835965D01*
X28697740Y52835966D01*
X28697737Y52835967D01*
X28697736Y52835967D01*
X28624684Y52850499D01*
X28624674Y52850500D01*
X28175326Y52850500D01*
X28175325Y52850500D01*
X28175315Y52850499D01*
X28102263Y52835967D01*
X28102257Y52835965D01*
X28030001Y52787685D01*
X27971113Y52771077D01*
X27919999Y52787685D01*
X27847742Y52835965D01*
X27847740Y52835966D01*
X27847737Y52835967D01*
X27847736Y52835967D01*
X27774684Y52850499D01*
X27774674Y52850500D01*
X27325326Y52850500D01*
X27325325Y52850500D01*
X27325315Y52850499D01*
X27252263Y52835967D01*
X27252257Y52835965D01*
X27180001Y52787685D01*
X27121113Y52771077D01*
X27069999Y52787685D01*
X26997742Y52835965D01*
X26997740Y52835966D01*
X26997737Y52835967D01*
X26997736Y52835967D01*
X26924684Y52850499D01*
X26924674Y52850500D01*
X26475326Y52850500D01*
X26475325Y52850500D01*
X26475315Y52850499D01*
X26402263Y52835967D01*
X26402257Y52835965D01*
X26330001Y52787685D01*
X26271113Y52771077D01*
X26219999Y52787685D01*
X26147742Y52835965D01*
X26147740Y52835966D01*
X26147737Y52835967D01*
X26147736Y52835967D01*
X26074684Y52850499D01*
X26074674Y52850500D01*
X25625326Y52850500D01*
X25625325Y52850500D01*
X25625315Y52850499D01*
X25552263Y52835967D01*
X25552257Y52835965D01*
X25480001Y52787685D01*
X25421113Y52771077D01*
X25369999Y52787685D01*
X25297742Y52835965D01*
X25297738Y52835967D01*
X25280182Y52839459D01*
X25226799Y52869358D01*
X25201186Y52924924D01*
X25200500Y52936556D01*
X25200500Y53065891D01*
X25200154Y53067184D01*
X25166392Y53193186D01*
X25166390Y53193189D01*
X25166390Y53193191D01*
X25100503Y53307310D01*
X25100501Y53307312D01*
X25100500Y53307314D01*
X25007314Y53400500D01*
X25007311Y53400502D01*
X25007309Y53400504D01*
X24893189Y53466391D01*
X24893191Y53466391D01*
X24841847Y53480148D01*
X24765892Y53500500D01*
X24634108Y53500500D01*
X24558153Y53480148D01*
X24506809Y53466391D01*
X24392690Y53400504D01*
X24299496Y53307310D01*
X24233609Y53193191D01*
X24228941Y53175768D01*
X24200001Y53067759D01*
X24199500Y53065891D01*
X24199500Y52949500D01*
X24180593Y52891309D01*
X24131093Y52855345D01*
X24100500Y52850500D01*
X23925326Y52850500D01*
X23925325Y52850500D01*
X23925315Y52850499D01*
X23852263Y52835967D01*
X23852257Y52835965D01*
X23780001Y52787685D01*
X23721113Y52771077D01*
X23669999Y52787685D01*
X23597742Y52835965D01*
X23597740Y52835966D01*
X23597737Y52835967D01*
X23597736Y52835967D01*
X23524684Y52850499D01*
X23524674Y52850500D01*
X23075326Y52850500D01*
X23075325Y52850500D01*
X23075315Y52850499D01*
X23002263Y52835967D01*
X23002257Y52835965D01*
X22930001Y52787685D01*
X22871113Y52771077D01*
X22819999Y52787685D01*
X22747742Y52835965D01*
X22747740Y52835966D01*
X22747737Y52835967D01*
X22747736Y52835967D01*
X22674684Y52850499D01*
X22674674Y52850500D01*
X22225326Y52850500D01*
X22225325Y52850500D01*
X22225315Y52850499D01*
X22152263Y52835967D01*
X22152257Y52835965D01*
X22080001Y52787685D01*
X22021113Y52771077D01*
X21969999Y52787685D01*
X21897742Y52835965D01*
X21897740Y52835966D01*
X21897737Y52835967D01*
X21897736Y52835967D01*
X21824684Y52850499D01*
X21824674Y52850500D01*
X21375326Y52850500D01*
X21375325Y52850500D01*
X21375315Y52850499D01*
X21302263Y52835967D01*
X21302257Y52835965D01*
X21230001Y52787685D01*
X21171113Y52771077D01*
X21119999Y52787685D01*
X21047742Y52835965D01*
X21047740Y52835966D01*
X21047737Y52835967D01*
X21047736Y52835967D01*
X20974684Y52850499D01*
X20974674Y52850500D01*
X20974673Y52850500D01*
X20799500Y52850500D01*
X20741309Y52869407D01*
X20705345Y52918907D01*
X20700500Y52949500D01*
X20700500Y53065891D01*
X20700154Y53067184D01*
X20666392Y53193186D01*
X20666390Y53193189D01*
X20666390Y53193191D01*
X20600503Y53307310D01*
X20600501Y53307312D01*
X20600500Y53307314D01*
X20507314Y53400500D01*
X20507311Y53400502D01*
X20507309Y53400504D01*
X20393189Y53466391D01*
X20393191Y53466391D01*
X20341847Y53480148D01*
X20265892Y53500500D01*
X20134108Y53500500D01*
X20058153Y53480148D01*
X20006809Y53466391D01*
X19892690Y53400504D01*
X19799498Y53307312D01*
X19785736Y53283475D01*
X19740266Y53242535D01*
X19679416Y53236140D01*
X19626428Y53266733D01*
X19614264Y53283475D01*
X19600501Y53307312D01*
X19600500Y53307314D01*
X19507314Y53400500D01*
X19507311Y53400502D01*
X19507309Y53400504D01*
X19393189Y53466391D01*
X19393191Y53466391D01*
X19341847Y53480148D01*
X19265892Y53500500D01*
X19134108Y53500500D01*
X19058153Y53480148D01*
X19006809Y53466391D01*
X18892690Y53400504D01*
X18892689Y53400503D01*
X18892686Y53400501D01*
X18892686Y53400500D01*
X18819501Y53327316D01*
X18764987Y53299540D01*
X18704555Y53309111D01*
X18661290Y53352376D01*
X18650500Y53397321D01*
X18650500Y53474673D01*
X18650498Y53474685D01*
X18643453Y53510100D01*
X18635966Y53547740D01*
X18597810Y53604845D01*
X18587685Y53619999D01*
X18571077Y53678887D01*
X18587685Y53730001D01*
X18599500Y53747684D01*
X18635966Y53802260D01*
X18650500Y53875326D01*
X18650500Y54324674D01*
X18648623Y54334108D01*
X18642202Y54366391D01*
X18635966Y54397740D01*
X18587685Y54469999D01*
X18571077Y54528887D01*
X18587685Y54580001D01*
X18605933Y54607312D01*
X18635966Y54652260D01*
X18650500Y54725326D01*
X18650500Y55174674D01*
X18635966Y55247740D01*
X18601382Y55299500D01*
X18587685Y55319999D01*
X18571077Y55378887D01*
X18587685Y55430001D01*
X18596514Y55443215D01*
X18635966Y55502260D01*
X18650500Y55575326D01*
X18650500Y56024674D01*
X18635966Y56097740D01*
X18587685Y56169999D01*
X18571077Y56228887D01*
X18587685Y56280001D01*
X18610600Y56314297D01*
X18635966Y56352260D01*
X18650500Y56425326D01*
X18650500Y56665892D01*
X21899500Y56665892D01*
X21899500Y56534108D01*
X21909279Y56497612D01*
X21933609Y56406810D01*
X21999496Y56292691D01*
X21999498Y56292689D01*
X21999500Y56292686D01*
X22092686Y56199500D01*
X22092688Y56199499D01*
X22092690Y56199497D01*
X22206810Y56133610D01*
X22206808Y56133610D01*
X22206812Y56133609D01*
X22206814Y56133608D01*
X22334108Y56099500D01*
X22334110Y56099500D01*
X22465890Y56099500D01*
X22465892Y56099500D01*
X22593186Y56133608D01*
X22593188Y56133610D01*
X22593190Y56133610D01*
X22707309Y56199497D01*
X22707309Y56199498D01*
X22707314Y56199500D01*
X22728319Y56220506D01*
X22782834Y56248281D01*
X22798321Y56249500D01*
X27546142Y56249500D01*
X27546144Y56249500D01*
X27635288Y56273386D01*
X27715212Y56319530D01*
X27880469Y56484788D01*
X27926614Y56564712D01*
X27930836Y56580469D01*
X27931994Y56584788D01*
X27940792Y56617627D01*
X27950500Y56653856D01*
X27950500Y61401679D01*
X27969407Y61459870D01*
X27979490Y61471677D01*
X28000500Y61492686D01*
X28002947Y61496924D01*
X28066390Y61606810D01*
X28066390Y61606812D01*
X28066392Y61606814D01*
X28100500Y61734108D01*
X28100500Y61865892D01*
X28066392Y61993186D01*
X28066390Y61993189D01*
X28066390Y61993191D01*
X28000503Y62107310D01*
X28000501Y62107312D01*
X28000500Y62107314D01*
X27907314Y62200500D01*
X27907311Y62200502D01*
X27907309Y62200504D01*
X27793189Y62266391D01*
X27793191Y62266391D01*
X27743799Y62279625D01*
X27665892Y62300500D01*
X27534108Y62300500D01*
X27456200Y62279625D01*
X27406809Y62266391D01*
X27292690Y62200504D01*
X27199496Y62107310D01*
X27133609Y61993191D01*
X27122906Y61953246D01*
X27099500Y61865892D01*
X27099500Y61734108D01*
X27116115Y61672101D01*
X27133609Y61606810D01*
X27199496Y61492691D01*
X27199498Y61492689D01*
X27199500Y61492686D01*
X27220505Y61471681D01*
X27248281Y61417166D01*
X27249500Y61401679D01*
X27249500Y57049500D01*
X27230593Y56991309D01*
X27181093Y56955345D01*
X27150500Y56950500D01*
X22798321Y56950500D01*
X22740130Y56969407D01*
X22728323Y56979491D01*
X22707314Y57000500D01*
X22707311Y57000502D01*
X22707309Y57000504D01*
X22593189Y57066391D01*
X22593191Y57066391D01*
X22526389Y57084290D01*
X22465892Y57100500D01*
X22334108Y57100500D01*
X22273611Y57084290D01*
X22206809Y57066391D01*
X22092690Y57000504D01*
X21999496Y56907310D01*
X21933609Y56793191D01*
X21928032Y56772377D01*
X21899500Y56665892D01*
X18650500Y56665892D01*
X18650500Y56874674D01*
X18635966Y56947740D01*
X18620969Y56970185D01*
X18587685Y57019999D01*
X18571077Y57078887D01*
X18587685Y57130001D01*
X18616977Y57173841D01*
X18635966Y57202260D01*
X18650500Y57275326D01*
X18650500Y57724674D01*
X18635966Y57797740D01*
X18609264Y57837703D01*
X18587685Y57869999D01*
X18571077Y57928887D01*
X18587685Y57980001D01*
X18593543Y57988769D01*
X18635966Y58052260D01*
X18650500Y58125326D01*
X18650500Y58574674D01*
X18635966Y58647740D01*
X18614015Y58680593D01*
X18587685Y58719999D01*
X18571077Y58778887D01*
X18587685Y58830001D01*
X18614032Y58869433D01*
X18635966Y58902260D01*
X18650500Y58975326D01*
X18650500Y59424674D01*
X18648623Y59434108D01*
X18641583Y59469500D01*
X18635966Y59497740D01*
X18587685Y59569999D01*
X18571077Y59628887D01*
X18587685Y59680001D01*
X18596498Y59693191D01*
X18635966Y59752260D01*
X18650500Y59825326D01*
X18650500Y60274674D01*
X18635966Y60347740D01*
X18614609Y60379704D01*
X18587685Y60419999D01*
X18571077Y60478887D01*
X18587685Y60530001D01*
X18593543Y60538769D01*
X18635966Y60602260D01*
X18650500Y60675326D01*
X18650500Y61124674D01*
X18635966Y61197740D01*
X18587685Y61269999D01*
X18571077Y61328887D01*
X18587685Y61380001D01*
X18605932Y61407310D01*
X18635966Y61452260D01*
X18650500Y61525326D01*
X18650500Y61974674D01*
X18635966Y62047740D01*
X18587685Y62119999D01*
X18571077Y62178887D01*
X18587685Y62230001D01*
X18606276Y62257825D01*
X18635966Y62302260D01*
X18650500Y62375326D01*
X18650500Y62824674D01*
X18635966Y62897740D01*
X18604896Y62944241D01*
X18587685Y62969999D01*
X18571077Y63028887D01*
X18587685Y63080001D01*
X18605600Y63106814D01*
X18635966Y63152260D01*
X18650500Y63225326D01*
X18650500Y63674674D01*
X18635966Y63747740D01*
X18621206Y63769830D01*
X18580602Y63830600D01*
X18580599Y63830603D01*
X18497742Y63885965D01*
X18497740Y63885966D01*
X18497737Y63885967D01*
X18497736Y63885967D01*
X18424684Y63900499D01*
X18424674Y63900500D01*
X17575326Y63900500D01*
X17575325Y63900500D01*
X17575315Y63900499D01*
X17561283Y63897708D01*
X17500522Y63904901D01*
X17492472Y63909070D01*
X17393189Y63966391D01*
X17393191Y63966391D01*
X17333670Y63982339D01*
X17265892Y64000500D01*
X17134108Y64000500D01*
X17037831Y63974704D01*
X16976730Y63977906D01*
X16929180Y64016411D01*
X16924010Y64025366D01*
X16889859Y64092391D01*
X16802391Y64179859D01*
X16692175Y64236017D01*
X16692176Y64236017D01*
X16600737Y64250500D01*
X16600735Y64250500D01*
X16321545Y64250500D01*
X16263354Y64269407D01*
X16251541Y64279496D01*
X16230563Y64300474D01*
X16230563Y64300475D01*
X16144941Y64349909D01*
X16144934Y64349912D01*
X16089695Y64364713D01*
X16089694Y64364713D01*
X16049438Y64375500D01*
X16049436Y64375500D01*
X16049435Y64375500D01*
X15896545Y64375500D01*
X15838354Y64394407D01*
X15826541Y64404496D01*
X15804496Y64426541D01*
X15776719Y64481058D01*
X15775500Y64496545D01*
X15775500Y64526679D01*
X15794407Y64584870D01*
X15796630Y64587474D01*
X15796548Y64587537D01*
X15800491Y64592678D01*
X15800500Y64592686D01*
X15823804Y64633053D01*
X15827127Y64638404D01*
X15983512Y64872982D01*
X15995875Y64888062D01*
X16000500Y64892686D01*
X16023805Y64933055D01*
X16027157Y64938449D01*
X16045453Y64965891D01*
X16052991Y64977198D01*
X16055081Y64983378D01*
X16063129Y65001164D01*
X16066392Y65006814D01*
X16078459Y65051854D01*
X16080280Y65057871D01*
X16095222Y65102033D01*
X16095642Y65108552D01*
X16098809Y65127800D01*
X16100500Y65134108D01*
X16100500Y65151679D01*
X16119407Y65209870D01*
X16129496Y65221683D01*
X16153318Y65245505D01*
X16207835Y65273282D01*
X16223322Y65274501D01*
X16445479Y65274501D01*
X16445484Y65274501D01*
X16502114Y65280588D01*
X16630226Y65328372D01*
X16739687Y65410313D01*
X16821628Y65519774D01*
X16869412Y65647886D01*
X16875500Y65704515D01*
X16875499Y66295484D01*
X16869412Y66352114D01*
X16821628Y66480226D01*
X16739687Y66589687D01*
X16685167Y66630500D01*
X16630228Y66671627D01*
X16630226Y66671628D01*
X16532055Y66708245D01*
X16484143Y66746294D01*
X16467746Y66805242D01*
X16489128Y66862569D01*
X16540123Y66896380D01*
X16566655Y66900001D01*
X33093768Y66900001D01*
X33151959Y66881094D01*
G37*
%TD.AperFunction*%
%TA.AperFunction,Conductor*%
G36*
X11487231Y54855594D02*
G01*
X11507184Y54836283D01*
X11920234Y54305219D01*
X11920825Y54304460D01*
X11941626Y54246919D01*
X11924633Y54188141D01*
X11892180Y54157944D01*
X11792688Y54100502D01*
X11699496Y54007310D01*
X11633609Y53893191D01*
X11628823Y53875328D01*
X11600160Y53768353D01*
X11599500Y53765891D01*
X11599500Y53649500D01*
X11580593Y53591309D01*
X11531093Y53555345D01*
X11500501Y53550500D01*
X11338479Y53550500D01*
X11338476Y53550499D01*
X11244700Y53535648D01*
X11244695Y53535646D01*
X11131659Y53478051D01*
X11041949Y53388341D01*
X10984354Y53275305D01*
X10969500Y53181522D01*
X10969500Y53149500D01*
X10950593Y53091309D01*
X10901093Y53055345D01*
X10870500Y53050500D01*
X9998945Y53050500D01*
X9940754Y53069407D01*
X9904790Y53118907D01*
X9904790Y53180093D01*
X9910004Y53192980D01*
X9911352Y53195738D01*
X9939582Y53253482D01*
X9950500Y53328418D01*
X9950500Y53771582D01*
X9939582Y53846518D01*
X9883076Y53962102D01*
X9868220Y53976958D01*
X9840445Y54031472D01*
X9850016Y54091904D01*
X9893281Y54135169D01*
X9929260Y54145552D01*
X10518226Y54199093D01*
X10527189Y54199500D01*
X10565893Y54199500D01*
X10569949Y54200588D01*
X10579864Y54203245D01*
X10596519Y54206212D01*
X10610934Y54207521D01*
X10647263Y54220885D01*
X10655787Y54223589D01*
X10693186Y54233608D01*
X10705719Y54240845D01*
X10721038Y54248020D01*
X10734618Y54253014D01*
X10763502Y54273386D01*
X10766243Y54275319D01*
X10773799Y54280151D01*
X10807314Y54299500D01*
X10817544Y54309731D01*
X10830488Y54320630D01*
X10842311Y54328968D01*
X10867093Y54358708D01*
X10873122Y54365310D01*
X10900500Y54392686D01*
X10907740Y54405228D01*
X10917416Y54419094D01*
X10926678Y54430208D01*
X10942917Y54465345D01*
X10947036Y54473291D01*
X10966392Y54506814D01*
X10970135Y54520786D01*
X10975899Y54536705D01*
X10981967Y54549833D01*
X10988556Y54587960D01*
X10990483Y54596725D01*
X10993320Y54607314D01*
X11000500Y54634108D01*
X11000500Y54648576D01*
X11001946Y54665436D01*
X11004410Y54679693D01*
X11004410Y54679695D01*
X11003959Y54684657D01*
X11017519Y54744321D01*
X11025246Y54755465D01*
X11033987Y54766391D01*
X11090750Y54837346D01*
X11141864Y54870974D01*
X11168055Y54874501D01*
X11429040Y54874501D01*
X11487231Y54855594D01*
G37*
%TD.AperFunction*%
%TA.AperFunction,Conductor*%
G36*
X43176213Y63610593D02*
G01*
X43212177Y63561093D01*
X43212553Y63559910D01*
X44534415Y59311068D01*
X44536874Y59301507D01*
X44542035Y59276287D01*
X44546912Y59266533D01*
X44552894Y59251672D01*
X44556136Y59241250D01*
X44556139Y59241244D01*
X44569888Y59219479D01*
X44574737Y59210881D01*
X44758069Y58844217D01*
X44760453Y58839088D01*
X44774641Y58806129D01*
X44774647Y58806120D01*
X44775085Y58805565D01*
X44785935Y58788487D01*
X44786251Y58787855D01*
X44786253Y58787852D01*
X44810048Y58761017D01*
X44813678Y58756680D01*
X47693121Y55109386D01*
X47714339Y55051997D01*
X47714237Y55042052D01*
X47642264Y53854495D01*
X47619871Y53797555D01*
X47568286Y53764651D01*
X47507212Y53768353D01*
X47484116Y53781231D01*
X47467329Y53793798D01*
X47332488Y53844090D01*
X47332483Y53844091D01*
X47332481Y53844092D01*
X47332477Y53844092D01*
X47301249Y53847450D01*
X47272873Y53850500D01*
X47272870Y53850500D01*
X46288074Y53850500D01*
X46229883Y53869407D01*
X46204706Y53896107D01*
X46186885Y53923932D01*
X45819943Y54496878D01*
X40533331Y62751412D01*
X40517869Y62810612D01*
X40540157Y62867593D01*
X40591681Y62900592D01*
X40606835Y62903312D01*
X40808085Y62923437D01*
X40820307Y62923898D01*
X40840315Y62923412D01*
X40856532Y62927340D01*
X40869960Y62929625D01*
X40886553Y62931283D01*
X40886556Y62931284D01*
X40905252Y62938353D01*
X40916974Y62941973D01*
X40936410Y62946678D01*
X40951056Y62954668D01*
X40963434Y62960350D01*
X40979036Y62966248D01*
X40995279Y62977926D01*
X41005646Y62984444D01*
X42123207Y63594022D01*
X42131771Y63602181D01*
X42186944Y63628628D01*
X42200056Y63629500D01*
X43118022Y63629500D01*
X43176213Y63610593D01*
G37*
%TD.AperFunction*%
%TA.AperFunction,Conductor*%
G36*
X13073571Y60633269D02*
G01*
X13085734Y60616529D01*
X13099500Y60592686D01*
X13192686Y60499500D01*
X13192688Y60499499D01*
X13192690Y60499497D01*
X13306810Y60433610D01*
X13306808Y60433610D01*
X13306812Y60433609D01*
X13306814Y60433608D01*
X13434108Y60399500D01*
X13434110Y60399500D01*
X13565890Y60399500D01*
X13565892Y60399500D01*
X13693186Y60433608D01*
X13693187Y60433609D01*
X13699454Y60435288D01*
X13700263Y60432269D01*
X13748458Y60436138D01*
X13800678Y60404252D01*
X13824182Y60347761D01*
X13824500Y60339837D01*
X13824500Y59469500D01*
X13805593Y59411309D01*
X13756093Y59375345D01*
X13725500Y59370500D01*
X13255123Y59370500D01*
X13230005Y59367586D01*
X13127231Y59322207D01*
X13047793Y59242769D01*
X13002414Y59139995D01*
X12999500Y59114877D01*
X12999500Y58885124D01*
X13002414Y58860006D01*
X13002414Y58860004D01*
X13002415Y58860003D01*
X13033330Y58789987D01*
X13039538Y58729118D01*
X13033331Y58710017D01*
X13007899Y58652418D01*
X13002414Y58639995D01*
X12999500Y58614877D01*
X12999500Y58385124D01*
X13002414Y58360006D01*
X13002414Y58360004D01*
X13002415Y58360003D01*
X13033330Y58289987D01*
X13039538Y58229118D01*
X13033331Y58210017D01*
X13014069Y58166391D01*
X13002414Y58139995D01*
X12999500Y58114877D01*
X12999500Y57999500D01*
X12980593Y57941309D01*
X12931093Y57905345D01*
X12900500Y57900500D01*
X12785123Y57900500D01*
X12760005Y57897586D01*
X12657231Y57852207D01*
X12577793Y57772769D01*
X12532414Y57669995D01*
X12529500Y57644877D01*
X12529500Y57055124D01*
X12532414Y57030006D01*
X12532414Y57030004D01*
X12532415Y57030003D01*
X12577793Y56927231D01*
X12657231Y56847793D01*
X12760003Y56802415D01*
X12785126Y56799501D01*
X12785127Y56799500D01*
X12785128Y56799500D01*
X13014873Y56799500D01*
X13014873Y56799501D01*
X13039997Y56802415D01*
X13127532Y56841066D01*
X13167518Y56849500D01*
X13613811Y56849500D01*
X13672002Y56830593D01*
X13683813Y56820505D01*
X13713883Y56790436D01*
X13713887Y56790431D01*
X13713888Y56790431D01*
X13719529Y56784790D01*
X13719530Y56784788D01*
X13727055Y56777263D01*
X13748705Y56736725D01*
X13751117Y56737540D01*
X13763342Y56701400D01*
X13765188Y56695304D01*
X13773386Y56664712D01*
X13773388Y56664708D01*
X13774204Y56663294D01*
X13782240Y56645536D01*
X13782767Y56643978D01*
X13782769Y56643974D01*
X13800333Y56617627D01*
X13803693Y56612217D01*
X13819530Y56584789D01*
X13820687Y56583632D01*
X13833056Y56568543D01*
X14200333Y56017628D01*
X14203696Y56012213D01*
X14219530Y55984787D01*
X14220691Y55983626D01*
X14233050Y55968550D01*
X14233960Y55967185D01*
X14257748Y55946280D01*
X14262398Y55941920D01*
X14313884Y55890435D01*
X14313887Y55890431D01*
X14313888Y55890431D01*
X14319529Y55884790D01*
X14319530Y55884788D01*
X14330390Y55873928D01*
X14356012Y55829549D01*
X14373385Y55764713D01*
X14416273Y55690431D01*
X14419531Y55684788D01*
X14484788Y55619531D01*
X14484790Y55619530D01*
X14499999Y55610749D01*
X14540940Y55565280D01*
X14549500Y55525012D01*
X14549500Y55024751D01*
X14530593Y54966560D01*
X14509900Y54945551D01*
X14356233Y54830300D01*
X14298336Y54810511D01*
X14296833Y54810500D01*
X13978418Y54810500D01*
X13918541Y54801776D01*
X13903482Y54799582D01*
X13787899Y54743077D01*
X13787896Y54743075D01*
X13746321Y54701500D01*
X13691804Y54673723D01*
X13631372Y54683295D01*
X13612697Y54696861D01*
X13612460Y54696551D01*
X13607309Y54700504D01*
X13493189Y54766391D01*
X13493191Y54766391D01*
X13440638Y54780472D01*
X13365892Y54800500D01*
X13234108Y54800500D01*
X13159362Y54780472D01*
X13106809Y54766391D01*
X12992690Y54700504D01*
X12899498Y54607312D01*
X12863067Y54544213D01*
X12817596Y54503272D01*
X12756746Y54496878D01*
X12707327Y54523710D01*
X12686405Y54544632D01*
X12678263Y54553856D01*
X12046353Y55366312D01*
X12025552Y55423853D01*
X12025499Y55427092D01*
X12025499Y55895479D01*
X12025499Y55895482D01*
X12025499Y55895484D01*
X12019412Y55952114D01*
X11971628Y56080226D01*
X11889687Y56189687D01*
X11831015Y56233608D01*
X11780228Y56271627D01*
X11780226Y56271628D01*
X11665826Y56314298D01*
X11617913Y56352349D01*
X11601516Y56411296D01*
X11602031Y56417988D01*
X11602065Y56418287D01*
X11635354Y56717894D01*
X11660571Y56773640D01*
X11713740Y56803917D01*
X11752541Y56802710D01*
X11752607Y56803273D01*
X11759260Y56802501D01*
X11759742Y56802486D01*
X11760003Y56802415D01*
X11785126Y56799501D01*
X11785127Y56799500D01*
X11785128Y56799500D01*
X12014873Y56799500D01*
X12014873Y56799501D01*
X12039997Y56802415D01*
X12142769Y56847793D01*
X12222207Y56927231D01*
X12267585Y57030003D01*
X12270500Y57055128D01*
X12270500Y57644872D01*
X12267585Y57669997D01*
X12222207Y57772769D01*
X12142769Y57852207D01*
X12039997Y57897585D01*
X12039996Y57897586D01*
X12039994Y57897586D01*
X12014876Y57900500D01*
X12014872Y57900500D01*
X11785128Y57900500D01*
X11785123Y57900500D01*
X11760005Y57897586D01*
X11760003Y57897585D01*
X11689986Y57866670D01*
X11629118Y57860462D01*
X11610016Y57866669D01*
X11539997Y57897585D01*
X11539996Y57897586D01*
X11539994Y57897586D01*
X11514876Y57900500D01*
X11514872Y57900500D01*
X11399500Y57900500D01*
X11341309Y57919407D01*
X11305345Y57968907D01*
X11300500Y57999500D01*
X11300500Y58114874D01*
X11300499Y58114877D01*
X11300460Y58115210D01*
X11297585Y58139997D01*
X11266669Y58210014D01*
X11260461Y58270881D01*
X11266667Y58289981D01*
X11297585Y58360003D01*
X11300500Y58385128D01*
X11300500Y58614872D01*
X11297585Y58639997D01*
X11266669Y58710014D01*
X11260461Y58770881D01*
X11266667Y58789981D01*
X11297585Y58860003D01*
X11300500Y58885128D01*
X11300500Y59114872D01*
X11297585Y59139997D01*
X11266669Y59210014D01*
X11260461Y59270881D01*
X11266667Y59289981D01*
X11297585Y59360003D01*
X11300500Y59385128D01*
X11300500Y59614872D01*
X11297585Y59639997D01*
X11252207Y59742769D01*
X11211406Y59783570D01*
X11183631Y59838084D01*
X11185786Y59879195D01*
X11191496Y59900504D01*
X11200500Y59934108D01*
X11200500Y60065892D01*
X11166392Y60193186D01*
X11166390Y60193189D01*
X11166390Y60193191D01*
X11136786Y60244466D01*
X11124064Y60304314D01*
X11148950Y60360210D01*
X11173018Y60379700D01*
X11207314Y60399500D01*
X11300500Y60492686D01*
X11309741Y60508692D01*
X11364764Y60603993D01*
X11410233Y60644934D01*
X11471083Y60651330D01*
X11524071Y60620737D01*
X11548958Y60564841D01*
X11549500Y60554493D01*
X11549500Y60529576D01*
X11541065Y60489588D01*
X11532415Y60470000D01*
X11532414Y60469996D01*
X11529500Y60444877D01*
X11529500Y59855124D01*
X11532414Y59830006D01*
X11532414Y59830004D01*
X11532415Y59830003D01*
X11577793Y59727231D01*
X11657231Y59647793D01*
X11760003Y59602415D01*
X11785126Y59599501D01*
X11785127Y59599500D01*
X11785128Y59599500D01*
X12014873Y59599500D01*
X12014873Y59599501D01*
X12039997Y59602415D01*
X12110013Y59633331D01*
X12170881Y59639539D01*
X12189980Y59633333D01*
X12260003Y59602415D01*
X12285126Y59599501D01*
X12285127Y59599500D01*
X12285128Y59599500D01*
X12514873Y59599500D01*
X12514873Y59599501D01*
X12539997Y59602415D01*
X12642769Y59647793D01*
X12722207Y59727231D01*
X12767585Y59830003D01*
X12770500Y59855128D01*
X12770500Y60318871D01*
X12773873Y60344494D01*
X12774744Y60347743D01*
X12775500Y60350565D01*
X12775500Y60426679D01*
X12794407Y60484870D01*
X12804496Y60496683D01*
X12807311Y60499499D01*
X12807314Y60499500D01*
X12900500Y60592686D01*
X12914264Y60616526D01*
X12959733Y60657466D01*
X13020583Y60663862D01*
X13073571Y60633269D01*
G37*
%TD.AperFunction*%
%TA.AperFunction,Conductor*%
G36*
X9491743Y60069257D02*
G01*
X9522336Y60016269D01*
X9524500Y59995685D01*
X9524500Y59850565D01*
X9532560Y59820481D01*
X9550089Y59755063D01*
X9550091Y59755059D01*
X9599525Y59669437D01*
X9599526Y59669437D01*
X9695504Y59573459D01*
X9723281Y59518942D01*
X9724500Y59503455D01*
X9724500Y59050565D01*
X9736223Y59006813D01*
X9736222Y59006813D01*
X9750089Y58955063D01*
X9750091Y58955059D01*
X9798906Y58870510D01*
X9799522Y58869443D01*
X9799523Y58869441D01*
X9799526Y58869437D01*
X9799530Y58869433D01*
X9810855Y58858107D01*
X9838631Y58803590D01*
X9829057Y58743158D01*
X9785791Y58699895D01*
X9725359Y58690325D01*
X9697370Y58699166D01*
X9696518Y58699582D01*
X9621582Y58710500D01*
X9178418Y58710500D01*
X9105630Y58699895D01*
X9103482Y58699582D01*
X8987899Y58643077D01*
X8987896Y58643075D01*
X8931324Y58586503D01*
X8876807Y58558726D01*
X8816375Y58568298D01*
X8773111Y58611563D01*
X8763540Y58671995D01*
X8768562Y58691099D01*
X8769091Y58692517D01*
X8775500Y58752127D01*
X8775499Y59347872D01*
X8769091Y59407483D01*
X8745960Y59469500D01*
X8716505Y59548474D01*
X8713885Y59609603D01*
X8723525Y59632567D01*
X8766392Y59706814D01*
X8800500Y59834108D01*
X8800500Y59933076D01*
X8819407Y59991267D01*
X8868907Y60027231D01*
X8925120Y60028703D01*
X9034108Y59999500D01*
X9034110Y59999500D01*
X9165890Y59999500D01*
X9165892Y59999500D01*
X9293186Y60033608D01*
X9376001Y60081422D01*
X9435847Y60094143D01*
X9491743Y60069257D01*
G37*
%TD.AperFunction*%
%TA.AperFunction,Conductor*%
G36*
X15600443Y61182097D02*
G01*
X15601034Y61183678D01*
X15742511Y61130911D01*
X15742512Y61130911D01*
X15742517Y61130909D01*
X15802127Y61124500D01*
X15802129Y61124501D01*
X15802130Y61124500D01*
X15804777Y61124358D01*
X15804709Y61123107D01*
X15858612Y61105650D01*
X15894625Y61056186D01*
X15899500Y61025501D01*
X15899500Y60934108D01*
X15921570Y60851740D01*
X15933609Y60806810D01*
X15999496Y60692691D01*
X15999498Y60692689D01*
X15999500Y60692686D01*
X16092686Y60599500D01*
X16092688Y60599499D01*
X16092690Y60599497D01*
X16206810Y60533610D01*
X16206808Y60533610D01*
X16206812Y60533609D01*
X16206814Y60533608D01*
X16334108Y60499500D01*
X16334110Y60499500D01*
X16435900Y60499500D01*
X16494091Y60480593D01*
X16530055Y60431093D01*
X16530055Y60369907D01*
X16523068Y60353568D01*
X16436712Y60193191D01*
X16181108Y59718500D01*
X16136872Y59676229D01*
X16119568Y59669810D01*
X16106812Y59666392D01*
X16106810Y59666391D01*
X15992690Y59600504D01*
X15899496Y59507310D01*
X15833609Y59393191D01*
X15821466Y59347872D01*
X15799500Y59265892D01*
X15799500Y59134108D01*
X15801908Y59125123D01*
X15798705Y59064021D01*
X15760200Y59016472D01*
X15706281Y59000500D01*
X14918220Y59000500D01*
X14860029Y59019407D01*
X14832264Y59050382D01*
X14832159Y59050565D01*
X14588544Y59476894D01*
X14575500Y59526012D01*
X14575500Y60525500D01*
X14594407Y60583691D01*
X14643907Y60619655D01*
X14674500Y60624500D01*
X14949435Y60624500D01*
X14949436Y60624500D01*
X15025617Y60644913D01*
X15044938Y60650090D01*
X15130562Y60699525D01*
X15200475Y60769438D01*
X15200474Y60769438D01*
X15400475Y60969437D01*
X15449911Y61055063D01*
X15466950Y61118656D01*
X15500271Y61169967D01*
X15557392Y61191894D01*
X15600443Y61182097D01*
G37*
%TD.AperFunction*%
%TA.AperFunction,Conductor*%
G36*
X5803318Y64629386D02*
G01*
X5903482Y64580418D01*
X5978418Y64569500D01*
X6294916Y64569500D01*
X6344415Y64556237D01*
X6355062Y64550090D01*
X6450565Y64524500D01*
X7517917Y64524500D01*
X7576108Y64505593D01*
X7584142Y64499088D01*
X8439527Y63729242D01*
X8443303Y63725660D01*
X8499527Y63669436D01*
X8599524Y63569440D01*
X8599525Y63569439D01*
X8715771Y63453192D01*
X8723113Y63444983D01*
X8737456Y63427026D01*
X8748483Y63418901D01*
X8759751Y63409211D01*
X8769433Y63399529D01*
X8769435Y63399528D01*
X8769436Y63399527D01*
X8789329Y63388042D01*
X8798545Y63382013D01*
X9766697Y62668638D01*
X9767379Y62668136D01*
X9803010Y62618395D01*
X9802599Y62557211D01*
X9766304Y62507954D01*
X9707988Y62489437D01*
X9670958Y62496892D01*
X8657624Y62914147D01*
X8647271Y62919131D01*
X8638416Y62924046D01*
X8629775Y62928843D01*
X8629367Y62928945D01*
X8616810Y62932085D01*
X8603137Y62936583D01*
X8590787Y62941668D01*
X8590777Y62941671D01*
X8570935Y62944241D01*
X8559645Y62946376D01*
X8035488Y63077416D01*
X7983620Y63109872D01*
X7960736Y63166617D01*
X7960499Y63173460D01*
X7960499Y63190738D01*
X7953914Y63232314D01*
X7946017Y63282175D01*
X7889859Y63392391D01*
X7802391Y63479859D01*
X7692175Y63536017D01*
X7692176Y63536017D01*
X7600736Y63550500D01*
X7199262Y63550500D01*
X7107825Y63536017D01*
X7107821Y63536016D01*
X6997610Y63479860D01*
X6997609Y63479860D01*
X6997609Y63479859D01*
X6997244Y63479495D01*
X6996788Y63479263D01*
X6991304Y63475278D01*
X6990673Y63476147D01*
X6942730Y63451719D01*
X6927243Y63450500D01*
X6619821Y63450500D01*
X6576341Y63460559D01*
X6517116Y63489512D01*
X6496518Y63499582D01*
X6421582Y63510500D01*
X6421579Y63510500D01*
X6026189Y63510500D01*
X5967998Y63529407D01*
X5956185Y63539497D01*
X5606762Y63888921D01*
X5578985Y63943437D01*
X5578761Y63972925D01*
X5661836Y64554448D01*
X5688782Y64609377D01*
X5742870Y64637979D01*
X5803318Y64629386D01*
G37*
%TD.AperFunction*%
%TA.AperFunction,Conductor*%
G36*
X33653452Y64471370D02*
G01*
X33687898Y64436924D01*
X33803482Y64380418D01*
X33878418Y64369500D01*
X33878421Y64369500D01*
X34321578Y64369500D01*
X34321582Y64369500D01*
X34396518Y64380418D01*
X34396519Y64380419D01*
X34404127Y64381527D01*
X34404316Y64380224D01*
X34457438Y64379463D01*
X34506418Y64342794D01*
X34524500Y64285756D01*
X34524500Y63273322D01*
X34505593Y63215131D01*
X34503367Y63212523D01*
X34503449Y63212460D01*
X34499496Y63207310D01*
X34433915Y63093720D01*
X34388445Y63052779D01*
X34332692Y63045439D01*
X34300738Y63050500D01*
X34300735Y63050500D01*
X34086188Y63050500D01*
X34027997Y63069407D01*
X34016190Y63079491D01*
X34015212Y63080469D01*
X33964285Y63109872D01*
X33935290Y63126613D01*
X33935289Y63126614D01*
X33935288Y63126614D01*
X33846144Y63150500D01*
X33846142Y63150500D01*
X33786189Y63150500D01*
X33727998Y63169407D01*
X33716191Y63179491D01*
X33715212Y63180470D01*
X33715210Y63180471D01*
X33709567Y63186114D01*
X33709567Y63186115D01*
X33680472Y63215211D01*
X33629291Y63266392D01*
X33569277Y63326405D01*
X33541500Y63380921D01*
X33540434Y63390901D01*
X33484603Y64395874D01*
X33500254Y64455022D01*
X33547683Y64493677D01*
X33608774Y64497071D01*
X33653452Y64471370D01*
G37*
%TD.AperFunction*%
%TA.AperFunction,Conductor*%
G36*
X41590870Y65733783D02*
G01*
X41647438Y65710469D01*
X41679500Y65658356D01*
X41674807Y65597351D01*
X41665597Y65580081D01*
X41664036Y65577746D01*
X41664033Y65577737D01*
X41649501Y65504685D01*
X41649500Y65504673D01*
X41649500Y64249862D01*
X41630593Y64191671D01*
X41597906Y64162950D01*
X40736310Y63692989D01*
X40676171Y63681723D01*
X40620895Y63707958D01*
X40591597Y63761672D01*
X40590735Y63792701D01*
X40591153Y63795903D01*
X40593694Y63808711D01*
X40600500Y63834106D01*
X40600500Y63861004D01*
X40601334Y63873827D01*
X40601746Y63876988D01*
X40604819Y63900504D01*
X40601360Y63926578D01*
X40600500Y63939597D01*
X40600500Y63965892D01*
X40598769Y63972352D01*
X40593536Y63991879D01*
X40591024Y64004480D01*
X40587487Y64031142D01*
X40587487Y64031145D01*
X40577398Y64055433D01*
X40573196Y64067789D01*
X40566392Y64093186D01*
X40552938Y64116488D01*
X40547251Y64128006D01*
X40536934Y64152846D01*
X40520899Y64173700D01*
X40513649Y64184539D01*
X40502550Y64203764D01*
X40500500Y64207315D01*
X40481475Y64226340D01*
X40472999Y64235995D01*
X40462336Y64249862D01*
X40456604Y64257317D01*
X40435724Y64273306D01*
X40425917Y64281897D01*
X40407314Y64300500D01*
X40384009Y64313955D01*
X40373332Y64321082D01*
X40351973Y64337438D01*
X40351971Y64337439D01*
X40351969Y64337440D01*
X40327665Y64347478D01*
X40315958Y64353244D01*
X40293186Y64366392D01*
X40293181Y64366394D01*
X40267203Y64373355D01*
X40255034Y64377479D01*
X36490433Y65932423D01*
X36443867Y65972113D01*
X36429524Y66031594D01*
X36452883Y66088145D01*
X36505020Y66120166D01*
X36535814Y66122633D01*
X41590870Y65733783D01*
G37*
%TD.AperFunction*%
%TD*%
M02*
