%TF.GenerationSoftware,KiCad,Pcbnew,10.0.5*%
%TF.CreationDate,2026-08-11T06:36:53+03:00*%
%TF.ProjectId,trace-dongle,74726163-652d-4646-9f6e-676c652e6b69,rev?*%
%TF.SameCoordinates,Original*%
%TF.FileFunction,Copper,L2,Bot*%
%TF.FilePolarity,Positive*%
%FSLAX46Y46*%
G04 Gerber Fmt 4.6, Leading zero omitted, Abs format (unit mm)*
G04 Created by KiCad (PCBNEW 10.0.5) date 2026-08-11 06:36:53*
%MOMM*%
%LPD*%
G01*
G04 APERTURE LIST*
%TA.AperFunction,ComponentPad*%
%ADD10R,1.700000X1.700000*%
%TD*%
%TA.AperFunction,ComponentPad*%
%ADD11C,1.700000*%
%TD*%
%TA.AperFunction,ViaPad*%
%ADD12C,0.500000*%
%TD*%
%TA.AperFunction,Conductor*%
%ADD13C,0.600000*%
%TD*%
%TA.AperFunction,Conductor*%
%ADD14C,0.250000*%
%TD*%
%TA.AperFunction,Conductor*%
%ADD15C,0.300000*%
%TD*%
G04 APERTURE END LIST*
D10*
%TO.P,J2,1*%
%TO.N,3V3*%
X52000000Y-24500000D03*
D11*
%TO.P,J2,2*%
%TO.N,GND*%
X54540000Y-24500000D03*
%TO.P,J2,3*%
%TO.N,TXD0*%
X57080000Y-24500000D03*
%TO.P,J2,4*%
%TO.N,RXD0*%
X59620000Y-24500000D03*
%TO.P,J2,5*%
%TO.N,IO9_BOOT*%
X62160000Y-24500000D03*
%TO.P,J2,6*%
%TO.N,U1_EN*%
X64700000Y-24500000D03*
%TD*%
D10*
%TO.P,J1,1*%
%TO.N,12V_RAW*%
X4000000Y-10000000D03*
D11*
%TO.P,J1,2*%
%TO.N,GND*%
X4000000Y-12540000D03*
%TO.P,J1,3*%
X4000000Y-15080000D03*
%TO.P,J1,4*%
%TO.N,CANH*%
X4000000Y-17620000D03*
%TO.P,J1,5*%
%TO.N,CANL*%
X4000000Y-20160000D03*
%TD*%
D12*
%TO.N,VIN_PROT*%
X34862500Y-6950000D03*
X26525000Y-6000000D03*
%TO.N,3V3*%
X10525000Y-18635000D03*
X54025000Y-6000000D03*
X52000000Y-24500000D03*
X10525000Y-18635000D03*
X48000000Y-20175000D03*
X48000000Y-20175000D03*
X8000000Y-15775000D03*
X38050000Y-11000000D03*
%TO.N,FB_NODE*%
X37137500Y-6950000D03*
X46000000Y-11175000D03*
%TO.N,EN_U3_NODE*%
X32000000Y-8175000D03*
X37137500Y-6000000D03*
X32000000Y-13325000D03*
X32000000Y-8175000D03*
%TO.N,U1_EN*%
X62625000Y-6000000D03*
X53900000Y-9100000D03*
X62625000Y-6000000D03*
X57525000Y-6000000D03*
X57525000Y-6000000D03*
X64700000Y-24500000D03*
%TO.N,CAN_TX*%
X10525000Y-16095000D03*
X50600000Y-15000000D03*
%TO.N,CAN_RX*%
X50600000Y-15800000D03*
X10525000Y-19905000D03*
%TO.N,CAN_S*%
X15475000Y-16095000D03*
X50600000Y-16600000D03*
%TO.N,IO8_PU*%
X50600000Y-18200000D03*
X43675000Y-22000000D03*
%TO.N,TXD0*%
X56300000Y-20900000D03*
X57080000Y-24500000D03*
%TO.N,CANL*%
X15475000Y-18635000D03*
X18562500Y-17050000D03*
X19500000Y-20675000D03*
X18562500Y-17050000D03*
%TD*%
%TO.N,VIN_PROT*%
D13*
X26525000Y-6000000D02*
X33299999Y-6950000D01*
X33299999Y-6950000D02*
X34862500Y-6950000D01*
%TO.N,3V3*%
D14*
X46500000Y-17500000D02*
X53000000Y-17500000D01*
D15*
X52000000Y-24500000D02*
X52000000Y-17400000D01*
D13*
X9500000Y-25000000D02*
X9500000Y-18635000D01*
D14*
X46500000Y-20175000D02*
X46500000Y-17500000D01*
D13*
X9500000Y-24600000D02*
X8000000Y-24600000D01*
X8000000Y-24600000D02*
X8000000Y-15775000D01*
D14*
X53000000Y-17500000D02*
X53000000Y-6000000D01*
D13*
X38050000Y-11000000D02*
X38225000Y-25000000D01*
D15*
X48700000Y-20175000D02*
X48000000Y-20175000D01*
D13*
X9500000Y-18635000D02*
X10525000Y-18635000D01*
X9500000Y-18635000D02*
X9500000Y-24600000D01*
D15*
X52000000Y-17400000D02*
X48700000Y-17400000D01*
D14*
X48000000Y-20175000D02*
X46500000Y-20175000D01*
D15*
X48700000Y-17400000D02*
X48700000Y-20175000D01*
D13*
X38225000Y-25000000D02*
X9500000Y-25000000D01*
X10525000Y-18635000D02*
X9500000Y-18635000D01*
D14*
X53000000Y-6000000D02*
X54025000Y-6000000D01*
%TO.N,FB_NODE*%
X41000000Y-9000000D02*
X46000000Y-9000000D01*
X41000000Y-5300000D02*
X41000000Y-9000000D01*
X36000000Y-6950000D02*
X36000000Y-5300000D01*
X37137500Y-6950000D02*
X36000000Y-6950000D01*
X46000000Y-9000000D02*
X46000000Y-11175000D01*
X36000000Y-5300000D02*
X41000000Y-5300000D01*
%TO.N,EN_U3_NODE*%
X32000000Y-8175000D02*
X30000000Y-8175000D01*
X40000000Y-8175000D02*
X32000000Y-8175000D01*
X37137500Y-6000000D02*
X40000000Y-6000000D01*
X30000000Y-8175000D02*
X30000000Y-13325000D01*
X30000000Y-13325000D02*
X32000000Y-13325000D01*
X40000000Y-6000000D02*
X40000000Y-8175000D01*
%TO.N,U1_EN*%
X62625000Y-6000000D02*
X62625000Y-8500000D01*
X62625000Y-8500000D02*
X64700000Y-8500000D01*
X64700000Y-8500000D02*
X64700000Y-24500000D01*
X53900000Y-9100000D02*
X57525000Y-6000000D01*
X57525000Y-6000000D02*
X62625000Y-6000000D01*
%TO.N,CAN_TX*%
X9000000Y-15400000D02*
X10525000Y-15400000D01*
X9000000Y-1500000D02*
X9000000Y-15400000D01*
X49000000Y-15000000D02*
X49000000Y-1500000D01*
X49000000Y-1500000D02*
X9000000Y-1500000D01*
X10525000Y-15400000D02*
X10525000Y-16095000D01*
X50600000Y-15000000D02*
X49000000Y-15000000D01*
%TO.N,CAN_RX*%
X10525000Y-19700000D02*
X10525000Y-19905000D01*
X50600000Y-15800000D02*
X48300000Y-15800000D01*
X11500000Y-2100000D02*
X11500000Y-19700000D01*
X48300000Y-15800000D02*
X48300000Y-2100000D01*
X11500000Y-19700000D02*
X10525000Y-19700000D01*
X48300000Y-2100000D02*
X11500000Y-2100000D01*
%TO.N,CAN_S*%
X12500000Y-2700000D02*
X12500000Y-16094999D01*
X47600000Y-2700000D02*
X12500000Y-2700000D01*
X50600000Y-16600000D02*
X47600000Y-16600000D01*
X47600000Y-16600000D02*
X47600000Y-2700000D01*
X12500000Y-16094999D02*
X15475000Y-16095000D01*
%TO.N,IO8_PU*%
X43675000Y-25000000D02*
X43675000Y-22000000D01*
X49700000Y-25000000D02*
X43675000Y-25000000D01*
X50600000Y-18200000D02*
X49700000Y-18200000D01*
X49700000Y-18200000D02*
X49700000Y-25000000D01*
%TO.N,TXD0*%
X57080000Y-24000000D02*
X57080000Y-24500000D01*
X56300000Y-20900000D02*
X56300000Y-24000000D01*
X56300000Y-24000000D02*
X57080000Y-24000000D01*
%TO.N,CANL*%
D15*
X15475000Y-18635000D02*
X18562500Y-17050000D01*
X18562500Y-17050000D02*
X19500000Y-20675000D01*
%TD*%
%TA.AperFunction,Conductor*%
%TO.N,GND*%
G36*
X8626333Y-1218907D02*
G01*
X8662297Y-1268407D01*
X8662297Y-1329593D01*
X8653879Y-1348497D01*
X8651971Y-1351803D01*
X8650090Y-1355061D01*
X8624500Y-1450566D01*
X8624500Y-15386193D01*
X8605593Y-15444384D01*
X8556093Y-15480348D01*
X8494907Y-15480348D01*
X8445407Y-15444384D01*
X8441115Y-15437775D01*
X8440511Y-15436988D01*
X8440510Y-15436987D01*
X8440509Y-15436985D01*
X8338015Y-15334491D01*
X8338012Y-15334489D01*
X8338010Y-15334487D01*
X8212488Y-15262017D01*
X8212489Y-15262017D01*
X8095098Y-15230562D01*
X8072475Y-15224500D01*
X7927525Y-15224500D01*
X7904902Y-15230562D01*
X7787510Y-15262017D01*
X7661989Y-15334487D01*
X7559487Y-15436989D01*
X7487017Y-15562510D01*
X7449500Y-15702525D01*
X7449500Y-24672474D01*
X7487017Y-24812489D01*
X7559487Y-24938010D01*
X7559489Y-24938012D01*
X7559491Y-24938015D01*
X7661985Y-25040509D01*
X7661987Y-25040510D01*
X7661989Y-25040512D01*
X7787511Y-25112982D01*
X7787512Y-25112982D01*
X7787515Y-25112984D01*
X7927525Y-25150500D01*
X8895191Y-25150500D01*
X8953382Y-25169407D01*
X8983180Y-25207206D01*
X8983771Y-25206866D01*
X8986121Y-25210937D01*
X8986655Y-25211614D01*
X8987017Y-25212488D01*
X9059487Y-25338010D01*
X9059489Y-25338012D01*
X9059491Y-25338015D01*
X9161985Y-25440509D01*
X9161987Y-25440510D01*
X9161989Y-25440512D01*
X9287511Y-25512982D01*
X9287512Y-25512982D01*
X9287515Y-25512984D01*
X9427525Y-25550500D01*
X38146288Y-25550500D01*
X38157976Y-25551192D01*
X38159401Y-25551360D01*
X38159411Y-25551363D01*
X38227015Y-25550517D01*
X38227802Y-25550508D01*
X38229039Y-25550500D01*
X38297476Y-25550500D01*
X38298872Y-25550316D01*
X38299220Y-25550291D01*
X38300322Y-25550132D01*
X38301546Y-25549963D01*
X38302618Y-25549821D01*
X38302956Y-25549752D01*
X38304344Y-25549551D01*
X38304350Y-25549551D01*
X38370265Y-25531001D01*
X38371295Y-25530718D01*
X38437485Y-25512984D01*
X38437494Y-25512978D01*
X38438800Y-25512438D01*
X38439138Y-25512321D01*
X38440106Y-25511906D01*
X38441283Y-25511410D01*
X38442259Y-25511005D01*
X38442577Y-25510846D01*
X38443873Y-25510289D01*
X38443880Y-25510288D01*
X38502772Y-25475296D01*
X38503740Y-25474730D01*
X38563015Y-25440509D01*
X38563023Y-25440500D01*
X38564126Y-25439655D01*
X38564434Y-25439446D01*
X38565314Y-25438754D01*
X38566314Y-25437976D01*
X38567124Y-25437353D01*
X38567382Y-25437125D01*
X38568485Y-25436255D01*
X38568495Y-25436250D01*
X38616354Y-25387177D01*
X38617065Y-25386457D01*
X38665509Y-25338015D01*
X38665512Y-25338008D01*
X38666370Y-25336892D01*
X38666604Y-25336621D01*
X38667247Y-25335762D01*
X38668005Y-25334761D01*
X38668658Y-25333909D01*
X38668859Y-25333604D01*
X38669690Y-25332491D01*
X38669699Y-25332483D01*
X38703213Y-25272720D01*
X38703729Y-25271814D01*
X38737984Y-25212485D01*
X38737986Y-25212474D01*
X38738518Y-25211194D01*
X38738672Y-25210875D01*
X38739087Y-25209839D01*
X38739563Y-25208671D01*
X38739965Y-25207699D01*
X38740078Y-25207359D01*
X38740591Y-25206073D01*
X38740600Y-25206057D01*
X38757516Y-25139611D01*
X38757789Y-25138566D01*
X38775500Y-25072475D01*
X38775500Y-25072461D01*
X38775684Y-25071067D01*
X38775752Y-25070715D01*
X38775875Y-25069681D01*
X38776039Y-25068372D01*
X38776172Y-25067359D01*
X38776193Y-25067017D01*
X38776360Y-25065597D01*
X38776363Y-25065589D01*
X38775508Y-24997189D01*
X38775500Y-24995952D01*
X38775500Y-24927525D01*
X38775313Y-24926107D01*
X38774472Y-24914407D01*
X38768424Y-24430593D01*
X38599551Y-10920650D01*
X38560288Y-10781120D01*
X38486250Y-10656505D01*
X38486249Y-10656504D01*
X38382485Y-10555302D01*
X38347475Y-10535668D01*
X38256057Y-10484400D01*
X38256054Y-10484399D01*
X38256052Y-10484398D01*
X38115589Y-10448637D01*
X37970650Y-10450448D01*
X37831118Y-10489712D01*
X37831116Y-10489713D01*
X37706504Y-10563749D01*
X37706504Y-10563750D01*
X37605302Y-10667514D01*
X37534402Y-10793939D01*
X37534398Y-10793947D01*
X37498637Y-10934407D01*
X37498637Y-10934413D01*
X37666323Y-24349263D01*
X37648145Y-24407685D01*
X37599098Y-24444265D01*
X37567331Y-24449500D01*
X10149500Y-24449500D01*
X10091309Y-24430593D01*
X10055345Y-24381093D01*
X10050500Y-24350500D01*
X10050500Y-20377321D01*
X10069407Y-20319130D01*
X10118907Y-20283166D01*
X10180093Y-20283166D01*
X10211757Y-20302570D01*
X10212540Y-20301551D01*
X10217690Y-20305503D01*
X10331810Y-20371390D01*
X10331808Y-20371390D01*
X10331812Y-20371391D01*
X10331814Y-20371392D01*
X10459108Y-20405500D01*
X10459110Y-20405500D01*
X10590890Y-20405500D01*
X10590892Y-20405500D01*
X10718186Y-20371392D01*
X10718188Y-20371390D01*
X10718190Y-20371390D01*
X10832309Y-20305503D01*
X10832309Y-20305502D01*
X10832314Y-20305500D01*
X10925500Y-20212314D01*
X10925503Y-20212309D01*
X10975912Y-20125000D01*
X11021381Y-20084059D01*
X11061648Y-20075500D01*
X11549433Y-20075500D01*
X11549435Y-20075500D01*
X11644938Y-20049910D01*
X11644940Y-20049908D01*
X11644942Y-20049908D01*
X11670377Y-20035222D01*
X11730562Y-20000475D01*
X11800475Y-19930562D01*
X11849910Y-19844938D01*
X11875500Y-19749435D01*
X11875500Y-18569108D01*
X14974500Y-18569108D01*
X14974500Y-18700892D01*
X14976264Y-18707475D01*
X15008609Y-18828190D01*
X15074496Y-18942309D01*
X15074498Y-18942311D01*
X15074500Y-18942314D01*
X15167686Y-19035500D01*
X15167688Y-19035501D01*
X15167690Y-19035503D01*
X15281810Y-19101390D01*
X15281808Y-19101390D01*
X15281812Y-19101391D01*
X15281814Y-19101392D01*
X15409108Y-19135500D01*
X15409110Y-19135500D01*
X15540890Y-19135500D01*
X15540892Y-19135500D01*
X15668186Y-19101392D01*
X15668188Y-19101390D01*
X15668190Y-19101390D01*
X15782309Y-19035503D01*
X15782309Y-19035502D01*
X15782314Y-19035500D01*
X15875500Y-18942314D01*
X15912388Y-18878420D01*
X15952906Y-18839852D01*
X18190014Y-17691409D01*
X18250414Y-17681655D01*
X18305014Y-17709267D01*
X18331071Y-17754695D01*
X19028483Y-20451353D01*
X19028263Y-20501761D01*
X18999500Y-20609108D01*
X18999500Y-20740892D01*
X19024477Y-20834108D01*
X19033609Y-20868190D01*
X19099496Y-20982309D01*
X19099498Y-20982311D01*
X19099500Y-20982314D01*
X19192686Y-21075500D01*
X19192688Y-21075501D01*
X19192690Y-21075503D01*
X19306810Y-21141390D01*
X19306808Y-21141390D01*
X19306812Y-21141391D01*
X19306814Y-21141392D01*
X19434108Y-21175500D01*
X19434110Y-21175500D01*
X19565890Y-21175500D01*
X19565892Y-21175500D01*
X19693186Y-21141392D01*
X19693188Y-21141390D01*
X19693190Y-21141390D01*
X19807309Y-21075503D01*
X19807309Y-21075502D01*
X19807314Y-21075500D01*
X19900500Y-20982314D01*
X19909981Y-20965892D01*
X19966390Y-20868190D01*
X19966390Y-20868188D01*
X19966392Y-20868186D01*
X20000500Y-20740892D01*
X20000500Y-20609108D01*
X19966392Y-20481814D01*
X19966390Y-20481811D01*
X19966390Y-20481809D01*
X19900503Y-20367690D01*
X19900499Y-20367685D01*
X19830156Y-20297341D01*
X19804313Y-20252126D01*
X19619163Y-19536214D01*
X19034016Y-17273646D01*
X19034235Y-17223241D01*
X19063000Y-17115892D01*
X19063000Y-16984108D01*
X19028892Y-16856814D01*
X19028890Y-16856811D01*
X19028890Y-16856809D01*
X18963003Y-16742690D01*
X18963001Y-16742688D01*
X18963000Y-16742686D01*
X18869814Y-16649500D01*
X18869811Y-16649498D01*
X18869809Y-16649496D01*
X18755689Y-16583609D01*
X18755691Y-16583609D01*
X18706299Y-16570375D01*
X18628392Y-16549500D01*
X18496608Y-16549500D01*
X18418700Y-16570375D01*
X18369309Y-16583609D01*
X18255190Y-16649496D01*
X18161996Y-16742690D01*
X18125110Y-16806577D01*
X18084588Y-16845148D01*
X15593937Y-18123749D01*
X15547380Y-18131838D01*
X15547380Y-18134500D01*
X15540892Y-18134500D01*
X15409108Y-18134500D01*
X15331200Y-18155375D01*
X15281809Y-18168609D01*
X15167690Y-18234496D01*
X15074496Y-18327690D01*
X15008609Y-18441809D01*
X15008608Y-18441814D01*
X14974500Y-18569108D01*
X11875500Y-18569108D01*
X11875500Y-2574500D01*
X11894407Y-2516309D01*
X11943907Y-2480345D01*
X11974500Y-2475500D01*
X12042389Y-2475500D01*
X12100580Y-2494407D01*
X12136544Y-2543907D01*
X12138016Y-2600122D01*
X12124500Y-2650565D01*
X12124500Y-16045564D01*
X12124500Y-16144434D01*
X12128910Y-16160892D01*
X12150091Y-16239941D01*
X12199523Y-16325558D01*
X12199525Y-16325561D01*
X12269438Y-16395474D01*
X12297979Y-16411952D01*
X12355058Y-16444907D01*
X12355056Y-16444907D01*
X12355060Y-16444908D01*
X12355062Y-16444909D01*
X12450565Y-16470499D01*
X15101678Y-16470499D01*
X15159869Y-16489406D01*
X15162476Y-16491633D01*
X15162540Y-16491551D01*
X15167690Y-16495503D01*
X15281810Y-16561390D01*
X15281808Y-16561390D01*
X15281812Y-16561391D01*
X15281814Y-16561392D01*
X15409108Y-16595500D01*
X15409110Y-16595500D01*
X15540890Y-16595500D01*
X15540892Y-16595500D01*
X15668186Y-16561392D01*
X15668188Y-16561390D01*
X15668190Y-16561390D01*
X15782309Y-16495503D01*
X15782309Y-16495502D01*
X15782314Y-16495500D01*
X15875500Y-16402314D01*
X15879449Y-16395474D01*
X15941390Y-16288190D01*
X15941390Y-16288188D01*
X15941392Y-16288186D01*
X15975500Y-16160892D01*
X15975500Y-16029108D01*
X15941392Y-15901814D01*
X15941390Y-15901811D01*
X15941390Y-15901809D01*
X15875503Y-15787690D01*
X15875501Y-15787688D01*
X15875500Y-15787686D01*
X15782314Y-15694500D01*
X15782311Y-15694498D01*
X15782309Y-15694496D01*
X15668189Y-15628609D01*
X15668191Y-15628609D01*
X15618799Y-15615375D01*
X15540892Y-15594500D01*
X15409108Y-15594500D01*
X15331200Y-15615375D01*
X15281809Y-15628609D01*
X15167684Y-15694500D01*
X15162536Y-15698451D01*
X15160722Y-15696087D01*
X15117167Y-15718280D01*
X15101680Y-15719499D01*
X12974500Y-15719499D01*
X12916309Y-15700592D01*
X12880345Y-15651092D01*
X12875500Y-15620499D01*
X12875500Y-8125565D01*
X29624500Y-8125565D01*
X29624500Y-13374435D01*
X29628910Y-13390892D01*
X29650091Y-13469942D01*
X29677948Y-13518190D01*
X29699525Y-13555562D01*
X29769438Y-13625475D01*
X29769440Y-13625476D01*
X29855058Y-13674908D01*
X29855056Y-13674908D01*
X29855060Y-13674909D01*
X29855062Y-13674910D01*
X29950565Y-13700500D01*
X30049435Y-13700500D01*
X31626679Y-13700500D01*
X31684870Y-13719407D01*
X31687476Y-13721633D01*
X31687540Y-13721551D01*
X31692690Y-13725503D01*
X31806810Y-13791390D01*
X31806808Y-13791390D01*
X31806812Y-13791391D01*
X31806814Y-13791392D01*
X31934108Y-13825500D01*
X31934110Y-13825500D01*
X32065890Y-13825500D01*
X32065892Y-13825500D01*
X32193186Y-13791392D01*
X32193188Y-13791390D01*
X32193190Y-13791390D01*
X32307309Y-13725503D01*
X32307309Y-13725502D01*
X32307314Y-13725500D01*
X32400500Y-13632314D01*
X32466392Y-13518186D01*
X32500500Y-13390892D01*
X32500500Y-13259108D01*
X32466392Y-13131814D01*
X32466390Y-13131811D01*
X32466390Y-13131809D01*
X32400503Y-13017690D01*
X32400501Y-13017688D01*
X32400500Y-13017686D01*
X32307314Y-12924500D01*
X32307311Y-12924498D01*
X32307309Y-12924496D01*
X32193189Y-12858609D01*
X32193191Y-12858609D01*
X32143799Y-12845375D01*
X32065892Y-12824500D01*
X31934108Y-12824500D01*
X31856200Y-12845375D01*
X31806809Y-12858609D01*
X31692690Y-12924496D01*
X31687540Y-12928449D01*
X31685726Y-12926086D01*
X31642166Y-12948281D01*
X31626679Y-12949500D01*
X30474500Y-12949500D01*
X30416309Y-12930593D01*
X30380345Y-12881093D01*
X30375500Y-12850500D01*
X30375500Y-8649500D01*
X30394407Y-8591309D01*
X30443907Y-8555345D01*
X30474500Y-8550500D01*
X31626679Y-8550500D01*
X31684870Y-8569407D01*
X31687476Y-8571633D01*
X31687540Y-8571551D01*
X31692690Y-8575503D01*
X31806810Y-8641390D01*
X31806808Y-8641390D01*
X31806812Y-8641391D01*
X31806814Y-8641392D01*
X31934108Y-8675500D01*
X31934110Y-8675500D01*
X32065890Y-8675500D01*
X32065892Y-8675500D01*
X32193186Y-8641392D01*
X32193188Y-8641390D01*
X32193190Y-8641390D01*
X32307309Y-8575503D01*
X32307309Y-8575502D01*
X32307314Y-8575500D01*
X32307317Y-8575496D01*
X32312460Y-8571551D01*
X32314273Y-8573913D01*
X32357834Y-8551719D01*
X32373321Y-8550500D01*
X40049433Y-8550500D01*
X40049435Y-8550500D01*
X40144938Y-8524910D01*
X40144940Y-8524908D01*
X40144942Y-8524908D01*
X40170377Y-8510222D01*
X40230562Y-8475475D01*
X40300475Y-8405562D01*
X40349910Y-8319938D01*
X40375500Y-8224435D01*
X40375500Y-5950565D01*
X40349910Y-5855062D01*
X40349908Y-5855059D01*
X40349908Y-5855057D01*
X40331977Y-5824000D01*
X40319255Y-5764152D01*
X40344141Y-5708256D01*
X40397129Y-5677663D01*
X40417713Y-5675500D01*
X40525500Y-5675500D01*
X40583691Y-5694407D01*
X40619655Y-5743907D01*
X40624500Y-5774500D01*
X40624500Y-9049435D01*
X40625257Y-9052260D01*
X40650091Y-9144942D01*
X40679444Y-9195781D01*
X40699525Y-9230562D01*
X40769438Y-9300475D01*
X40769440Y-9300476D01*
X40855058Y-9349908D01*
X40855056Y-9349908D01*
X40855060Y-9349909D01*
X40855062Y-9349910D01*
X40950565Y-9375500D01*
X41049435Y-9375500D01*
X45525500Y-9375500D01*
X45583691Y-9394407D01*
X45619655Y-9443907D01*
X45624500Y-9474500D01*
X45624500Y-10801678D01*
X45605593Y-10859869D01*
X45603367Y-10862477D01*
X45603449Y-10862540D01*
X45599496Y-10867690D01*
X45533609Y-10981809D01*
X45533608Y-10981814D01*
X45499500Y-11109108D01*
X45499500Y-11240892D01*
X45529579Y-11353151D01*
X45533609Y-11368190D01*
X45599496Y-11482309D01*
X45599498Y-11482311D01*
X45599500Y-11482314D01*
X45692686Y-11575500D01*
X45692688Y-11575501D01*
X45692690Y-11575503D01*
X45806810Y-11641390D01*
X45806808Y-11641390D01*
X45806812Y-11641391D01*
X45806814Y-11641392D01*
X45934108Y-11675500D01*
X45934110Y-11675500D01*
X46065890Y-11675500D01*
X46065892Y-11675500D01*
X46193186Y-11641392D01*
X46193188Y-11641390D01*
X46193190Y-11641390D01*
X46307309Y-11575503D01*
X46307309Y-11575502D01*
X46307314Y-11575500D01*
X46400500Y-11482314D01*
X46466392Y-11368186D01*
X46500500Y-11240892D01*
X46500500Y-11109108D01*
X46466392Y-10981814D01*
X46466390Y-10981811D01*
X46466390Y-10981809D01*
X46400503Y-10867690D01*
X46396551Y-10862540D01*
X46398901Y-10860735D01*
X46376706Y-10817082D01*
X46375500Y-10801678D01*
X46375500Y-8950566D01*
X46373716Y-8943907D01*
X46349910Y-8855062D01*
X46349908Y-8855059D01*
X46349908Y-8855057D01*
X46300476Y-8769440D01*
X46300475Y-8769438D01*
X46230562Y-8699525D01*
X46192724Y-8677679D01*
X46144941Y-8650091D01*
X46144943Y-8650091D01*
X46107885Y-8640161D01*
X46049435Y-8624500D01*
X46049433Y-8624500D01*
X41474500Y-8624500D01*
X41416309Y-8605593D01*
X41380345Y-8556093D01*
X41375500Y-8525500D01*
X41375500Y-5250566D01*
X41375500Y-5250565D01*
X41349910Y-5155062D01*
X41349908Y-5155059D01*
X41349908Y-5155057D01*
X41300476Y-5069440D01*
X41300475Y-5069438D01*
X41230562Y-4999525D01*
X41230559Y-4999523D01*
X41144941Y-4950091D01*
X41144943Y-4950091D01*
X41107885Y-4940161D01*
X41049435Y-4924500D01*
X36049435Y-4924500D01*
X35950565Y-4924500D01*
X35892114Y-4940161D01*
X35855057Y-4950091D01*
X35769440Y-4999523D01*
X35699523Y-5069440D01*
X35650091Y-5155057D01*
X35650090Y-5155062D01*
X35624500Y-5250565D01*
X35624500Y-6900565D01*
X35624500Y-6999435D01*
X35630674Y-7022475D01*
X35650091Y-7094942D01*
X35699523Y-7180559D01*
X35699525Y-7180562D01*
X35769438Y-7250475D01*
X35769440Y-7250476D01*
X35855058Y-7299908D01*
X35855056Y-7299908D01*
X35855060Y-7299909D01*
X35855062Y-7299910D01*
X35950565Y-7325500D01*
X36764179Y-7325500D01*
X36822370Y-7344407D01*
X36824976Y-7346633D01*
X36825040Y-7346551D01*
X36830190Y-7350503D01*
X36944310Y-7416390D01*
X36944308Y-7416390D01*
X36944312Y-7416391D01*
X36944314Y-7416392D01*
X37071608Y-7450500D01*
X37071610Y-7450500D01*
X37203390Y-7450500D01*
X37203392Y-7450500D01*
X37330686Y-7416392D01*
X37330688Y-7416390D01*
X37330690Y-7416390D01*
X37444809Y-7350503D01*
X37444809Y-7350502D01*
X37444814Y-7350500D01*
X37538000Y-7257314D01*
X37582315Y-7180559D01*
X37603890Y-7143190D01*
X37603890Y-7143188D01*
X37603892Y-7143186D01*
X37638000Y-7015892D01*
X37638000Y-6884108D01*
X37603892Y-6756814D01*
X37603890Y-6756811D01*
X37603890Y-6756809D01*
X37538003Y-6642690D01*
X37538001Y-6642688D01*
X37538000Y-6642686D01*
X37444814Y-6549500D01*
X37444811Y-6549498D01*
X37440317Y-6545004D01*
X37412540Y-6490487D01*
X37422111Y-6430055D01*
X37440317Y-6404996D01*
X37440817Y-6404496D01*
X37495334Y-6376719D01*
X37510821Y-6375500D01*
X39525500Y-6375500D01*
X39583691Y-6394407D01*
X39619655Y-6443907D01*
X39624500Y-6474500D01*
X39624500Y-7700500D01*
X39605593Y-7758691D01*
X39556093Y-7794655D01*
X39525500Y-7799500D01*
X32373321Y-7799500D01*
X32315130Y-7780593D01*
X32312523Y-7778366D01*
X32312460Y-7778449D01*
X32307309Y-7774496D01*
X32193189Y-7708609D01*
X32193191Y-7708609D01*
X32143799Y-7695375D01*
X32065892Y-7674500D01*
X31934108Y-7674500D01*
X31856200Y-7695375D01*
X31806809Y-7708609D01*
X31692690Y-7774496D01*
X31687540Y-7778449D01*
X31685726Y-7776086D01*
X31642166Y-7798281D01*
X31626679Y-7799500D01*
X30049435Y-7799500D01*
X29950565Y-7799500D01*
X29892114Y-7815161D01*
X29855057Y-7825091D01*
X29769440Y-7874523D01*
X29699523Y-7944440D01*
X29650091Y-8030057D01*
X29650090Y-8030062D01*
X29624500Y-8125565D01*
X12875500Y-8125565D01*
X12875500Y-5995326D01*
X25969769Y-5995326D01*
X25969769Y-5995332D01*
X25987479Y-6139189D01*
X26041822Y-6273572D01*
X26041823Y-6273573D01*
X26129087Y-6389302D01*
X26129089Y-6389304D01*
X26243340Y-6478509D01*
X26271584Y-6490487D01*
X26376783Y-6535102D01*
X32477206Y-7390512D01*
X33184116Y-7489636D01*
X33195992Y-7492050D01*
X33227524Y-7500500D01*
X33254680Y-7500500D01*
X33268427Y-7501459D01*
X33275338Y-7502427D01*
X33295328Y-7505231D01*
X33327730Y-7501242D01*
X33339827Y-7500500D01*
X34934974Y-7500500D01*
X34934975Y-7500500D01*
X35074985Y-7462984D01*
X35074987Y-7462982D01*
X35074989Y-7462982D01*
X35200510Y-7390512D01*
X35200510Y-7390511D01*
X35200515Y-7390509D01*
X35303009Y-7288015D01*
X35375484Y-7162485D01*
X35413000Y-7022475D01*
X35413000Y-6877525D01*
X35375484Y-6737515D01*
X35375482Y-6737512D01*
X35375482Y-6737510D01*
X35303012Y-6611989D01*
X35303010Y-6611987D01*
X35303009Y-6611985D01*
X35200515Y-6509491D01*
X35200512Y-6509489D01*
X35200510Y-6509487D01*
X35074988Y-6437017D01*
X35074989Y-6437017D01*
X34997706Y-6416309D01*
X34934975Y-6399500D01*
X34934974Y-6399500D01*
X33345312Y-6399500D01*
X33331565Y-6398541D01*
X30959240Y-6065890D01*
X26529671Y-5444769D01*
X26529670Y-5444769D01*
X26385810Y-5462479D01*
X26251427Y-5516822D01*
X26251426Y-5516823D01*
X26135697Y-5604087D01*
X26135695Y-5604089D01*
X26046490Y-5718340D01*
X25989898Y-5851780D01*
X25989897Y-5851783D01*
X25969769Y-5995326D01*
X12875500Y-5995326D01*
X12875500Y-3174500D01*
X12894407Y-3116309D01*
X12943907Y-3080345D01*
X12974500Y-3075500D01*
X47125500Y-3075500D01*
X47183691Y-3094407D01*
X47219655Y-3143907D01*
X47224500Y-3174500D01*
X47224500Y-16550565D01*
X47224500Y-16649435D01*
X47232360Y-16678768D01*
X47250091Y-16744942D01*
X47285677Y-16806577D01*
X47299525Y-16830562D01*
X47369438Y-16900475D01*
X47381284Y-16907314D01*
X47437488Y-16939764D01*
X47478428Y-16985234D01*
X47484823Y-17046084D01*
X47454230Y-17099072D01*
X47398335Y-17123958D01*
X47387987Y-17124500D01*
X46549435Y-17124500D01*
X46450565Y-17124500D01*
X46392114Y-17140161D01*
X46355057Y-17150091D01*
X46269440Y-17199523D01*
X46199523Y-17269440D01*
X46150091Y-17355057D01*
X46150090Y-17355062D01*
X46124500Y-17450565D01*
X46124500Y-20125565D01*
X46124500Y-20224435D01*
X46130442Y-20246611D01*
X46150091Y-20319942D01*
X46196025Y-20399500D01*
X46199525Y-20405562D01*
X46269438Y-20475475D01*
X46297979Y-20491953D01*
X46355058Y-20524908D01*
X46355056Y-20524908D01*
X46355060Y-20524909D01*
X46355062Y-20524910D01*
X46450565Y-20550500D01*
X47626679Y-20550500D01*
X47684870Y-20569407D01*
X47687476Y-20571633D01*
X47687540Y-20571551D01*
X47692690Y-20575503D01*
X47806810Y-20641390D01*
X47806808Y-20641390D01*
X47806812Y-20641391D01*
X47806814Y-20641392D01*
X47934108Y-20675500D01*
X47934110Y-20675500D01*
X48065890Y-20675500D01*
X48065892Y-20675500D01*
X48193186Y-20641392D01*
X48284341Y-20588763D01*
X48333840Y-20575500D01*
X48752725Y-20575500D01*
X48752727Y-20575500D01*
X48854587Y-20548207D01*
X48945913Y-20495480D01*
X49020480Y-20420913D01*
X49073207Y-20329587D01*
X49100500Y-20227727D01*
X49100500Y-17974500D01*
X49119407Y-17916309D01*
X49168907Y-17880345D01*
X49199500Y-17875500D01*
X49282287Y-17875500D01*
X49340478Y-17894407D01*
X49376442Y-17943907D01*
X49376442Y-18005093D01*
X49368023Y-18024000D01*
X49350091Y-18055057D01*
X49350090Y-18055062D01*
X49328910Y-18134109D01*
X49324500Y-18150566D01*
X49324500Y-24525500D01*
X49305593Y-24583691D01*
X49256093Y-24619655D01*
X49225500Y-24624500D01*
X44149500Y-24624500D01*
X44091309Y-24605593D01*
X44055345Y-24556093D01*
X44050500Y-24525500D01*
X44050500Y-22373321D01*
X44069407Y-22315130D01*
X44071633Y-22312523D01*
X44071551Y-22312460D01*
X44075496Y-22307317D01*
X44075500Y-22307314D01*
X44141392Y-22193186D01*
X44175500Y-22065892D01*
X44175500Y-21934108D01*
X44141392Y-21806814D01*
X44141390Y-21806811D01*
X44141390Y-21806809D01*
X44075503Y-21692690D01*
X44075501Y-21692688D01*
X44075500Y-21692686D01*
X43982314Y-21599500D01*
X43982311Y-21599498D01*
X43982309Y-21599496D01*
X43868189Y-21533609D01*
X43868191Y-21533609D01*
X43818799Y-21520375D01*
X43740892Y-21499500D01*
X43609108Y-21499500D01*
X43531200Y-21520375D01*
X43481809Y-21533609D01*
X43367690Y-21599496D01*
X43274496Y-21692690D01*
X43208609Y-21806809D01*
X43208608Y-21806814D01*
X43174500Y-21934108D01*
X43174500Y-22065892D01*
X43204579Y-22178151D01*
X43208609Y-22193190D01*
X43274496Y-22307309D01*
X43278449Y-22312460D01*
X43276086Y-22314273D01*
X43298281Y-22357834D01*
X43299500Y-22373321D01*
X43299500Y-24950565D01*
X43299500Y-25049435D01*
X43316528Y-25112984D01*
X43325091Y-25144942D01*
X43366652Y-25216926D01*
X43374525Y-25230562D01*
X43444438Y-25300475D01*
X43444440Y-25300476D01*
X43530058Y-25349908D01*
X43530056Y-25349908D01*
X43530060Y-25349909D01*
X43530062Y-25349910D01*
X43625565Y-25375500D01*
X43625567Y-25375500D01*
X49749433Y-25375500D01*
X49749435Y-25375500D01*
X49844938Y-25349910D01*
X49844940Y-25349908D01*
X49844942Y-25349908D01*
X49875143Y-25332471D01*
X49930562Y-25300475D01*
X50000475Y-25230562D01*
X50049910Y-25144938D01*
X50075500Y-25049435D01*
X50075500Y-18674500D01*
X50094407Y-18616309D01*
X50143907Y-18580345D01*
X50174500Y-18575500D01*
X50226679Y-18575500D01*
X50284870Y-18594407D01*
X50287476Y-18596633D01*
X50287540Y-18596551D01*
X50292690Y-18600503D01*
X50406810Y-18666390D01*
X50406808Y-18666390D01*
X50406812Y-18666391D01*
X50406814Y-18666392D01*
X50534108Y-18700500D01*
X50534110Y-18700500D01*
X50665890Y-18700500D01*
X50665892Y-18700500D01*
X50793186Y-18666392D01*
X50793188Y-18666390D01*
X50793190Y-18666390D01*
X50907309Y-18600503D01*
X50907309Y-18600502D01*
X50907314Y-18600500D01*
X51000500Y-18507314D01*
X51038317Y-18441814D01*
X51066390Y-18393190D01*
X51066390Y-18393188D01*
X51066392Y-18393186D01*
X51100500Y-18265892D01*
X51100500Y-18134108D01*
X51066392Y-18006814D01*
X51066391Y-18006812D01*
X51064712Y-18000546D01*
X51067697Y-17999746D01*
X51063909Y-17951348D01*
X51095901Y-17899192D01*
X51152439Y-17875802D01*
X51160164Y-17875500D01*
X51500500Y-17875500D01*
X51558691Y-17894407D01*
X51594655Y-17943907D01*
X51599500Y-17974500D01*
X51599500Y-23300500D01*
X51580593Y-23358691D01*
X51531093Y-23394655D01*
X51500500Y-23399500D01*
X51125326Y-23399500D01*
X51125325Y-23399500D01*
X51125315Y-23399501D01*
X51052263Y-23414033D01*
X51052257Y-23414035D01*
X50969400Y-23469397D01*
X50969397Y-23469400D01*
X50914035Y-23552257D01*
X50914033Y-23552263D01*
X50899501Y-23625315D01*
X50899500Y-23625327D01*
X50899500Y-25374672D01*
X50899501Y-25374684D01*
X50914033Y-25447736D01*
X50914035Y-25447742D01*
X50969397Y-25530599D01*
X50969400Y-25530602D01*
X51000472Y-25551363D01*
X51052260Y-25585966D01*
X51107808Y-25597015D01*
X51125315Y-25600498D01*
X51125320Y-25600498D01*
X51125326Y-25600500D01*
X51125327Y-25600500D01*
X52874673Y-25600500D01*
X52874674Y-25600500D01*
X52947740Y-25585966D01*
X53030601Y-25530601D01*
X53085966Y-25447740D01*
X53100500Y-25374674D01*
X53100500Y-23625326D01*
X53085966Y-23552260D01*
X53037768Y-23480125D01*
X53030602Y-23469400D01*
X53030599Y-23469397D01*
X52947742Y-23414035D01*
X52947740Y-23414034D01*
X52947737Y-23414033D01*
X52947736Y-23414033D01*
X52874684Y-23399501D01*
X52874674Y-23399500D01*
X52874673Y-23399500D01*
X52499500Y-23399500D01*
X52441309Y-23380593D01*
X52405345Y-23331093D01*
X52400500Y-23300500D01*
X52400500Y-20834108D01*
X55799500Y-20834108D01*
X55799500Y-20965892D01*
X55808482Y-20999414D01*
X55833609Y-21093190D01*
X55899496Y-21207309D01*
X55903449Y-21212460D01*
X55901086Y-21214273D01*
X55923281Y-21257834D01*
X55924500Y-21273321D01*
X55924500Y-24049435D01*
X55947067Y-24133657D01*
X55950091Y-24144942D01*
X55989004Y-24212340D01*
X56001726Y-24272188D01*
X56001049Y-24277327D01*
X55979500Y-24413385D01*
X55979500Y-24586614D01*
X56006597Y-24757702D01*
X56006598Y-24757706D01*
X56060123Y-24922438D01*
X56060125Y-24922441D01*
X56135673Y-25070715D01*
X56138768Y-25076788D01*
X56240586Y-25216928D01*
X56363072Y-25339414D01*
X56503212Y-25441232D01*
X56657555Y-25519873D01*
X56657557Y-25519873D01*
X56657558Y-25519874D01*
X56657561Y-25519876D01*
X56822293Y-25573401D01*
X56822297Y-25573402D01*
X56993386Y-25600500D01*
X56993389Y-25600500D01*
X57166614Y-25600500D01*
X57337702Y-25573402D01*
X57337706Y-25573401D01*
X57502438Y-25519876D01*
X57502440Y-25519874D01*
X57502445Y-25519873D01*
X57656788Y-25441232D01*
X57796928Y-25339414D01*
X57919414Y-25216928D01*
X58021232Y-25076788D01*
X58099873Y-24922445D01*
X58099874Y-24922440D01*
X58099876Y-24922438D01*
X58153401Y-24757706D01*
X58153402Y-24757702D01*
X58180500Y-24586614D01*
X58180500Y-24413385D01*
X58519500Y-24413385D01*
X58519500Y-24586614D01*
X58546597Y-24757702D01*
X58546598Y-24757706D01*
X58600123Y-24922438D01*
X58600125Y-24922441D01*
X58675673Y-25070715D01*
X58678768Y-25076788D01*
X58780586Y-25216928D01*
X58903072Y-25339414D01*
X59043212Y-25441232D01*
X59197555Y-25519873D01*
X59197557Y-25519873D01*
X59197558Y-25519874D01*
X59197561Y-25519876D01*
X59362293Y-25573401D01*
X59362297Y-25573402D01*
X59533386Y-25600500D01*
X59533389Y-25600500D01*
X59706614Y-25600500D01*
X59877702Y-25573402D01*
X59877706Y-25573401D01*
X60042438Y-25519876D01*
X60042440Y-25519874D01*
X60042445Y-25519873D01*
X60196788Y-25441232D01*
X60336928Y-25339414D01*
X60459414Y-25216928D01*
X60561232Y-25076788D01*
X60639873Y-24922445D01*
X60639874Y-24922440D01*
X60639876Y-24922438D01*
X60693401Y-24757706D01*
X60693402Y-24757702D01*
X60720500Y-24586614D01*
X60720500Y-24413385D01*
X61059500Y-24413385D01*
X61059500Y-24586614D01*
X61086597Y-24757702D01*
X61086598Y-24757706D01*
X61140123Y-24922438D01*
X61140125Y-24922441D01*
X61215673Y-25070715D01*
X61218768Y-25076788D01*
X61320586Y-25216928D01*
X61443072Y-25339414D01*
X61583212Y-25441232D01*
X61737555Y-25519873D01*
X61737557Y-25519873D01*
X61737558Y-25519874D01*
X61737561Y-25519876D01*
X61902293Y-25573401D01*
X61902297Y-25573402D01*
X62073386Y-25600500D01*
X62073389Y-25600500D01*
X62246614Y-25600500D01*
X62417702Y-25573402D01*
X62417706Y-25573401D01*
X62582438Y-25519876D01*
X62582440Y-25519874D01*
X62582445Y-25519873D01*
X62736788Y-25441232D01*
X62876928Y-25339414D01*
X62999414Y-25216928D01*
X63101232Y-25076788D01*
X63179873Y-24922445D01*
X63179874Y-24922440D01*
X63179876Y-24922438D01*
X63233401Y-24757706D01*
X63233402Y-24757702D01*
X63260500Y-24586614D01*
X63260500Y-24413385D01*
X63233402Y-24242297D01*
X63233401Y-24242293D01*
X63179876Y-24077561D01*
X63179874Y-24077558D01*
X63179873Y-24077557D01*
X63179873Y-24077555D01*
X63101232Y-23923212D01*
X62999414Y-23783072D01*
X62876928Y-23660586D01*
X62736788Y-23558768D01*
X62736787Y-23558767D01*
X62736785Y-23558766D01*
X62582441Y-23480125D01*
X62582438Y-23480123D01*
X62417706Y-23426598D01*
X62417702Y-23426597D01*
X62246614Y-23399500D01*
X62246611Y-23399500D01*
X62073389Y-23399500D01*
X62073386Y-23399500D01*
X61902297Y-23426597D01*
X61902293Y-23426598D01*
X61737561Y-23480123D01*
X61737558Y-23480125D01*
X61583214Y-23558766D01*
X61443073Y-23660585D01*
X61320585Y-23783073D01*
X61218766Y-23923214D01*
X61140125Y-24077558D01*
X61140123Y-24077561D01*
X61086598Y-24242293D01*
X61086597Y-24242297D01*
X61059500Y-24413385D01*
X60720500Y-24413385D01*
X60693402Y-24242297D01*
X60693401Y-24242293D01*
X60639876Y-24077561D01*
X60639874Y-24077558D01*
X60639873Y-24077557D01*
X60639873Y-24077555D01*
X60561232Y-23923212D01*
X60459414Y-23783072D01*
X60336928Y-23660586D01*
X60196788Y-23558768D01*
X60196787Y-23558767D01*
X60196785Y-23558766D01*
X60042441Y-23480125D01*
X60042438Y-23480123D01*
X59877706Y-23426598D01*
X59877702Y-23426597D01*
X59706614Y-23399500D01*
X59706611Y-23399500D01*
X59533389Y-23399500D01*
X59533386Y-23399500D01*
X59362297Y-23426597D01*
X59362293Y-23426598D01*
X59197561Y-23480123D01*
X59197558Y-23480125D01*
X59043214Y-23558766D01*
X58903073Y-23660585D01*
X58780585Y-23783073D01*
X58678766Y-23923214D01*
X58600125Y-24077558D01*
X58600123Y-24077561D01*
X58546598Y-24242293D01*
X58546597Y-24242297D01*
X58519500Y-24413385D01*
X58180500Y-24413385D01*
X58153402Y-24242297D01*
X58153401Y-24242293D01*
X58099876Y-24077561D01*
X58099874Y-24077558D01*
X58099873Y-24077557D01*
X58099873Y-24077555D01*
X58021232Y-23923212D01*
X57919414Y-23783072D01*
X57796928Y-23660586D01*
X57656788Y-23558768D01*
X57656787Y-23558767D01*
X57656785Y-23558766D01*
X57502441Y-23480125D01*
X57502438Y-23480123D01*
X57337706Y-23426598D01*
X57337702Y-23426597D01*
X57166614Y-23399500D01*
X57166611Y-23399500D01*
X56993389Y-23399500D01*
X56993386Y-23399500D01*
X56822302Y-23426596D01*
X56805090Y-23432189D01*
X56743904Y-23432187D01*
X56694405Y-23396221D01*
X56675500Y-23338033D01*
X56675500Y-21273321D01*
X56694407Y-21215130D01*
X56696633Y-21212523D01*
X56696551Y-21212460D01*
X56700496Y-21207317D01*
X56700500Y-21207314D01*
X56700503Y-21207309D01*
X56766390Y-21093190D01*
X56766390Y-21093188D01*
X56766392Y-21093186D01*
X56800500Y-20965892D01*
X56800500Y-20834108D01*
X56766392Y-20706814D01*
X56766390Y-20706811D01*
X56766390Y-20706809D01*
X56700503Y-20592690D01*
X56700501Y-20592688D01*
X56700500Y-20592686D01*
X56607314Y-20499500D01*
X56607311Y-20499498D01*
X56607309Y-20499496D01*
X56493189Y-20433609D01*
X56493191Y-20433609D01*
X56433823Y-20417702D01*
X56365892Y-20399500D01*
X56234108Y-20399500D01*
X56166177Y-20417702D01*
X56106809Y-20433609D01*
X55992690Y-20499496D01*
X55899496Y-20592690D01*
X55833609Y-20706809D01*
X55824477Y-20740890D01*
X55799500Y-20834108D01*
X52400500Y-20834108D01*
X52400500Y-17974500D01*
X52419407Y-17916309D01*
X52468907Y-17880345D01*
X52499500Y-17875500D01*
X53049433Y-17875500D01*
X53049435Y-17875500D01*
X53144938Y-17849910D01*
X53144940Y-17849908D01*
X53144942Y-17849908D01*
X53170377Y-17835222D01*
X53230562Y-17800475D01*
X53300475Y-17730562D01*
X53349910Y-17644938D01*
X53375500Y-17549435D01*
X53375500Y-9522321D01*
X53394407Y-9464130D01*
X53443907Y-9428166D01*
X53505093Y-9428166D01*
X53544501Y-9452315D01*
X53592686Y-9500500D01*
X53592688Y-9500501D01*
X53592690Y-9500503D01*
X53706810Y-9566390D01*
X53706808Y-9566390D01*
X53706812Y-9566391D01*
X53706814Y-9566392D01*
X53834108Y-9600500D01*
X53834110Y-9600500D01*
X53965890Y-9600500D01*
X53965892Y-9600500D01*
X54093186Y-9566392D01*
X54093188Y-9566390D01*
X54093190Y-9566390D01*
X54207309Y-9500503D01*
X54207309Y-9500502D01*
X54207314Y-9500500D01*
X54300500Y-9407314D01*
X54366392Y-9293186D01*
X54392490Y-9195779D01*
X54423773Y-9146163D01*
X57489711Y-6524259D01*
X57546224Y-6500810D01*
X57554054Y-6500500D01*
X57590890Y-6500500D01*
X57590892Y-6500500D01*
X57718186Y-6466392D01*
X57718188Y-6466390D01*
X57718190Y-6466390D01*
X57832309Y-6400503D01*
X57832309Y-6400502D01*
X57832314Y-6400500D01*
X57832317Y-6400496D01*
X57837460Y-6396551D01*
X57839273Y-6398913D01*
X57882834Y-6376719D01*
X57898321Y-6375500D01*
X62150500Y-6375500D01*
X62208691Y-6394407D01*
X62244655Y-6443907D01*
X62249500Y-6474500D01*
X62249500Y-8549435D01*
X62260720Y-8591309D01*
X62275091Y-8644942D01*
X62319942Y-8722624D01*
X62324525Y-8730562D01*
X62394438Y-8800475D01*
X62394440Y-8800476D01*
X62480058Y-8849908D01*
X62480056Y-8849908D01*
X62480060Y-8849909D01*
X62480062Y-8849910D01*
X62575565Y-8875500D01*
X62674435Y-8875500D01*
X64225500Y-8875500D01*
X64283691Y-8894407D01*
X64319655Y-8943907D01*
X64324500Y-8974500D01*
X64324500Y-23395539D01*
X64305593Y-23453730D01*
X64270445Y-23483749D01*
X64123214Y-23558766D01*
X63983073Y-23660585D01*
X63860585Y-23783073D01*
X63758766Y-23923214D01*
X63680125Y-24077558D01*
X63680123Y-24077561D01*
X63626598Y-24242293D01*
X63626597Y-24242297D01*
X63599500Y-24413385D01*
X63599500Y-24586614D01*
X63626597Y-24757702D01*
X63626598Y-24757706D01*
X63680123Y-24922438D01*
X63680125Y-24922441D01*
X63755673Y-25070715D01*
X63758768Y-25076788D01*
X63860586Y-25216928D01*
X63983072Y-25339414D01*
X64123212Y-25441232D01*
X64277555Y-25519873D01*
X64277557Y-25519873D01*
X64277558Y-25519874D01*
X64277561Y-25519876D01*
X64442293Y-25573401D01*
X64442297Y-25573402D01*
X64613386Y-25600500D01*
X64613389Y-25600500D01*
X64786614Y-25600500D01*
X64957702Y-25573402D01*
X64957706Y-25573401D01*
X65122438Y-25519876D01*
X65122440Y-25519874D01*
X65122445Y-25519873D01*
X65276788Y-25441232D01*
X65416928Y-25339414D01*
X65539414Y-25216928D01*
X65641232Y-25076788D01*
X65719873Y-24922445D01*
X65719874Y-24922440D01*
X65719876Y-24922438D01*
X65773401Y-24757706D01*
X65773402Y-24757702D01*
X65800500Y-24586614D01*
X65800500Y-24413385D01*
X65773402Y-24242297D01*
X65773401Y-24242293D01*
X65719876Y-24077561D01*
X65719874Y-24077558D01*
X65719873Y-24077557D01*
X65719873Y-24077555D01*
X65641232Y-23923212D01*
X65539414Y-23783072D01*
X65416928Y-23660586D01*
X65276788Y-23558768D01*
X65276787Y-23558767D01*
X65276785Y-23558766D01*
X65129555Y-23483749D01*
X65086290Y-23440484D01*
X65075500Y-23395539D01*
X65075500Y-19099000D01*
X65094407Y-19040809D01*
X65143907Y-19004845D01*
X65174500Y-19000000D01*
X66701000Y-19000000D01*
X66759191Y-19018907D01*
X66795155Y-19068407D01*
X66800000Y-19099000D01*
X66800000Y-28701000D01*
X66781093Y-28759191D01*
X66731593Y-28795155D01*
X66701000Y-28800000D01*
X1299000Y-28800000D01*
X1240809Y-28781093D01*
X1204845Y-28731593D01*
X1200000Y-28701000D01*
X1200000Y-20073385D01*
X2899500Y-20073385D01*
X2899500Y-20246614D01*
X2926597Y-20417702D01*
X2926598Y-20417706D01*
X2980123Y-20582438D01*
X2980125Y-20582441D01*
X3043495Y-20706814D01*
X3058768Y-20736788D01*
X3160586Y-20876928D01*
X3283072Y-20999414D01*
X3423212Y-21101232D01*
X3577555Y-21179873D01*
X3577557Y-21179873D01*
X3577558Y-21179874D01*
X3577561Y-21179876D01*
X3742293Y-21233401D01*
X3742297Y-21233402D01*
X3913386Y-21260500D01*
X3913389Y-21260500D01*
X4086614Y-21260500D01*
X4257702Y-21233402D01*
X4257706Y-21233401D01*
X4422438Y-21179876D01*
X4422440Y-21179874D01*
X4422445Y-21179873D01*
X4576788Y-21101232D01*
X4716928Y-20999414D01*
X4839414Y-20876928D01*
X4941232Y-20736788D01*
X5019873Y-20582445D01*
X5019874Y-20582440D01*
X5019876Y-20582438D01*
X5073401Y-20417706D01*
X5073402Y-20417702D01*
X5100500Y-20246614D01*
X5100500Y-20073385D01*
X5073402Y-19902297D01*
X5073401Y-19902293D01*
X5019876Y-19737561D01*
X5019874Y-19737558D01*
X5019873Y-19737557D01*
X5019873Y-19737555D01*
X4941232Y-19583212D01*
X4839414Y-19443072D01*
X4716928Y-19320586D01*
X4576788Y-19218768D01*
X4576787Y-19218767D01*
X4576785Y-19218766D01*
X4422441Y-19140125D01*
X4422438Y-19140123D01*
X4257706Y-19086598D01*
X4257702Y-19086597D01*
X4086614Y-19059500D01*
X4086611Y-19059500D01*
X3913389Y-19059500D01*
X3913386Y-19059500D01*
X3742297Y-19086597D01*
X3742293Y-19086598D01*
X3577561Y-19140123D01*
X3577558Y-19140125D01*
X3423214Y-19218766D01*
X3283073Y-19320585D01*
X3160585Y-19443073D01*
X3058766Y-19583214D01*
X2980125Y-19737558D01*
X2980123Y-19737561D01*
X2926598Y-19902293D01*
X2926597Y-19902297D01*
X2899500Y-20073385D01*
X1200000Y-20073385D01*
X1200000Y-17533385D01*
X2899500Y-17533385D01*
X2899500Y-17706614D01*
X2926597Y-17877702D01*
X2926598Y-17877706D01*
X2980123Y-18042438D01*
X2980125Y-18042441D01*
X3057597Y-18194491D01*
X3058768Y-18196788D01*
X3160586Y-18336928D01*
X3283072Y-18459414D01*
X3423212Y-18561232D01*
X3577555Y-18639873D01*
X3577557Y-18639873D01*
X3577558Y-18639874D01*
X3577561Y-18639876D01*
X3742293Y-18693401D01*
X3742297Y-18693402D01*
X3913386Y-18720500D01*
X3913389Y-18720500D01*
X4086614Y-18720500D01*
X4257702Y-18693402D01*
X4257706Y-18693401D01*
X4422438Y-18639876D01*
X4422440Y-18639874D01*
X4422445Y-18639873D01*
X4576788Y-18561232D01*
X4716928Y-18459414D01*
X4839414Y-18336928D01*
X4941232Y-18196788D01*
X5019873Y-18042445D01*
X5019874Y-18042440D01*
X5019876Y-18042438D01*
X5073401Y-17877706D01*
X5073402Y-17877702D01*
X5100500Y-17706614D01*
X5100500Y-17533385D01*
X5073402Y-17362297D01*
X5073401Y-17362293D01*
X5019876Y-17197561D01*
X5019874Y-17197558D01*
X5019873Y-17197557D01*
X5019873Y-17197555D01*
X4941232Y-17043212D01*
X4839414Y-16903072D01*
X4716928Y-16780586D01*
X4576788Y-16678768D01*
X4576787Y-16678767D01*
X4576785Y-16678766D01*
X4422441Y-16600125D01*
X4422438Y-16600123D01*
X4257706Y-16546598D01*
X4257702Y-16546597D01*
X4086614Y-16519500D01*
X4086611Y-16519500D01*
X3913389Y-16519500D01*
X3913386Y-16519500D01*
X3742297Y-16546597D01*
X3742293Y-16546598D01*
X3577561Y-16600123D01*
X3577558Y-16600125D01*
X3423214Y-16678766D01*
X3283073Y-16780585D01*
X3160585Y-16903073D01*
X3058766Y-17043214D01*
X2980125Y-17197558D01*
X2980123Y-17197561D01*
X2926598Y-17362293D01*
X2926597Y-17362297D01*
X2899500Y-17533385D01*
X1200000Y-17533385D01*
X1200000Y-9125327D01*
X2899500Y-9125327D01*
X2899500Y-10874672D01*
X2899501Y-10874684D01*
X2914033Y-10947736D01*
X2914035Y-10947742D01*
X2969397Y-11030599D01*
X2969399Y-11030601D01*
X3052260Y-11085966D01*
X3107808Y-11097015D01*
X3125315Y-11100498D01*
X3125320Y-11100498D01*
X3125326Y-11100500D01*
X3125327Y-11100500D01*
X4874673Y-11100500D01*
X4874674Y-11100500D01*
X4947740Y-11085966D01*
X5030601Y-11030601D01*
X5085966Y-10947740D01*
X5100500Y-10874674D01*
X5100500Y-9125326D01*
X5085966Y-9052260D01*
X5084077Y-9049433D01*
X5030602Y-8969400D01*
X5030599Y-8969397D01*
X4947742Y-8914035D01*
X4947740Y-8914034D01*
X4947737Y-8914033D01*
X4947736Y-8914033D01*
X4874684Y-8899501D01*
X4874674Y-8899500D01*
X3125326Y-8899500D01*
X3125325Y-8899500D01*
X3125315Y-8899501D01*
X3052263Y-8914033D01*
X3052257Y-8914035D01*
X2969400Y-8969397D01*
X2969397Y-8969400D01*
X2914035Y-9052257D01*
X2914033Y-9052263D01*
X2899501Y-9125315D01*
X2899500Y-9125327D01*
X1200000Y-9125327D01*
X1200000Y-1299000D01*
X1218907Y-1240809D01*
X1268407Y-1204845D01*
X1299000Y-1200000D01*
X8568142Y-1200000D01*
X8626333Y-1218907D01*
G37*
%TD.AperFunction*%
%TD*%
M02*
