M48
; DRILL file KiCad 10.0.5 date 2026-08-11T02:58:11
; FORMAT={-:-/ absolute / metric / decimal}
; #@! TF.CreationDate,2026-08-11T02:58:11+03:00
; #@! TF.GenerationSoftware,Kicad,Pcbnew,10.0.5
; #@! TF.FileFunction,MixedPlating,1,2
FMAT,2
METRIC
; #@! TA.AperFunction,Plated,PTH,ViaDrill
T1C0.300
; #@! TA.AperFunction,Plated,PTH,ComponentDrill
T2C1.000
%
G90
G05
T1
X4.175Y-22.0
X5.725Y-13.0
X5.725Y-13.0
X5.825Y-22.0
X7.525Y-15.595
X7.525Y-18.135
X7.525Y-19.405
X8.175Y-22.0
X9.825Y-22.0
X12.475Y-15.595
X19.225Y-6.0
X22.525Y-6.0
X22.525Y-6.0
X23.875Y-20.65
X23.875Y-20.65
X23.875Y-20.65
X24.225Y-1.2
X26.362Y-6.0
X28.225Y-15.0
X29.225Y-1.2
X31.712Y-22.0
X32.5Y-18.675
X32.5Y-20.325
X43.6Y-12.5
X43.6Y-13.3
X43.6Y-14.1
X43.6Y-16.5
X46.9Y-6.6
X46.9Y-6.6
X47.82Y-22.0
X48.5Y-18.4
X50.36Y-22.0
X52.9Y-22.0
X52.9Y-22.0
T2
X3.0Y-7.42
X3.0Y-9.96
X3.0Y-12.5
X3.0Y-15.04
X3.0Y-17.58
X40.2Y-22.0
X42.74Y-22.0
X45.28Y-22.0
X47.82Y-22.0
X50.36Y-22.0
X52.9Y-22.0
M30
