%TF.GenerationSoftware,KiCad,Pcbnew,10.0.5*%
%TF.CreationDate,2026-08-11T02:58:11+03:00*%
%TF.ProjectId,trace-dongle,74726163-652d-4646-9f6e-676c652e6b69,rev?*%
%TF.SameCoordinates,Original*%
%TF.FileFunction,Copper,L2,Bot*%
%TF.FilePolarity,Positive*%
%FSLAX46Y46*%
G04 Gerber Fmt 4.6, Leading zero omitted, Abs format (unit mm)*
G04 Created by KiCad (PCBNEW 10.0.5) date 2026-08-11 02:58:11*
%MOMM*%
%LPD*%
G01*
G04 APERTURE LIST*
%TA.AperFunction,ComponentPad*%
%ADD10R,1.700000X1.700000*%
%TD*%
%TA.AperFunction,ComponentPad*%
%ADD11C,1.700000*%
%TD*%
%TA.AperFunction,ViaPad*%
%ADD12C,0.500000*%
%TD*%
%TA.AperFunction,Conductor*%
%ADD13C,0.600000*%
%TD*%
%TA.AperFunction,Conductor*%
%ADD14C,0.250000*%
%TD*%
G04 APERTURE END LIST*
D10*
%TO.P,J2,1*%
%TO.N,3V3*%
X40200000Y-22000000D03*
D11*
%TO.P,J2,2*%
%TO.N,GND*%
X42740000Y-22000000D03*
%TO.P,J2,3*%
%TO.N,TXD0*%
X45280000Y-22000000D03*
%TO.P,J2,4*%
%TO.N,RXD0*%
X47820000Y-22000000D03*
%TO.P,J2,5*%
%TO.N,IO9_BOOT*%
X50360000Y-22000000D03*
%TO.P,J2,6*%
%TO.N,U1_EN*%
X52900000Y-22000000D03*
%TD*%
D10*
%TO.P,J1,1*%
%TO.N,12V_RAW*%
X3000000Y-7420000D03*
D11*
%TO.P,J1,2*%
%TO.N,GND*%
X3000000Y-9960000D03*
%TO.P,J1,3*%
X3000000Y-12500000D03*
%TO.P,J1,4*%
%TO.N,CANH*%
X3000000Y-15040000D03*
%TO.P,J1,5*%
%TO.N,CANL*%
X3000000Y-17580000D03*
%TD*%
D12*
%TO.N,VIN_PROT*%
X26362500Y-6000000D03*
X22525000Y-6000000D03*
X22525000Y-6000000D03*
X19225000Y-6000000D03*
%TO.N,3V3*%
X28225000Y-15000000D03*
X5725000Y-13000000D03*
X5725000Y-13000000D03*
X7525000Y-18135000D03*
X5825000Y-22000000D03*
X9825000Y-22000000D03*
X32500000Y-20325000D03*
X24225000Y-1200000D03*
%TO.N,U1_EN*%
X52900000Y-22000000D03*
X46900000Y-6600000D03*
X4175000Y-22000000D03*
X52900000Y-22000000D03*
X46900000Y-6600000D03*
X29225000Y-1200000D03*
%TO.N,IO9_BOOT*%
X8175000Y-22000000D03*
X43600000Y-16500000D03*
X23875000Y-20650000D03*
X23875000Y-20650000D03*
X50360000Y-22000000D03*
X23875000Y-20650000D03*
%TO.N,CAN_TX*%
X7525000Y-15595000D03*
X43600000Y-12500000D03*
%TO.N,CAN_RX*%
X7525000Y-19405000D03*
X43600000Y-13300000D03*
%TO.N,CAN_S*%
X12475000Y-15595000D03*
X43600000Y-14100000D03*
%TO.N,RXD0*%
X48500000Y-18400000D03*
X47820000Y-22000000D03*
%TO.N,LED1_TOP*%
X31712500Y-22000000D03*
X32500000Y-18675000D03*
%TD*%
%TO.N,VIN_PROT*%
D13*
X19225000Y-6000000D02*
X22525000Y-6000000D01*
X22525000Y-6000000D02*
X26362500Y-6000000D01*
%TO.N,3V3*%
X28225000Y-15000000D02*
X28225000Y-21000000D01*
X24225000Y-1200000D02*
X24225000Y-850000D01*
X5825000Y-23500000D02*
X9825000Y-23500000D01*
X9825000Y-23500000D02*
X9825000Y-22000000D01*
X5825000Y-22000000D02*
X5825000Y-23500000D01*
X24225000Y-850000D02*
X5725000Y-850000D01*
X5725000Y-850000D02*
X5725000Y-13000000D01*
X28225000Y-21000000D02*
X32500000Y-21000000D01*
X5725000Y-13000000D02*
X7525000Y-18135000D01*
X32500000Y-21000000D02*
X32500000Y-20325000D01*
%TO.N,U1_EN*%
D14*
X29225000Y-1200000D02*
X29225000Y-2150000D01*
X46900000Y-2150000D02*
X46900000Y-6600000D01*
X52900000Y-22000000D02*
X51800000Y-22000000D01*
X4175000Y-24300000D02*
X4175000Y-22000000D01*
X51800000Y-24300000D02*
X4175000Y-24300000D01*
X29225000Y-2150000D02*
X46900000Y-2150000D01*
X51800000Y-22000000D02*
X51800000Y-24300000D01*
X46900000Y-6600000D02*
X52900000Y-22000000D01*
%TO.N,IO9_BOOT*%
X42500000Y-16500000D02*
X43600000Y-16500000D01*
X23875000Y-20650000D02*
X23875000Y-14500000D01*
X23875000Y-14500000D02*
X42500000Y-14500000D01*
X8175000Y-22000000D02*
X23875000Y-20650000D01*
X50360000Y-23500000D02*
X50360000Y-22000000D01*
X23875000Y-20650000D02*
X23875000Y-23500000D01*
X42500000Y-14500000D02*
X42500000Y-16500000D01*
X23875000Y-23500000D02*
X50360000Y-23500000D01*
%TO.N,CAN_TX*%
X7300000Y-15595000D02*
X7525000Y-15595000D01*
X43600000Y-12800000D02*
X7300000Y-12800000D01*
X43600000Y-12500000D02*
X43600000Y-12800000D01*
X7300000Y-12800000D02*
X7300000Y-15595000D01*
%TO.N,CAN_RX*%
X7000000Y-19600000D02*
X7525000Y-19405000D01*
X43600000Y-13300000D02*
X44500000Y-13300000D01*
X4600000Y-11000000D02*
X4600000Y-19600000D01*
X44500000Y-11000000D02*
X4600000Y-11000000D01*
X4600000Y-19600000D02*
X7000000Y-19600000D01*
X44500000Y-13300000D02*
X44500000Y-11000000D01*
%TO.N,CAN_S*%
X12475000Y-15595000D02*
X12475000Y-15595000D01*
X44000000Y-14100000D02*
X44000000Y-13800000D01*
X43600000Y-14100000D02*
X44000000Y-14100000D01*
X12475000Y-13800000D02*
X12475000Y-15595000D01*
X44000000Y-13800000D02*
X12475000Y-13800000D01*
%TO.N,RXD0*%
X47820000Y-18400000D02*
X47820000Y-22000000D01*
X48500000Y-18400000D02*
X47820000Y-18400000D01*
%TO.N,LED1_TOP*%
X35500000Y-21900000D02*
X31712500Y-22000000D01*
X32500000Y-18675000D02*
X35500000Y-21900000D01*
%TD*%
%TA.AperFunction,Conductor*%
%TO.N,GND*%
G36*
X5133691Y-1218907D02*
G01*
X5169655Y-1268407D01*
X5174500Y-1299000D01*
X5174500Y-10525500D01*
X5155593Y-10583691D01*
X5106093Y-10619655D01*
X5075500Y-10624500D01*
X4649435Y-10624500D01*
X4550565Y-10624500D01*
X4492114Y-10640161D01*
X4455057Y-10650091D01*
X4369440Y-10699523D01*
X4299523Y-10769440D01*
X4250091Y-10855057D01*
X4224500Y-10950566D01*
X4224500Y-14622269D01*
X4205593Y-14680460D01*
X4156093Y-14716424D01*
X4094907Y-14716424D01*
X4045407Y-14680460D01*
X4031346Y-14652862D01*
X4019876Y-14617561D01*
X4019874Y-14617558D01*
X4019873Y-14617557D01*
X4019873Y-14617555D01*
X3941232Y-14463212D01*
X3839414Y-14323072D01*
X3716928Y-14200586D01*
X3576788Y-14098768D01*
X3576787Y-14098767D01*
X3576785Y-14098766D01*
X3422441Y-14020125D01*
X3422438Y-14020123D01*
X3257706Y-13966598D01*
X3257702Y-13966597D01*
X3086614Y-13939500D01*
X3086611Y-13939500D01*
X2913389Y-13939500D01*
X2913386Y-13939500D01*
X2742297Y-13966597D01*
X2742293Y-13966598D01*
X2577561Y-14020123D01*
X2577558Y-14020125D01*
X2423214Y-14098766D01*
X2283073Y-14200585D01*
X2160585Y-14323073D01*
X2058766Y-14463214D01*
X1980125Y-14617558D01*
X1980123Y-14617561D01*
X1926598Y-14782293D01*
X1926597Y-14782297D01*
X1899500Y-14953385D01*
X1899500Y-15126614D01*
X1926597Y-15297702D01*
X1926598Y-15297706D01*
X1980123Y-15462438D01*
X1980125Y-15462441D01*
X1980126Y-15462443D01*
X1980127Y-15462445D01*
X2058768Y-15616788D01*
X2160586Y-15756928D01*
X2283072Y-15879414D01*
X2423212Y-15981232D01*
X2577555Y-16059873D01*
X2577557Y-16059873D01*
X2577558Y-16059874D01*
X2577561Y-16059876D01*
X2742293Y-16113401D01*
X2742297Y-16113402D01*
X2913386Y-16140500D01*
X2913389Y-16140500D01*
X3086614Y-16140500D01*
X3257702Y-16113402D01*
X3257706Y-16113401D01*
X3422438Y-16059876D01*
X3422440Y-16059874D01*
X3422445Y-16059873D01*
X3576788Y-15981232D01*
X3716928Y-15879414D01*
X3839414Y-15756928D01*
X3941232Y-15616788D01*
X4019873Y-15462445D01*
X4031345Y-15427137D01*
X4067309Y-15377638D01*
X4125500Y-15358730D01*
X4183690Y-15377637D01*
X4219654Y-15427137D01*
X4224500Y-15457730D01*
X4224500Y-17162269D01*
X4205593Y-17220460D01*
X4156093Y-17256424D01*
X4094907Y-17256424D01*
X4045407Y-17220460D01*
X4031346Y-17192862D01*
X4019876Y-17157561D01*
X4019874Y-17157558D01*
X4019873Y-17157557D01*
X4019873Y-17157555D01*
X3941232Y-17003212D01*
X3839414Y-16863072D01*
X3716928Y-16740586D01*
X3576788Y-16638768D01*
X3576787Y-16638767D01*
X3576785Y-16638766D01*
X3422441Y-16560125D01*
X3422438Y-16560123D01*
X3257706Y-16506598D01*
X3257702Y-16506597D01*
X3086614Y-16479500D01*
X3086611Y-16479500D01*
X2913389Y-16479500D01*
X2913386Y-16479500D01*
X2742297Y-16506597D01*
X2742293Y-16506598D01*
X2577561Y-16560123D01*
X2577558Y-16560125D01*
X2423214Y-16638766D01*
X2283073Y-16740585D01*
X2160585Y-16863073D01*
X2058766Y-17003214D01*
X1980125Y-17157558D01*
X1980123Y-17157561D01*
X1926598Y-17322293D01*
X1926597Y-17322297D01*
X1899500Y-17493385D01*
X1899500Y-17666614D01*
X1926597Y-17837702D01*
X1926598Y-17837706D01*
X1980123Y-18002438D01*
X1980125Y-18002441D01*
X2026108Y-18092690D01*
X2058768Y-18156788D01*
X2160586Y-18296928D01*
X2283072Y-18419414D01*
X2423212Y-18521232D01*
X2577555Y-18599873D01*
X2577557Y-18599873D01*
X2577558Y-18599874D01*
X2577561Y-18599876D01*
X2742293Y-18653401D01*
X2742297Y-18653402D01*
X2913386Y-18680500D01*
X2913389Y-18680500D01*
X3086614Y-18680500D01*
X3257702Y-18653402D01*
X3257706Y-18653401D01*
X3422438Y-18599876D01*
X3422440Y-18599874D01*
X3422445Y-18599873D01*
X3576788Y-18521232D01*
X3716928Y-18419414D01*
X3839414Y-18296928D01*
X3941232Y-18156788D01*
X4019873Y-18002445D01*
X4031345Y-17967137D01*
X4067309Y-17917638D01*
X4125500Y-17898730D01*
X4183690Y-17917637D01*
X4219654Y-17967137D01*
X4224500Y-17997730D01*
X4224500Y-19649435D01*
X4247067Y-19733657D01*
X4250091Y-19744942D01*
X4283685Y-19803127D01*
X4299525Y-19830562D01*
X4369438Y-19900475D01*
X4369440Y-19900476D01*
X4455058Y-19949908D01*
X4455056Y-19949908D01*
X4455060Y-19949909D01*
X4455062Y-19949910D01*
X4550565Y-19975500D01*
X4649435Y-19975500D01*
X6960055Y-19975500D01*
X6976604Y-19976892D01*
X6985965Y-19978480D01*
X7012997Y-19975935D01*
X7022273Y-19975500D01*
X7049435Y-19975500D01*
X7058598Y-19973044D01*
X7074950Y-19970105D01*
X7084402Y-19969216D01*
X7109862Y-19959758D01*
X7118700Y-19956939D01*
X7144938Y-19949910D01*
X7153164Y-19945160D01*
X7168178Y-19938098D01*
X7311488Y-19884868D01*
X7371579Y-19882047D01*
X7459108Y-19905500D01*
X7459110Y-19905500D01*
X7590890Y-19905500D01*
X7590892Y-19905500D01*
X7718186Y-19871392D01*
X7718188Y-19871390D01*
X7718190Y-19871390D01*
X7832309Y-19805503D01*
X7832309Y-19805502D01*
X7832314Y-19805500D01*
X7925500Y-19712314D01*
X7925503Y-19712309D01*
X7991390Y-19598190D01*
X7991390Y-19598188D01*
X7991392Y-19598186D01*
X8025500Y-19470892D01*
X8025500Y-19339108D01*
X7991392Y-19211814D01*
X7991390Y-19211811D01*
X7991390Y-19211809D01*
X7925503Y-19097690D01*
X7925501Y-19097688D01*
X7925500Y-19097686D01*
X7832314Y-19004500D01*
X7832311Y-19004498D01*
X7832309Y-19004496D01*
X7718189Y-18938609D01*
X7718191Y-18938609D01*
X7668799Y-18925375D01*
X7590892Y-18904500D01*
X7459108Y-18904500D01*
X7381200Y-18925375D01*
X7331809Y-18938609D01*
X7217690Y-19004496D01*
X7217685Y-19004500D01*
X7124499Y-19097685D01*
X7101536Y-19137457D01*
X7056065Y-19178397D01*
X7050273Y-19180760D01*
X6990450Y-19202981D01*
X6949192Y-19218305D01*
X6914723Y-19224500D01*
X5074500Y-19224500D01*
X5016309Y-19205593D01*
X4980345Y-19156093D01*
X4975500Y-19125500D01*
X4975500Y-11474500D01*
X4994407Y-11416309D01*
X5043907Y-11380345D01*
X5074500Y-11375500D01*
X5075500Y-11375500D01*
X5133691Y-11394407D01*
X5169655Y-11443907D01*
X5174500Y-11474500D01*
X5174500Y-12939275D01*
X5173500Y-12949971D01*
X5173500Y-12953831D01*
X5170606Y-12969173D01*
X5173500Y-13007506D01*
X5174219Y-13017030D01*
X5174500Y-13024483D01*
X5174500Y-13072478D01*
X5177541Y-13083828D01*
X5180631Y-13101983D01*
X5181517Y-13113708D01*
X5181518Y-13113714D01*
X5197390Y-13158992D01*
X5199590Y-13166115D01*
X5212016Y-13212487D01*
X5212018Y-13212490D01*
X5217892Y-13222665D01*
X5225581Y-13239414D01*
X7029465Y-18385493D01*
X7029466Y-18385496D01*
X7029468Y-18385500D01*
X7029469Y-18385501D01*
X7111185Y-18505216D01*
X7111186Y-18505217D01*
X7111187Y-18505218D01*
X7221107Y-18599706D01*
X7351736Y-18662524D01*
X7494173Y-18689393D01*
X7494174Y-18689392D01*
X7494175Y-18689393D01*
X7590531Y-18682119D01*
X7638711Y-18678482D01*
X7775500Y-18630532D01*
X7895218Y-18548813D01*
X7989706Y-18438893D01*
X8052524Y-18308264D01*
X8079393Y-18165827D01*
X8078710Y-18156785D01*
X8068482Y-18021288D01*
X7439607Y-16227249D01*
X7438200Y-16166080D01*
X7473016Y-16115766D01*
X7530757Y-16095526D01*
X7533033Y-16095500D01*
X7590890Y-16095500D01*
X7590892Y-16095500D01*
X7718186Y-16061392D01*
X7718188Y-16061390D01*
X7718190Y-16061390D01*
X7832309Y-15995503D01*
X7832309Y-15995502D01*
X7832314Y-15995500D01*
X7925500Y-15902314D01*
X7925503Y-15902309D01*
X7991390Y-15788190D01*
X7991390Y-15788188D01*
X7991392Y-15788186D01*
X8025500Y-15660892D01*
X8025500Y-15529108D01*
X7991392Y-15401814D01*
X7991390Y-15401811D01*
X7991390Y-15401809D01*
X7925503Y-15287690D01*
X7925501Y-15287688D01*
X7925500Y-15287686D01*
X7832314Y-15194500D01*
X7832311Y-15194498D01*
X7832309Y-15194496D01*
X7725000Y-15132541D01*
X7684059Y-15087072D01*
X7675500Y-15046805D01*
X7675500Y-13274500D01*
X7694407Y-13216309D01*
X7743907Y-13180345D01*
X7774500Y-13175500D01*
X43000500Y-13175500D01*
X43058691Y-13194407D01*
X43094655Y-13243907D01*
X43099500Y-13274500D01*
X43099500Y-13325500D01*
X43080593Y-13383691D01*
X43031093Y-13419655D01*
X43000500Y-13424500D01*
X12524435Y-13424500D01*
X12425565Y-13424500D01*
X12367114Y-13440161D01*
X12330057Y-13450091D01*
X12244440Y-13499523D01*
X12174523Y-13569440D01*
X12125091Y-13655057D01*
X12099500Y-13750566D01*
X12099500Y-15221678D01*
X12080593Y-15279869D01*
X12078367Y-15282477D01*
X12078449Y-15282540D01*
X12074496Y-15287690D01*
X12008609Y-15401809D01*
X11993625Y-15457730D01*
X11974500Y-15529108D01*
X11974500Y-15660892D01*
X12000232Y-15756926D01*
X12008609Y-15788190D01*
X12074496Y-15902309D01*
X12074498Y-15902311D01*
X12074500Y-15902314D01*
X12167686Y-15995500D01*
X12167688Y-15995501D01*
X12167690Y-15995503D01*
X12281810Y-16061390D01*
X12281808Y-16061390D01*
X12281812Y-16061391D01*
X12281814Y-16061392D01*
X12409108Y-16095500D01*
X12409110Y-16095500D01*
X12540890Y-16095500D01*
X12540892Y-16095500D01*
X12668186Y-16061392D01*
X12668188Y-16061390D01*
X12668190Y-16061390D01*
X12782309Y-15995503D01*
X12782309Y-15995502D01*
X12782314Y-15995500D01*
X12875500Y-15902314D01*
X12875503Y-15902309D01*
X12941390Y-15788190D01*
X12941390Y-15788188D01*
X12941392Y-15788186D01*
X12975500Y-15660892D01*
X12975500Y-15529108D01*
X12941392Y-15401814D01*
X12941390Y-15401811D01*
X12941390Y-15401809D01*
X12875503Y-15287690D01*
X12871551Y-15282540D01*
X12873901Y-15280735D01*
X12851706Y-15237082D01*
X12850500Y-15221678D01*
X12850500Y-14274500D01*
X12869407Y-14216309D01*
X12918907Y-14180345D01*
X12949500Y-14175500D01*
X23457287Y-14175500D01*
X23515478Y-14194407D01*
X23551442Y-14243907D01*
X23551442Y-14305093D01*
X23543023Y-14324000D01*
X23525091Y-14355057D01*
X23499500Y-14450566D01*
X23499500Y-20214549D01*
X23480593Y-20272740D01*
X23431093Y-20308704D01*
X23408981Y-20313185D01*
X9986847Y-21467317D01*
X9952745Y-21464308D01*
X9897477Y-21449500D01*
X9897475Y-21449500D01*
X9752525Y-21449500D01*
X9612515Y-21487016D01*
X9612513Y-21487016D01*
X9612509Y-21487018D01*
X9606159Y-21490684D01*
X9565149Y-21503578D01*
X8509095Y-21594385D01*
X8451115Y-21581486D01*
X8368187Y-21533608D01*
X8291215Y-21512984D01*
X8240892Y-21499500D01*
X8109108Y-21499500D01*
X8058785Y-21512984D01*
X7981809Y-21533609D01*
X7867690Y-21599496D01*
X7774496Y-21692690D01*
X7708609Y-21806809D01*
X7699537Y-21840668D01*
X7674500Y-21934108D01*
X7674500Y-22065892D01*
X7694696Y-22141266D01*
X7708609Y-22193190D01*
X7774496Y-22307309D01*
X7774498Y-22307311D01*
X7774500Y-22307314D01*
X7867686Y-22400500D01*
X7867688Y-22400501D01*
X7867690Y-22400503D01*
X7981810Y-22466390D01*
X7981808Y-22466390D01*
X7981812Y-22466391D01*
X7981814Y-22466392D01*
X8109108Y-22500500D01*
X8109110Y-22500500D01*
X8240890Y-22500500D01*
X8240892Y-22500500D01*
X8368186Y-22466392D01*
X8368188Y-22466390D01*
X8368190Y-22466390D01*
X8482310Y-22400503D01*
X8482310Y-22400501D01*
X8482314Y-22400500D01*
X8511521Y-22371291D01*
X8566035Y-22343513D01*
X8573021Y-22342660D01*
X9167019Y-22291584D01*
X9226615Y-22305437D01*
X9266688Y-22351674D01*
X9274500Y-22390220D01*
X9274500Y-22850500D01*
X9255593Y-22908691D01*
X9206093Y-22944655D01*
X9175500Y-22949500D01*
X6474500Y-22949500D01*
X6416309Y-22930593D01*
X6380345Y-22881093D01*
X6375500Y-22850500D01*
X6375500Y-21927525D01*
X6367778Y-21898706D01*
X6337984Y-21787515D01*
X6337982Y-21787512D01*
X6337982Y-21787510D01*
X6265512Y-21661989D01*
X6265510Y-21661987D01*
X6265509Y-21661985D01*
X6163015Y-21559491D01*
X6163012Y-21559489D01*
X6163010Y-21559487D01*
X6037488Y-21487017D01*
X6037489Y-21487017D01*
X5963968Y-21467317D01*
X5897475Y-21449500D01*
X5752525Y-21449500D01*
X5693869Y-21465217D01*
X5612510Y-21487017D01*
X5486989Y-21559487D01*
X5384487Y-21661989D01*
X5312017Y-21787510D01*
X5294343Y-21853469D01*
X5274500Y-21927525D01*
X5274500Y-23572475D01*
X5300741Y-23670407D01*
X5302073Y-23675377D01*
X5298871Y-23736478D01*
X5260365Y-23784028D01*
X5206446Y-23800000D01*
X4649500Y-23800000D01*
X4591309Y-23781093D01*
X4555345Y-23731593D01*
X4550500Y-23701000D01*
X4550500Y-22373321D01*
X4569407Y-22315130D01*
X4571633Y-22312523D01*
X4571551Y-22312460D01*
X4575496Y-22307317D01*
X4575500Y-22307314D01*
X4584582Y-22291584D01*
X4641390Y-22193190D01*
X4641390Y-22193188D01*
X4641392Y-22193186D01*
X4675500Y-22065892D01*
X4675500Y-21934108D01*
X4641392Y-21806814D01*
X4641390Y-21806811D01*
X4641390Y-21806809D01*
X4575503Y-21692690D01*
X4575501Y-21692688D01*
X4575500Y-21692686D01*
X4482314Y-21599500D01*
X4482311Y-21599498D01*
X4482309Y-21599496D01*
X4368189Y-21533609D01*
X4368191Y-21533609D01*
X4291215Y-21512984D01*
X4240892Y-21499500D01*
X4109108Y-21499500D01*
X4058785Y-21512984D01*
X3981809Y-21533609D01*
X3867690Y-21599496D01*
X3774496Y-21692690D01*
X3708609Y-21806809D01*
X3699537Y-21840668D01*
X3674500Y-21934108D01*
X3674500Y-22065892D01*
X3694696Y-22141266D01*
X3708609Y-22193190D01*
X3774496Y-22307309D01*
X3778449Y-22312460D01*
X3776086Y-22314273D01*
X3798281Y-22357834D01*
X3799500Y-22373321D01*
X3799500Y-23701000D01*
X3780593Y-23759191D01*
X3731093Y-23795155D01*
X3700500Y-23800000D01*
X1299000Y-23800000D01*
X1240809Y-23781093D01*
X1204845Y-23731593D01*
X1200000Y-23701000D01*
X1200000Y-6545327D01*
X1899500Y-6545327D01*
X1899500Y-8294672D01*
X1899501Y-8294684D01*
X1914033Y-8367736D01*
X1914035Y-8367742D01*
X1969397Y-8450599D01*
X1969399Y-8450601D01*
X2052260Y-8505966D01*
X2107808Y-8517015D01*
X2125315Y-8520498D01*
X2125320Y-8520498D01*
X2125326Y-8520500D01*
X2125327Y-8520500D01*
X3874673Y-8520500D01*
X3874674Y-8520500D01*
X3947740Y-8505966D01*
X4030601Y-8450601D01*
X4085966Y-8367740D01*
X4100500Y-8294674D01*
X4100500Y-6545326D01*
X4085966Y-6472260D01*
X4030601Y-6389399D01*
X4030599Y-6389397D01*
X3947742Y-6334035D01*
X3947740Y-6334034D01*
X3947737Y-6334033D01*
X3947736Y-6334033D01*
X3874684Y-6319501D01*
X3874674Y-6319500D01*
X2125326Y-6319500D01*
X2125325Y-6319500D01*
X2125315Y-6319501D01*
X2052263Y-6334033D01*
X2052257Y-6334035D01*
X1969400Y-6389397D01*
X1969397Y-6389400D01*
X1914035Y-6472257D01*
X1914033Y-6472263D01*
X1899501Y-6545315D01*
X1899500Y-6545327D01*
X1200000Y-6545327D01*
X1200000Y-1299000D01*
X1218907Y-1240809D01*
X1268407Y-1204845D01*
X1299000Y-1200000D01*
X5075500Y-1200000D01*
X5133691Y-1218907D01*
G37*
%TD.AperFunction*%
%TA.AperFunction,Conductor*%
G36*
X28689070Y-1218907D02*
G01*
X28725034Y-1268407D01*
X28726506Y-1273377D01*
X28758609Y-1393190D01*
X28824496Y-1507309D01*
X28828449Y-1512460D01*
X28826086Y-1514273D01*
X28848281Y-1557834D01*
X28849500Y-1573321D01*
X28849500Y-2199435D01*
X28872067Y-2283657D01*
X28875091Y-2294942D01*
X28924523Y-2380559D01*
X28924525Y-2380562D01*
X28994438Y-2450475D01*
X28994440Y-2450476D01*
X29080058Y-2499908D01*
X29080056Y-2499908D01*
X29080060Y-2499909D01*
X29080062Y-2499910D01*
X29175565Y-2525500D01*
X29274435Y-2525500D01*
X46425500Y-2525500D01*
X46483691Y-2544407D01*
X46519655Y-2593907D01*
X46524500Y-2624500D01*
X46524500Y-6226678D01*
X46505593Y-6284869D01*
X46503367Y-6287477D01*
X46503449Y-6287540D01*
X46499496Y-6292690D01*
X46433609Y-6406809D01*
X46424579Y-6440512D01*
X46399500Y-6534108D01*
X46399500Y-6665892D01*
X46420375Y-6743800D01*
X46433609Y-6793190D01*
X46499496Y-6907309D01*
X46499498Y-6907311D01*
X46499500Y-6907314D01*
X46592686Y-7000500D01*
X46592688Y-7000501D01*
X46640443Y-7028073D01*
X46681384Y-7073543D01*
X46683189Y-7077869D01*
X52150170Y-21109785D01*
X52153678Y-21170870D01*
X52127929Y-21215728D01*
X52060585Y-21283073D01*
X51958766Y-21423213D01*
X51883750Y-21570445D01*
X51840486Y-21613709D01*
X51795540Y-21624500D01*
X51750565Y-21624500D01*
X51708968Y-21635646D01*
X51655057Y-21650091D01*
X51569436Y-21699525D01*
X51564288Y-21703476D01*
X51563268Y-21702146D01*
X51515978Y-21726233D01*
X51455547Y-21716653D01*
X51412289Y-21673383D01*
X51406350Y-21659043D01*
X51379873Y-21577555D01*
X51301232Y-21423212D01*
X51199414Y-21283072D01*
X51076928Y-21160586D01*
X50936788Y-21058768D01*
X50936787Y-21058767D01*
X50936785Y-21058766D01*
X50782441Y-20980125D01*
X50782438Y-20980123D01*
X50617706Y-20926598D01*
X50617702Y-20926597D01*
X50446614Y-20899500D01*
X50446611Y-20899500D01*
X50273389Y-20899500D01*
X50273386Y-20899500D01*
X50102297Y-20926597D01*
X50102293Y-20926598D01*
X49937561Y-20980123D01*
X49937558Y-20980125D01*
X49783214Y-21058766D01*
X49643073Y-21160585D01*
X49520585Y-21283073D01*
X49418766Y-21423214D01*
X49340125Y-21577558D01*
X49340123Y-21577561D01*
X49286598Y-21742293D01*
X49286597Y-21742297D01*
X49259500Y-21913385D01*
X49259500Y-22086614D01*
X49286597Y-22257702D01*
X49286598Y-22257706D01*
X49340123Y-22422438D01*
X49340125Y-22422441D01*
X49379897Y-22500500D01*
X49418768Y-22576788D01*
X49520586Y-22716928D01*
X49643072Y-22839414D01*
X49783212Y-22941232D01*
X49783214Y-22941233D01*
X49786359Y-22943518D01*
X49785759Y-22944343D01*
X49822717Y-22987622D01*
X49827513Y-23048619D01*
X49795539Y-23100785D01*
X49739009Y-23124195D01*
X49731250Y-23124500D01*
X48448750Y-23124500D01*
X48390559Y-23105593D01*
X48354595Y-23056093D01*
X48354595Y-22994907D01*
X48390559Y-22945407D01*
X48396552Y-22941402D01*
X48396781Y-22941235D01*
X48396788Y-22941232D01*
X48536928Y-22839414D01*
X48659414Y-22716928D01*
X48761232Y-22576788D01*
X48839873Y-22422445D01*
X48839874Y-22422440D01*
X48839876Y-22422438D01*
X48893401Y-22257706D01*
X48893402Y-22257702D01*
X48920500Y-22086614D01*
X48920500Y-21913385D01*
X48893402Y-21742297D01*
X48893401Y-21742293D01*
X48839876Y-21577561D01*
X48839874Y-21577558D01*
X48839873Y-21577557D01*
X48839873Y-21577555D01*
X48761232Y-21423212D01*
X48659414Y-21283072D01*
X48536928Y-21160586D01*
X48396788Y-21058768D01*
X48396787Y-21058767D01*
X48396785Y-21058766D01*
X48249555Y-20983749D01*
X48206290Y-20940484D01*
X48195500Y-20895539D01*
X48195500Y-18965584D01*
X48214407Y-18907393D01*
X48263907Y-18871429D01*
X48320119Y-18869957D01*
X48434108Y-18900500D01*
X48434110Y-18900500D01*
X48565890Y-18900500D01*
X48565892Y-18900500D01*
X48693186Y-18866392D01*
X48693188Y-18866390D01*
X48693190Y-18866390D01*
X48807309Y-18800503D01*
X48807309Y-18800502D01*
X48807314Y-18800500D01*
X48900500Y-18707314D01*
X48926361Y-18662522D01*
X48966390Y-18593190D01*
X48966390Y-18593188D01*
X48966392Y-18593186D01*
X49000500Y-18465892D01*
X49000500Y-18334108D01*
X48966392Y-18206814D01*
X48966390Y-18206811D01*
X48966390Y-18206809D01*
X48900503Y-18092690D01*
X48900501Y-18092688D01*
X48900500Y-18092686D01*
X48807314Y-17999500D01*
X48807311Y-17999498D01*
X48807309Y-17999496D01*
X48693189Y-17933609D01*
X48693191Y-17933609D01*
X48643799Y-17920375D01*
X48565892Y-17899500D01*
X48434108Y-17899500D01*
X48356200Y-17920375D01*
X48306809Y-17933609D01*
X48192690Y-17999496D01*
X48187540Y-18003449D01*
X48185726Y-18001086D01*
X48142166Y-18023281D01*
X48126679Y-18024500D01*
X47869435Y-18024500D01*
X47770565Y-18024500D01*
X47712114Y-18040161D01*
X47675057Y-18050091D01*
X47589440Y-18099523D01*
X47519523Y-18169440D01*
X47470091Y-18255057D01*
X47458872Y-18296928D01*
X47448910Y-18334109D01*
X47444500Y-18350566D01*
X47444500Y-20895539D01*
X47425593Y-20953730D01*
X47390445Y-20983749D01*
X47243214Y-21058766D01*
X47103073Y-21160585D01*
X46980585Y-21283073D01*
X46878766Y-21423214D01*
X46800125Y-21577558D01*
X46800123Y-21577561D01*
X46746598Y-21742293D01*
X46746597Y-21742297D01*
X46719500Y-21913385D01*
X46719500Y-22086614D01*
X46746597Y-22257702D01*
X46746598Y-22257706D01*
X46800123Y-22422438D01*
X46800125Y-22422441D01*
X46839897Y-22500500D01*
X46878768Y-22576788D01*
X46980586Y-22716928D01*
X47103072Y-22839414D01*
X47243212Y-22941232D01*
X47243214Y-22941233D01*
X47246359Y-22943518D01*
X47245759Y-22944343D01*
X47282717Y-22987622D01*
X47287513Y-23048619D01*
X47255539Y-23100785D01*
X47199009Y-23124195D01*
X47191250Y-23124500D01*
X45908750Y-23124500D01*
X45850559Y-23105593D01*
X45814595Y-23056093D01*
X45814595Y-22994907D01*
X45850559Y-22945407D01*
X45856552Y-22941402D01*
X45856781Y-22941235D01*
X45856788Y-22941232D01*
X45996928Y-22839414D01*
X46119414Y-22716928D01*
X46221232Y-22576788D01*
X46299873Y-22422445D01*
X46299874Y-22422440D01*
X46299876Y-22422438D01*
X46353401Y-22257706D01*
X46353402Y-22257702D01*
X46380500Y-22086614D01*
X46380500Y-21913385D01*
X46353402Y-21742297D01*
X46353401Y-21742293D01*
X46299876Y-21577561D01*
X46299874Y-21577558D01*
X46299873Y-21577557D01*
X46299873Y-21577555D01*
X46221232Y-21423212D01*
X46119414Y-21283072D01*
X45996928Y-21160586D01*
X45856788Y-21058768D01*
X45856787Y-21058767D01*
X45856785Y-21058766D01*
X45702441Y-20980125D01*
X45702438Y-20980123D01*
X45537706Y-20926598D01*
X45537702Y-20926597D01*
X45366614Y-20899500D01*
X45366611Y-20899500D01*
X45193389Y-20899500D01*
X45193386Y-20899500D01*
X45022297Y-20926597D01*
X45022293Y-20926598D01*
X44857561Y-20980123D01*
X44857558Y-20980125D01*
X44703214Y-21058766D01*
X44563073Y-21160585D01*
X44440585Y-21283073D01*
X44338766Y-21423214D01*
X44260125Y-21577558D01*
X44260123Y-21577561D01*
X44206598Y-21742293D01*
X44206597Y-21742297D01*
X44179500Y-21913385D01*
X44179500Y-22086614D01*
X44206597Y-22257702D01*
X44206598Y-22257706D01*
X44260123Y-22422438D01*
X44260125Y-22422441D01*
X44299897Y-22500500D01*
X44338768Y-22576788D01*
X44440586Y-22716928D01*
X44563072Y-22839414D01*
X44703212Y-22941232D01*
X44703214Y-22941233D01*
X44706359Y-22943518D01*
X44705759Y-22944343D01*
X44742717Y-22987622D01*
X44747513Y-23048619D01*
X44715539Y-23100785D01*
X44659009Y-23124195D01*
X44651250Y-23124500D01*
X41353075Y-23124500D01*
X41294884Y-23105593D01*
X41258920Y-23056093D01*
X41258920Y-22994907D01*
X41270760Y-22970499D01*
X41285962Y-22947746D01*
X41285962Y-22947745D01*
X41285966Y-22947740D01*
X41300500Y-22874674D01*
X41300500Y-21125326D01*
X41285966Y-21052260D01*
X41240189Y-20983749D01*
X41230602Y-20969400D01*
X41230599Y-20969397D01*
X41147742Y-20914035D01*
X41147740Y-20914034D01*
X41147737Y-20914033D01*
X41147736Y-20914033D01*
X41074684Y-20899501D01*
X41074674Y-20899500D01*
X39325326Y-20899500D01*
X39325325Y-20899500D01*
X39325315Y-20899501D01*
X39252263Y-20914033D01*
X39252257Y-20914035D01*
X39169400Y-20969397D01*
X39169397Y-20969400D01*
X39114035Y-21052257D01*
X39114033Y-21052263D01*
X39099501Y-21125315D01*
X39099500Y-21125327D01*
X39099500Y-22874672D01*
X39099501Y-22874684D01*
X39112773Y-22941402D01*
X39114034Y-22947740D01*
X39114035Y-22947742D01*
X39114037Y-22947746D01*
X39129240Y-22970499D01*
X39145849Y-23029387D01*
X39124671Y-23086790D01*
X39073798Y-23120783D01*
X39046925Y-23124500D01*
X24349500Y-23124500D01*
X24291309Y-23105593D01*
X24255345Y-23056093D01*
X24250500Y-23025500D01*
X24250500Y-21023321D01*
X24269407Y-20965130D01*
X24271633Y-20962523D01*
X24271551Y-20962460D01*
X24275496Y-20957317D01*
X24275500Y-20957314D01*
X24300488Y-20914034D01*
X24341390Y-20843190D01*
X24341390Y-20843188D01*
X24341392Y-20843186D01*
X24375500Y-20715892D01*
X24375500Y-20584108D01*
X24341392Y-20456814D01*
X24341390Y-20456811D01*
X24341390Y-20456809D01*
X24275503Y-20342690D01*
X24271551Y-20337540D01*
X24273901Y-20335735D01*
X24251706Y-20292082D01*
X24250500Y-20276678D01*
X24250500Y-14974500D01*
X24269407Y-14916309D01*
X24318907Y-14880345D01*
X24349500Y-14875500D01*
X27575500Y-14875500D01*
X27633691Y-14894407D01*
X27669655Y-14943907D01*
X27674500Y-14974500D01*
X27674500Y-21072474D01*
X27712017Y-21212489D01*
X27784487Y-21338010D01*
X27784489Y-21338012D01*
X27784491Y-21338015D01*
X27886985Y-21440509D01*
X27886987Y-21440510D01*
X27886989Y-21440512D01*
X28012511Y-21512982D01*
X28012512Y-21512982D01*
X28012515Y-21512984D01*
X28152525Y-21550500D01*
X28297475Y-21550500D01*
X31222618Y-21550500D01*
X31280809Y-21569407D01*
X31316773Y-21618907D01*
X31316773Y-21680093D01*
X31308354Y-21699000D01*
X31246109Y-21806809D01*
X31237037Y-21840668D01*
X31212000Y-21934108D01*
X31212000Y-22065892D01*
X31232196Y-22141266D01*
X31246109Y-22193190D01*
X31311996Y-22307309D01*
X31311998Y-22307311D01*
X31312000Y-22307314D01*
X31405186Y-22400500D01*
X31405188Y-22400501D01*
X31405190Y-22400503D01*
X31519310Y-22466390D01*
X31519308Y-22466390D01*
X31519312Y-22466391D01*
X31519314Y-22466392D01*
X31646608Y-22500500D01*
X31646610Y-22500500D01*
X31778390Y-22500500D01*
X31778392Y-22500500D01*
X31905686Y-22466392D01*
X31905688Y-22466390D01*
X31905690Y-22466390D01*
X32019810Y-22400503D01*
X32019811Y-22400501D01*
X32019814Y-22400500D01*
X32025769Y-22394544D01*
X32080283Y-22366765D01*
X32093148Y-22365580D01*
X35495102Y-22275759D01*
X35501268Y-22275789D01*
X35528720Y-22276782D01*
X35535837Y-22277040D01*
X35535837Y-22277039D01*
X35535840Y-22277040D01*
X35537782Y-22276594D01*
X35557321Y-22274117D01*
X35559329Y-22274064D01*
X35592527Y-22264221D01*
X35598473Y-22262659D01*
X35632203Y-22254917D01*
X35633960Y-22253985D01*
X35652203Y-22246531D01*
X35654123Y-22245963D01*
X35683640Y-22227865D01*
X35688969Y-22224822D01*
X35719559Y-22208606D01*
X35721023Y-22207243D01*
X35736709Y-22195328D01*
X35738412Y-22194285D01*
X35762228Y-22169176D01*
X35766598Y-22164848D01*
X35791950Y-22141266D01*
X35793011Y-22139571D01*
X35805078Y-22124003D01*
X35806456Y-22122551D01*
X35822963Y-22092131D01*
X35826080Y-22086794D01*
X35839177Y-22065892D01*
X35844447Y-22057482D01*
X35845033Y-22055572D01*
X35852660Y-22037408D01*
X35853614Y-22035652D01*
X35861690Y-22001975D01*
X35863308Y-21996054D01*
X35873469Y-21962967D01*
X35873541Y-21960970D01*
X35876207Y-21941449D01*
X35876674Y-21939507D01*
X35875760Y-21904886D01*
X35875791Y-21898706D01*
X35877040Y-21864162D01*
X35877040Y-21864160D01*
X35876594Y-21862218D01*
X35874118Y-21842681D01*
X35874065Y-21840671D01*
X35864225Y-21807480D01*
X35862652Y-21801491D01*
X35854918Y-21767801D01*
X35854917Y-21767800D01*
X35854917Y-21767797D01*
X35853980Y-21766030D01*
X35846533Y-21747802D01*
X35845963Y-21745877D01*
X35827876Y-21716376D01*
X35824810Y-21711005D01*
X35808607Y-21680442D01*
X35808605Y-21680440D01*
X35807247Y-21678980D01*
X35795330Y-21663291D01*
X35794288Y-21661592D01*
X35794286Y-21661590D01*
X35794285Y-21661588D01*
X35769172Y-21637767D01*
X35764824Y-21633376D01*
X35756567Y-21624500D01*
X34188943Y-19939303D01*
X33027013Y-18690227D01*
X33001223Y-18634743D01*
X33000500Y-18622798D01*
X33000500Y-18609109D01*
X32998026Y-18599876D01*
X32966392Y-18481814D01*
X32966390Y-18481811D01*
X32966390Y-18481809D01*
X32900503Y-18367690D01*
X32900501Y-18367688D01*
X32900500Y-18367686D01*
X32807314Y-18274500D01*
X32807311Y-18274498D01*
X32807309Y-18274496D01*
X32693189Y-18208609D01*
X32693191Y-18208609D01*
X32643799Y-18195375D01*
X32565892Y-18174500D01*
X32434108Y-18174500D01*
X32356200Y-18195375D01*
X32306809Y-18208609D01*
X32192690Y-18274496D01*
X32099496Y-18367690D01*
X32033609Y-18481809D01*
X32027337Y-18505218D01*
X31999500Y-18609108D01*
X31999500Y-18740892D01*
X32015472Y-18800500D01*
X32033609Y-18868190D01*
X32099496Y-18982309D01*
X32099498Y-18982311D01*
X32099500Y-18982314D01*
X32192686Y-19075500D01*
X32192688Y-19075501D01*
X32192690Y-19075503D01*
X32306810Y-19141390D01*
X32306808Y-19141390D01*
X32306812Y-19141391D01*
X32306814Y-19141392D01*
X32431435Y-19174783D01*
X32478297Y-19202981D01*
X33036573Y-19803127D01*
X33098567Y-19869770D01*
X33098567Y-19869772D01*
X34508997Y-21385983D01*
X34534788Y-21441467D01*
X34523040Y-21501514D01*
X34478241Y-21543188D01*
X34439124Y-21552378D01*
X32927829Y-21592280D01*
X32869159Y-21574915D01*
X32831902Y-21526381D01*
X32830287Y-21465217D01*
X32855211Y-21423312D01*
X32940509Y-21338015D01*
X32972230Y-21283073D01*
X33012982Y-21212489D01*
X33012982Y-21212487D01*
X33012984Y-21212485D01*
X33050500Y-21072475D01*
X33050500Y-20252525D01*
X33012984Y-20112515D01*
X33012982Y-20112512D01*
X33012982Y-20112510D01*
X32945954Y-19996416D01*
X32940509Y-19986985D01*
X32838015Y-19884491D01*
X32838012Y-19884489D01*
X32838010Y-19884487D01*
X32712488Y-19812017D01*
X32712489Y-19812017D01*
X32679311Y-19803127D01*
X32572475Y-19774500D01*
X32427525Y-19774500D01*
X32365790Y-19791041D01*
X32287510Y-19812017D01*
X32161989Y-19884487D01*
X32059487Y-19986989D01*
X31987017Y-20112510D01*
X31949500Y-20252525D01*
X31949500Y-20350500D01*
X31930593Y-20408691D01*
X31881093Y-20444655D01*
X31850500Y-20449500D01*
X28874500Y-20449500D01*
X28816309Y-20430593D01*
X28780345Y-20381093D01*
X28775500Y-20350500D01*
X28775500Y-14974500D01*
X28794407Y-14916309D01*
X28843907Y-14880345D01*
X28874500Y-14875500D01*
X42025500Y-14875500D01*
X42083691Y-14894407D01*
X42119655Y-14943907D01*
X42124500Y-14974500D01*
X42124500Y-16549435D01*
X42128910Y-16565892D01*
X42150091Y-16644942D01*
X42177948Y-16693190D01*
X42199525Y-16730562D01*
X42269438Y-16800475D01*
X42269440Y-16800476D01*
X42355058Y-16849908D01*
X42355056Y-16849908D01*
X42355060Y-16849909D01*
X42355062Y-16849910D01*
X42450565Y-16875500D01*
X42549435Y-16875500D01*
X43226679Y-16875500D01*
X43284870Y-16894407D01*
X43287476Y-16896633D01*
X43287540Y-16896551D01*
X43292690Y-16900503D01*
X43406810Y-16966390D01*
X43406808Y-16966390D01*
X43406812Y-16966391D01*
X43406814Y-16966392D01*
X43534108Y-17000500D01*
X43534110Y-17000500D01*
X43665890Y-17000500D01*
X43665892Y-17000500D01*
X43793186Y-16966392D01*
X43793188Y-16966390D01*
X43793190Y-16966390D01*
X43907309Y-16900503D01*
X43907309Y-16900502D01*
X43907314Y-16900500D01*
X44000500Y-16807314D01*
X44066392Y-16693186D01*
X44100500Y-16565892D01*
X44100500Y-16434108D01*
X44066392Y-16306814D01*
X44066390Y-16306811D01*
X44066390Y-16306809D01*
X44000503Y-16192690D01*
X44000501Y-16192688D01*
X44000500Y-16192686D01*
X43907314Y-16099500D01*
X43907311Y-16099498D01*
X43907309Y-16099496D01*
X43793189Y-16033609D01*
X43793191Y-16033609D01*
X43743799Y-16020375D01*
X43665892Y-15999500D01*
X43534108Y-15999500D01*
X43456200Y-16020375D01*
X43406809Y-16033609D01*
X43292690Y-16099496D01*
X43287540Y-16103449D01*
X43285726Y-16101086D01*
X43242166Y-16123281D01*
X43226679Y-16124500D01*
X42974500Y-16124500D01*
X42916309Y-16105593D01*
X42880345Y-16056093D01*
X42875500Y-16025500D01*
X42875500Y-14450566D01*
X42875324Y-14449908D01*
X42849910Y-14355062D01*
X42849908Y-14355059D01*
X42849908Y-14355057D01*
X42831977Y-14324000D01*
X42819255Y-14264152D01*
X42844141Y-14208256D01*
X42897129Y-14177663D01*
X42917713Y-14175500D01*
X43026109Y-14175500D01*
X43084300Y-14194407D01*
X43120264Y-14243907D01*
X43121729Y-14248855D01*
X43128601Y-14274500D01*
X43133609Y-14293190D01*
X43199496Y-14407309D01*
X43199498Y-14407311D01*
X43199500Y-14407314D01*
X43292686Y-14500500D01*
X43292688Y-14500501D01*
X43292690Y-14500503D01*
X43406810Y-14566390D01*
X43406808Y-14566390D01*
X43406812Y-14566391D01*
X43406814Y-14566392D01*
X43534108Y-14600500D01*
X43534110Y-14600500D01*
X43665890Y-14600500D01*
X43665892Y-14600500D01*
X43793186Y-14566392D01*
X43793188Y-14566390D01*
X43793190Y-14566390D01*
X43907309Y-14500503D01*
X43907309Y-14500502D01*
X43907314Y-14500500D01*
X43907317Y-14500496D01*
X43912460Y-14496551D01*
X43914273Y-14498913D01*
X43957834Y-14476719D01*
X43973321Y-14475500D01*
X44049433Y-14475500D01*
X44049435Y-14475500D01*
X44144938Y-14449910D01*
X44144940Y-14449908D01*
X44144942Y-14449908D01*
X44170377Y-14435222D01*
X44230562Y-14400475D01*
X44300475Y-14330562D01*
X44349910Y-14244938D01*
X44375500Y-14149435D01*
X44375500Y-13774500D01*
X44394407Y-13716309D01*
X44443907Y-13680345D01*
X44474500Y-13675500D01*
X44549433Y-13675500D01*
X44549435Y-13675500D01*
X44644938Y-13649910D01*
X44644940Y-13649908D01*
X44644942Y-13649908D01*
X44670377Y-13635222D01*
X44730562Y-13600475D01*
X44800475Y-13530562D01*
X44846935Y-13450091D01*
X44849908Y-13444942D01*
X44849908Y-13444940D01*
X44849910Y-13444938D01*
X44875500Y-13349435D01*
X44875500Y-10950565D01*
X44849910Y-10855062D01*
X44849908Y-10855059D01*
X44849908Y-10855057D01*
X44800476Y-10769440D01*
X44800475Y-10769438D01*
X44730562Y-10699525D01*
X44730559Y-10699523D01*
X44644941Y-10650091D01*
X44644943Y-10650091D01*
X44607885Y-10640161D01*
X44549435Y-10624500D01*
X44549433Y-10624500D01*
X6374500Y-10624500D01*
X6316309Y-10605593D01*
X6280345Y-10556093D01*
X6275500Y-10525500D01*
X6275500Y-5927525D01*
X18674500Y-5927525D01*
X18674500Y-6072474D01*
X18712017Y-6212489D01*
X18784487Y-6338010D01*
X18784489Y-6338012D01*
X18784491Y-6338015D01*
X18886985Y-6440509D01*
X18886987Y-6440510D01*
X18886989Y-6440512D01*
X19012511Y-6512982D01*
X19012512Y-6512982D01*
X19012515Y-6512984D01*
X19152525Y-6550500D01*
X19152526Y-6550500D01*
X26434974Y-6550500D01*
X26434975Y-6550500D01*
X26574985Y-6512984D01*
X26574987Y-6512982D01*
X26574989Y-6512982D01*
X26700510Y-6440512D01*
X26700510Y-6440511D01*
X26700515Y-6440509D01*
X26803009Y-6338015D01*
X26805307Y-6334035D01*
X26875482Y-6212489D01*
X26875482Y-6212487D01*
X26875484Y-6212485D01*
X26913000Y-6072475D01*
X26913000Y-5927525D01*
X26875484Y-5787515D01*
X26875482Y-5787512D01*
X26875482Y-5787510D01*
X26803012Y-5661989D01*
X26803010Y-5661987D01*
X26803009Y-5661985D01*
X26700515Y-5559491D01*
X26700512Y-5559489D01*
X26700510Y-5559487D01*
X26574988Y-5487017D01*
X26574989Y-5487017D01*
X26545396Y-5479087D01*
X26434975Y-5449500D01*
X22597475Y-5449500D01*
X19152525Y-5449500D01*
X19090790Y-5466041D01*
X19012510Y-5487017D01*
X18886989Y-5559487D01*
X18784487Y-5661989D01*
X18712017Y-5787510D01*
X18674500Y-5927525D01*
X6275500Y-5927525D01*
X6275500Y-1499500D01*
X6294407Y-1441309D01*
X6343907Y-1405345D01*
X6374500Y-1400500D01*
X23647939Y-1400500D01*
X23706130Y-1419407D01*
X23733674Y-1449998D01*
X23784491Y-1538015D01*
X23886985Y-1640509D01*
X23886987Y-1640510D01*
X23886989Y-1640512D01*
X24012511Y-1712982D01*
X24012512Y-1712982D01*
X24012515Y-1712984D01*
X24152525Y-1750500D01*
X24152526Y-1750500D01*
X24297474Y-1750500D01*
X24297475Y-1750500D01*
X24437485Y-1712984D01*
X24437487Y-1712982D01*
X24437489Y-1712982D01*
X24563010Y-1640512D01*
X24563010Y-1640511D01*
X24563015Y-1640509D01*
X24665509Y-1538015D01*
X24665512Y-1538010D01*
X24737982Y-1412489D01*
X24737982Y-1412487D01*
X24737984Y-1412485D01*
X24775258Y-1273376D01*
X24808583Y-1222062D01*
X24865704Y-1200136D01*
X24870885Y-1200000D01*
X28630879Y-1200000D01*
X28689070Y-1218907D01*
G37*
%TD.AperFunction*%
%TD*%
M02*
