%TF.GenerationSoftware,KiCad,Pcbnew,10.0.5*%
%TF.CreationDate,2026-08-11T06:36:53+03:00*%
%TF.ProjectId,trace-dongle,74726163-652d-4646-9f6e-676c652e6b69,rev?*%
%TF.SameCoordinates,Original*%
%TF.FileFunction,Copper,L1,Top*%
%TF.FilePolarity,Positive*%
%FSLAX46Y46*%
G04 Gerber Fmt 4.6, Leading zero omitted, Abs format (unit mm)*
G04 Created by KiCad (PCBNEW 10.0.5) date 2026-08-11 06:36:53*
%MOMM*%
%LPD*%
G01*
G04 APERTURE LIST*
G04 Aperture macros list*
%AMRoundRect*
0 Rectangle with rounded corners*
0 $1 Rounding radius*
0 $2 $3 $4 $5 $6 $7 $8 $9 X,Y pos of 4 corners*
0 Add a 4 corners polygon primitive as box body*
4,1,4,$2,$3,$4,$5,$6,$7,$8,$9,$2,$3,0*
0 Add four circle primitives for the rounded corners*
1,1,$1+$1,$2,$3*
1,1,$1+$1,$4,$5*
1,1,$1+$1,$6,$7*
1,1,$1+$1,$8,$9*
0 Add four rect primitives between the rounded corners*
20,1,$1+$1,$2,$3,$4,$5,0*
20,1,$1+$1,$4,$5,$6,$7,0*
20,1,$1+$1,$6,$7,$8,$9,0*
20,1,$1+$1,$8,$9,$2,$3,0*%
%AMOutline5P*
0 Free polygon, 5 corners , with rotation*
0 The origin of the aperture is its center*
0 number of corners: always 5*
0 $1 to $10 corner X, Y*
0 $11 Rotation angle, in degrees counterclockwise*
0 create outline with 5 corners*
4,1,5,$1,$2,$3,$4,$5,$6,$7,$8,$9,$10,$1,$2,$11*%
%AMOutline6P*
0 Free polygon, 6 corners , with rotation*
0 The origin of the aperture is its center*
0 number of corners: always 6*
0 $1 to $12 corner X, Y*
0 $13 Rotation angle, in degrees counterclockwise*
0 create outline with 6 corners*
4,1,6,$1,$2,$3,$4,$5,$6,$7,$8,$9,$10,$11,$12,$1,$2,$13*%
%AMOutline7P*
0 Free polygon, 7 corners , with rotation*
0 The origin of the aperture is its center*
0 number of corners: always 7*
0 $1 to $14 corner X, Y*
0 $15 Rotation angle, in degrees counterclockwise*
0 create outline with 7 corners*
4,1,7,$1,$2,$3,$4,$5,$6,$7,$8,$9,$10,$11,$12,$13,$14,$1,$2,$15*%
%AMOutline8P*
0 Free polygon, 8 corners , with rotation*
0 The origin of the aperture is its center*
0 number of corners: always 8*
0 $1 to $16 corner X, Y*
0 $17 Rotation angle, in degrees counterclockwise*
0 create outline with 8 corners*
4,1,8,$1,$2,$3,$4,$5,$6,$7,$8,$9,$10,$11,$12,$13,$14,$15,$16,$1,$2,$17*%
G04 Aperture macros list end*
%TA.AperFunction,SMDPad,CuDef*%
%ADD10RoundRect,0.218750X-0.218750X-0.256250X0.218750X-0.256250X0.218750X0.256250X-0.218750X0.256250X0*%
%TD*%
%TA.AperFunction,SMDPad,CuDef*%
%ADD11RoundRect,0.200000X0.275000X-0.200000X0.275000X0.200000X-0.275000X0.200000X-0.275000X-0.200000X0*%
%TD*%
%TA.AperFunction,SMDPad,CuDef*%
%ADD12RoundRect,0.250000X-0.250000X-0.475000X0.250000X-0.475000X0.250000X0.475000X-0.250000X0.475000X0*%
%TD*%
%TA.AperFunction,SMDPad,CuDef*%
%ADD13RoundRect,0.250000X-0.325000X-1.100000X0.325000X-1.100000X0.325000X1.100000X-0.325000X1.100000X0*%
%TD*%
%TA.AperFunction,SMDPad,CuDef*%
%ADD14R,0.400000X0.800000*%
%TD*%
%TA.AperFunction,SMDPad,CuDef*%
%ADD15R,0.800000X0.400000*%
%TD*%
%TA.AperFunction,HeatsinkPad*%
%ADD16Outline5P,-0.725000X0.130500X-0.130500X0.725000X0.725000X0.725000X0.725000X-0.725000X-0.725000X-0.725000X270.000000*%
%TD*%
%TA.AperFunction,HeatsinkPad*%
%ADD17R,1.450000X1.450000*%
%TD*%
%TA.AperFunction,SMDPad,CuDef*%
%ADD18R,0.700000X0.700000*%
%TD*%
%TA.AperFunction,SMDPad,CuDef*%
%ADD19RoundRect,0.225000X-0.225000X-0.250000X0.225000X-0.250000X0.225000X0.250000X-0.225000X0.250000X0*%
%TD*%
%TA.AperFunction,SMDPad,CuDef*%
%ADD20RoundRect,0.200000X0.200000X0.275000X-0.200000X0.275000X-0.200000X-0.275000X0.200000X-0.275000X0*%
%TD*%
%TA.AperFunction,SMDPad,CuDef*%
%ADD21RoundRect,0.150000X-0.825000X-0.150000X0.825000X-0.150000X0.825000X0.150000X-0.825000X0.150000X0*%
%TD*%
%TA.AperFunction,SMDPad,CuDef*%
%ADD22RoundRect,0.225000X0.250000X-0.225000X0.250000X0.225000X-0.250000X0.225000X-0.250000X-0.225000X0*%
%TD*%
%TA.AperFunction,SMDPad,CuDef*%
%ADD23RoundRect,0.200000X-0.200000X-0.275000X0.200000X-0.275000X0.200000X0.275000X-0.200000X0.275000X0*%
%TD*%
%TA.AperFunction,SMDPad,CuDef*%
%ADD24RoundRect,0.150000X-0.512500X-0.150000X0.512500X-0.150000X0.512500X0.150000X-0.512500X0.150000X0*%
%TD*%
%TA.AperFunction,ComponentPad*%
%ADD25R,1.700000X1.700000*%
%TD*%
%TA.AperFunction,ComponentPad*%
%ADD26C,1.700000*%
%TD*%
%TA.AperFunction,SMDPad,CuDef*%
%ADD27RoundRect,0.150000X-0.587500X-0.150000X0.587500X-0.150000X0.587500X0.150000X-0.587500X0.150000X0*%
%TD*%
%TA.AperFunction,SMDPad,CuDef*%
%ADD28RoundRect,0.250000X-0.925000X-1.500000X0.925000X-1.500000X0.925000X1.500000X-0.925000X1.500000X0*%
%TD*%
%TA.AperFunction,SMDPad,CuDef*%
%ADD29RoundRect,0.250000X1.000000X0.900000X-1.000000X0.900000X-1.000000X-0.900000X1.000000X-0.900000X0*%
%TD*%
%TA.AperFunction,SMDPad,CuDef*%
%ADD30RoundRect,0.250000X-1.000000X-0.900000X1.000000X-0.900000X1.000000X0.900000X-1.000000X0.900000X0*%
%TD*%
%TA.AperFunction,SMDPad,CuDef*%
%ADD31R,1.550000X1.000000*%
%TD*%
%TA.AperFunction,ViaPad*%
%ADD32C,0.500000*%
%TD*%
%TA.AperFunction,Conductor*%
%ADD33C,0.250000*%
%TD*%
%TA.AperFunction,Conductor*%
%ADD34C,0.600000*%
%TD*%
%TA.AperFunction,Conductor*%
%ADD35C,0.300000*%
%TD*%
G04 APERTURE END LIST*
D10*
%TO.P,LED2,1*%
%TO.N,GND*%
X43212500Y-18200000D03*
%TO.P,LED2,2*%
%TO.N,LED2_TOP*%
X44787500Y-18200000D03*
%TD*%
D11*
%TO.P,R4,1*%
%TO.N,EN_U3_NODE*%
X32000000Y-13325000D03*
%TO.P,R4,2*%
%TO.N,GND*%
X32000000Y-11675000D03*
%TD*%
%TO.P,R2,1*%
%TO.N,FB_NODE*%
X46000000Y-16025000D03*
%TO.P,R2,2*%
%TO.N,GND*%
X46000000Y-14375000D03*
%TD*%
D12*
%TO.P,C3,1*%
%TO.N,3V3*%
X38050000Y-11000000D03*
%TO.P,C3,2*%
%TO.N,GND*%
X39950000Y-11000000D03*
%TD*%
D13*
%TO.P,C2,1*%
%TO.N,VIN_PROT*%
X26525000Y-6000000D03*
%TO.P,C2,2*%
%TO.N,GND*%
X29475000Y-6000000D03*
%TD*%
D14*
%TO.P,U1,1*%
%TO.N,GND*%
X59500000Y-9100000D03*
%TO.P,U1,2*%
X58700000Y-9100000D03*
%TO.P,U1,3*%
%TO.N,3V3*%
X57900000Y-9100000D03*
%TO.P,U1,4*%
%TO.N,N/C*%
X57100000Y-9100000D03*
%TO.P,U1,5*%
X56300000Y-9100000D03*
%TO.P,U1,6*%
X55500000Y-9100000D03*
%TO.P,U1,7*%
X54700000Y-9100000D03*
%TO.P,U1,8*%
%TO.N,U1_EN*%
X53900000Y-9100000D03*
%TO.P,U1,9*%
%TO.N,N/C*%
X53100000Y-9100000D03*
%TO.P,U1,10*%
X52300000Y-9100000D03*
%TO.P,U1,11*%
%TO.N,GND*%
X51500000Y-9100000D03*
D15*
%TO.P,U1,12*%
%TO.N,N/C*%
X50600000Y-10200000D03*
%TO.P,U1,13*%
X50600000Y-11000000D03*
%TO.P,U1,14*%
%TO.N,GND*%
X50600000Y-11800000D03*
%TO.P,U1,15*%
%TO.N,N/C*%
X50600000Y-12600000D03*
%TO.P,U1,16*%
X50600000Y-13400000D03*
%TO.P,U1,17*%
X50600000Y-14200000D03*
%TO.P,U1,18*%
%TO.N,CAN_TX*%
X50600000Y-15000000D03*
%TO.P,U1,19*%
%TO.N,CAN_RX*%
X50600000Y-15800000D03*
%TO.P,U1,20*%
%TO.N,CAN_S*%
X50600000Y-16600000D03*
%TO.P,U1,21*%
%TO.N,LED2_DRIVE*%
X50600000Y-17400000D03*
%TO.P,U1,22*%
%TO.N,IO8_PU*%
X50600000Y-18200000D03*
%TO.P,U1,23*%
%TO.N,IO9_BOOT*%
X50600000Y-19000000D03*
%TO.P,U1,24*%
%TO.N,N/C*%
X50600000Y-19800000D03*
D14*
%TO.P,U1,25*%
X51500000Y-20900000D03*
%TO.P,U1,26*%
X52300000Y-20900000D03*
%TO.P,U1,27*%
X53100000Y-20900000D03*
%TO.P,U1,28*%
X53900000Y-20900000D03*
%TO.P,U1,29*%
X54700000Y-20900000D03*
%TO.P,U1,30*%
%TO.N,RXD0*%
X55500000Y-20900000D03*
%TO.P,U1,31*%
%TO.N,TXD0*%
X56300000Y-20900000D03*
%TO.P,U1,32*%
%TO.N,N/C*%
X57100000Y-20900000D03*
%TO.P,U1,33*%
X57900000Y-20900000D03*
%TO.P,U1,34*%
X58700000Y-20900000D03*
%TO.P,U1,35*%
X59500000Y-20900000D03*
D15*
%TO.P,U1,36*%
%TO.N,GND*%
X60400000Y-19800000D03*
%TO.P,U1,37*%
X60400000Y-19000000D03*
%TO.P,U1,38*%
X60400000Y-18200000D03*
%TO.P,U1,39*%
X60400000Y-17400000D03*
%TO.P,U1,40*%
X60400000Y-16600000D03*
%TO.P,U1,41*%
X60400000Y-15800000D03*
%TO.P,U1,42*%
X60400000Y-15000000D03*
%TO.P,U1,43*%
X60400000Y-14200000D03*
%TO.P,U1,44*%
X60400000Y-13400000D03*
%TO.P,U1,45*%
X60400000Y-12600000D03*
%TO.P,U1,46*%
X60400000Y-11800000D03*
%TO.P,U1,47*%
X60400000Y-11000000D03*
%TO.P,U1,48*%
X60400000Y-10200000D03*
D16*
%TO.P,U1,49*%
X57475000Y-13025000D03*
D17*
X55500000Y-13025000D03*
X53525000Y-13025000D03*
X57475000Y-15000000D03*
X55500000Y-15000000D03*
X53525000Y-15000000D03*
X57475000Y-16975000D03*
X55500000Y-16975000D03*
X53525000Y-16975000D03*
D18*
%TO.P,U1,50*%
X60450000Y-20950000D03*
%TO.P,U1,51*%
X50550000Y-20950000D03*
%TO.P,U1,52*%
X50550000Y-9050000D03*
%TO.P,U1,53*%
X60450000Y-9050000D03*
%TD*%
D11*
%TO.P,R6,1*%
%TO.N,IO9_BOOT*%
X48000000Y-21825000D03*
%TO.P,R6,2*%
%TO.N,3V3*%
X48000000Y-20175000D03*
%TD*%
D19*
%TO.P,C7,1*%
%TO.N,3V3*%
X54025000Y-6000000D03*
%TO.P,C7,2*%
%TO.N,GND*%
X55575000Y-6000000D03*
%TD*%
D20*
%TO.P,R5,1*%
%TO.N,U1_EN*%
X62625000Y-6000000D03*
%TO.P,R5,2*%
%TO.N,3V3*%
X60975000Y-6000000D03*
%TD*%
D21*
%TO.P,U2,1*%
%TO.N,CAN_TX*%
X10525000Y-16095000D03*
%TO.P,U2,2*%
%TO.N,GND*%
X10525000Y-17365000D03*
%TO.P,U2,3*%
%TO.N,3V3*%
X10525000Y-18635000D03*
%TO.P,U2,4*%
%TO.N,CAN_RX*%
X10525000Y-19905000D03*
%TO.P,U2,5*%
%TO.N,GND*%
X15475000Y-19905000D03*
%TO.P,U2,6*%
%TO.N,CANL*%
X15475000Y-18635000D03*
%TO.P,U2,7*%
%TO.N,CANH*%
X15475000Y-17365000D03*
%TO.P,U2,8*%
%TO.N,CAN_S*%
X15475000Y-16095000D03*
%TD*%
D22*
%TO.P,C5,1*%
%TO.N,BST_NODE*%
X36500000Y-10575000D03*
%TO.P,C5,2*%
%TO.N,SW_NODE*%
X36500000Y-9025000D03*
%TD*%
D23*
%TO.P,R10,1*%
%TO.N,IO8_PU*%
X43675000Y-22000000D03*
%TO.P,R10,2*%
%TO.N,3V3*%
X45325000Y-22000000D03*
%TD*%
D11*
%TO.P,R3,1*%
%TO.N,VIN_PROT*%
X32000000Y-9825000D03*
%TO.P,R3,2*%
%TO.N,EN_U3_NODE*%
X32000000Y-8175000D03*
%TD*%
D19*
%TO.P,C8,1*%
%TO.N,U1_EN*%
X57525000Y-6000000D03*
%TO.P,C8,2*%
%TO.N,GND*%
X59075000Y-6000000D03*
%TD*%
D24*
%TO.P,U3,1*%
%TO.N,GND*%
X34862500Y-5050000D03*
%TO.P,U3,2*%
%TO.N,SW_NODE*%
X34862500Y-6000000D03*
%TO.P,U3,3*%
%TO.N,VIN_PROT*%
X34862500Y-6950000D03*
%TO.P,U3,4*%
%TO.N,FB_NODE*%
X37137500Y-6950000D03*
%TO.P,U3,5*%
%TO.N,EN_U3_NODE*%
X37137500Y-6000000D03*
%TO.P,U3,6*%
%TO.N,BST_NODE*%
X37137500Y-5050000D03*
%TD*%
D25*
%TO.P,J2,1*%
%TO.N,3V3*%
X52000000Y-24500000D03*
D26*
%TO.P,J2,2*%
%TO.N,GND*%
X54540000Y-24500000D03*
%TO.P,J2,3*%
%TO.N,TXD0*%
X57080000Y-24500000D03*
%TO.P,J2,4*%
%TO.N,RXD0*%
X59620000Y-24500000D03*
%TO.P,J2,5*%
%TO.N,IO9_BOOT*%
X62160000Y-24500000D03*
%TO.P,J2,6*%
%TO.N,U1_EN*%
X64700000Y-24500000D03*
%TD*%
D12*
%TO.P,C4,1*%
%TO.N,3V3*%
X42050000Y-13000000D03*
%TO.P,C4,2*%
%TO.N,GND*%
X43950000Y-13000000D03*
%TD*%
D27*
%TO.P,D3,1*%
%TO.N,CANL*%
X18562500Y-17050000D03*
%TO.P,D3,2*%
%TO.N,CANH*%
X18562500Y-18950000D03*
%TO.P,D3,3*%
%TO.N,GND*%
X20437500Y-18000000D03*
%TD*%
D11*
%TO.P,R9,1*%
%TO.N,CANH*%
X19500000Y-22325000D03*
%TO.P,R9,2*%
%TO.N,CANL*%
X19500000Y-20675000D03*
%TD*%
D28*
%TO.P,L1,1*%
%TO.N,SW_NODE*%
X40975000Y-6000000D03*
%TO.P,L1,2*%
%TO.N,3V3*%
X47025000Y-6000000D03*
%TD*%
D25*
%TO.P,J1,1*%
%TO.N,12V_RAW*%
X4000000Y-10000000D03*
D26*
%TO.P,J1,2*%
%TO.N,GND*%
X4000000Y-12540000D03*
%TO.P,J1,3*%
X4000000Y-15080000D03*
%TO.P,J1,4*%
%TO.N,CANH*%
X4000000Y-17620000D03*
%TO.P,J1,5*%
%TO.N,CANL*%
X4000000Y-20160000D03*
%TD*%
D11*
%TO.P,R7,1*%
%TO.N,3V3*%
X40500000Y-19025000D03*
%TO.P,R7,2*%
%TO.N,LED1_TOP*%
X40500000Y-17375000D03*
%TD*%
D10*
%TO.P,LED1,1*%
%TO.N,GND*%
X37212500Y-18200000D03*
%TO.P,LED1,2*%
%TO.N,LED1_TOP*%
X38787500Y-18200000D03*
%TD*%
D13*
%TO.P,C1,1*%
%TO.N,VIN_PROT*%
X18525000Y-6000000D03*
%TO.P,C1,2*%
%TO.N,GND*%
X21475000Y-6000000D03*
%TD*%
D29*
%TO.P,D2,1*%
%TO.N,VIN_PROT*%
X15150000Y-6000000D03*
%TO.P,D2,2*%
%TO.N,NET_FUSED*%
X10850000Y-6000000D03*
%TD*%
D30*
%TO.P,D1,1*%
%TO.N,NET_FUSED*%
X10850000Y-11500000D03*
%TO.P,D1,2*%
%TO.N,GND*%
X15150000Y-11500000D03*
%TD*%
D23*
%TO.P,R8,1*%
%TO.N,LED2_TOP*%
X46675000Y-18200000D03*
%TO.P,R8,2*%
%TO.N,LED2_DRIVE*%
X48325000Y-18200000D03*
%TD*%
D10*
%TO.P,F1,1*%
%TO.N,12V_RAW*%
X5712500Y-6000000D03*
%TO.P,F1,2*%
%TO.N,NET_FUSED*%
X7287500Y-6000000D03*
%TD*%
D31*
%TO.P,SW1,1*%
%TO.N,IO9_BOOT*%
X43375000Y-26450000D03*
X48625000Y-26450000D03*
%TO.P,SW1,2*%
%TO.N,GND*%
X43375000Y-28150000D03*
X48625000Y-28150000D03*
%TD*%
D11*
%TO.P,R1,1*%
%TO.N,3V3*%
X46000000Y-12825000D03*
%TO.P,R1,2*%
%TO.N,FB_NODE*%
X46000000Y-11175000D03*
%TD*%
D22*
%TO.P,C9,1*%
%TO.N,3V3*%
X8000000Y-15775000D03*
%TO.P,C9,2*%
%TO.N,GND*%
X8000000Y-14225000D03*
%TD*%
D19*
%TO.P,C6,1*%
%TO.N,3V3*%
X50525000Y-6000000D03*
%TO.P,C6,2*%
%TO.N,GND*%
X52075000Y-6000000D03*
%TD*%
D32*
%TO.N,VIN_PROT*%
X34862500Y-6950000D03*
X26525000Y-6000000D03*
%TO.N,3V3*%
X10525000Y-18635000D03*
X54025000Y-6000000D03*
X52000000Y-24500000D03*
X10525000Y-18635000D03*
X48000000Y-20175000D03*
X48000000Y-20175000D03*
X8000000Y-15775000D03*
X38050000Y-11000000D03*
%TO.N,FB_NODE*%
X37137500Y-6950000D03*
X46000000Y-11175000D03*
%TO.N,EN_U3_NODE*%
X32000000Y-8175000D03*
X37137500Y-6000000D03*
X32000000Y-13325000D03*
X32000000Y-8175000D03*
%TO.N,U1_EN*%
X62625000Y-6000000D03*
X53900000Y-9100000D03*
X62625000Y-6000000D03*
X57525000Y-6000000D03*
X57525000Y-6000000D03*
X64700000Y-24500000D03*
%TO.N,CAN_TX*%
X10525000Y-16095000D03*
X50600000Y-15000000D03*
%TO.N,CAN_RX*%
X50600000Y-15800000D03*
X10525000Y-19905000D03*
%TO.N,CAN_S*%
X15475000Y-16095000D03*
X50600000Y-16600000D03*
%TO.N,IO8_PU*%
X50600000Y-18200000D03*
X43675000Y-22000000D03*
%TO.N,TXD0*%
X56300000Y-20900000D03*
X57080000Y-24500000D03*
%TO.N,CANL*%
X15475000Y-18635000D03*
X18562500Y-17050000D03*
X19500000Y-20675000D03*
X18562500Y-17050000D03*
%TD*%
%TO.N,GND*%
D33*
X43375000Y-28150000D02*
X48625000Y-28150000D01*
%TO.N,12V_RAW*%
D34*
X4000000Y-10000000D02*
X4000000Y-6000000D01*
X4000000Y-6000000D02*
X5712500Y-6000000D01*
%TO.N,NET_FUSED*%
X7287500Y-6000000D02*
X10850000Y-6000000D01*
X10850000Y-6000000D02*
X10850000Y-11500000D01*
%TO.N,VIN_PROT*%
X28000000Y-3000000D02*
X26525000Y-6000000D01*
X19000000Y-3000000D02*
X28000000Y-3000000D01*
X15150000Y-6000000D02*
X18525000Y-6000000D01*
X27225000Y-9825000D02*
X32000000Y-9825000D01*
X26525000Y-6000000D02*
X27225000Y-9825000D01*
X18525000Y-6000000D02*
X19000000Y-3000000D01*
%TO.N,3V3*%
X50525000Y-7300000D02*
X50525000Y-6000000D01*
X57900000Y-7300000D02*
X54025000Y-7300000D01*
X40500000Y-20175000D02*
X48000000Y-20175000D01*
X60975000Y-7300000D02*
X60975000Y-6000000D01*
X48000000Y-20175000D02*
X48000000Y-20175000D01*
D33*
X45325000Y-22000000D02*
X48000000Y-20175000D01*
D34*
X50525000Y-6000000D02*
X50525000Y-7300000D01*
X54025000Y-7300000D02*
X54025000Y-6000000D01*
X57900000Y-9100000D02*
X57900000Y-7300000D01*
X45000000Y-10000000D02*
X45000000Y-12825000D01*
D35*
X45000000Y-12825000D02*
X45000000Y-7300000D01*
X45000000Y-7300000D02*
X50525000Y-7300000D01*
D34*
X45000000Y-12825000D02*
X46000000Y-12825000D01*
D35*
X50525000Y-7300000D02*
X50525000Y-6000000D01*
D34*
X42225000Y-10000000D02*
X45000000Y-10000000D01*
X50525000Y-7300000D02*
X54025000Y-7300000D01*
X40500000Y-19025000D02*
X40500000Y-20175000D01*
X47025000Y-7300000D02*
X50525000Y-7300000D01*
X54025000Y-6000000D02*
X54025000Y-7300000D01*
X54025000Y-7300000D02*
X54025000Y-6000000D01*
X54025000Y-7300000D02*
X60975000Y-7300000D01*
X38225000Y-12000000D02*
X42050000Y-13000000D01*
X38050000Y-11000000D02*
X38225000Y-12000000D01*
X47025000Y-6000000D02*
X47025000Y-7300000D01*
D35*
X46000000Y-12825000D02*
X45000000Y-12825000D01*
D34*
X42050000Y-13000000D02*
X42225000Y-10000000D01*
%TO.N,SW_NODE*%
D33*
X42000000Y-6000000D02*
X40975000Y-6000000D01*
X42000000Y-4000000D02*
X42000000Y-6000000D01*
X33800000Y-9025000D02*
X36500000Y-9025000D01*
X36000000Y-9025000D02*
X36000000Y-4000000D01*
X34862500Y-6000000D02*
X33800000Y-6000000D01*
X36000000Y-4000000D02*
X42000000Y-4000000D01*
X33800000Y-6000000D02*
X33800000Y-9025000D01*
X36500000Y-9025000D02*
X36000000Y-9025000D01*
%TO.N,BST_NODE*%
X38500000Y-9900000D02*
X36500000Y-9900000D01*
X36500000Y-9900000D02*
X36500000Y-10575000D01*
X37137500Y-5050000D02*
X38500000Y-5050000D01*
X38500000Y-5050000D02*
X38500000Y-9900000D01*
%TO.N,FB_NODE*%
X48500000Y-16024999D02*
X46000000Y-16025000D01*
X46000000Y-11175000D02*
X48500000Y-11175000D01*
X48500000Y-11175000D02*
X48500000Y-16024999D01*
%TO.N,IO9_BOOT*%
X43375000Y-26000000D02*
X62160000Y-26000000D01*
X49000000Y-19000000D02*
X49000000Y-22500000D01*
X62160000Y-26000000D02*
X62160000Y-24500000D01*
X50600000Y-19000000D02*
X49000000Y-19000000D01*
X43375000Y-26450000D02*
X48625000Y-26450000D01*
X48000000Y-21825000D02*
X48000000Y-26450000D01*
X48000000Y-22500000D02*
X48000000Y-21825000D01*
X49000000Y-22500000D02*
X48000000Y-22500000D01*
X48000000Y-26450000D02*
X43375000Y-26450000D01*
X43375000Y-26450000D02*
X43375000Y-26000000D01*
%TO.N,LED2_DRIVE*%
X50600000Y-17400000D02*
X48325000Y-18200000D01*
%TO.N,RXD0*%
X55500000Y-20900000D02*
X55500000Y-22500000D01*
X59620000Y-22500000D02*
X59620000Y-24500000D01*
X55500000Y-22500000D02*
X59620000Y-22500000D01*
%TO.N,CANH*%
D35*
X9000000Y-13300000D02*
X6000000Y-13300000D01*
X21000000Y-18950000D02*
X21000000Y-23500000D01*
X6000000Y-13300000D02*
X6000000Y-17620000D01*
X15475000Y-17365000D02*
X13000000Y-17365000D01*
X15475000Y-17365000D02*
X18562500Y-18950000D01*
X9000000Y-15000000D02*
X9000000Y-13300000D01*
X21000000Y-23500000D02*
X19500000Y-23500000D01*
X18562500Y-18950000D02*
X21000000Y-18950000D01*
X6000000Y-17620000D02*
X4000000Y-17620000D01*
X13000000Y-17365000D02*
X13000000Y-15000000D01*
X19500000Y-23500000D02*
X19500000Y-22325000D01*
X13000000Y-15000000D02*
X9000000Y-15000000D01*
%TO.N,CANL*%
X13000000Y-21000000D02*
X6000000Y-21000000D01*
X6000000Y-21000000D02*
X6000000Y-20160000D01*
X6000000Y-20160000D02*
X4000000Y-20160000D01*
X15475000Y-18635000D02*
X13000000Y-18635000D01*
X13000000Y-18635000D02*
X13000000Y-21000000D01*
%TO.N,LED1_TOP*%
D33*
X37212000Y-17000000D02*
X38787500Y-18200000D01*
X40500000Y-17000000D02*
X37212000Y-17000000D01*
X40500000Y-17375000D02*
X40500000Y-17000000D01*
%TO.N,LED2_TOP*%
X43212000Y-17000000D02*
X44787500Y-18200000D01*
X46675000Y-17000000D02*
X43212000Y-17000000D01*
X46675000Y-18200000D02*
X46675000Y-17000000D01*
%TD*%
%TA.AperFunction,Conductor*%
%TO.N,GND*%
G36*
X66759191Y-1218907D02*
G01*
X66795155Y-1268407D01*
X66800000Y-1299000D01*
X66800000Y-10901000D01*
X66781093Y-10959191D01*
X66731593Y-10995155D01*
X66701000Y-11000000D01*
X65200000Y-11000000D01*
X65200000Y-19000000D01*
X65200001Y-19000000D01*
X66701000Y-19000000D01*
X66759191Y-19018907D01*
X66795155Y-19068407D01*
X66800000Y-19099000D01*
X66800000Y-28701000D01*
X66781093Y-28759191D01*
X66731593Y-28795155D01*
X66701000Y-28800000D01*
X1299000Y-28800000D01*
X1240809Y-28781093D01*
X1204845Y-28731593D01*
X1200000Y-28701000D01*
X1200000Y-17533385D01*
X2899500Y-17533385D01*
X2899500Y-17706614D01*
X2926597Y-17877702D01*
X2926598Y-17877706D01*
X2980123Y-18042438D01*
X2980125Y-18042441D01*
X3038469Y-18156950D01*
X3058768Y-18196788D01*
X3160586Y-18336928D01*
X3283072Y-18459414D01*
X3423212Y-18561232D01*
X3577555Y-18639873D01*
X3577557Y-18639873D01*
X3577558Y-18639874D01*
X3577561Y-18639876D01*
X3742293Y-18693401D01*
X3742297Y-18693402D01*
X3913386Y-18720500D01*
X3913389Y-18720500D01*
X4086614Y-18720500D01*
X4257702Y-18693402D01*
X4257706Y-18693401D01*
X4422438Y-18639876D01*
X4422440Y-18639874D01*
X4422445Y-18639873D01*
X4576788Y-18561232D01*
X4716928Y-18459414D01*
X4839414Y-18336928D01*
X4941232Y-18196788D01*
X5003512Y-18074554D01*
X5046776Y-18031291D01*
X5091722Y-18020500D01*
X6052725Y-18020500D01*
X6052727Y-18020500D01*
X6154587Y-17993207D01*
X6245913Y-17940480D01*
X6320480Y-17865913D01*
X6373207Y-17774587D01*
X6400500Y-17672727D01*
X6400500Y-13799500D01*
X6419407Y-13741309D01*
X6468907Y-13705345D01*
X6499500Y-13700500D01*
X8500500Y-13700500D01*
X8558691Y-13719407D01*
X8594655Y-13768907D01*
X8599500Y-13799500D01*
X8599500Y-15030272D01*
X8580593Y-15088463D01*
X8531093Y-15124427D01*
X8469907Y-15124427D01*
X8465929Y-15123039D01*
X8352114Y-15080588D01*
X8352113Y-15080587D01*
X8313895Y-15076479D01*
X8295485Y-15074500D01*
X8295481Y-15074500D01*
X7704521Y-15074500D01*
X7704515Y-15074501D01*
X7647888Y-15080587D01*
X7647886Y-15080588D01*
X7519774Y-15128372D01*
X7519773Y-15128372D01*
X7519772Y-15128373D01*
X7410315Y-15210311D01*
X7410311Y-15210315D01*
X7328373Y-15319771D01*
X7280587Y-15447887D01*
X7278328Y-15468907D01*
X7274679Y-15502855D01*
X7274500Y-15504518D01*
X7274500Y-16045478D01*
X7274501Y-16045484D01*
X7280587Y-16102111D01*
X7280587Y-16102112D01*
X7280588Y-16102114D01*
X7328372Y-16230226D01*
X7410313Y-16339687D01*
X7519774Y-16421628D01*
X7647886Y-16469412D01*
X7704515Y-16475500D01*
X8295484Y-16475499D01*
X8352114Y-16469412D01*
X8480226Y-16421628D01*
X8589687Y-16339687D01*
X8671628Y-16230226D01*
X8719412Y-16102114D01*
X8725500Y-16045485D01*
X8725499Y-15504516D01*
X8722843Y-15479809D01*
X8735423Y-15419934D01*
X8780795Y-15378886D01*
X8841630Y-15372346D01*
X8846858Y-15373594D01*
X8947273Y-15400500D01*
X9474100Y-15400500D01*
X9532291Y-15419407D01*
X9568255Y-15468907D01*
X9568255Y-15530093D01*
X9532291Y-15579593D01*
X9519046Y-15587709D01*
X9461659Y-15616949D01*
X9371949Y-15706659D01*
X9314354Y-15819695D01*
X9299500Y-15913477D01*
X9299500Y-16276520D01*
X9299501Y-16276523D01*
X9314352Y-16370299D01*
X9314354Y-16370304D01*
X9371950Y-16483342D01*
X9461658Y-16573050D01*
X9574696Y-16630646D01*
X9668481Y-16645500D01*
X11381518Y-16645499D01*
X11381521Y-16645499D01*
X11381522Y-16645498D01*
X11428411Y-16638072D01*
X11475299Y-16630647D01*
X11475299Y-16630646D01*
X11475304Y-16630646D01*
X11588342Y-16573050D01*
X11678050Y-16483342D01*
X11735646Y-16370304D01*
X11750500Y-16276519D01*
X11750499Y-15913482D01*
X11735646Y-15819696D01*
X11678050Y-15706658D01*
X11588342Y-15616950D01*
X11530954Y-15587709D01*
X11487690Y-15544444D01*
X11478119Y-15484012D01*
X11505897Y-15429496D01*
X11560414Y-15401719D01*
X11575900Y-15400500D01*
X12500500Y-15400500D01*
X12558691Y-15419407D01*
X12594655Y-15468907D01*
X12599500Y-15499500D01*
X12599500Y-17312273D01*
X12599500Y-17417727D01*
X12623990Y-17509126D01*
X12626794Y-17519589D01*
X12626794Y-17519590D01*
X12679518Y-17610910D01*
X12679520Y-17610913D01*
X12754087Y-17685480D01*
X12845413Y-17738207D01*
X12947273Y-17765500D01*
X14293100Y-17765500D01*
X14351291Y-17784407D01*
X14363103Y-17794496D01*
X14408904Y-17840296D01*
X14411658Y-17843050D01*
X14524696Y-17900646D01*
X14534625Y-17902218D01*
X14589140Y-17929993D01*
X14616919Y-17984509D01*
X14607349Y-18044941D01*
X14564086Y-18088207D01*
X14534628Y-18097780D01*
X14524698Y-18099353D01*
X14524695Y-18099354D01*
X14411658Y-18156950D01*
X14411656Y-18156951D01*
X14363103Y-18205504D01*
X14308586Y-18233281D01*
X14293100Y-18234500D01*
X13052727Y-18234500D01*
X12947273Y-18234500D01*
X12845413Y-18261793D01*
X12845412Y-18261793D01*
X12845410Y-18261794D01*
X12845409Y-18261794D01*
X12754089Y-18314518D01*
X12679518Y-18389089D01*
X12626794Y-18480409D01*
X12626794Y-18480410D01*
X12626793Y-18480412D01*
X12626793Y-18480413D01*
X12600969Y-18576793D01*
X12599500Y-18582274D01*
X12599500Y-20500500D01*
X12580593Y-20558691D01*
X12531093Y-20594655D01*
X12500500Y-20599500D01*
X11575900Y-20599500D01*
X11517709Y-20580593D01*
X11481745Y-20531093D01*
X11481745Y-20469907D01*
X11517709Y-20420407D01*
X11530954Y-20412291D01*
X11541157Y-20407091D01*
X11588342Y-20383050D01*
X11678050Y-20293342D01*
X11735646Y-20180304D01*
X11750500Y-20086519D01*
X11750499Y-19723482D01*
X11735646Y-19629696D01*
X11678050Y-19516658D01*
X11588342Y-19426950D01*
X11475304Y-19369354D01*
X11475306Y-19369354D01*
X11465372Y-19367781D01*
X11410856Y-19340002D01*
X11383080Y-19285485D01*
X11392652Y-19225053D01*
X11435917Y-19181790D01*
X11465376Y-19172218D01*
X11475304Y-19170646D01*
X11588342Y-19113050D01*
X11678050Y-19023342D01*
X11735646Y-18910304D01*
X11750500Y-18816519D01*
X11750499Y-18453482D01*
X11740301Y-18389087D01*
X11735647Y-18359700D01*
X11735646Y-18359698D01*
X11735646Y-18359696D01*
X11678050Y-18246658D01*
X11588342Y-18156950D01*
X11475304Y-18099354D01*
X11475305Y-18099354D01*
X11381521Y-18084500D01*
X9668478Y-18084500D01*
X9668476Y-18084501D01*
X9574700Y-18099352D01*
X9574695Y-18099354D01*
X9461659Y-18156949D01*
X9371949Y-18246659D01*
X9314354Y-18359695D01*
X9299500Y-18453477D01*
X9299500Y-18816520D01*
X9299501Y-18816523D01*
X9314352Y-18910299D01*
X9314354Y-18910304D01*
X9371950Y-19023342D01*
X9461658Y-19113050D01*
X9574696Y-19170646D01*
X9584625Y-19172218D01*
X9639140Y-19199993D01*
X9666919Y-19254509D01*
X9657349Y-19314941D01*
X9614086Y-19358207D01*
X9584628Y-19367780D01*
X9574698Y-19369353D01*
X9574695Y-19369354D01*
X9461659Y-19426949D01*
X9371949Y-19516659D01*
X9314354Y-19629695D01*
X9299500Y-19723477D01*
X9299500Y-20086520D01*
X9299501Y-20086523D01*
X9314352Y-20180299D01*
X9314354Y-20180304D01*
X9371950Y-20293342D01*
X9461658Y-20383050D01*
X9475889Y-20390301D01*
X9519046Y-20412291D01*
X9562310Y-20455556D01*
X9571881Y-20515988D01*
X9544103Y-20570504D01*
X9489586Y-20598281D01*
X9474100Y-20599500D01*
X6499500Y-20599500D01*
X6441309Y-20580593D01*
X6405345Y-20531093D01*
X6400500Y-20500500D01*
X6400500Y-20107274D01*
X6394940Y-20086523D01*
X6373207Y-20005413D01*
X6320480Y-19914087D01*
X6245913Y-19839520D01*
X6154587Y-19786793D01*
X6052727Y-19759500D01*
X6052725Y-19759500D01*
X5091722Y-19759500D01*
X5033531Y-19740593D01*
X5003512Y-19705445D01*
X4941233Y-19583213D01*
X4892878Y-19516659D01*
X4839414Y-19443072D01*
X4716928Y-19320586D01*
X4576788Y-19218768D01*
X4576787Y-19218767D01*
X4576785Y-19218766D01*
X4422441Y-19140125D01*
X4422438Y-19140123D01*
X4257706Y-19086598D01*
X4257702Y-19086597D01*
X4086614Y-19059500D01*
X4086611Y-19059500D01*
X3913389Y-19059500D01*
X3913386Y-19059500D01*
X3742297Y-19086597D01*
X3742293Y-19086598D01*
X3577561Y-19140123D01*
X3577558Y-19140125D01*
X3423214Y-19218766D01*
X3283073Y-19320585D01*
X3160585Y-19443073D01*
X3058766Y-19583214D01*
X2980125Y-19737558D01*
X2980123Y-19737561D01*
X2926598Y-19902293D01*
X2926597Y-19902297D01*
X2899500Y-20073385D01*
X2899500Y-20246614D01*
X2926597Y-20417702D01*
X2926598Y-20417706D01*
X2980123Y-20582438D01*
X2980125Y-20582441D01*
X3053016Y-20725500D01*
X3058768Y-20736788D01*
X3160586Y-20876928D01*
X3283072Y-20999414D01*
X3423212Y-21101232D01*
X3577555Y-21179873D01*
X3577557Y-21179873D01*
X3577558Y-21179874D01*
X3577561Y-21179876D01*
X3742293Y-21233401D01*
X3742297Y-21233402D01*
X3913386Y-21260500D01*
X3913389Y-21260500D01*
X4086614Y-21260500D01*
X4257702Y-21233402D01*
X4257706Y-21233401D01*
X4422438Y-21179876D01*
X4422440Y-21179874D01*
X4422445Y-21179873D01*
X4576788Y-21101232D01*
X4716928Y-20999414D01*
X4839414Y-20876928D01*
X4941232Y-20736788D01*
X5003512Y-20614554D01*
X5046776Y-20571291D01*
X5091722Y-20560500D01*
X5500500Y-20560500D01*
X5558691Y-20579407D01*
X5594655Y-20628907D01*
X5599500Y-20659500D01*
X5599500Y-20947273D01*
X5599500Y-21052727D01*
X5620335Y-21130484D01*
X5626794Y-21154589D01*
X5626794Y-21154590D01*
X5679518Y-21245910D01*
X5679520Y-21245913D01*
X5754087Y-21320480D01*
X5845413Y-21373207D01*
X5947273Y-21400500D01*
X5947275Y-21400500D01*
X13052725Y-21400500D01*
X13052727Y-21400500D01*
X13154587Y-21373207D01*
X13245913Y-21320480D01*
X13320480Y-21245913D01*
X13373207Y-21154587D01*
X13400500Y-21052727D01*
X13400500Y-20420725D01*
X18774500Y-20420725D01*
X18774500Y-20929274D01*
X18777353Y-20959694D01*
X18777355Y-20959703D01*
X18822207Y-21087883D01*
X18902845Y-21197144D01*
X18902847Y-21197146D01*
X18902850Y-21197150D01*
X18902853Y-21197152D01*
X18902855Y-21197154D01*
X19012116Y-21277792D01*
X19012117Y-21277792D01*
X19012118Y-21277793D01*
X19140301Y-21322646D01*
X19170725Y-21325499D01*
X19170727Y-21325500D01*
X19170734Y-21325500D01*
X19829273Y-21325500D01*
X19829273Y-21325499D01*
X19859699Y-21322646D01*
X19987882Y-21277793D01*
X20097150Y-21197150D01*
X20177793Y-21087882D01*
X20222646Y-20959699D01*
X20225499Y-20929273D01*
X20225500Y-20929273D01*
X20225500Y-20420727D01*
X20225499Y-20420725D01*
X20225216Y-20417706D01*
X20222646Y-20390301D01*
X20177793Y-20262118D01*
X20166985Y-20247474D01*
X20097154Y-20152855D01*
X20097152Y-20152853D01*
X20097150Y-20152850D01*
X20097146Y-20152847D01*
X20097144Y-20152845D01*
X19987883Y-20072207D01*
X19859703Y-20027355D01*
X19859694Y-20027353D01*
X19829274Y-20024500D01*
X19829266Y-20024500D01*
X19170734Y-20024500D01*
X19170725Y-20024500D01*
X19140305Y-20027353D01*
X19140296Y-20027355D01*
X19012116Y-20072207D01*
X18902855Y-20152845D01*
X18902845Y-20152855D01*
X18822207Y-20262116D01*
X18777355Y-20390296D01*
X18777353Y-20390305D01*
X18774500Y-20420725D01*
X13400500Y-20420725D01*
X13400500Y-19134500D01*
X13419407Y-19076309D01*
X13468907Y-19040345D01*
X13499500Y-19035500D01*
X14293100Y-19035500D01*
X14351291Y-19054407D01*
X14363103Y-19064496D01*
X14397608Y-19099000D01*
X14411658Y-19113050D01*
X14524696Y-19170646D01*
X14618481Y-19185500D01*
X16331518Y-19185499D01*
X16331521Y-19185499D01*
X16331522Y-19185498D01*
X16378411Y-19178072D01*
X16425299Y-19170647D01*
X16425299Y-19170646D01*
X16425304Y-19170646D01*
X16538342Y-19113050D01*
X16628050Y-19023342D01*
X16685646Y-18910304D01*
X16700500Y-18816519D01*
X16700499Y-18606418D01*
X16719406Y-18548230D01*
X16768906Y-18512266D01*
X16830091Y-18512265D01*
X16844712Y-18518347D01*
X17520713Y-18865379D01*
X17563846Y-18908775D01*
X17574500Y-18953451D01*
X17574500Y-19131520D01*
X17574501Y-19131523D01*
X17589352Y-19225299D01*
X17589354Y-19225304D01*
X17646950Y-19338342D01*
X17736658Y-19428050D01*
X17849696Y-19485646D01*
X17943481Y-19500500D01*
X19181518Y-19500499D01*
X19181521Y-19500499D01*
X19181522Y-19500498D01*
X19228411Y-19493072D01*
X19275299Y-19485647D01*
X19275299Y-19485646D01*
X19275304Y-19485646D01*
X19388342Y-19428050D01*
X19421985Y-19394407D01*
X19436897Y-19379496D01*
X19491414Y-19351719D01*
X19506900Y-19350500D01*
X20500500Y-19350500D01*
X20558691Y-19369407D01*
X20594655Y-19418907D01*
X20599500Y-19449500D01*
X20599500Y-23000500D01*
X20580593Y-23058691D01*
X20531093Y-23094655D01*
X20500500Y-23099500D01*
X20056085Y-23099500D01*
X19997894Y-23080593D01*
X19961930Y-23031093D01*
X19961930Y-22969907D01*
X19997297Y-22920845D01*
X20093410Y-22849910D01*
X20097150Y-22847150D01*
X20177793Y-22737882D01*
X20222646Y-22609699D01*
X20225499Y-22579273D01*
X20225500Y-22579273D01*
X20225500Y-22070727D01*
X20225499Y-22070725D01*
X20222646Y-22040305D01*
X20222646Y-22040301D01*
X20177793Y-21912118D01*
X20097150Y-21802850D01*
X20097146Y-21802847D01*
X20097144Y-21802845D01*
X19987883Y-21722207D01*
X19859703Y-21677355D01*
X19859694Y-21677353D01*
X19829274Y-21674500D01*
X19829266Y-21674500D01*
X19170734Y-21674500D01*
X19170725Y-21674500D01*
X19140305Y-21677353D01*
X19140296Y-21677355D01*
X19012116Y-21722207D01*
X18902855Y-21802845D01*
X18902845Y-21802855D01*
X18822207Y-21912116D01*
X18777355Y-22040296D01*
X18777353Y-22040305D01*
X18774500Y-22070725D01*
X18774500Y-22579274D01*
X18777353Y-22609694D01*
X18777355Y-22609703D01*
X18822207Y-22737883D01*
X18902845Y-22847144D01*
X18902847Y-22847146D01*
X18902850Y-22847150D01*
X18902853Y-22847152D01*
X18902855Y-22847154D01*
X19012114Y-22927791D01*
X19012116Y-22927791D01*
X19012118Y-22927793D01*
X19033198Y-22935169D01*
X19081878Y-22972233D01*
X19099500Y-23028613D01*
X19099500Y-23447273D01*
X19099500Y-23552727D01*
X19101119Y-23558768D01*
X19126794Y-23654589D01*
X19126794Y-23654590D01*
X19179518Y-23745910D01*
X19179520Y-23745913D01*
X19254087Y-23820480D01*
X19345413Y-23873207D01*
X19447273Y-23900500D01*
X19447275Y-23900500D01*
X21052725Y-23900500D01*
X21052727Y-23900500D01*
X21154587Y-23873207D01*
X21245913Y-23820480D01*
X21320480Y-23745913D01*
X21373207Y-23654587D01*
X21400500Y-23552727D01*
X21400500Y-21670725D01*
X43024500Y-21670725D01*
X43024500Y-22329274D01*
X43027353Y-22359694D01*
X43027355Y-22359703D01*
X43072207Y-22487883D01*
X43152845Y-22597144D01*
X43152847Y-22597146D01*
X43152850Y-22597150D01*
X43152853Y-22597152D01*
X43152855Y-22597154D01*
X43262116Y-22677792D01*
X43262117Y-22677792D01*
X43262118Y-22677793D01*
X43390301Y-22722646D01*
X43420725Y-22725499D01*
X43420727Y-22725500D01*
X43420734Y-22725500D01*
X43929273Y-22725500D01*
X43929273Y-22725499D01*
X43959699Y-22722646D01*
X44087882Y-22677793D01*
X44197150Y-22597150D01*
X44277793Y-22487882D01*
X44322646Y-22359699D01*
X44325499Y-22329273D01*
X44325500Y-22329273D01*
X44325500Y-21670727D01*
X44325499Y-21670725D01*
X44322646Y-21640305D01*
X44322646Y-21640301D01*
X44277793Y-21512118D01*
X44269217Y-21500498D01*
X44197154Y-21402855D01*
X44197152Y-21402853D01*
X44197150Y-21402850D01*
X44197146Y-21402847D01*
X44197144Y-21402845D01*
X44087883Y-21322207D01*
X43959703Y-21277355D01*
X43959694Y-21277353D01*
X43929274Y-21274500D01*
X43929266Y-21274500D01*
X43420734Y-21274500D01*
X43420725Y-21274500D01*
X43390305Y-21277353D01*
X43390296Y-21277355D01*
X43262116Y-21322207D01*
X43152855Y-21402845D01*
X43152845Y-21402855D01*
X43072207Y-21512116D01*
X43027355Y-21640296D01*
X43027353Y-21640305D01*
X43024500Y-21670725D01*
X21400500Y-21670725D01*
X21400500Y-18897273D01*
X21373207Y-18795413D01*
X21370929Y-18791468D01*
X21320481Y-18704089D01*
X21320480Y-18704087D01*
X21245913Y-18629520D01*
X21237521Y-18624675D01*
X21154589Y-18576794D01*
X21154588Y-18576793D01*
X21154587Y-18576793D01*
X21052727Y-18549500D01*
X21052725Y-18549500D01*
X19506900Y-18549500D01*
X19448709Y-18530593D01*
X19436897Y-18520504D01*
X19388343Y-18471951D01*
X19388342Y-18471950D01*
X19275304Y-18414354D01*
X19275305Y-18414354D01*
X19181522Y-18399500D01*
X19181519Y-18399500D01*
X18391032Y-18399500D01*
X18345819Y-18388573D01*
X16754286Y-17571544D01*
X16711153Y-17528148D01*
X16700499Y-17483471D01*
X16700499Y-17183478D01*
X16700498Y-17183476D01*
X16685647Y-17089700D01*
X16685646Y-17089698D01*
X16685646Y-17089696D01*
X16628050Y-16976658D01*
X16538342Y-16886950D01*
X16502087Y-16868477D01*
X17574500Y-16868477D01*
X17574500Y-17231520D01*
X17574501Y-17231523D01*
X17589352Y-17325299D01*
X17589354Y-17325304D01*
X17646950Y-17438342D01*
X17736658Y-17528050D01*
X17849696Y-17585646D01*
X17943481Y-17600500D01*
X19181518Y-17600499D01*
X19181521Y-17600499D01*
X19181522Y-17600498D01*
X19228411Y-17593072D01*
X19275299Y-17585647D01*
X19275299Y-17585646D01*
X19275304Y-17585646D01*
X19388342Y-17528050D01*
X19478050Y-17438342D01*
X19535646Y-17325304D01*
X19550500Y-17231519D01*
X19550499Y-17001352D01*
X36833262Y-17001352D01*
X36835606Y-17018677D01*
X36836500Y-17031951D01*
X36836500Y-17049437D01*
X36841466Y-17067971D01*
X36843945Y-17080317D01*
X36846517Y-17099328D01*
X36846519Y-17099336D01*
X36853267Y-17115463D01*
X36857565Y-17128051D01*
X36862089Y-17144936D01*
X36862091Y-17144940D01*
X36871679Y-17161547D01*
X36877270Y-17172832D01*
X36884680Y-17190541D01*
X36884681Y-17190543D01*
X36895370Y-17204370D01*
X36902781Y-17215418D01*
X36911523Y-17230559D01*
X36911526Y-17230563D01*
X36925094Y-17244132D01*
X36933413Y-17253584D01*
X36945147Y-17268763D01*
X36945148Y-17268764D01*
X36945150Y-17268766D01*
X36959063Y-17279363D01*
X36969065Y-17288102D01*
X36981438Y-17300475D01*
X36998057Y-17310070D01*
X37008535Y-17317044D01*
X38060486Y-18118276D01*
X38095322Y-18168575D01*
X38099500Y-18197032D01*
X38099500Y-18501126D01*
X38099499Y-18501126D01*
X38105508Y-18557016D01*
X38105510Y-18557027D01*
X38152662Y-18683448D01*
X38218004Y-18770734D01*
X38233528Y-18791472D01*
X38266986Y-18816518D01*
X38341551Y-18872337D01*
X38467972Y-18919489D01*
X38467973Y-18919489D01*
X38467978Y-18919491D01*
X38523870Y-18925500D01*
X38523874Y-18925500D01*
X39051126Y-18925500D01*
X39051130Y-18925500D01*
X39107022Y-18919491D01*
X39178072Y-18892991D01*
X39233448Y-18872337D01*
X39233448Y-18872336D01*
X39233450Y-18872336D01*
X39341472Y-18791472D01*
X39357003Y-18770725D01*
X39774500Y-18770725D01*
X39774500Y-19279274D01*
X39777353Y-19309694D01*
X39777355Y-19309703D01*
X39822207Y-19437883D01*
X39902845Y-19547144D01*
X39902847Y-19547146D01*
X39902850Y-19547150D01*
X39909286Y-19551900D01*
X39944880Y-19601665D01*
X39949500Y-19631556D01*
X39949500Y-20247475D01*
X39964871Y-20304841D01*
X39987017Y-20387489D01*
X40059487Y-20513010D01*
X40059489Y-20513012D01*
X40059491Y-20513015D01*
X40161985Y-20615509D01*
X40161987Y-20615510D01*
X40161989Y-20615512D01*
X40287511Y-20687982D01*
X40287512Y-20687982D01*
X40287515Y-20687984D01*
X40427525Y-20725500D01*
X40572475Y-20725500D01*
X46206050Y-20725500D01*
X46264241Y-20744407D01*
X46300205Y-20793907D01*
X46300205Y-20855093D01*
X46264241Y-20904593D01*
X46261844Y-20906280D01*
X45722545Y-21274211D01*
X45663820Y-21291388D01*
X45634055Y-21285876D01*
X45609701Y-21277354D01*
X45609694Y-21277353D01*
X45579274Y-21274500D01*
X45579266Y-21274500D01*
X45070734Y-21274500D01*
X45070725Y-21274500D01*
X45040305Y-21277353D01*
X45040296Y-21277355D01*
X44912116Y-21322207D01*
X44802855Y-21402845D01*
X44802845Y-21402855D01*
X44722207Y-21512116D01*
X44677355Y-21640296D01*
X44677353Y-21640305D01*
X44674500Y-21670725D01*
X44674500Y-22329274D01*
X44677353Y-22359694D01*
X44677355Y-22359703D01*
X44722207Y-22487883D01*
X44802845Y-22597144D01*
X44802847Y-22597146D01*
X44802850Y-22597150D01*
X44802853Y-22597152D01*
X44802855Y-22597154D01*
X44912116Y-22677792D01*
X44912117Y-22677792D01*
X44912118Y-22677793D01*
X45040301Y-22722646D01*
X45070725Y-22725499D01*
X45070727Y-22725500D01*
X45070734Y-22725500D01*
X45579273Y-22725500D01*
X45579273Y-22725499D01*
X45609699Y-22722646D01*
X45737882Y-22677793D01*
X45847150Y-22597150D01*
X45927793Y-22487882D01*
X45972646Y-22359699D01*
X45975499Y-22329273D01*
X45975500Y-22329273D01*
X45975500Y-22063068D01*
X45994407Y-22004877D01*
X46018706Y-21981288D01*
X47687568Y-20842720D01*
X47743362Y-20825500D01*
X48329273Y-20825500D01*
X48329273Y-20825499D01*
X48359699Y-20822646D01*
X48487882Y-20777793D01*
X48487883Y-20777792D01*
X48492802Y-20776071D01*
X48553972Y-20774698D01*
X48604267Y-20809541D01*
X48624475Y-20867293D01*
X48624500Y-20869515D01*
X48624500Y-21130484D01*
X48605593Y-21188675D01*
X48556093Y-21224639D01*
X48494907Y-21224639D01*
X48492803Y-21223929D01*
X48416284Y-21197154D01*
X48359699Y-21177354D01*
X48359697Y-21177353D01*
X48359694Y-21177353D01*
X48329274Y-21174500D01*
X48329266Y-21174500D01*
X47670734Y-21174500D01*
X47670725Y-21174500D01*
X47640305Y-21177353D01*
X47640296Y-21177355D01*
X47512116Y-21222207D01*
X47402855Y-21302845D01*
X47402845Y-21302855D01*
X47322207Y-21412116D01*
X47277355Y-21540296D01*
X47277353Y-21540305D01*
X47274500Y-21570725D01*
X47274500Y-22079274D01*
X47277353Y-22109694D01*
X47277355Y-22109703D01*
X47322207Y-22237883D01*
X47402845Y-22347144D01*
X47402847Y-22347146D01*
X47402850Y-22347150D01*
X47402853Y-22347152D01*
X47402855Y-22347154D01*
X47512114Y-22427791D01*
X47512116Y-22427791D01*
X47512118Y-22427793D01*
X47558198Y-22443917D01*
X47606878Y-22480982D01*
X47624500Y-22537361D01*
X47624500Y-25525500D01*
X47605593Y-25583691D01*
X47556093Y-25619655D01*
X47525500Y-25624500D01*
X43424435Y-25624500D01*
X43325565Y-25624500D01*
X43230062Y-25650090D01*
X43167452Y-25686237D01*
X43117954Y-25699500D01*
X42575326Y-25699500D01*
X42575325Y-25699500D01*
X42575315Y-25699501D01*
X42502263Y-25714033D01*
X42502257Y-25714035D01*
X42419400Y-25769397D01*
X42419397Y-25769400D01*
X42364035Y-25852257D01*
X42364033Y-25852263D01*
X42349501Y-25925315D01*
X42349500Y-25925327D01*
X42349500Y-26974672D01*
X42349501Y-26974684D01*
X42364033Y-27047736D01*
X42364035Y-27047742D01*
X42419397Y-27130599D01*
X42419399Y-27130601D01*
X42502260Y-27185966D01*
X42557808Y-27197015D01*
X42575315Y-27200498D01*
X42575320Y-27200498D01*
X42575326Y-27200500D01*
X42575327Y-27200500D01*
X44174673Y-27200500D01*
X44174674Y-27200500D01*
X44247740Y-27185966D01*
X44330601Y-27130601D01*
X44385966Y-27047740D01*
X44400500Y-26974674D01*
X44400500Y-26924500D01*
X44419407Y-26866309D01*
X44468907Y-26830345D01*
X44499500Y-26825500D01*
X47500500Y-26825500D01*
X47558691Y-26844407D01*
X47594655Y-26893907D01*
X47599500Y-26924500D01*
X47599500Y-26974672D01*
X47599501Y-26974684D01*
X47614033Y-27047736D01*
X47614035Y-27047742D01*
X47669397Y-27130599D01*
X47669399Y-27130601D01*
X47752260Y-27185966D01*
X47807808Y-27197015D01*
X47825315Y-27200498D01*
X47825320Y-27200498D01*
X47825326Y-27200500D01*
X47825327Y-27200500D01*
X49424673Y-27200500D01*
X49424674Y-27200500D01*
X49497740Y-27185966D01*
X49580601Y-27130601D01*
X49635966Y-27047740D01*
X49650500Y-26974674D01*
X49650500Y-26474500D01*
X49669407Y-26416309D01*
X49718907Y-26380345D01*
X49749500Y-26375500D01*
X62209433Y-26375500D01*
X62209435Y-26375500D01*
X62304938Y-26349910D01*
X62304940Y-26349908D01*
X62304942Y-26349908D01*
X62330377Y-26335222D01*
X62390562Y-26300475D01*
X62460475Y-26230562D01*
X62509910Y-26144938D01*
X62535500Y-26049435D01*
X62535500Y-25604460D01*
X62554407Y-25546269D01*
X62589554Y-25516250D01*
X62736788Y-25441232D01*
X62876928Y-25339414D01*
X62999414Y-25216928D01*
X63101232Y-25076788D01*
X63179873Y-24922445D01*
X63179874Y-24922440D01*
X63179876Y-24922438D01*
X63233401Y-24757706D01*
X63233402Y-24757702D01*
X63260500Y-24586614D01*
X63260500Y-24413385D01*
X63599500Y-24413385D01*
X63599500Y-24586614D01*
X63626597Y-24757702D01*
X63626598Y-24757706D01*
X63680123Y-24922438D01*
X63680125Y-24922441D01*
X63680126Y-24922444D01*
X63680127Y-24922445D01*
X63758768Y-25076788D01*
X63860586Y-25216928D01*
X63983072Y-25339414D01*
X64123212Y-25441232D01*
X64277555Y-25519873D01*
X64277557Y-25519873D01*
X64277558Y-25519874D01*
X64277561Y-25519876D01*
X64442293Y-25573401D01*
X64442297Y-25573402D01*
X64613386Y-25600500D01*
X64613389Y-25600500D01*
X64786614Y-25600500D01*
X64957702Y-25573402D01*
X64957706Y-25573401D01*
X65122438Y-25519876D01*
X65122440Y-25519874D01*
X65122445Y-25519873D01*
X65276788Y-25441232D01*
X65416928Y-25339414D01*
X65539414Y-25216928D01*
X65641232Y-25076788D01*
X65719873Y-24922445D01*
X65719874Y-24922440D01*
X65719876Y-24922438D01*
X65773401Y-24757706D01*
X65773402Y-24757702D01*
X65800500Y-24586614D01*
X65800500Y-24413385D01*
X65773402Y-24242297D01*
X65773401Y-24242293D01*
X65719876Y-24077561D01*
X65719874Y-24077558D01*
X65719873Y-24077557D01*
X65719873Y-24077555D01*
X65641232Y-23923212D01*
X65539414Y-23783072D01*
X65416928Y-23660586D01*
X65276788Y-23558768D01*
X65276787Y-23558767D01*
X65276785Y-23558766D01*
X65122441Y-23480125D01*
X65122438Y-23480123D01*
X64957706Y-23426598D01*
X64957702Y-23426597D01*
X64786614Y-23399500D01*
X64786611Y-23399500D01*
X64613389Y-23399500D01*
X64613386Y-23399500D01*
X64442297Y-23426597D01*
X64442293Y-23426598D01*
X64277561Y-23480123D01*
X64277558Y-23480125D01*
X64123214Y-23558766D01*
X63983073Y-23660585D01*
X63860585Y-23783073D01*
X63758766Y-23923214D01*
X63680125Y-24077558D01*
X63680123Y-24077561D01*
X63626598Y-24242293D01*
X63626597Y-24242297D01*
X63599500Y-24413385D01*
X63260500Y-24413385D01*
X63233402Y-24242297D01*
X63233401Y-24242293D01*
X63179876Y-24077561D01*
X63179874Y-24077558D01*
X63179873Y-24077557D01*
X63179873Y-24077555D01*
X63101232Y-23923212D01*
X62999414Y-23783072D01*
X62876928Y-23660586D01*
X62736788Y-23558768D01*
X62736787Y-23558767D01*
X62736785Y-23558766D01*
X62582441Y-23480125D01*
X62582438Y-23480123D01*
X62417706Y-23426598D01*
X62417702Y-23426597D01*
X62246614Y-23399500D01*
X62246611Y-23399500D01*
X62073389Y-23399500D01*
X62073386Y-23399500D01*
X61902297Y-23426597D01*
X61902293Y-23426598D01*
X61737561Y-23480123D01*
X61737558Y-23480125D01*
X61583214Y-23558766D01*
X61443073Y-23660585D01*
X61320585Y-23783073D01*
X61218766Y-23923214D01*
X61140125Y-24077558D01*
X61140123Y-24077561D01*
X61086598Y-24242293D01*
X61086597Y-24242297D01*
X61059500Y-24413385D01*
X61059500Y-24586614D01*
X61086597Y-24757702D01*
X61086598Y-24757706D01*
X61140123Y-24922438D01*
X61140125Y-24922441D01*
X61140126Y-24922444D01*
X61140127Y-24922445D01*
X61218768Y-25076788D01*
X61320586Y-25216928D01*
X61443072Y-25339414D01*
X61583212Y-25441232D01*
X61583214Y-25441233D01*
X61586359Y-25443518D01*
X61585759Y-25444343D01*
X61622717Y-25487622D01*
X61627513Y-25548619D01*
X61595539Y-25600785D01*
X61539009Y-25624195D01*
X61531250Y-25624500D01*
X60248750Y-25624500D01*
X60190559Y-25605593D01*
X60154595Y-25556093D01*
X60154595Y-25494907D01*
X60190559Y-25445407D01*
X60196552Y-25441402D01*
X60196781Y-25441235D01*
X60196788Y-25441232D01*
X60336928Y-25339414D01*
X60459414Y-25216928D01*
X60561232Y-25076788D01*
X60639873Y-24922445D01*
X60639874Y-24922440D01*
X60639876Y-24922438D01*
X60693401Y-24757706D01*
X60693402Y-24757702D01*
X60720500Y-24586614D01*
X60720500Y-24413385D01*
X60693402Y-24242297D01*
X60693401Y-24242293D01*
X60639876Y-24077561D01*
X60639874Y-24077558D01*
X60639873Y-24077557D01*
X60639873Y-24077555D01*
X60561232Y-23923212D01*
X60459414Y-23783072D01*
X60336928Y-23660586D01*
X60196788Y-23558768D01*
X60196787Y-23558767D01*
X60196785Y-23558766D01*
X60049555Y-23483749D01*
X60006290Y-23440484D01*
X59995500Y-23395539D01*
X59995500Y-22450566D01*
X59989398Y-22427793D01*
X59969910Y-22355062D01*
X59969908Y-22355059D01*
X59969908Y-22355057D01*
X59920476Y-22269440D01*
X59920475Y-22269438D01*
X59850562Y-22199525D01*
X59850559Y-22199523D01*
X59764941Y-22150091D01*
X59764943Y-22150091D01*
X59727885Y-22140161D01*
X59669435Y-22124500D01*
X59669433Y-22124500D01*
X55974500Y-22124500D01*
X55916309Y-22105593D01*
X55880345Y-22056093D01*
X55875500Y-22025500D01*
X55875500Y-21576349D01*
X55894407Y-21518158D01*
X55943907Y-21482194D01*
X56005093Y-21482194D01*
X56012489Y-21485782D01*
X56012758Y-21485134D01*
X56021764Y-21488863D01*
X56021769Y-21488867D01*
X56066231Y-21497711D01*
X56080241Y-21500498D01*
X56080246Y-21500498D01*
X56080252Y-21500500D01*
X56080253Y-21500500D01*
X56519747Y-21500500D01*
X56519748Y-21500500D01*
X56578231Y-21488867D01*
X56644552Y-21444552D01*
X56644553Y-21444549D01*
X56644997Y-21444253D01*
X56703885Y-21427644D01*
X56755003Y-21444253D01*
X56755446Y-21444549D01*
X56755448Y-21444552D01*
X56821769Y-21488867D01*
X56866231Y-21497711D01*
X56880241Y-21500498D01*
X56880246Y-21500498D01*
X56880252Y-21500500D01*
X56880253Y-21500500D01*
X57319747Y-21500500D01*
X57319748Y-21500500D01*
X57378231Y-21488867D01*
X57444552Y-21444552D01*
X57444553Y-21444549D01*
X57444997Y-21444253D01*
X57503885Y-21427644D01*
X57555003Y-21444253D01*
X57555446Y-21444549D01*
X57555448Y-21444552D01*
X57621769Y-21488867D01*
X57666231Y-21497711D01*
X57680241Y-21500498D01*
X57680246Y-21500498D01*
X57680252Y-21500500D01*
X57680253Y-21500500D01*
X58119747Y-21500500D01*
X58119748Y-21500500D01*
X58178231Y-21488867D01*
X58244552Y-21444552D01*
X58244553Y-21444549D01*
X58244997Y-21444253D01*
X58303885Y-21427644D01*
X58355003Y-21444253D01*
X58355446Y-21444549D01*
X58355448Y-21444552D01*
X58421769Y-21488867D01*
X58466231Y-21497711D01*
X58480241Y-21500498D01*
X58480246Y-21500498D01*
X58480252Y-21500500D01*
X58480253Y-21500500D01*
X58919747Y-21500500D01*
X58919748Y-21500500D01*
X58978231Y-21488867D01*
X59044552Y-21444552D01*
X59044553Y-21444549D01*
X59044997Y-21444253D01*
X59103885Y-21427644D01*
X59155003Y-21444253D01*
X59155446Y-21444549D01*
X59155448Y-21444552D01*
X59221769Y-21488867D01*
X59266231Y-21497711D01*
X59280241Y-21500498D01*
X59280246Y-21500498D01*
X59280252Y-21500500D01*
X59280253Y-21500500D01*
X59719747Y-21500500D01*
X59719748Y-21500500D01*
X59778231Y-21488867D01*
X59844552Y-21444552D01*
X59888867Y-21378231D01*
X59900500Y-21319748D01*
X59900500Y-20480252D01*
X59888867Y-20421769D01*
X59844552Y-20355448D01*
X59844548Y-20355445D01*
X59778233Y-20311134D01*
X59778231Y-20311133D01*
X59778228Y-20311132D01*
X59778227Y-20311132D01*
X59719758Y-20299501D01*
X59719748Y-20299500D01*
X59280252Y-20299500D01*
X59280251Y-20299500D01*
X59280241Y-20299501D01*
X59221772Y-20311132D01*
X59221766Y-20311134D01*
X59155002Y-20355746D01*
X59096114Y-20372355D01*
X59044998Y-20355746D01*
X58978233Y-20311134D01*
X58978231Y-20311133D01*
X58978228Y-20311132D01*
X58978227Y-20311132D01*
X58919758Y-20299501D01*
X58919748Y-20299500D01*
X58480252Y-20299500D01*
X58480251Y-20299500D01*
X58480241Y-20299501D01*
X58421772Y-20311132D01*
X58421766Y-20311134D01*
X58355002Y-20355746D01*
X58296114Y-20372355D01*
X58244998Y-20355746D01*
X58178233Y-20311134D01*
X58178231Y-20311133D01*
X58178228Y-20311132D01*
X58178227Y-20311132D01*
X58119758Y-20299501D01*
X58119748Y-20299500D01*
X57680252Y-20299500D01*
X57680251Y-20299500D01*
X57680241Y-20299501D01*
X57621772Y-20311132D01*
X57621766Y-20311134D01*
X57555002Y-20355746D01*
X57496114Y-20372355D01*
X57444998Y-20355746D01*
X57378233Y-20311134D01*
X57378231Y-20311133D01*
X57378228Y-20311132D01*
X57378227Y-20311132D01*
X57319758Y-20299501D01*
X57319748Y-20299500D01*
X56880252Y-20299500D01*
X56880251Y-20299500D01*
X56880241Y-20299501D01*
X56821772Y-20311132D01*
X56821766Y-20311134D01*
X56755002Y-20355746D01*
X56696114Y-20372355D01*
X56644998Y-20355746D01*
X56578233Y-20311134D01*
X56578231Y-20311133D01*
X56578228Y-20311132D01*
X56578227Y-20311132D01*
X56519758Y-20299501D01*
X56519748Y-20299500D01*
X56080252Y-20299500D01*
X56080251Y-20299500D01*
X56080241Y-20299501D01*
X56021772Y-20311132D01*
X56021766Y-20311134D01*
X55955002Y-20355746D01*
X55896114Y-20372355D01*
X55844998Y-20355746D01*
X55778233Y-20311134D01*
X55778231Y-20311133D01*
X55778228Y-20311132D01*
X55778227Y-20311132D01*
X55719758Y-20299501D01*
X55719748Y-20299500D01*
X55280252Y-20299500D01*
X55280251Y-20299500D01*
X55280241Y-20299501D01*
X55221772Y-20311132D01*
X55221766Y-20311134D01*
X55155002Y-20355746D01*
X55096114Y-20372355D01*
X55044998Y-20355746D01*
X54978233Y-20311134D01*
X54978231Y-20311133D01*
X54978228Y-20311132D01*
X54978227Y-20311132D01*
X54919758Y-20299501D01*
X54919748Y-20299500D01*
X54480252Y-20299500D01*
X54480251Y-20299500D01*
X54480241Y-20299501D01*
X54421772Y-20311132D01*
X54421766Y-20311134D01*
X54355002Y-20355746D01*
X54296114Y-20372355D01*
X54244998Y-20355746D01*
X54178233Y-20311134D01*
X54178231Y-20311133D01*
X54178228Y-20311132D01*
X54178227Y-20311132D01*
X54119758Y-20299501D01*
X54119748Y-20299500D01*
X53680252Y-20299500D01*
X53680251Y-20299500D01*
X53680241Y-20299501D01*
X53621772Y-20311132D01*
X53621766Y-20311134D01*
X53555002Y-20355746D01*
X53496114Y-20372355D01*
X53444998Y-20355746D01*
X53378233Y-20311134D01*
X53378231Y-20311133D01*
X53378228Y-20311132D01*
X53378227Y-20311132D01*
X53319758Y-20299501D01*
X53319748Y-20299500D01*
X52880252Y-20299500D01*
X52880251Y-20299500D01*
X52880241Y-20299501D01*
X52821772Y-20311132D01*
X52821766Y-20311134D01*
X52755002Y-20355746D01*
X52696114Y-20372355D01*
X52644998Y-20355746D01*
X52578233Y-20311134D01*
X52578231Y-20311133D01*
X52578228Y-20311132D01*
X52578227Y-20311132D01*
X52519758Y-20299501D01*
X52519748Y-20299500D01*
X52080252Y-20299500D01*
X52080251Y-20299500D01*
X52080241Y-20299501D01*
X52021772Y-20311132D01*
X52021766Y-20311134D01*
X51955002Y-20355746D01*
X51896114Y-20372355D01*
X51844998Y-20355746D01*
X51778233Y-20311134D01*
X51778231Y-20311133D01*
X51778228Y-20311132D01*
X51778227Y-20311132D01*
X51719758Y-20299501D01*
X51719748Y-20299500D01*
X51280252Y-20299500D01*
X51280248Y-20299500D01*
X51253397Y-20304841D01*
X51253394Y-20304842D01*
X51221769Y-20311133D01*
X51155448Y-20355448D01*
X51149449Y-20364425D01*
X51149448Y-20364426D01*
X51111134Y-20421766D01*
X51111132Y-20421772D01*
X51099501Y-20480241D01*
X51099500Y-20480253D01*
X51099500Y-21319746D01*
X51099501Y-21319758D01*
X51111132Y-21378227D01*
X51111134Y-21378233D01*
X51133776Y-21412118D01*
X51155448Y-21444552D01*
X51221769Y-21488867D01*
X51266231Y-21497711D01*
X51280241Y-21500498D01*
X51280246Y-21500498D01*
X51280252Y-21500500D01*
X51280253Y-21500500D01*
X51719747Y-21500500D01*
X51719748Y-21500500D01*
X51778231Y-21488867D01*
X51844552Y-21444552D01*
X51844553Y-21444549D01*
X51844997Y-21444253D01*
X51903885Y-21427644D01*
X51955003Y-21444253D01*
X51955446Y-21444549D01*
X51955448Y-21444552D01*
X52021769Y-21488867D01*
X52066231Y-21497711D01*
X52080241Y-21500498D01*
X52080246Y-21500498D01*
X52080252Y-21500500D01*
X52080253Y-21500500D01*
X52519747Y-21500500D01*
X52519748Y-21500500D01*
X52578231Y-21488867D01*
X52644552Y-21444552D01*
X52644553Y-21444549D01*
X52644997Y-21444253D01*
X52703885Y-21427644D01*
X52755003Y-21444253D01*
X52755446Y-21444549D01*
X52755448Y-21444552D01*
X52821769Y-21488867D01*
X52866231Y-21497711D01*
X52880241Y-21500498D01*
X52880246Y-21500498D01*
X52880252Y-21500500D01*
X52880253Y-21500500D01*
X53319747Y-21500500D01*
X53319748Y-21500500D01*
X53378231Y-21488867D01*
X53444552Y-21444552D01*
X53444553Y-21444549D01*
X53444997Y-21444253D01*
X53503885Y-21427644D01*
X53555003Y-21444253D01*
X53555446Y-21444549D01*
X53555448Y-21444552D01*
X53621769Y-21488867D01*
X53666231Y-21497711D01*
X53680241Y-21500498D01*
X53680246Y-21500498D01*
X53680252Y-21500500D01*
X53680253Y-21500500D01*
X54119747Y-21500500D01*
X54119748Y-21500500D01*
X54178231Y-21488867D01*
X54244552Y-21444552D01*
X54244553Y-21444549D01*
X54244997Y-21444253D01*
X54303885Y-21427644D01*
X54355003Y-21444253D01*
X54355446Y-21444549D01*
X54355448Y-21444552D01*
X54421769Y-21488867D01*
X54466231Y-21497711D01*
X54480241Y-21500498D01*
X54480246Y-21500498D01*
X54480252Y-21500500D01*
X54480253Y-21500500D01*
X54919747Y-21500500D01*
X54919748Y-21500500D01*
X54978231Y-21488867D01*
X54978237Y-21488862D01*
X54987242Y-21485134D01*
X54988792Y-21488876D01*
X55029368Y-21477425D01*
X55086776Y-21498591D01*
X55120778Y-21549459D01*
X55124500Y-21576349D01*
X55124500Y-22549435D01*
X55140648Y-22609699D01*
X55150091Y-22644942D01*
X55196602Y-22725499D01*
X55199525Y-22730562D01*
X55269438Y-22800475D01*
X55269440Y-22800476D01*
X55355058Y-22849908D01*
X55355056Y-22849908D01*
X55355060Y-22849909D01*
X55355062Y-22849910D01*
X55450565Y-22875500D01*
X55549435Y-22875500D01*
X59145500Y-22875500D01*
X59203691Y-22894407D01*
X59239655Y-22943907D01*
X59244500Y-22974500D01*
X59244500Y-23395539D01*
X59225593Y-23453730D01*
X59190445Y-23483749D01*
X59043214Y-23558766D01*
X58903073Y-23660585D01*
X58780585Y-23783073D01*
X58678766Y-23923214D01*
X58600125Y-24077558D01*
X58600123Y-24077561D01*
X58546598Y-24242293D01*
X58546597Y-24242297D01*
X58519500Y-24413385D01*
X58519500Y-24586614D01*
X58546597Y-24757702D01*
X58546598Y-24757706D01*
X58600123Y-24922438D01*
X58600125Y-24922441D01*
X58600126Y-24922444D01*
X58600127Y-24922445D01*
X58678768Y-25076788D01*
X58780586Y-25216928D01*
X58903072Y-25339414D01*
X59043212Y-25441232D01*
X59043214Y-25441233D01*
X59046359Y-25443518D01*
X59045759Y-25444343D01*
X59082717Y-25487622D01*
X59087513Y-25548619D01*
X59055539Y-25600785D01*
X58999009Y-25624195D01*
X58991250Y-25624500D01*
X57708750Y-25624500D01*
X57650559Y-25605593D01*
X57614595Y-25556093D01*
X57614595Y-25494907D01*
X57650559Y-25445407D01*
X57656552Y-25441402D01*
X57656781Y-25441235D01*
X57656788Y-25441232D01*
X57796928Y-25339414D01*
X57919414Y-25216928D01*
X58021232Y-25076788D01*
X58099873Y-24922445D01*
X58099874Y-24922440D01*
X58099876Y-24922438D01*
X58153401Y-24757706D01*
X58153402Y-24757702D01*
X58180500Y-24586614D01*
X58180500Y-24413385D01*
X58153402Y-24242297D01*
X58153401Y-24242293D01*
X58099876Y-24077561D01*
X58099874Y-24077558D01*
X58099873Y-24077557D01*
X58099873Y-24077555D01*
X58021232Y-23923212D01*
X57919414Y-23783072D01*
X57796928Y-23660586D01*
X57656788Y-23558768D01*
X57656787Y-23558767D01*
X57656785Y-23558766D01*
X57502441Y-23480125D01*
X57502438Y-23480123D01*
X57337706Y-23426598D01*
X57337702Y-23426597D01*
X57166614Y-23399500D01*
X57166611Y-23399500D01*
X56993389Y-23399500D01*
X56993386Y-23399500D01*
X56822297Y-23426597D01*
X56822293Y-23426598D01*
X56657561Y-23480123D01*
X56657558Y-23480125D01*
X56503214Y-23558766D01*
X56363073Y-23660585D01*
X56240585Y-23783073D01*
X56138766Y-23923214D01*
X56060125Y-24077558D01*
X56060123Y-24077561D01*
X56006598Y-24242293D01*
X56006597Y-24242297D01*
X55979500Y-24413385D01*
X55979500Y-24586614D01*
X56006597Y-24757702D01*
X56006598Y-24757706D01*
X56060123Y-24922438D01*
X56060125Y-24922441D01*
X56060126Y-24922444D01*
X56060127Y-24922445D01*
X56138768Y-25076788D01*
X56240586Y-25216928D01*
X56363072Y-25339414D01*
X56503212Y-25441232D01*
X56503214Y-25441233D01*
X56506359Y-25443518D01*
X56505759Y-25444343D01*
X56542717Y-25487622D01*
X56547513Y-25548619D01*
X56515539Y-25600785D01*
X56459009Y-25624195D01*
X56451250Y-25624500D01*
X53153075Y-25624500D01*
X53094884Y-25605593D01*
X53058920Y-25556093D01*
X53058920Y-25494907D01*
X53070760Y-25470499D01*
X53085962Y-25447746D01*
X53085962Y-25447745D01*
X53085966Y-25447740D01*
X53100500Y-25374674D01*
X53100500Y-23625326D01*
X53085966Y-23552260D01*
X53037768Y-23480125D01*
X53030602Y-23469400D01*
X53030599Y-23469397D01*
X52947742Y-23414035D01*
X52947740Y-23414034D01*
X52947737Y-23414033D01*
X52947736Y-23414033D01*
X52874684Y-23399501D01*
X52874674Y-23399500D01*
X51125326Y-23399500D01*
X51125325Y-23399500D01*
X51125315Y-23399501D01*
X51052263Y-23414033D01*
X51052257Y-23414035D01*
X50969400Y-23469397D01*
X50969397Y-23469400D01*
X50914035Y-23552257D01*
X50914033Y-23552263D01*
X50899501Y-23625315D01*
X50899500Y-23625327D01*
X50899500Y-25374672D01*
X50899501Y-25374684D01*
X50912773Y-25441402D01*
X50914034Y-25447740D01*
X50914035Y-25447742D01*
X50914037Y-25447746D01*
X50929240Y-25470499D01*
X50945849Y-25529387D01*
X50924671Y-25586790D01*
X50873798Y-25620783D01*
X50846925Y-25624500D01*
X48474500Y-25624500D01*
X48416309Y-25605593D01*
X48380345Y-25556093D01*
X48375500Y-25525500D01*
X48375500Y-22974500D01*
X48394407Y-22916309D01*
X48443907Y-22880345D01*
X48474500Y-22875500D01*
X49049433Y-22875500D01*
X49049435Y-22875500D01*
X49144938Y-22849910D01*
X49144940Y-22849908D01*
X49144942Y-22849908D01*
X49170377Y-22835222D01*
X49230562Y-22800475D01*
X49300475Y-22730562D01*
X49349910Y-22644938D01*
X49375500Y-22549435D01*
X49375500Y-19474500D01*
X49394407Y-19416309D01*
X49443907Y-19380345D01*
X49474500Y-19375500D01*
X49923651Y-19375500D01*
X49981842Y-19394407D01*
X50017806Y-19443907D01*
X50017806Y-19505093D01*
X50014217Y-19512489D01*
X50014866Y-19512758D01*
X50011132Y-19521772D01*
X49999501Y-19580241D01*
X49999500Y-19580253D01*
X49999500Y-20019746D01*
X49999501Y-20019758D01*
X50011132Y-20078227D01*
X50011134Y-20078233D01*
X50030539Y-20107274D01*
X50055448Y-20144552D01*
X50121769Y-20188867D01*
X50166231Y-20197711D01*
X50180241Y-20200498D01*
X50180246Y-20200498D01*
X50180252Y-20200500D01*
X50180253Y-20200500D01*
X51019747Y-20200500D01*
X51019748Y-20200500D01*
X51019749Y-20200499D01*
X51019755Y-20200499D01*
X51037557Y-20196957D01*
X51078231Y-20188867D01*
X51144552Y-20144552D01*
X51188867Y-20078231D01*
X51200500Y-20019748D01*
X51200500Y-19580252D01*
X51188867Y-19521769D01*
X51144552Y-19455448D01*
X51144549Y-19455446D01*
X51144253Y-19455003D01*
X51127644Y-19396115D01*
X51144253Y-19344997D01*
X51144549Y-19344553D01*
X51144552Y-19344552D01*
X51188867Y-19278231D01*
X51200500Y-19219748D01*
X51200500Y-18780252D01*
X51188867Y-18721769D01*
X51144552Y-18655448D01*
X51144549Y-18655446D01*
X51144253Y-18655003D01*
X51127644Y-18596115D01*
X51144253Y-18544997D01*
X51144549Y-18544553D01*
X51144552Y-18544552D01*
X51188867Y-18478231D01*
X51200500Y-18419748D01*
X51200500Y-17980252D01*
X51188867Y-17921769D01*
X51144552Y-17855448D01*
X51144549Y-17855446D01*
X51144253Y-17855003D01*
X51127644Y-17796115D01*
X51144253Y-17744997D01*
X51144549Y-17744553D01*
X51144552Y-17744552D01*
X51188867Y-17678231D01*
X51200500Y-17619748D01*
X51200500Y-17180252D01*
X51200189Y-17178691D01*
X51193476Y-17144940D01*
X51188867Y-17121769D01*
X51144552Y-17055448D01*
X51144549Y-17055446D01*
X51144253Y-17055003D01*
X51127644Y-16996115D01*
X51144253Y-16944997D01*
X51144549Y-16944553D01*
X51144552Y-16944552D01*
X51188867Y-16878231D01*
X51200500Y-16819748D01*
X51200500Y-16380252D01*
X51188867Y-16321769D01*
X51144552Y-16255448D01*
X51144549Y-16255446D01*
X51144253Y-16255003D01*
X51127644Y-16196115D01*
X51144253Y-16144997D01*
X51144549Y-16144553D01*
X51144552Y-16144552D01*
X51188867Y-16078231D01*
X51200500Y-16019748D01*
X51200500Y-15580252D01*
X51188867Y-15521769D01*
X51144552Y-15455448D01*
X51144549Y-15455446D01*
X51144253Y-15455003D01*
X51127644Y-15396115D01*
X51144253Y-15344997D01*
X51144549Y-15344553D01*
X51144552Y-15344552D01*
X51188867Y-15278231D01*
X51200500Y-15219748D01*
X51200500Y-14780252D01*
X51188867Y-14721769D01*
X51144552Y-14655448D01*
X51144549Y-14655446D01*
X51144253Y-14655003D01*
X51127644Y-14596115D01*
X51144253Y-14544997D01*
X51144549Y-14544553D01*
X51144552Y-14544552D01*
X51188867Y-14478231D01*
X51200500Y-14419748D01*
X51200500Y-13980252D01*
X51188867Y-13921769D01*
X51144552Y-13855448D01*
X51144549Y-13855446D01*
X51144253Y-13855003D01*
X51127644Y-13796115D01*
X51144253Y-13744997D01*
X51144549Y-13744553D01*
X51144552Y-13744552D01*
X51188867Y-13678231D01*
X51200500Y-13619748D01*
X51200500Y-13180252D01*
X51188867Y-13121769D01*
X51144552Y-13055448D01*
X51144549Y-13055446D01*
X51144253Y-13055003D01*
X51127644Y-12996115D01*
X51144253Y-12944997D01*
X51144549Y-12944553D01*
X51144552Y-12944552D01*
X51188867Y-12878231D01*
X51200500Y-12819748D01*
X51200500Y-12380252D01*
X51188867Y-12321769D01*
X51144552Y-12255448D01*
X51138792Y-12251599D01*
X51078233Y-12211134D01*
X51078231Y-12211133D01*
X51078228Y-12211132D01*
X51078227Y-12211132D01*
X51019758Y-12199501D01*
X51019748Y-12199500D01*
X50180252Y-12199500D01*
X50180251Y-12199500D01*
X50180241Y-12199501D01*
X50121772Y-12211132D01*
X50121766Y-12211134D01*
X50055451Y-12255445D01*
X50055445Y-12255451D01*
X50011134Y-12321766D01*
X50011132Y-12321772D01*
X49999501Y-12380241D01*
X49999500Y-12380253D01*
X49999500Y-12819746D01*
X49999501Y-12819758D01*
X50011132Y-12878227D01*
X50011134Y-12878233D01*
X50055746Y-12944998D01*
X50072355Y-13003886D01*
X50055746Y-13055002D01*
X50011134Y-13121766D01*
X50011132Y-13121772D01*
X49999501Y-13180241D01*
X49999500Y-13180253D01*
X49999500Y-13619746D01*
X49999501Y-13619758D01*
X50011132Y-13678227D01*
X50011134Y-13678233D01*
X50055746Y-13744998D01*
X50072355Y-13803886D01*
X50055746Y-13855002D01*
X50011134Y-13921766D01*
X50011132Y-13921772D01*
X49999501Y-13980241D01*
X49999500Y-13980253D01*
X49999500Y-14419746D01*
X49999501Y-14419758D01*
X50011132Y-14478227D01*
X50011134Y-14478233D01*
X50055746Y-14544998D01*
X50072355Y-14603886D01*
X50055746Y-14655002D01*
X50011134Y-14721766D01*
X50011132Y-14721772D01*
X49999501Y-14780241D01*
X49999500Y-14780253D01*
X49999500Y-15219746D01*
X49999501Y-15219758D01*
X50011132Y-15278227D01*
X50011134Y-15278233D01*
X50055746Y-15344998D01*
X50072355Y-15403886D01*
X50055746Y-15455002D01*
X50011134Y-15521766D01*
X50011132Y-15521772D01*
X49999501Y-15580241D01*
X49999500Y-15580253D01*
X49999500Y-16019746D01*
X49999501Y-16019758D01*
X50011132Y-16078227D01*
X50011134Y-16078233D01*
X50055746Y-16144998D01*
X50072355Y-16203886D01*
X50055746Y-16255002D01*
X50011134Y-16321766D01*
X50011132Y-16321772D01*
X49999501Y-16380241D01*
X49999500Y-16380253D01*
X49999500Y-16819746D01*
X49999501Y-16819758D01*
X50011132Y-16878227D01*
X50011134Y-16878233D01*
X50055746Y-16944998D01*
X50072355Y-17003886D01*
X50055746Y-17055002D01*
X50011134Y-17121766D01*
X50011132Y-17121771D01*
X50003479Y-17160242D01*
X49973581Y-17213625D01*
X49939224Y-17234319D01*
X48910822Y-17595955D01*
X48849654Y-17597422D01*
X48819192Y-17582216D01*
X48737883Y-17522207D01*
X48609703Y-17477355D01*
X48609694Y-17477353D01*
X48579274Y-17474500D01*
X48579266Y-17474500D01*
X48070734Y-17474500D01*
X48070725Y-17474500D01*
X48040305Y-17477353D01*
X48040296Y-17477355D01*
X47912116Y-17522207D01*
X47802855Y-17602845D01*
X47802845Y-17602855D01*
X47722207Y-17712116D01*
X47677355Y-17840296D01*
X47677353Y-17840305D01*
X47674500Y-17870725D01*
X47674500Y-18529274D01*
X47677353Y-18559694D01*
X47677355Y-18559703D01*
X47722207Y-18687883D01*
X47802845Y-18797144D01*
X47802847Y-18797146D01*
X47802850Y-18797150D01*
X47802853Y-18797152D01*
X47802855Y-18797154D01*
X47912116Y-18877792D01*
X47912117Y-18877792D01*
X47912118Y-18877793D01*
X48040301Y-18922646D01*
X48070725Y-18925499D01*
X48070727Y-18925500D01*
X48525500Y-18925500D01*
X48583691Y-18944407D01*
X48619655Y-18993907D01*
X48624500Y-19024500D01*
X48624500Y-19480484D01*
X48605593Y-19538675D01*
X48556093Y-19574639D01*
X48494907Y-19574639D01*
X48492803Y-19573929D01*
X48487882Y-19572207D01*
X48359699Y-19527354D01*
X48359697Y-19527353D01*
X48359694Y-19527353D01*
X48329274Y-19524500D01*
X48329266Y-19524500D01*
X47670734Y-19524500D01*
X47670725Y-19524500D01*
X47640305Y-19527353D01*
X47640296Y-19527355D01*
X47512116Y-19572207D01*
X47467474Y-19605155D01*
X47409426Y-19624497D01*
X47408686Y-19624500D01*
X41236171Y-19624500D01*
X41177980Y-19605593D01*
X41142016Y-19556093D01*
X41142016Y-19494907D01*
X41156516Y-19466712D01*
X41173962Y-19443073D01*
X41177793Y-19437882D01*
X41222646Y-19309699D01*
X41225499Y-19279273D01*
X41225500Y-19279273D01*
X41225500Y-18770727D01*
X41225499Y-18770725D01*
X41222646Y-18740305D01*
X41222646Y-18740301D01*
X41177793Y-18612118D01*
X41177066Y-18611133D01*
X41097154Y-18502855D01*
X41097152Y-18502853D01*
X41097150Y-18502850D01*
X41097146Y-18502847D01*
X41097144Y-18502845D01*
X40987883Y-18422207D01*
X40859703Y-18377355D01*
X40859694Y-18377353D01*
X40829274Y-18374500D01*
X40829266Y-18374500D01*
X40170734Y-18374500D01*
X40170725Y-18374500D01*
X40140305Y-18377353D01*
X40140296Y-18377355D01*
X40012116Y-18422207D01*
X39902855Y-18502845D01*
X39902845Y-18502855D01*
X39822207Y-18612116D01*
X39777355Y-18740296D01*
X39777353Y-18740305D01*
X39774500Y-18770725D01*
X39357003Y-18770725D01*
X39422336Y-18683450D01*
X39469491Y-18557022D01*
X39475500Y-18501130D01*
X39475500Y-17898870D01*
X39469491Y-17842978D01*
X39468491Y-17840296D01*
X39422337Y-17716551D01*
X39356996Y-17629266D01*
X39341472Y-17608528D01*
X39268301Y-17553753D01*
X39233048Y-17503745D01*
X39233922Y-17442566D01*
X39270589Y-17393585D01*
X39327630Y-17375500D01*
X39675500Y-17375500D01*
X39733691Y-17394407D01*
X39769655Y-17443907D01*
X39774500Y-17474500D01*
X39774500Y-17629274D01*
X39777353Y-17659694D01*
X39777355Y-17659703D01*
X39822207Y-17787883D01*
X39902845Y-17897144D01*
X39902847Y-17897146D01*
X39902850Y-17897150D01*
X39902853Y-17897152D01*
X39902855Y-17897154D01*
X40012116Y-17977792D01*
X40012117Y-17977792D01*
X40012118Y-17977793D01*
X40140301Y-18022646D01*
X40170725Y-18025499D01*
X40170727Y-18025500D01*
X40170734Y-18025500D01*
X40829273Y-18025500D01*
X40829273Y-18025499D01*
X40859699Y-18022646D01*
X40987882Y-17977793D01*
X41097150Y-17897150D01*
X41177793Y-17787882D01*
X41222646Y-17659699D01*
X41225499Y-17629273D01*
X41225500Y-17629273D01*
X41225500Y-17120727D01*
X41225499Y-17120725D01*
X41225478Y-17120500D01*
X41222646Y-17090301D01*
X41177793Y-16962118D01*
X41169267Y-16950566D01*
X41097154Y-16852855D01*
X41097152Y-16852853D01*
X41097150Y-16852850D01*
X41097146Y-16852847D01*
X41097144Y-16852845D01*
X40987883Y-16772207D01*
X40859703Y-16727355D01*
X40859694Y-16727353D01*
X40829274Y-16724500D01*
X40829266Y-16724500D01*
X40796544Y-16724500D01*
X40738353Y-16705593D01*
X40735776Y-16703392D01*
X40735712Y-16703476D01*
X40730563Y-16699525D01*
X40644941Y-16650091D01*
X40644943Y-16650091D01*
X40607885Y-16640161D01*
X40549435Y-16624500D01*
X40549433Y-16624500D01*
X37242254Y-16624500D01*
X37229684Y-16623699D01*
X37210647Y-16621262D01*
X37193320Y-16623606D01*
X37180049Y-16624500D01*
X37162565Y-16624500D01*
X37144024Y-16629467D01*
X37131683Y-16631945D01*
X37112666Y-16634518D01*
X37112664Y-16634518D01*
X37096538Y-16641266D01*
X37083952Y-16645564D01*
X37067062Y-16650090D01*
X37067061Y-16650090D01*
X37067059Y-16650091D01*
X37050447Y-16659682D01*
X37039164Y-16665271D01*
X37021461Y-16672678D01*
X37021459Y-16672679D01*
X37007622Y-16683375D01*
X36996585Y-16690778D01*
X36981437Y-16699524D01*
X36981436Y-16699525D01*
X36967860Y-16713100D01*
X36958415Y-16721413D01*
X36943234Y-16733149D01*
X36932636Y-16747062D01*
X36923894Y-16757066D01*
X36911524Y-16769437D01*
X36911524Y-16769438D01*
X36901927Y-16786059D01*
X36894952Y-16796538D01*
X36883328Y-16811799D01*
X36883324Y-16811806D01*
X36876691Y-16827983D01*
X36870832Y-16839918D01*
X36862092Y-16855056D01*
X36862089Y-16855064D01*
X36857124Y-16873594D01*
X36853098Y-16885525D01*
X36845817Y-16903281D01*
X36845817Y-16903283D01*
X36843596Y-16920629D01*
X36841026Y-16933672D01*
X36836500Y-16950565D01*
X36836500Y-16969745D01*
X36835699Y-16982316D01*
X36833262Y-17001352D01*
X19550499Y-17001352D01*
X19550499Y-16868482D01*
X19539105Y-16796538D01*
X19535647Y-16774700D01*
X19535646Y-16774698D01*
X19535646Y-16774696D01*
X19478050Y-16661658D01*
X19388342Y-16571950D01*
X19275304Y-16514354D01*
X19275305Y-16514354D01*
X19181521Y-16499500D01*
X17943478Y-16499500D01*
X17943476Y-16499501D01*
X17849700Y-16514352D01*
X17849695Y-16514354D01*
X17736659Y-16571949D01*
X17646949Y-16661659D01*
X17589354Y-16774695D01*
X17574500Y-16868477D01*
X16502087Y-16868477D01*
X16425304Y-16829354D01*
X16425306Y-16829354D01*
X16415372Y-16827781D01*
X16360856Y-16800002D01*
X16333080Y-16745485D01*
X16342652Y-16685053D01*
X16385917Y-16641790D01*
X16415376Y-16632218D01*
X16425304Y-16630646D01*
X16538342Y-16573050D01*
X16628050Y-16483342D01*
X16685646Y-16370304D01*
X16700500Y-16276519D01*
X16700499Y-15913482D01*
X16685646Y-15819696D01*
X16628050Y-15706658D01*
X16538342Y-15616950D01*
X16425304Y-15559354D01*
X16425305Y-15559354D01*
X16331521Y-15544500D01*
X14618478Y-15544500D01*
X14618476Y-15544501D01*
X14524700Y-15559352D01*
X14524695Y-15559354D01*
X14411659Y-15616949D01*
X14321949Y-15706659D01*
X14264354Y-15819695D01*
X14249500Y-15913477D01*
X14249500Y-16276520D01*
X14249501Y-16276523D01*
X14264352Y-16370299D01*
X14264354Y-16370304D01*
X14321950Y-16483342D01*
X14411658Y-16573050D01*
X14524696Y-16630646D01*
X14534625Y-16632218D01*
X14589140Y-16659993D01*
X14616919Y-16714509D01*
X14607349Y-16774941D01*
X14564086Y-16818207D01*
X14534628Y-16827780D01*
X14524698Y-16829353D01*
X14524695Y-16829354D01*
X14411658Y-16886950D01*
X14411656Y-16886951D01*
X14363103Y-16935504D01*
X14308586Y-16963281D01*
X14293100Y-16964500D01*
X13499500Y-16964500D01*
X13441309Y-16945593D01*
X13405345Y-16896093D01*
X13400500Y-16865500D01*
X13400500Y-14947274D01*
X13400500Y-14947273D01*
X13373207Y-14845413D01*
X13320480Y-14754087D01*
X13245913Y-14679520D01*
X13203448Y-14655003D01*
X13154589Y-14626794D01*
X13154588Y-14626793D01*
X13154587Y-14626793D01*
X13052727Y-14599500D01*
X13052725Y-14599500D01*
X9499500Y-14599500D01*
X9441309Y-14580593D01*
X9405345Y-14531093D01*
X9400500Y-14500500D01*
X9400500Y-13247274D01*
X9397984Y-13237883D01*
X9373207Y-13145413D01*
X9359556Y-13121769D01*
X9357333Y-13117918D01*
X9357332Y-13117916D01*
X9330086Y-13070725D01*
X31274500Y-13070725D01*
X31274500Y-13579274D01*
X31277353Y-13609694D01*
X31277355Y-13609703D01*
X31322207Y-13737883D01*
X31402845Y-13847144D01*
X31402847Y-13847146D01*
X31402850Y-13847150D01*
X31402853Y-13847152D01*
X31402855Y-13847154D01*
X31512116Y-13927792D01*
X31512117Y-13927792D01*
X31512118Y-13927793D01*
X31640301Y-13972646D01*
X31670725Y-13975499D01*
X31670727Y-13975500D01*
X31670734Y-13975500D01*
X32329273Y-13975500D01*
X32329273Y-13975499D01*
X32359699Y-13972646D01*
X32487882Y-13927793D01*
X32597150Y-13847150D01*
X32677793Y-13737882D01*
X32722646Y-13609699D01*
X32725499Y-13579273D01*
X32725500Y-13579273D01*
X32725500Y-13070727D01*
X32725499Y-13070725D01*
X32724066Y-13055448D01*
X32722646Y-13040301D01*
X32677793Y-12912118D01*
X32669217Y-12900498D01*
X32597154Y-12802855D01*
X32597152Y-12802853D01*
X32597150Y-12802850D01*
X32597146Y-12802847D01*
X32597144Y-12802845D01*
X32487883Y-12722207D01*
X32359703Y-12677355D01*
X32359694Y-12677353D01*
X32329274Y-12674500D01*
X32329266Y-12674500D01*
X31670734Y-12674500D01*
X31670725Y-12674500D01*
X31640305Y-12677353D01*
X31640296Y-12677355D01*
X31512116Y-12722207D01*
X31402855Y-12802845D01*
X31402845Y-12802855D01*
X31322207Y-12912116D01*
X31277355Y-13040296D01*
X31277353Y-13040305D01*
X31274500Y-13070725D01*
X9330086Y-13070725D01*
X9320481Y-13054089D01*
X9320480Y-13054087D01*
X9245913Y-12979520D01*
X9186117Y-12944997D01*
X9154589Y-12926794D01*
X9154588Y-12926793D01*
X9154587Y-12926793D01*
X9052727Y-12899500D01*
X6052727Y-12899500D01*
X5947273Y-12899500D01*
X5845413Y-12926793D01*
X5845412Y-12926793D01*
X5845410Y-12926794D01*
X5845409Y-12926794D01*
X5754089Y-12979518D01*
X5679518Y-13054089D01*
X5626794Y-13145409D01*
X5626794Y-13145410D01*
X5626794Y-13145411D01*
X5626793Y-13145413D01*
X5602017Y-13237882D01*
X5599500Y-13247274D01*
X5599500Y-17120500D01*
X5580593Y-17178691D01*
X5531093Y-17214655D01*
X5500500Y-17219500D01*
X5091722Y-17219500D01*
X5033531Y-17200593D01*
X5003512Y-17165445D01*
X4993064Y-17144940D01*
X4960138Y-17080317D01*
X4941233Y-17043213D01*
X4892878Y-16976659D01*
X4839414Y-16903072D01*
X4716928Y-16780586D01*
X4576788Y-16678768D01*
X4576787Y-16678767D01*
X4576785Y-16678766D01*
X4422441Y-16600125D01*
X4422438Y-16600123D01*
X4257706Y-16546598D01*
X4257702Y-16546597D01*
X4086614Y-16519500D01*
X4086611Y-16519500D01*
X3913389Y-16519500D01*
X3913386Y-16519500D01*
X3742297Y-16546597D01*
X3742293Y-16546598D01*
X3577561Y-16600123D01*
X3577558Y-16600125D01*
X3423214Y-16678766D01*
X3283073Y-16780585D01*
X3160585Y-16903073D01*
X3058766Y-17043214D01*
X2980125Y-17197558D01*
X2980123Y-17197561D01*
X2926598Y-17362293D01*
X2926597Y-17362297D01*
X2899500Y-17533385D01*
X1200000Y-17533385D01*
X1200000Y-9125327D01*
X2899500Y-9125327D01*
X2899500Y-10874672D01*
X2899501Y-10874684D01*
X2914033Y-10947736D01*
X2914035Y-10947742D01*
X2969397Y-11030599D01*
X2969399Y-11030601D01*
X3052260Y-11085966D01*
X3107808Y-11097015D01*
X3125315Y-11100498D01*
X3125320Y-11100498D01*
X3125326Y-11100500D01*
X3125327Y-11100500D01*
X4874673Y-11100500D01*
X4874674Y-11100500D01*
X4947740Y-11085966D01*
X5030601Y-11030601D01*
X5085966Y-10947740D01*
X5100500Y-10874674D01*
X5100500Y-9125326D01*
X5085966Y-9052260D01*
X5030601Y-8969399D01*
X5030599Y-8969397D01*
X4947742Y-8914035D01*
X4947740Y-8914034D01*
X4947737Y-8914033D01*
X4947736Y-8914033D01*
X4874684Y-8899501D01*
X4874674Y-8899500D01*
X4874673Y-8899500D01*
X4649500Y-8899500D01*
X4591309Y-8880593D01*
X4555345Y-8831093D01*
X4550500Y-8800500D01*
X4550500Y-6649500D01*
X4569407Y-6591309D01*
X4618907Y-6555345D01*
X4649500Y-6550500D01*
X5078300Y-6550500D01*
X5136491Y-6569407D01*
X5157553Y-6590171D01*
X5158525Y-6591469D01*
X5158526Y-6591470D01*
X5158528Y-6591472D01*
X5235492Y-6649086D01*
X5266551Y-6672337D01*
X5392972Y-6719489D01*
X5392973Y-6719489D01*
X5392978Y-6719491D01*
X5448870Y-6725500D01*
X5448874Y-6725500D01*
X5976126Y-6725500D01*
X5976130Y-6725500D01*
X6032022Y-6719491D01*
X6075918Y-6703118D01*
X6158448Y-6672337D01*
X6158448Y-6672336D01*
X6158450Y-6672336D01*
X6266472Y-6591472D01*
X6347336Y-6483450D01*
X6348538Y-6480229D01*
X6393491Y-6359703D01*
X6394491Y-6357022D01*
X6400500Y-6301130D01*
X6400500Y-6301126D01*
X6599499Y-6301126D01*
X6605508Y-6357016D01*
X6605510Y-6357027D01*
X6652662Y-6483448D01*
X6717010Y-6569407D01*
X6733528Y-6591472D01*
X6745330Y-6600307D01*
X6841551Y-6672337D01*
X6967972Y-6719489D01*
X6967973Y-6719489D01*
X6967978Y-6719491D01*
X7023870Y-6725500D01*
X7023874Y-6725500D01*
X7551126Y-6725500D01*
X7551130Y-6725500D01*
X7607022Y-6719491D01*
X7650918Y-6703118D01*
X7733448Y-6672337D01*
X7733448Y-6672336D01*
X7733450Y-6672336D01*
X7841472Y-6591472D01*
X7841697Y-6591172D01*
X7842447Y-6590171D01*
X7843554Y-6589390D01*
X7846483Y-6586462D01*
X7846989Y-6586968D01*
X7892456Y-6554918D01*
X7921700Y-6550500D01*
X9250501Y-6550500D01*
X9308692Y-6569407D01*
X9344656Y-6618907D01*
X9349501Y-6649500D01*
X9349501Y-6947870D01*
X9355908Y-7007480D01*
X9355909Y-7007485D01*
X9406202Y-7142329D01*
X9492450Y-7257541D01*
X9492454Y-7257546D01*
X9492457Y-7257548D01*
X9492458Y-7257549D01*
X9607670Y-7343797D01*
X9742511Y-7394089D01*
X9742512Y-7394089D01*
X9742517Y-7394091D01*
X9802127Y-7400500D01*
X10200500Y-7400499D01*
X10258691Y-7419406D01*
X10294655Y-7468906D01*
X10299500Y-7499499D01*
X10299500Y-10000500D01*
X10280593Y-10058691D01*
X10231093Y-10094655D01*
X10200500Y-10099500D01*
X9802133Y-10099500D01*
X9802129Y-10099500D01*
X9802128Y-10099501D01*
X9794949Y-10100272D01*
X9742519Y-10105908D01*
X9742514Y-10105909D01*
X9607670Y-10156202D01*
X9492458Y-10242450D01*
X9492450Y-10242458D01*
X9406202Y-10357670D01*
X9355910Y-10492511D01*
X9355908Y-10492522D01*
X9352470Y-10524500D01*
X9350267Y-10544998D01*
X9349500Y-10552129D01*
X9349500Y-12447866D01*
X9349501Y-12447870D01*
X9355908Y-12507480D01*
X9355909Y-12507485D01*
X9406202Y-12642329D01*
X9432421Y-12677353D01*
X9492454Y-12757546D01*
X9492457Y-12757548D01*
X9492458Y-12757549D01*
X9607670Y-12843797D01*
X9742511Y-12894089D01*
X9742512Y-12894089D01*
X9742517Y-12894091D01*
X9802127Y-12900500D01*
X11897872Y-12900499D01*
X11957483Y-12894091D01*
X12024907Y-12868943D01*
X12092329Y-12843797D01*
X12092329Y-12843796D01*
X12092331Y-12843796D01*
X12207546Y-12757546D01*
X12293796Y-12642331D01*
X12344091Y-12507483D01*
X12350500Y-12447873D01*
X12350499Y-10552128D01*
X12344091Y-10492517D01*
X12344089Y-10492511D01*
X12293797Y-10357670D01*
X12207549Y-10242458D01*
X12207548Y-10242457D01*
X12207546Y-10242454D01*
X12199983Y-10236792D01*
X12092329Y-10156202D01*
X11957488Y-10105910D01*
X11957483Y-10105909D01*
X11957481Y-10105908D01*
X11957477Y-10105908D01*
X11926249Y-10102550D01*
X11897873Y-10099500D01*
X11897870Y-10099500D01*
X11499500Y-10099500D01*
X11441309Y-10080593D01*
X11405345Y-10031093D01*
X11400500Y-10000500D01*
X11400500Y-7499499D01*
X11419407Y-7441308D01*
X11468907Y-7405344D01*
X11499500Y-7400499D01*
X11897867Y-7400499D01*
X11897872Y-7400499D01*
X11957483Y-7394091D01*
X12046486Y-7360895D01*
X12092329Y-7343797D01*
X12092329Y-7343796D01*
X12092331Y-7343796D01*
X12207546Y-7257546D01*
X12293796Y-7142331D01*
X12344091Y-7007483D01*
X12350500Y-6947873D01*
X12350499Y-5052129D01*
X13649500Y-5052129D01*
X13649500Y-6947866D01*
X13649501Y-6947870D01*
X13655908Y-7007480D01*
X13655909Y-7007485D01*
X13706202Y-7142329D01*
X13792450Y-7257541D01*
X13792454Y-7257546D01*
X13792457Y-7257548D01*
X13792458Y-7257549D01*
X13907670Y-7343797D01*
X14042511Y-7394089D01*
X14042512Y-7394089D01*
X14042517Y-7394091D01*
X14102127Y-7400500D01*
X16197872Y-7400499D01*
X16257483Y-7394091D01*
X16346486Y-7360895D01*
X16392329Y-7343797D01*
X16392329Y-7343796D01*
X16392331Y-7343796D01*
X16507546Y-7257546D01*
X16593796Y-7142331D01*
X16644091Y-7007483D01*
X16650500Y-6947873D01*
X16650500Y-6649500D01*
X16669407Y-6591309D01*
X16718907Y-6555345D01*
X16749500Y-6550500D01*
X17600501Y-6550500D01*
X17658692Y-6569407D01*
X17694656Y-6618907D01*
X17699501Y-6649500D01*
X17699501Y-7147870D01*
X17705908Y-7207480D01*
X17705909Y-7207485D01*
X17756202Y-7342329D01*
X17812020Y-7416892D01*
X17842454Y-7457546D01*
X17842457Y-7457548D01*
X17842458Y-7457549D01*
X17957670Y-7543797D01*
X18092511Y-7594089D01*
X18092512Y-7594089D01*
X18092517Y-7594091D01*
X18152127Y-7600500D01*
X18897872Y-7600499D01*
X18957483Y-7594091D01*
X19024907Y-7568943D01*
X19092329Y-7543797D01*
X19092329Y-7543796D01*
X19092331Y-7543796D01*
X19207546Y-7457546D01*
X19293796Y-7342331D01*
X19308271Y-7303523D01*
X19344089Y-7207488D01*
X19344090Y-7207485D01*
X19344091Y-7207483D01*
X19350500Y-7147873D01*
X19350499Y-4852128D01*
X19344091Y-4792517D01*
X19328056Y-4749525D01*
X19303659Y-4684112D01*
X19298635Y-4634034D01*
X19316778Y-4519445D01*
X19456971Y-3634017D01*
X19484746Y-3579500D01*
X19539261Y-3551720D01*
X19554753Y-3550500D01*
X26956904Y-3550500D01*
X27015095Y-3569407D01*
X27051059Y-3618907D01*
X27051059Y-3680093D01*
X27045748Y-3693175D01*
X26966154Y-3855062D01*
X26725670Y-4344181D01*
X26683028Y-4388059D01*
X26636828Y-4399500D01*
X26152133Y-4399500D01*
X26152129Y-4399500D01*
X26152128Y-4399501D01*
X26146900Y-4400063D01*
X26092519Y-4405908D01*
X26092514Y-4405909D01*
X25957670Y-4456202D01*
X25842458Y-4542450D01*
X25842450Y-4542458D01*
X25756202Y-4657670D01*
X25705910Y-4792511D01*
X25705908Y-4792522D01*
X25699500Y-4852129D01*
X25699500Y-7147866D01*
X25699501Y-7147870D01*
X25705908Y-7207480D01*
X25705909Y-7207485D01*
X25756202Y-7342329D01*
X25812020Y-7416892D01*
X25842454Y-7457546D01*
X25842457Y-7457548D01*
X25842458Y-7457549D01*
X25957670Y-7543797D01*
X26092511Y-7594089D01*
X26092512Y-7594089D01*
X26092517Y-7594091D01*
X26152127Y-7600500D01*
X26175730Y-7600499D01*
X26233920Y-7619404D01*
X26269885Y-7668903D01*
X26273115Y-7681677D01*
X26435642Y-8569772D01*
X26596264Y-9447457D01*
X26672883Y-9866122D01*
X26674500Y-9883944D01*
X26674500Y-9897474D01*
X26686462Y-9942120D01*
X26688218Y-9949919D01*
X26696540Y-9995391D01*
X26702339Y-10007620D01*
X26708511Y-10024408D01*
X26712015Y-10037484D01*
X26712017Y-10037487D01*
X26735119Y-10077501D01*
X26738834Y-10084580D01*
X26758648Y-10126362D01*
X26767415Y-10136674D01*
X26777724Y-10151296D01*
X26784487Y-10163010D01*
X26784488Y-10163011D01*
X26784489Y-10163012D01*
X26784491Y-10163015D01*
X26817177Y-10195701D01*
X26822596Y-10201577D01*
X26852536Y-10236792D01*
X26863669Y-10244480D01*
X26877407Y-10255931D01*
X26886985Y-10265509D01*
X26927015Y-10288620D01*
X26933766Y-10292890D01*
X26971806Y-10319161D01*
X26983488Y-10323327D01*
X26984552Y-10323707D01*
X27000792Y-10331216D01*
X27012515Y-10337984D01*
X27057170Y-10349948D01*
X27064789Y-10352324D01*
X27108332Y-10367855D01*
X27121822Y-10368947D01*
X27139454Y-10371997D01*
X27145286Y-10373560D01*
X27152524Y-10375500D01*
X27152525Y-10375500D01*
X27198742Y-10375500D01*
X27206730Y-10375822D01*
X27222712Y-10377117D01*
X27252806Y-10379554D01*
X27252806Y-10379553D01*
X27252808Y-10379554D01*
X27264681Y-10377381D01*
X27266125Y-10377117D01*
X27283946Y-10375500D01*
X31408686Y-10375500D01*
X31466877Y-10394407D01*
X31467474Y-10394845D01*
X31512116Y-10427792D01*
X31512117Y-10427792D01*
X31512118Y-10427793D01*
X31640301Y-10472646D01*
X31670725Y-10475499D01*
X31670727Y-10475500D01*
X31670734Y-10475500D01*
X32329273Y-10475500D01*
X32329273Y-10475499D01*
X32359699Y-10472646D01*
X32487882Y-10427793D01*
X32597150Y-10347150D01*
X32677793Y-10237882D01*
X32722646Y-10109699D01*
X32725499Y-10079273D01*
X32725500Y-10079273D01*
X32725500Y-9570727D01*
X32725499Y-9570725D01*
X32722646Y-9540301D01*
X32677793Y-9412118D01*
X32650332Y-9374910D01*
X32597154Y-9302855D01*
X32597152Y-9302853D01*
X32597150Y-9302850D01*
X32597146Y-9302847D01*
X32597144Y-9302845D01*
X32487883Y-9222207D01*
X32359703Y-9177355D01*
X32359694Y-9177353D01*
X32329274Y-9174500D01*
X32329266Y-9174500D01*
X31670734Y-9174500D01*
X31670725Y-9174500D01*
X31640305Y-9177353D01*
X31640296Y-9177355D01*
X31512116Y-9222207D01*
X31467474Y-9255155D01*
X31409426Y-9274497D01*
X31408686Y-9274500D01*
X27766425Y-9274500D01*
X27708234Y-9255593D01*
X27672270Y-9206093D01*
X27669042Y-9193322D01*
X27438988Y-7936241D01*
X27436148Y-7920725D01*
X31274500Y-7920725D01*
X31274500Y-8429274D01*
X31277353Y-8459694D01*
X31277355Y-8459703D01*
X31322207Y-8587883D01*
X31402845Y-8697144D01*
X31402847Y-8697146D01*
X31402850Y-8697150D01*
X31402853Y-8697152D01*
X31402855Y-8697154D01*
X31512116Y-8777792D01*
X31512117Y-8777792D01*
X31512118Y-8777793D01*
X31640301Y-8822646D01*
X31670725Y-8825499D01*
X31670727Y-8825500D01*
X31670734Y-8825500D01*
X32329273Y-8825500D01*
X32329273Y-8825499D01*
X32359699Y-8822646D01*
X32487882Y-8777793D01*
X32597150Y-8697150D01*
X32677793Y-8587882D01*
X32722646Y-8459699D01*
X32725499Y-8429273D01*
X32725500Y-8429273D01*
X32725500Y-7920727D01*
X32725499Y-7920725D01*
X32722646Y-7890301D01*
X32677793Y-7762118D01*
X32663188Y-7742329D01*
X32597154Y-7652855D01*
X32597152Y-7652853D01*
X32597150Y-7652850D01*
X32597146Y-7652847D01*
X32597144Y-7652845D01*
X32487883Y-7572207D01*
X32359703Y-7527355D01*
X32359694Y-7527353D01*
X32329274Y-7524500D01*
X32329266Y-7524500D01*
X31670734Y-7524500D01*
X31670725Y-7524500D01*
X31640305Y-7527353D01*
X31640296Y-7527355D01*
X31512116Y-7572207D01*
X31402855Y-7652845D01*
X31402845Y-7652855D01*
X31322207Y-7762116D01*
X31277355Y-7890296D01*
X31277353Y-7890305D01*
X31274500Y-7920725D01*
X27436148Y-7920725D01*
X27323196Y-7303523D01*
X27327821Y-7251104D01*
X27344091Y-7207483D01*
X27350500Y-7147873D01*
X27350499Y-5950565D01*
X33424500Y-5950565D01*
X33424500Y-9074435D01*
X33447067Y-9158657D01*
X33450091Y-9169942D01*
X33480267Y-9222207D01*
X33499525Y-9255562D01*
X33569438Y-9325475D01*
X33569440Y-9325476D01*
X33655058Y-9374908D01*
X33655056Y-9374908D01*
X33655060Y-9374909D01*
X33655062Y-9374910D01*
X33750565Y-9400500D01*
X33849435Y-9400500D01*
X35729899Y-9400500D01*
X35788090Y-9419407D01*
X35822657Y-9464903D01*
X35828371Y-9480224D01*
X35828373Y-9480228D01*
X35873343Y-9540301D01*
X35910313Y-9589687D01*
X36019774Y-9671628D01*
X36074253Y-9691948D01*
X36122167Y-9729998D01*
X36138564Y-9788945D01*
X36135281Y-9810330D01*
X36126174Y-9844315D01*
X36092849Y-9895629D01*
X36065148Y-9911447D01*
X36019775Y-9928371D01*
X36019771Y-9928373D01*
X35910315Y-10010311D01*
X35910311Y-10010315D01*
X35828373Y-10119771D01*
X35780587Y-10247887D01*
X35774500Y-10304518D01*
X35774500Y-10845478D01*
X35774501Y-10845484D01*
X35780587Y-10902111D01*
X35780587Y-10902112D01*
X35780588Y-10902114D01*
X35828372Y-11030226D01*
X35910313Y-11139687D01*
X35933247Y-11156855D01*
X36017262Y-11219748D01*
X36019774Y-11221628D01*
X36147886Y-11269412D01*
X36204515Y-11275500D01*
X36795484Y-11275499D01*
X36852114Y-11269412D01*
X36980226Y-11221628D01*
X37089687Y-11139687D01*
X37121248Y-11097525D01*
X37171253Y-11062274D01*
X37232432Y-11063146D01*
X37281414Y-11099812D01*
X37299500Y-11156855D01*
X37299500Y-11522866D01*
X37299501Y-11522870D01*
X37305908Y-11582480D01*
X37305909Y-11582485D01*
X37356202Y-11717329D01*
X37442450Y-11832541D01*
X37442454Y-11832546D01*
X37442457Y-11832548D01*
X37442458Y-11832549D01*
X37557669Y-11918796D01*
X37605360Y-11936584D01*
X37619809Y-11948059D01*
X37636701Y-11955496D01*
X37642656Y-11966202D01*
X37653274Y-11974635D01*
X37667513Y-12008357D01*
X37667942Y-12010337D01*
X37674791Y-12049470D01*
X37674952Y-12075823D01*
X37687233Y-12120566D01*
X37695234Y-12166285D01*
X37706343Y-12190190D01*
X37709243Y-12200757D01*
X37709247Y-12200772D01*
X37713317Y-12215599D01*
X37713319Y-12215604D01*
X37734394Y-12251599D01*
X37738735Y-12259888D01*
X37756323Y-12297733D01*
X37767914Y-12311582D01*
X37777428Y-12325100D01*
X37786556Y-12340691D01*
X37786557Y-12340692D01*
X37816238Y-12370014D01*
X37822580Y-12376901D01*
X37825375Y-12380241D01*
X37849353Y-12408891D01*
X37864129Y-12419265D01*
X37876816Y-12429857D01*
X37889672Y-12442558D01*
X37925930Y-12463199D01*
X37933840Y-12468212D01*
X37967977Y-12492180D01*
X37967982Y-12492183D01*
X37984940Y-12498380D01*
X37999932Y-12505326D01*
X38015640Y-12514268D01*
X38051043Y-12523523D01*
X38056011Y-12524822D01*
X38064954Y-12527618D01*
X38104124Y-12541933D01*
X38122115Y-12543529D01*
X38138391Y-12546358D01*
X41225541Y-13353457D01*
X41277057Y-13386468D01*
X41299331Y-13443455D01*
X41299500Y-13449237D01*
X41299500Y-13522867D01*
X41299501Y-13522870D01*
X41305908Y-13582480D01*
X41305909Y-13582485D01*
X41356202Y-13717329D01*
X41418090Y-13800000D01*
X41442454Y-13832546D01*
X41442457Y-13832548D01*
X41442458Y-13832549D01*
X41557670Y-13918797D01*
X41692511Y-13969089D01*
X41692512Y-13969089D01*
X41692517Y-13969091D01*
X41752127Y-13975500D01*
X42347872Y-13975499D01*
X42407483Y-13969091D01*
X42518209Y-13927793D01*
X42542329Y-13918797D01*
X42542329Y-13918796D01*
X42542331Y-13918796D01*
X42657546Y-13832546D01*
X42743796Y-13717331D01*
X42748267Y-13705345D01*
X42794089Y-13582488D01*
X42794090Y-13582485D01*
X42794091Y-13582483D01*
X42800500Y-13522873D01*
X42800499Y-12477128D01*
X42794091Y-12417517D01*
X42790873Y-12408890D01*
X42743797Y-12282670D01*
X42672232Y-12187071D01*
X42652495Y-12129156D01*
X42652653Y-12121977D01*
X42662311Y-11956405D01*
X42738884Y-10643734D01*
X42761148Y-10586744D01*
X42812658Y-10553724D01*
X42837716Y-10550500D01*
X44350500Y-10550500D01*
X44408691Y-10569407D01*
X44444655Y-10618907D01*
X44449500Y-10649500D01*
X44449500Y-12897475D01*
X44462234Y-12944997D01*
X44487017Y-13037489D01*
X44559487Y-13163010D01*
X44559489Y-13163012D01*
X44559491Y-13163015D01*
X44661985Y-13265509D01*
X44661987Y-13265510D01*
X44661989Y-13265512D01*
X44787511Y-13337982D01*
X44787512Y-13337982D01*
X44787515Y-13337984D01*
X44927525Y-13375500D01*
X45072475Y-13375500D01*
X45408686Y-13375500D01*
X45466877Y-13394407D01*
X45467474Y-13394845D01*
X45512116Y-13427792D01*
X45512117Y-13427792D01*
X45512118Y-13427793D01*
X45640301Y-13472646D01*
X45670725Y-13475499D01*
X45670727Y-13475500D01*
X45670734Y-13475500D01*
X46329273Y-13475500D01*
X46329273Y-13475499D01*
X46359699Y-13472646D01*
X46487882Y-13427793D01*
X46597150Y-13347150D01*
X46677793Y-13237882D01*
X46722646Y-13109699D01*
X46725499Y-13079273D01*
X46725500Y-13079273D01*
X46725500Y-12570727D01*
X46725499Y-12570725D01*
X46723214Y-12546360D01*
X46722646Y-12540301D01*
X46677793Y-12412118D01*
X46675411Y-12408891D01*
X46597154Y-12302855D01*
X46597152Y-12302853D01*
X46597150Y-12302850D01*
X46597146Y-12302847D01*
X46597144Y-12302845D01*
X46487883Y-12222207D01*
X46359703Y-12177355D01*
X46359694Y-12177353D01*
X46329274Y-12174500D01*
X46329266Y-12174500D01*
X45670734Y-12174500D01*
X45670731Y-12174500D01*
X45658740Y-12175624D01*
X45599038Y-12162230D01*
X45558612Y-12116303D01*
X45550500Y-12077056D01*
X45550500Y-11922943D01*
X45569407Y-11864752D01*
X45618907Y-11828788D01*
X45658746Y-11824376D01*
X45670728Y-11825500D01*
X45670734Y-11825500D01*
X46329273Y-11825500D01*
X46329273Y-11825499D01*
X46359699Y-11822646D01*
X46487882Y-11777793D01*
X46597150Y-11697150D01*
X46675705Y-11590709D01*
X46725471Y-11555119D01*
X46755359Y-11550500D01*
X48025500Y-11550500D01*
X48083691Y-11569407D01*
X48119655Y-11618907D01*
X48124500Y-11649500D01*
X48124500Y-15550499D01*
X48105593Y-15608690D01*
X48056093Y-15644654D01*
X48025500Y-15649499D01*
X46755359Y-15649499D01*
X46697168Y-15630592D01*
X46675704Y-15609287D01*
X46597153Y-15502854D01*
X46597152Y-15502853D01*
X46597150Y-15502850D01*
X46597146Y-15502847D01*
X46597144Y-15502845D01*
X46487883Y-15422207D01*
X46359703Y-15377355D01*
X46359694Y-15377353D01*
X46329274Y-15374500D01*
X46329266Y-15374500D01*
X45670734Y-15374500D01*
X45670725Y-15374500D01*
X45640305Y-15377353D01*
X45640296Y-15377355D01*
X45512116Y-15422207D01*
X45402855Y-15502845D01*
X45402845Y-15502855D01*
X45322207Y-15612116D01*
X45277355Y-15740296D01*
X45277353Y-15740305D01*
X45274500Y-15770725D01*
X45274500Y-16279274D01*
X45277353Y-16309694D01*
X45277355Y-16309703D01*
X45322207Y-16437883D01*
X45343484Y-16466712D01*
X45362826Y-16524759D01*
X45344355Y-16583090D01*
X45295125Y-16619423D01*
X45263829Y-16624500D01*
X43242254Y-16624500D01*
X43229684Y-16623699D01*
X43210647Y-16621262D01*
X43193320Y-16623606D01*
X43180049Y-16624500D01*
X43162565Y-16624500D01*
X43144024Y-16629467D01*
X43131683Y-16631945D01*
X43112666Y-16634518D01*
X43112664Y-16634518D01*
X43096538Y-16641266D01*
X43083952Y-16645564D01*
X43067062Y-16650090D01*
X43067061Y-16650090D01*
X43067059Y-16650091D01*
X43050447Y-16659682D01*
X43039164Y-16665271D01*
X43021461Y-16672678D01*
X43021459Y-16672679D01*
X43007622Y-16683375D01*
X42996585Y-16690778D01*
X42981437Y-16699524D01*
X42981436Y-16699525D01*
X42967860Y-16713100D01*
X42958415Y-16721413D01*
X42943234Y-16733149D01*
X42932636Y-16747062D01*
X42923894Y-16757066D01*
X42911524Y-16769437D01*
X42911524Y-16769438D01*
X42901927Y-16786059D01*
X42894952Y-16796538D01*
X42883328Y-16811799D01*
X42883324Y-16811806D01*
X42876691Y-16827983D01*
X42870832Y-16839918D01*
X42862092Y-16855056D01*
X42862089Y-16855064D01*
X42857124Y-16873594D01*
X42853098Y-16885525D01*
X42845817Y-16903281D01*
X42845817Y-16903283D01*
X42843596Y-16920629D01*
X42841026Y-16933672D01*
X42836500Y-16950565D01*
X42836500Y-16969745D01*
X42835699Y-16982316D01*
X42833262Y-17001352D01*
X42835606Y-17018677D01*
X42836500Y-17031951D01*
X42836500Y-17049437D01*
X42841466Y-17067971D01*
X42843945Y-17080317D01*
X42846517Y-17099328D01*
X42846519Y-17099336D01*
X42853267Y-17115463D01*
X42857565Y-17128051D01*
X42862089Y-17144936D01*
X42862091Y-17144940D01*
X42871679Y-17161547D01*
X42877270Y-17172832D01*
X42884680Y-17190541D01*
X42884681Y-17190543D01*
X42895370Y-17204370D01*
X42902781Y-17215418D01*
X42911523Y-17230559D01*
X42911526Y-17230563D01*
X42925094Y-17244132D01*
X42933413Y-17253584D01*
X42945147Y-17268763D01*
X42945148Y-17268764D01*
X42945150Y-17268766D01*
X42959063Y-17279363D01*
X42969065Y-17288102D01*
X42981438Y-17300475D01*
X42998057Y-17310070D01*
X43008535Y-17317044D01*
X44060486Y-18118276D01*
X44095322Y-18168575D01*
X44099500Y-18197032D01*
X44099500Y-18501126D01*
X44099499Y-18501126D01*
X44105508Y-18557016D01*
X44105510Y-18557027D01*
X44152662Y-18683448D01*
X44218004Y-18770734D01*
X44233528Y-18791472D01*
X44266986Y-18816518D01*
X44341551Y-18872337D01*
X44467972Y-18919489D01*
X44467973Y-18919489D01*
X44467978Y-18919491D01*
X44523870Y-18925500D01*
X44523874Y-18925500D01*
X45051126Y-18925500D01*
X45051130Y-18925500D01*
X45107022Y-18919491D01*
X45178072Y-18892991D01*
X45233448Y-18872337D01*
X45233448Y-18872336D01*
X45233450Y-18872336D01*
X45341472Y-18791472D01*
X45422336Y-18683450D01*
X45469491Y-18557022D01*
X45475500Y-18501130D01*
X45475500Y-17898870D01*
X45469491Y-17842978D01*
X45468491Y-17840296D01*
X45422337Y-17716551D01*
X45356996Y-17629266D01*
X45341472Y-17608528D01*
X45268301Y-17553753D01*
X45233048Y-17503745D01*
X45233922Y-17442566D01*
X45270589Y-17393585D01*
X45327630Y-17375500D01*
X46160041Y-17375500D01*
X46218232Y-17394407D01*
X46254196Y-17443907D01*
X46254196Y-17505093D01*
X46218829Y-17554155D01*
X46152855Y-17602845D01*
X46152845Y-17602855D01*
X46072207Y-17712116D01*
X46027355Y-17840296D01*
X46027353Y-17840305D01*
X46024500Y-17870725D01*
X46024500Y-18529274D01*
X46027353Y-18559694D01*
X46027355Y-18559703D01*
X46072207Y-18687883D01*
X46152845Y-18797144D01*
X46152847Y-18797146D01*
X46152850Y-18797150D01*
X46152853Y-18797152D01*
X46152855Y-18797154D01*
X46262116Y-18877792D01*
X46262117Y-18877792D01*
X46262118Y-18877793D01*
X46390301Y-18922646D01*
X46420725Y-18925499D01*
X46420727Y-18925500D01*
X46420734Y-18925500D01*
X46929273Y-18925500D01*
X46929273Y-18925499D01*
X46959699Y-18922646D01*
X47087882Y-18877793D01*
X47197150Y-18797150D01*
X47277793Y-18687882D01*
X47322646Y-18559699D01*
X47325499Y-18529273D01*
X47325500Y-18529273D01*
X47325500Y-17870727D01*
X47325499Y-17870725D01*
X47325048Y-17865913D01*
X47322646Y-17840301D01*
X47277793Y-17712118D01*
X47258134Y-17685481D01*
X47197154Y-17602855D01*
X47197152Y-17602853D01*
X47197150Y-17602850D01*
X47154732Y-17571544D01*
X47090711Y-17524294D01*
X47055119Y-17474526D01*
X47050500Y-17444639D01*
X47050500Y-16950566D01*
X47050500Y-16950565D01*
X47024910Y-16855062D01*
X47024908Y-16855059D01*
X47024908Y-16855057D01*
X46975476Y-16769440D01*
X46975475Y-16769438D01*
X46905562Y-16699525D01*
X46890412Y-16690778D01*
X46819941Y-16650091D01*
X46819943Y-16650091D01*
X46742972Y-16629467D01*
X46724435Y-16624500D01*
X46724434Y-16624500D01*
X46724427Y-16624498D01*
X46722776Y-16624281D01*
X46721699Y-16623767D01*
X46718167Y-16622821D01*
X46718342Y-16622165D01*
X46667553Y-16597936D01*
X46638361Y-16544163D01*
X46646352Y-16483502D01*
X46656042Y-16467352D01*
X46675707Y-16440708D01*
X46725475Y-16405117D01*
X46755360Y-16400499D01*
X48549433Y-16400499D01*
X48549435Y-16400499D01*
X48644938Y-16374909D01*
X48644940Y-16374907D01*
X48644942Y-16374907D01*
X48670377Y-16360221D01*
X48730562Y-16325474D01*
X48800475Y-16255561D01*
X48849910Y-16169937D01*
X48875500Y-16074434D01*
X48875500Y-15975564D01*
X48875500Y-11125565D01*
X48849910Y-11030062D01*
X48849908Y-11030059D01*
X48849908Y-11030057D01*
X48807818Y-10957157D01*
X48800475Y-10944438D01*
X48730562Y-10874525D01*
X48730559Y-10874523D01*
X48644941Y-10825091D01*
X48644943Y-10825091D01*
X48607885Y-10815161D01*
X48549435Y-10799500D01*
X48549433Y-10799500D01*
X46755359Y-10799500D01*
X46697168Y-10780593D01*
X46675708Y-10759293D01*
X46597150Y-10652850D01*
X46597146Y-10652847D01*
X46597144Y-10652845D01*
X46487883Y-10572207D01*
X46359703Y-10527355D01*
X46359694Y-10527353D01*
X46329274Y-10524500D01*
X46329266Y-10524500D01*
X45670734Y-10524500D01*
X45670731Y-10524500D01*
X45658740Y-10525624D01*
X45599038Y-10512230D01*
X45558612Y-10466303D01*
X45550500Y-10427056D01*
X45550500Y-9980253D01*
X49999500Y-9980253D01*
X49999500Y-10419746D01*
X49999501Y-10419758D01*
X50011132Y-10478227D01*
X50011134Y-10478233D01*
X50055746Y-10544998D01*
X50072355Y-10603886D01*
X50055746Y-10655002D01*
X50011134Y-10721766D01*
X50011132Y-10721772D01*
X49999501Y-10780241D01*
X49999500Y-10780253D01*
X49999500Y-11219746D01*
X49999501Y-11219758D01*
X50010590Y-11275500D01*
X50011133Y-11278231D01*
X50055448Y-11344552D01*
X50121769Y-11388867D01*
X50166231Y-11397711D01*
X50180241Y-11400498D01*
X50180246Y-11400498D01*
X50180252Y-11400500D01*
X50180253Y-11400500D01*
X51019747Y-11400500D01*
X51019748Y-11400500D01*
X51078231Y-11388867D01*
X51144552Y-11344552D01*
X51188867Y-11278231D01*
X51200500Y-11219748D01*
X51200500Y-10780252D01*
X51188867Y-10721769D01*
X51144552Y-10655448D01*
X51144549Y-10655446D01*
X51144253Y-10655003D01*
X51127644Y-10596115D01*
X51144253Y-10544997D01*
X51144549Y-10544553D01*
X51144552Y-10544552D01*
X51188867Y-10478231D01*
X51200500Y-10419748D01*
X51200500Y-9980252D01*
X51188867Y-9921769D01*
X51144552Y-9855448D01*
X51144548Y-9855445D01*
X51078233Y-9811134D01*
X51078231Y-9811133D01*
X51078228Y-9811132D01*
X51078227Y-9811132D01*
X51019758Y-9799501D01*
X51019748Y-9799500D01*
X50180252Y-9799500D01*
X50180251Y-9799500D01*
X50180241Y-9799501D01*
X50121772Y-9811132D01*
X50121766Y-9811134D01*
X50055451Y-9855445D01*
X50055445Y-9855451D01*
X50011134Y-9921766D01*
X50011132Y-9921772D01*
X49999501Y-9980241D01*
X49999500Y-9980253D01*
X45550500Y-9980253D01*
X45550500Y-9927525D01*
X45548906Y-9921578D01*
X45512984Y-9787515D01*
X45512982Y-9787512D01*
X45512982Y-9787510D01*
X45440512Y-9661989D01*
X45440507Y-9661983D01*
X45429494Y-9650969D01*
X45401718Y-9596452D01*
X45400500Y-9580968D01*
X45400500Y-7799500D01*
X45419407Y-7741309D01*
X45468907Y-7705345D01*
X45499500Y-7700500D01*
X45575334Y-7700500D01*
X45633525Y-7719407D01*
X45654587Y-7740171D01*
X45671016Y-7762118D01*
X45742454Y-7857546D01*
X45742457Y-7857548D01*
X45742458Y-7857549D01*
X45857670Y-7943797D01*
X45992511Y-7994089D01*
X45992512Y-7994089D01*
X45992517Y-7994091D01*
X46052127Y-8000500D01*
X47997872Y-8000499D01*
X48057483Y-7994091D01*
X48177038Y-7949500D01*
X48192329Y-7943797D01*
X48192329Y-7943796D01*
X48192331Y-7943796D01*
X48290580Y-7870247D01*
X48348495Y-7850510D01*
X48349909Y-7850500D01*
X50452525Y-7850500D01*
X50597475Y-7850500D01*
X53952525Y-7850500D01*
X57250500Y-7850500D01*
X57308691Y-7869407D01*
X57344655Y-7918907D01*
X57349500Y-7949500D01*
X57349500Y-8400500D01*
X57330593Y-8458691D01*
X57281093Y-8494655D01*
X57250500Y-8499500D01*
X56880252Y-8499500D01*
X56880251Y-8499500D01*
X56880241Y-8499501D01*
X56821772Y-8511132D01*
X56821766Y-8511134D01*
X56755002Y-8555746D01*
X56696114Y-8572355D01*
X56644998Y-8555746D01*
X56578233Y-8511134D01*
X56578231Y-8511133D01*
X56578228Y-8511132D01*
X56578227Y-8511132D01*
X56519758Y-8499501D01*
X56519748Y-8499500D01*
X56080252Y-8499500D01*
X56080251Y-8499500D01*
X56080241Y-8499501D01*
X56021772Y-8511132D01*
X56021766Y-8511134D01*
X55955002Y-8555746D01*
X55896114Y-8572355D01*
X55844998Y-8555746D01*
X55778233Y-8511134D01*
X55778231Y-8511133D01*
X55778228Y-8511132D01*
X55778227Y-8511132D01*
X55719758Y-8499501D01*
X55719748Y-8499500D01*
X55280252Y-8499500D01*
X55280251Y-8499500D01*
X55280241Y-8499501D01*
X55221772Y-8511132D01*
X55221766Y-8511134D01*
X55155002Y-8555746D01*
X55096114Y-8572355D01*
X55044998Y-8555746D01*
X54978233Y-8511134D01*
X54978231Y-8511133D01*
X54978228Y-8511132D01*
X54978227Y-8511132D01*
X54919758Y-8499501D01*
X54919748Y-8499500D01*
X54480252Y-8499500D01*
X54480251Y-8499500D01*
X54480241Y-8499501D01*
X54421772Y-8511132D01*
X54421766Y-8511134D01*
X54355002Y-8555746D01*
X54296114Y-8572355D01*
X54244998Y-8555746D01*
X54178233Y-8511134D01*
X54178231Y-8511133D01*
X54178228Y-8511132D01*
X54178227Y-8511132D01*
X54119758Y-8499501D01*
X54119748Y-8499500D01*
X53680252Y-8499500D01*
X53680251Y-8499500D01*
X53680241Y-8499501D01*
X53621772Y-8511132D01*
X53621766Y-8511134D01*
X53555002Y-8555746D01*
X53496114Y-8572355D01*
X53444998Y-8555746D01*
X53378233Y-8511134D01*
X53378231Y-8511133D01*
X53378228Y-8511132D01*
X53378227Y-8511132D01*
X53319758Y-8499501D01*
X53319748Y-8499500D01*
X52880252Y-8499500D01*
X52880251Y-8499500D01*
X52880241Y-8499501D01*
X52821772Y-8511132D01*
X52821766Y-8511134D01*
X52755002Y-8555746D01*
X52696114Y-8572355D01*
X52644998Y-8555746D01*
X52578233Y-8511134D01*
X52578231Y-8511133D01*
X52578228Y-8511132D01*
X52578227Y-8511132D01*
X52519758Y-8499501D01*
X52519748Y-8499500D01*
X52080252Y-8499500D01*
X52080251Y-8499500D01*
X52080241Y-8499501D01*
X52021772Y-8511132D01*
X52021766Y-8511134D01*
X51955451Y-8555445D01*
X51955445Y-8555451D01*
X51911134Y-8621766D01*
X51911132Y-8621772D01*
X51899501Y-8680241D01*
X51899500Y-8680253D01*
X51899500Y-9519746D01*
X51899501Y-9519758D01*
X51911132Y-9578227D01*
X51911134Y-9578233D01*
X51955248Y-9644253D01*
X51955448Y-9644552D01*
X52021769Y-9688867D01*
X52066231Y-9697711D01*
X52080241Y-9700498D01*
X52080246Y-9700498D01*
X52080252Y-9700500D01*
X52080253Y-9700500D01*
X52519747Y-9700500D01*
X52519748Y-9700500D01*
X52578231Y-9688867D01*
X52644552Y-9644552D01*
X52644553Y-9644549D01*
X52644997Y-9644253D01*
X52703885Y-9627644D01*
X52755003Y-9644253D01*
X52755446Y-9644549D01*
X52755448Y-9644552D01*
X52821769Y-9688867D01*
X52866231Y-9697711D01*
X52880241Y-9700498D01*
X52880246Y-9700498D01*
X52880252Y-9700500D01*
X52880253Y-9700500D01*
X53319747Y-9700500D01*
X53319748Y-9700500D01*
X53378231Y-9688867D01*
X53444552Y-9644552D01*
X53444553Y-9644549D01*
X53444997Y-9644253D01*
X53503885Y-9627644D01*
X53555003Y-9644253D01*
X53555446Y-9644549D01*
X53555448Y-9644552D01*
X53621769Y-9688867D01*
X53666231Y-9697711D01*
X53680241Y-9700498D01*
X53680246Y-9700498D01*
X53680252Y-9700500D01*
X53680253Y-9700500D01*
X54119747Y-9700500D01*
X54119748Y-9700500D01*
X54178231Y-9688867D01*
X54244552Y-9644552D01*
X54244553Y-9644549D01*
X54244997Y-9644253D01*
X54303885Y-9627644D01*
X54355003Y-9644253D01*
X54355446Y-9644549D01*
X54355448Y-9644552D01*
X54421769Y-9688867D01*
X54466231Y-9697711D01*
X54480241Y-9700498D01*
X54480246Y-9700498D01*
X54480252Y-9700500D01*
X54480253Y-9700500D01*
X54919747Y-9700500D01*
X54919748Y-9700500D01*
X54978231Y-9688867D01*
X55044552Y-9644552D01*
X55044553Y-9644549D01*
X55044997Y-9644253D01*
X55103885Y-9627644D01*
X55155003Y-9644253D01*
X55155446Y-9644549D01*
X55155448Y-9644552D01*
X55221769Y-9688867D01*
X55266231Y-9697711D01*
X55280241Y-9700498D01*
X55280246Y-9700498D01*
X55280252Y-9700500D01*
X55280253Y-9700500D01*
X55719747Y-9700500D01*
X55719748Y-9700500D01*
X55778231Y-9688867D01*
X55844552Y-9644552D01*
X55844553Y-9644549D01*
X55844997Y-9644253D01*
X55903885Y-9627644D01*
X55955003Y-9644253D01*
X55955446Y-9644549D01*
X55955448Y-9644552D01*
X56021769Y-9688867D01*
X56066231Y-9697711D01*
X56080241Y-9700498D01*
X56080246Y-9700498D01*
X56080252Y-9700500D01*
X56080253Y-9700500D01*
X56519747Y-9700500D01*
X56519748Y-9700500D01*
X56578231Y-9688867D01*
X56644552Y-9644552D01*
X56644553Y-9644549D01*
X56644997Y-9644253D01*
X56703885Y-9627644D01*
X56755003Y-9644253D01*
X56755446Y-9644549D01*
X56755448Y-9644552D01*
X56821769Y-9688867D01*
X56866231Y-9697711D01*
X56880241Y-9700498D01*
X56880246Y-9700498D01*
X56880252Y-9700500D01*
X56880253Y-9700500D01*
X57319747Y-9700500D01*
X57319748Y-9700500D01*
X57378231Y-9688867D01*
X57444552Y-9644552D01*
X57444553Y-9644549D01*
X57444997Y-9644253D01*
X57503885Y-9627644D01*
X57555003Y-9644253D01*
X57555446Y-9644549D01*
X57555448Y-9644552D01*
X57621769Y-9688867D01*
X57666231Y-9697711D01*
X57680241Y-9700498D01*
X57680246Y-9700498D01*
X57680252Y-9700500D01*
X57680253Y-9700500D01*
X58119747Y-9700500D01*
X58119748Y-9700500D01*
X58178231Y-9688867D01*
X58244552Y-9644552D01*
X58288867Y-9578231D01*
X58300500Y-9519748D01*
X58300500Y-9519031D01*
X58300601Y-9518719D01*
X58300976Y-9514912D01*
X58301811Y-9514994D01*
X58319407Y-9460840D01*
X58329490Y-9449033D01*
X58340509Y-9438015D01*
X58347735Y-9425500D01*
X58412982Y-9312489D01*
X58412982Y-9312487D01*
X58412984Y-9312485D01*
X58450500Y-9172475D01*
X58450500Y-7949500D01*
X58469407Y-7891309D01*
X58518907Y-7855345D01*
X58549500Y-7850500D01*
X61047474Y-7850500D01*
X61047475Y-7850500D01*
X61187485Y-7812984D01*
X61187487Y-7812982D01*
X61187489Y-7812982D01*
X61313010Y-7740512D01*
X61313010Y-7740511D01*
X61313015Y-7740509D01*
X61415509Y-7638015D01*
X61433137Y-7607483D01*
X61487982Y-7512489D01*
X61487982Y-7512487D01*
X61487984Y-7512485D01*
X61525500Y-7372475D01*
X61525500Y-6591312D01*
X61544407Y-6533121D01*
X61544711Y-6532706D01*
X61577793Y-6487882D01*
X61622646Y-6359699D01*
X61625499Y-6329273D01*
X61625500Y-6329273D01*
X61625500Y-5670727D01*
X61625499Y-5670725D01*
X61974500Y-5670725D01*
X61974500Y-6329274D01*
X61977353Y-6359694D01*
X61977355Y-6359703D01*
X62022207Y-6487883D01*
X62102845Y-6597144D01*
X62102847Y-6597146D01*
X62102850Y-6597150D01*
X62102853Y-6597152D01*
X62102855Y-6597154D01*
X62212116Y-6677792D01*
X62212117Y-6677792D01*
X62212118Y-6677793D01*
X62340301Y-6722646D01*
X62370725Y-6725499D01*
X62370727Y-6725500D01*
X62370734Y-6725500D01*
X62879273Y-6725500D01*
X62879273Y-6725499D01*
X62909699Y-6722646D01*
X63037882Y-6677793D01*
X63147150Y-6597150D01*
X63227793Y-6487882D01*
X63272646Y-6359699D01*
X63275499Y-6329273D01*
X63275500Y-6329273D01*
X63275500Y-5670727D01*
X63275499Y-5670725D01*
X63274680Y-5661989D01*
X63272646Y-5640301D01*
X63227793Y-5512118D01*
X63193441Y-5465573D01*
X63147154Y-5402855D01*
X63147152Y-5402853D01*
X63147150Y-5402850D01*
X63147146Y-5402847D01*
X63147144Y-5402845D01*
X63037883Y-5322207D01*
X62909703Y-5277355D01*
X62909694Y-5277353D01*
X62879274Y-5274500D01*
X62879266Y-5274500D01*
X62370734Y-5274500D01*
X62370725Y-5274500D01*
X62340305Y-5277353D01*
X62340296Y-5277355D01*
X62212116Y-5322207D01*
X62102855Y-5402845D01*
X62102845Y-5402855D01*
X62022207Y-5512116D01*
X61977355Y-5640296D01*
X61977353Y-5640305D01*
X61974500Y-5670725D01*
X61625499Y-5670725D01*
X61624680Y-5661989D01*
X61622646Y-5640301D01*
X61577793Y-5512118D01*
X61543441Y-5465573D01*
X61497154Y-5402855D01*
X61497152Y-5402853D01*
X61497150Y-5402850D01*
X61497146Y-5402847D01*
X61497144Y-5402845D01*
X61387883Y-5322207D01*
X61259703Y-5277355D01*
X61259694Y-5277353D01*
X61229274Y-5274500D01*
X61229266Y-5274500D01*
X60720734Y-5274500D01*
X60720725Y-5274500D01*
X60690305Y-5277353D01*
X60690296Y-5277355D01*
X60562116Y-5322207D01*
X60452855Y-5402845D01*
X60452845Y-5402855D01*
X60372207Y-5512116D01*
X60327355Y-5640296D01*
X60327353Y-5640305D01*
X60324500Y-5670725D01*
X60324500Y-6329274D01*
X60327353Y-6359694D01*
X60327355Y-6359703D01*
X60372206Y-6487881D01*
X60379335Y-6497540D01*
X60405154Y-6532524D01*
X60424497Y-6590570D01*
X60424500Y-6591312D01*
X60424500Y-6650500D01*
X60405593Y-6708691D01*
X60356093Y-6744655D01*
X60325500Y-6749500D01*
X58167829Y-6749500D01*
X58109638Y-6730593D01*
X58073674Y-6681093D01*
X58073674Y-6619907D01*
X58088575Y-6591172D01*
X58092101Y-6586462D01*
X58171628Y-6480226D01*
X58219412Y-6352114D01*
X58225500Y-6295485D01*
X58225499Y-5704516D01*
X58219412Y-5647886D01*
X58171628Y-5519774D01*
X58089687Y-5410313D01*
X58009786Y-5350500D01*
X57980228Y-5328373D01*
X57980226Y-5328372D01*
X57852114Y-5280588D01*
X57852113Y-5280587D01*
X57813895Y-5276479D01*
X57795485Y-5274500D01*
X57795481Y-5274500D01*
X57254521Y-5274500D01*
X57254515Y-5274501D01*
X57197888Y-5280587D01*
X57197886Y-5280588D01*
X57069774Y-5328372D01*
X57069773Y-5328372D01*
X57069772Y-5328373D01*
X56960315Y-5410311D01*
X56960311Y-5410315D01*
X56878373Y-5519771D01*
X56830587Y-5647887D01*
X56826115Y-5689485D01*
X56825037Y-5699525D01*
X56824500Y-5704518D01*
X56824500Y-6295478D01*
X56824501Y-6295484D01*
X56830587Y-6352111D01*
X56830587Y-6352112D01*
X56830588Y-6352114D01*
X56878372Y-6480226D01*
X56955604Y-6583397D01*
X56961425Y-6591172D01*
X56981161Y-6649086D01*
X56963086Y-6707541D01*
X56914105Y-6744208D01*
X56882171Y-6749500D01*
X54674500Y-6749500D01*
X54616309Y-6730593D01*
X54580345Y-6681093D01*
X54575500Y-6650500D01*
X54575500Y-6641588D01*
X54594407Y-6583397D01*
X54595247Y-6582259D01*
X54612856Y-6558736D01*
X54671628Y-6480226D01*
X54719412Y-6352114D01*
X54725500Y-6295485D01*
X54725499Y-5704516D01*
X54719412Y-5647886D01*
X54671628Y-5519774D01*
X54589687Y-5410313D01*
X54509786Y-5350500D01*
X54480228Y-5328373D01*
X54480226Y-5328372D01*
X54352114Y-5280588D01*
X54352113Y-5280587D01*
X54313895Y-5276479D01*
X54295485Y-5274500D01*
X54295481Y-5274500D01*
X53754521Y-5274500D01*
X53754515Y-5274501D01*
X53697888Y-5280587D01*
X53697886Y-5280588D01*
X53569774Y-5328372D01*
X53569773Y-5328372D01*
X53569772Y-5328373D01*
X53460315Y-5410311D01*
X53460311Y-5410315D01*
X53378373Y-5519771D01*
X53330587Y-5647887D01*
X53326115Y-5689485D01*
X53325037Y-5699525D01*
X53324500Y-5704518D01*
X53324500Y-6295478D01*
X53324501Y-6295484D01*
X53330587Y-6352111D01*
X53330587Y-6352112D01*
X53330588Y-6352114D01*
X53333417Y-6359699D01*
X53378373Y-6480228D01*
X53380785Y-6483450D01*
X53434285Y-6554918D01*
X53454753Y-6582259D01*
X53474490Y-6640174D01*
X53474500Y-6641588D01*
X53474500Y-6650500D01*
X53455593Y-6708691D01*
X53406093Y-6744655D01*
X53375500Y-6749500D01*
X51174500Y-6749500D01*
X51116309Y-6730593D01*
X51080345Y-6681093D01*
X51075500Y-6650500D01*
X51075500Y-6641588D01*
X51094407Y-6583397D01*
X51095247Y-6582259D01*
X51112856Y-6558736D01*
X51171628Y-6480226D01*
X51219412Y-6352114D01*
X51225500Y-6295485D01*
X51225499Y-5704516D01*
X51219412Y-5647886D01*
X51171628Y-5519774D01*
X51089687Y-5410313D01*
X51009786Y-5350500D01*
X50980228Y-5328373D01*
X50980226Y-5328372D01*
X50852114Y-5280588D01*
X50852113Y-5280587D01*
X50813895Y-5276479D01*
X50795485Y-5274500D01*
X50795481Y-5274500D01*
X50254521Y-5274500D01*
X50254515Y-5274501D01*
X50197888Y-5280587D01*
X50197886Y-5280588D01*
X50069774Y-5328372D01*
X50069773Y-5328372D01*
X50069772Y-5328373D01*
X49960315Y-5410311D01*
X49960311Y-5410315D01*
X49878373Y-5519771D01*
X49830587Y-5647887D01*
X49826115Y-5689485D01*
X49825037Y-5699525D01*
X49824500Y-5704518D01*
X49824500Y-6295478D01*
X49824501Y-6295484D01*
X49830587Y-6352111D01*
X49830587Y-6352112D01*
X49830588Y-6352114D01*
X49833417Y-6359699D01*
X49878373Y-6480228D01*
X49880785Y-6483450D01*
X49934285Y-6554918D01*
X49954753Y-6582259D01*
X49974490Y-6640174D01*
X49974500Y-6641588D01*
X49974500Y-6650500D01*
X49955593Y-6708691D01*
X49906093Y-6744655D01*
X49875500Y-6749500D01*
X48549500Y-6749500D01*
X48491309Y-6730593D01*
X48455345Y-6681093D01*
X48450500Y-6650500D01*
X48450499Y-4452133D01*
X48450499Y-4452128D01*
X48444091Y-4392517D01*
X48415967Y-4317112D01*
X48393797Y-4257670D01*
X48307549Y-4142458D01*
X48307548Y-4142457D01*
X48307546Y-4142454D01*
X48307541Y-4142450D01*
X48192329Y-4056202D01*
X48057488Y-4005910D01*
X48057483Y-4005909D01*
X48057481Y-4005908D01*
X48057477Y-4005908D01*
X48026249Y-4002550D01*
X47997873Y-3999500D01*
X47997870Y-3999500D01*
X46052133Y-3999500D01*
X46052129Y-3999500D01*
X46052128Y-3999501D01*
X46044949Y-4000272D01*
X45992519Y-4005908D01*
X45992514Y-4005909D01*
X45857670Y-4056202D01*
X45742458Y-4142450D01*
X45742450Y-4142458D01*
X45656202Y-4257670D01*
X45605910Y-4392511D01*
X45605908Y-4392522D01*
X45604621Y-4404496D01*
X45599500Y-4452127D01*
X45599500Y-5670734D01*
X45599501Y-6800500D01*
X45580594Y-6858691D01*
X45531094Y-6894655D01*
X45500501Y-6899500D01*
X45052727Y-6899500D01*
X44947273Y-6899500D01*
X44845413Y-6926793D01*
X44845412Y-6926793D01*
X44845410Y-6926794D01*
X44845409Y-6926794D01*
X44754089Y-6979518D01*
X44679518Y-7054089D01*
X44626794Y-7145409D01*
X44626794Y-7145410D01*
X44626793Y-7145412D01*
X44626793Y-7145413D01*
X44610163Y-7207480D01*
X44599500Y-7247274D01*
X44599500Y-9350500D01*
X44580593Y-9408691D01*
X44531093Y-9444655D01*
X44500500Y-9449500D01*
X42243923Y-9449500D01*
X42238158Y-9449332D01*
X42184708Y-9446213D01*
X42184702Y-9446214D01*
X42178681Y-9447457D01*
X42158674Y-9449500D01*
X42152522Y-9449500D01*
X42100805Y-9463357D01*
X42095197Y-9464686D01*
X42042748Y-9475511D01*
X42037247Y-9478274D01*
X42018460Y-9485422D01*
X42012521Y-9487013D01*
X42012509Y-9487018D01*
X41966146Y-9513786D01*
X41961071Y-9516522D01*
X41913210Y-9540553D01*
X41913209Y-9540554D01*
X41908606Y-9544650D01*
X41892312Y-9556414D01*
X41886986Y-9559489D01*
X41849123Y-9597351D01*
X41844931Y-9601305D01*
X41804928Y-9636899D01*
X41804922Y-9636907D01*
X41801539Y-9642049D01*
X41788848Y-9657626D01*
X41784491Y-9661983D01*
X41757716Y-9708357D01*
X41754691Y-9713260D01*
X41725260Y-9758000D01*
X41723322Y-9763848D01*
X41715092Y-9782186D01*
X41712018Y-9787509D01*
X41712014Y-9787520D01*
X41698158Y-9839229D01*
X41696505Y-9844750D01*
X41679655Y-9895588D01*
X41679654Y-9895591D01*
X41679296Y-9901736D01*
X41676093Y-9921578D01*
X41674500Y-9927523D01*
X41674500Y-9981075D01*
X41674332Y-9986840D01*
X41554587Y-12039593D01*
X41532323Y-12096584D01*
X41515085Y-12113080D01*
X41442459Y-12167449D01*
X41442449Y-12167459D01*
X41416790Y-12201735D01*
X41366781Y-12236987D01*
X41312497Y-12238186D01*
X41251377Y-12222207D01*
X40231208Y-11955496D01*
X38874458Y-11600790D01*
X38822942Y-11567779D01*
X38800668Y-11510792D01*
X38800499Y-11505042D01*
X38800499Y-10477128D01*
X38794091Y-10417517D01*
X38779932Y-10379554D01*
X38741322Y-10276034D01*
X38743584Y-10275190D01*
X38734313Y-10225875D01*
X38760511Y-10170582D01*
X38762461Y-10168575D01*
X38800475Y-10130562D01*
X38849910Y-10044938D01*
X38875500Y-9949435D01*
X38875500Y-5000565D01*
X38849910Y-4905062D01*
X38849908Y-4905059D01*
X38849908Y-4905057D01*
X38800476Y-4819440D01*
X38800475Y-4819438D01*
X38730562Y-4749525D01*
X38718308Y-4742450D01*
X38644941Y-4700091D01*
X38644943Y-4700091D01*
X38585307Y-4684112D01*
X38549435Y-4674500D01*
X38549433Y-4674500D01*
X38031899Y-4674500D01*
X37973708Y-4655593D01*
X37961901Y-4645509D01*
X37888342Y-4571950D01*
X37888339Y-4571948D01*
X37870206Y-4562709D01*
X37826941Y-4519445D01*
X37817370Y-4459013D01*
X37845148Y-4404496D01*
X37899664Y-4376719D01*
X37915151Y-4375500D01*
X39450500Y-4375500D01*
X39508691Y-4394407D01*
X39544655Y-4443907D01*
X39549500Y-4474500D01*
X39549500Y-7547866D01*
X39549501Y-7547870D01*
X39555908Y-7607480D01*
X39555909Y-7607485D01*
X39606202Y-7742329D01*
X39659093Y-7812982D01*
X39692454Y-7857546D01*
X39692457Y-7857548D01*
X39692458Y-7857549D01*
X39807670Y-7943797D01*
X39942511Y-7994089D01*
X39942512Y-7994089D01*
X39942517Y-7994091D01*
X40002127Y-8000500D01*
X41947872Y-8000499D01*
X42007483Y-7994091D01*
X42127038Y-7949500D01*
X42142329Y-7943797D01*
X42142329Y-7943796D01*
X42142331Y-7943796D01*
X42257546Y-7857546D01*
X42343796Y-7742331D01*
X42344475Y-7740512D01*
X42394089Y-7607488D01*
X42394090Y-7607485D01*
X42394091Y-7607483D01*
X42400500Y-7547873D01*
X42400499Y-4452128D01*
X42394091Y-4392517D01*
X42381741Y-4359406D01*
X42375500Y-4324810D01*
X42375500Y-3950566D01*
X42375500Y-3950565D01*
X42349910Y-3855062D01*
X42349908Y-3855059D01*
X42349908Y-3855057D01*
X42300476Y-3769440D01*
X42300475Y-3769438D01*
X42230562Y-3699525D01*
X42219574Y-3693181D01*
X42144941Y-3650091D01*
X42144943Y-3650091D01*
X42107885Y-3640161D01*
X42049435Y-3624500D01*
X36049435Y-3624500D01*
X35950565Y-3624500D01*
X35892114Y-3640161D01*
X35855057Y-3650091D01*
X35769440Y-3699523D01*
X35699523Y-3769440D01*
X35650091Y-3855057D01*
X35624500Y-3950566D01*
X35624500Y-5368446D01*
X35605593Y-5426637D01*
X35556093Y-5462601D01*
X35508471Y-5462601D01*
X35508000Y-5465573D01*
X35406521Y-5449500D01*
X34318478Y-5449500D01*
X34318476Y-5449501D01*
X34224700Y-5464352D01*
X34224695Y-5464354D01*
X34111659Y-5521949D01*
X34111658Y-5521949D01*
X34111658Y-5521950D01*
X34038102Y-5595505D01*
X33983588Y-5623281D01*
X33968101Y-5624500D01*
X33849435Y-5624500D01*
X33750565Y-5624500D01*
X33692114Y-5640161D01*
X33655057Y-5650091D01*
X33569440Y-5699523D01*
X33499523Y-5769440D01*
X33450091Y-5855057D01*
X33450090Y-5855062D01*
X33424500Y-5950565D01*
X27350499Y-5950565D01*
X27350499Y-5591710D01*
X27360657Y-5548030D01*
X27376135Y-5516551D01*
X28484467Y-3262314D01*
X28487561Y-3256517D01*
X28512984Y-3212485D01*
X28515287Y-3203889D01*
X28522069Y-3185837D01*
X28525995Y-3177854D01*
X28535858Y-3127957D01*
X28537337Y-3121597D01*
X28550500Y-3072475D01*
X28550500Y-3063576D01*
X28552379Y-3044380D01*
X28554104Y-3035656D01*
X28550720Y-2984954D01*
X28550500Y-2978361D01*
X28550500Y-2927524D01*
X28548197Y-2918932D01*
X28545043Y-2899904D01*
X28544451Y-2891028D01*
X28528055Y-2842916D01*
X28526147Y-2836640D01*
X28512984Y-2787515D01*
X28508534Y-2779808D01*
X28500564Y-2762243D01*
X28497698Y-2753833D01*
X28497697Y-2753832D01*
X28497696Y-2753828D01*
X28469402Y-2711592D01*
X28465929Y-2706013D01*
X28457139Y-2690790D01*
X28440509Y-2661985D01*
X28440507Y-2661983D01*
X28434215Y-2655690D01*
X28421972Y-2640789D01*
X28417023Y-2633402D01*
X28417020Y-2633399D01*
X28378772Y-2599936D01*
X28373956Y-2595431D01*
X28338016Y-2559491D01*
X28330306Y-2555040D01*
X28314623Y-2543814D01*
X28307936Y-2537963D01*
X28307932Y-2537961D01*
X28307931Y-2537960D01*
X28278025Y-2523256D01*
X28262328Y-2515538D01*
X28256511Y-2512433D01*
X28212487Y-2487016D01*
X28212485Y-2487015D01*
X28203888Y-2484712D01*
X28185836Y-2477930D01*
X28177853Y-2474005D01*
X28177854Y-2474005D01*
X28166912Y-2471842D01*
X28127982Y-2464146D01*
X28121580Y-2462657D01*
X28093129Y-2455034D01*
X28072475Y-2449500D01*
X28072474Y-2449500D01*
X28063579Y-2449500D01*
X28044381Y-2447621D01*
X28035655Y-2445896D01*
X28035654Y-2445896D01*
X27984953Y-2449280D01*
X27978360Y-2449500D01*
X19051097Y-2449500D01*
X19035614Y-2448282D01*
X19014504Y-2444939D01*
X18976307Y-2448957D01*
X18965953Y-2449500D01*
X18927525Y-2449500D01*
X18906870Y-2455034D01*
X18891609Y-2457863D01*
X18870350Y-2460099D01*
X18870346Y-2460100D01*
X18834493Y-2473865D01*
X18824637Y-2477068D01*
X18787517Y-2487015D01*
X18787514Y-2487016D01*
X18768995Y-2497707D01*
X18754991Y-2504387D01*
X18735037Y-2512049D01*
X18735029Y-2512053D01*
X18703955Y-2534632D01*
X18695263Y-2540277D01*
X18661984Y-2559491D01*
X18646868Y-2574606D01*
X18635066Y-2584686D01*
X18617776Y-2597249D01*
X18617768Y-2597257D01*
X18593588Y-2627119D01*
X18586656Y-2634818D01*
X18559491Y-2661984D01*
X18548798Y-2680503D01*
X18540009Y-2693292D01*
X18526556Y-2709908D01*
X18526555Y-2709908D01*
X18510930Y-2745007D01*
X18506226Y-2754239D01*
X18487016Y-2787514D01*
X18487015Y-2787516D01*
X18481484Y-2808158D01*
X18476302Y-2822792D01*
X18467607Y-2842323D01*
X18461597Y-2880281D01*
X18459442Y-2890416D01*
X18449500Y-2927521D01*
X18449500Y-2948896D01*
X18448282Y-2964378D01*
X18234098Y-4317112D01*
X18206323Y-4371630D01*
X18151808Y-4399410D01*
X18146898Y-4400063D01*
X18092518Y-4405908D01*
X18092514Y-4405909D01*
X17957670Y-4456202D01*
X17842458Y-4542450D01*
X17842450Y-4542458D01*
X17756202Y-4657670D01*
X17705910Y-4792511D01*
X17705908Y-4792522D01*
X17699500Y-4852129D01*
X17699500Y-5350500D01*
X17680593Y-5408691D01*
X17631093Y-5444655D01*
X17600500Y-5449500D01*
X16749499Y-5449500D01*
X16691308Y-5430593D01*
X16655344Y-5381093D01*
X16650499Y-5350500D01*
X16650499Y-5052133D01*
X16650499Y-5052128D01*
X16644091Y-4992517D01*
X16644089Y-4992511D01*
X16593797Y-4857670D01*
X16507549Y-4742458D01*
X16507548Y-4742457D01*
X16507546Y-4742454D01*
X16507541Y-4742450D01*
X16392329Y-4656202D01*
X16257488Y-4605910D01*
X16257483Y-4605909D01*
X16257481Y-4605908D01*
X16257477Y-4605908D01*
X16226249Y-4602550D01*
X16197873Y-4599500D01*
X16197870Y-4599500D01*
X14102133Y-4599500D01*
X14102129Y-4599500D01*
X14102128Y-4599501D01*
X14094949Y-4600272D01*
X14042519Y-4605908D01*
X14042514Y-4605909D01*
X13907670Y-4656202D01*
X13792458Y-4742450D01*
X13792450Y-4742458D01*
X13706202Y-4857670D01*
X13655910Y-4992511D01*
X13655908Y-4992522D01*
X13649500Y-5052129D01*
X12350499Y-5052129D01*
X12350499Y-5052128D01*
X12344091Y-4992517D01*
X12344089Y-4992511D01*
X12293797Y-4857670D01*
X12207549Y-4742458D01*
X12207548Y-4742457D01*
X12207546Y-4742454D01*
X12207541Y-4742450D01*
X12092329Y-4656202D01*
X11957488Y-4605910D01*
X11957483Y-4605909D01*
X11957481Y-4605908D01*
X11957477Y-4605908D01*
X11926249Y-4602550D01*
X11897873Y-4599500D01*
X11897870Y-4599500D01*
X9802133Y-4599500D01*
X9802129Y-4599500D01*
X9802128Y-4599501D01*
X9794949Y-4600272D01*
X9742519Y-4605908D01*
X9742514Y-4605909D01*
X9607670Y-4656202D01*
X9492458Y-4742450D01*
X9492450Y-4742458D01*
X9406202Y-4857670D01*
X9355910Y-4992511D01*
X9355908Y-4992522D01*
X9349500Y-5052129D01*
X9349500Y-5350500D01*
X9330593Y-5408691D01*
X9281093Y-5444655D01*
X9250500Y-5449500D01*
X7921700Y-5449500D01*
X7863509Y-5430593D01*
X7842447Y-5409829D01*
X7841474Y-5408530D01*
X7841472Y-5408529D01*
X7841472Y-5408528D01*
X7787461Y-5368096D01*
X7733448Y-5327662D01*
X7607027Y-5280510D01*
X7607022Y-5280509D01*
X7607020Y-5280508D01*
X7607016Y-5280508D01*
X7577676Y-5277354D01*
X7551130Y-5274500D01*
X7023870Y-5274500D01*
X6997333Y-5277353D01*
X6967983Y-5280508D01*
X6967972Y-5280510D01*
X6841551Y-5327662D01*
X6733531Y-5408525D01*
X6733525Y-5408531D01*
X6652662Y-5516551D01*
X6605510Y-5642972D01*
X6605508Y-5642983D01*
X6599500Y-5698873D01*
X6599500Y-6301126D01*
X6599499Y-6301126D01*
X6400500Y-6301126D01*
X6400500Y-5698870D01*
X6394491Y-5642978D01*
X6387599Y-5624500D01*
X6347337Y-5516551D01*
X6288790Y-5438342D01*
X6266472Y-5408528D01*
X6212929Y-5368446D01*
X6158448Y-5327662D01*
X6032027Y-5280510D01*
X6032022Y-5280509D01*
X6032020Y-5280508D01*
X6032016Y-5280508D01*
X6002676Y-5277354D01*
X5976130Y-5274500D01*
X5448870Y-5274500D01*
X5422333Y-5277353D01*
X5392983Y-5280508D01*
X5392972Y-5280510D01*
X5266551Y-5327662D01*
X5158525Y-5408530D01*
X5157553Y-5409829D01*
X5156445Y-5410609D01*
X5153517Y-5413538D01*
X5153010Y-5413031D01*
X5107544Y-5445082D01*
X5078300Y-5449500D01*
X4072475Y-5449500D01*
X3927525Y-5449500D01*
X3878632Y-5462601D01*
X3787510Y-5487017D01*
X3661989Y-5559487D01*
X3559487Y-5661989D01*
X3487017Y-5787510D01*
X3449500Y-5927525D01*
X3449500Y-8800500D01*
X3430593Y-8858691D01*
X3381093Y-8894655D01*
X3350500Y-8899500D01*
X3125326Y-8899500D01*
X3125325Y-8899500D01*
X3125315Y-8899501D01*
X3052263Y-8914033D01*
X3052257Y-8914035D01*
X2969400Y-8969397D01*
X2969397Y-8969400D01*
X2914035Y-9052257D01*
X2914033Y-9052263D01*
X2899501Y-9125315D01*
X2899500Y-9125327D01*
X1200000Y-9125327D01*
X1200000Y-1299000D01*
X1218907Y-1240809D01*
X1268407Y-1204845D01*
X1299000Y-1200000D01*
X66701000Y-1200000D01*
X66759191Y-1218907D01*
G37*
%TD.AperFunction*%
%TD*%
M02*
