%TF.GenerationSoftware,KiCad,Pcbnew,10.0.5*%
%TF.CreationDate,2026-08-11T02:58:11+03:00*%
%TF.ProjectId,trace-dongle,74726163-652d-4646-9f6e-676c652e6b69,rev?*%
%TF.SameCoordinates,Original*%
%TF.FileFunction,Other,User*%
%FSLAX46Y46*%
G04 Gerber Fmt 4.6, Leading zero omitted, Abs format (unit mm)*
G04 Created by KiCad (PCBNEW 10.0.5) date 2026-08-11 02:58:11*
%MOMM*%
%LPD*%
G01*
G04 APERTURE LIST*
%ADD10C,0.050000*%
G04 APERTURE END LIST*
%TO.C,F1*%
D10*
X6920000Y-5270000D02*
X9880000Y-5270000D01*
X9880000Y-6730000D01*
X6920000Y-6730000D01*
X6920000Y-5270000D01*
%TO.C,R4*%
X23270000Y-13520000D02*
X24730000Y-13520000D01*
X24730000Y-16480000D01*
X23270000Y-16480000D01*
X23270000Y-13520000D01*
%TO.C,D1*%
X8950000Y-8750000D02*
X16250000Y-8750000D01*
X8950000Y-13250000D02*
X8950000Y-8750000D01*
X16250000Y-8750000D02*
X16250000Y-13250000D01*
X16250000Y-13250000D02*
X8950000Y-13250000D01*
%TO.C,J2*%
X38430000Y-20230000D02*
X54670000Y-20230000D01*
X54670000Y-23770000D01*
X38430000Y-23770000D01*
X38430000Y-20230000D01*
%TO.C,U2*%
X6300000Y-15040000D02*
X7800000Y-15040000D01*
X6300000Y-19960000D02*
X6300000Y-15040000D01*
X7800000Y-14800000D02*
X12200000Y-14800000D01*
X7800000Y-15040000D02*
X7800000Y-14800000D01*
X7800000Y-19960000D02*
X6300000Y-19960000D01*
X7800000Y-20200000D02*
X7800000Y-19960000D01*
X12200000Y-14800000D02*
X12200000Y-15040000D01*
X12200000Y-15040000D02*
X13700000Y-15040000D01*
X12200000Y-19960000D02*
X12200000Y-20200000D01*
X12200000Y-20200000D02*
X7800000Y-20200000D01*
X13700000Y-15040000D02*
X13700000Y-19960000D01*
X13700000Y-19960000D02*
X12200000Y-19960000D01*
%TO.C,R7*%
X31770000Y-18020000D02*
X33230000Y-18020000D01*
X33230000Y-20980000D01*
X31770000Y-20980000D01*
X31770000Y-18020000D01*
%TO.C,SW1*%
X22600000Y-23750000D02*
X22600000Y-18250000D01*
X30400000Y-18250000D02*
X22600000Y-18250000D01*
X30400000Y-23750000D02*
X22600000Y-23750000D01*
X30400000Y-23750000D02*
X30400000Y-18250000D01*
%TO.C,C4*%
X27520000Y-14270000D02*
X30480000Y-14270000D01*
X30480000Y-15730000D01*
X27520000Y-15730000D01*
X27520000Y-14270000D01*
%TO.C,C9*%
X5020000Y-12270000D02*
X7980000Y-12270000D01*
X7980000Y-13730000D01*
X5020000Y-13730000D01*
X5020000Y-12270000D01*
%TO.C,C3*%
X27520000Y-10770000D02*
X30480000Y-10770000D01*
X30480000Y-12230000D01*
X27520000Y-12230000D01*
X27520000Y-10770000D01*
%TO.C,C6*%
X18520000Y-470000D02*
X21480000Y-470000D01*
X21480000Y-1930000D01*
X18520000Y-1930000D01*
X18520000Y-470000D01*
%TO.C,R2*%
X33270000Y-13520000D02*
X34730000Y-13520000D01*
X34730000Y-16480000D01*
X33270000Y-16480000D01*
X33270000Y-13520000D01*
%TO.C,R1*%
X33270000Y-10020000D02*
X34730000Y-10020000D01*
X34730000Y-12980000D01*
X33270000Y-12980000D01*
X33270000Y-10020000D01*
%TO.C,R5*%
X3520000Y-21270000D02*
X6480000Y-21270000D01*
X6480000Y-22730000D01*
X3520000Y-22730000D01*
X3520000Y-21270000D01*
%TO.C,U3*%
X25450000Y-4500000D02*
X26450000Y-4500000D01*
X25450000Y-7500000D02*
X25450000Y-4500000D01*
X26450000Y-4300000D02*
X28550000Y-4300000D01*
X26450000Y-4500000D02*
X26450000Y-4300000D01*
X26450000Y-7500000D02*
X25450000Y-7500000D01*
X26450000Y-7700000D02*
X26450000Y-7500000D01*
X28550000Y-4300000D02*
X28550000Y-4500000D01*
X28550000Y-4500000D02*
X29550000Y-4500000D01*
X28550000Y-7500000D02*
X28550000Y-7700000D01*
X28550000Y-7700000D02*
X26450000Y-7700000D01*
X29550000Y-4500000D02*
X29550000Y-7500000D01*
X29550000Y-7500000D02*
X28550000Y-7500000D01*
%TO.C,C1*%
X18520000Y-5270000D02*
X21480000Y-5270000D01*
X21480000Y-6730000D01*
X18520000Y-6730000D01*
X18520000Y-5270000D01*
%TO.C,L1*%
X30550000Y-4000000D02*
X31350000Y-4000000D01*
X30550000Y-8000000D02*
X30550000Y-4000000D01*
X31350000Y-2450000D02*
X38650000Y-2450000D01*
X31350000Y-4000000D02*
X31350000Y-2450000D01*
X31350000Y-8000000D02*
X30550000Y-8000000D01*
X31350000Y-9550000D02*
X31350000Y-8000000D01*
X38650000Y-2450000D02*
X38650000Y-4000000D01*
X38650000Y-4000000D02*
X39450000Y-4000000D01*
X38650000Y-8000000D02*
X38650000Y-9550000D01*
X38650000Y-9550000D02*
X31350000Y-9550000D01*
X39450000Y-4000000D02*
X39450000Y-8000000D01*
X39450000Y-8000000D02*
X38650000Y-8000000D01*
%TO.C,C7*%
X23520000Y-470000D02*
X26480000Y-470000D01*
X26480000Y-1930000D01*
X23520000Y-1930000D01*
X23520000Y-470000D01*
%TO.C,LED1*%
X31020000Y-21270000D02*
X33980000Y-21270000D01*
X33980000Y-22730000D01*
X31020000Y-22730000D01*
X31020000Y-21270000D01*
%TO.C,LED2*%
X34620000Y-21270000D02*
X37580000Y-21270000D01*
X37580000Y-22730000D01*
X34620000Y-22730000D01*
X34620000Y-21270000D01*
%TO.C,C8*%
X28520000Y-470000D02*
X31480000Y-470000D01*
X31480000Y-1930000D01*
X28520000Y-1930000D01*
X28520000Y-470000D01*
%TO.C,J1*%
X1230000Y-5650000D02*
X4770000Y-5650000D01*
X4770000Y-19350000D01*
X1230000Y-19350000D01*
X1230000Y-5650000D01*
%TO.C,R6*%
X7520000Y-21270000D02*
X10480000Y-21270000D01*
X10480000Y-22730000D01*
X7520000Y-22730000D01*
X7520000Y-21270000D01*
%TO.C,R3*%
X23270000Y-10020000D02*
X24730000Y-10020000D01*
X24730000Y-12980000D01*
X23270000Y-12980000D01*
X23270000Y-10020000D01*
%TO.C,C2*%
X21820000Y-5270000D02*
X24780000Y-5270000D01*
X24780000Y-6730000D01*
X21820000Y-6730000D01*
X21820000Y-5270000D01*
%TO.C,D3*%
X14570000Y-16000000D02*
X15600000Y-16000000D01*
X14570000Y-17110000D02*
X14570000Y-16000000D01*
X14570000Y-17890000D02*
X15600000Y-17890000D01*
X14570000Y-19000000D02*
X14570000Y-17890000D01*
X15600000Y-15800000D02*
X17400000Y-15800000D01*
X15600000Y-16000000D02*
X15600000Y-15800000D01*
X15600000Y-17110000D02*
X14570000Y-17110000D01*
X15600000Y-17890000D02*
X15600000Y-17110000D01*
X15600000Y-19000000D02*
X14570000Y-19000000D01*
X15600000Y-19200000D02*
X15600000Y-19000000D01*
X17400000Y-15800000D02*
X17400000Y-16950000D01*
X17400000Y-16950000D02*
X18430000Y-16950000D01*
X17400000Y-18050000D02*
X17400000Y-19200000D01*
X17400000Y-19200000D02*
X15600000Y-19200000D01*
X18430000Y-16950000D02*
X18430000Y-18050000D01*
X18430000Y-18050000D02*
X17400000Y-18050000D01*
%TO.C,R9*%
X19020000Y-16770000D02*
X21980000Y-16770000D01*
X21980000Y-18230000D01*
X19020000Y-18230000D01*
X19020000Y-16770000D01*
%TO.C,D2*%
X10850000Y-3750000D02*
X18150000Y-3750000D01*
X10850000Y-8250000D02*
X10850000Y-3750000D01*
X18150000Y-3750000D02*
X18150000Y-8250000D01*
X18150000Y-8250000D02*
X10850000Y-8250000D01*
%TO.C,U1*%
X42500000Y-5500000D02*
X59900000Y-5500000D01*
X42500000Y-19500000D02*
X42500000Y-5500000D01*
X59900000Y-5500000D02*
X59900000Y-19500000D01*
X59900000Y-19500000D02*
X42500000Y-19500000D01*
%TO.C,C5*%
X26020000Y-2270000D02*
X28980000Y-2270000D01*
X28980000Y-3730000D01*
X26020000Y-3730000D01*
X26020000Y-2270000D01*
%TO.C,R8*%
X35370000Y-18020000D02*
X36830000Y-18020000D01*
X36830000Y-20980000D01*
X35370000Y-20980000D01*
X35370000Y-18020000D01*
%TD*%
M02*
