M48
; DRILL file KiCad 10.0.5 date 2026-08-11T07:25:54
; FORMAT={-:-/ absolute / metric / decimal}
; #@! TF.CreationDate,2026-08-11T07:25:54+03:00
; #@! TF.GenerationSoftware,Kicad,Pcbnew,10.0.5
; #@! TF.FileFunction,MixedPlating,1,2
FMAT,2
METRIC
; #@! TA.AperFunction,Plated,PTH,ViaDrill
T1C0.300
; #@! TA.AperFunction,Plated,PTH,ComponentDrill
T2C1.000
; #@! TA.AperFunction,NonPlated,NPTH,ComponentDrill
T3C0.750
%
G90
G05
T1
X8.0Y-15.775
X10.525Y-16.095
X10.525Y-18.635
X10.525Y-18.635
X10.525Y-19.905
X15.475Y-16.095
X15.475Y-18.635
X18.562Y-17.05
X18.562Y-17.05
X19.5Y-20.675
X28.0Y-8.175
X31.8Y-6.95
X34.862Y-6.95
X37.137Y-6.0
X37.137Y-6.95
X38.05Y-11.0
X43.675Y-22.0
X46.0Y-11.175
X48.0Y-20.175
X48.0Y-20.175
X50.6Y-15.0
X50.6Y-15.8
X50.6Y-16.6
X50.6Y-18.2
X52.0Y-24.5
X53.9Y-9.1
X54.025Y-6.0
X56.3Y-20.9
X57.08Y-24.5
X57.525Y-6.0
X57.525Y-6.0
X62.625Y-6.0
X62.625Y-6.0
X64.7Y-24.5
T2
X4.0Y-10.0
X4.0Y-12.54
X4.0Y-15.08
X4.0Y-17.62
X4.0Y-20.16
X52.0Y-24.5
X54.54Y-24.5
X57.08Y-24.5
X59.62Y-24.5
X62.16Y-24.5
X64.7Y-24.5
T3
X46.0Y-25.925
X46.0Y-28.675
M30
