M48
; DRILL file KiCad 10.0.5 date 2026-08-11T04:43:43
; FORMAT={-:-/ absolute / metric / decimal}
; #@! TF.CreationDate,2026-08-11T04:43:43+03:00
; #@! TF.GenerationSoftware,Kicad,Pcbnew,10.0.5
; #@! TF.FileFunction,MixedPlating,1,2
FMAT,2
METRIC
; #@! TA.AperFunction,Plated,PTH,ViaDrill
T1C0.300
; #@! TA.AperFunction,Plated,PTH,ComponentDrill
T2C1.000
%
G90
G05
T1
X8.0Y-15.775
X10.525Y-16.095
X10.525Y-18.635
X10.525Y-18.635
X10.525Y-19.905
X15.475Y-16.095
X15.475Y-18.635
X15.475Y-19.905
X15.475Y-19.905
X18.562Y-17.05
X18.562Y-17.05
X19.5Y-20.675
X25.725Y-4.5
X27.0Y-8.175
X27.0Y-8.175
X27.0Y-9.825
X27.0Y-13.325
X29.862Y-5.05
X32.137Y-6.0
X32.137Y-6.95
X33.225Y-11.0
X43.0Y-20.175
X43.0Y-20.175
X45.6Y-15.0
X45.6Y-15.8
X45.6Y-16.6
X47.0Y-24.5
X48.9Y-9.1
X49.025Y-6.0
X51.3Y-20.9
X52.08Y-24.5
X52.525Y-6.0
X52.525Y-6.0
X57.625Y-6.0
X57.625Y-6.0
X59.7Y-24.5
T2
X4.0Y-10.0
X4.0Y-12.54
X4.0Y-15.08
X4.0Y-17.62
X4.0Y-20.16
X47.0Y-24.5
X49.54Y-24.5
X52.08Y-24.5
X54.62Y-24.5
X57.16Y-24.5
X59.7Y-24.5
M30
