%TF.GenerationSoftware,KiCad,Pcbnew,10.0.5*%
%TF.CreationDate,2026-08-11T02:58:11+03:00*%
%TF.ProjectId,trace-dongle,74726163-652d-4646-9f6e-676c652e6b69,rev?*%
%TF.SameCoordinates,Original*%
%TF.FileFunction,Copper,L1,Top*%
%TF.FilePolarity,Positive*%
%FSLAX46Y46*%
G04 Gerber Fmt 4.6, Leading zero omitted, Abs format (unit mm)*
G04 Created by KiCad (PCBNEW 10.0.5) date 2026-08-11 02:58:11*
%MOMM*%
%LPD*%
G01*
G04 APERTURE LIST*
G04 Aperture macros list*
%AMRoundRect*
0 Rectangle with rounded corners*
0 $1 Rounding radius*
0 $2 $3 $4 $5 $6 $7 $8 $9 X,Y pos of 4 corners*
0 Add a 4 corners polygon primitive as box body*
4,1,4,$2,$3,$4,$5,$6,$7,$8,$9,$2,$3,0*
0 Add four circle primitives for the rounded corners*
1,1,$1+$1,$2,$3*
1,1,$1+$1,$4,$5*
1,1,$1+$1,$6,$7*
1,1,$1+$1,$8,$9*
0 Add four rect primitives between the rounded corners*
20,1,$1+$1,$2,$3,$4,$5,0*
20,1,$1+$1,$4,$5,$6,$7,0*
20,1,$1+$1,$6,$7,$8,$9,0*
20,1,$1+$1,$8,$9,$2,$3,0*%
%AMOutline5P*
0 Free polygon, 5 corners , with rotation*
0 The origin of the aperture is its center*
0 number of corners: always 5*
0 $1 to $10 corner X, Y*
0 $11 Rotation angle, in degrees counterclockwise*
0 create outline with 5 corners*
4,1,5,$1,$2,$3,$4,$5,$6,$7,$8,$9,$10,$1,$2,$11*%
%AMOutline6P*
0 Free polygon, 6 corners , with rotation*
0 The origin of the aperture is its center*
0 number of corners: always 6*
0 $1 to $12 corner X, Y*
0 $13 Rotation angle, in degrees counterclockwise*
0 create outline with 6 corners*
4,1,6,$1,$2,$3,$4,$5,$6,$7,$8,$9,$10,$11,$12,$1,$2,$13*%
%AMOutline7P*
0 Free polygon, 7 corners , with rotation*
0 The origin of the aperture is its center*
0 number of corners: always 7*
0 $1 to $14 corner X, Y*
0 $15 Rotation angle, in degrees counterclockwise*
0 create outline with 7 corners*
4,1,7,$1,$2,$3,$4,$5,$6,$7,$8,$9,$10,$11,$12,$13,$14,$1,$2,$15*%
%AMOutline8P*
0 Free polygon, 8 corners , with rotation*
0 The origin of the aperture is its center*
0 number of corners: always 8*
0 $1 to $16 corner X, Y*
0 $17 Rotation angle, in degrees counterclockwise*
0 create outline with 8 corners*
4,1,8,$1,$2,$3,$4,$5,$6,$7,$8,$9,$10,$11,$12,$13,$14,$15,$16,$1,$2,$17*%
G04 Aperture macros list end*
%TA.AperFunction,SMDPad,CuDef*%
%ADD10RoundRect,0.218750X-0.218750X-0.256250X0.218750X-0.256250X0.218750X0.256250X-0.218750X0.256250X0*%
%TD*%
%TA.AperFunction,SMDPad,CuDef*%
%ADD11RoundRect,0.200000X0.275000X-0.200000X0.275000X0.200000X-0.275000X0.200000X-0.275000X-0.200000X0*%
%TD*%
%TA.AperFunction,SMDPad,CuDef*%
%ADD12RoundRect,0.250000X-1.000000X-0.900000X1.000000X-0.900000X1.000000X0.900000X-1.000000X0.900000X0*%
%TD*%
%TA.AperFunction,ComponentPad*%
%ADD13R,1.700000X1.700000*%
%TD*%
%TA.AperFunction,ComponentPad*%
%ADD14C,1.700000*%
%TD*%
%TA.AperFunction,SMDPad,CuDef*%
%ADD15RoundRect,0.150000X-0.825000X-0.150000X0.825000X-0.150000X0.825000X0.150000X-0.825000X0.150000X0*%
%TD*%
%TA.AperFunction,SMDPad,CuDef*%
%ADD16R,1.550000X1.000000*%
%TD*%
%TA.AperFunction,SMDPad,CuDef*%
%ADD17RoundRect,0.225000X-0.225000X-0.250000X0.225000X-0.250000X0.225000X0.250000X-0.225000X0.250000X0*%
%TD*%
%TA.AperFunction,SMDPad,CuDef*%
%ADD18RoundRect,0.200000X-0.200000X-0.275000X0.200000X-0.275000X0.200000X0.275000X-0.200000X0.275000X0*%
%TD*%
%TA.AperFunction,SMDPad,CuDef*%
%ADD19RoundRect,0.150000X-0.512500X-0.150000X0.512500X-0.150000X0.512500X0.150000X-0.512500X0.150000X0*%
%TD*%
%TA.AperFunction,SMDPad,CuDef*%
%ADD20RoundRect,0.250000X-0.925000X-1.500000X0.925000X-1.500000X0.925000X1.500000X-0.925000X1.500000X0*%
%TD*%
%TA.AperFunction,SMDPad,CuDef*%
%ADD21RoundRect,0.150000X-0.587500X-0.150000X0.587500X-0.150000X0.587500X0.150000X-0.587500X0.150000X0*%
%TD*%
%TA.AperFunction,SMDPad,CuDef*%
%ADD22R,0.400000X0.800000*%
%TD*%
%TA.AperFunction,SMDPad,CuDef*%
%ADD23R,0.800000X0.400000*%
%TD*%
%TA.AperFunction,HeatsinkPad*%
%ADD24Outline5P,-0.725000X0.130500X-0.130500X0.725000X0.725000X0.725000X0.725000X-0.725000X-0.725000X-0.725000X270.000000*%
%TD*%
%TA.AperFunction,HeatsinkPad*%
%ADD25R,1.450000X1.450000*%
%TD*%
%TA.AperFunction,SMDPad,CuDef*%
%ADD26R,0.700000X0.700000*%
%TD*%
%TA.AperFunction,ViaPad*%
%ADD27C,0.500000*%
%TD*%
%TA.AperFunction,Conductor*%
%ADD28C,0.250000*%
%TD*%
%TA.AperFunction,Conductor*%
%ADD29C,0.600000*%
%TD*%
%TA.AperFunction,Conductor*%
%ADD30C,0.300000*%
%TD*%
G04 APERTURE END LIST*
D10*
%TO.P,F1,1*%
%TO.N,12V_RAW*%
X7612500Y-6000000D03*
%TO.P,F1,2*%
%TO.N,NET_FUSED*%
X9187500Y-6000000D03*
%TD*%
D11*
%TO.P,R4,1*%
%TO.N,EN_U3_NODE*%
X24000000Y-15825000D03*
%TO.P,R4,2*%
%TO.N,GND*%
X24000000Y-14175000D03*
%TD*%
D12*
%TO.P,D1,1*%
%TO.N,VIN_PROT*%
X10450000Y-11000000D03*
%TO.P,D1,2*%
%TO.N,GND*%
X14750000Y-11000000D03*
%TD*%
D13*
%TO.P,J2,1*%
%TO.N,3V3*%
X40200000Y-22000000D03*
D14*
%TO.P,J2,2*%
%TO.N,GND*%
X42740000Y-22000000D03*
%TO.P,J2,3*%
%TO.N,TXD0*%
X45280000Y-22000000D03*
%TO.P,J2,4*%
%TO.N,RXD0*%
X47820000Y-22000000D03*
%TO.P,J2,5*%
%TO.N,IO9_BOOT*%
X50360000Y-22000000D03*
%TO.P,J2,6*%
%TO.N,U1_EN*%
X52900000Y-22000000D03*
%TD*%
D15*
%TO.P,U2,1*%
%TO.N,CAN_TX*%
X7525000Y-15595000D03*
%TO.P,U2,2*%
%TO.N,GND*%
X7525000Y-16865000D03*
%TO.P,U2,3*%
%TO.N,3V3*%
X7525000Y-18135000D03*
%TO.P,U2,4*%
%TO.N,CAN_RX*%
X7525000Y-19405000D03*
%TO.P,U2,5*%
%TO.N,3V3*%
X12475000Y-19405000D03*
%TO.P,U2,6*%
%TO.N,CANL*%
X12475000Y-18135000D03*
%TO.P,U2,7*%
%TO.N,CANH*%
X12475000Y-16865000D03*
%TO.P,U2,8*%
%TO.N,CAN_S*%
X12475000Y-15595000D03*
%TD*%
D11*
%TO.P,R7,1*%
%TO.N,3V3*%
X32500000Y-20325000D03*
%TO.P,R7,2*%
%TO.N,LED1_TOP*%
X32500000Y-18675000D03*
%TD*%
D16*
%TO.P,SW1,1*%
%TO.N,IO9_BOOT*%
X23875000Y-20650000D03*
X29125000Y-20650000D03*
%TO.P,SW1,2*%
%TO.N,GND*%
X23875000Y-22350000D03*
X29125000Y-22350000D03*
%TD*%
D17*
%TO.P,C4,1*%
%TO.N,3V3*%
X28225000Y-15000000D03*
%TO.P,C4,2*%
%TO.N,GND*%
X29775000Y-15000000D03*
%TD*%
%TO.P,C9,1*%
%TO.N,3V3*%
X5725000Y-13000000D03*
%TO.P,C9,2*%
%TO.N,GND*%
X7275000Y-13000000D03*
%TD*%
%TO.P,C3,1*%
%TO.N,3V3*%
X28225000Y-11500000D03*
%TO.P,C3,2*%
%TO.N,GND*%
X29775000Y-11500000D03*
%TD*%
%TO.P,C6,1*%
%TO.N,3V3*%
X19225000Y-1200000D03*
%TO.P,C6,2*%
%TO.N,GND*%
X20775000Y-1200000D03*
%TD*%
D11*
%TO.P,R2,1*%
%TO.N,FB_NODE*%
X34000000Y-15825000D03*
%TO.P,R2,2*%
%TO.N,GND*%
X34000000Y-14175000D03*
%TD*%
%TO.P,R1,1*%
%TO.N,3V3*%
X34000000Y-12325000D03*
%TO.P,R1,2*%
%TO.N,FB_NODE*%
X34000000Y-10675000D03*
%TD*%
D18*
%TO.P,R5,1*%
%TO.N,U1_EN*%
X4175000Y-22000000D03*
%TO.P,R5,2*%
%TO.N,3V3*%
X5825000Y-22000000D03*
%TD*%
D19*
%TO.P,U3,1*%
%TO.N,BST_NODE*%
X26362500Y-5050000D03*
%TO.P,U3,2*%
%TO.N,VIN_PROT*%
X26362500Y-6000000D03*
%TO.P,U3,3*%
%TO.N,EN_U3_NODE*%
X26362500Y-6950000D03*
%TO.P,U3,4*%
%TO.N,GND*%
X28637500Y-6950000D03*
%TO.P,U3,5*%
%TO.N,FB_NODE*%
X28637500Y-6000000D03*
%TO.P,U3,6*%
%TO.N,SW_NODE*%
X28637500Y-5050000D03*
%TD*%
D17*
%TO.P,C1,1*%
%TO.N,VIN_PROT*%
X19225000Y-6000000D03*
%TO.P,C1,2*%
%TO.N,GND*%
X20775000Y-6000000D03*
%TD*%
D20*
%TO.P,L1,1*%
%TO.N,SW_NODE*%
X31975000Y-6000000D03*
%TO.P,L1,2*%
%TO.N,3V3*%
X38025000Y-6000000D03*
%TD*%
D17*
%TO.P,C7,1*%
%TO.N,3V3*%
X24225000Y-1200000D03*
%TO.P,C7,2*%
%TO.N,GND*%
X25775000Y-1200000D03*
%TD*%
D10*
%TO.P,LED1,1*%
%TO.N,LED1_TOP*%
X31712500Y-22000000D03*
%TO.P,LED1,2*%
%TO.N,GND*%
X33287500Y-22000000D03*
%TD*%
%TO.P,LED2,1*%
%TO.N,LED2_TOP*%
X35312500Y-22000000D03*
%TO.P,LED2,2*%
%TO.N,GND*%
X36887500Y-22000000D03*
%TD*%
D17*
%TO.P,C8,1*%
%TO.N,U1_EN*%
X29225000Y-1200000D03*
%TO.P,C8,2*%
%TO.N,GND*%
X30775000Y-1200000D03*
%TD*%
D13*
%TO.P,J1,1*%
%TO.N,12V_RAW*%
X3000000Y-7420000D03*
D14*
%TO.P,J1,2*%
%TO.N,GND*%
X3000000Y-9960000D03*
%TO.P,J1,3*%
X3000000Y-12500000D03*
%TO.P,J1,4*%
%TO.N,CANH*%
X3000000Y-15040000D03*
%TO.P,J1,5*%
%TO.N,CANL*%
X3000000Y-17580000D03*
%TD*%
D18*
%TO.P,R6,1*%
%TO.N,IO9_BOOT*%
X8175000Y-22000000D03*
%TO.P,R6,2*%
%TO.N,3V3*%
X9825000Y-22000000D03*
%TD*%
D11*
%TO.P,R3,1*%
%TO.N,VIN_PROT*%
X24000000Y-12325000D03*
%TO.P,R3,2*%
%TO.N,EN_U3_NODE*%
X24000000Y-10675000D03*
%TD*%
D17*
%TO.P,C2,1*%
%TO.N,VIN_PROT*%
X22525000Y-6000000D03*
%TO.P,C2,2*%
%TO.N,GND*%
X24075000Y-6000000D03*
%TD*%
D21*
%TO.P,D3,1*%
%TO.N,CANH*%
X15562500Y-16550000D03*
%TO.P,D3,2*%
%TO.N,GND*%
X15562500Y-18450000D03*
%TO.P,D3,3*%
%TO.N,CANL*%
X17437500Y-17500000D03*
%TD*%
D18*
%TO.P,R9,1*%
%TO.N,CANH*%
X19675000Y-17500000D03*
%TO.P,R9,2*%
%TO.N,CANL*%
X21325000Y-17500000D03*
%TD*%
D12*
%TO.P,D2,1*%
%TO.N,NET_FUSED*%
X12350000Y-6000000D03*
%TO.P,D2,2*%
%TO.N,VIN_PROT*%
X16650000Y-6000000D03*
%TD*%
D22*
%TO.P,U1,1*%
%TO.N,GND*%
X52500000Y-6600000D03*
%TO.P,U1,2*%
X51700000Y-6600000D03*
%TO.P,U1,3*%
%TO.N,3V3*%
X50900000Y-6600000D03*
%TO.P,U1,4*%
%TO.N,N/C*%
X50100000Y-6600000D03*
%TO.P,U1,5*%
X49300000Y-6600000D03*
%TO.P,U1,6*%
X48500000Y-6600000D03*
%TO.P,U1,7*%
X47700000Y-6600000D03*
%TO.P,U1,8*%
%TO.N,U1_EN*%
X46900000Y-6600000D03*
%TO.P,U1,9*%
%TO.N,N/C*%
X46100000Y-6600000D03*
%TO.P,U1,10*%
X45300000Y-6600000D03*
%TO.P,U1,11*%
%TO.N,GND*%
X44500000Y-6600000D03*
D23*
%TO.P,U1,12*%
%TO.N,N/C*%
X43600000Y-7700000D03*
%TO.P,U1,13*%
X43600000Y-8500000D03*
%TO.P,U1,14*%
%TO.N,GND*%
X43600000Y-9300000D03*
%TO.P,U1,15*%
%TO.N,N/C*%
X43600000Y-10100000D03*
%TO.P,U1,16*%
X43600000Y-10900000D03*
%TO.P,U1,17*%
X43600000Y-11700000D03*
%TO.P,U1,18*%
%TO.N,CAN_TX*%
X43600000Y-12500000D03*
%TO.P,U1,19*%
%TO.N,CAN_RX*%
X43600000Y-13300000D03*
%TO.P,U1,20*%
%TO.N,CAN_S*%
X43600000Y-14100000D03*
%TO.P,U1,21*%
%TO.N,N/C*%
X43600000Y-14900000D03*
%TO.P,U1,22*%
%TO.N,LED2_DRIVE*%
X43600000Y-15700000D03*
%TO.P,U1,23*%
%TO.N,IO9_BOOT*%
X43600000Y-16500000D03*
%TO.P,U1,24*%
%TO.N,N/C*%
X43600000Y-17300000D03*
D22*
%TO.P,U1,25*%
X44500000Y-18400000D03*
%TO.P,U1,26*%
X45300000Y-18400000D03*
%TO.P,U1,27*%
X46100000Y-18400000D03*
%TO.P,U1,28*%
X46900000Y-18400000D03*
%TO.P,U1,29*%
X47700000Y-18400000D03*
%TO.P,U1,30*%
%TO.N,RXD0*%
X48500000Y-18400000D03*
%TO.P,U1,31*%
%TO.N,TXD0*%
X49300000Y-18400000D03*
%TO.P,U1,32*%
%TO.N,N/C*%
X50100000Y-18400000D03*
%TO.P,U1,33*%
X50900000Y-18400000D03*
%TO.P,U1,34*%
X51700000Y-18400000D03*
%TO.P,U1,35*%
X52500000Y-18400000D03*
D23*
%TO.P,U1,36*%
%TO.N,GND*%
X53400000Y-17300000D03*
%TO.P,U1,37*%
X53400000Y-16500000D03*
%TO.P,U1,38*%
X53400000Y-15700000D03*
%TO.P,U1,39*%
X53400000Y-14900000D03*
%TO.P,U1,40*%
X53400000Y-14100000D03*
%TO.P,U1,41*%
X53400000Y-13300000D03*
%TO.P,U1,42*%
X53400000Y-12500000D03*
%TO.P,U1,43*%
X53400000Y-11700000D03*
%TO.P,U1,44*%
X53400000Y-10900000D03*
%TO.P,U1,45*%
X53400000Y-10100000D03*
%TO.P,U1,46*%
X53400000Y-9300000D03*
%TO.P,U1,47*%
X53400000Y-8500000D03*
%TO.P,U1,48*%
X53400000Y-7700000D03*
D24*
%TO.P,U1,49*%
X50475000Y-10525000D03*
D25*
X48500000Y-10525000D03*
X46525000Y-10525000D03*
X50475000Y-12500000D03*
X48500000Y-12500000D03*
X46525000Y-12500000D03*
X50475000Y-14475000D03*
X48500000Y-14475000D03*
X46525000Y-14475000D03*
D26*
%TO.P,U1,50*%
X53450000Y-18450000D03*
%TO.P,U1,51*%
X43550000Y-18450000D03*
%TO.P,U1,52*%
X43550000Y-6550000D03*
%TO.P,U1,53*%
X53450000Y-6550000D03*
%TD*%
D17*
%TO.P,C5,1*%
%TO.N,BST_NODE*%
X26725000Y-3000000D03*
%TO.P,C5,2*%
%TO.N,SW_NODE*%
X28275000Y-3000000D03*
%TD*%
D11*
%TO.P,R8,1*%
%TO.N,LED2_TOP*%
X36100000Y-20325000D03*
%TO.P,R8,2*%
%TO.N,LED2_DRIVE*%
X36100000Y-18675000D03*
%TD*%
D27*
%TO.N,VIN_PROT*%
X26362500Y-6000000D03*
X22525000Y-6000000D03*
X22525000Y-6000000D03*
X19225000Y-6000000D03*
%TO.N,3V3*%
X28225000Y-15000000D03*
X5725000Y-13000000D03*
X5725000Y-13000000D03*
X7525000Y-18135000D03*
X5825000Y-22000000D03*
X9825000Y-22000000D03*
X32500000Y-20325000D03*
X24225000Y-1200000D03*
%TO.N,U1_EN*%
X52900000Y-22000000D03*
X46900000Y-6600000D03*
X4175000Y-22000000D03*
X52900000Y-22000000D03*
X46900000Y-6600000D03*
X29225000Y-1200000D03*
%TO.N,IO9_BOOT*%
X8175000Y-22000000D03*
X43600000Y-16500000D03*
X23875000Y-20650000D03*
X23875000Y-20650000D03*
X50360000Y-22000000D03*
X23875000Y-20650000D03*
%TO.N,CAN_TX*%
X7525000Y-15595000D03*
X43600000Y-12500000D03*
%TO.N,CAN_RX*%
X7525000Y-19405000D03*
X43600000Y-13300000D03*
%TO.N,CAN_S*%
X12475000Y-15595000D03*
X43600000Y-14100000D03*
%TO.N,RXD0*%
X48500000Y-18400000D03*
X47820000Y-22000000D03*
%TO.N,LED1_TOP*%
X31712500Y-22000000D03*
X32500000Y-18675000D03*
%TD*%
%TO.N,GND*%
D28*
X23875000Y-22350000D02*
X29125000Y-22350000D01*
%TO.N,12V_RAW*%
D29*
X3000000Y-7420000D02*
X7612500Y-6000000D01*
%TO.N,NET_FUSED*%
X9187500Y-6000000D02*
X12350000Y-6000000D01*
%TO.N,VIN_PROT*%
X8500000Y-8500000D02*
X8500000Y-11000000D01*
X19225000Y-12325000D02*
X24000000Y-12325000D01*
X16650000Y-6000000D02*
X16649999Y-8500000D01*
X8500000Y-11000000D02*
X10450000Y-11000000D01*
X16650000Y-6000000D02*
X19225000Y-6000000D01*
X16649999Y-8500000D02*
X8500000Y-8500000D01*
X19225000Y-6000000D02*
X19225000Y-12325000D01*
%TO.N,3V3*%
X38025000Y-6000000D02*
X38025000Y-5500000D01*
X34000000Y-12325000D02*
X34000000Y-13000000D01*
X32500000Y-20325000D02*
X34300000Y-20325000D01*
D28*
X28225000Y-16200000D02*
X40500000Y-16200000D01*
D29*
X34000000Y-13000000D02*
X28225000Y-13000000D01*
X50900000Y-5500000D02*
X50900000Y-6600000D01*
X38025000Y-6000000D02*
X39500000Y-9900000D01*
X28225000Y-13000000D02*
X28225000Y-11500000D01*
D28*
X40500000Y-16200000D02*
X40500000Y-1500000D01*
D29*
X12475000Y-19405000D02*
X22000000Y-19600000D01*
D28*
X28225000Y-15000000D02*
X28225000Y-16200000D01*
D29*
X34300000Y-23300000D02*
X40200000Y-23300000D01*
X22000000Y-21500000D02*
X9825000Y-21500000D01*
X9825000Y-21500000D02*
X9825000Y-22000000D01*
X28225000Y-11500000D02*
X28225000Y-15000000D01*
X7525000Y-18135000D02*
X12475000Y-19405000D01*
X34300000Y-20325000D02*
X34300000Y-23300000D01*
D28*
X40500000Y-1500000D02*
X19225000Y-1500000D01*
D29*
X40200000Y-23300000D02*
X40200000Y-22000000D01*
X38025000Y-5500000D02*
X50900000Y-5500000D01*
D28*
X19225000Y-1500000D02*
X19225000Y-1200000D01*
D29*
X22000000Y-19600000D02*
X22000000Y-21500000D01*
X39500000Y-9900000D02*
X34000000Y-12325000D01*
%TO.N,SW_NODE*%
D28*
X28637500Y-5050000D02*
X31975000Y-6000000D01*
X28275000Y-3000000D02*
X28637500Y-5050000D01*
%TO.N,BST_NODE*%
X26725000Y-3000000D02*
X26362500Y-5050000D01*
%TO.N,FB_NODE*%
X34000000Y-9800000D02*
X34000000Y-10675000D01*
X36000000Y-15825000D02*
X34000000Y-15825000D01*
X36000000Y-10675000D02*
X36000000Y-15825000D01*
X28637500Y-6000000D02*
X30000000Y-6000000D01*
X30000000Y-6000000D02*
X30000000Y-9800000D01*
X30000000Y-9800000D02*
X34000000Y-9800000D01*
X34000000Y-10675000D02*
X36000000Y-10675000D01*
%TO.N,EN_U3_NODE*%
X25500000Y-15825000D02*
X24000000Y-15825000D01*
X25500000Y-10675000D02*
X25500000Y-15825000D01*
X24000000Y-10675000D02*
X25500000Y-10675000D01*
X26362500Y-6950000D02*
X24000000Y-10675000D01*
%TO.N,IO9_BOOT*%
X23875000Y-20650000D02*
X29125000Y-20650000D01*
%TO.N,LED2_DRIVE*%
X43600000Y-15700000D02*
X36100000Y-18675000D01*
%TO.N,TXD0*%
X45280000Y-20300000D02*
X45280000Y-22000000D01*
X49300000Y-20300000D02*
X45280000Y-20300000D01*
X49300000Y-18400000D02*
X49300000Y-20300000D01*
%TO.N,CANH*%
D30*
X11000000Y-16865000D02*
X11000000Y-14000000D01*
X11000000Y-14000000D02*
X19675000Y-14000000D01*
X12475000Y-16865000D02*
X11000000Y-16865000D01*
X11000000Y-14000000D02*
X3000000Y-14000000D01*
X12475000Y-16865000D02*
X11000000Y-16865000D01*
X12475000Y-16865000D02*
X15562500Y-16550000D01*
X19675000Y-14000000D02*
X19675000Y-17500000D01*
X3000000Y-14000000D02*
X3000000Y-15040000D01*
X11000000Y-16865000D02*
X11000000Y-14000000D01*
%TO.N,CANL*%
X11000000Y-18135000D02*
X11000000Y-20300000D01*
X12475000Y-18135000D02*
X11000000Y-18135000D01*
X11000000Y-20500000D02*
X3000000Y-20500000D01*
X11000000Y-20300000D02*
X21325000Y-20300000D01*
X12475000Y-18135000D02*
X14000000Y-17500000D01*
X21325000Y-20300000D02*
X21325000Y-17500000D01*
X3000000Y-20500000D02*
X3000000Y-17580000D01*
X11000000Y-18135000D02*
X11000000Y-20500000D01*
X12475000Y-18135000D02*
X11000000Y-18135000D01*
X14000000Y-17500000D02*
X17437500Y-17500000D01*
%TO.N,LED2_TOP*%
D28*
X36100000Y-20325000D02*
X35312500Y-22000000D01*
%TD*%
%TA.AperFunction,Conductor*%
%TO.N,GND*%
G36*
X18483692Y-1218907D02*
G01*
X18519656Y-1268407D01*
X18524501Y-1299000D01*
X18524501Y-1495484D01*
X18530587Y-1552111D01*
X18530587Y-1552112D01*
X18530588Y-1552114D01*
X18578372Y-1680226D01*
X18660313Y-1789687D01*
X18769774Y-1871628D01*
X18897886Y-1919412D01*
X18954515Y-1925500D01*
X19495484Y-1925499D01*
X19552114Y-1919412D01*
X19653110Y-1881742D01*
X19687707Y-1875500D01*
X23762293Y-1875500D01*
X23796890Y-1881742D01*
X23897886Y-1919412D01*
X23954515Y-1925500D01*
X24495484Y-1925499D01*
X24552114Y-1919412D01*
X24653110Y-1881742D01*
X24687707Y-1875500D01*
X28762293Y-1875500D01*
X28796890Y-1881742D01*
X28897886Y-1919412D01*
X28954515Y-1925500D01*
X29495484Y-1925499D01*
X29552114Y-1919412D01*
X29653110Y-1881742D01*
X29687707Y-1875500D01*
X40025500Y-1875500D01*
X40083691Y-1894407D01*
X40119655Y-1943907D01*
X40124500Y-1974500D01*
X40124500Y-4850500D01*
X40105593Y-4908691D01*
X40056093Y-4944655D01*
X40025500Y-4949500D01*
X39549499Y-4949500D01*
X39491308Y-4930593D01*
X39455344Y-4881093D01*
X39450499Y-4850500D01*
X39450499Y-4452133D01*
X39450499Y-4452128D01*
X39444091Y-4392517D01*
X39443219Y-4390178D01*
X39393797Y-4257670D01*
X39307549Y-4142458D01*
X39307548Y-4142457D01*
X39307546Y-4142454D01*
X39307541Y-4142450D01*
X39192329Y-4056202D01*
X39057488Y-4005910D01*
X39057483Y-4005909D01*
X39057481Y-4005908D01*
X39057477Y-4005908D01*
X39026249Y-4002550D01*
X38997873Y-3999500D01*
X38997870Y-3999500D01*
X37052133Y-3999500D01*
X37052129Y-3999500D01*
X37052128Y-3999501D01*
X37044949Y-4000272D01*
X36992519Y-4005908D01*
X36992514Y-4005909D01*
X36857670Y-4056202D01*
X36742458Y-4142450D01*
X36742450Y-4142458D01*
X36656202Y-4257670D01*
X36605910Y-4392511D01*
X36605908Y-4392522D01*
X36599500Y-4452129D01*
X36599500Y-7547866D01*
X36599501Y-7547870D01*
X36605908Y-7607480D01*
X36605909Y-7607485D01*
X36656202Y-7742329D01*
X36729083Y-7839685D01*
X36742454Y-7857546D01*
X36742457Y-7857548D01*
X36742458Y-7857549D01*
X36857670Y-7943797D01*
X36992511Y-7994089D01*
X36992512Y-7994089D01*
X36992517Y-7994091D01*
X37052127Y-8000500D01*
X38124640Y-8000499D01*
X38182831Y-8019406D01*
X38217239Y-8064478D01*
X38767350Y-9519008D01*
X38770250Y-9580124D01*
X38736673Y-9631273D01*
X38714691Y-9644615D01*
X36493257Y-10624065D01*
X36432384Y-10630241D01*
X36379507Y-10599457D01*
X36357691Y-10559102D01*
X36349910Y-10530062D01*
X36349909Y-10530061D01*
X36349909Y-10530059D01*
X36349908Y-10530058D01*
X36300476Y-10444440D01*
X36300475Y-10444438D01*
X36230562Y-10374525D01*
X36230472Y-10374473D01*
X36144941Y-10325091D01*
X36144943Y-10325091D01*
X36107885Y-10315161D01*
X36049435Y-10299500D01*
X36049433Y-10299500D01*
X34755359Y-10299500D01*
X34697168Y-10280593D01*
X34675708Y-10259293D01*
X34597150Y-10152850D01*
X34597146Y-10152847D01*
X34597144Y-10152845D01*
X34487885Y-10072208D01*
X34487879Y-10072205D01*
X34441802Y-10056082D01*
X34393121Y-10019016D01*
X34375500Y-9962638D01*
X34375500Y-9750566D01*
X34373801Y-9744224D01*
X34349910Y-9655062D01*
X34349908Y-9655059D01*
X34349908Y-9655057D01*
X34300476Y-9569440D01*
X34300475Y-9569438D01*
X34230562Y-9499525D01*
X34230559Y-9499523D01*
X34144941Y-9450091D01*
X34144943Y-9450091D01*
X34107885Y-9440161D01*
X34049435Y-9424500D01*
X34049433Y-9424500D01*
X30474500Y-9424500D01*
X30416309Y-9405593D01*
X30380345Y-9356093D01*
X30375500Y-9325500D01*
X30375500Y-7672507D01*
X30394407Y-7614316D01*
X30443907Y-7578352D01*
X30505093Y-7578352D01*
X30554593Y-7614316D01*
X30567258Y-7637911D01*
X30606202Y-7742329D01*
X30679083Y-7839685D01*
X30692454Y-7857546D01*
X30692457Y-7857548D01*
X30692458Y-7857549D01*
X30807670Y-7943797D01*
X30942511Y-7994089D01*
X30942512Y-7994089D01*
X30942517Y-7994091D01*
X31002127Y-8000500D01*
X32947872Y-8000499D01*
X33007483Y-7994091D01*
X33127038Y-7949500D01*
X33142329Y-7943797D01*
X33142329Y-7943796D01*
X33142331Y-7943796D01*
X33257546Y-7857546D01*
X33343796Y-7742331D01*
X33348282Y-7730305D01*
X33394089Y-7607488D01*
X33394090Y-7607485D01*
X33394091Y-7607483D01*
X33400500Y-7547873D01*
X33400499Y-4452128D01*
X33394091Y-4392517D01*
X33393219Y-4390178D01*
X33343797Y-4257670D01*
X33257549Y-4142458D01*
X33257548Y-4142457D01*
X33257546Y-4142454D01*
X33257541Y-4142450D01*
X33142329Y-4056202D01*
X33007488Y-4005910D01*
X33007483Y-4005909D01*
X33007481Y-4005908D01*
X33007477Y-4005908D01*
X32976249Y-4002550D01*
X32947873Y-3999500D01*
X32947870Y-3999500D01*
X31002133Y-3999500D01*
X31002129Y-3999500D01*
X31002128Y-3999501D01*
X30994949Y-4000272D01*
X30942519Y-4005908D01*
X30942514Y-4005909D01*
X30807670Y-4056202D01*
X30692458Y-4142450D01*
X30692450Y-4142458D01*
X30606202Y-4257670D01*
X30555910Y-4392511D01*
X30555908Y-4392522D01*
X30549500Y-4452129D01*
X30549500Y-5072711D01*
X30530593Y-5130902D01*
X30481093Y-5166866D01*
X30423397Y-5167929D01*
X29619746Y-4939174D01*
X29568954Y-4905058D01*
X29549068Y-4859442D01*
X29535647Y-4774699D01*
X29535646Y-4774697D01*
X29535646Y-4774696D01*
X29478050Y-4661658D01*
X29388342Y-4571950D01*
X29275304Y-4514354D01*
X29275305Y-4514354D01*
X29181522Y-4499500D01*
X29181519Y-4499500D01*
X29004511Y-4499500D01*
X28946320Y-4480593D01*
X28910356Y-4431093D01*
X28907023Y-4417739D01*
X28902564Y-4392522D01*
X28780451Y-3701954D01*
X28788937Y-3641362D01*
X28818611Y-3605463D01*
X28839687Y-3589687D01*
X28921628Y-3480226D01*
X28969412Y-3352114D01*
X28975500Y-3295485D01*
X28975499Y-2704516D01*
X28969412Y-2647886D01*
X28921628Y-2519774D01*
X28839687Y-2410313D01*
X28803476Y-2383206D01*
X28730228Y-2328373D01*
X28730226Y-2328372D01*
X28602114Y-2280588D01*
X28602113Y-2280587D01*
X28563895Y-2276479D01*
X28545485Y-2274500D01*
X28545481Y-2274500D01*
X28004521Y-2274500D01*
X28004515Y-2274501D01*
X27947888Y-2280587D01*
X27947886Y-2280588D01*
X27819774Y-2328372D01*
X27819773Y-2328372D01*
X27819772Y-2328373D01*
X27710315Y-2410311D01*
X27710311Y-2410315D01*
X27628372Y-2519773D01*
X27592756Y-2615260D01*
X27554705Y-2663173D01*
X27495757Y-2679570D01*
X27438430Y-2658187D01*
X27407243Y-2615261D01*
X27371628Y-2519774D01*
X27289687Y-2410313D01*
X27253476Y-2383206D01*
X27180228Y-2328373D01*
X27180226Y-2328372D01*
X27052114Y-2280588D01*
X27052113Y-2280587D01*
X27013895Y-2276479D01*
X26995485Y-2274500D01*
X26995481Y-2274500D01*
X26454521Y-2274500D01*
X26454515Y-2274501D01*
X26397888Y-2280587D01*
X26397886Y-2280588D01*
X26269774Y-2328372D01*
X26269773Y-2328372D01*
X26269772Y-2328373D01*
X26160315Y-2410311D01*
X26160311Y-2410315D01*
X26078373Y-2519771D01*
X26030587Y-2647887D01*
X26024500Y-2704518D01*
X26024500Y-3295478D01*
X26024501Y-3295484D01*
X26030587Y-3352111D01*
X26030587Y-3352112D01*
X26030588Y-3352114D01*
X26078372Y-3480226D01*
X26160313Y-3589687D01*
X26160316Y-3589689D01*
X26160317Y-3589690D01*
X26181388Y-3605464D01*
X26216641Y-3655473D01*
X26219547Y-3701956D01*
X26092975Y-4417739D01*
X26064223Y-4471748D01*
X26009217Y-4498543D01*
X25995488Y-4499500D01*
X25818479Y-4499500D01*
X25818476Y-4499501D01*
X25724700Y-4514352D01*
X25724695Y-4514354D01*
X25611659Y-4571949D01*
X25521949Y-4661659D01*
X25464354Y-4774695D01*
X25449500Y-4868477D01*
X25449500Y-5231520D01*
X25449501Y-5231523D01*
X25464352Y-5325299D01*
X25464354Y-5325304D01*
X25521950Y-5438342D01*
X25521952Y-5438344D01*
X25538605Y-5454998D01*
X25566381Y-5509515D01*
X25556809Y-5569947D01*
X25538605Y-5595002D01*
X25521952Y-5611655D01*
X25521950Y-5611658D01*
X25464354Y-5724695D01*
X25449500Y-5818477D01*
X25449500Y-6181520D01*
X25449501Y-6181523D01*
X25464352Y-6275299D01*
X25464354Y-6275304D01*
X25521950Y-6388342D01*
X25521952Y-6388344D01*
X25538605Y-6404998D01*
X25566381Y-6459515D01*
X25556809Y-6519947D01*
X25538605Y-6545002D01*
X25521952Y-6561655D01*
X25521950Y-6561658D01*
X25464354Y-6674695D01*
X25449500Y-6768477D01*
X25449500Y-7131520D01*
X25449501Y-7131523D01*
X25464352Y-7225299D01*
X25464354Y-7225304D01*
X25521950Y-7338342D01*
X25557424Y-7373816D01*
X25585200Y-7428331D01*
X25575629Y-7488763D01*
X25571022Y-7496842D01*
X23997071Y-9978524D01*
X23949938Y-10017538D01*
X23913468Y-10024500D01*
X23670725Y-10024500D01*
X23640305Y-10027353D01*
X23640296Y-10027355D01*
X23512116Y-10072207D01*
X23402855Y-10152845D01*
X23402845Y-10152855D01*
X23322207Y-10262116D01*
X23277355Y-10390296D01*
X23277353Y-10390305D01*
X23274500Y-10420725D01*
X23274500Y-10929274D01*
X23277353Y-10959694D01*
X23277355Y-10959703D01*
X23322207Y-11087883D01*
X23402845Y-11197144D01*
X23402847Y-11197146D01*
X23402850Y-11197150D01*
X23402853Y-11197152D01*
X23402855Y-11197154D01*
X23512116Y-11277792D01*
X23512117Y-11277792D01*
X23512118Y-11277793D01*
X23640301Y-11322646D01*
X23670725Y-11325499D01*
X23670727Y-11325500D01*
X23670734Y-11325500D01*
X24329273Y-11325500D01*
X24329273Y-11325499D01*
X24359699Y-11322646D01*
X24487882Y-11277793D01*
X24597150Y-11197150D01*
X24675705Y-11090709D01*
X24725471Y-11055119D01*
X24755359Y-11050500D01*
X25025500Y-11050500D01*
X25083691Y-11069407D01*
X25119655Y-11118907D01*
X25124500Y-11149500D01*
X25124500Y-15350500D01*
X25105593Y-15408691D01*
X25056093Y-15444655D01*
X25025500Y-15449500D01*
X24755359Y-15449500D01*
X24697168Y-15430593D01*
X24675708Y-15409293D01*
X24597150Y-15302850D01*
X24597146Y-15302847D01*
X24597144Y-15302845D01*
X24487883Y-15222207D01*
X24359703Y-15177355D01*
X24359694Y-15177353D01*
X24329274Y-15174500D01*
X24329266Y-15174500D01*
X23670734Y-15174500D01*
X23670725Y-15174500D01*
X23640305Y-15177353D01*
X23640296Y-15177355D01*
X23512116Y-15222207D01*
X23402855Y-15302845D01*
X23402845Y-15302855D01*
X23322207Y-15412116D01*
X23277355Y-15540296D01*
X23277353Y-15540305D01*
X23274500Y-15570725D01*
X23274500Y-16079274D01*
X23277353Y-16109694D01*
X23277355Y-16109703D01*
X23322207Y-16237883D01*
X23402845Y-16347144D01*
X23402847Y-16347146D01*
X23402850Y-16347150D01*
X23402853Y-16347152D01*
X23402855Y-16347154D01*
X23512116Y-16427792D01*
X23512117Y-16427792D01*
X23512118Y-16427793D01*
X23640301Y-16472646D01*
X23670725Y-16475499D01*
X23670727Y-16475500D01*
X23670734Y-16475500D01*
X24329273Y-16475500D01*
X24329273Y-16475499D01*
X24359699Y-16472646D01*
X24487882Y-16427793D01*
X24597150Y-16347150D01*
X24675705Y-16240709D01*
X24725471Y-16205119D01*
X24755359Y-16200500D01*
X25549433Y-16200500D01*
X25549435Y-16200500D01*
X25644938Y-16174910D01*
X25644940Y-16174908D01*
X25644942Y-16174908D01*
X25679420Y-16155002D01*
X25730562Y-16125475D01*
X25800475Y-16055562D01*
X25842171Y-15983342D01*
X25849908Y-15969942D01*
X25849908Y-15969940D01*
X25849910Y-15969938D01*
X25875500Y-15874435D01*
X25875500Y-10625565D01*
X25849910Y-10530062D01*
X25849908Y-10530059D01*
X25849908Y-10530057D01*
X25800476Y-10444440D01*
X25800475Y-10444438D01*
X25730562Y-10374525D01*
X25730472Y-10374473D01*
X25644941Y-10325091D01*
X25644943Y-10325091D01*
X25607885Y-10315161D01*
X25549435Y-10299500D01*
X25549433Y-10299500D01*
X24862827Y-10299500D01*
X24804636Y-10280593D01*
X24768672Y-10231093D01*
X24768672Y-10169907D01*
X24779224Y-10147476D01*
X26428852Y-7546475D01*
X26475985Y-7507461D01*
X26512455Y-7500499D01*
X26906521Y-7500499D01*
X26906522Y-7500498D01*
X26953411Y-7493072D01*
X27000299Y-7485647D01*
X27000299Y-7485646D01*
X27000304Y-7485646D01*
X27113342Y-7428050D01*
X27203050Y-7338342D01*
X27260646Y-7225304D01*
X27275500Y-7131519D01*
X27275499Y-6768482D01*
X27267728Y-6719411D01*
X27260647Y-6674700D01*
X27260646Y-6674698D01*
X27260646Y-6674696D01*
X27203050Y-6561658D01*
X27186393Y-6545001D01*
X27158618Y-6490487D01*
X27168189Y-6430055D01*
X27186394Y-6404998D01*
X27203050Y-6388342D01*
X27260646Y-6275304D01*
X27275500Y-6181519D01*
X27275499Y-5818482D01*
X27260646Y-5724696D01*
X27203050Y-5611658D01*
X27186393Y-5595001D01*
X27158618Y-5540487D01*
X27168189Y-5480055D01*
X27186394Y-5454998D01*
X27203050Y-5438342D01*
X27260646Y-5325304D01*
X27275500Y-5231519D01*
X27275499Y-4868482D01*
X27260646Y-4774699D01*
X27260646Y-4774698D01*
X27260646Y-4774696D01*
X27203050Y-4661658D01*
X27113342Y-4571950D01*
X27000304Y-4514354D01*
X27000305Y-4514354D01*
X26942500Y-4505198D01*
X26887983Y-4477420D01*
X26860207Y-4422903D01*
X26860500Y-4390178D01*
X26904306Y-4142454D01*
X26964746Y-3800654D01*
X26993498Y-3746646D01*
X27046123Y-3721010D01*
X27046083Y-3720837D01*
X27046853Y-3720654D01*
X27048504Y-3719851D01*
X27051611Y-3719466D01*
X27052114Y-3719412D01*
X27180226Y-3671628D01*
X27289687Y-3589687D01*
X27371628Y-3480226D01*
X27407243Y-3384739D01*
X27445293Y-3336826D01*
X27504240Y-3320429D01*
X27561568Y-3341811D01*
X27592756Y-3384739D01*
X27628372Y-3480226D01*
X27710313Y-3589687D01*
X27819774Y-3671628D01*
X27947886Y-3719412D01*
X27948341Y-3719460D01*
X27948617Y-3719584D01*
X27953916Y-3720837D01*
X27953676Y-3721851D01*
X28004177Y-3744475D01*
X28034648Y-3797534D01*
X28035252Y-3800655D01*
X28139498Y-4390179D01*
X28131012Y-4450773D01*
X28088530Y-4494807D01*
X28057496Y-4505199D01*
X27999700Y-4514352D01*
X27999695Y-4514354D01*
X27886659Y-4571949D01*
X27796949Y-4661659D01*
X27739354Y-4774695D01*
X27724500Y-4868477D01*
X27724500Y-5231520D01*
X27724501Y-5231523D01*
X27739352Y-5325299D01*
X27739354Y-5325304D01*
X27796950Y-5438342D01*
X27796952Y-5438344D01*
X27813605Y-5454998D01*
X27841381Y-5509515D01*
X27831809Y-5569947D01*
X27813605Y-5595002D01*
X27796952Y-5611655D01*
X27796950Y-5611658D01*
X27739354Y-5724695D01*
X27724500Y-5818477D01*
X27724500Y-6181520D01*
X27724501Y-6181523D01*
X27739352Y-6275299D01*
X27739354Y-6275304D01*
X27796950Y-6388342D01*
X27886658Y-6478050D01*
X27999696Y-6535646D01*
X28093481Y-6550500D01*
X29181518Y-6550499D01*
X29181521Y-6550499D01*
X29181522Y-6550498D01*
X29228411Y-6543072D01*
X29275299Y-6535647D01*
X29275299Y-6535646D01*
X29275304Y-6535646D01*
X29388342Y-6478050D01*
X29455498Y-6410893D01*
X29510013Y-6383118D01*
X29570445Y-6392689D01*
X29613710Y-6435954D01*
X29624500Y-6480899D01*
X29624500Y-9849435D01*
X29642678Y-9917277D01*
X29650091Y-9944942D01*
X29692859Y-10019016D01*
X29699525Y-10030562D01*
X29769438Y-10100475D01*
X29769440Y-10100476D01*
X29855058Y-10149908D01*
X29855056Y-10149908D01*
X29855060Y-10149909D01*
X29855062Y-10149910D01*
X29950565Y-10175500D01*
X30049435Y-10175500D01*
X33212989Y-10175500D01*
X33271180Y-10194407D01*
X33307144Y-10243907D01*
X33307144Y-10305093D01*
X33306433Y-10307198D01*
X33277355Y-10390296D01*
X33277353Y-10390305D01*
X33274500Y-10420725D01*
X33274500Y-10929274D01*
X33277353Y-10959694D01*
X33277355Y-10959703D01*
X33322207Y-11087883D01*
X33402845Y-11197144D01*
X33402847Y-11197146D01*
X33402850Y-11197150D01*
X33402853Y-11197152D01*
X33402855Y-11197154D01*
X33512116Y-11277792D01*
X33512117Y-11277792D01*
X33512118Y-11277793D01*
X33640301Y-11322646D01*
X33670725Y-11325499D01*
X33670727Y-11325500D01*
X33670734Y-11325500D01*
X34329273Y-11325500D01*
X34329273Y-11325499D01*
X34359699Y-11322646D01*
X34487882Y-11277793D01*
X34597150Y-11197150D01*
X34675705Y-11090709D01*
X34725471Y-11055119D01*
X34755359Y-11050500D01*
X35056159Y-11050500D01*
X35114350Y-11069407D01*
X35150314Y-11118907D01*
X35150314Y-11180093D01*
X35114350Y-11229593D01*
X35096099Y-11240086D01*
X34129913Y-11666086D01*
X34089973Y-11674500D01*
X33670725Y-11674500D01*
X33640305Y-11677353D01*
X33640296Y-11677355D01*
X33512116Y-11722207D01*
X33402855Y-11802845D01*
X33402845Y-11802855D01*
X33322207Y-11912116D01*
X33277355Y-12040296D01*
X33277353Y-12040305D01*
X33274500Y-12070725D01*
X33274500Y-12350500D01*
X33255593Y-12408691D01*
X33206093Y-12444655D01*
X33175500Y-12449500D01*
X28874500Y-12449500D01*
X28816309Y-12430593D01*
X28780345Y-12381093D01*
X28775500Y-12350500D01*
X28775500Y-12141588D01*
X28794407Y-12083397D01*
X28795247Y-12082259D01*
X28871628Y-11980226D01*
X28919412Y-11852114D01*
X28925500Y-11795485D01*
X28925499Y-11204516D01*
X28919412Y-11147886D01*
X28871628Y-11019774D01*
X28789687Y-10910313D01*
X28753476Y-10883206D01*
X28680228Y-10828373D01*
X28680226Y-10828372D01*
X28552114Y-10780588D01*
X28552113Y-10780587D01*
X28513895Y-10776479D01*
X28495485Y-10774500D01*
X28495481Y-10774500D01*
X27954521Y-10774500D01*
X27954515Y-10774501D01*
X27897888Y-10780587D01*
X27897886Y-10780588D01*
X27769774Y-10828372D01*
X27769773Y-10828372D01*
X27769772Y-10828373D01*
X27660315Y-10910311D01*
X27660311Y-10910315D01*
X27578373Y-11019771D01*
X27530587Y-11147887D01*
X27526115Y-11189485D01*
X27525229Y-11197740D01*
X27524500Y-11204518D01*
X27524500Y-11795478D01*
X27524501Y-11795484D01*
X27530587Y-11852111D01*
X27530587Y-11852112D01*
X27530588Y-11852114D01*
X27566305Y-11947873D01*
X27578373Y-11980228D01*
X27598780Y-12007488D01*
X27653511Y-12080601D01*
X27654753Y-12082259D01*
X27674490Y-12140174D01*
X27674500Y-12141588D01*
X27674500Y-14358411D01*
X27655593Y-14416602D01*
X27654754Y-14417739D01*
X27578373Y-14519771D01*
X27530587Y-14647887D01*
X27524500Y-14704518D01*
X27524500Y-15295478D01*
X27524501Y-15295484D01*
X27530587Y-15352111D01*
X27530587Y-15352112D01*
X27530588Y-15352114D01*
X27578372Y-15480226D01*
X27660313Y-15589687D01*
X27769774Y-15671628D01*
X27785095Y-15677342D01*
X27833010Y-15715392D01*
X27849500Y-15770101D01*
X27849500Y-16249435D01*
X27869213Y-16323005D01*
X27875091Y-16344942D01*
X27922926Y-16427793D01*
X27924525Y-16430562D01*
X27994438Y-16500475D01*
X28007070Y-16507768D01*
X28080058Y-16549908D01*
X28080056Y-16549908D01*
X28080060Y-16549909D01*
X28080062Y-16549910D01*
X28175565Y-16575500D01*
X28274435Y-16575500D01*
X39856386Y-16575500D01*
X39914577Y-16594407D01*
X39950541Y-16643907D01*
X39950541Y-16705093D01*
X39914577Y-16754593D01*
X39892889Y-16766525D01*
X36629320Y-18061072D01*
X36568258Y-18064952D01*
X36560120Y-18062492D01*
X36483393Y-18035645D01*
X36459699Y-18027354D01*
X36459697Y-18027353D01*
X36459694Y-18027353D01*
X36429274Y-18024500D01*
X36429266Y-18024500D01*
X35770734Y-18024500D01*
X35770725Y-18024500D01*
X35740305Y-18027353D01*
X35740296Y-18027355D01*
X35612116Y-18072207D01*
X35502855Y-18152845D01*
X35502845Y-18152855D01*
X35422207Y-18262116D01*
X35377355Y-18390296D01*
X35377353Y-18390305D01*
X35374500Y-18420725D01*
X35374500Y-18929274D01*
X35377353Y-18959694D01*
X35377355Y-18959703D01*
X35422207Y-19087883D01*
X35502845Y-19197144D01*
X35502847Y-19197146D01*
X35502850Y-19197150D01*
X35502853Y-19197152D01*
X35502855Y-19197154D01*
X35612116Y-19277792D01*
X35612117Y-19277792D01*
X35612118Y-19277793D01*
X35740301Y-19322646D01*
X35770725Y-19325499D01*
X35770727Y-19325500D01*
X35770734Y-19325500D01*
X36429273Y-19325500D01*
X36429273Y-19325499D01*
X36459699Y-19322646D01*
X36587882Y-19277793D01*
X36697150Y-19197150D01*
X36777793Y-19087882D01*
X36822646Y-18959699D01*
X36825499Y-18929273D01*
X36825500Y-18929273D01*
X36825500Y-18858414D01*
X36844407Y-18800223D01*
X36887995Y-18766390D01*
X42813998Y-16415742D01*
X42875059Y-16411863D01*
X42926741Y-16444614D01*
X42949301Y-16501489D01*
X42949500Y-16507768D01*
X42949500Y-16724672D01*
X42949501Y-16724684D01*
X42964033Y-16797736D01*
X42964036Y-16797745D01*
X42995610Y-16845000D01*
X43012218Y-16903888D01*
X42995610Y-16955000D01*
X42964036Y-17002254D01*
X42964033Y-17002263D01*
X42949501Y-17075315D01*
X42949500Y-17075327D01*
X42949500Y-17524672D01*
X42949501Y-17524684D01*
X42964033Y-17597736D01*
X42964035Y-17597742D01*
X43019397Y-17680599D01*
X43019400Y-17680602D01*
X43094219Y-17730593D01*
X43102260Y-17735966D01*
X43156011Y-17746658D01*
X43175315Y-17750498D01*
X43175320Y-17750498D01*
X43175326Y-17750500D01*
X43175327Y-17750500D01*
X43980220Y-17750500D01*
X44038411Y-17769407D01*
X44074375Y-17818907D01*
X44074375Y-17880093D01*
X44066437Y-17896459D01*
X44064033Y-17902263D01*
X44049501Y-17975315D01*
X44049500Y-17975327D01*
X44049500Y-18824672D01*
X44049501Y-18824684D01*
X44064033Y-18897736D01*
X44064035Y-18897742D01*
X44119397Y-18980599D01*
X44119400Y-18980602D01*
X44179073Y-19020473D01*
X44202260Y-19035966D01*
X44251447Y-19045750D01*
X44275315Y-19050498D01*
X44275320Y-19050498D01*
X44275326Y-19050500D01*
X44275327Y-19050500D01*
X44724673Y-19050500D01*
X44724674Y-19050500D01*
X44797740Y-19035966D01*
X44844999Y-19004388D01*
X44903886Y-18987780D01*
X44954999Y-19004388D01*
X44973363Y-19016658D01*
X45002256Y-19035964D01*
X45002257Y-19035964D01*
X45002260Y-19035966D01*
X45051447Y-19045750D01*
X45075315Y-19050498D01*
X45075320Y-19050498D01*
X45075326Y-19050500D01*
X45075327Y-19050500D01*
X45524673Y-19050500D01*
X45524674Y-19050500D01*
X45597740Y-19035966D01*
X45644999Y-19004388D01*
X45703886Y-18987780D01*
X45754999Y-19004388D01*
X45773363Y-19016658D01*
X45802256Y-19035964D01*
X45802257Y-19035964D01*
X45802260Y-19035966D01*
X45851447Y-19045750D01*
X45875315Y-19050498D01*
X45875320Y-19050498D01*
X45875326Y-19050500D01*
X45875327Y-19050500D01*
X46324673Y-19050500D01*
X46324674Y-19050500D01*
X46397740Y-19035966D01*
X46444999Y-19004388D01*
X46503886Y-18987780D01*
X46554999Y-19004388D01*
X46573363Y-19016658D01*
X46602256Y-19035964D01*
X46602257Y-19035964D01*
X46602260Y-19035966D01*
X46651447Y-19045750D01*
X46675315Y-19050498D01*
X46675320Y-19050498D01*
X46675326Y-19050500D01*
X46675327Y-19050500D01*
X47124673Y-19050500D01*
X47124674Y-19050500D01*
X47197740Y-19035966D01*
X47244999Y-19004388D01*
X47303886Y-18987780D01*
X47354999Y-19004388D01*
X47373363Y-19016658D01*
X47402256Y-19035964D01*
X47402257Y-19035964D01*
X47402260Y-19035966D01*
X47451447Y-19045750D01*
X47475315Y-19050498D01*
X47475320Y-19050498D01*
X47475326Y-19050500D01*
X47475327Y-19050500D01*
X47924673Y-19050500D01*
X47924674Y-19050500D01*
X47997740Y-19035966D01*
X48044999Y-19004388D01*
X48103886Y-18987780D01*
X48154999Y-19004388D01*
X48173363Y-19016658D01*
X48202256Y-19035964D01*
X48202257Y-19035964D01*
X48202260Y-19035966D01*
X48251447Y-19045750D01*
X48275315Y-19050498D01*
X48275320Y-19050498D01*
X48275326Y-19050500D01*
X48275327Y-19050500D01*
X48724673Y-19050500D01*
X48724674Y-19050500D01*
X48724675Y-19050499D01*
X48724682Y-19050499D01*
X48775723Y-19040345D01*
X48797740Y-19035966D01*
X48797740Y-19035965D01*
X48806184Y-19034286D01*
X48866946Y-19041476D01*
X48911876Y-19083008D01*
X48924500Y-19131383D01*
X48924500Y-19825500D01*
X48905593Y-19883691D01*
X48856093Y-19919655D01*
X48825500Y-19924500D01*
X45329435Y-19924500D01*
X45230565Y-19924500D01*
X45172114Y-19940161D01*
X45135057Y-19950091D01*
X45049440Y-19999523D01*
X44979523Y-20069440D01*
X44930091Y-20155057D01*
X44916416Y-20206093D01*
X44909022Y-20233691D01*
X44904500Y-20250566D01*
X44904500Y-20895539D01*
X44885593Y-20953730D01*
X44850445Y-20983749D01*
X44703214Y-21058766D01*
X44563073Y-21160585D01*
X44440585Y-21283073D01*
X44338766Y-21423214D01*
X44260125Y-21577558D01*
X44260123Y-21577561D01*
X44206598Y-21742293D01*
X44206597Y-21742297D01*
X44179500Y-21913385D01*
X44179500Y-22086614D01*
X44206597Y-22257702D01*
X44206598Y-22257706D01*
X44260123Y-22422438D01*
X44260125Y-22422441D01*
X44293468Y-22487882D01*
X44338768Y-22576788D01*
X44440586Y-22716928D01*
X44563072Y-22839414D01*
X44703212Y-22941232D01*
X44857555Y-23019873D01*
X44857557Y-23019873D01*
X44857558Y-23019874D01*
X44857561Y-23019876D01*
X45022293Y-23073401D01*
X45022297Y-23073402D01*
X45193386Y-23100500D01*
X45193389Y-23100500D01*
X45366614Y-23100500D01*
X45537702Y-23073402D01*
X45537706Y-23073401D01*
X45702438Y-23019876D01*
X45702440Y-23019874D01*
X45702445Y-23019873D01*
X45856788Y-22941232D01*
X45996928Y-22839414D01*
X46119414Y-22716928D01*
X46221232Y-22576788D01*
X46299873Y-22422445D01*
X46299874Y-22422440D01*
X46299876Y-22422438D01*
X46353401Y-22257706D01*
X46353402Y-22257702D01*
X46380500Y-22086614D01*
X46380500Y-21913385D01*
X46719500Y-21913385D01*
X46719500Y-22086614D01*
X46746597Y-22257702D01*
X46746598Y-22257706D01*
X46800123Y-22422438D01*
X46800125Y-22422441D01*
X46833468Y-22487882D01*
X46878768Y-22576788D01*
X46980586Y-22716928D01*
X47103072Y-22839414D01*
X47243212Y-22941232D01*
X47397555Y-23019873D01*
X47397557Y-23019873D01*
X47397558Y-23019874D01*
X47397561Y-23019876D01*
X47562293Y-23073401D01*
X47562297Y-23073402D01*
X47733386Y-23100500D01*
X47733389Y-23100500D01*
X47906614Y-23100500D01*
X48077702Y-23073402D01*
X48077706Y-23073401D01*
X48242438Y-23019876D01*
X48242440Y-23019874D01*
X48242445Y-23019873D01*
X48396788Y-22941232D01*
X48536928Y-22839414D01*
X48659414Y-22716928D01*
X48761232Y-22576788D01*
X48839873Y-22422445D01*
X48839874Y-22422440D01*
X48839876Y-22422438D01*
X48893401Y-22257706D01*
X48893402Y-22257702D01*
X48920500Y-22086614D01*
X48920500Y-21913385D01*
X49259500Y-21913385D01*
X49259500Y-22086614D01*
X49286597Y-22257702D01*
X49286598Y-22257706D01*
X49340123Y-22422438D01*
X49340125Y-22422441D01*
X49373468Y-22487882D01*
X49418768Y-22576788D01*
X49520586Y-22716928D01*
X49643072Y-22839414D01*
X49783212Y-22941232D01*
X49937555Y-23019873D01*
X49937557Y-23019873D01*
X49937558Y-23019874D01*
X49937561Y-23019876D01*
X50102293Y-23073401D01*
X50102297Y-23073402D01*
X50273386Y-23100500D01*
X50273389Y-23100500D01*
X50446614Y-23100500D01*
X50617702Y-23073402D01*
X50617706Y-23073401D01*
X50782438Y-23019876D01*
X50782440Y-23019874D01*
X50782445Y-23019873D01*
X50936788Y-22941232D01*
X51076928Y-22839414D01*
X51199414Y-22716928D01*
X51301232Y-22576788D01*
X51379873Y-22422445D01*
X51379874Y-22422440D01*
X51379876Y-22422438D01*
X51433401Y-22257706D01*
X51433402Y-22257702D01*
X51460500Y-22086614D01*
X51460500Y-21913385D01*
X51799500Y-21913385D01*
X51799500Y-22086614D01*
X51826597Y-22257702D01*
X51826598Y-22257706D01*
X51880123Y-22422438D01*
X51880125Y-22422441D01*
X51913468Y-22487882D01*
X51958768Y-22576788D01*
X52060586Y-22716928D01*
X52183072Y-22839414D01*
X52323212Y-22941232D01*
X52477555Y-23019873D01*
X52477557Y-23019873D01*
X52477558Y-23019874D01*
X52477561Y-23019876D01*
X52642293Y-23073401D01*
X52642297Y-23073402D01*
X52813386Y-23100500D01*
X52813389Y-23100500D01*
X52986614Y-23100500D01*
X53157702Y-23073402D01*
X53157706Y-23073401D01*
X53322438Y-23019876D01*
X53322440Y-23019874D01*
X53322445Y-23019873D01*
X53476788Y-22941232D01*
X53616928Y-22839414D01*
X53739414Y-22716928D01*
X53841232Y-22576788D01*
X53919873Y-22422445D01*
X53919874Y-22422440D01*
X53919876Y-22422438D01*
X53973401Y-22257706D01*
X53973402Y-22257702D01*
X54000500Y-22086614D01*
X54000500Y-21913385D01*
X53973402Y-21742297D01*
X53973401Y-21742293D01*
X53919876Y-21577561D01*
X53919874Y-21577558D01*
X53919873Y-21577557D01*
X53919873Y-21577555D01*
X53841232Y-21423212D01*
X53739414Y-21283072D01*
X53616928Y-21160586D01*
X53476788Y-21058768D01*
X53476787Y-21058767D01*
X53476785Y-21058766D01*
X53322441Y-20980125D01*
X53322438Y-20980123D01*
X53157706Y-20926598D01*
X53157702Y-20926597D01*
X52986614Y-20899500D01*
X52986611Y-20899500D01*
X52813389Y-20899500D01*
X52813386Y-20899500D01*
X52642297Y-20926597D01*
X52642293Y-20926598D01*
X52477561Y-20980123D01*
X52477558Y-20980125D01*
X52323214Y-21058766D01*
X52183073Y-21160585D01*
X52060585Y-21283073D01*
X51958766Y-21423214D01*
X51880125Y-21577558D01*
X51880123Y-21577561D01*
X51826598Y-21742293D01*
X51826597Y-21742297D01*
X51799500Y-21913385D01*
X51460500Y-21913385D01*
X51433402Y-21742297D01*
X51433401Y-21742293D01*
X51379876Y-21577561D01*
X51379874Y-21577558D01*
X51379873Y-21577557D01*
X51379873Y-21577555D01*
X51301232Y-21423212D01*
X51199414Y-21283072D01*
X51076928Y-21160586D01*
X50936788Y-21058768D01*
X50936787Y-21058767D01*
X50936785Y-21058766D01*
X50782441Y-20980125D01*
X50782438Y-20980123D01*
X50617706Y-20926598D01*
X50617702Y-20926597D01*
X50446614Y-20899500D01*
X50446611Y-20899500D01*
X50273389Y-20899500D01*
X50273386Y-20899500D01*
X50102297Y-20926597D01*
X50102293Y-20926598D01*
X49937561Y-20980123D01*
X49937558Y-20980125D01*
X49783214Y-21058766D01*
X49643073Y-21160585D01*
X49520585Y-21283073D01*
X49418766Y-21423214D01*
X49340125Y-21577558D01*
X49340123Y-21577561D01*
X49286598Y-21742293D01*
X49286597Y-21742297D01*
X49259500Y-21913385D01*
X48920500Y-21913385D01*
X48893402Y-21742297D01*
X48893401Y-21742293D01*
X48839876Y-21577561D01*
X48839874Y-21577558D01*
X48839873Y-21577557D01*
X48839873Y-21577555D01*
X48761232Y-21423212D01*
X48659414Y-21283072D01*
X48536928Y-21160586D01*
X48396788Y-21058768D01*
X48396787Y-21058767D01*
X48396785Y-21058766D01*
X48242441Y-20980125D01*
X48242438Y-20980123D01*
X48077706Y-20926598D01*
X48077702Y-20926597D01*
X47906614Y-20899500D01*
X47906611Y-20899500D01*
X47733389Y-20899500D01*
X47733386Y-20899500D01*
X47562297Y-20926597D01*
X47562293Y-20926598D01*
X47397561Y-20980123D01*
X47397558Y-20980125D01*
X47243214Y-21058766D01*
X47103073Y-21160585D01*
X46980585Y-21283073D01*
X46878766Y-21423214D01*
X46800125Y-21577558D01*
X46800123Y-21577561D01*
X46746598Y-21742293D01*
X46746597Y-21742297D01*
X46719500Y-21913385D01*
X46380500Y-21913385D01*
X46353402Y-21742297D01*
X46353401Y-21742293D01*
X46299876Y-21577561D01*
X46299874Y-21577558D01*
X46299873Y-21577557D01*
X46299873Y-21577555D01*
X46221232Y-21423212D01*
X46119414Y-21283072D01*
X45996928Y-21160586D01*
X45856788Y-21058768D01*
X45856787Y-21058767D01*
X45856785Y-21058766D01*
X45709555Y-20983749D01*
X45666290Y-20940484D01*
X45655500Y-20895539D01*
X45655500Y-20774500D01*
X45674407Y-20716309D01*
X45723907Y-20680345D01*
X45754500Y-20675500D01*
X49349433Y-20675500D01*
X49349435Y-20675500D01*
X49444938Y-20649910D01*
X49444940Y-20649908D01*
X49444942Y-20649908D01*
X49470377Y-20635222D01*
X49530562Y-20600475D01*
X49600475Y-20530562D01*
X49649910Y-20444938D01*
X49675500Y-20349435D01*
X49675500Y-19131383D01*
X49694407Y-19073192D01*
X49743907Y-19037228D01*
X49793816Y-19034286D01*
X49802259Y-19035965D01*
X49802260Y-19035966D01*
X49818975Y-19039290D01*
X49875317Y-19050499D01*
X49875324Y-19050499D01*
X49875326Y-19050500D01*
X49875327Y-19050500D01*
X50324673Y-19050500D01*
X50324674Y-19050500D01*
X50397740Y-19035966D01*
X50444999Y-19004388D01*
X50503886Y-18987780D01*
X50554999Y-19004388D01*
X50573363Y-19016658D01*
X50602256Y-19035964D01*
X50602257Y-19035964D01*
X50602260Y-19035966D01*
X50651447Y-19045750D01*
X50675315Y-19050498D01*
X50675320Y-19050498D01*
X50675326Y-19050500D01*
X50675327Y-19050500D01*
X51124673Y-19050500D01*
X51124674Y-19050500D01*
X51197740Y-19035966D01*
X51244999Y-19004388D01*
X51303886Y-18987780D01*
X51354999Y-19004388D01*
X51373363Y-19016658D01*
X51402256Y-19035964D01*
X51402257Y-19035964D01*
X51402260Y-19035966D01*
X51451447Y-19045750D01*
X51475315Y-19050498D01*
X51475320Y-19050498D01*
X51475326Y-19050500D01*
X51475327Y-19050500D01*
X51924673Y-19050500D01*
X51924674Y-19050500D01*
X51997740Y-19035966D01*
X52044999Y-19004388D01*
X52103886Y-18987780D01*
X52154999Y-19004388D01*
X52173363Y-19016658D01*
X52202256Y-19035964D01*
X52202257Y-19035964D01*
X52202260Y-19035966D01*
X52251447Y-19045750D01*
X52275315Y-19050498D01*
X52275320Y-19050498D01*
X52275326Y-19050500D01*
X52275327Y-19050500D01*
X52724673Y-19050500D01*
X52724674Y-19050500D01*
X52797740Y-19035966D01*
X52880601Y-18980601D01*
X52935966Y-18897740D01*
X52950500Y-18824674D01*
X52950500Y-17975326D01*
X52935966Y-17902260D01*
X52927164Y-17889087D01*
X52880602Y-17819400D01*
X52880599Y-17819397D01*
X52797742Y-17764035D01*
X52797740Y-17764034D01*
X52797737Y-17764033D01*
X52797736Y-17764033D01*
X52724684Y-17749501D01*
X52724674Y-17749500D01*
X52275326Y-17749500D01*
X52275325Y-17749500D01*
X52275315Y-17749501D01*
X52202263Y-17764033D01*
X52202254Y-17764036D01*
X52155000Y-17795610D01*
X52096112Y-17812218D01*
X52045000Y-17795610D01*
X51997745Y-17764036D01*
X51997740Y-17764034D01*
X51997737Y-17764033D01*
X51997736Y-17764033D01*
X51924684Y-17749501D01*
X51924674Y-17749500D01*
X51475326Y-17749500D01*
X51475325Y-17749500D01*
X51475315Y-17749501D01*
X51402263Y-17764033D01*
X51402254Y-17764036D01*
X51355000Y-17795610D01*
X51296112Y-17812218D01*
X51245000Y-17795610D01*
X51197745Y-17764036D01*
X51197740Y-17764034D01*
X51197737Y-17764033D01*
X51197736Y-17764033D01*
X51124684Y-17749501D01*
X51124674Y-17749500D01*
X50675326Y-17749500D01*
X50675325Y-17749500D01*
X50675315Y-17749501D01*
X50602263Y-17764033D01*
X50602254Y-17764036D01*
X50555000Y-17795610D01*
X50496112Y-17812218D01*
X50445000Y-17795610D01*
X50397745Y-17764036D01*
X50397740Y-17764034D01*
X50397737Y-17764033D01*
X50397736Y-17764033D01*
X50324684Y-17749501D01*
X50324674Y-17749500D01*
X49875326Y-17749500D01*
X49875325Y-17749500D01*
X49875315Y-17749501D01*
X49802263Y-17764033D01*
X49802254Y-17764036D01*
X49755000Y-17795610D01*
X49696112Y-17812218D01*
X49645000Y-17795610D01*
X49597745Y-17764036D01*
X49597740Y-17764034D01*
X49597737Y-17764033D01*
X49597736Y-17764033D01*
X49524684Y-17749501D01*
X49524674Y-17749500D01*
X49075326Y-17749500D01*
X49075325Y-17749500D01*
X49075315Y-17749501D01*
X49002263Y-17764033D01*
X49002254Y-17764036D01*
X48955000Y-17795610D01*
X48896112Y-17812218D01*
X48845000Y-17795610D01*
X48797745Y-17764036D01*
X48797740Y-17764034D01*
X48797737Y-17764033D01*
X48797736Y-17764033D01*
X48724684Y-17749501D01*
X48724674Y-17749500D01*
X48275326Y-17749500D01*
X48275325Y-17749500D01*
X48275315Y-17749501D01*
X48202263Y-17764033D01*
X48202254Y-17764036D01*
X48155000Y-17795610D01*
X48096112Y-17812218D01*
X48045000Y-17795610D01*
X47997745Y-17764036D01*
X47997740Y-17764034D01*
X47997737Y-17764033D01*
X47997736Y-17764033D01*
X47924684Y-17749501D01*
X47924674Y-17749500D01*
X47475326Y-17749500D01*
X47475325Y-17749500D01*
X47475315Y-17749501D01*
X47402263Y-17764033D01*
X47402254Y-17764036D01*
X47355000Y-17795610D01*
X47296112Y-17812218D01*
X47245000Y-17795610D01*
X47197745Y-17764036D01*
X47197740Y-17764034D01*
X47197737Y-17764033D01*
X47197736Y-17764033D01*
X47124684Y-17749501D01*
X47124674Y-17749500D01*
X46675326Y-17749500D01*
X46675325Y-17749500D01*
X46675315Y-17749501D01*
X46602263Y-17764033D01*
X46602254Y-17764036D01*
X46555000Y-17795610D01*
X46496112Y-17812218D01*
X46445000Y-17795610D01*
X46397745Y-17764036D01*
X46397740Y-17764034D01*
X46397737Y-17764033D01*
X46397736Y-17764033D01*
X46324684Y-17749501D01*
X46324674Y-17749500D01*
X45875326Y-17749500D01*
X45875325Y-17749500D01*
X45875315Y-17749501D01*
X45802263Y-17764033D01*
X45802254Y-17764036D01*
X45755000Y-17795610D01*
X45696112Y-17812218D01*
X45645000Y-17795610D01*
X45597745Y-17764036D01*
X45597740Y-17764034D01*
X45597737Y-17764033D01*
X45597736Y-17764033D01*
X45524684Y-17749501D01*
X45524674Y-17749500D01*
X45075326Y-17749500D01*
X45075325Y-17749500D01*
X45075315Y-17749501D01*
X45002263Y-17764033D01*
X45002254Y-17764036D01*
X44955000Y-17795610D01*
X44896112Y-17812218D01*
X44845000Y-17795610D01*
X44797745Y-17764036D01*
X44797740Y-17764034D01*
X44797737Y-17764033D01*
X44797736Y-17764033D01*
X44724684Y-17749501D01*
X44724674Y-17749500D01*
X44319780Y-17749500D01*
X44261589Y-17730593D01*
X44225625Y-17681093D01*
X44225625Y-17619907D01*
X44233562Y-17603540D01*
X44235961Y-17597746D01*
X44235966Y-17597740D01*
X44250500Y-17524674D01*
X44250500Y-17075326D01*
X44235966Y-17002260D01*
X44235964Y-17002257D01*
X44235964Y-17002256D01*
X44210638Y-16964354D01*
X44204388Y-16955000D01*
X44187780Y-16896114D01*
X44204388Y-16845000D01*
X44235966Y-16797740D01*
X44250500Y-16724674D01*
X44250500Y-16275326D01*
X44250375Y-16274700D01*
X44241679Y-16230980D01*
X44235966Y-16202260D01*
X44235964Y-16202257D01*
X44235964Y-16202256D01*
X44221095Y-16180004D01*
X44204388Y-16155000D01*
X44187780Y-16096114D01*
X44204388Y-16045000D01*
X44235966Y-15997740D01*
X44250500Y-15924674D01*
X44250500Y-15475326D01*
X44235966Y-15402260D01*
X44235964Y-15402257D01*
X44235964Y-15402256D01*
X44220422Y-15378996D01*
X44204388Y-15355000D01*
X44187780Y-15296114D01*
X44204388Y-15245000D01*
X44235966Y-15197740D01*
X44250500Y-15124674D01*
X44250500Y-14675326D01*
X44235966Y-14602260D01*
X44235964Y-14602257D01*
X44235964Y-14602256D01*
X44221095Y-14580004D01*
X44204388Y-14555000D01*
X44187780Y-14496114D01*
X44204388Y-14445000D01*
X44235966Y-14397740D01*
X44250500Y-14324674D01*
X44250500Y-13875326D01*
X44235966Y-13802260D01*
X44235964Y-13802257D01*
X44235964Y-13802256D01*
X44221095Y-13780004D01*
X44204388Y-13755000D01*
X44187780Y-13696114D01*
X44204388Y-13645000D01*
X44235966Y-13597740D01*
X44250500Y-13524674D01*
X44250500Y-13075326D01*
X44235966Y-13002260D01*
X44235964Y-13002257D01*
X44235964Y-13002256D01*
X44216179Y-12972646D01*
X44204388Y-12955000D01*
X44187780Y-12896114D01*
X44204388Y-12845000D01*
X44235966Y-12797740D01*
X44250500Y-12724674D01*
X44250500Y-12275326D01*
X44248537Y-12265460D01*
X44246962Y-12257541D01*
X44235966Y-12202260D01*
X44235964Y-12202257D01*
X44235964Y-12202256D01*
X44221095Y-12180004D01*
X44204388Y-12155000D01*
X44187780Y-12096114D01*
X44204388Y-12045000D01*
X44235966Y-11997740D01*
X44250500Y-11924674D01*
X44250500Y-11475326D01*
X44235966Y-11402260D01*
X44235964Y-11402257D01*
X44235964Y-11402256D01*
X44221095Y-11380004D01*
X44204388Y-11355000D01*
X44187780Y-11296114D01*
X44204388Y-11245000D01*
X44235966Y-11197740D01*
X44250500Y-11124674D01*
X44250500Y-10675326D01*
X44235966Y-10602260D01*
X44235964Y-10602257D01*
X44235964Y-10602256D01*
X44221095Y-10580004D01*
X44204388Y-10555000D01*
X44187780Y-10496114D01*
X44204388Y-10445000D01*
X44235966Y-10397740D01*
X44250500Y-10324674D01*
X44250500Y-9875326D01*
X44235966Y-9802260D01*
X44197188Y-9744224D01*
X44180602Y-9719400D01*
X44180599Y-9719397D01*
X44097742Y-9664035D01*
X44097740Y-9664034D01*
X44097737Y-9664033D01*
X44097736Y-9664033D01*
X44024684Y-9649501D01*
X44024674Y-9649500D01*
X43175326Y-9649500D01*
X43175325Y-9649500D01*
X43175315Y-9649501D01*
X43102263Y-9664033D01*
X43102257Y-9664035D01*
X43019400Y-9719397D01*
X43019397Y-9719400D01*
X42964035Y-9802257D01*
X42964033Y-9802263D01*
X42949501Y-9875315D01*
X42949500Y-9875327D01*
X42949500Y-10324672D01*
X42949501Y-10324684D01*
X42964033Y-10397736D01*
X42964036Y-10397745D01*
X42995610Y-10445000D01*
X43012218Y-10503888D01*
X42995610Y-10555000D01*
X42964036Y-10602254D01*
X42964033Y-10602263D01*
X42949501Y-10675315D01*
X42949500Y-10675327D01*
X42949500Y-11124672D01*
X42949501Y-11124684D01*
X42964033Y-11197736D01*
X42964036Y-11197745D01*
X42995610Y-11245000D01*
X43012218Y-11303888D01*
X42995610Y-11355000D01*
X42964036Y-11402254D01*
X42964033Y-11402263D01*
X42949501Y-11475315D01*
X42949500Y-11475327D01*
X42949500Y-11924672D01*
X42949501Y-11924684D01*
X42964033Y-11997736D01*
X42964036Y-11997745D01*
X42995610Y-12045000D01*
X43012218Y-12103888D01*
X42995610Y-12155000D01*
X42964036Y-12202254D01*
X42964033Y-12202263D01*
X42949501Y-12275315D01*
X42949500Y-12275327D01*
X42949500Y-12724672D01*
X42949501Y-12724684D01*
X42964033Y-12797736D01*
X42964036Y-12797745D01*
X42995610Y-12845000D01*
X43012218Y-12903888D01*
X42995610Y-12955000D01*
X42964036Y-13002254D01*
X42964033Y-13002263D01*
X42949501Y-13075315D01*
X42949500Y-13075327D01*
X42949500Y-13524672D01*
X42949501Y-13524684D01*
X42964033Y-13597736D01*
X42964036Y-13597745D01*
X42995610Y-13645000D01*
X43012218Y-13703888D01*
X42995610Y-13755000D01*
X42964036Y-13802254D01*
X42964033Y-13802263D01*
X42949501Y-13875315D01*
X42949500Y-13875327D01*
X42949500Y-14324672D01*
X42949501Y-14324684D01*
X42964033Y-14397736D01*
X42964036Y-14397745D01*
X42995610Y-14445000D01*
X43012218Y-14503888D01*
X42995610Y-14555000D01*
X42964036Y-14602254D01*
X42964033Y-14602263D01*
X42949501Y-14675315D01*
X42949500Y-14675327D01*
X42949500Y-15124672D01*
X42949501Y-15124684D01*
X42964033Y-15197736D01*
X42964036Y-15197745D01*
X42995610Y-15245000D01*
X43012218Y-15303888D01*
X43007136Y-15331540D01*
X43002934Y-15344039D01*
X42964034Y-15402260D01*
X42949500Y-15475326D01*
X42949500Y-15503027D01*
X42944342Y-15518374D01*
X42935287Y-15530575D01*
X42930593Y-15545025D01*
X42916377Y-15556058D01*
X42907881Y-15567509D01*
X42897380Y-15570804D01*
X42887003Y-15578859D01*
X41011003Y-16323005D01*
X40949941Y-16326885D01*
X40898259Y-16294134D01*
X40875699Y-16237259D01*
X40875500Y-16230980D01*
X40875500Y-7475327D01*
X42949500Y-7475327D01*
X42949500Y-7924672D01*
X42949501Y-7924684D01*
X42964033Y-7997736D01*
X42964036Y-7997745D01*
X42995610Y-8045000D01*
X43012218Y-8103888D01*
X42995610Y-8155000D01*
X42964036Y-8202254D01*
X42964033Y-8202263D01*
X42949501Y-8275315D01*
X42949500Y-8275327D01*
X42949500Y-8724672D01*
X42949501Y-8724684D01*
X42964033Y-8797736D01*
X42964035Y-8797742D01*
X43019397Y-8880599D01*
X43019399Y-8880601D01*
X43102260Y-8935966D01*
X43157808Y-8947015D01*
X43175315Y-8950498D01*
X43175320Y-8950498D01*
X43175326Y-8950500D01*
X43175327Y-8950500D01*
X44024673Y-8950500D01*
X44024674Y-8950500D01*
X44097740Y-8935966D01*
X44180601Y-8880601D01*
X44235966Y-8797740D01*
X44250500Y-8724674D01*
X44250500Y-8275326D01*
X44235966Y-8202260D01*
X44235964Y-8202257D01*
X44235964Y-8202256D01*
X44209058Y-8161989D01*
X44204388Y-8155000D01*
X44187780Y-8096114D01*
X44204388Y-8045000D01*
X44235966Y-7997740D01*
X44250500Y-7924674D01*
X44250500Y-7475326D01*
X44235966Y-7402260D01*
X44196903Y-7343797D01*
X44180602Y-7319400D01*
X44180599Y-7319397D01*
X44097742Y-7264035D01*
X44097740Y-7264034D01*
X44097737Y-7264033D01*
X44097736Y-7264033D01*
X44024684Y-7249501D01*
X44024674Y-7249500D01*
X43175326Y-7249500D01*
X43175325Y-7249500D01*
X43175315Y-7249501D01*
X43102263Y-7264033D01*
X43102257Y-7264035D01*
X43019400Y-7319397D01*
X43019397Y-7319400D01*
X42964035Y-7402257D01*
X42964033Y-7402263D01*
X42949501Y-7475315D01*
X42949500Y-7475327D01*
X40875500Y-7475327D01*
X40875500Y-6149500D01*
X40894407Y-6091309D01*
X40943907Y-6055345D01*
X40974500Y-6050500D01*
X44753697Y-6050500D01*
X44811888Y-6069407D01*
X44847852Y-6118907D01*
X44850795Y-6168813D01*
X44849500Y-6175320D01*
X44849500Y-7024672D01*
X44849501Y-7024684D01*
X44864033Y-7097736D01*
X44864035Y-7097742D01*
X44919397Y-7180599D01*
X44919399Y-7180601D01*
X45002260Y-7235966D01*
X45057808Y-7247015D01*
X45075315Y-7250498D01*
X45075320Y-7250498D01*
X45075326Y-7250500D01*
X45075327Y-7250500D01*
X45524673Y-7250500D01*
X45524674Y-7250500D01*
X45597740Y-7235966D01*
X45644999Y-7204388D01*
X45703886Y-7187780D01*
X45754999Y-7204388D01*
X45780004Y-7221095D01*
X45802256Y-7235964D01*
X45802257Y-7235964D01*
X45802260Y-7235966D01*
X45857808Y-7247015D01*
X45875315Y-7250498D01*
X45875320Y-7250498D01*
X45875326Y-7250500D01*
X45875327Y-7250500D01*
X46324673Y-7250500D01*
X46324674Y-7250500D01*
X46397740Y-7235966D01*
X46444999Y-7204388D01*
X46503886Y-7187780D01*
X46554999Y-7204388D01*
X46580004Y-7221095D01*
X46602256Y-7235964D01*
X46602257Y-7235964D01*
X46602260Y-7235966D01*
X46657808Y-7247015D01*
X46675315Y-7250498D01*
X46675320Y-7250498D01*
X46675326Y-7250500D01*
X46675327Y-7250500D01*
X47124673Y-7250500D01*
X47124674Y-7250500D01*
X47197740Y-7235966D01*
X47244999Y-7204388D01*
X47303886Y-7187780D01*
X47354999Y-7204388D01*
X47380004Y-7221095D01*
X47402256Y-7235964D01*
X47402257Y-7235964D01*
X47402260Y-7235966D01*
X47457808Y-7247015D01*
X47475315Y-7250498D01*
X47475320Y-7250498D01*
X47475326Y-7250500D01*
X47475327Y-7250500D01*
X47924673Y-7250500D01*
X47924674Y-7250500D01*
X47997740Y-7235966D01*
X48044999Y-7204388D01*
X48103886Y-7187780D01*
X48154999Y-7204388D01*
X48180004Y-7221095D01*
X48202256Y-7235964D01*
X48202257Y-7235964D01*
X48202260Y-7235966D01*
X48257808Y-7247015D01*
X48275315Y-7250498D01*
X48275320Y-7250498D01*
X48275326Y-7250500D01*
X48275327Y-7250500D01*
X48724673Y-7250500D01*
X48724674Y-7250500D01*
X48797740Y-7235966D01*
X48844999Y-7204388D01*
X48903886Y-7187780D01*
X48954999Y-7204388D01*
X48980004Y-7221095D01*
X49002256Y-7235964D01*
X49002257Y-7235964D01*
X49002260Y-7235966D01*
X49057808Y-7247015D01*
X49075315Y-7250498D01*
X49075320Y-7250498D01*
X49075326Y-7250500D01*
X49075327Y-7250500D01*
X49524673Y-7250500D01*
X49524674Y-7250500D01*
X49597740Y-7235966D01*
X49644999Y-7204388D01*
X49703886Y-7187780D01*
X49754999Y-7204388D01*
X49780004Y-7221095D01*
X49802256Y-7235964D01*
X49802257Y-7235964D01*
X49802260Y-7235966D01*
X49857808Y-7247015D01*
X49875315Y-7250498D01*
X49875320Y-7250498D01*
X49875326Y-7250500D01*
X49875327Y-7250500D01*
X50324673Y-7250500D01*
X50324674Y-7250500D01*
X50397740Y-7235966D01*
X50444999Y-7204388D01*
X50503886Y-7187780D01*
X50554999Y-7204388D01*
X50580004Y-7221095D01*
X50602256Y-7235964D01*
X50602257Y-7235964D01*
X50602260Y-7235966D01*
X50657808Y-7247015D01*
X50675315Y-7250498D01*
X50675320Y-7250498D01*
X50675326Y-7250500D01*
X50675327Y-7250500D01*
X51124673Y-7250500D01*
X51124674Y-7250500D01*
X51197740Y-7235966D01*
X51280601Y-7180601D01*
X51335966Y-7097740D01*
X51350500Y-7024674D01*
X51350500Y-6947236D01*
X51363763Y-6897737D01*
X51412984Y-6812485D01*
X51450500Y-6672475D01*
X51450500Y-5427525D01*
X51412984Y-5287515D01*
X51412982Y-5287512D01*
X51412982Y-5287510D01*
X51340512Y-5161989D01*
X51340510Y-5161987D01*
X51340509Y-5161985D01*
X51238015Y-5059491D01*
X51238012Y-5059489D01*
X51238010Y-5059487D01*
X51112488Y-4987017D01*
X51112489Y-4987017D01*
X51082896Y-4979087D01*
X50972475Y-4949500D01*
X50972474Y-4949500D01*
X40974500Y-4949500D01*
X40916309Y-4930593D01*
X40880345Y-4881093D01*
X40875500Y-4850500D01*
X40875500Y-1450566D01*
X40875500Y-1450565D01*
X40849910Y-1355062D01*
X40846121Y-1348500D01*
X40833400Y-1288653D01*
X40858285Y-1232757D01*
X40911273Y-1202164D01*
X40931858Y-1200000D01*
X54201000Y-1200000D01*
X54259191Y-1218907D01*
X54295155Y-1268407D01*
X54300000Y-1299000D01*
X54300000Y-23701000D01*
X54281093Y-23759191D01*
X54231593Y-23795155D01*
X54201000Y-23800000D01*
X40716966Y-23800000D01*
X40658775Y-23781093D01*
X40622811Y-23731593D01*
X40622811Y-23670407D01*
X40638424Y-23640733D01*
X40640510Y-23638014D01*
X40712982Y-23512489D01*
X40712982Y-23512487D01*
X40712984Y-23512485D01*
X40750500Y-23372475D01*
X40750500Y-23199500D01*
X40769407Y-23141309D01*
X40818907Y-23105345D01*
X40849500Y-23100500D01*
X41074673Y-23100500D01*
X41074674Y-23100500D01*
X41147740Y-23085966D01*
X41230601Y-23030601D01*
X41285966Y-22947740D01*
X41300500Y-22874674D01*
X41300500Y-21125326D01*
X41285966Y-21052260D01*
X41237768Y-20980125D01*
X41230602Y-20969400D01*
X41230599Y-20969397D01*
X41147742Y-20914035D01*
X41147740Y-20914034D01*
X41147737Y-20914033D01*
X41147736Y-20914033D01*
X41074684Y-20899501D01*
X41074674Y-20899500D01*
X39325326Y-20899500D01*
X39325325Y-20899500D01*
X39325315Y-20899501D01*
X39252263Y-20914033D01*
X39252257Y-20914035D01*
X39169400Y-20969397D01*
X39169397Y-20969400D01*
X39114035Y-21052257D01*
X39114033Y-21052263D01*
X39099501Y-21125315D01*
X39099500Y-21125327D01*
X39099500Y-22650500D01*
X39080593Y-22708691D01*
X39031093Y-22744655D01*
X39000500Y-22749500D01*
X35945950Y-22749500D01*
X35887759Y-22730593D01*
X35851795Y-22681093D01*
X35851795Y-22619907D01*
X35866697Y-22591171D01*
X35877464Y-22576788D01*
X35947336Y-22483450D01*
X35994491Y-22357022D01*
X36000500Y-22301130D01*
X36000500Y-21698870D01*
X35994491Y-21642978D01*
X35965158Y-21564335D01*
X35962539Y-21503208D01*
X35968321Y-21487626D01*
X36173011Y-21052257D01*
X36182357Y-21032378D01*
X36224226Y-20987762D01*
X36271949Y-20975500D01*
X36429273Y-20975500D01*
X36429273Y-20975499D01*
X36459699Y-20972646D01*
X36587882Y-20927793D01*
X36697150Y-20847150D01*
X36777793Y-20737882D01*
X36822646Y-20609699D01*
X36825499Y-20579273D01*
X36825500Y-20579273D01*
X36825500Y-20070727D01*
X36825499Y-20070725D01*
X36825478Y-20070504D01*
X36822646Y-20040301D01*
X36777793Y-19912118D01*
X36768481Y-19899501D01*
X36697154Y-19802855D01*
X36697152Y-19802853D01*
X36697150Y-19802850D01*
X36697146Y-19802847D01*
X36697144Y-19802845D01*
X36587883Y-19722207D01*
X36459703Y-19677355D01*
X36459694Y-19677353D01*
X36429274Y-19674500D01*
X36429266Y-19674500D01*
X35770734Y-19674500D01*
X35770725Y-19674500D01*
X35740305Y-19677353D01*
X35740296Y-19677355D01*
X35612116Y-19722207D01*
X35502855Y-19802845D01*
X35502845Y-19802855D01*
X35422207Y-19912116D01*
X35377355Y-20040296D01*
X35377353Y-20040305D01*
X35374500Y-20070725D01*
X35374500Y-20579274D01*
X35377353Y-20609694D01*
X35377355Y-20609703D01*
X35422205Y-20737878D01*
X35422206Y-20737880D01*
X35422207Y-20737882D01*
X35429150Y-20747290D01*
X35448492Y-20805335D01*
X35439087Y-20848199D01*
X35265404Y-21217622D01*
X35223535Y-21262238D01*
X35175812Y-21274500D01*
X35048870Y-21274500D01*
X35022333Y-21277353D01*
X34992983Y-21280508D01*
X34992974Y-21280510D01*
X34984092Y-21283823D01*
X34922963Y-21286440D01*
X34871970Y-21252627D01*
X34850591Y-21195298D01*
X34850500Y-21191063D01*
X34850500Y-20252525D01*
X34829861Y-20175500D01*
X34812984Y-20112515D01*
X34812982Y-20112512D01*
X34812982Y-20112510D01*
X34740512Y-19986989D01*
X34740510Y-19986987D01*
X34740509Y-19986985D01*
X34638015Y-19884491D01*
X34638012Y-19884489D01*
X34638010Y-19884487D01*
X34512488Y-19812017D01*
X34512489Y-19812017D01*
X34442786Y-19793340D01*
X34372475Y-19774500D01*
X34372474Y-19774500D01*
X33091314Y-19774500D01*
X33033123Y-19755593D01*
X33032526Y-19755155D01*
X32987883Y-19722207D01*
X32859703Y-19677355D01*
X32859694Y-19677353D01*
X32829274Y-19674500D01*
X32829266Y-19674500D01*
X32170734Y-19674500D01*
X32170725Y-19674500D01*
X32140305Y-19677353D01*
X32140296Y-19677355D01*
X32012116Y-19722207D01*
X31902855Y-19802845D01*
X31902845Y-19802855D01*
X31822207Y-19912116D01*
X31777355Y-20040296D01*
X31777353Y-20040305D01*
X31774500Y-20070725D01*
X31774500Y-20579274D01*
X31777353Y-20609694D01*
X31777355Y-20609703D01*
X31822207Y-20737883D01*
X31902845Y-20847144D01*
X31902847Y-20847146D01*
X31902850Y-20847150D01*
X31902853Y-20847152D01*
X31902855Y-20847154D01*
X32012116Y-20927792D01*
X32012117Y-20927792D01*
X32012118Y-20927793D01*
X32140301Y-20972646D01*
X32170725Y-20975499D01*
X32170727Y-20975500D01*
X32170734Y-20975500D01*
X32829273Y-20975500D01*
X32829273Y-20975499D01*
X32859699Y-20972646D01*
X32987882Y-20927793D01*
X33006526Y-20914033D01*
X33032526Y-20894845D01*
X33090574Y-20875503D01*
X33091314Y-20875500D01*
X33650500Y-20875500D01*
X33708691Y-20894407D01*
X33744655Y-20943907D01*
X33749500Y-20974500D01*
X33749500Y-23372474D01*
X33787017Y-23512489D01*
X33859489Y-23638014D01*
X33861576Y-23640733D01*
X33862395Y-23643046D01*
X33862735Y-23643635D01*
X33862625Y-23643697D01*
X33882000Y-23698409D01*
X33864622Y-23757074D01*
X33816081Y-23794322D01*
X33783034Y-23800000D01*
X1299000Y-23800000D01*
X1240809Y-23781093D01*
X1204845Y-23731593D01*
X1200000Y-23701000D01*
X1200000Y-21670725D01*
X3524500Y-21670725D01*
X3524500Y-22329274D01*
X3527353Y-22359694D01*
X3527355Y-22359703D01*
X3572207Y-22487883D01*
X3652845Y-22597144D01*
X3652847Y-22597146D01*
X3652850Y-22597150D01*
X3652853Y-22597152D01*
X3652855Y-22597154D01*
X3762116Y-22677792D01*
X3762117Y-22677792D01*
X3762118Y-22677793D01*
X3890301Y-22722646D01*
X3920725Y-22725499D01*
X3920727Y-22725500D01*
X3920734Y-22725500D01*
X4429273Y-22725500D01*
X4429273Y-22725499D01*
X4459699Y-22722646D01*
X4587882Y-22677793D01*
X4697150Y-22597150D01*
X4777793Y-22487882D01*
X4822646Y-22359699D01*
X4825499Y-22329273D01*
X4825500Y-22329273D01*
X4825500Y-21670727D01*
X4825499Y-21670725D01*
X5174500Y-21670725D01*
X5174500Y-22329274D01*
X5177353Y-22359694D01*
X5177355Y-22359703D01*
X5222207Y-22487883D01*
X5302845Y-22597144D01*
X5302847Y-22597146D01*
X5302850Y-22597150D01*
X5302853Y-22597152D01*
X5302855Y-22597154D01*
X5412116Y-22677792D01*
X5412117Y-22677792D01*
X5412118Y-22677793D01*
X5540301Y-22722646D01*
X5570725Y-22725499D01*
X5570727Y-22725500D01*
X5570734Y-22725500D01*
X6079273Y-22725500D01*
X6079273Y-22725499D01*
X6109699Y-22722646D01*
X6237882Y-22677793D01*
X6347150Y-22597150D01*
X6427793Y-22487882D01*
X6472646Y-22359699D01*
X6475499Y-22329273D01*
X6475500Y-22329273D01*
X6475500Y-21670727D01*
X6475499Y-21670725D01*
X7524500Y-21670725D01*
X7524500Y-22329274D01*
X7527353Y-22359694D01*
X7527355Y-22359703D01*
X7572207Y-22487883D01*
X7652845Y-22597144D01*
X7652847Y-22597146D01*
X7652850Y-22597150D01*
X7652853Y-22597152D01*
X7652855Y-22597154D01*
X7762116Y-22677792D01*
X7762117Y-22677792D01*
X7762118Y-22677793D01*
X7890301Y-22722646D01*
X7920725Y-22725499D01*
X7920727Y-22725500D01*
X7920734Y-22725500D01*
X8429273Y-22725500D01*
X8429273Y-22725499D01*
X8459699Y-22722646D01*
X8587882Y-22677793D01*
X8697150Y-22597150D01*
X8777793Y-22487882D01*
X8822646Y-22359699D01*
X8825499Y-22329273D01*
X8825500Y-22329273D01*
X8825500Y-21670727D01*
X8825499Y-21670725D01*
X8825487Y-21670596D01*
X8822646Y-21640301D01*
X8777793Y-21512118D01*
X8771217Y-21503208D01*
X8697154Y-21402855D01*
X8697152Y-21402853D01*
X8697150Y-21402850D01*
X8697146Y-21402847D01*
X8697144Y-21402845D01*
X8587883Y-21322207D01*
X8459703Y-21277355D01*
X8459694Y-21277353D01*
X8429274Y-21274500D01*
X8429266Y-21274500D01*
X7920734Y-21274500D01*
X7920725Y-21274500D01*
X7890305Y-21277353D01*
X7890296Y-21277355D01*
X7762116Y-21322207D01*
X7652855Y-21402845D01*
X7652845Y-21402855D01*
X7572207Y-21512116D01*
X7527355Y-21640296D01*
X7527353Y-21640305D01*
X7524500Y-21670725D01*
X6475499Y-21670725D01*
X6475487Y-21670596D01*
X6472646Y-21640301D01*
X6427793Y-21512118D01*
X6421217Y-21503208D01*
X6347154Y-21402855D01*
X6347152Y-21402853D01*
X6347150Y-21402850D01*
X6347146Y-21402847D01*
X6347144Y-21402845D01*
X6237883Y-21322207D01*
X6109703Y-21277355D01*
X6109694Y-21277353D01*
X6079274Y-21274500D01*
X6079266Y-21274500D01*
X5570734Y-21274500D01*
X5570725Y-21274500D01*
X5540305Y-21277353D01*
X5540296Y-21277355D01*
X5412116Y-21322207D01*
X5302855Y-21402845D01*
X5302845Y-21402855D01*
X5222207Y-21512116D01*
X5177355Y-21640296D01*
X5177353Y-21640305D01*
X5174500Y-21670725D01*
X4825499Y-21670725D01*
X4825487Y-21670596D01*
X4822646Y-21640301D01*
X4777793Y-21512118D01*
X4771217Y-21503208D01*
X4697154Y-21402855D01*
X4697152Y-21402853D01*
X4697150Y-21402850D01*
X4697146Y-21402847D01*
X4697144Y-21402845D01*
X4587883Y-21322207D01*
X4459703Y-21277355D01*
X4459694Y-21277353D01*
X4429274Y-21274500D01*
X4429266Y-21274500D01*
X3920734Y-21274500D01*
X3920725Y-21274500D01*
X3890305Y-21277353D01*
X3890296Y-21277355D01*
X3762116Y-21322207D01*
X3652855Y-21402845D01*
X3652845Y-21402855D01*
X3572207Y-21512116D01*
X3527355Y-21640296D01*
X3527353Y-21640305D01*
X3524500Y-21670725D01*
X1200000Y-21670725D01*
X1200000Y-14953385D01*
X1899500Y-14953385D01*
X1899500Y-15126614D01*
X1926597Y-15297702D01*
X1926598Y-15297706D01*
X1980123Y-15462438D01*
X1980125Y-15462441D01*
X2035302Y-15570734D01*
X2058768Y-15616788D01*
X2160586Y-15756928D01*
X2283072Y-15879414D01*
X2423212Y-15981232D01*
X2577555Y-16059873D01*
X2577557Y-16059873D01*
X2577558Y-16059874D01*
X2577561Y-16059876D01*
X2742293Y-16113401D01*
X2742297Y-16113402D01*
X2913386Y-16140500D01*
X2913389Y-16140500D01*
X3086614Y-16140500D01*
X3257702Y-16113402D01*
X3257706Y-16113401D01*
X3422438Y-16059876D01*
X3422440Y-16059874D01*
X3422445Y-16059873D01*
X3576788Y-15981232D01*
X3716928Y-15879414D01*
X3839414Y-15756928D01*
X3941232Y-15616788D01*
X4019873Y-15462445D01*
X4035784Y-15413477D01*
X6299500Y-15413477D01*
X6299500Y-15776520D01*
X6299501Y-15776523D01*
X6314352Y-15870299D01*
X6314354Y-15870304D01*
X6371950Y-15983342D01*
X6461658Y-16073050D01*
X6574696Y-16130646D01*
X6668481Y-16145500D01*
X8381518Y-16145499D01*
X8381521Y-16145499D01*
X8381522Y-16145498D01*
X8428411Y-16138072D01*
X8475299Y-16130647D01*
X8475299Y-16130646D01*
X8475304Y-16130646D01*
X8588342Y-16073050D01*
X8678050Y-15983342D01*
X8735646Y-15870304D01*
X8750500Y-15776519D01*
X8750499Y-15413482D01*
X8745038Y-15378999D01*
X8735647Y-15319700D01*
X8735646Y-15319698D01*
X8735646Y-15319696D01*
X8678050Y-15206658D01*
X8588342Y-15116950D01*
X8475304Y-15059354D01*
X8475305Y-15059354D01*
X8381521Y-15044500D01*
X6668478Y-15044500D01*
X6668476Y-15044501D01*
X6574700Y-15059352D01*
X6574695Y-15059354D01*
X6461659Y-15116949D01*
X6371949Y-15206659D01*
X6314354Y-15319695D01*
X6299500Y-15413477D01*
X4035784Y-15413477D01*
X4066254Y-15319700D01*
X4073401Y-15297706D01*
X4073402Y-15297702D01*
X4100500Y-15126614D01*
X4100500Y-14953385D01*
X4073402Y-14782297D01*
X4073401Y-14782293D01*
X4019876Y-14617561D01*
X4019874Y-14617558D01*
X4019873Y-14617557D01*
X4019873Y-14617555D01*
X3982622Y-14544445D01*
X3973051Y-14484013D01*
X4000829Y-14429496D01*
X4055345Y-14401719D01*
X4070832Y-14400500D01*
X10500500Y-14400500D01*
X10558691Y-14419407D01*
X10594655Y-14468907D01*
X10599500Y-14499500D01*
X10599500Y-16812273D01*
X10599500Y-16917727D01*
X10624792Y-17012118D01*
X10626794Y-17019589D01*
X10626794Y-17019590D01*
X10679518Y-17110910D01*
X10679520Y-17110913D01*
X10754087Y-17185480D01*
X10845413Y-17238207D01*
X10947273Y-17265500D01*
X11293100Y-17265500D01*
X11351291Y-17284407D01*
X11363103Y-17294496D01*
X11390901Y-17322293D01*
X11411658Y-17343050D01*
X11524696Y-17400646D01*
X11534625Y-17402218D01*
X11589140Y-17429993D01*
X11616919Y-17484509D01*
X11607349Y-17544941D01*
X11564086Y-17588207D01*
X11534628Y-17597780D01*
X11524698Y-17599353D01*
X11524695Y-17599354D01*
X11411658Y-17656950D01*
X11411656Y-17656951D01*
X11363103Y-17705504D01*
X11308586Y-17733281D01*
X11293100Y-17734500D01*
X11052727Y-17734500D01*
X10947273Y-17734500D01*
X10845413Y-17761793D01*
X10845412Y-17761793D01*
X10845410Y-17761794D01*
X10845409Y-17761794D01*
X10754089Y-17814518D01*
X10679518Y-17889089D01*
X10626794Y-17980409D01*
X10626794Y-17980410D01*
X10626793Y-17980412D01*
X10626793Y-17980413D01*
X10605859Y-18058543D01*
X10599500Y-18082274D01*
X10599500Y-18227874D01*
X10580593Y-18286065D01*
X10531093Y-18322029D01*
X10475897Y-18323768D01*
X8789260Y-17891035D01*
X8737593Y-17858260D01*
X8725658Y-17840093D01*
X8678050Y-17746658D01*
X8588342Y-17656950D01*
X8475304Y-17599354D01*
X8475305Y-17599354D01*
X8381522Y-17584500D01*
X8381519Y-17584500D01*
X7603699Y-17584500D01*
X7591832Y-17583786D01*
X7591608Y-17583759D01*
X7591607Y-17583759D01*
X7549184Y-17584210D01*
X7522562Y-17584494D01*
X7521508Y-17584500D01*
X6668478Y-17584500D01*
X6668476Y-17584501D01*
X6574700Y-17599352D01*
X6574695Y-17599354D01*
X6461659Y-17656949D01*
X6371949Y-17746659D01*
X6314354Y-17859695D01*
X6299500Y-17953477D01*
X6299500Y-18316520D01*
X6299501Y-18316523D01*
X6314352Y-18410299D01*
X6314354Y-18410304D01*
X6371950Y-18523342D01*
X6461658Y-18613050D01*
X6574696Y-18670646D01*
X6584625Y-18672218D01*
X6639140Y-18699993D01*
X6666919Y-18754509D01*
X6657349Y-18814941D01*
X6614086Y-18858207D01*
X6584628Y-18867780D01*
X6574698Y-18869353D01*
X6574695Y-18869354D01*
X6461659Y-18926949D01*
X6371949Y-19016659D01*
X6314354Y-19129695D01*
X6299500Y-19223477D01*
X6299500Y-19586520D01*
X6299501Y-19586523D01*
X6314352Y-19680299D01*
X6314354Y-19680304D01*
X6371950Y-19793342D01*
X6461658Y-19883050D01*
X6493943Y-19899500D01*
X6519046Y-19912291D01*
X6562310Y-19955556D01*
X6571881Y-20015988D01*
X6544103Y-20070504D01*
X6489586Y-20098281D01*
X6474100Y-20099500D01*
X3499500Y-20099500D01*
X3441309Y-20080593D01*
X3405345Y-20031093D01*
X3400500Y-20000500D01*
X3400500Y-18671722D01*
X3419407Y-18613531D01*
X3454554Y-18583512D01*
X3576788Y-18521232D01*
X3716928Y-18419414D01*
X3839414Y-18296928D01*
X3941232Y-18156788D01*
X4019873Y-18002445D01*
X4019874Y-18002440D01*
X4019876Y-18002438D01*
X4073401Y-17837706D01*
X4073402Y-17837702D01*
X4100500Y-17666614D01*
X4100500Y-17493385D01*
X4073402Y-17322297D01*
X4073401Y-17322293D01*
X4019876Y-17157561D01*
X4019874Y-17157558D01*
X4019873Y-17157557D01*
X4019873Y-17157555D01*
X3941232Y-17003212D01*
X3839414Y-16863072D01*
X3716928Y-16740586D01*
X3576788Y-16638768D01*
X3576787Y-16638767D01*
X3576785Y-16638766D01*
X3422441Y-16560125D01*
X3422438Y-16560123D01*
X3257706Y-16506598D01*
X3257702Y-16506597D01*
X3086614Y-16479500D01*
X3086611Y-16479500D01*
X2913389Y-16479500D01*
X2913386Y-16479500D01*
X2742297Y-16506597D01*
X2742293Y-16506598D01*
X2577561Y-16560123D01*
X2577558Y-16560125D01*
X2423214Y-16638766D01*
X2283073Y-16740585D01*
X2160585Y-16863073D01*
X2058766Y-17003214D01*
X1980125Y-17157558D01*
X1980123Y-17157561D01*
X1926598Y-17322293D01*
X1926597Y-17322297D01*
X1899500Y-17493385D01*
X1899500Y-17666614D01*
X1926597Y-17837702D01*
X1926598Y-17837706D01*
X1980123Y-18002438D01*
X1980125Y-18002441D01*
X2056761Y-18152850D01*
X2058768Y-18156788D01*
X2160586Y-18296928D01*
X2283072Y-18419414D01*
X2384891Y-18493390D01*
X2423213Y-18521233D01*
X2500961Y-18560846D01*
X2545445Y-18583512D01*
X2588709Y-18626776D01*
X2599500Y-18671722D01*
X2599500Y-20447273D01*
X2599500Y-20552727D01*
X2625540Y-20649910D01*
X2626794Y-20654589D01*
X2626794Y-20654590D01*
X2679516Y-20745906D01*
X2679520Y-20745913D01*
X2754087Y-20820480D01*
X2845413Y-20873207D01*
X2947273Y-20900500D01*
X2947275Y-20900500D01*
X9406969Y-20900500D01*
X9465160Y-20919407D01*
X9501124Y-20968907D01*
X9501124Y-21030093D01*
X9476974Y-21069501D01*
X9421976Y-21124500D01*
X9384488Y-21161988D01*
X9384487Y-21161989D01*
X9312017Y-21287511D01*
X9312015Y-21287515D01*
X9273567Y-21431001D01*
X9257597Y-21464164D01*
X9222207Y-21512116D01*
X9177355Y-21640296D01*
X9177353Y-21640305D01*
X9174500Y-21670725D01*
X9174500Y-22329274D01*
X9177353Y-22359694D01*
X9177355Y-22359703D01*
X9222207Y-22487883D01*
X9302845Y-22597144D01*
X9302847Y-22597146D01*
X9302850Y-22597150D01*
X9302853Y-22597152D01*
X9302855Y-22597154D01*
X9412116Y-22677792D01*
X9412117Y-22677792D01*
X9412118Y-22677793D01*
X9540301Y-22722646D01*
X9570725Y-22725499D01*
X9570727Y-22725500D01*
X9570734Y-22725500D01*
X10079273Y-22725500D01*
X10079273Y-22725499D01*
X10109699Y-22722646D01*
X10237882Y-22677793D01*
X10347150Y-22597150D01*
X10427793Y-22487882D01*
X10472646Y-22359699D01*
X10475499Y-22329273D01*
X10475500Y-22329273D01*
X10475500Y-22301126D01*
X31024499Y-22301126D01*
X31030508Y-22357016D01*
X31030510Y-22357027D01*
X31077662Y-22483448D01*
X31147533Y-22576785D01*
X31158528Y-22591472D01*
X31169252Y-22599500D01*
X31266551Y-22672337D01*
X31392972Y-22719489D01*
X31392973Y-22719489D01*
X31392978Y-22719491D01*
X31448870Y-22725500D01*
X31448874Y-22725500D01*
X31976126Y-22725500D01*
X31976130Y-22725500D01*
X32032022Y-22719491D01*
X32075918Y-22703118D01*
X32158448Y-22672337D01*
X32158448Y-22672336D01*
X32158450Y-22672336D01*
X32266472Y-22591472D01*
X32347336Y-22483450D01*
X32394491Y-22357022D01*
X32400500Y-22301130D01*
X32400500Y-21698870D01*
X32394491Y-21642978D01*
X32368195Y-21572475D01*
X32347337Y-21516551D01*
X32266474Y-21408531D01*
X32266472Y-21408528D01*
X32162375Y-21330602D01*
X32158448Y-21327662D01*
X32032027Y-21280510D01*
X32032022Y-21280509D01*
X32032020Y-21280508D01*
X32032016Y-21280508D01*
X32002676Y-21277354D01*
X31976130Y-21274500D01*
X31448870Y-21274500D01*
X31422333Y-21277353D01*
X31392983Y-21280508D01*
X31392972Y-21280510D01*
X31266551Y-21327662D01*
X31158531Y-21408525D01*
X31158525Y-21408531D01*
X31077662Y-21516551D01*
X31030510Y-21642972D01*
X31030508Y-21642983D01*
X31024500Y-21698873D01*
X31024500Y-22301126D01*
X31024499Y-22301126D01*
X10475500Y-22301126D01*
X10475500Y-22149500D01*
X10494407Y-22091309D01*
X10543907Y-22055345D01*
X10574500Y-22050500D01*
X22072474Y-22050500D01*
X22072475Y-22050500D01*
X22212485Y-22012984D01*
X22212487Y-22012982D01*
X22212489Y-22012982D01*
X22338010Y-21940512D01*
X22338010Y-21940511D01*
X22338015Y-21940509D01*
X22440509Y-21838015D01*
X22512984Y-21712485D01*
X22518448Y-21692093D01*
X22524208Y-21670598D01*
X22524208Y-21670596D01*
X22531607Y-21642983D01*
X22550500Y-21572475D01*
X22550500Y-20125327D01*
X22849500Y-20125327D01*
X22849500Y-21174672D01*
X22849501Y-21174684D01*
X22864033Y-21247736D01*
X22864035Y-21247742D01*
X22919397Y-21330599D01*
X22919399Y-21330601D01*
X23002260Y-21385966D01*
X23057808Y-21397015D01*
X23075315Y-21400498D01*
X23075320Y-21400498D01*
X23075326Y-21400500D01*
X23075327Y-21400500D01*
X24674673Y-21400500D01*
X24674674Y-21400500D01*
X24747740Y-21385966D01*
X24830601Y-21330601D01*
X24885966Y-21247740D01*
X24900500Y-21174674D01*
X24900500Y-21124500D01*
X24919407Y-21066309D01*
X24968907Y-21030345D01*
X24999500Y-21025500D01*
X28000500Y-21025500D01*
X28058691Y-21044407D01*
X28094655Y-21093907D01*
X28099500Y-21124500D01*
X28099500Y-21174672D01*
X28099501Y-21174684D01*
X28114033Y-21247736D01*
X28114035Y-21247742D01*
X28169397Y-21330599D01*
X28169399Y-21330601D01*
X28252260Y-21385966D01*
X28307808Y-21397015D01*
X28325315Y-21400498D01*
X28325320Y-21400498D01*
X28325326Y-21400500D01*
X28325327Y-21400500D01*
X29924673Y-21400500D01*
X29924674Y-21400500D01*
X29997740Y-21385966D01*
X30080601Y-21330601D01*
X30135966Y-21247740D01*
X30150500Y-21174674D01*
X30150500Y-20125326D01*
X30135966Y-20052260D01*
X30092354Y-19986989D01*
X30080602Y-19969400D01*
X30080599Y-19969397D01*
X29997742Y-19914035D01*
X29997740Y-19914034D01*
X29997737Y-19914033D01*
X29997736Y-19914033D01*
X29924684Y-19899501D01*
X29924674Y-19899500D01*
X28325326Y-19899500D01*
X28325325Y-19899500D01*
X28325315Y-19899501D01*
X28252263Y-19914033D01*
X28252257Y-19914035D01*
X28169400Y-19969397D01*
X28169397Y-19969400D01*
X28114035Y-20052257D01*
X28114033Y-20052263D01*
X28099501Y-20125315D01*
X28099500Y-20125327D01*
X28099500Y-20175500D01*
X28080593Y-20233691D01*
X28031093Y-20269655D01*
X28000500Y-20274500D01*
X24999500Y-20274500D01*
X24941309Y-20255593D01*
X24905345Y-20206093D01*
X24900500Y-20175500D01*
X24900500Y-20125327D01*
X24900498Y-20125315D01*
X24891602Y-20080593D01*
X24885966Y-20052260D01*
X24842354Y-19986989D01*
X24830602Y-19969400D01*
X24830599Y-19969397D01*
X24747742Y-19914035D01*
X24747740Y-19914034D01*
X24747737Y-19914033D01*
X24747736Y-19914033D01*
X24674684Y-19899501D01*
X24674674Y-19899500D01*
X23075326Y-19899500D01*
X23075325Y-19899500D01*
X23075315Y-19899501D01*
X23002263Y-19914033D01*
X23002257Y-19914035D01*
X22919400Y-19969397D01*
X22919397Y-19969400D01*
X22864035Y-20052257D01*
X22864033Y-20052263D01*
X22849501Y-20125315D01*
X22849500Y-20125327D01*
X22550500Y-20125327D01*
X22550500Y-19606626D01*
X22550521Y-19604599D01*
X22551868Y-19538810D01*
X22551239Y-19533143D01*
X22550500Y-19527524D01*
X22541018Y-19492141D01*
X22533452Y-19463906D01*
X22532983Y-19462083D01*
X22517226Y-19398059D01*
X22517224Y-19398055D01*
X22515174Y-19392802D01*
X22512985Y-19387519D01*
X22512984Y-19387515D01*
X22480027Y-19330432D01*
X22479095Y-19328779D01*
X22447335Y-19271072D01*
X22447332Y-19271068D01*
X22447331Y-19271067D01*
X22443980Y-19266508D01*
X22440508Y-19261983D01*
X22393948Y-19215423D01*
X22392530Y-19213976D01*
X22346958Y-19166499D01*
X22342564Y-19162982D01*
X22338010Y-19159487D01*
X22281027Y-19126588D01*
X22279283Y-19125558D01*
X22222937Y-19091471D01*
X22217736Y-19089191D01*
X22212490Y-19087017D01*
X22160894Y-19073192D01*
X22148876Y-19069971D01*
X22146949Y-19069433D01*
X22083733Y-19051100D01*
X22083729Y-19051099D01*
X22083728Y-19051099D01*
X22083726Y-19051098D01*
X22078060Y-19050234D01*
X22072477Y-19049500D01*
X22072475Y-19049500D01*
X22006623Y-19049500D01*
X22004598Y-19049479D01*
X21991788Y-19049216D01*
X21822473Y-19045750D01*
X21764682Y-19025656D01*
X21729739Y-18975430D01*
X21725500Y-18946771D01*
X21725500Y-18420725D01*
X31774500Y-18420725D01*
X31774500Y-18929274D01*
X31777353Y-18959694D01*
X31777355Y-18959703D01*
X31822207Y-19087883D01*
X31902845Y-19197144D01*
X31902847Y-19197146D01*
X31902850Y-19197150D01*
X31902853Y-19197152D01*
X31902855Y-19197154D01*
X32012116Y-19277792D01*
X32012117Y-19277792D01*
X32012118Y-19277793D01*
X32140301Y-19322646D01*
X32170725Y-19325499D01*
X32170727Y-19325500D01*
X32170734Y-19325500D01*
X32829273Y-19325500D01*
X32829273Y-19325499D01*
X32859699Y-19322646D01*
X32987882Y-19277793D01*
X33097150Y-19197150D01*
X33177793Y-19087882D01*
X33222646Y-18959699D01*
X33225499Y-18929273D01*
X33225500Y-18929273D01*
X33225500Y-18420727D01*
X33225499Y-18420725D01*
X33222646Y-18390305D01*
X33222646Y-18390301D01*
X33177793Y-18262118D01*
X33150767Y-18225499D01*
X33097154Y-18152855D01*
X33097152Y-18152853D01*
X33097150Y-18152850D01*
X33097146Y-18152847D01*
X33097144Y-18152845D01*
X32987883Y-18072207D01*
X32859703Y-18027355D01*
X32859694Y-18027353D01*
X32829274Y-18024500D01*
X32829266Y-18024500D01*
X32170734Y-18024500D01*
X32170725Y-18024500D01*
X32140305Y-18027353D01*
X32140296Y-18027355D01*
X32012116Y-18072207D01*
X31902855Y-18152845D01*
X31902845Y-18152855D01*
X31822207Y-18262116D01*
X31777355Y-18390296D01*
X31777353Y-18390305D01*
X31774500Y-18420725D01*
X21725500Y-18420725D01*
X21725500Y-18236909D01*
X21744407Y-18178718D01*
X21765712Y-18157254D01*
X21810009Y-18124561D01*
X21847150Y-18097150D01*
X21927793Y-17987882D01*
X21972646Y-17859699D01*
X21975499Y-17829273D01*
X21975500Y-17829273D01*
X21975500Y-17170727D01*
X21975499Y-17170725D01*
X21972646Y-17140301D01*
X21927793Y-17012118D01*
X21922457Y-17004888D01*
X21847154Y-16902855D01*
X21847152Y-16902853D01*
X21847150Y-16902850D01*
X21847145Y-16902846D01*
X21847144Y-16902845D01*
X21737883Y-16822207D01*
X21609703Y-16777355D01*
X21609694Y-16777353D01*
X21579274Y-16774500D01*
X21579266Y-16774500D01*
X21070734Y-16774500D01*
X21070725Y-16774500D01*
X21040305Y-16777353D01*
X21040296Y-16777355D01*
X20912116Y-16822207D01*
X20802855Y-16902845D01*
X20802845Y-16902855D01*
X20722207Y-17012116D01*
X20677355Y-17140296D01*
X20677353Y-17140305D01*
X20674500Y-17170725D01*
X20674500Y-17829274D01*
X20677353Y-17859694D01*
X20677355Y-17859703D01*
X20722207Y-17987883D01*
X20802845Y-18097144D01*
X20802847Y-18097146D01*
X20802850Y-18097150D01*
X20802853Y-18097152D01*
X20802854Y-18097153D01*
X20884288Y-18157254D01*
X20919881Y-18207021D01*
X20924500Y-18236909D01*
X20924500Y-18926318D01*
X20905593Y-18984509D01*
X20856093Y-19020473D01*
X20823474Y-19025297D01*
X13454677Y-18874440D01*
X13426119Y-18869619D01*
X13425304Y-18869354D01*
X13425298Y-18869353D01*
X13415370Y-18867780D01*
X13360855Y-18840002D01*
X13333079Y-18785485D01*
X13342651Y-18725053D01*
X13385916Y-18681790D01*
X13415376Y-18672218D01*
X13425304Y-18670646D01*
X13538342Y-18613050D01*
X13628050Y-18523342D01*
X13685646Y-18410304D01*
X13700500Y-18316519D01*
X13700499Y-18124560D01*
X13719406Y-18066370D01*
X13761444Y-18033166D01*
X14061787Y-17908106D01*
X14099842Y-17900500D01*
X16493100Y-17900500D01*
X16551291Y-17919407D01*
X16563103Y-17929496D01*
X16608923Y-17975315D01*
X16611658Y-17978050D01*
X16724696Y-18035646D01*
X16818481Y-18050500D01*
X18056518Y-18050499D01*
X18056521Y-18050499D01*
X18056522Y-18050498D01*
X18103411Y-18043072D01*
X18150299Y-18035647D01*
X18150299Y-18035646D01*
X18150304Y-18035646D01*
X18263342Y-17978050D01*
X18353050Y-17888342D01*
X18410646Y-17775304D01*
X18425500Y-17681519D01*
X18425499Y-17318482D01*
X18412786Y-17238207D01*
X18410647Y-17224700D01*
X18410646Y-17224698D01*
X18410646Y-17224696D01*
X18353050Y-17111658D01*
X18263342Y-17021950D01*
X18150304Y-16964354D01*
X18150305Y-16964354D01*
X18056521Y-16949500D01*
X16818478Y-16949500D01*
X16818476Y-16949501D01*
X16724700Y-16964352D01*
X16724697Y-16964353D01*
X16645143Y-17004888D01*
X16584711Y-17014459D01*
X16530194Y-16986681D01*
X16502417Y-16932165D01*
X16511989Y-16871733D01*
X16535646Y-16825304D01*
X16550500Y-16731519D01*
X16550499Y-16368482D01*
X16547121Y-16347150D01*
X16535647Y-16274700D01*
X16535646Y-16274698D01*
X16535646Y-16274696D01*
X16478050Y-16161658D01*
X16388342Y-16071950D01*
X16275304Y-16014354D01*
X16275305Y-16014354D01*
X16181521Y-15999500D01*
X14943478Y-15999500D01*
X14943476Y-15999501D01*
X14849700Y-16014352D01*
X14849695Y-16014354D01*
X14736659Y-16071949D01*
X14646948Y-16161660D01*
X14628889Y-16197103D01*
X14585624Y-16240367D01*
X14550728Y-16250646D01*
X13513365Y-16356482D01*
X13458372Y-16346203D01*
X13425304Y-16329354D01*
X13415370Y-16327780D01*
X13360855Y-16300002D01*
X13333079Y-16245485D01*
X13342651Y-16185053D01*
X13385916Y-16141790D01*
X13415376Y-16132218D01*
X13425304Y-16130646D01*
X13538342Y-16073050D01*
X13628050Y-15983342D01*
X13685646Y-15870304D01*
X13700500Y-15776519D01*
X13700499Y-15413482D01*
X13695038Y-15378999D01*
X13685647Y-15319700D01*
X13685646Y-15319698D01*
X13685646Y-15319696D01*
X13628050Y-15206658D01*
X13538342Y-15116950D01*
X13425304Y-15059354D01*
X13425305Y-15059354D01*
X13331521Y-15044500D01*
X11618478Y-15044500D01*
X11618476Y-15044501D01*
X11516999Y-15060572D01*
X11516528Y-15057602D01*
X11468891Y-15057594D01*
X11419397Y-15021622D01*
X11400500Y-14963445D01*
X11400500Y-14499500D01*
X11419407Y-14441309D01*
X11468907Y-14405345D01*
X11499500Y-14400500D01*
X19175500Y-14400500D01*
X19233691Y-14419407D01*
X19269655Y-14468907D01*
X19274500Y-14499500D01*
X19274500Y-16763091D01*
X19255593Y-16821282D01*
X19234288Y-16842746D01*
X19152854Y-16902846D01*
X19152845Y-16902855D01*
X19072207Y-17012116D01*
X19027355Y-17140296D01*
X19027353Y-17140305D01*
X19024500Y-17170725D01*
X19024500Y-17829274D01*
X19027353Y-17859694D01*
X19027355Y-17859703D01*
X19072207Y-17987883D01*
X19152845Y-18097144D01*
X19152847Y-18097146D01*
X19152850Y-18097150D01*
X19152853Y-18097152D01*
X19152855Y-18097154D01*
X19262116Y-18177792D01*
X19262117Y-18177792D01*
X19262118Y-18177793D01*
X19390301Y-18222646D01*
X19420725Y-18225499D01*
X19420727Y-18225500D01*
X19420734Y-18225500D01*
X19929273Y-18225500D01*
X19929273Y-18225499D01*
X19959699Y-18222646D01*
X20087882Y-18177793D01*
X20197150Y-18097150D01*
X20277793Y-17987882D01*
X20322646Y-17859699D01*
X20325499Y-17829273D01*
X20325500Y-17829273D01*
X20325500Y-17170727D01*
X20325499Y-17170725D01*
X20322646Y-17140301D01*
X20277793Y-17012118D01*
X20272457Y-17004888D01*
X20197154Y-16902855D01*
X20197152Y-16902853D01*
X20197150Y-16902850D01*
X20197145Y-16902846D01*
X20115712Y-16842746D01*
X20080119Y-16792979D01*
X20075500Y-16763091D01*
X20075500Y-13947274D01*
X20075500Y-13947273D01*
X20048207Y-13845413D01*
X19995480Y-13754087D01*
X19920913Y-13679520D01*
X19829587Y-13626793D01*
X19727727Y-13599500D01*
X19727725Y-13599500D01*
X6469728Y-13599500D01*
X6411537Y-13580593D01*
X6375573Y-13531093D01*
X6375573Y-13469907D01*
X6376970Y-13465903D01*
X6419412Y-13352114D01*
X6425500Y-13295485D01*
X6425499Y-12704516D01*
X6419412Y-12647886D01*
X6371628Y-12519774D01*
X6289687Y-12410313D01*
X6225445Y-12362222D01*
X6180228Y-12328373D01*
X6180226Y-12328372D01*
X6052114Y-12280588D01*
X6052113Y-12280587D01*
X6013895Y-12276479D01*
X5995485Y-12274500D01*
X5995481Y-12274500D01*
X5454521Y-12274500D01*
X5454515Y-12274501D01*
X5397888Y-12280587D01*
X5397886Y-12280588D01*
X5269774Y-12328372D01*
X5269773Y-12328372D01*
X5269772Y-12328373D01*
X5160315Y-12410311D01*
X5160311Y-12410315D01*
X5078373Y-12519771D01*
X5030587Y-12647887D01*
X5024500Y-12704518D01*
X5024500Y-13295478D01*
X5024501Y-13295484D01*
X5030587Y-13352111D01*
X5030587Y-13352112D01*
X5030588Y-13352114D01*
X5073030Y-13465903D01*
X5075650Y-13527032D01*
X5041840Y-13578027D01*
X4984512Y-13599409D01*
X4980272Y-13599500D01*
X3052727Y-13599500D01*
X2947273Y-13599500D01*
X2845413Y-13626793D01*
X2845412Y-13626793D01*
X2845410Y-13626794D01*
X2845409Y-13626794D01*
X2754089Y-13679518D01*
X2679518Y-13754089D01*
X2626794Y-13845409D01*
X2626794Y-13845410D01*
X2599500Y-13947274D01*
X2599500Y-13948278D01*
X2599277Y-13948962D01*
X2598653Y-13953707D01*
X2597773Y-13953591D01*
X2580593Y-14006469D01*
X2545445Y-14036487D01*
X2526077Y-14046355D01*
X2423213Y-14098766D01*
X2283073Y-14200585D01*
X2160585Y-14323073D01*
X2058766Y-14463214D01*
X1980125Y-14617558D01*
X1980123Y-14617561D01*
X1926598Y-14782293D01*
X1926597Y-14782297D01*
X1899500Y-14953385D01*
X1200000Y-14953385D01*
X1200000Y-6545327D01*
X1899500Y-6545327D01*
X1899500Y-8294672D01*
X1899501Y-8294684D01*
X1914033Y-8367736D01*
X1914035Y-8367742D01*
X1969397Y-8450599D01*
X1969399Y-8450601D01*
X2052260Y-8505966D01*
X2107808Y-8517015D01*
X2125315Y-8520498D01*
X2125320Y-8520498D01*
X2125326Y-8520500D01*
X2125327Y-8520500D01*
X3874673Y-8520500D01*
X3874674Y-8520500D01*
X3947740Y-8505966D01*
X4030601Y-8450601D01*
X4046020Y-8427525D01*
X7949500Y-8427525D01*
X7949500Y-11072475D01*
X7953629Y-11087883D01*
X7987017Y-11212489D01*
X8059487Y-11338010D01*
X8059489Y-11338012D01*
X8059491Y-11338015D01*
X8161985Y-11440509D01*
X8161987Y-11440510D01*
X8161989Y-11440512D01*
X8287511Y-11512982D01*
X8287512Y-11512982D01*
X8287515Y-11512984D01*
X8427525Y-11550500D01*
X8572475Y-11550500D01*
X8850501Y-11550500D01*
X8908692Y-11569407D01*
X8944656Y-11618907D01*
X8949501Y-11649500D01*
X8949501Y-11947870D01*
X8955908Y-12007480D01*
X8955909Y-12007485D01*
X9006202Y-12142329D01*
X9051062Y-12202254D01*
X9092454Y-12257546D01*
X9092457Y-12257548D01*
X9092458Y-12257549D01*
X9207670Y-12343797D01*
X9342511Y-12394089D01*
X9342512Y-12394089D01*
X9342517Y-12394091D01*
X9402127Y-12400500D01*
X11497872Y-12400499D01*
X11557483Y-12394091D01*
X11674357Y-12350500D01*
X11692329Y-12343797D01*
X11692329Y-12343796D01*
X11692331Y-12343796D01*
X11807546Y-12257546D01*
X11893796Y-12142331D01*
X11909585Y-12100000D01*
X11944089Y-12007488D01*
X11944090Y-12007485D01*
X11944091Y-12007483D01*
X11950500Y-11947873D01*
X11950499Y-10052128D01*
X11944091Y-9992517D01*
X11926345Y-9944938D01*
X11893797Y-9857670D01*
X11807549Y-9742458D01*
X11807548Y-9742457D01*
X11807546Y-9742454D01*
X11776746Y-9719397D01*
X11692329Y-9656202D01*
X11557488Y-9605910D01*
X11557483Y-9605909D01*
X11557481Y-9605908D01*
X11557477Y-9605908D01*
X11526249Y-9602550D01*
X11497873Y-9599500D01*
X11497870Y-9599500D01*
X9402133Y-9599500D01*
X9402129Y-9599500D01*
X9402128Y-9599501D01*
X9394949Y-9600272D01*
X9342519Y-9605908D01*
X9342514Y-9605909D01*
X9207668Y-9656203D01*
X9201456Y-9659596D01*
X9200651Y-9658123D01*
X9150908Y-9675072D01*
X9092454Y-9656994D01*
X9055790Y-9608011D01*
X9050500Y-9576082D01*
X9050500Y-9149500D01*
X9069407Y-9091309D01*
X9118907Y-9055345D01*
X9149500Y-9050500D01*
X16722473Y-9050500D01*
X16722474Y-9050500D01*
X16862484Y-9012984D01*
X16862486Y-9012982D01*
X16862488Y-9012982D01*
X16988009Y-8940512D01*
X16988009Y-8940511D01*
X16988014Y-8940509D01*
X17090508Y-8838015D01*
X17162983Y-8712485D01*
X17200499Y-8572475D01*
X17200499Y-7499499D01*
X17219406Y-7441308D01*
X17268906Y-7405344D01*
X17299499Y-7400499D01*
X17697867Y-7400499D01*
X17697872Y-7400499D01*
X17757483Y-7394091D01*
X17824907Y-7368943D01*
X17892329Y-7343797D01*
X17892329Y-7343796D01*
X17892331Y-7343796D01*
X18007546Y-7257546D01*
X18093796Y-7142331D01*
X18097828Y-7131522D01*
X18144089Y-7007488D01*
X18144090Y-7007485D01*
X18144091Y-7007483D01*
X18150500Y-6947873D01*
X18150500Y-6649500D01*
X18169407Y-6591309D01*
X18218907Y-6555345D01*
X18249500Y-6550500D01*
X18575500Y-6550500D01*
X18633691Y-6569407D01*
X18669655Y-6618907D01*
X18674500Y-6649500D01*
X18674500Y-12397475D01*
X18677940Y-12410313D01*
X18712017Y-12537489D01*
X18784487Y-12663010D01*
X18784489Y-12663012D01*
X18784491Y-12663015D01*
X18886985Y-12765509D01*
X18886987Y-12765510D01*
X18886989Y-12765512D01*
X19012511Y-12837982D01*
X19012512Y-12837982D01*
X19012515Y-12837984D01*
X19152525Y-12875500D01*
X19297475Y-12875500D01*
X23408686Y-12875500D01*
X23466877Y-12894407D01*
X23467474Y-12894845D01*
X23512116Y-12927792D01*
X23512117Y-12927792D01*
X23512118Y-12927793D01*
X23640301Y-12972646D01*
X23670725Y-12975499D01*
X23670727Y-12975500D01*
X23670734Y-12975500D01*
X24329273Y-12975500D01*
X24329273Y-12975499D01*
X24359699Y-12972646D01*
X24487882Y-12927793D01*
X24597150Y-12847150D01*
X24677793Y-12737882D01*
X24722646Y-12609699D01*
X24725499Y-12579273D01*
X24725500Y-12579273D01*
X24725500Y-12070727D01*
X24725499Y-12070725D01*
X24722646Y-12040301D01*
X24677793Y-11912118D01*
X24653538Y-11879254D01*
X24597154Y-11802855D01*
X24597152Y-11802853D01*
X24597150Y-11802850D01*
X24597146Y-11802847D01*
X24597144Y-11802845D01*
X24487883Y-11722207D01*
X24359703Y-11677355D01*
X24359694Y-11677353D01*
X24329274Y-11674500D01*
X24329266Y-11674500D01*
X23670734Y-11674500D01*
X23670725Y-11674500D01*
X23640305Y-11677353D01*
X23640296Y-11677355D01*
X23512116Y-11722207D01*
X23467474Y-11755155D01*
X23409426Y-11774497D01*
X23408686Y-11774500D01*
X19874500Y-11774500D01*
X19816309Y-11755593D01*
X19780345Y-11706093D01*
X19775500Y-11675500D01*
X19775500Y-6641588D01*
X19794407Y-6583397D01*
X19795247Y-6582259D01*
X19810671Y-6561655D01*
X19871628Y-6480226D01*
X19919412Y-6352114D01*
X19925500Y-6295485D01*
X19925499Y-5704518D01*
X21824500Y-5704518D01*
X21824500Y-6295478D01*
X21824501Y-6295484D01*
X21830587Y-6352111D01*
X21830587Y-6352112D01*
X21830588Y-6352114D01*
X21878372Y-6480226D01*
X21960313Y-6589687D01*
X22069774Y-6671628D01*
X22197886Y-6719412D01*
X22254515Y-6725500D01*
X22795484Y-6725499D01*
X22852114Y-6719412D01*
X22980226Y-6671628D01*
X23089687Y-6589687D01*
X23171628Y-6480226D01*
X23219412Y-6352114D01*
X23225500Y-6295485D01*
X23225499Y-5704516D01*
X23219412Y-5647886D01*
X23171628Y-5519774D01*
X23089687Y-5410313D01*
X23009786Y-5350500D01*
X22980228Y-5328373D01*
X22980226Y-5328372D01*
X22852114Y-5280588D01*
X22852113Y-5280587D01*
X22813895Y-5276479D01*
X22795485Y-5274500D01*
X22795481Y-5274500D01*
X22254521Y-5274500D01*
X22254515Y-5274501D01*
X22197888Y-5280587D01*
X22197886Y-5280588D01*
X22069774Y-5328372D01*
X22069773Y-5328372D01*
X22069772Y-5328373D01*
X21960315Y-5410311D01*
X21960311Y-5410315D01*
X21878373Y-5519771D01*
X21830587Y-5647887D01*
X21824500Y-5704518D01*
X19925499Y-5704518D01*
X19925499Y-5704516D01*
X19919412Y-5647886D01*
X19871628Y-5519774D01*
X19789687Y-5410313D01*
X19709786Y-5350500D01*
X19680228Y-5328373D01*
X19680226Y-5328372D01*
X19552114Y-5280588D01*
X19552113Y-5280587D01*
X19513895Y-5276479D01*
X19495485Y-5274500D01*
X19495481Y-5274500D01*
X18954521Y-5274500D01*
X18954515Y-5274501D01*
X18897888Y-5280587D01*
X18897886Y-5280588D01*
X18769774Y-5328372D01*
X18769773Y-5328372D01*
X18769772Y-5328373D01*
X18660315Y-5410311D01*
X18655307Y-5415320D01*
X18654306Y-5414319D01*
X18610664Y-5445083D01*
X18581422Y-5449500D01*
X18249499Y-5449500D01*
X18191308Y-5430593D01*
X18155344Y-5381093D01*
X18150499Y-5350500D01*
X18150499Y-5052133D01*
X18150499Y-5052128D01*
X18144091Y-4992517D01*
X18126240Y-4944655D01*
X18093797Y-4857670D01*
X18007549Y-4742458D01*
X18007548Y-4742457D01*
X18007546Y-4742454D01*
X18007541Y-4742450D01*
X17892329Y-4656202D01*
X17757488Y-4605910D01*
X17757483Y-4605909D01*
X17757481Y-4605908D01*
X17757477Y-4605908D01*
X17726249Y-4602550D01*
X17697873Y-4599500D01*
X17697870Y-4599500D01*
X15602133Y-4599500D01*
X15602129Y-4599500D01*
X15602128Y-4599501D01*
X15594949Y-4600272D01*
X15542519Y-4605908D01*
X15542514Y-4605909D01*
X15407670Y-4656202D01*
X15292458Y-4742450D01*
X15292450Y-4742458D01*
X15206202Y-4857670D01*
X15155910Y-4992511D01*
X15155908Y-4992522D01*
X15149500Y-5052129D01*
X15149500Y-6947866D01*
X15149501Y-6947870D01*
X15155908Y-7007480D01*
X15155909Y-7007485D01*
X15206202Y-7142329D01*
X15287178Y-7250498D01*
X15292454Y-7257546D01*
X15292457Y-7257548D01*
X15292458Y-7257549D01*
X15407670Y-7343797D01*
X15542511Y-7394089D01*
X15542512Y-7394089D01*
X15542517Y-7394091D01*
X15602127Y-7400500D01*
X16000499Y-7400499D01*
X16058690Y-7419406D01*
X16094654Y-7468906D01*
X16099499Y-7499499D01*
X16099499Y-7850500D01*
X16080592Y-7908691D01*
X16031092Y-7944655D01*
X16000499Y-7949500D01*
X8572475Y-7949500D01*
X8427525Y-7949500D01*
X8365790Y-7966041D01*
X8287510Y-7987017D01*
X8161989Y-8059487D01*
X8059487Y-8161989D01*
X7987017Y-8287510D01*
X7965519Y-8367742D01*
X7949500Y-8427525D01*
X4046020Y-8427525D01*
X4085966Y-8367740D01*
X4100500Y-8294674D01*
X4100500Y-7730305D01*
X4119407Y-7672114D01*
X4168907Y-7636150D01*
X4170304Y-7635708D01*
X7194519Y-6704675D01*
X7255695Y-6705624D01*
X7258202Y-6706520D01*
X7292978Y-6719491D01*
X7348870Y-6725500D01*
X7348874Y-6725500D01*
X7876126Y-6725500D01*
X7876130Y-6725500D01*
X7932022Y-6719491D01*
X8052123Y-6674696D01*
X8058448Y-6672337D01*
X8058448Y-6672336D01*
X8058450Y-6672336D01*
X8166472Y-6591472D01*
X8247336Y-6483450D01*
X8248288Y-6480899D01*
X8294489Y-6357027D01*
X8294488Y-6357027D01*
X8294491Y-6357022D01*
X8300500Y-6301130D01*
X8300500Y-6301126D01*
X8499499Y-6301126D01*
X8505508Y-6357016D01*
X8505510Y-6357027D01*
X8552662Y-6483448D01*
X8611210Y-6561659D01*
X8633528Y-6591472D01*
X8633531Y-6591474D01*
X8741551Y-6672337D01*
X8867972Y-6719489D01*
X8867973Y-6719489D01*
X8867978Y-6719491D01*
X8923870Y-6725500D01*
X8923874Y-6725500D01*
X9451126Y-6725500D01*
X9451130Y-6725500D01*
X9507022Y-6719491D01*
X9627123Y-6674696D01*
X9633448Y-6672337D01*
X9633448Y-6672336D01*
X9633450Y-6672336D01*
X9741472Y-6591472D01*
X9741652Y-6591230D01*
X9742447Y-6590171D01*
X9743554Y-6589390D01*
X9746483Y-6586462D01*
X9746989Y-6586968D01*
X9792456Y-6554918D01*
X9821700Y-6550500D01*
X10750501Y-6550500D01*
X10808692Y-6569407D01*
X10844656Y-6618907D01*
X10849501Y-6649500D01*
X10849501Y-6947870D01*
X10855908Y-7007480D01*
X10855909Y-7007485D01*
X10906202Y-7142329D01*
X10987178Y-7250498D01*
X10992454Y-7257546D01*
X10992457Y-7257548D01*
X10992458Y-7257549D01*
X11107670Y-7343797D01*
X11242511Y-7394089D01*
X11242512Y-7394089D01*
X11242517Y-7394091D01*
X11302127Y-7400500D01*
X13397872Y-7400499D01*
X13457483Y-7394091D01*
X13524907Y-7368943D01*
X13592329Y-7343797D01*
X13592329Y-7343796D01*
X13592331Y-7343796D01*
X13707546Y-7257546D01*
X13793796Y-7142331D01*
X13797828Y-7131522D01*
X13844089Y-7007488D01*
X13844090Y-7007485D01*
X13844091Y-7007483D01*
X13850500Y-6947873D01*
X13850499Y-5052128D01*
X13844091Y-4992517D01*
X13826240Y-4944655D01*
X13793797Y-4857670D01*
X13707549Y-4742458D01*
X13707548Y-4742457D01*
X13707546Y-4742454D01*
X13707541Y-4742450D01*
X13592329Y-4656202D01*
X13457488Y-4605910D01*
X13457483Y-4605909D01*
X13457481Y-4605908D01*
X13457477Y-4605908D01*
X13426249Y-4602550D01*
X13397873Y-4599500D01*
X13397870Y-4599500D01*
X11302133Y-4599500D01*
X11302129Y-4599500D01*
X11302128Y-4599501D01*
X11294949Y-4600272D01*
X11242519Y-4605908D01*
X11242514Y-4605909D01*
X11107670Y-4656202D01*
X10992458Y-4742450D01*
X10992450Y-4742458D01*
X10906202Y-4857670D01*
X10855910Y-4992511D01*
X10855908Y-4992522D01*
X10849500Y-5052129D01*
X10849500Y-5350500D01*
X10830593Y-5408691D01*
X10781093Y-5444655D01*
X10750500Y-5449500D01*
X9821700Y-5449500D01*
X9763509Y-5430593D01*
X9742447Y-5409829D01*
X9741474Y-5408530D01*
X9741472Y-5408529D01*
X9741472Y-5408528D01*
X9687461Y-5368096D01*
X9633448Y-5327662D01*
X9507027Y-5280510D01*
X9507022Y-5280509D01*
X9507020Y-5280508D01*
X9507016Y-5280508D01*
X9481744Y-5277791D01*
X9451130Y-5274500D01*
X8923870Y-5274500D01*
X8896943Y-5277394D01*
X8867983Y-5280508D01*
X8867972Y-5280510D01*
X8741551Y-5327662D01*
X8633531Y-5408525D01*
X8633525Y-5408531D01*
X8552662Y-5516551D01*
X8505510Y-5642972D01*
X8505508Y-5642983D01*
X8499500Y-5698873D01*
X8499500Y-6301126D01*
X8499499Y-6301126D01*
X8300500Y-6301126D01*
X8300500Y-5698870D01*
X8294491Y-5642978D01*
X8294489Y-5642972D01*
X8247337Y-5516551D01*
X8188789Y-5438340D01*
X8166472Y-5408528D01*
X8129823Y-5381093D01*
X8058448Y-5327662D01*
X7932027Y-5280510D01*
X7932022Y-5280509D01*
X7932020Y-5280508D01*
X7932016Y-5280508D01*
X7906744Y-5277791D01*
X7876130Y-5274500D01*
X7348870Y-5274500D01*
X7321943Y-5277394D01*
X7292983Y-5280508D01*
X7292972Y-5280510D01*
X7166551Y-5327662D01*
X7058531Y-5408525D01*
X7058525Y-5408531D01*
X6977664Y-5516549D01*
X6977663Y-5516551D01*
X6951344Y-5587113D01*
X6913293Y-5635027D01*
X6887716Y-5647133D01*
X4177178Y-6481597D01*
X4116000Y-6480648D01*
X4067064Y-6443921D01*
X4065754Y-6442010D01*
X4041022Y-6404996D01*
X4030602Y-6389400D01*
X4030599Y-6389397D01*
X3947742Y-6334035D01*
X3947740Y-6334034D01*
X3947737Y-6334033D01*
X3947736Y-6334033D01*
X3874684Y-6319501D01*
X3874674Y-6319500D01*
X2125326Y-6319500D01*
X2125325Y-6319500D01*
X2125315Y-6319501D01*
X2052263Y-6334033D01*
X2052257Y-6334035D01*
X1969400Y-6389397D01*
X1969397Y-6389400D01*
X1914035Y-6472257D01*
X1914033Y-6472263D01*
X1899501Y-6545315D01*
X1899500Y-6545327D01*
X1200000Y-6545327D01*
X1200000Y-1299000D01*
X1218907Y-1240809D01*
X1268407Y-1204845D01*
X1299000Y-1200000D01*
X18425501Y-1200000D01*
X18483692Y-1218907D01*
G37*
%TD.AperFunction*%
%TA.AperFunction,Conductor*%
G36*
X35599310Y-12296244D02*
G01*
X35623994Y-12352229D01*
X35624500Y-12362222D01*
X35624500Y-15350500D01*
X35605593Y-15408691D01*
X35556093Y-15444655D01*
X35525500Y-15449500D01*
X34755359Y-15449500D01*
X34697168Y-15430593D01*
X34675708Y-15409293D01*
X34597150Y-15302850D01*
X34597146Y-15302847D01*
X34597144Y-15302845D01*
X34487883Y-15222207D01*
X34359703Y-15177355D01*
X34359694Y-15177353D01*
X34329274Y-15174500D01*
X34329266Y-15174500D01*
X33670734Y-15174500D01*
X33670725Y-15174500D01*
X33640305Y-15177353D01*
X33640296Y-15177355D01*
X33512116Y-15222207D01*
X33402855Y-15302845D01*
X33402845Y-15302855D01*
X33322207Y-15412116D01*
X33277355Y-15540296D01*
X33277353Y-15540305D01*
X33274500Y-15570725D01*
X33274500Y-15725500D01*
X33255593Y-15783691D01*
X33206093Y-15819655D01*
X33175500Y-15824500D01*
X28773460Y-15824500D01*
X28715269Y-15805593D01*
X28679305Y-15756093D01*
X28679305Y-15694907D01*
X28714131Y-15646246D01*
X28789687Y-15589687D01*
X28871628Y-15480226D01*
X28919412Y-15352114D01*
X28925500Y-15295485D01*
X28925499Y-14704516D01*
X28919412Y-14647886D01*
X28871628Y-14519774D01*
X28795245Y-14417738D01*
X28775510Y-14359824D01*
X28775500Y-14358411D01*
X28775500Y-13649500D01*
X28794407Y-13591309D01*
X28843907Y-13555345D01*
X28874500Y-13550500D01*
X34072474Y-13550500D01*
X34072475Y-13550500D01*
X34212485Y-13512984D01*
X34212487Y-13512982D01*
X34212489Y-13512982D01*
X34338010Y-13440512D01*
X34338010Y-13440511D01*
X34338015Y-13440509D01*
X34440509Y-13338015D01*
X34465064Y-13295485D01*
X34512982Y-13212489D01*
X34512982Y-13212487D01*
X34512984Y-13212485D01*
X34550500Y-13072475D01*
X34550500Y-12931556D01*
X34569407Y-12873365D01*
X34590710Y-12851902D01*
X34597150Y-12847150D01*
X34657401Y-12765512D01*
X34677791Y-12737885D01*
X34677792Y-12737883D01*
X34677793Y-12737882D01*
X34709153Y-12648257D01*
X34746218Y-12599579D01*
X34762657Y-12590371D01*
X35485562Y-12271635D01*
X35546433Y-12265460D01*
X35599310Y-12296244D01*
G37*
%TD.AperFunction*%
%TD*%
M02*
