%TF.GenerationSoftware,KiCad,Pcbnew,10.0.5*%
%TF.CreationDate,2026-08-11T06:36:53+03:00*%
%TF.ProjectId,trace-dongle,74726163-652d-4646-9f6e-676c652e6b69,rev?*%
%TF.SameCoordinates,Original*%
%TF.FileFunction,Other,User*%
%FSLAX46Y46*%
G04 Gerber Fmt 4.6, Leading zero omitted, Abs format (unit mm)*
G04 Created by KiCad (PCBNEW 10.0.5) date 2026-08-11 06:36:53*
%MOMM*%
%LPD*%
G01*
G04 APERTURE LIST*
%ADD10C,0.050000*%
G04 APERTURE END LIST*
%TO.C,LED2*%
D10*
X42520000Y-17470000D02*
X45480000Y-17470000D01*
X45480000Y-18930000D01*
X42520000Y-18930000D01*
X42520000Y-17470000D01*
%TO.C,R4*%
X31270000Y-11020000D02*
X32730000Y-11020000D01*
X32730000Y-13980000D01*
X31270000Y-13980000D01*
X31270000Y-11020000D01*
%TO.C,R2*%
X45270000Y-13720000D02*
X46730000Y-13720000D01*
X46730000Y-16680000D01*
X45270000Y-16680000D01*
X45270000Y-13720000D01*
%TO.C,C3*%
X37300000Y-10020000D02*
X40700000Y-10020000D01*
X40700000Y-11980000D01*
X37300000Y-11980000D01*
X37300000Y-10020000D01*
%TO.C,C2*%
X25700000Y-4400000D02*
X30300000Y-4400000D01*
X30300000Y-7600000D01*
X25700000Y-7600000D01*
X25700000Y-4400000D01*
%TO.C,U1*%
X49500000Y-8000000D02*
X66900000Y-8000000D01*
X49500000Y-22000000D02*
X49500000Y-8000000D01*
X66900000Y-8000000D02*
X66900000Y-22000000D01*
X66900000Y-22000000D02*
X49500000Y-22000000D01*
%TO.C,R6*%
X47270000Y-19520000D02*
X48730000Y-19520000D01*
X48730000Y-22480000D01*
X47270000Y-22480000D01*
X47270000Y-19520000D01*
%TO.C,C7*%
X53320000Y-5270000D02*
X56280000Y-5270000D01*
X56280000Y-6730000D01*
X53320000Y-6730000D01*
X53320000Y-5270000D01*
%TO.C,R5*%
X60320000Y-5270000D02*
X63280000Y-5270000D01*
X63280000Y-6730000D01*
X60320000Y-6730000D01*
X60320000Y-5270000D01*
%TO.C,U2*%
X9300000Y-15540000D02*
X10800000Y-15540000D01*
X9300000Y-20460000D02*
X9300000Y-15540000D01*
X10800000Y-15300000D02*
X15200000Y-15300000D01*
X10800000Y-15540000D02*
X10800000Y-15300000D01*
X10800000Y-20460000D02*
X9300000Y-20460000D01*
X10800000Y-20700000D02*
X10800000Y-20460000D01*
X15200000Y-15300000D02*
X15200000Y-15540000D01*
X15200000Y-15540000D02*
X16700000Y-15540000D01*
X15200000Y-20460000D02*
X15200000Y-20700000D01*
X15200000Y-20700000D02*
X10800000Y-20700000D01*
X16700000Y-15540000D02*
X16700000Y-20460000D01*
X16700000Y-20460000D02*
X15200000Y-20460000D01*
%TO.C,C5*%
X35770000Y-8320000D02*
X37230000Y-8320000D01*
X37230000Y-11280000D01*
X35770000Y-11280000D01*
X35770000Y-8320000D01*
%TO.C,R10*%
X43020000Y-21270000D02*
X45980000Y-21270000D01*
X45980000Y-22730000D01*
X43020000Y-22730000D01*
X43020000Y-21270000D01*
%TO.C,R3*%
X31270000Y-7520000D02*
X32730000Y-7520000D01*
X32730000Y-10480000D01*
X31270000Y-10480000D01*
X31270000Y-7520000D01*
%TO.C,C8*%
X56820000Y-5270000D02*
X59780000Y-5270000D01*
X59780000Y-6730000D01*
X56820000Y-6730000D01*
X56820000Y-5270000D01*
%TO.C,U3*%
X33950000Y-4500000D02*
X34950000Y-4500000D01*
X33950000Y-7500000D02*
X33950000Y-4500000D01*
X34950000Y-4300000D02*
X37050000Y-4300000D01*
X34950000Y-4500000D02*
X34950000Y-4300000D01*
X34950000Y-7500000D02*
X33950000Y-7500000D01*
X34950000Y-7700000D02*
X34950000Y-7500000D01*
X37050000Y-4300000D02*
X37050000Y-4500000D01*
X37050000Y-4500000D02*
X38050000Y-4500000D01*
X37050000Y-7500000D02*
X37050000Y-7700000D01*
X37050000Y-7700000D02*
X34950000Y-7700000D01*
X38050000Y-4500000D02*
X38050000Y-7500000D01*
X38050000Y-7500000D02*
X37050000Y-7500000D01*
%TO.C,J2*%
X50230000Y-22730000D02*
X66470000Y-22730000D01*
X66470000Y-26270000D01*
X50230000Y-26270000D01*
X50230000Y-22730000D01*
%TO.C,C4*%
X41300000Y-12020000D02*
X44700000Y-12020000D01*
X44700000Y-13980000D01*
X41300000Y-13980000D01*
X41300000Y-12020000D01*
%TO.C,D3*%
X17570000Y-16500000D02*
X18600000Y-16500000D01*
X17570000Y-17610000D02*
X17570000Y-16500000D01*
X17570000Y-18390000D02*
X18600000Y-18390000D01*
X17570000Y-19500000D02*
X17570000Y-18390000D01*
X18600000Y-16300000D02*
X20400000Y-16300000D01*
X18600000Y-16500000D02*
X18600000Y-16300000D01*
X18600000Y-17610000D02*
X17570000Y-17610000D01*
X18600000Y-18390000D02*
X18600000Y-17610000D01*
X18600000Y-19500000D02*
X17570000Y-19500000D01*
X18600000Y-19700000D02*
X18600000Y-19500000D01*
X20400000Y-16300000D02*
X20400000Y-17450000D01*
X20400000Y-17450000D02*
X21430000Y-17450000D01*
X20400000Y-18550000D02*
X20400000Y-19700000D01*
X20400000Y-19700000D02*
X18600000Y-19700000D01*
X21430000Y-17450000D02*
X21430000Y-18550000D01*
X21430000Y-18550000D02*
X20400000Y-18550000D01*
%TO.C,R9*%
X18770000Y-20020000D02*
X20230000Y-20020000D01*
X20230000Y-22980000D01*
X18770000Y-22980000D01*
X18770000Y-20020000D01*
%TO.C,L1*%
X39550000Y-4000000D02*
X40350000Y-4000000D01*
X39550000Y-8000000D02*
X39550000Y-4000000D01*
X40350000Y-2450000D02*
X47650000Y-2450000D01*
X40350000Y-4000000D02*
X40350000Y-2450000D01*
X40350000Y-8000000D02*
X39550000Y-8000000D01*
X40350000Y-9550000D02*
X40350000Y-8000000D01*
X47650000Y-2450000D02*
X47650000Y-4000000D01*
X47650000Y-4000000D02*
X48450000Y-4000000D01*
X47650000Y-8000000D02*
X47650000Y-9550000D01*
X47650000Y-9550000D02*
X40350000Y-9550000D01*
X48450000Y-4000000D02*
X48450000Y-8000000D01*
X48450000Y-8000000D02*
X47650000Y-8000000D01*
%TO.C,J1*%
X2230000Y-8230000D02*
X5770000Y-8230000D01*
X5770000Y-21930000D01*
X2230000Y-21930000D01*
X2230000Y-8230000D01*
%TO.C,R7*%
X39770000Y-16720000D02*
X41230000Y-16720000D01*
X41230000Y-19680000D01*
X39770000Y-19680000D01*
X39770000Y-16720000D01*
%TO.C,LED1*%
X36520000Y-17470000D02*
X39480000Y-17470000D01*
X39480000Y-18930000D01*
X36520000Y-18930000D01*
X36520000Y-17470000D01*
%TO.C,C1*%
X17700000Y-4400000D02*
X22300000Y-4400000D01*
X22300000Y-7600000D01*
X17700000Y-7600000D01*
X17700000Y-4400000D01*
%TO.C,D2*%
X9350000Y-3750000D02*
X16650000Y-3750000D01*
X9350000Y-8250000D02*
X9350000Y-3750000D01*
X16650000Y-3750000D02*
X16650000Y-8250000D01*
X16650000Y-8250000D02*
X9350000Y-8250000D01*
%TO.C,D1*%
X9350000Y-9250000D02*
X16650000Y-9250000D01*
X9350000Y-13750000D02*
X9350000Y-9250000D01*
X16650000Y-9250000D02*
X16650000Y-13750000D01*
X16650000Y-13750000D02*
X9350000Y-13750000D01*
%TO.C,R8*%
X46020000Y-17470000D02*
X48980000Y-17470000D01*
X48980000Y-18930000D01*
X46020000Y-18930000D01*
X46020000Y-17470000D01*
%TO.C,F1*%
X5020000Y-5270000D02*
X7980000Y-5270000D01*
X7980000Y-6730000D01*
X5020000Y-6730000D01*
X5020000Y-5270000D01*
%TO.C,SW1*%
X42100000Y-29550000D02*
X42100000Y-24050000D01*
X49900000Y-24050000D02*
X42100000Y-24050000D01*
X49900000Y-29550000D02*
X42100000Y-29550000D01*
X49900000Y-29550000D02*
X49900000Y-24050000D01*
%TO.C,R1*%
X45270000Y-10520000D02*
X46730000Y-10520000D01*
X46730000Y-13480000D01*
X45270000Y-13480000D01*
X45270000Y-10520000D01*
%TO.C,C9*%
X7270000Y-13520000D02*
X8730000Y-13520000D01*
X8730000Y-16480000D01*
X7270000Y-16480000D01*
X7270000Y-13520000D01*
%TO.C,C6*%
X49820000Y-5270000D02*
X52780000Y-5270000D01*
X52780000Y-6730000D01*
X49820000Y-6730000D01*
X49820000Y-5270000D01*
%TD*%
M02*
