%TF.GenerationSoftware,KiCad,Pcbnew,10.0.5*%
%TF.CreationDate,2026-08-11T02:58:11+03:00*%
%TF.ProjectId,trace-dongle,74726163-652d-4646-9f6e-676c652e6b69,rev?*%
%TF.SameCoordinates,Original*%
%TF.FileFunction,Paste,Top*%
%TF.FilePolarity,Positive*%
%FSLAX46Y46*%
G04 Gerber Fmt 4.6, Leading zero omitted, Abs format (unit mm)*
G04 Created by KiCad (PCBNEW 10.0.5) date 2026-08-11 02:58:11*
%MOMM*%
%LPD*%
G01*
G04 APERTURE LIST*
G04 Aperture macros list*
%AMRoundRect*
0 Rectangle with rounded corners*
0 $1 Rounding radius*
0 $2 $3 $4 $5 $6 $7 $8 $9 X,Y pos of 4 corners*
0 Add a 4 corners polygon primitive as box body*
4,1,4,$2,$3,$4,$5,$6,$7,$8,$9,$2,$3,0*
0 Add four circle primitives for the rounded corners*
1,1,$1+$1,$2,$3*
1,1,$1+$1,$4,$5*
1,1,$1+$1,$6,$7*
1,1,$1+$1,$8,$9*
0 Add four rect primitives between the rounded corners*
20,1,$1+$1,$2,$3,$4,$5,0*
20,1,$1+$1,$4,$5,$6,$7,0*
20,1,$1+$1,$6,$7,$8,$9,0*
20,1,$1+$1,$8,$9,$2,$3,0*%
%AMOutline5P*
0 Free polygon, 5 corners , with rotation*
0 The origin of the aperture is its center*
0 number of corners: always 5*
0 $1 to $10 corner X, Y*
0 $11 Rotation angle, in degrees counterclockwise*
0 create outline with 5 corners*
4,1,5,$1,$2,$3,$4,$5,$6,$7,$8,$9,$10,$1,$2,$11*%
%AMOutline6P*
0 Free polygon, 6 corners , with rotation*
0 The origin of the aperture is its center*
0 number of corners: always 6*
0 $1 to $12 corner X, Y*
0 $13 Rotation angle, in degrees counterclockwise*
0 create outline with 6 corners*
4,1,6,$1,$2,$3,$4,$5,$6,$7,$8,$9,$10,$11,$12,$1,$2,$13*%
%AMOutline7P*
0 Free polygon, 7 corners , with rotation*
0 The origin of the aperture is its center*
0 number of corners: always 7*
0 $1 to $14 corner X, Y*
0 $15 Rotation angle, in degrees counterclockwise*
0 create outline with 7 corners*
4,1,7,$1,$2,$3,$4,$5,$6,$7,$8,$9,$10,$11,$12,$13,$14,$1,$2,$15*%
%AMOutline8P*
0 Free polygon, 8 corners , with rotation*
0 The origin of the aperture is its center*
0 number of corners: always 8*
0 $1 to $16 corner X, Y*
0 $17 Rotation angle, in degrees counterclockwise*
0 create outline with 8 corners*
4,1,8,$1,$2,$3,$4,$5,$6,$7,$8,$9,$10,$11,$12,$13,$14,$15,$16,$1,$2,$17*%
G04 Aperture macros list end*
%ADD10RoundRect,0.218750X-0.218750X-0.256250X0.218750X-0.256250X0.218750X0.256250X-0.218750X0.256250X0*%
%ADD11RoundRect,0.200000X0.275000X-0.200000X0.275000X0.200000X-0.275000X0.200000X-0.275000X-0.200000X0*%
%ADD12RoundRect,0.250000X-1.000000X-0.900000X1.000000X-0.900000X1.000000X0.900000X-1.000000X0.900000X0*%
%ADD13RoundRect,0.150000X-0.825000X-0.150000X0.825000X-0.150000X0.825000X0.150000X-0.825000X0.150000X0*%
%ADD14R,1.550000X1.000000*%
%ADD15RoundRect,0.225000X-0.225000X-0.250000X0.225000X-0.250000X0.225000X0.250000X-0.225000X0.250000X0*%
%ADD16RoundRect,0.200000X-0.200000X-0.275000X0.200000X-0.275000X0.200000X0.275000X-0.200000X0.275000X0*%
%ADD17RoundRect,0.150000X-0.512500X-0.150000X0.512500X-0.150000X0.512500X0.150000X-0.512500X0.150000X0*%
%ADD18RoundRect,0.250000X-0.925000X-1.500000X0.925000X-1.500000X0.925000X1.500000X-0.925000X1.500000X0*%
%ADD19RoundRect,0.150000X-0.587500X-0.150000X0.587500X-0.150000X0.587500X0.150000X-0.587500X0.150000X0*%
%ADD20R,0.400000X0.800000*%
%ADD21R,0.800000X0.400000*%
%ADD22Outline5P,-0.725000X0.130500X-0.130500X0.725000X0.725000X0.725000X0.725000X-0.725000X-0.725000X-0.725000X270.000000*%
%ADD23R,1.450000X1.450000*%
%ADD24R,0.700000X0.700000*%
G04 APERTURE END LIST*
D10*
%TO.C,F1*%
X7612500Y-6000000D03*
X9187500Y-6000000D03*
%TD*%
D11*
%TO.C,R4*%
X24000000Y-15825000D03*
X24000000Y-14175000D03*
%TD*%
D12*
%TO.C,D1*%
X10450000Y-11000000D03*
X14750000Y-11000000D03*
%TD*%
D13*
%TO.C,U2*%
X7525000Y-15595000D03*
X7525000Y-16865000D03*
X7525000Y-18135000D03*
X7525000Y-19405000D03*
X12475000Y-19405000D03*
X12475000Y-18135000D03*
X12475000Y-16865000D03*
X12475000Y-15595000D03*
%TD*%
D11*
%TO.C,R7*%
X32500000Y-20325000D03*
X32500000Y-18675000D03*
%TD*%
D14*
%TO.C,SW1*%
X23875000Y-20650000D03*
X29125000Y-20650000D03*
X23875000Y-22350000D03*
X29125000Y-22350000D03*
%TD*%
D15*
%TO.C,C4*%
X28225000Y-15000000D03*
X29775000Y-15000000D03*
%TD*%
%TO.C,C9*%
X5725000Y-13000000D03*
X7275000Y-13000000D03*
%TD*%
%TO.C,C3*%
X28225000Y-11500000D03*
X29775000Y-11500000D03*
%TD*%
%TO.C,C6*%
X19225000Y-1200000D03*
X20775000Y-1200000D03*
%TD*%
D11*
%TO.C,R2*%
X34000000Y-15825000D03*
X34000000Y-14175000D03*
%TD*%
%TO.C,R1*%
X34000000Y-12325000D03*
X34000000Y-10675000D03*
%TD*%
D16*
%TO.C,R5*%
X4175000Y-22000000D03*
X5825000Y-22000000D03*
%TD*%
D17*
%TO.C,U3*%
X26362500Y-5050000D03*
X26362500Y-6000000D03*
X26362500Y-6950000D03*
X28637500Y-6950000D03*
X28637500Y-6000000D03*
X28637500Y-5050000D03*
%TD*%
D15*
%TO.C,C1*%
X19225000Y-6000000D03*
X20775000Y-6000000D03*
%TD*%
D18*
%TO.C,L1*%
X31975000Y-6000000D03*
X38025000Y-6000000D03*
%TD*%
D15*
%TO.C,C7*%
X24225000Y-1200000D03*
X25775000Y-1200000D03*
%TD*%
D10*
%TO.C,LED1*%
X31712500Y-22000000D03*
X33287500Y-22000000D03*
%TD*%
%TO.C,LED2*%
X35312500Y-22000000D03*
X36887500Y-22000000D03*
%TD*%
D15*
%TO.C,C8*%
X29225000Y-1200000D03*
X30775000Y-1200000D03*
%TD*%
D16*
%TO.C,R6*%
X8175000Y-22000000D03*
X9825000Y-22000000D03*
%TD*%
D11*
%TO.C,R3*%
X24000000Y-12325000D03*
X24000000Y-10675000D03*
%TD*%
D15*
%TO.C,C2*%
X22525000Y-6000000D03*
X24075000Y-6000000D03*
%TD*%
D19*
%TO.C,D3*%
X15562500Y-16550000D03*
X15562500Y-18450000D03*
X17437500Y-17500000D03*
%TD*%
D16*
%TO.C,R9*%
X19675000Y-17500000D03*
X21325000Y-17500000D03*
%TD*%
D12*
%TO.C,D2*%
X12350000Y-6000000D03*
X16650000Y-6000000D03*
%TD*%
D20*
%TO.C,U1*%
X52500000Y-6600000D03*
X51700000Y-6600000D03*
X50900000Y-6600000D03*
X50100000Y-6600000D03*
X49300000Y-6600000D03*
X48500000Y-6600000D03*
X47700000Y-6600000D03*
X46900000Y-6600000D03*
X46100000Y-6600000D03*
X45300000Y-6600000D03*
X44500000Y-6600000D03*
D21*
X43600000Y-7700000D03*
X43600000Y-8500000D03*
X43600000Y-9300000D03*
X43600000Y-10100000D03*
X43600000Y-10900000D03*
X43600000Y-11700000D03*
X43600000Y-12500000D03*
X43600000Y-13300000D03*
X43600000Y-14100000D03*
X43600000Y-14900000D03*
X43600000Y-15700000D03*
X43600000Y-16500000D03*
X43600000Y-17300000D03*
D20*
X44500000Y-18400000D03*
X45300000Y-18400000D03*
X46100000Y-18400000D03*
X46900000Y-18400000D03*
X47700000Y-18400000D03*
X48500000Y-18400000D03*
X49300000Y-18400000D03*
X50100000Y-18400000D03*
X50900000Y-18400000D03*
X51700000Y-18400000D03*
X52500000Y-18400000D03*
D21*
X53400000Y-17300000D03*
X53400000Y-16500000D03*
X53400000Y-15700000D03*
X53400000Y-14900000D03*
X53400000Y-14100000D03*
X53400000Y-13300000D03*
X53400000Y-12500000D03*
X53400000Y-11700000D03*
X53400000Y-10900000D03*
X53400000Y-10100000D03*
X53400000Y-9300000D03*
X53400000Y-8500000D03*
X53400000Y-7700000D03*
D22*
X50475000Y-10525000D03*
D23*
X48500000Y-10525000D03*
X46525000Y-10525000D03*
X50475000Y-12500000D03*
X48500000Y-12500000D03*
X46525000Y-12500000D03*
X50475000Y-14475000D03*
X48500000Y-14475000D03*
X46525000Y-14475000D03*
D24*
X53450000Y-18450000D03*
X43550000Y-18450000D03*
X43550000Y-6550000D03*
X53450000Y-6550000D03*
%TD*%
D15*
%TO.C,C5*%
X26725000Y-3000000D03*
X28275000Y-3000000D03*
%TD*%
D11*
%TO.C,R8*%
X36100000Y-20325000D03*
X36100000Y-18675000D03*
%TD*%
M02*
