%TF.GenerationSoftware,KiCad,Pcbnew,10.0.5*%
%TF.CreationDate,2026-08-11T06:36:53+03:00*%
%TF.ProjectId,trace-dongle,74726163-652d-4646-9f6e-676c652e6b69,rev?*%
%TF.SameCoordinates,Original*%
%TF.FileFunction,Legend,Top*%
%TF.FilePolarity,Positive*%
%FSLAX46Y46*%
G04 Gerber Fmt 4.6, Leading zero omitted, Abs format (unit mm)*
G04 Created by KiCad (PCBNEW 10.0.5) date 2026-08-11 06:36:53*
%MOMM*%
%LPD*%
G01*
G04 APERTURE LIST*
%ADD10C,0.150000*%
%ADD11C,0.120000*%
G04 APERTURE END LIST*
D10*
X42880952Y-17224819D02*
X42404762Y-17224819D01*
X42404762Y-17224819D02*
X42404762Y-16224819D01*
X43214286Y-16701009D02*
X43547619Y-16701009D01*
X43690476Y-17224819D02*
X43214286Y-17224819D01*
X43214286Y-17224819D02*
X43214286Y-16224819D01*
X43214286Y-16224819D02*
X43690476Y-16224819D01*
X44119048Y-17224819D02*
X44119048Y-16224819D01*
X44119048Y-16224819D02*
X44357143Y-16224819D01*
X44357143Y-16224819D02*
X44500000Y-16272438D01*
X44500000Y-16272438D02*
X44595238Y-16367676D01*
X44595238Y-16367676D02*
X44642857Y-16462914D01*
X44642857Y-16462914D02*
X44690476Y-16653390D01*
X44690476Y-16653390D02*
X44690476Y-16796247D01*
X44690476Y-16796247D02*
X44642857Y-16986723D01*
X44642857Y-16986723D02*
X44595238Y-17081961D01*
X44595238Y-17081961D02*
X44500000Y-17177200D01*
X44500000Y-17177200D02*
X44357143Y-17224819D01*
X44357143Y-17224819D02*
X44119048Y-17224819D01*
X45071429Y-16320057D02*
X45119048Y-16272438D01*
X45119048Y-16272438D02*
X45214286Y-16224819D01*
X45214286Y-16224819D02*
X45452381Y-16224819D01*
X45452381Y-16224819D02*
X45547619Y-16272438D01*
X45547619Y-16272438D02*
X45595238Y-16320057D01*
X45595238Y-16320057D02*
X45642857Y-16415295D01*
X45642857Y-16415295D02*
X45642857Y-16510533D01*
X45642857Y-16510533D02*
X45595238Y-16653390D01*
X45595238Y-16653390D02*
X45023810Y-17224819D01*
X45023810Y-17224819D02*
X45642857Y-17224819D01*
X31024819Y-12666666D02*
X30548628Y-12999999D01*
X31024819Y-13238094D02*
X30024819Y-13238094D01*
X30024819Y-13238094D02*
X30024819Y-12857142D01*
X30024819Y-12857142D02*
X30072438Y-12761904D01*
X30072438Y-12761904D02*
X30120057Y-12714285D01*
X30120057Y-12714285D02*
X30215295Y-12666666D01*
X30215295Y-12666666D02*
X30358152Y-12666666D01*
X30358152Y-12666666D02*
X30453390Y-12714285D01*
X30453390Y-12714285D02*
X30501009Y-12761904D01*
X30501009Y-12761904D02*
X30548628Y-12857142D01*
X30548628Y-12857142D02*
X30548628Y-13238094D01*
X30358152Y-11809523D02*
X31024819Y-11809523D01*
X29977200Y-12047618D02*
X30691485Y-12285713D01*
X30691485Y-12285713D02*
X30691485Y-11666666D01*
X45024819Y-15366666D02*
X44548628Y-15699999D01*
X45024819Y-15938094D02*
X44024819Y-15938094D01*
X44024819Y-15938094D02*
X44024819Y-15557142D01*
X44024819Y-15557142D02*
X44072438Y-15461904D01*
X44072438Y-15461904D02*
X44120057Y-15414285D01*
X44120057Y-15414285D02*
X44215295Y-15366666D01*
X44215295Y-15366666D02*
X44358152Y-15366666D01*
X44358152Y-15366666D02*
X44453390Y-15414285D01*
X44453390Y-15414285D02*
X44501009Y-15461904D01*
X44501009Y-15461904D02*
X44548628Y-15557142D01*
X44548628Y-15557142D02*
X44548628Y-15938094D01*
X44120057Y-14985713D02*
X44072438Y-14938094D01*
X44072438Y-14938094D02*
X44024819Y-14842856D01*
X44024819Y-14842856D02*
X44024819Y-14604761D01*
X44024819Y-14604761D02*
X44072438Y-14509523D01*
X44072438Y-14509523D02*
X44120057Y-14461904D01*
X44120057Y-14461904D02*
X44215295Y-14414285D01*
X44215295Y-14414285D02*
X44310533Y-14414285D01*
X44310533Y-14414285D02*
X44453390Y-14461904D01*
X44453390Y-14461904D02*
X45024819Y-15033332D01*
X45024819Y-15033332D02*
X45024819Y-14414285D01*
X38833333Y-9679580D02*
X38785714Y-9727200D01*
X38785714Y-9727200D02*
X38642857Y-9774819D01*
X38642857Y-9774819D02*
X38547619Y-9774819D01*
X38547619Y-9774819D02*
X38404762Y-9727200D01*
X38404762Y-9727200D02*
X38309524Y-9631961D01*
X38309524Y-9631961D02*
X38261905Y-9536723D01*
X38261905Y-9536723D02*
X38214286Y-9346247D01*
X38214286Y-9346247D02*
X38214286Y-9203390D01*
X38214286Y-9203390D02*
X38261905Y-9012914D01*
X38261905Y-9012914D02*
X38309524Y-8917676D01*
X38309524Y-8917676D02*
X38404762Y-8822438D01*
X38404762Y-8822438D02*
X38547619Y-8774819D01*
X38547619Y-8774819D02*
X38642857Y-8774819D01*
X38642857Y-8774819D02*
X38785714Y-8822438D01*
X38785714Y-8822438D02*
X38833333Y-8870057D01*
X39166667Y-8774819D02*
X39785714Y-8774819D01*
X39785714Y-8774819D02*
X39452381Y-9155771D01*
X39452381Y-9155771D02*
X39595238Y-9155771D01*
X39595238Y-9155771D02*
X39690476Y-9203390D01*
X39690476Y-9203390D02*
X39738095Y-9251009D01*
X39738095Y-9251009D02*
X39785714Y-9346247D01*
X39785714Y-9346247D02*
X39785714Y-9584342D01*
X39785714Y-9584342D02*
X39738095Y-9679580D01*
X39738095Y-9679580D02*
X39690476Y-9727200D01*
X39690476Y-9727200D02*
X39595238Y-9774819D01*
X39595238Y-9774819D02*
X39309524Y-9774819D01*
X39309524Y-9774819D02*
X39214286Y-9727200D01*
X39214286Y-9727200D02*
X39166667Y-9679580D01*
X27833333Y-4059580D02*
X27785714Y-4107200D01*
X27785714Y-4107200D02*
X27642857Y-4154819D01*
X27642857Y-4154819D02*
X27547619Y-4154819D01*
X27547619Y-4154819D02*
X27404762Y-4107200D01*
X27404762Y-4107200D02*
X27309524Y-4011961D01*
X27309524Y-4011961D02*
X27261905Y-3916723D01*
X27261905Y-3916723D02*
X27214286Y-3726247D01*
X27214286Y-3726247D02*
X27214286Y-3583390D01*
X27214286Y-3583390D02*
X27261905Y-3392914D01*
X27261905Y-3392914D02*
X27309524Y-3297676D01*
X27309524Y-3297676D02*
X27404762Y-3202438D01*
X27404762Y-3202438D02*
X27547619Y-3154819D01*
X27547619Y-3154819D02*
X27642857Y-3154819D01*
X27642857Y-3154819D02*
X27785714Y-3202438D01*
X27785714Y-3202438D02*
X27833333Y-3250057D01*
X28214286Y-3250057D02*
X28261905Y-3202438D01*
X28261905Y-3202438D02*
X28357143Y-3154819D01*
X28357143Y-3154819D02*
X28595238Y-3154819D01*
X28595238Y-3154819D02*
X28690476Y-3202438D01*
X28690476Y-3202438D02*
X28738095Y-3250057D01*
X28738095Y-3250057D02*
X28785714Y-3345295D01*
X28785714Y-3345295D02*
X28785714Y-3440533D01*
X28785714Y-3440533D02*
X28738095Y-3583390D01*
X28738095Y-3583390D02*
X28166667Y-4154819D01*
X28166667Y-4154819D02*
X28785714Y-4154819D01*
X49145180Y-14238095D02*
X48335657Y-14238095D01*
X48335657Y-14238095D02*
X48240419Y-14285714D01*
X48240419Y-14285714D02*
X48192800Y-14333333D01*
X48192800Y-14333333D02*
X48145180Y-14428571D01*
X48145180Y-14428571D02*
X48145180Y-14619047D01*
X48145180Y-14619047D02*
X48192800Y-14714285D01*
X48192800Y-14714285D02*
X48240419Y-14761904D01*
X48240419Y-14761904D02*
X48335657Y-14809523D01*
X48335657Y-14809523D02*
X49145180Y-14809523D01*
X48145180Y-15809523D02*
X48145180Y-15238095D01*
X48145180Y-15523809D02*
X49145180Y-15523809D01*
X49145180Y-15523809D02*
X49002323Y-15428571D01*
X49002323Y-15428571D02*
X48907085Y-15333333D01*
X48907085Y-15333333D02*
X48859466Y-15238095D01*
X47024819Y-21166666D02*
X46548628Y-21499999D01*
X47024819Y-21738094D02*
X46024819Y-21738094D01*
X46024819Y-21738094D02*
X46024819Y-21357142D01*
X46024819Y-21357142D02*
X46072438Y-21261904D01*
X46072438Y-21261904D02*
X46120057Y-21214285D01*
X46120057Y-21214285D02*
X46215295Y-21166666D01*
X46215295Y-21166666D02*
X46358152Y-21166666D01*
X46358152Y-21166666D02*
X46453390Y-21214285D01*
X46453390Y-21214285D02*
X46501009Y-21261904D01*
X46501009Y-21261904D02*
X46548628Y-21357142D01*
X46548628Y-21357142D02*
X46548628Y-21738094D01*
X46024819Y-20309523D02*
X46024819Y-20499999D01*
X46024819Y-20499999D02*
X46072438Y-20595237D01*
X46072438Y-20595237D02*
X46120057Y-20642856D01*
X46120057Y-20642856D02*
X46262914Y-20738094D01*
X46262914Y-20738094D02*
X46453390Y-20785713D01*
X46453390Y-20785713D02*
X46834342Y-20785713D01*
X46834342Y-20785713D02*
X46929580Y-20738094D01*
X46929580Y-20738094D02*
X46977200Y-20690475D01*
X46977200Y-20690475D02*
X47024819Y-20595237D01*
X47024819Y-20595237D02*
X47024819Y-20404761D01*
X47024819Y-20404761D02*
X46977200Y-20309523D01*
X46977200Y-20309523D02*
X46929580Y-20261904D01*
X46929580Y-20261904D02*
X46834342Y-20214285D01*
X46834342Y-20214285D02*
X46596247Y-20214285D01*
X46596247Y-20214285D02*
X46501009Y-20261904D01*
X46501009Y-20261904D02*
X46453390Y-20309523D01*
X46453390Y-20309523D02*
X46405771Y-20404761D01*
X46405771Y-20404761D02*
X46405771Y-20595237D01*
X46405771Y-20595237D02*
X46453390Y-20690475D01*
X46453390Y-20690475D02*
X46501009Y-20738094D01*
X46501009Y-20738094D02*
X46596247Y-20785713D01*
X54633333Y-4929580D02*
X54585714Y-4977200D01*
X54585714Y-4977200D02*
X54442857Y-5024819D01*
X54442857Y-5024819D02*
X54347619Y-5024819D01*
X54347619Y-5024819D02*
X54204762Y-4977200D01*
X54204762Y-4977200D02*
X54109524Y-4881961D01*
X54109524Y-4881961D02*
X54061905Y-4786723D01*
X54061905Y-4786723D02*
X54014286Y-4596247D01*
X54014286Y-4596247D02*
X54014286Y-4453390D01*
X54014286Y-4453390D02*
X54061905Y-4262914D01*
X54061905Y-4262914D02*
X54109524Y-4167676D01*
X54109524Y-4167676D02*
X54204762Y-4072438D01*
X54204762Y-4072438D02*
X54347619Y-4024819D01*
X54347619Y-4024819D02*
X54442857Y-4024819D01*
X54442857Y-4024819D02*
X54585714Y-4072438D01*
X54585714Y-4072438D02*
X54633333Y-4120057D01*
X54966667Y-4024819D02*
X55633333Y-4024819D01*
X55633333Y-4024819D02*
X55204762Y-5024819D01*
X61633333Y-7884819D02*
X61300000Y-7408628D01*
X61061905Y-7884819D02*
X61061905Y-6884819D01*
X61061905Y-6884819D02*
X61442857Y-6884819D01*
X61442857Y-6884819D02*
X61538095Y-6932438D01*
X61538095Y-6932438D02*
X61585714Y-6980057D01*
X61585714Y-6980057D02*
X61633333Y-7075295D01*
X61633333Y-7075295D02*
X61633333Y-7218152D01*
X61633333Y-7218152D02*
X61585714Y-7313390D01*
X61585714Y-7313390D02*
X61538095Y-7361009D01*
X61538095Y-7361009D02*
X61442857Y-7408628D01*
X61442857Y-7408628D02*
X61061905Y-7408628D01*
X62538095Y-6884819D02*
X62061905Y-6884819D01*
X62061905Y-6884819D02*
X62014286Y-7361009D01*
X62014286Y-7361009D02*
X62061905Y-7313390D01*
X62061905Y-7313390D02*
X62157143Y-7265771D01*
X62157143Y-7265771D02*
X62395238Y-7265771D01*
X62395238Y-7265771D02*
X62490476Y-7313390D01*
X62490476Y-7313390D02*
X62538095Y-7361009D01*
X62538095Y-7361009D02*
X62585714Y-7456247D01*
X62585714Y-7456247D02*
X62585714Y-7694342D01*
X62585714Y-7694342D02*
X62538095Y-7789580D01*
X62538095Y-7789580D02*
X62490476Y-7837200D01*
X62490476Y-7837200D02*
X62395238Y-7884819D01*
X62395238Y-7884819D02*
X62157143Y-7884819D01*
X62157143Y-7884819D02*
X62061905Y-7837200D01*
X62061905Y-7837200D02*
X62014286Y-7789580D01*
X12238095Y-14054819D02*
X12238095Y-14864342D01*
X12238095Y-14864342D02*
X12285714Y-14959580D01*
X12285714Y-14959580D02*
X12333333Y-15007200D01*
X12333333Y-15007200D02*
X12428571Y-15054819D01*
X12428571Y-15054819D02*
X12619047Y-15054819D01*
X12619047Y-15054819D02*
X12714285Y-15007200D01*
X12714285Y-15007200D02*
X12761904Y-14959580D01*
X12761904Y-14959580D02*
X12809523Y-14864342D01*
X12809523Y-14864342D02*
X12809523Y-14054819D01*
X13238095Y-14150057D02*
X13285714Y-14102438D01*
X13285714Y-14102438D02*
X13380952Y-14054819D01*
X13380952Y-14054819D02*
X13619047Y-14054819D01*
X13619047Y-14054819D02*
X13714285Y-14102438D01*
X13714285Y-14102438D02*
X13761904Y-14150057D01*
X13761904Y-14150057D02*
X13809523Y-14245295D01*
X13809523Y-14245295D02*
X13809523Y-14340533D01*
X13809523Y-14340533D02*
X13761904Y-14483390D01*
X13761904Y-14483390D02*
X13190476Y-15054819D01*
X13190476Y-15054819D02*
X13809523Y-15054819D01*
X35429580Y-9966666D02*
X35477200Y-10014285D01*
X35477200Y-10014285D02*
X35524819Y-10157142D01*
X35524819Y-10157142D02*
X35524819Y-10252380D01*
X35524819Y-10252380D02*
X35477200Y-10395237D01*
X35477200Y-10395237D02*
X35381961Y-10490475D01*
X35381961Y-10490475D02*
X35286723Y-10538094D01*
X35286723Y-10538094D02*
X35096247Y-10585713D01*
X35096247Y-10585713D02*
X34953390Y-10585713D01*
X34953390Y-10585713D02*
X34762914Y-10538094D01*
X34762914Y-10538094D02*
X34667676Y-10490475D01*
X34667676Y-10490475D02*
X34572438Y-10395237D01*
X34572438Y-10395237D02*
X34524819Y-10252380D01*
X34524819Y-10252380D02*
X34524819Y-10157142D01*
X34524819Y-10157142D02*
X34572438Y-10014285D01*
X34572438Y-10014285D02*
X34620057Y-9966666D01*
X34524819Y-9061904D02*
X34524819Y-9538094D01*
X34524819Y-9538094D02*
X35001009Y-9585713D01*
X35001009Y-9585713D02*
X34953390Y-9538094D01*
X34953390Y-9538094D02*
X34905771Y-9442856D01*
X34905771Y-9442856D02*
X34905771Y-9204761D01*
X34905771Y-9204761D02*
X34953390Y-9109523D01*
X34953390Y-9109523D02*
X35001009Y-9061904D01*
X35001009Y-9061904D02*
X35096247Y-9014285D01*
X35096247Y-9014285D02*
X35334342Y-9014285D01*
X35334342Y-9014285D02*
X35429580Y-9061904D01*
X35429580Y-9061904D02*
X35477200Y-9109523D01*
X35477200Y-9109523D02*
X35524819Y-9204761D01*
X35524819Y-9204761D02*
X35524819Y-9442856D01*
X35524819Y-9442856D02*
X35477200Y-9538094D01*
X35477200Y-9538094D02*
X35429580Y-9585713D01*
X43857142Y-21024819D02*
X43523809Y-20548628D01*
X43285714Y-21024819D02*
X43285714Y-20024819D01*
X43285714Y-20024819D02*
X43666666Y-20024819D01*
X43666666Y-20024819D02*
X43761904Y-20072438D01*
X43761904Y-20072438D02*
X43809523Y-20120057D01*
X43809523Y-20120057D02*
X43857142Y-20215295D01*
X43857142Y-20215295D02*
X43857142Y-20358152D01*
X43857142Y-20358152D02*
X43809523Y-20453390D01*
X43809523Y-20453390D02*
X43761904Y-20501009D01*
X43761904Y-20501009D02*
X43666666Y-20548628D01*
X43666666Y-20548628D02*
X43285714Y-20548628D01*
X44809523Y-21024819D02*
X44238095Y-21024819D01*
X44523809Y-21024819D02*
X44523809Y-20024819D01*
X44523809Y-20024819D02*
X44428571Y-20167676D01*
X44428571Y-20167676D02*
X44333333Y-20262914D01*
X44333333Y-20262914D02*
X44238095Y-20310533D01*
X45428571Y-20024819D02*
X45523809Y-20024819D01*
X45523809Y-20024819D02*
X45619047Y-20072438D01*
X45619047Y-20072438D02*
X45666666Y-20120057D01*
X45666666Y-20120057D02*
X45714285Y-20215295D01*
X45714285Y-20215295D02*
X45761904Y-20405771D01*
X45761904Y-20405771D02*
X45761904Y-20643866D01*
X45761904Y-20643866D02*
X45714285Y-20834342D01*
X45714285Y-20834342D02*
X45666666Y-20929580D01*
X45666666Y-20929580D02*
X45619047Y-20977200D01*
X45619047Y-20977200D02*
X45523809Y-21024819D01*
X45523809Y-21024819D02*
X45428571Y-21024819D01*
X45428571Y-21024819D02*
X45333333Y-20977200D01*
X45333333Y-20977200D02*
X45285714Y-20929580D01*
X45285714Y-20929580D02*
X45238095Y-20834342D01*
X45238095Y-20834342D02*
X45190476Y-20643866D01*
X45190476Y-20643866D02*
X45190476Y-20405771D01*
X45190476Y-20405771D02*
X45238095Y-20215295D01*
X45238095Y-20215295D02*
X45285714Y-20120057D01*
X45285714Y-20120057D02*
X45333333Y-20072438D01*
X45333333Y-20072438D02*
X45428571Y-20024819D01*
X31024819Y-9166666D02*
X30548628Y-9499999D01*
X31024819Y-9738094D02*
X30024819Y-9738094D01*
X30024819Y-9738094D02*
X30024819Y-9357142D01*
X30024819Y-9357142D02*
X30072438Y-9261904D01*
X30072438Y-9261904D02*
X30120057Y-9214285D01*
X30120057Y-9214285D02*
X30215295Y-9166666D01*
X30215295Y-9166666D02*
X30358152Y-9166666D01*
X30358152Y-9166666D02*
X30453390Y-9214285D01*
X30453390Y-9214285D02*
X30501009Y-9261904D01*
X30501009Y-9261904D02*
X30548628Y-9357142D01*
X30548628Y-9357142D02*
X30548628Y-9738094D01*
X30024819Y-8833332D02*
X30024819Y-8214285D01*
X30024819Y-8214285D02*
X30405771Y-8547618D01*
X30405771Y-8547618D02*
X30405771Y-8404761D01*
X30405771Y-8404761D02*
X30453390Y-8309523D01*
X30453390Y-8309523D02*
X30501009Y-8261904D01*
X30501009Y-8261904D02*
X30596247Y-8214285D01*
X30596247Y-8214285D02*
X30834342Y-8214285D01*
X30834342Y-8214285D02*
X30929580Y-8261904D01*
X30929580Y-8261904D02*
X30977200Y-8309523D01*
X30977200Y-8309523D02*
X31024819Y-8404761D01*
X31024819Y-8404761D02*
X31024819Y-8690475D01*
X31024819Y-8690475D02*
X30977200Y-8785713D01*
X30977200Y-8785713D02*
X30929580Y-8833332D01*
X58133333Y-4929580D02*
X58085714Y-4977200D01*
X58085714Y-4977200D02*
X57942857Y-5024819D01*
X57942857Y-5024819D02*
X57847619Y-5024819D01*
X57847619Y-5024819D02*
X57704762Y-4977200D01*
X57704762Y-4977200D02*
X57609524Y-4881961D01*
X57609524Y-4881961D02*
X57561905Y-4786723D01*
X57561905Y-4786723D02*
X57514286Y-4596247D01*
X57514286Y-4596247D02*
X57514286Y-4453390D01*
X57514286Y-4453390D02*
X57561905Y-4262914D01*
X57561905Y-4262914D02*
X57609524Y-4167676D01*
X57609524Y-4167676D02*
X57704762Y-4072438D01*
X57704762Y-4072438D02*
X57847619Y-4024819D01*
X57847619Y-4024819D02*
X57942857Y-4024819D01*
X57942857Y-4024819D02*
X58085714Y-4072438D01*
X58085714Y-4072438D02*
X58133333Y-4120057D01*
X58704762Y-4453390D02*
X58609524Y-4405771D01*
X58609524Y-4405771D02*
X58561905Y-4358152D01*
X58561905Y-4358152D02*
X58514286Y-4262914D01*
X58514286Y-4262914D02*
X58514286Y-4215295D01*
X58514286Y-4215295D02*
X58561905Y-4120057D01*
X58561905Y-4120057D02*
X58609524Y-4072438D01*
X58609524Y-4072438D02*
X58704762Y-4024819D01*
X58704762Y-4024819D02*
X58895238Y-4024819D01*
X58895238Y-4024819D02*
X58990476Y-4072438D01*
X58990476Y-4072438D02*
X59038095Y-4120057D01*
X59038095Y-4120057D02*
X59085714Y-4215295D01*
X59085714Y-4215295D02*
X59085714Y-4262914D01*
X59085714Y-4262914D02*
X59038095Y-4358152D01*
X59038095Y-4358152D02*
X58990476Y-4405771D01*
X58990476Y-4405771D02*
X58895238Y-4453390D01*
X58895238Y-4453390D02*
X58704762Y-4453390D01*
X58704762Y-4453390D02*
X58609524Y-4501009D01*
X58609524Y-4501009D02*
X58561905Y-4548628D01*
X58561905Y-4548628D02*
X58514286Y-4643866D01*
X58514286Y-4643866D02*
X58514286Y-4834342D01*
X58514286Y-4834342D02*
X58561905Y-4929580D01*
X58561905Y-4929580D02*
X58609524Y-4977200D01*
X58609524Y-4977200D02*
X58704762Y-5024819D01*
X58704762Y-5024819D02*
X58895238Y-5024819D01*
X58895238Y-5024819D02*
X58990476Y-4977200D01*
X58990476Y-4977200D02*
X59038095Y-4929580D01*
X59038095Y-4929580D02*
X59085714Y-4834342D01*
X59085714Y-4834342D02*
X59085714Y-4643866D01*
X59085714Y-4643866D02*
X59038095Y-4548628D01*
X59038095Y-4548628D02*
X58990476Y-4501009D01*
X58990476Y-4501009D02*
X58895238Y-4453390D01*
X35238095Y-3054819D02*
X35238095Y-3864342D01*
X35238095Y-3864342D02*
X35285714Y-3959580D01*
X35285714Y-3959580D02*
X35333333Y-4007200D01*
X35333333Y-4007200D02*
X35428571Y-4054819D01*
X35428571Y-4054819D02*
X35619047Y-4054819D01*
X35619047Y-4054819D02*
X35714285Y-4007200D01*
X35714285Y-4007200D02*
X35761904Y-3959580D01*
X35761904Y-3959580D02*
X35809523Y-3864342D01*
X35809523Y-3864342D02*
X35809523Y-3054819D01*
X36190476Y-3054819D02*
X36809523Y-3054819D01*
X36809523Y-3054819D02*
X36476190Y-3435771D01*
X36476190Y-3435771D02*
X36619047Y-3435771D01*
X36619047Y-3435771D02*
X36714285Y-3483390D01*
X36714285Y-3483390D02*
X36761904Y-3531009D01*
X36761904Y-3531009D02*
X36809523Y-3626247D01*
X36809523Y-3626247D02*
X36809523Y-3864342D01*
X36809523Y-3864342D02*
X36761904Y-3959580D01*
X36761904Y-3959580D02*
X36714285Y-4007200D01*
X36714285Y-4007200D02*
X36619047Y-4054819D01*
X36619047Y-4054819D02*
X36333333Y-4054819D01*
X36333333Y-4054819D02*
X36238095Y-4007200D01*
X36238095Y-4007200D02*
X36190476Y-3959580D01*
X49074819Y-24833333D02*
X49789104Y-24833333D01*
X49789104Y-24833333D02*
X49931961Y-24880952D01*
X49931961Y-24880952D02*
X50027200Y-24976190D01*
X50027200Y-24976190D02*
X50074819Y-25119047D01*
X50074819Y-25119047D02*
X50074819Y-25214285D01*
X49170057Y-24404761D02*
X49122438Y-24357142D01*
X49122438Y-24357142D02*
X49074819Y-24261904D01*
X49074819Y-24261904D02*
X49074819Y-24023809D01*
X49074819Y-24023809D02*
X49122438Y-23928571D01*
X49122438Y-23928571D02*
X49170057Y-23880952D01*
X49170057Y-23880952D02*
X49265295Y-23833333D01*
X49265295Y-23833333D02*
X49360533Y-23833333D01*
X49360533Y-23833333D02*
X49503390Y-23880952D01*
X49503390Y-23880952D02*
X50074819Y-24452380D01*
X50074819Y-24452380D02*
X50074819Y-23833333D01*
X42833333Y-11679580D02*
X42785714Y-11727200D01*
X42785714Y-11727200D02*
X42642857Y-11774819D01*
X42642857Y-11774819D02*
X42547619Y-11774819D01*
X42547619Y-11774819D02*
X42404762Y-11727200D01*
X42404762Y-11727200D02*
X42309524Y-11631961D01*
X42309524Y-11631961D02*
X42261905Y-11536723D01*
X42261905Y-11536723D02*
X42214286Y-11346247D01*
X42214286Y-11346247D02*
X42214286Y-11203390D01*
X42214286Y-11203390D02*
X42261905Y-11012914D01*
X42261905Y-11012914D02*
X42309524Y-10917676D01*
X42309524Y-10917676D02*
X42404762Y-10822438D01*
X42404762Y-10822438D02*
X42547619Y-10774819D01*
X42547619Y-10774819D02*
X42642857Y-10774819D01*
X42642857Y-10774819D02*
X42785714Y-10822438D01*
X42785714Y-10822438D02*
X42833333Y-10870057D01*
X43690476Y-11108152D02*
X43690476Y-11774819D01*
X43452381Y-10727200D02*
X43214286Y-11441485D01*
X43214286Y-11441485D02*
X43833333Y-11441485D01*
X18761905Y-16054819D02*
X18761905Y-15054819D01*
X18761905Y-15054819D02*
X19000000Y-15054819D01*
X19000000Y-15054819D02*
X19142857Y-15102438D01*
X19142857Y-15102438D02*
X19238095Y-15197676D01*
X19238095Y-15197676D02*
X19285714Y-15292914D01*
X19285714Y-15292914D02*
X19333333Y-15483390D01*
X19333333Y-15483390D02*
X19333333Y-15626247D01*
X19333333Y-15626247D02*
X19285714Y-15816723D01*
X19285714Y-15816723D02*
X19238095Y-15911961D01*
X19238095Y-15911961D02*
X19142857Y-16007200D01*
X19142857Y-16007200D02*
X19000000Y-16054819D01*
X19000000Y-16054819D02*
X18761905Y-16054819D01*
X19666667Y-15054819D02*
X20285714Y-15054819D01*
X20285714Y-15054819D02*
X19952381Y-15435771D01*
X19952381Y-15435771D02*
X20095238Y-15435771D01*
X20095238Y-15435771D02*
X20190476Y-15483390D01*
X20190476Y-15483390D02*
X20238095Y-15531009D01*
X20238095Y-15531009D02*
X20285714Y-15626247D01*
X20285714Y-15626247D02*
X20285714Y-15864342D01*
X20285714Y-15864342D02*
X20238095Y-15959580D01*
X20238095Y-15959580D02*
X20190476Y-16007200D01*
X20190476Y-16007200D02*
X20095238Y-16054819D01*
X20095238Y-16054819D02*
X19809524Y-16054819D01*
X19809524Y-16054819D02*
X19714286Y-16007200D01*
X19714286Y-16007200D02*
X19666667Y-15959580D01*
X18524819Y-21666666D02*
X18048628Y-21999999D01*
X18524819Y-22238094D02*
X17524819Y-22238094D01*
X17524819Y-22238094D02*
X17524819Y-21857142D01*
X17524819Y-21857142D02*
X17572438Y-21761904D01*
X17572438Y-21761904D02*
X17620057Y-21714285D01*
X17620057Y-21714285D02*
X17715295Y-21666666D01*
X17715295Y-21666666D02*
X17858152Y-21666666D01*
X17858152Y-21666666D02*
X17953390Y-21714285D01*
X17953390Y-21714285D02*
X18001009Y-21761904D01*
X18001009Y-21761904D02*
X18048628Y-21857142D01*
X18048628Y-21857142D02*
X18048628Y-22238094D01*
X18524819Y-21190475D02*
X18524819Y-20999999D01*
X18524819Y-20999999D02*
X18477200Y-20904761D01*
X18477200Y-20904761D02*
X18429580Y-20857142D01*
X18429580Y-20857142D02*
X18286723Y-20761904D01*
X18286723Y-20761904D02*
X18096247Y-20714285D01*
X18096247Y-20714285D02*
X17715295Y-20714285D01*
X17715295Y-20714285D02*
X17620057Y-20761904D01*
X17620057Y-20761904D02*
X17572438Y-20809523D01*
X17572438Y-20809523D02*
X17524819Y-20904761D01*
X17524819Y-20904761D02*
X17524819Y-21095237D01*
X17524819Y-21095237D02*
X17572438Y-21190475D01*
X17572438Y-21190475D02*
X17620057Y-21238094D01*
X17620057Y-21238094D02*
X17715295Y-21285713D01*
X17715295Y-21285713D02*
X17953390Y-21285713D01*
X17953390Y-21285713D02*
X18048628Y-21238094D01*
X18048628Y-21238094D02*
X18096247Y-21190475D01*
X18096247Y-21190475D02*
X18143866Y-21095237D01*
X18143866Y-21095237D02*
X18143866Y-20904761D01*
X18143866Y-20904761D02*
X18096247Y-20809523D01*
X18096247Y-20809523D02*
X18048628Y-20761904D01*
X18048628Y-20761904D02*
X17953390Y-20714285D01*
X43833333Y-2204819D02*
X43357143Y-2204819D01*
X43357143Y-2204819D02*
X43357143Y-1204819D01*
X44690476Y-2204819D02*
X44119048Y-2204819D01*
X44404762Y-2204819D02*
X44404762Y-1204819D01*
X44404762Y-1204819D02*
X44309524Y-1347676D01*
X44309524Y-1347676D02*
X44214286Y-1442914D01*
X44214286Y-1442914D02*
X44119048Y-1490533D01*
X3666666Y-7074819D02*
X3666666Y-7789104D01*
X3666666Y-7789104D02*
X3619047Y-7931961D01*
X3619047Y-7931961D02*
X3523809Y-8027200D01*
X3523809Y-8027200D02*
X3380952Y-8074819D01*
X3380952Y-8074819D02*
X3285714Y-8074819D01*
X4666666Y-8074819D02*
X4095238Y-8074819D01*
X4380952Y-8074819D02*
X4380952Y-7074819D01*
X4380952Y-7074819D02*
X4285714Y-7217676D01*
X4285714Y-7217676D02*
X4190476Y-7312914D01*
X4190476Y-7312914D02*
X4095238Y-7360533D01*
X39524819Y-18366666D02*
X39048628Y-18699999D01*
X39524819Y-18938094D02*
X38524819Y-18938094D01*
X38524819Y-18938094D02*
X38524819Y-18557142D01*
X38524819Y-18557142D02*
X38572438Y-18461904D01*
X38572438Y-18461904D02*
X38620057Y-18414285D01*
X38620057Y-18414285D02*
X38715295Y-18366666D01*
X38715295Y-18366666D02*
X38858152Y-18366666D01*
X38858152Y-18366666D02*
X38953390Y-18414285D01*
X38953390Y-18414285D02*
X39001009Y-18461904D01*
X39001009Y-18461904D02*
X39048628Y-18557142D01*
X39048628Y-18557142D02*
X39048628Y-18938094D01*
X38524819Y-18033332D02*
X38524819Y-17366666D01*
X38524819Y-17366666D02*
X39524819Y-17795237D01*
X36880952Y-17224819D02*
X36404762Y-17224819D01*
X36404762Y-17224819D02*
X36404762Y-16224819D01*
X37214286Y-16701009D02*
X37547619Y-16701009D01*
X37690476Y-17224819D02*
X37214286Y-17224819D01*
X37214286Y-17224819D02*
X37214286Y-16224819D01*
X37214286Y-16224819D02*
X37690476Y-16224819D01*
X38119048Y-17224819D02*
X38119048Y-16224819D01*
X38119048Y-16224819D02*
X38357143Y-16224819D01*
X38357143Y-16224819D02*
X38500000Y-16272438D01*
X38500000Y-16272438D02*
X38595238Y-16367676D01*
X38595238Y-16367676D02*
X38642857Y-16462914D01*
X38642857Y-16462914D02*
X38690476Y-16653390D01*
X38690476Y-16653390D02*
X38690476Y-16796247D01*
X38690476Y-16796247D02*
X38642857Y-16986723D01*
X38642857Y-16986723D02*
X38595238Y-17081961D01*
X38595238Y-17081961D02*
X38500000Y-17177200D01*
X38500000Y-17177200D02*
X38357143Y-17224819D01*
X38357143Y-17224819D02*
X38119048Y-17224819D01*
X39642857Y-17224819D02*
X39071429Y-17224819D01*
X39357143Y-17224819D02*
X39357143Y-16224819D01*
X39357143Y-16224819D02*
X39261905Y-16367676D01*
X39261905Y-16367676D02*
X39166667Y-16462914D01*
X39166667Y-16462914D02*
X39071429Y-16510533D01*
X19833333Y-4059580D02*
X19785714Y-4107200D01*
X19785714Y-4107200D02*
X19642857Y-4154819D01*
X19642857Y-4154819D02*
X19547619Y-4154819D01*
X19547619Y-4154819D02*
X19404762Y-4107200D01*
X19404762Y-4107200D02*
X19309524Y-4011961D01*
X19309524Y-4011961D02*
X19261905Y-3916723D01*
X19261905Y-3916723D02*
X19214286Y-3726247D01*
X19214286Y-3726247D02*
X19214286Y-3583390D01*
X19214286Y-3583390D02*
X19261905Y-3392914D01*
X19261905Y-3392914D02*
X19309524Y-3297676D01*
X19309524Y-3297676D02*
X19404762Y-3202438D01*
X19404762Y-3202438D02*
X19547619Y-3154819D01*
X19547619Y-3154819D02*
X19642857Y-3154819D01*
X19642857Y-3154819D02*
X19785714Y-3202438D01*
X19785714Y-3202438D02*
X19833333Y-3250057D01*
X20785714Y-4154819D02*
X20214286Y-4154819D01*
X20500000Y-4154819D02*
X20500000Y-3154819D01*
X20500000Y-3154819D02*
X20404762Y-3297676D01*
X20404762Y-3297676D02*
X20309524Y-3392914D01*
X20309524Y-3392914D02*
X20214286Y-3440533D01*
X12261905Y-9454819D02*
X12261905Y-8454819D01*
X12261905Y-8454819D02*
X12500000Y-8454819D01*
X12500000Y-8454819D02*
X12642857Y-8502438D01*
X12642857Y-8502438D02*
X12738095Y-8597676D01*
X12738095Y-8597676D02*
X12785714Y-8692914D01*
X12785714Y-8692914D02*
X12833333Y-8883390D01*
X12833333Y-8883390D02*
X12833333Y-9026247D01*
X12833333Y-9026247D02*
X12785714Y-9216723D01*
X12785714Y-9216723D02*
X12738095Y-9311961D01*
X12738095Y-9311961D02*
X12642857Y-9407200D01*
X12642857Y-9407200D02*
X12500000Y-9454819D01*
X12500000Y-9454819D02*
X12261905Y-9454819D01*
X13214286Y-8550057D02*
X13261905Y-8502438D01*
X13261905Y-8502438D02*
X13357143Y-8454819D01*
X13357143Y-8454819D02*
X13595238Y-8454819D01*
X13595238Y-8454819D02*
X13690476Y-8502438D01*
X13690476Y-8502438D02*
X13738095Y-8550057D01*
X13738095Y-8550057D02*
X13785714Y-8645295D01*
X13785714Y-8645295D02*
X13785714Y-8740533D01*
X13785714Y-8740533D02*
X13738095Y-8883390D01*
X13738095Y-8883390D02*
X13166667Y-9454819D01*
X13166667Y-9454819D02*
X13785714Y-9454819D01*
X12261905Y-8954819D02*
X12261905Y-7954819D01*
X12261905Y-7954819D02*
X12500000Y-7954819D01*
X12500000Y-7954819D02*
X12642857Y-8002438D01*
X12642857Y-8002438D02*
X12738095Y-8097676D01*
X12738095Y-8097676D02*
X12785714Y-8192914D01*
X12785714Y-8192914D02*
X12833333Y-8383390D01*
X12833333Y-8383390D02*
X12833333Y-8526247D01*
X12833333Y-8526247D02*
X12785714Y-8716723D01*
X12785714Y-8716723D02*
X12738095Y-8811961D01*
X12738095Y-8811961D02*
X12642857Y-8907200D01*
X12642857Y-8907200D02*
X12500000Y-8954819D01*
X12500000Y-8954819D02*
X12261905Y-8954819D01*
X13785714Y-8954819D02*
X13214286Y-8954819D01*
X13500000Y-8954819D02*
X13500000Y-7954819D01*
X13500000Y-7954819D02*
X13404762Y-8097676D01*
X13404762Y-8097676D02*
X13309524Y-8192914D01*
X13309524Y-8192914D02*
X13214286Y-8240533D01*
X47333333Y-17224819D02*
X47000000Y-16748628D01*
X46761905Y-17224819D02*
X46761905Y-16224819D01*
X46761905Y-16224819D02*
X47142857Y-16224819D01*
X47142857Y-16224819D02*
X47238095Y-16272438D01*
X47238095Y-16272438D02*
X47285714Y-16320057D01*
X47285714Y-16320057D02*
X47333333Y-16415295D01*
X47333333Y-16415295D02*
X47333333Y-16558152D01*
X47333333Y-16558152D02*
X47285714Y-16653390D01*
X47285714Y-16653390D02*
X47238095Y-16701009D01*
X47238095Y-16701009D02*
X47142857Y-16748628D01*
X47142857Y-16748628D02*
X46761905Y-16748628D01*
X47904762Y-16653390D02*
X47809524Y-16605771D01*
X47809524Y-16605771D02*
X47761905Y-16558152D01*
X47761905Y-16558152D02*
X47714286Y-16462914D01*
X47714286Y-16462914D02*
X47714286Y-16415295D01*
X47714286Y-16415295D02*
X47761905Y-16320057D01*
X47761905Y-16320057D02*
X47809524Y-16272438D01*
X47809524Y-16272438D02*
X47904762Y-16224819D01*
X47904762Y-16224819D02*
X48095238Y-16224819D01*
X48095238Y-16224819D02*
X48190476Y-16272438D01*
X48190476Y-16272438D02*
X48238095Y-16320057D01*
X48238095Y-16320057D02*
X48285714Y-16415295D01*
X48285714Y-16415295D02*
X48285714Y-16462914D01*
X48285714Y-16462914D02*
X48238095Y-16558152D01*
X48238095Y-16558152D02*
X48190476Y-16605771D01*
X48190476Y-16605771D02*
X48095238Y-16653390D01*
X48095238Y-16653390D02*
X47904762Y-16653390D01*
X47904762Y-16653390D02*
X47809524Y-16701009D01*
X47809524Y-16701009D02*
X47761905Y-16748628D01*
X47761905Y-16748628D02*
X47714286Y-16843866D01*
X47714286Y-16843866D02*
X47714286Y-17034342D01*
X47714286Y-17034342D02*
X47761905Y-17129580D01*
X47761905Y-17129580D02*
X47809524Y-17177200D01*
X47809524Y-17177200D02*
X47904762Y-17224819D01*
X47904762Y-17224819D02*
X48095238Y-17224819D01*
X48095238Y-17224819D02*
X48190476Y-17177200D01*
X48190476Y-17177200D02*
X48238095Y-17129580D01*
X48238095Y-17129580D02*
X48285714Y-17034342D01*
X48285714Y-17034342D02*
X48285714Y-16843866D01*
X48285714Y-16843866D02*
X48238095Y-16748628D01*
X48238095Y-16748628D02*
X48190476Y-16701009D01*
X48190476Y-16701009D02*
X48095238Y-16653390D01*
X6166666Y-4501009D02*
X5833333Y-4501009D01*
X5833333Y-5024819D02*
X5833333Y-4024819D01*
X5833333Y-4024819D02*
X6309523Y-4024819D01*
X7214285Y-5024819D02*
X6642857Y-5024819D01*
X6928571Y-5024819D02*
X6928571Y-4024819D01*
X6928571Y-4024819D02*
X6833333Y-4167676D01*
X6833333Y-4167676D02*
X6738095Y-4262914D01*
X6738095Y-4262914D02*
X6642857Y-4310533D01*
X44666667Y-23207200D02*
X44809524Y-23254819D01*
X44809524Y-23254819D02*
X45047619Y-23254819D01*
X45047619Y-23254819D02*
X45142857Y-23207200D01*
X45142857Y-23207200D02*
X45190476Y-23159580D01*
X45190476Y-23159580D02*
X45238095Y-23064342D01*
X45238095Y-23064342D02*
X45238095Y-22969104D01*
X45238095Y-22969104D02*
X45190476Y-22873866D01*
X45190476Y-22873866D02*
X45142857Y-22826247D01*
X45142857Y-22826247D02*
X45047619Y-22778628D01*
X45047619Y-22778628D02*
X44857143Y-22731009D01*
X44857143Y-22731009D02*
X44761905Y-22683390D01*
X44761905Y-22683390D02*
X44714286Y-22635771D01*
X44714286Y-22635771D02*
X44666667Y-22540533D01*
X44666667Y-22540533D02*
X44666667Y-22445295D01*
X44666667Y-22445295D02*
X44714286Y-22350057D01*
X44714286Y-22350057D02*
X44761905Y-22302438D01*
X44761905Y-22302438D02*
X44857143Y-22254819D01*
X44857143Y-22254819D02*
X45095238Y-22254819D01*
X45095238Y-22254819D02*
X45238095Y-22302438D01*
X45571429Y-22254819D02*
X45809524Y-23254819D01*
X45809524Y-23254819D02*
X46000000Y-22540533D01*
X46000000Y-22540533D02*
X46190476Y-23254819D01*
X46190476Y-23254819D02*
X46428572Y-22254819D01*
X47333333Y-23254819D02*
X46761905Y-23254819D01*
X47047619Y-23254819D02*
X47047619Y-22254819D01*
X47047619Y-22254819D02*
X46952381Y-22397676D01*
X46952381Y-22397676D02*
X46857143Y-22492914D01*
X46857143Y-22492914D02*
X46761905Y-22540533D01*
X45024819Y-12166666D02*
X44548628Y-12499999D01*
X45024819Y-12738094D02*
X44024819Y-12738094D01*
X44024819Y-12738094D02*
X44024819Y-12357142D01*
X44024819Y-12357142D02*
X44072438Y-12261904D01*
X44072438Y-12261904D02*
X44120057Y-12214285D01*
X44120057Y-12214285D02*
X44215295Y-12166666D01*
X44215295Y-12166666D02*
X44358152Y-12166666D01*
X44358152Y-12166666D02*
X44453390Y-12214285D01*
X44453390Y-12214285D02*
X44501009Y-12261904D01*
X44501009Y-12261904D02*
X44548628Y-12357142D01*
X44548628Y-12357142D02*
X44548628Y-12738094D01*
X45024819Y-11214285D02*
X45024819Y-11785713D01*
X45024819Y-11499999D02*
X44024819Y-11499999D01*
X44024819Y-11499999D02*
X44167676Y-11595237D01*
X44167676Y-11595237D02*
X44262914Y-11690475D01*
X44262914Y-11690475D02*
X44310533Y-11785713D01*
X6929580Y-15166666D02*
X6977200Y-15214285D01*
X6977200Y-15214285D02*
X7024819Y-15357142D01*
X7024819Y-15357142D02*
X7024819Y-15452380D01*
X7024819Y-15452380D02*
X6977200Y-15595237D01*
X6977200Y-15595237D02*
X6881961Y-15690475D01*
X6881961Y-15690475D02*
X6786723Y-15738094D01*
X6786723Y-15738094D02*
X6596247Y-15785713D01*
X6596247Y-15785713D02*
X6453390Y-15785713D01*
X6453390Y-15785713D02*
X6262914Y-15738094D01*
X6262914Y-15738094D02*
X6167676Y-15690475D01*
X6167676Y-15690475D02*
X6072438Y-15595237D01*
X6072438Y-15595237D02*
X6024819Y-15452380D01*
X6024819Y-15452380D02*
X6024819Y-15357142D01*
X6024819Y-15357142D02*
X6072438Y-15214285D01*
X6072438Y-15214285D02*
X6120057Y-15166666D01*
X7024819Y-14690475D02*
X7024819Y-14499999D01*
X7024819Y-14499999D02*
X6977200Y-14404761D01*
X6977200Y-14404761D02*
X6929580Y-14357142D01*
X6929580Y-14357142D02*
X6786723Y-14261904D01*
X6786723Y-14261904D02*
X6596247Y-14214285D01*
X6596247Y-14214285D02*
X6215295Y-14214285D01*
X6215295Y-14214285D02*
X6120057Y-14261904D01*
X6120057Y-14261904D02*
X6072438Y-14309523D01*
X6072438Y-14309523D02*
X6024819Y-14404761D01*
X6024819Y-14404761D02*
X6024819Y-14595237D01*
X6024819Y-14595237D02*
X6072438Y-14690475D01*
X6072438Y-14690475D02*
X6120057Y-14738094D01*
X6120057Y-14738094D02*
X6215295Y-14785713D01*
X6215295Y-14785713D02*
X6453390Y-14785713D01*
X6453390Y-14785713D02*
X6548628Y-14738094D01*
X6548628Y-14738094D02*
X6596247Y-14690475D01*
X6596247Y-14690475D02*
X6643866Y-14595237D01*
X6643866Y-14595237D02*
X6643866Y-14404761D01*
X6643866Y-14404761D02*
X6596247Y-14309523D01*
X6596247Y-14309523D02*
X6548628Y-14261904D01*
X6548628Y-14261904D02*
X6453390Y-14214285D01*
X51133333Y-4929580D02*
X51085714Y-4977200D01*
X51085714Y-4977200D02*
X50942857Y-5024819D01*
X50942857Y-5024819D02*
X50847619Y-5024819D01*
X50847619Y-5024819D02*
X50704762Y-4977200D01*
X50704762Y-4977200D02*
X50609524Y-4881961D01*
X50609524Y-4881961D02*
X50561905Y-4786723D01*
X50561905Y-4786723D02*
X50514286Y-4596247D01*
X50514286Y-4596247D02*
X50514286Y-4453390D01*
X50514286Y-4453390D02*
X50561905Y-4262914D01*
X50561905Y-4262914D02*
X50609524Y-4167676D01*
X50609524Y-4167676D02*
X50704762Y-4072438D01*
X50704762Y-4072438D02*
X50847619Y-4024819D01*
X50847619Y-4024819D02*
X50942857Y-4024819D01*
X50942857Y-4024819D02*
X51085714Y-4072438D01*
X51085714Y-4072438D02*
X51133333Y-4120057D01*
X51990476Y-4024819D02*
X51800000Y-4024819D01*
X51800000Y-4024819D02*
X51704762Y-4072438D01*
X51704762Y-4072438D02*
X51657143Y-4120057D01*
X51657143Y-4120057D02*
X51561905Y-4262914D01*
X51561905Y-4262914D02*
X51514286Y-4453390D01*
X51514286Y-4453390D02*
X51514286Y-4834342D01*
X51514286Y-4834342D02*
X51561905Y-4929580D01*
X51561905Y-4929580D02*
X51609524Y-4977200D01*
X51609524Y-4977200D02*
X51704762Y-5024819D01*
X51704762Y-5024819D02*
X51895238Y-5024819D01*
X51895238Y-5024819D02*
X51990476Y-4977200D01*
X51990476Y-4977200D02*
X52038095Y-4929580D01*
X52038095Y-4929580D02*
X52085714Y-4834342D01*
X52085714Y-4834342D02*
X52085714Y-4596247D01*
X52085714Y-4596247D02*
X52038095Y-4501009D01*
X52038095Y-4501009D02*
X51990476Y-4453390D01*
X51990476Y-4453390D02*
X51895238Y-4405771D01*
X51895238Y-4405771D02*
X51704762Y-4405771D01*
X51704762Y-4405771D02*
X51609524Y-4453390D01*
X51609524Y-4453390D02*
X51561905Y-4501009D01*
X51561905Y-4501009D02*
X51514286Y-4596247D01*
%TO.C,LED2*%
D11*
X42515000Y-17465000D02*
X42515000Y-18935000D01*
X42515000Y-18935000D02*
X44800000Y-18935000D01*
X44800000Y-17465000D02*
X42515000Y-17465000D01*
%TO.C,R4*%
X31477500Y-12737258D02*
X31477500Y-12262742D01*
X32522500Y-12737258D02*
X32522500Y-12262742D01*
%TO.C,R2*%
X45477500Y-15437258D02*
X45477500Y-14962742D01*
X46522500Y-15437258D02*
X46522500Y-14962742D01*
%TO.C,C3*%
X38738748Y-10265000D02*
X39261252Y-10265000D01*
X38738748Y-11735000D02*
X39261252Y-11735000D01*
%TO.C,C2*%
X27288748Y-4640000D02*
X28711252Y-4640000D01*
X27288748Y-7360000D02*
X28711252Y-7360000D01*
%TO.C,U1*%
X49750000Y-8250000D02*
X66650000Y-8250000D01*
X49750000Y-21750000D02*
X49750000Y-8250000D01*
X66650000Y-8250000D02*
X66650000Y-21750000D01*
X66650000Y-21750000D02*
X49750000Y-21750000D01*
X59500000Y-7900000D02*
X59260000Y-7564000D01*
X59740000Y-7564000D01*
X59500000Y-7900000D01*
G36*
X59500000Y-7900000D02*
G01*
X59260000Y-7564000D01*
X59740000Y-7564000D01*
X59500000Y-7900000D01*
G37*
%TO.C,R6*%
X47477500Y-21237258D02*
X47477500Y-20762742D01*
X48522500Y-21237258D02*
X48522500Y-20762742D01*
%TO.C,C7*%
X54659420Y-5490000D02*
X54940580Y-5490000D01*
X54659420Y-6510000D02*
X54940580Y-6510000D01*
%TO.C,R5*%
X62037258Y-5477500D02*
X61562742Y-5477500D01*
X62037258Y-6522500D02*
X61562742Y-6522500D01*
%TO.C,U2*%
X10940000Y-15440000D02*
X15060000Y-15440000D01*
X10940000Y-15535000D02*
X10940000Y-15440000D01*
X10940000Y-20560000D02*
X10940000Y-20465000D01*
X15060000Y-15440000D02*
X15060000Y-15535000D01*
X15060000Y-20465000D02*
X15060000Y-20560000D01*
X15060000Y-20560000D02*
X10940000Y-20560000D01*
X10400000Y-15530000D02*
X10160000Y-15200000D01*
X10640000Y-15200000D01*
X10400000Y-15530000D01*
G36*
X10400000Y-15530000D02*
G01*
X10160000Y-15200000D01*
X10640000Y-15200000D01*
X10400000Y-15530000D01*
G37*
%TO.C,C5*%
X35990000Y-9940580D02*
X35990000Y-9659420D01*
X37010000Y-9940580D02*
X37010000Y-9659420D01*
%TO.C,R10*%
X44262742Y-21477500D02*
X44737258Y-21477500D01*
X44262742Y-22522500D02*
X44737258Y-22522500D01*
%TO.C,R3*%
X31477500Y-9237258D02*
X31477500Y-8762742D01*
X32522500Y-9237258D02*
X32522500Y-8762742D01*
%TO.C,C8*%
X58159420Y-5490000D02*
X58440580Y-5490000D01*
X58159420Y-6510000D02*
X58440580Y-6510000D01*
%TO.C,U3*%
X35090000Y-4440000D02*
X36910000Y-4440000D01*
X35090000Y-4490000D02*
X35090000Y-4440000D01*
X35090000Y-7560000D02*
X35090000Y-7510000D01*
X36910000Y-4440000D02*
X36910000Y-4490000D01*
X36910000Y-7510000D02*
X36910000Y-7560000D01*
X36910000Y-7560000D02*
X35090000Y-7560000D01*
X34550000Y-4490000D02*
X34310000Y-4160000D01*
X34790000Y-4160000D01*
X34550000Y-4490000D01*
G36*
X34550000Y-4490000D02*
G01*
X34310000Y-4160000D01*
X34790000Y-4160000D01*
X34550000Y-4490000D01*
G37*
%TO.C,J2*%
X50620000Y-25880000D02*
X50620000Y-24500000D01*
X52000000Y-25880000D02*
X50620000Y-25880000D01*
X53270000Y-23120000D02*
X66080000Y-23120000D01*
X53270000Y-25880000D02*
X53270000Y-23120000D01*
X53270000Y-25880000D02*
X66080000Y-25880000D01*
X66080000Y-25880000D02*
X66080000Y-23120000D01*
%TO.C,C4*%
X42738748Y-12265000D02*
X43261252Y-12265000D01*
X42738748Y-13735000D02*
X43261252Y-13735000D01*
%TO.C,D3*%
X18740000Y-16440000D02*
X20260000Y-16440000D01*
X18740000Y-16490000D02*
X18740000Y-16440000D01*
X18740000Y-18390000D02*
X18740000Y-17610000D01*
X18740000Y-19560000D02*
X18740000Y-19510000D01*
X20260000Y-16440000D02*
X20260000Y-17440000D01*
X20260000Y-18560000D02*
X20260000Y-19560000D01*
X20260000Y-19560000D02*
X18740000Y-19560000D01*
X18200000Y-17620000D02*
X18440000Y-17950000D01*
X17960000Y-17950000D01*
X18200000Y-17620000D01*
G36*
X18440000Y-17950000D02*
G01*
X17960000Y-17950000D01*
X18200000Y-17620000D01*
X18440000Y-17950000D01*
G37*
%TO.C,R9*%
X18977500Y-21737258D02*
X18977500Y-21262742D01*
X20022500Y-21737258D02*
X20022500Y-21262742D01*
%TO.C,L1*%
X40490000Y-2590000D02*
X47510000Y-2590000D01*
X40490000Y-3990000D02*
X40490000Y-2590000D01*
X40490000Y-9410000D02*
X40490000Y-8010000D01*
X47510000Y-2590000D02*
X47510000Y-3990000D01*
X47510000Y-8010000D02*
X47510000Y-9410000D01*
X47510000Y-9410000D02*
X40490000Y-9410000D01*
%TO.C,J1*%
X2620000Y-8620000D02*
X4000000Y-8620000D01*
X2620000Y-10000000D02*
X2620000Y-8620000D01*
X2620000Y-11270000D02*
X2620000Y-21540000D01*
X2620000Y-11270000D02*
X5380000Y-11270000D01*
X2620000Y-21540000D02*
X5380000Y-21540000D01*
X5380000Y-11270000D02*
X5380000Y-21540000D01*
%TO.C,R7*%
X39977500Y-18437258D02*
X39977500Y-17962742D01*
X41022500Y-18437258D02*
X41022500Y-17962742D01*
%TO.C,LED1*%
X36515000Y-17465000D02*
X36515000Y-18935000D01*
X36515000Y-18935000D02*
X38800000Y-18935000D01*
X38800000Y-17465000D02*
X36515000Y-17465000D01*
%TO.C,C1*%
X19288748Y-4640000D02*
X20711252Y-4640000D01*
X19288748Y-7360000D02*
X20711252Y-7360000D01*
%TO.C,D2*%
X16660000Y-3850000D02*
X10850000Y-3850000D01*
X16660000Y-8150000D02*
X10850000Y-8150000D01*
X16660000Y-8150000D02*
X16660000Y-3850000D01*
%TO.C,D1*%
X9340000Y-9350000D02*
X9340000Y-13650000D01*
X9340000Y-9350000D02*
X15150000Y-9350000D01*
X9340000Y-13650000D02*
X15150000Y-13650000D01*
%TO.C,R8*%
X47262742Y-17677500D02*
X47737258Y-17677500D01*
X47262742Y-18722500D02*
X47737258Y-18722500D01*
%TO.C,F1*%
X6337221Y-5490000D02*
X6662779Y-5490000D01*
X6337221Y-6510000D02*
X6662779Y-6510000D01*
%TO.C,SW1*%
X43550000Y-27575000D02*
X43550000Y-27025000D01*
X44575000Y-25450000D02*
X43650000Y-25450000D01*
X48350000Y-25450000D02*
X47425000Y-25450000D01*
X48350000Y-29150000D02*
X43650000Y-29150000D01*
X48450000Y-27575000D02*
X48450000Y-27025000D01*
%TO.C,R1*%
X45477500Y-12237258D02*
X45477500Y-11762742D01*
X46522500Y-12237258D02*
X46522500Y-11762742D01*
%TO.C,C9*%
X7490000Y-15140580D02*
X7490000Y-14859420D01*
X8510000Y-15140580D02*
X8510000Y-14859420D01*
%TO.C,C6*%
X51159420Y-5490000D02*
X51440580Y-5490000D01*
X51159420Y-6510000D02*
X51440580Y-6510000D01*
%TD*%
M02*
