%TF.GenerationSoftware,KiCad,Pcbnew,10.0.5*%
%TF.CreationDate,2026-08-11T02:58:11+03:00*%
%TF.ProjectId,trace-dongle,74726163-652d-4646-9f6e-676c652e6b69,rev?*%
%TF.SameCoordinates,Original*%
%TF.FileFunction,Other,Comment*%
%FSLAX46Y46*%
G04 Gerber Fmt 4.6, Leading zero omitted, Abs format (unit mm)*
G04 Created by KiCad (PCBNEW 10.0.5) date 2026-08-11 02:58:11*
%MOMM*%
%LPD*%
G01*
G04 APERTURE LIST*
%ADD10C,0.120000*%
G04 APERTURE END LIST*
D10*
X56310283Y-32423812D02*
X56310283Y-32042859D01*
X56538855Y-32500002D02*
X55738855Y-32233335D01*
X55738855Y-32233335D02*
X56538855Y-31966669D01*
X56005521Y-31700002D02*
X56538855Y-31700002D01*
X56081712Y-31700002D02*
X56043617Y-31661907D01*
X56043617Y-31661907D02*
X56005521Y-31585717D01*
X56005521Y-31585717D02*
X56005521Y-31471431D01*
X56005521Y-31471431D02*
X56043617Y-31395240D01*
X56043617Y-31395240D02*
X56119807Y-31357145D01*
X56119807Y-31357145D02*
X56538855Y-31357145D01*
X56005521Y-31090478D02*
X56005521Y-30785716D01*
X55738855Y-30976192D02*
X56424569Y-30976192D01*
X56424569Y-30976192D02*
X56500760Y-30938097D01*
X56500760Y-30938097D02*
X56538855Y-30861907D01*
X56538855Y-30861907D02*
X56538855Y-30785716D01*
X56500760Y-30214287D02*
X56538855Y-30290478D01*
X56538855Y-30290478D02*
X56538855Y-30442859D01*
X56538855Y-30442859D02*
X56500760Y-30519049D01*
X56500760Y-30519049D02*
X56424569Y-30557145D01*
X56424569Y-30557145D02*
X56119807Y-30557145D01*
X56119807Y-30557145D02*
X56043617Y-30519049D01*
X56043617Y-30519049D02*
X56005521Y-30442859D01*
X56005521Y-30442859D02*
X56005521Y-30290478D01*
X56005521Y-30290478D02*
X56043617Y-30214287D01*
X56043617Y-30214287D02*
X56119807Y-30176192D01*
X56119807Y-30176192D02*
X56195998Y-30176192D01*
X56195998Y-30176192D02*
X56272188Y-30557145D01*
X56005521Y-29833335D02*
X56538855Y-29833335D01*
X56081712Y-29833335D02*
X56043617Y-29795240D01*
X56043617Y-29795240D02*
X56005521Y-29719050D01*
X56005521Y-29719050D02*
X56005521Y-29604764D01*
X56005521Y-29604764D02*
X56043617Y-29528573D01*
X56043617Y-29528573D02*
X56119807Y-29490478D01*
X56119807Y-29490478D02*
X56538855Y-29490478D01*
X56005521Y-29109525D02*
X56538855Y-29109525D01*
X56081712Y-29109525D02*
X56043617Y-29071430D01*
X56043617Y-29071430D02*
X56005521Y-28995240D01*
X56005521Y-28995240D02*
X56005521Y-28880954D01*
X56005521Y-28880954D02*
X56043617Y-28804763D01*
X56043617Y-28804763D02*
X56119807Y-28766668D01*
X56119807Y-28766668D02*
X56538855Y-28766668D01*
X56538855Y-28042858D02*
X56119807Y-28042858D01*
X56119807Y-28042858D02*
X56043617Y-28080953D01*
X56043617Y-28080953D02*
X56005521Y-28157144D01*
X56005521Y-28157144D02*
X56005521Y-28309525D01*
X56005521Y-28309525D02*
X56043617Y-28385715D01*
X56500760Y-28042858D02*
X56538855Y-28119049D01*
X56538855Y-28119049D02*
X56538855Y-28309525D01*
X56538855Y-28309525D02*
X56500760Y-28385715D01*
X56500760Y-28385715D02*
X56424569Y-28423811D01*
X56424569Y-28423811D02*
X56348379Y-28423811D01*
X56348379Y-28423811D02*
X56272188Y-28385715D01*
X56272188Y-28385715D02*
X56234093Y-28309525D01*
X56234093Y-28309525D02*
X56234093Y-28119049D01*
X56234093Y-28119049D02*
X56195998Y-28042858D01*
X56500760Y-26747619D02*
X56538855Y-26823810D01*
X56538855Y-26823810D02*
X56538855Y-26976191D01*
X56538855Y-26976191D02*
X56500760Y-27052381D01*
X56500760Y-27052381D02*
X56424569Y-27090477D01*
X56424569Y-27090477D02*
X56119807Y-27090477D01*
X56119807Y-27090477D02*
X56043617Y-27052381D01*
X56043617Y-27052381D02*
X56005521Y-26976191D01*
X56005521Y-26976191D02*
X56005521Y-26823810D01*
X56005521Y-26823810D02*
X56043617Y-26747619D01*
X56043617Y-26747619D02*
X56119807Y-26709524D01*
X56119807Y-26709524D02*
X56195998Y-26709524D01*
X56195998Y-26709524D02*
X56272188Y-27090477D01*
X56538855Y-26023810D02*
X55738855Y-26023810D01*
X56500760Y-26023810D02*
X56538855Y-26100001D01*
X56538855Y-26100001D02*
X56538855Y-26252382D01*
X56538855Y-26252382D02*
X56500760Y-26328572D01*
X56500760Y-26328572D02*
X56462664Y-26366667D01*
X56462664Y-26366667D02*
X56386474Y-26404763D01*
X56386474Y-26404763D02*
X56157902Y-26404763D01*
X56157902Y-26404763D02*
X56081712Y-26366667D01*
X56081712Y-26366667D02*
X56043617Y-26328572D01*
X56043617Y-26328572D02*
X56005521Y-26252382D01*
X56005521Y-26252382D02*
X56005521Y-26100001D01*
X56005521Y-26100001D02*
X56043617Y-26023810D01*
X56005521Y-25300000D02*
X56653140Y-25300000D01*
X56653140Y-25300000D02*
X56729331Y-25338095D01*
X56729331Y-25338095D02*
X56767426Y-25376191D01*
X56767426Y-25376191D02*
X56805521Y-25452381D01*
X56805521Y-25452381D02*
X56805521Y-25566667D01*
X56805521Y-25566667D02*
X56767426Y-25642857D01*
X56500760Y-25300000D02*
X56538855Y-25376191D01*
X56538855Y-25376191D02*
X56538855Y-25528572D01*
X56538855Y-25528572D02*
X56500760Y-25604762D01*
X56500760Y-25604762D02*
X56462664Y-25642857D01*
X56462664Y-25642857D02*
X56386474Y-25680953D01*
X56386474Y-25680953D02*
X56157902Y-25680953D01*
X56157902Y-25680953D02*
X56081712Y-25642857D01*
X56081712Y-25642857D02*
X56043617Y-25604762D01*
X56043617Y-25604762D02*
X56005521Y-25528572D01*
X56005521Y-25528572D02*
X56005521Y-25376191D01*
X56005521Y-25376191D02*
X56043617Y-25300000D01*
X56500760Y-24614285D02*
X56538855Y-24690476D01*
X56538855Y-24690476D02*
X56538855Y-24842857D01*
X56538855Y-24842857D02*
X56500760Y-24919047D01*
X56500760Y-24919047D02*
X56424569Y-24957143D01*
X56424569Y-24957143D02*
X56119807Y-24957143D01*
X56119807Y-24957143D02*
X56043617Y-24919047D01*
X56043617Y-24919047D02*
X56005521Y-24842857D01*
X56005521Y-24842857D02*
X56005521Y-24690476D01*
X56005521Y-24690476D02*
X56043617Y-24614285D01*
X56043617Y-24614285D02*
X56119807Y-24576190D01*
X56119807Y-24576190D02*
X56195998Y-24576190D01*
X56195998Y-24576190D02*
X56272188Y-24957143D01*
X56843617Y-23395238D02*
X56805521Y-23433333D01*
X56805521Y-23433333D02*
X56691236Y-23509524D01*
X56691236Y-23509524D02*
X56615045Y-23547619D01*
X56615045Y-23547619D02*
X56500760Y-23585714D01*
X56500760Y-23585714D02*
X56310283Y-23623809D01*
X56310283Y-23623809D02*
X56157902Y-23623809D01*
X56157902Y-23623809D02*
X55967426Y-23585714D01*
X55967426Y-23585714D02*
X55853140Y-23547619D01*
X55853140Y-23547619D02*
X55776950Y-23509524D01*
X55776950Y-23509524D02*
X55662664Y-23433333D01*
X55662664Y-23433333D02*
X55624569Y-23395238D01*
X56005521Y-23090476D02*
X56538855Y-23090476D01*
X56081712Y-23090476D02*
X56043617Y-23052381D01*
X56043617Y-23052381D02*
X56005521Y-22976191D01*
X56005521Y-22976191D02*
X56005521Y-22861905D01*
X56005521Y-22861905D02*
X56043617Y-22785714D01*
X56043617Y-22785714D02*
X56119807Y-22747619D01*
X56119807Y-22747619D02*
X56538855Y-22747619D01*
X56538855Y-22252381D02*
X56500760Y-22328571D01*
X56500760Y-22328571D02*
X56462664Y-22366666D01*
X56462664Y-22366666D02*
X56386474Y-22404762D01*
X56386474Y-22404762D02*
X56157902Y-22404762D01*
X56157902Y-22404762D02*
X56081712Y-22366666D01*
X56081712Y-22366666D02*
X56043617Y-22328571D01*
X56043617Y-22328571D02*
X56005521Y-22252381D01*
X56005521Y-22252381D02*
X56005521Y-22138095D01*
X56005521Y-22138095D02*
X56043617Y-22061904D01*
X56043617Y-22061904D02*
X56081712Y-22023809D01*
X56081712Y-22023809D02*
X56157902Y-21985714D01*
X56157902Y-21985714D02*
X56386474Y-21985714D01*
X56386474Y-21985714D02*
X56462664Y-22023809D01*
X56462664Y-22023809D02*
X56500760Y-22061904D01*
X56500760Y-22061904D02*
X56538855Y-22138095D01*
X56538855Y-22138095D02*
X56538855Y-22252381D01*
X56500760Y-20690475D02*
X56538855Y-20766666D01*
X56538855Y-20766666D02*
X56538855Y-20919047D01*
X56538855Y-20919047D02*
X56500760Y-20995237D01*
X56500760Y-20995237D02*
X56462664Y-21033332D01*
X56462664Y-21033332D02*
X56386474Y-21071428D01*
X56386474Y-21071428D02*
X56157902Y-21071428D01*
X56157902Y-21071428D02*
X56081712Y-21033332D01*
X56081712Y-21033332D02*
X56043617Y-20995237D01*
X56043617Y-20995237D02*
X56005521Y-20919047D01*
X56005521Y-20919047D02*
X56005521Y-20766666D01*
X56005521Y-20766666D02*
X56043617Y-20690475D01*
X56538855Y-20233333D02*
X56500760Y-20309523D01*
X56500760Y-20309523D02*
X56462664Y-20347618D01*
X56462664Y-20347618D02*
X56386474Y-20385714D01*
X56386474Y-20385714D02*
X56157902Y-20385714D01*
X56157902Y-20385714D02*
X56081712Y-20347618D01*
X56081712Y-20347618D02*
X56043617Y-20309523D01*
X56043617Y-20309523D02*
X56005521Y-20233333D01*
X56005521Y-20233333D02*
X56005521Y-20119047D01*
X56005521Y-20119047D02*
X56043617Y-20042856D01*
X56043617Y-20042856D02*
X56081712Y-20004761D01*
X56081712Y-20004761D02*
X56157902Y-19966666D01*
X56157902Y-19966666D02*
X56386474Y-19966666D01*
X56386474Y-19966666D02*
X56462664Y-20004761D01*
X56462664Y-20004761D02*
X56500760Y-20042856D01*
X56500760Y-20042856D02*
X56538855Y-20119047D01*
X56538855Y-20119047D02*
X56538855Y-20233333D01*
X56005521Y-19623808D02*
X56805521Y-19623808D01*
X56043617Y-19623808D02*
X56005521Y-19547618D01*
X56005521Y-19547618D02*
X56005521Y-19395237D01*
X56005521Y-19395237D02*
X56043617Y-19319046D01*
X56043617Y-19319046D02*
X56081712Y-19280951D01*
X56081712Y-19280951D02*
X56157902Y-19242856D01*
X56157902Y-19242856D02*
X56386474Y-19242856D01*
X56386474Y-19242856D02*
X56462664Y-19280951D01*
X56462664Y-19280951D02*
X56500760Y-19319046D01*
X56500760Y-19319046D02*
X56538855Y-19395237D01*
X56538855Y-19395237D02*
X56538855Y-19547618D01*
X56538855Y-19547618D02*
X56500760Y-19623808D01*
X56005521Y-18899998D02*
X56805521Y-18899998D01*
X56043617Y-18899998D02*
X56005521Y-18823808D01*
X56005521Y-18823808D02*
X56005521Y-18671427D01*
X56005521Y-18671427D02*
X56043617Y-18595236D01*
X56043617Y-18595236D02*
X56081712Y-18557141D01*
X56081712Y-18557141D02*
X56157902Y-18519046D01*
X56157902Y-18519046D02*
X56386474Y-18519046D01*
X56386474Y-18519046D02*
X56462664Y-18557141D01*
X56462664Y-18557141D02*
X56500760Y-18595236D01*
X56500760Y-18595236D02*
X56538855Y-18671427D01*
X56538855Y-18671427D02*
X56538855Y-18823808D01*
X56538855Y-18823808D02*
X56500760Y-18899998D01*
X56500760Y-17871426D02*
X56538855Y-17947617D01*
X56538855Y-17947617D02*
X56538855Y-18099998D01*
X56538855Y-18099998D02*
X56500760Y-18176188D01*
X56500760Y-18176188D02*
X56424569Y-18214284D01*
X56424569Y-18214284D02*
X56119807Y-18214284D01*
X56119807Y-18214284D02*
X56043617Y-18176188D01*
X56043617Y-18176188D02*
X56005521Y-18099998D01*
X56005521Y-18099998D02*
X56005521Y-17947617D01*
X56005521Y-17947617D02*
X56043617Y-17871426D01*
X56043617Y-17871426D02*
X56119807Y-17833331D01*
X56119807Y-17833331D02*
X56195998Y-17833331D01*
X56195998Y-17833331D02*
X56272188Y-18214284D01*
X56538855Y-17490474D02*
X56005521Y-17490474D01*
X56157902Y-17490474D02*
X56081712Y-17452379D01*
X56081712Y-17452379D02*
X56043617Y-17414284D01*
X56043617Y-17414284D02*
X56005521Y-17338093D01*
X56005521Y-17338093D02*
X56005521Y-17261903D01*
X56843617Y-17071427D02*
X56805521Y-17033332D01*
X56805521Y-17033332D02*
X56691236Y-16957141D01*
X56691236Y-16957141D02*
X56615045Y-16919046D01*
X56615045Y-16919046D02*
X56500760Y-16880951D01*
X56500760Y-16880951D02*
X56310283Y-16842855D01*
X56310283Y-16842855D02*
X56157902Y-16842855D01*
X56157902Y-16842855D02*
X55967426Y-16880951D01*
X55967426Y-16880951D02*
X55853140Y-16919046D01*
X55853140Y-16919046D02*
X55776950Y-16957141D01*
X55776950Y-16957141D02*
X55662664Y-17033332D01*
X55662664Y-17033332D02*
X55624569Y-17071427D01*
X56234093Y-15852379D02*
X56234093Y-15242856D01*
X56234093Y-14861903D02*
X56234093Y-14252380D01*
X56119807Y-13261903D02*
X56119807Y-12995237D01*
X56538855Y-12880951D02*
X56538855Y-13261903D01*
X56538855Y-13261903D02*
X55738855Y-13261903D01*
X55738855Y-13261903D02*
X55738855Y-12880951D01*
X56500760Y-12576189D02*
X56538855Y-12461903D01*
X56538855Y-12461903D02*
X56538855Y-12271427D01*
X56538855Y-12271427D02*
X56500760Y-12195236D01*
X56500760Y-12195236D02*
X56462664Y-12157141D01*
X56462664Y-12157141D02*
X56386474Y-12119046D01*
X56386474Y-12119046D02*
X56310283Y-12119046D01*
X56310283Y-12119046D02*
X56234093Y-12157141D01*
X56234093Y-12157141D02*
X56195998Y-12195236D01*
X56195998Y-12195236D02*
X56157902Y-12271427D01*
X56157902Y-12271427D02*
X56119807Y-12423808D01*
X56119807Y-12423808D02*
X56081712Y-12499998D01*
X56081712Y-12499998D02*
X56043617Y-12538093D01*
X56043617Y-12538093D02*
X55967426Y-12576189D01*
X55967426Y-12576189D02*
X55891236Y-12576189D01*
X55891236Y-12576189D02*
X55815045Y-12538093D01*
X55815045Y-12538093D02*
X55776950Y-12499998D01*
X55776950Y-12499998D02*
X55738855Y-12423808D01*
X55738855Y-12423808D02*
X55738855Y-12233331D01*
X55738855Y-12233331D02*
X55776950Y-12119046D01*
X56538855Y-11776188D02*
X55738855Y-11776188D01*
X55738855Y-11776188D02*
X55738855Y-11471426D01*
X55738855Y-11471426D02*
X55776950Y-11395236D01*
X55776950Y-11395236D02*
X55815045Y-11357141D01*
X55815045Y-11357141D02*
X55891236Y-11319045D01*
X55891236Y-11319045D02*
X56005521Y-11319045D01*
X56005521Y-11319045D02*
X56081712Y-11357141D01*
X56081712Y-11357141D02*
X56119807Y-11395236D01*
X56119807Y-11395236D02*
X56157902Y-11471426D01*
X56157902Y-11471426D02*
X56157902Y-11776188D01*
X55738855Y-11052379D02*
X55738855Y-10557141D01*
X55738855Y-10557141D02*
X56043617Y-10823807D01*
X56043617Y-10823807D02*
X56043617Y-10709522D01*
X56043617Y-10709522D02*
X56081712Y-10633331D01*
X56081712Y-10633331D02*
X56119807Y-10595236D01*
X56119807Y-10595236D02*
X56195998Y-10557141D01*
X56195998Y-10557141D02*
X56386474Y-10557141D01*
X56386474Y-10557141D02*
X56462664Y-10595236D01*
X56462664Y-10595236D02*
X56500760Y-10633331D01*
X56500760Y-10633331D02*
X56538855Y-10709522D01*
X56538855Y-10709522D02*
X56538855Y-10938093D01*
X56538855Y-10938093D02*
X56500760Y-11014284D01*
X56500760Y-11014284D02*
X56462664Y-11052379D01*
X55815045Y-10252379D02*
X55776950Y-10214283D01*
X55776950Y-10214283D02*
X55738855Y-10138093D01*
X55738855Y-10138093D02*
X55738855Y-9947617D01*
X55738855Y-9947617D02*
X55776950Y-9871426D01*
X55776950Y-9871426D02*
X55815045Y-9833331D01*
X55815045Y-9833331D02*
X55891236Y-9795236D01*
X55891236Y-9795236D02*
X55967426Y-9795236D01*
X55967426Y-9795236D02*
X56081712Y-9833331D01*
X56081712Y-9833331D02*
X56538855Y-10290474D01*
X56538855Y-10290474D02*
X56538855Y-9795236D01*
X56234093Y-9452378D02*
X56234093Y-8842855D01*
X56462664Y-8004759D02*
X56500760Y-8042855D01*
X56500760Y-8042855D02*
X56538855Y-8157140D01*
X56538855Y-8157140D02*
X56538855Y-8233331D01*
X56538855Y-8233331D02*
X56500760Y-8347617D01*
X56500760Y-8347617D02*
X56424569Y-8423807D01*
X56424569Y-8423807D02*
X56348379Y-8461902D01*
X56348379Y-8461902D02*
X56195998Y-8499998D01*
X56195998Y-8499998D02*
X56081712Y-8499998D01*
X56081712Y-8499998D02*
X55929331Y-8461902D01*
X55929331Y-8461902D02*
X55853140Y-8423807D01*
X55853140Y-8423807D02*
X55776950Y-8347617D01*
X55776950Y-8347617D02*
X55738855Y-8233331D01*
X55738855Y-8233331D02*
X55738855Y-8157140D01*
X55738855Y-8157140D02*
X55776950Y-8042855D01*
X55776950Y-8042855D02*
X55815045Y-8004759D01*
X55738855Y-7738093D02*
X55738855Y-7242855D01*
X55738855Y-7242855D02*
X56043617Y-7509521D01*
X56043617Y-7509521D02*
X56043617Y-7395236D01*
X56043617Y-7395236D02*
X56081712Y-7319045D01*
X56081712Y-7319045D02*
X56119807Y-7280950D01*
X56119807Y-7280950D02*
X56195998Y-7242855D01*
X56195998Y-7242855D02*
X56386474Y-7242855D01*
X56386474Y-7242855D02*
X56462664Y-7280950D01*
X56462664Y-7280950D02*
X56500760Y-7319045D01*
X56500760Y-7319045D02*
X56538855Y-7395236D01*
X56538855Y-7395236D02*
X56538855Y-7623807D01*
X56538855Y-7623807D02*
X56500760Y-7699998D01*
X56500760Y-7699998D02*
X56462664Y-7738093D01*
X56234093Y-6899997D02*
X56234093Y-6290474D01*
X56538855Y-5909521D02*
X55738855Y-5909521D01*
X55738855Y-5909521D02*
X56310283Y-5642855D01*
X56310283Y-5642855D02*
X55738855Y-5376188D01*
X55738855Y-5376188D02*
X56538855Y-5376188D01*
X56538855Y-4995235D02*
X55738855Y-4995235D01*
X56538855Y-4614283D02*
X55738855Y-4614283D01*
X55738855Y-4614283D02*
X56538855Y-4157140D01*
X56538855Y-4157140D02*
X55738855Y-4157140D01*
X56538855Y-3776188D02*
X55738855Y-3776188D01*
X56234093Y-3395236D02*
X56234093Y-2785713D01*
X56538855Y-1985713D02*
X56538855Y-2442856D01*
X56538855Y-2214284D02*
X55738855Y-2214284D01*
X55738855Y-2214284D02*
X55853140Y-2290475D01*
X55853140Y-2290475D02*
X55929331Y-2366665D01*
X55929331Y-2366665D02*
X55967426Y-2442856D01*
X56500760Y-690474D02*
X56538855Y-766665D01*
X56538855Y-766665D02*
X56538855Y-919046D01*
X56538855Y-919046D02*
X56500760Y-995236D01*
X56500760Y-995236D02*
X56462664Y-1033331D01*
X56462664Y-1033331D02*
X56386474Y-1071427D01*
X56386474Y-1071427D02*
X56157902Y-1071427D01*
X56157902Y-1071427D02*
X56081712Y-1033331D01*
X56081712Y-1033331D02*
X56043617Y-995236D01*
X56043617Y-995236D02*
X56005521Y-919046D01*
X56005521Y-919046D02*
X56005521Y-766665D01*
X56005521Y-766665D02*
X56043617Y-690474D01*
X56538855Y-233332D02*
X56500760Y-309522D01*
X56500760Y-309522D02*
X56462664Y-347617D01*
X56462664Y-347617D02*
X56386474Y-385713D01*
X56386474Y-385713D02*
X56157902Y-385713D01*
X56157902Y-385713D02*
X56081712Y-347617D01*
X56081712Y-347617D02*
X56043617Y-309522D01*
X56043617Y-309522D02*
X56005521Y-233332D01*
X56005521Y-233332D02*
X56005521Y-119046D01*
X56005521Y-119046D02*
X56043617Y-42855D01*
X56043617Y-42855D02*
X56081712Y-4760D01*
X56081712Y-4760D02*
X56157902Y33334D01*
X56157902Y33334D02*
X56386474Y33334D01*
X56386474Y33334D02*
X56462664Y-4760D01*
X56462664Y-4760D02*
X56500760Y-42855D01*
X56500760Y-42855D02*
X56538855Y-119046D01*
X56538855Y-119046D02*
X56538855Y-233332D01*
X56005521Y376192D02*
X56538855Y376192D01*
X56081712Y376192D02*
X56043617Y414287D01*
X56043617Y414287D02*
X56005521Y490477D01*
X56005521Y490477D02*
X56005521Y604763D01*
X56005521Y604763D02*
X56043617Y680954D01*
X56043617Y680954D02*
X56119807Y719049D01*
X56119807Y719049D02*
X56538855Y719049D01*
X56500760Y1061906D02*
X56538855Y1138097D01*
X56538855Y1138097D02*
X56538855Y1290478D01*
X56538855Y1290478D02*
X56500760Y1366668D01*
X56500760Y1366668D02*
X56424569Y1404764D01*
X56424569Y1404764D02*
X56386474Y1404764D01*
X56386474Y1404764D02*
X56310283Y1366668D01*
X56310283Y1366668D02*
X56272188Y1290478D01*
X56272188Y1290478D02*
X56272188Y1176192D01*
X56272188Y1176192D02*
X56234093Y1100002D01*
X56234093Y1100002D02*
X56157902Y1061906D01*
X56157902Y1061906D02*
X56119807Y1061906D01*
X56119807Y1061906D02*
X56043617Y1100002D01*
X56043617Y1100002D02*
X56005521Y1176192D01*
X56005521Y1176192D02*
X56005521Y1290478D01*
X56005521Y1290478D02*
X56043617Y1366668D01*
X56005521Y1633335D02*
X56005521Y1938097D01*
X55738855Y1747621D02*
X56424569Y1747621D01*
X56424569Y1747621D02*
X56500760Y1785716D01*
X56500760Y1785716D02*
X56538855Y1861906D01*
X56538855Y1861906D02*
X56538855Y1938097D01*
X56538855Y2204764D02*
X56005521Y2204764D01*
X56157902Y2204764D02*
X56081712Y2242859D01*
X56081712Y2242859D02*
X56043617Y2280954D01*
X56043617Y2280954D02*
X56005521Y2357145D01*
X56005521Y2357145D02*
X56005521Y2433335D01*
X56005521Y3042859D02*
X56538855Y3042859D01*
X56005521Y2700002D02*
X56424569Y2700002D01*
X56424569Y2700002D02*
X56500760Y2738097D01*
X56500760Y2738097D02*
X56538855Y2814287D01*
X56538855Y2814287D02*
X56538855Y2928573D01*
X56538855Y2928573D02*
X56500760Y3004764D01*
X56500760Y3004764D02*
X56462664Y3042859D01*
X56500760Y3766669D02*
X56538855Y3690478D01*
X56538855Y3690478D02*
X56538855Y3538097D01*
X56538855Y3538097D02*
X56500760Y3461907D01*
X56500760Y3461907D02*
X56462664Y3423812D01*
X56462664Y3423812D02*
X56386474Y3385716D01*
X56386474Y3385716D02*
X56157902Y3385716D01*
X56157902Y3385716D02*
X56081712Y3423812D01*
X56081712Y3423812D02*
X56043617Y3461907D01*
X56043617Y3461907D02*
X56005521Y3538097D01*
X56005521Y3538097D02*
X56005521Y3690478D01*
X56005521Y3690478D02*
X56043617Y3766669D01*
X56005521Y3995240D02*
X56005521Y4300002D01*
X55738855Y4109526D02*
X56424569Y4109526D01*
X56424569Y4109526D02*
X56500760Y4147621D01*
X56500760Y4147621D02*
X56538855Y4223811D01*
X56538855Y4223811D02*
X56538855Y4300002D01*
X56500760Y4871431D02*
X56538855Y4795240D01*
X56538855Y4795240D02*
X56538855Y4642859D01*
X56538855Y4642859D02*
X56500760Y4566669D01*
X56500760Y4566669D02*
X56424569Y4528573D01*
X56424569Y4528573D02*
X56119807Y4528573D01*
X56119807Y4528573D02*
X56043617Y4566669D01*
X56043617Y4566669D02*
X56005521Y4642859D01*
X56005521Y4642859D02*
X56005521Y4795240D01*
X56005521Y4795240D02*
X56043617Y4871431D01*
X56043617Y4871431D02*
X56119807Y4909526D01*
X56119807Y4909526D02*
X56195998Y4909526D01*
X56195998Y4909526D02*
X56272188Y4528573D01*
X56538855Y5595240D02*
X55738855Y5595240D01*
X56500760Y5595240D02*
X56538855Y5519049D01*
X56538855Y5519049D02*
X56538855Y5366668D01*
X56538855Y5366668D02*
X56500760Y5290478D01*
X56500760Y5290478D02*
X56462664Y5252383D01*
X56462664Y5252383D02*
X56386474Y5214287D01*
X56386474Y5214287D02*
X56157902Y5214287D01*
X56157902Y5214287D02*
X56081712Y5252383D01*
X56081712Y5252383D02*
X56043617Y5290478D01*
X56043617Y5290478D02*
X56005521Y5366668D01*
X56005521Y5366668D02*
X56005521Y5519049D01*
X56005521Y5519049D02*
X56043617Y5595240D01*
X56005521Y6471431D02*
X56005521Y6776193D01*
X56538855Y6585717D02*
X55853140Y6585717D01*
X55853140Y6585717D02*
X55776950Y6623812D01*
X55776950Y6623812D02*
X55738855Y6700002D01*
X55738855Y6700002D02*
X55738855Y6776193D01*
X56005521Y7042860D02*
X56805521Y7042860D01*
X56043617Y7042860D02*
X56005521Y7119050D01*
X56005521Y7119050D02*
X56005521Y7271431D01*
X56005521Y7271431D02*
X56043617Y7347622D01*
X56043617Y7347622D02*
X56081712Y7385717D01*
X56081712Y7385717D02*
X56157902Y7423812D01*
X56157902Y7423812D02*
X56386474Y7423812D01*
X56386474Y7423812D02*
X56462664Y7385717D01*
X56462664Y7385717D02*
X56500760Y7347622D01*
X56500760Y7347622D02*
X56538855Y7271431D01*
X56538855Y7271431D02*
X56538855Y7119050D01*
X56538855Y7119050D02*
X56500760Y7042860D01*
M02*
